<?xml version="1.0" encoding="UTF-8"?>
<svg xmlns="http://www.w3.org/2000/svg" width="2480" height="3508" viewBox="0 0 2480 3508">
<title>Te Pā Tūwatawata — A4 sticker sheet</title>
<desc>Te Pā Tūwatawata · te-pa.org · CC BY-NC-SA 4.0</desc>
<rect width="2480" height="3508" fill="white"/><text x="80" y="150" font-family="'Inter', 'Helvetica Neue', Arial, sans-serif" font-size="64" font-weight="800" fill="#111">Te Pā Tūwatawata</text><text x="80" y="200" font-family="'Inter', 'Helvetica Neue', Arial, sans-serif" font-size="28" font-weight="500" fill="#555" letter-spacing="2">A4 STICKER SHEET · 12-UP · KISS-CUT</text><text x="2400" y="200" font-family="'Inter', 'Helvetica Neue', Arial, sans-serif" font-size="22" font-weight="500" fill="#777" letter-spacing="1.4" text-anchor="end">te-pa.org · CC BY-NC-SA 4.0</text><line x1="80" y1="240" x2="2400" y2="240" stroke="#bbb" stroke-width="2"/><rect x="95.0" y="315.0" width="743.3" height="752.0" fill="none" stroke="#cccccc" stroke-dasharray="6 6" stroke-width="1"/><svg x="95.0" y="484.4" width="743.3" height="413.3" viewBox="0 0 1063 591" preserveAspectRatio="xMidYMid meet">
<title>Te Pā Tūwatawata — s01</title>
<desc>Te Pā Tūwatawata · te-pa.org · CC BY-NC-SA 4.0</desc>
<rect width="1063" height="591" fill="#0e0e0e" rx="14"/><text x="361.4" y="94.6" font-family="'Inter', 'Helvetica Neue', Arial, sans-serif" font-size="24" font-weight="700" fill="#6c6a63" letter-spacing="2.4">TOITŪ</text><text x="361.4" y="177.3" font-family="'Inter', 'Helvetica Neue', Arial, sans-serif" font-size="78" font-weight="800" fill="#f4f0e8" letter-spacing="-1">TE WHENUA</text><line x1="361.4" y1="241.3" x2="993.0" y2="241.3" stroke="#3a3a3a" stroke-width="1"/><text x="361.4" y="285.3" font-family="'Lora', 'Georgia', serif" font-size="28" font-style="italic" fill="#6c6a63">The land endures.</text><line x1="318.9" y1="59.1" x2="318.9" y2="502.3" stroke="#3a3a3a" stroke-width="1"/><polyline points="170.1,325.1 170.5,325.1 170.9,325.2 171.3,325.4 171.6,325.7 171.9,326.1 172.1,326.5 172.2,327.0 172.3,327.5 172.3,328.1 172.2,328.7 171.9,329.2 171.6,329.8 171.2,330.3 170.7,330.9 170.1,331.3 169.4,331.7 168.6,332.0 167.8,332.2 166.9,332.3 165.9,332.3 164.9,332.1 163.9,331.9 163.0,331.5 162.0,330.9 161.1,330.3 160.2,329.5 159.4,328.5 158.7,327.5 158.1,326.3 157.6,325.1 157.2,323.7 157.0,322.3 157.0,320.8 157.1,319.3 157.5,317.8 157.9,316.2 158.6,314.7 159.5,313.3 160.5,311.9 161.7,310.6 163.1,309.4 164.7,308.4 166.4,307.5 168.2,306.8 170.1,306.3 172.1,306.0 174.2,305.9 176.3,306.0 178.4,306.4 180.5,307.0 182.6,307.9 184.6,308.9 186.5,310.3 188.3,311.8 189.9,313.6 191.4,315.6 192.7,317.7 193.7,320.0 194.5,322.5 195.1,325.1 195.4,327.7 195.3,330.4 195.0,333.2 194.4,335.9 193.5,338.6 192.3,341.2 190.8,343.7 189.0,346.1 187.0,348.3 184.7,350.3 182.1,352.1 179.4,353.6 176.4,354.8 173.3,355.7 170.1,356.3 166.8,356.5 163.4,356.4 160.0,356.0 156.7,355.1 153.4,353.9 150.2,352.4 147.2,350.4 144.4,348.2 141.8,345.6 139.4,342.8 137.3,339.6 135.6,336.3 134.2,332.7 133.2,328.9 132.6,325.1 132.4,321.1 132.6,317.1 133.2,313.1 134.3,309.1 135.8,305.3 137.7,301.5 140.0,298.0 142.8,294.7 145.8,291.7 149.2,289.0 153.0,286.6 156.9,284.6 161.2,283.1 165.6,282.0 170.1,281.3 174.7,281.1 179.3,281.4 184.0,282.3 188.6,283.6 193.0,285.4 197.3,287.6 201.3,290.4 205.1,293.5 208.5,297.1 211.6,301.1 214.2,305.4 216.4,310.0 218.2,314.8 219.4,319.9 220.1,325.1 220.2,330.3 219.8,335.6 218.8,340.9 217.3,346.1 215.2,351.1 212.6,355.9 209.4,360.5 205.8,364.7 201.7,368.5 197.2,372.0 192.3,374.9 187.1,377.4 181.6,379.3 175.9,380.6 170.1,381.3 164.2,381.4 158.2,380.9 152.3,379.7 146.5,378.0 140.9,375.6 135.5,372.6 130.5,369.0 125.8,364.9 121.5,360.3 117.8,355.3 114.5,349.8 111.8,344.0 109.8,337.9 108.3,331.5 107.6,325.1 107.5,318.5 108.1,311.9 109.5,305.4 111.5,299.0 114.1,292.8 117.5,286.8 121.5,281.3 126.0,276.1 131.1,271.5 136.7,267.3 142.8,263.8 149.2,260.9 156.0,258.6 162.9,257.1 170.1,256.3 177.3,256.3 184.5,257.0 191.7,258.5 198.7,260.7 205.5,263.7 212.0,267.4 218.0,271.8 223.6,276.8 228.7,282.4 233.2,288.6 237.1,295.2 240.2,302.3 242.6,309.6 244.3,317.3" fill="none" stroke="#f4f0e8" stroke-width="3" stroke-linecap="round"/><line x1="170.1" y1="325.1" x2="170.1" y2="422.6" stroke="#f4f0e8" stroke-width="3"/><line x1="42.5" y1="543.0" x2="1020.5" y2="543.0" stroke="#3a3a3a" stroke-width="1"/><text x="531.5" y="569.0" font-family="'Inter', 'Helvetica Neue', Arial, sans-serif" font-size="20" font-weight="500" fill="#6c6a63" text-anchor="middle" letter-spacing="1.2">te-pa.org</text>
</svg><rect x="868.3" y="315.0" width="743.3" height="752.0" fill="none" stroke="#cccccc" stroke-dasharray="6 6" stroke-width="1"/><svg x="868.3" y="484.4" width="743.3" height="413.3" viewBox="0 0 1063 591" preserveAspectRatio="xMidYMid meet">
<title>Te Pā Tūwatawata — s02</title>
<desc>Te Pā Tūwatawata · te-pa.org · CC BY-NC-SA 4.0</desc>
<rect width="1063" height="591" fill="#0e0e0e" rx="14"/><text x="361.4" y="94.6" font-family="'Inter', 'Helvetica Neue', Arial, sans-serif" font-size="24" font-weight="700" fill="#6c6a63" letter-spacing="2.4">RARAUNGA</text><text x="361.4" y="177.3" font-family="'Inter', 'Helvetica Neue', Arial, sans-serif" font-size="78" font-weight="800" fill="#f4f0e8" letter-spacing="-1">HEI TAONGA</text><line x1="361.4" y1="241.3" x2="993.0" y2="241.3" stroke="#3a3a3a" stroke-width="1"/><text x="361.4" y="285.3" font-family="'Lora', 'Georgia', serif" font-size="28" font-style="italic" fill="#6c6a63">Data is a treasure.</text><line x1="318.9" y1="59.1" x2="318.9" y2="502.3" stroke="#3a3a3a" stroke-width="1"/><polygon points="53.2,325.1 68.2,283.1 83.2,325.1" fill="#f4f0e8"/><polygon points="83.2,325.1 98.2,283.1 113.2,325.1" fill="#f4f0e8"/><polygon points="113.2,325.1 128.2,283.1 143.2,325.1" fill="#f4f0e8"/><polygon points="143.2,325.1 158.2,283.1 173.2,325.1" fill="#f4f0e8"/><polygon points="173.2,325.1 188.2,283.1 203.2,325.1" fill="#f4f0e8"/><polygon points="203.2,325.1 218.2,283.1 233.2,325.1" fill="#f4f0e8"/><polygon points="233.2,325.1 248.2,283.1 263.1,325.1" fill="#f4f0e8"/><polygon points="263.1,325.1 278.1,283.1 293.1,325.1" fill="#f4f0e8"/><line x1="42.5" y1="543.0" x2="1020.5" y2="543.0" stroke="#3a3a3a" stroke-width="1"/><text x="531.5" y="569.0" font-family="'Inter', 'Helvetica Neue', Arial, sans-serif" font-size="20" font-weight="500" fill="#6c6a63" text-anchor="middle" letter-spacing="1.2">te-pa.org</text>
</svg><rect x="1641.7" y="315.0" width="743.3" height="752.0" fill="none" stroke="#cccccc" stroke-dasharray="6 6" stroke-width="1"/><svg x="1641.7" y="484.4" width="743.3" height="413.3" viewBox="0 0 1063 591" preserveAspectRatio="xMidYMid meet">
<title>Te Pā Tūwatawata — s03</title>
<desc>Te Pā Tūwatawata · te-pa.org · CC BY-NC-SA 4.0</desc>
<rect width="1063" height="591" fill="#0e0e0e" rx="14"/><text x="361.4" y="94.6" font-family="'Inter', 'Helvetica Neue', Arial, sans-serif" font-size="24" font-weight="700" fill="#6c6a63" letter-spacing="2.4">TINO</text><text x="361.4" y="177.3" font-family="'Inter', 'Helvetica Neue', Arial, sans-serif" font-size="72" font-weight="800" fill="#f4f0e8" letter-spacing="-1">RANGATIRATANGA</text><line x1="361.4" y1="235.3" x2="993.0" y2="235.3" stroke="#3a3a3a" stroke-width="1"/><text x="361.4" y="279.3" font-family="'Lora', 'Georgia', serif" font-size="28" font-style="italic" fill="#6c6a63">Absolute sovereignty.</text><line x1="318.9" y1="59.1" x2="318.9" y2="502.3" stroke="#3a3a3a" stroke-width="1"/><rect x="53.2" y="269.6" width="12.0" height="85.0" fill="#f4f0e8"/><rect x="73.2" y="269.6" width="12.0" height="85.0" fill="#f4f0e8"/><rect x="93.2" y="269.6" width="12.0" height="85.0" fill="#f4f0e8"/><rect x="113.2" y="269.6" width="12.0" height="85.0" fill="#f4f0e8"/><rect x="133.2" y="269.6" width="12.0" height="85.0" fill="#f4f0e8"/><rect x="153.2" y="269.6" width="12.0" height="85.0" fill="#f4f0e8"/><rect x="173.2" y="269.6" width="12.0" height="85.0" fill="#f4f0e8"/><rect x="193.2" y="269.6" width="12.0" height="85.0" fill="#f4f0e8"/><rect x="213.2" y="269.6" width="12.0" height="85.0" fill="#f4f0e8"/><rect x="49.2" y="307.8" width="188.0" height="3.5" fill="#f4f0e8"/><rect x="49.2" y="337.6" width="188.0" height="3.5" fill="#f4f0e8"/><line x1="42.5" y1="543.0" x2="1020.5" y2="543.0" stroke="#3a3a3a" stroke-width="1"/><text x="531.5" y="569.0" font-family="'Inter', 'Helvetica Neue', Arial, sans-serif" font-size="20" font-weight="500" fill="#6c6a63" text-anchor="middle" letter-spacing="1.2">te-pa.org</text>
</svg><rect x="95.0" y="1097.0" width="743.3" height="752.0" fill="none" stroke="#cccccc" stroke-dasharray="6 6" stroke-width="1"/><svg x="95.0" y="1266.4" width="743.3" height="413.3" viewBox="0 0 1063 591" preserveAspectRatio="xMidYMid meet">
<title>Te Pā Tūwatawata — s04</title>
<desc>Te Pā Tūwatawata · te-pa.org · CC BY-NC-SA 4.0</desc>
<rect width="1063" height="591" fill="#0e0e0e" rx="14"/><text x="361.4" y="94.6" font-family="'Inter', 'Helvetica Neue', Arial, sans-serif" font-size="24" font-weight="700" fill="#6c6a63" letter-spacing="2.4">KO TE REO</text><text x="361.4" y="177.3" font-family="'Inter', 'Helvetica Neue', Arial, sans-serif" font-size="78" font-weight="800" fill="#f4f0e8" letter-spacing="-1">TE MAURI</text><line x1="361.4" y1="241.3" x2="993.0" y2="241.3" stroke="#3a3a3a" stroke-width="1"/><text x="361.4" y="285.3" font-family="'Lora', 'Georgia', serif" font-size="28" font-style="italic" fill="#6c6a63">The language is the life force.</text><line x1="318.9" y1="59.1" x2="318.9" y2="502.3" stroke="#3a3a3a" stroke-width="1"/><circle cx="21.3" cy="295.5" r="11.0" fill="none" stroke="#f4f0e8" stroke-width="2.4"/><circle cx="43.3" cy="295.5" r="11.0" fill="none" stroke="#f4f0e8" stroke-width="2.4"/><circle cx="65.3" cy="295.5" r="11.0" fill="none" stroke="#f4f0e8" stroke-width="2.4"/><circle cx="87.3" cy="295.5" r="11.0" fill="none" stroke="#f4f0e8" stroke-width="2.4"/><circle cx="109.3" cy="295.5" r="11.0" fill="none" stroke="#f4f0e8" stroke-width="2.4"/><circle cx="131.3" cy="295.5" r="11.0" fill="none" stroke="#f4f0e8" stroke-width="2.4"/><circle cx="153.3" cy="295.5" r="11.0" fill="none" stroke="#f4f0e8" stroke-width="2.4"/><circle cx="175.3" cy="295.5" r="11.0" fill="none" stroke="#f4f0e8" stroke-width="2.4"/><circle cx="197.3" cy="295.5" r="11.0" fill="none" stroke="#f4f0e8" stroke-width="2.4"/><circle cx="219.3" cy="295.5" r="11.0" fill="none" stroke="#f4f0e8" stroke-width="2.4"/><circle cx="241.3" cy="295.5" r="11.0" fill="none" stroke="#f4f0e8" stroke-width="2.4"/><circle cx="263.3" cy="295.5" r="11.0" fill="none" stroke="#f4f0e8" stroke-width="2.4"/><circle cx="285.3" cy="295.5" r="11.0" fill="none" stroke="#f4f0e8" stroke-width="2.4"/><circle cx="307.3" cy="295.5" r="11.0" fill="none" stroke="#f4f0e8" stroke-width="2.4"/><circle cx="329.3" cy="295.5" r="11.0" fill="none" stroke="#f4f0e8" stroke-width="2.4"/><circle cx="351.3" cy="295.5" r="11.0" fill="none" stroke="#f4f0e8" stroke-width="2.4"/><circle cx="373.3" cy="295.5" r="11.0" fill="none" stroke="#f4f0e8" stroke-width="2.4"/><circle cx="395.3" cy="295.5" r="11.0" fill="none" stroke="#f4f0e8" stroke-width="2.4"/><line x1="42.5" y1="543.0" x2="1020.5" y2="543.0" stroke="#3a3a3a" stroke-width="1"/><text x="531.5" y="569.0" font-family="'Inter', 'Helvetica Neue', Arial, sans-serif" font-size="20" font-weight="500" fill="#6c6a63" text-anchor="middle" letter-spacing="1.2">te-pa.org</text>
</svg><rect x="868.3" y="1097.0" width="743.3" height="752.0" fill="none" stroke="#cccccc" stroke-dasharray="6 6" stroke-width="1"/><svg x="868.3" y="1101.3" width="743.3" height="743.3" viewBox="0 0 1004 1004" preserveAspectRatio="xMidYMid meet">
<title>Te Pā Tūwatawata — s05</title>
<desc>Te Pā Tūwatawata · te-pa.org · CC BY-NC-SA 4.0</desc>
<rect width="1004" height="1004" fill="#0e0e0e" rx="14"/><line x1="80.3" y1="461.8" x2="923.7" y2="461.8" stroke="#3a3a3a" stroke-width="1"/><text x="80.3" y="522.1" font-family="'Inter', 'Helvetica Neue', Arial, sans-serif" font-size="26" font-weight="700" fill="#6c6a63" letter-spacing="2.4">KA NGARO</text><text x="80.3" y="602.4" font-family="'Inter', 'Helvetica Neue', Arial, sans-serif" font-size="92" font-weight="800" fill="#f4f0e8" letter-spacing="-1">TE REO</text><text x="80.3" y="699.4" font-family="'Inter', 'Helvetica Neue', Arial, sans-serif" font-size="92" font-weight="800" fill="#f4f0e8" letter-spacing="-1">KA NGARO</text><text x="80.3" y="796.4" font-family="'Inter', 'Helvetica Neue', Arial, sans-serif" font-size="92" font-weight="800" fill="#f4f0e8" letter-spacing="-1">TE IWI</text><line x1="80.3" y1="853.4" x2="923.7" y2="853.4" stroke="#3a3a3a" stroke-width="1"/><circle cx="502.0" cy="271.1" r="85.0" fill="none" stroke="#f4f0e8" stroke-width="2"/><circle cx="502.0" cy="271.1" r="55.0" fill="none" stroke="#f4f0e8" stroke-width="2"/><circle cx="502.0" cy="271.1" r="30.0" fill="none" stroke="#f4f0e8" stroke-width="2"/><circle cx="502.0" cy="271.1" r="12.0" fill="none" stroke="#f4f0e8" stroke-width="2"/><circle cx="502.0" cy="271.1" r="3.5" fill="#f4f0e8"/><line x1="40.2" y1="956.0" x2="963.8" y2="956.0" stroke="#3a3a3a" stroke-width="1"/><text x="502.0" y="982.0" font-family="'Inter', 'Helvetica Neue', Arial, sans-serif" font-size="20" font-weight="500" fill="#6c6a63" text-anchor="middle" letter-spacing="1.2">te-pa.org</text>
</svg><rect x="1641.7" y="1097.0" width="743.3" height="752.0" fill="none" stroke="#cccccc" stroke-dasharray="6 6" stroke-width="1"/><svg x="1641.7" y="1101.3" width="743.3" height="743.3" viewBox="0 0 1004 1004" preserveAspectRatio="xMidYMid meet">
<title>Te Pā Tūwatawata — s06</title>
<desc>Te Pā Tūwatawata · te-pa.org · CC BY-NC-SA 4.0</desc>
<rect width="1004" height="1004" fill="#0e0e0e" rx="14"/><line x1="80.3" y1="461.8" x2="923.7" y2="461.8" stroke="#3a3a3a" stroke-width="1"/><text x="80.3" y="522.1" font-family="'Inter', 'Helvetica Neue', Arial, sans-serif" font-size="26" font-weight="700" fill="#6c6a63" letter-spacing="2.4">IHUMĀTAO</text><text x="80.3" y="602.4" font-family="'Inter', 'Helvetica Neue', Arial, sans-serif" font-size="92" font-weight="800" fill="#f4f0e8" letter-spacing="-1">E KORE</text><text x="80.3" y="699.4" font-family="'Inter', 'Helvetica Neue', Arial, sans-serif" font-size="92" font-weight="800" fill="#f4f0e8" letter-spacing="-1">E MUTU</text><line x1="80.3" y1="853.4" x2="923.7" y2="853.4" stroke="#3a3a3a" stroke-width="1"/><polyline points="502.0,271.1 502.6,271.1 503.2,271.3 503.7,271.6 504.2,272.1 504.6,272.6 505.0,273.2 505.2,273.9 505.3,274.7 505.2,275.5 505.1,276.4 504.7,277.2 504.3,278.1 503.7,278.9 502.9,279.6 502.0,280.2 501.0,280.8 499.8,281.2 498.6,281.5 497.3,281.7 495.9,281.7 494.5,281.5 493.0,281.1 491.6,280.5 490.1,279.7 488.8,278.7 487.5,277.5 486.3,276.2 485.3,274.6 484.4,272.9 483.7,271.1 483.2,269.1 482.9,267.0 482.8,264.8 483.0,262.6 483.5,260.4 484.2,258.1 485.2,256.0 486.5,253.8 488.0,251.8 489.8,249.9 491.8,248.2 494.1,246.7 496.5,245.4 499.2,244.3 502.0,243.6 504.9,243.1 508.0,243.0 511.1,243.2 514.2,243.7 517.3,244.6 520.3,245.9 523.3,247.5 526.1,249.4 528.7,251.7 531.1,254.3 533.3,257.2 535.1,260.3 536.7,263.7 537.9,267.3 538.7,271.1 539.1,275.0 539.1,279.0 538.6,283.0 537.7,287.0 536.4,290.9 534.6,294.8 532.4,298.5 529.8,302.0 526.8,305.2 523.4,308.1 519.6,310.7 515.6,312.9 511.3,314.7 506.7,316.1 502.0,316.9 497.1,317.3 492.2,317.1 487.3,316.4 482.4,315.2 477.6,313.4 472.9,311.1 468.5,308.3 464.3,305.0 460.5,301.3 457.0,297.1 454.0,292.5 451.4,287.5 449.4,282.3 447.9,276.8 447.0,271.1 446.7,265.3 447.0,259.4 447.9,253.5 449.5,247.7 451.7,242.1 454.5,236.6 457.9,231.4 461.9,226.6 466.4,222.1 471.4,218.2 476.9,214.7 482.7,211.8 488.9,209.5 495.4,207.9 502.0,206.9 508.8,206.7 515.6,207.1 522.4,208.3 529.1,210.2 535.6,212.9 541.9,216.2 547.8,220.2 553.3,224.9 558.4,230.1 562.9,235.9 566.8,242.2 570.0,249.0 572.5,256.1 574.3,263.5 575.3,271.1 575.5,278.8 574.9,286.6 573.5,294.3 571.2,301.9 568.2,309.3 564.3,316.3 559.7,323.0 554.3,329.2 548.3,334.9 541.7,339.9 534.6,344.2 526.9,347.8 518.9,350.6 510.6,352.5 502.0,353.6 493.3,353.7 484.6,353.0 475.9,351.3 467.4,348.7 459.2,345.2 451.4,340.8 443.9,335.6 437.1,329.6 430.8,322.8 425.3,315.4 420.5,307.4 416.6,298.8 413.5,289.9 411.4,280.6 410.3,271.1 410.2,261.4 411.1,251.8 413.1,242.2 416.0,232.8 420.0,223.7 424.9,215.0 430.7,206.9 437.4,199.3 444.9,192.5 453.1,186.4 462.0,181.2 471.4,176.9 481.3,173.6 491.5,171.4 502.0,170.2 512.6,170.2 523.2,171.3 533.7,173.4 544.0,176.7 553.9,181.1 563.4,186.5 572.3,193.0 580.6,200.3 588.0,208.6 594.6,217.6 600.3,227.3 604.9,237.7 608.4,248.5 610.8,259.6" fill="none" stroke="#f4f0e8" stroke-width="3" stroke-linecap="round"/><line x1="502.0" y1="271.1" x2="502.0" y2="414.1" stroke="#f4f0e8" stroke-width="3"/><line x1="40.2" y1="956.0" x2="963.8" y2="956.0" stroke="#3a3a3a" stroke-width="1"/><text x="502.0" y="982.0" font-family="'Inter', 'Helvetica Neue', Arial, sans-serif" font-size="20" font-weight="500" fill="#6c6a63" text-anchor="middle" letter-spacing="1.2">te-pa.org</text>
</svg><rect x="95.0" y="1879.0" width="743.3" height="752.0" fill="none" stroke="#cccccc" stroke-dasharray="6 6" stroke-width="1"/><svg x="95.0" y="1883.3" width="743.3" height="743.3" viewBox="0 0 1004 1004" preserveAspectRatio="xMidYMid meet">
<title>Te Pā Tūwatawata — s07</title>
<desc>Te Pā Tūwatawata · te-pa.org · CC BY-NC-SA 4.0</desc>
<rect width="1004" height="1004" fill="#0e0e0e" rx="14"/><line x1="80.3" y1="461.8" x2="923.7" y2="461.8" stroke="#3a3a3a" stroke-width="1"/><text x="80.3" y="522.1" font-family="'Inter', 'Helvetica Neue', Arial, sans-serif" font-size="26" font-weight="700" fill="#6c6a63" letter-spacing="2.4">HE RARAUNGA</text><text x="80.3" y="602.4" font-family="'Inter', 'Helvetica Neue', Arial, sans-serif" font-size="92" font-weight="800" fill="#f4f0e8" letter-spacing="-1">NŌ WHAI</text><text x="80.3" y="699.4" font-family="'Inter', 'Helvetica Neue', Arial, sans-serif" font-size="92" font-weight="800" fill="#f4f0e8" letter-spacing="-1">AO MĀORI</text><line x1="80.3" y1="853.4" x2="923.7" y2="853.4" stroke="#3a3a3a" stroke-width="1"/><path d="M -22.0 100.4 A 22.0 22.0 0 0 1 22.0 100.4" fill="none" stroke="#f4f0e8" stroke-width="1.6"/><path d="M 22.0 100.4 A 22.0 22.0 0 0 1 66.0 100.4" fill="none" stroke="#f4f0e8" stroke-width="1.6"/><path d="M 66.0 100.4 A 22.0 22.0 0 0 1 110.0 100.4" fill="none" stroke="#f4f0e8" stroke-width="1.6"/><path d="M 110.0 100.4 A 22.0 22.0 0 0 1 154.0 100.4" fill="none" stroke="#f4f0e8" stroke-width="1.6"/><path d="M 154.0 100.4 A 22.0 22.0 0 0 1 198.0 100.4" fill="none" stroke="#f4f0e8" stroke-width="1.6"/><path d="M 198.0 100.4 A 22.0 22.0 0 0 1 242.0 100.4" fill="none" stroke="#f4f0e8" stroke-width="1.6"/><path d="M 242.0 100.4 A 22.0 22.0 0 0 1 286.0 100.4" fill="none" stroke="#f4f0e8" stroke-width="1.6"/><path d="M 286.0 100.4 A 22.0 22.0 0 0 1 330.0 100.4" fill="none" stroke="#f4f0e8" stroke-width="1.6"/><path d="M 330.0 100.4 A 22.0 22.0 0 0 1 374.0 100.4" fill="none" stroke="#f4f0e8" stroke-width="1.6"/><path d="M 374.0 100.4 A 22.0 22.0 0 0 1 418.0 100.4" fill="none" stroke="#f4f0e8" stroke-width="1.6"/><path d="M 418.0 100.4 A 22.0 22.0 0 0 1 462.0 100.4" fill="none" stroke="#f4f0e8" stroke-width="1.6"/><path d="M 462.0 100.4 A 22.0 22.0 0 0 1 506.0 100.4" fill="none" stroke="#f4f0e8" stroke-width="1.6"/><path d="M 506.0 100.4 A 22.0 22.0 0 0 1 550.0 100.4" fill="none" stroke="#f4f0e8" stroke-width="1.6"/><path d="M 550.0 100.4 A 22.0 22.0 0 0 1 594.0 100.4" fill="none" stroke="#f4f0e8" stroke-width="1.6"/><path d="M 594.0 100.4 A 22.0 22.0 0 0 1 638.0 100.4" fill="none" stroke="#f4f0e8" stroke-width="1.6"/><path d="M 638.0 100.4 A 22.0 22.0 0 0 1 682.0 100.4" fill="none" stroke="#f4f0e8" stroke-width="1.6"/><path d="M 682.0 100.4 A 22.0 22.0 0 0 1 726.0 100.4" fill="none" stroke="#f4f0e8" stroke-width="1.6"/><path d="M 726.0 100.4 A 22.0 22.0 0 0 1 770.0 100.4" fill="none" stroke="#f4f0e8" stroke-width="1.6"/><path d="M 770.0 100.4 A 22.0 22.0 0 0 1 814.0 100.4" fill="none" stroke="#f4f0e8" stroke-width="1.6"/><path d="M 814.0 100.4 A 22.0 22.0 0 0 1 858.0 100.4" fill="none" stroke="#f4f0e8" stroke-width="1.6"/><path d="M 858.0 100.4 A 22.0 22.0 0 0 1 902.0 100.4" fill="none" stroke="#f4f0e8" stroke-width="1.6"/><path d="M 902.0 100.4 A 22.0 22.0 0 0 1 946.0 100.4" fill="none" stroke="#f4f0e8" stroke-width="1.6"/><path d="M 946.0 100.4 A 22.0 22.0 0 0 1 990.0 100.4" fill="none" stroke="#f4f0e8" stroke-width="1.6"/><path d="M 990.0 100.4 A 22.0 22.0 0 0 1 1034.0 100.4" fill="none" stroke="#f4f0e8" stroke-width="1.6"/><path d="M 0.0 121.3 A 22.0 22.0 0 0 1 44.0 121.3" fill="none" stroke="#f4f0e8" stroke-width="1.6"/><path d="M 44.0 121.3 A 22.0 22.0 0 0 1 88.0 121.3" fill="none" stroke="#f4f0e8" stroke-width="1.6"/><path d="M 88.0 121.3 A 22.0 22.0 0 0 1 132.0 121.3" fill="none" stroke="#f4f0e8" stroke-width="1.6"/><path d="M 132.0 121.3 A 22.0 22.0 0 0 1 176.0 121.3" fill="none" stroke="#f4f0e8" stroke-width="1.6"/><path d="M 176.0 121.3 A 22.0 22.0 0 0 1 220.0 121.3" fill="none" stroke="#f4f0e8" stroke-width="1.6"/><path d="M 220.0 121.3 A 22.0 22.0 0 0 1 264.0 121.3" fill="none" stroke="#f4f0e8" stroke-width="1.6"/><path d="M 264.0 121.3 A 22.0 22.0 0 0 1 308.0 121.3" fill="none" stroke="#f4f0e8" stroke-width="1.6"/><path d="M 308.0 121.3 A 22.0 22.0 0 0 1 352.0 121.3" fill="none" stroke="#f4f0e8" stroke-width="1.6"/><path d="M 352.0 121.3 A 22.0 22.0 0 0 1 396.0 121.3" fill="none" stroke="#f4f0e8" stroke-width="1.6"/><path d="M 396.0 121.3 A 22.0 22.0 0 0 1 440.0 121.3" fill="none" stroke="#f4f0e8" stroke-width="1.6"/><path d="M 440.0 121.3 A 22.0 22.0 0 0 1 484.0 121.3" fill="none" stroke="#f4f0e8" stroke-width="1.6"/><path d="M 484.0 121.3 A 22.0 22.0 0 0 1 528.0 121.3" fill="none" stroke="#f4f0e8" stroke-width="1.6"/><path d="M 528.0 121.3 A 22.0 22.0 0 0 1 572.0 121.3" fill="none" stroke="#f4f0e8" stroke-width="1.6"/><path d="M 572.0 121.3 A 22.0 22.0 0 0 1 616.0 121.3" fill="none" stroke="#f4f0e8" stroke-width="1.6"/><path d="M 616.0 121.3 A 22.0 22.0 0 0 1 660.0 121.3" fill="none" stroke="#f4f0e8" stroke-width="1.6"/><path d="M 660.0 121.3 A 22.0 22.0 0 0 1 704.0 121.3" fill="none" stroke="#f4f0e8" stroke-width="1.6"/><path d="M 704.0 121.3 A 22.0 22.0 0 0 1 748.0 121.3" fill="none" stroke="#f4f0e8" stroke-width="1.6"/><path d="M 748.0 121.3 A 22.0 22.0 0 0 1 792.0 121.3" fill="none" stroke="#f4f0e8" stroke-width="1.6"/><path d="M 792.0 121.3 A 22.0 22.0 0 0 1 836.0 121.3" fill="none" stroke="#f4f0e8" stroke-width="1.6"/><path d="M 836.0 121.3 A 22.0 22.0 0 0 1 880.0 121.3" fill="none" stroke="#f4f0e8" stroke-width="1.6"/><path d="M 880.0 121.3 A 22.0 22.0 0 0 1 924.0 121.3" fill="none" stroke="#f4f0e8" stroke-width="1.6"/><path d="M 924.0 121.3 A 22.0 22.0 0 0 1 968.0 121.3" fill="none" stroke="#f4f0e8" stroke-width="1.6"/><path d="M 968.0 121.3 A 22.0 22.0 0 0 1 1012.0 121.3" fill="none" stroke="#f4f0e8" stroke-width="1.6"/><path d="M 1012.0 121.3 A 22.0 22.0 0 0 1 1056.0 121.3" fill="none" stroke="#f4f0e8" stroke-width="1.6"/><path d="M -22.0 142.2 A 22.0 22.0 0 0 1 22.0 142.2" fill="none" stroke="#f4f0e8" stroke-width="1.6"/><path d="M 22.0 142.2 A 22.0 22.0 0 0 1 66.0 142.2" fill="none" stroke="#f4f0e8" stroke-width="1.6"/><path d="M 66.0 142.2 A 22.0 22.0 0 0 1 110.0 142.2" fill="none" stroke="#f4f0e8" stroke-width="1.6"/><path d="M 110.0 142.2 A 22.0 22.0 0 0 1 154.0 142.2" fill="none" stroke="#f4f0e8" stroke-width="1.6"/><path d="M 154.0 142.2 A 22.0 22.0 0 0 1 198.0 142.2" fill="none" stroke="#f4f0e8" stroke-width="1.6"/><path d="M 198.0 142.2 A 22.0 22.0 0 0 1 242.0 142.2" fill="none" stroke="#f4f0e8" stroke-width="1.6"/><path d="M 242.0 142.2 A 22.0 22.0 0 0 1 286.0 142.2" fill="none" stroke="#f4f0e8" stroke-width="1.6"/><path d="M 286.0 142.2 A 22.0 22.0 0 0 1 330.0 142.2" fill="none" stroke="#f4f0e8" stroke-width="1.6"/><path d="M 330.0 142.2 A 22.0 22.0 0 0 1 374.0 142.2" fill="none" stroke="#f4f0e8" stroke-width="1.6"/><path d="M 374.0 142.2 A 22.0 22.0 0 0 1 418.0 142.2" fill="none" stroke="#f4f0e8" stroke-width="1.6"/><path d="M 418.0 142.2 A 22.0 22.0 0 0 1 462.0 142.2" fill="none" stroke="#f4f0e8" stroke-width="1.6"/><path d="M 462.0 142.2 A 22.0 22.0 0 0 1 506.0 142.2" fill="none" stroke="#f4f0e8" stroke-width="1.6"/><path d="M 506.0 142.2 A 22.0 22.0 0 0 1 550.0 142.2" fill="none" stroke="#f4f0e8" stroke-width="1.6"/><path d="M 550.0 142.2 A 22.0 22.0 0 0 1 594.0 142.2" fill="none" stroke="#f4f0e8" stroke-width="1.6"/><path d="M 594.0 142.2 A 22.0 22.0 0 0 1 638.0 142.2" fill="none" stroke="#f4f0e8" stroke-width="1.6"/><path d="M 638.0 142.2 A 22.0 22.0 0 0 1 682.0 142.2" fill="none" stroke="#f4f0e8" stroke-width="1.6"/><path d="M 682.0 142.2 A 22.0 22.0 0 0 1 726.0 142.2" fill="none" stroke="#f4f0e8" stroke-width="1.6"/><path d="M 726.0 142.2 A 22.0 22.0 0 0 1 770.0 142.2" fill="none" stroke="#f4f0e8" stroke-width="1.6"/><path d="M 770.0 142.2 A 22.0 22.0 0 0 1 814.0 142.2" fill="none" stroke="#f4f0e8" stroke-width="1.6"/><path d="M 814.0 142.2 A 22.0 22.0 0 0 1 858.0 142.2" fill="none" stroke="#f4f0e8" stroke-width="1.6"/><path d="M 858.0 142.2 A 22.0 22.0 0 0 1 902.0 142.2" fill="none" stroke="#f4f0e8" stroke-width="1.6"/><path d="M 902.0 142.2 A 22.0 22.0 0 0 1 946.0 142.2" fill="none" stroke="#f4f0e8" stroke-width="1.6"/><path d="M 946.0 142.2 A 22.0 22.0 0 0 1 990.0 142.2" fill="none" stroke="#f4f0e8" stroke-width="1.6"/><path d="M 990.0 142.2 A 22.0 22.0 0 0 1 1034.0 142.2" fill="none" stroke="#f4f0e8" stroke-width="1.6"/><path d="M 0.0 163.1 A 22.0 22.0 0 0 1 44.0 163.1" fill="none" stroke="#f4f0e8" stroke-width="1.6"/><path d="M 44.0 163.1 A 22.0 22.0 0 0 1 88.0 163.1" fill="none" stroke="#f4f0e8" stroke-width="1.6"/><path d="M 88.0 163.1 A 22.0 22.0 0 0 1 132.0 163.1" fill="none" stroke="#f4f0e8" stroke-width="1.6"/><path d="M 132.0 163.1 A 22.0 22.0 0 0 1 176.0 163.1" fill="none" stroke="#f4f0e8" stroke-width="1.6"/><path d="M 176.0 163.1 A 22.0 22.0 0 0 1 220.0 163.1" fill="none" stroke="#f4f0e8" stroke-width="1.6"/><path d="M 220.0 163.1 A 22.0 22.0 0 0 1 264.0 163.1" fill="none" stroke="#f4f0e8" stroke-width="1.6"/><path d="M 264.0 163.1 A 22.0 22.0 0 0 1 308.0 163.1" fill="none" stroke="#f4f0e8" stroke-width="1.6"/><path d="M 308.0 163.1 A 22.0 22.0 0 0 1 352.0 163.1" fill="none" stroke="#f4f0e8" stroke-width="1.6"/><path d="M 352.0 163.1 A 22.0 22.0 0 0 1 396.0 163.1" fill="none" stroke="#f4f0e8" stroke-width="1.6"/><path d="M 396.0 163.1 A 22.0 22.0 0 0 1 440.0 163.1" fill="none" stroke="#f4f0e8" stroke-width="1.6"/><path d="M 440.0 163.1 A 22.0 22.0 0 0 1 484.0 163.1" fill="none" stroke="#f4f0e8" stroke-width="1.6"/><path d="M 484.0 163.1 A 22.0 22.0 0 0 1 528.0 163.1" fill="none" stroke="#f4f0e8" stroke-width="1.6"/><path d="M 528.0 163.1 A 22.0 22.0 0 0 1 572.0 163.1" fill="none" stroke="#f4f0e8" stroke-width="1.6"/><path d="M 572.0 163.1 A 22.0 22.0 0 0 1 616.0 163.1" fill="none" stroke="#f4f0e8" stroke-width="1.6"/><path d="M 616.0 163.1 A 22.0 22.0 0 0 1 660.0 163.1" fill="none" stroke="#f4f0e8" stroke-width="1.6"/><path d="M 660.0 163.1 A 22.0 22.0 0 0 1 704.0 163.1" fill="none" stroke="#f4f0e8" stroke-width="1.6"/><path d="M 704.0 163.1 A 22.0 22.0 0 0 1 748.0 163.1" fill="none" stroke="#f4f0e8" stroke-width="1.6"/><path d="M 748.0 163.1 A 22.0 22.0 0 0 1 792.0 163.1" fill="none" stroke="#f4f0e8" stroke-width="1.6"/><path d="M 792.0 163.1 A 22.0 22.0 0 0 1 836.0 163.1" fill="none" stroke="#f4f0e8" stroke-width="1.6"/><path d="M 836.0 163.1 A 22.0 22.0 0 0 1 880.0 163.1" fill="none" stroke="#f4f0e8" stroke-width="1.6"/><path d="M 880.0 163.1 A 22.0 22.0 0 0 1 924.0 163.1" fill="none" stroke="#f4f0e8" stroke-width="1.6"/><path d="M 924.0 163.1 A 22.0 22.0 0 0 1 968.0 163.1" fill="none" stroke="#f4f0e8" stroke-width="1.6"/><path d="M 968.0 163.1 A 22.0 22.0 0 0 1 1012.0 163.1" fill="none" stroke="#f4f0e8" stroke-width="1.6"/><path d="M 1012.0 163.1 A 22.0 22.0 0 0 1 1056.0 163.1" fill="none" stroke="#f4f0e8" stroke-width="1.6"/><line x1="40.2" y1="956.0" x2="963.8" y2="956.0" stroke="#3a3a3a" stroke-width="1"/><text x="502.0" y="982.0" font-family="'Inter', 'Helvetica Neue', Arial, sans-serif" font-size="20" font-weight="500" fill="#6c6a63" text-anchor="middle" letter-spacing="1.2">te-pa.org</text>
</svg><rect x="868.3" y="1879.0" width="743.3" height="752.0" fill="none" stroke="#cccccc" stroke-dasharray="6 6" stroke-width="1"/><svg x="868.3" y="1883.3" width="743.3" height="743.3" viewBox="0 0 1004 1004" preserveAspectRatio="xMidYMid meet">
<title>Te Pā Tūwatawata — s08</title>
<desc>Te Pā Tūwatawata · te-pa.org · CC BY-NC-SA 4.0</desc>
<rect width="1004" height="1004" fill="#0e0e0e" rx="14"/><line x1="80.3" y1="461.8" x2="923.7" y2="461.8" stroke="#3a3a3a" stroke-width="1"/><text x="80.3" y="522.1" font-family="'Inter', 'Helvetica Neue', Arial, sans-serif" font-size="26" font-weight="700" fill="#6c6a63" letter-spacing="2.4">KA WHAWHAI</text><text x="80.3" y="602.4" font-family="'Inter', 'Helvetica Neue', Arial, sans-serif" font-size="92" font-weight="800" fill="#f4f0e8" letter-spacing="-1">TONU</text><text x="80.3" y="699.4" font-family="'Inter', 'Helvetica Neue', Arial, sans-serif" font-size="92" font-weight="800" fill="#f4f0e8" letter-spacing="-1">MĀTOU</text><line x1="80.3" y1="853.4" x2="923.7" y2="853.4" stroke="#3a3a3a" stroke-width="1"/><rect x="180.7" y="236.3" width="12.0" height="85.0" fill="#f4f0e8"/><rect x="225.7" y="236.3" width="12.0" height="85.0" fill="#f4f0e8"/><rect x="270.7" y="236.3" width="12.0" height="85.0" fill="#f4f0e8"/><rect x="315.7" y="236.3" width="12.0" height="85.0" fill="#f4f0e8"/><rect x="360.7" y="236.3" width="12.0" height="85.0" fill="#f4f0e8"/><rect x="405.7" y="236.3" width="12.0" height="85.0" fill="#f4f0e8"/><rect x="450.7" y="236.3" width="12.0" height="85.0" fill="#f4f0e8"/><rect x="495.7" y="236.3" width="12.0" height="85.0" fill="#f4f0e8"/><rect x="540.7" y="236.3" width="12.0" height="85.0" fill="#f4f0e8"/><rect x="585.7" y="236.3" width="12.0" height="85.0" fill="#f4f0e8"/><rect x="630.7" y="236.3" width="12.0" height="85.0" fill="#f4f0e8"/><rect x="675.7" y="236.3" width="12.0" height="85.0" fill="#f4f0e8"/><rect x="720.7" y="236.3" width="12.0" height="85.0" fill="#f4f0e8"/><rect x="765.7" y="236.3" width="12.0" height="85.0" fill="#f4f0e8"/><rect x="810.7" y="236.3" width="12.0" height="85.0" fill="#f4f0e8"/><rect x="176.7" y="274.5" width="683.0" height="3.5" fill="#f4f0e8"/><rect x="176.7" y="304.3" width="683.0" height="3.5" fill="#f4f0e8"/><line x1="40.2" y1="956.0" x2="963.8" y2="956.0" stroke="#3a3a3a" stroke-width="1"/><text x="502.0" y="982.0" font-family="'Inter', 'Helvetica Neue', Arial, sans-serif" font-size="20" font-weight="500" fill="#6c6a63" text-anchor="middle" letter-spacing="1.2">te-pa.org</text>
</svg><rect x="1641.7" y="1879.0" width="743.3" height="752.0" fill="none" stroke="#cccccc" stroke-dasharray="6 6" stroke-width="1"/><svg x="1641.7" y="1883.3" width="743.3" height="743.3" viewBox="0 0 945 945" preserveAspectRatio="xMidYMid meet">
<title>Te Pā Tūwatawata — s09</title>
<desc>Te Pā Tūwatawata · te-pa.org · CC BY-NC-SA 4.0</desc>
<defs><clipPath id="cl"><circle cx="472.5" cy="472.5" r="458.5"/></clipPath></defs><rect width="945" height="945" fill="#0e0e0e" rx="14"/><circle cx="472.5" cy="472.5" r="458.5" fill="#0e0e0e" stroke="#f4f0e8" stroke-width="2"/><g clip-path="url(#cl)"><line x1="122.9" y1="425.2" x2="822.1" y2="425.2" stroke="#3a3a3a" stroke-width="1"/><text x="122.9" y="481.9" font-family="'Inter', 'Helvetica Neue', Arial, sans-serif" font-size="24" font-weight="700" fill="#6c6a63" letter-spacing="2.4">TOITŪ</text><text x="122.9" y="557.5" font-family="'Inter', 'Helvetica Neue', Arial, sans-serif" font-size="86" font-weight="800" fill="#f4f0e8" letter-spacing="-1">TE TIRITI</text><text x="122.9" y="670.5" font-family="'Lora', 'Georgia', serif" font-size="26" font-style="italic" fill="#6c6a63">The Treaty endures.</text><line x1="122.9" y1="784.3" x2="822.1" y2="784.3" stroke="#3a3a3a" stroke-width="1"/><circle cx="75.6" cy="236.2" r="14.0" fill="none" stroke="#f4f0e8" stroke-width="2.4"/><circle cx="111.6" cy="236.2" r="14.0" fill="none" stroke="#f4f0e8" stroke-width="2.4"/><circle cx="147.6" cy="236.2" r="14.0" fill="none" stroke="#f4f0e8" stroke-width="2.4"/><circle cx="183.6" cy="236.2" r="14.0" fill="none" stroke="#f4f0e8" stroke-width="2.4"/><circle cx="219.6" cy="236.2" r="14.0" fill="none" stroke="#f4f0e8" stroke-width="2.4"/><circle cx="255.6" cy="236.2" r="14.0" fill="none" stroke="#f4f0e8" stroke-width="2.4"/><circle cx="291.6" cy="236.2" r="14.0" fill="none" stroke="#f4f0e8" stroke-width="2.4"/><circle cx="327.6" cy="236.2" r="14.0" fill="none" stroke="#f4f0e8" stroke-width="2.4"/><circle cx="363.6" cy="236.2" r="14.0" fill="none" stroke="#f4f0e8" stroke-width="2.4"/><circle cx="399.6" cy="236.2" r="14.0" fill="none" stroke="#f4f0e8" stroke-width="2.4"/><circle cx="435.6" cy="236.2" r="14.0" fill="none" stroke="#f4f0e8" stroke-width="2.4"/><circle cx="471.6" cy="236.2" r="14.0" fill="none" stroke="#f4f0e8" stroke-width="2.4"/><circle cx="507.6" cy="236.2" r="14.0" fill="none" stroke="#f4f0e8" stroke-width="2.4"/><circle cx="543.6" cy="236.2" r="14.0" fill="none" stroke="#f4f0e8" stroke-width="2.4"/><circle cx="579.6" cy="236.2" r="14.0" fill="none" stroke="#f4f0e8" stroke-width="2.4"/><circle cx="615.6" cy="236.2" r="14.0" fill="none" stroke="#f4f0e8" stroke-width="2.4"/><circle cx="651.6" cy="236.2" r="14.0" fill="none" stroke="#f4f0e8" stroke-width="2.4"/><circle cx="687.6" cy="236.2" r="14.0" fill="none" stroke="#f4f0e8" stroke-width="2.4"/><circle cx="723.6" cy="236.2" r="14.0" fill="none" stroke="#f4f0e8" stroke-width="2.4"/><circle cx="759.6" cy="236.2" r="14.0" fill="none" stroke="#f4f0e8" stroke-width="2.4"/><circle cx="795.6" cy="236.2" r="14.0" fill="none" stroke="#f4f0e8" stroke-width="2.4"/><circle cx="831.6" cy="236.2" r="14.0" fill="none" stroke="#f4f0e8" stroke-width="2.4"/><line x1="37.8" y1="897.0" x2="907.2" y2="897.0" stroke="#3a3a3a" stroke-width="1"/><text x="472.5" y="923.0" font-family="'Inter', 'Helvetica Neue', Arial, sans-serif" font-size="20" font-weight="500" fill="#6c6a63" text-anchor="middle" letter-spacing="1.2">te-pa.org</text></g>
</svg><rect x="95.0" y="2661.0" width="743.3" height="752.0" fill="none" stroke="#cccccc" stroke-dasharray="6 6" stroke-width="1"/><svg x="95.0" y="2665.3" width="743.3" height="743.3" viewBox="0 0 945 945" preserveAspectRatio="xMidYMid meet">
<title>Te Pā Tūwatawata — s10</title>
<desc>Te Pā Tūwatawata · te-pa.org · CC BY-NC-SA 4.0</desc>
<defs><clipPath id="cl"><circle cx="472.5" cy="472.5" r="458.5"/></clipPath></defs><rect width="945" height="945" fill="#0e0e0e" rx="14"/><circle cx="472.5" cy="472.5" r="458.5" fill="#0e0e0e" stroke="#f4f0e8" stroke-width="2"/><g clip-path="url(#cl)"><line x1="122.9" y1="425.2" x2="822.1" y2="425.2" stroke="#3a3a3a" stroke-width="1"/><text x="122.9" y="481.9" font-family="'Inter', 'Helvetica Neue', Arial, sans-serif" font-size="24" font-weight="700" fill="#6c6a63" letter-spacing="2.4">WHAI AO</text><text x="122.9" y="557.5" font-family="'Inter', 'Helvetica Neue', Arial, sans-serif" font-size="86" font-weight="800" fill="#f4f0e8" letter-spacing="-1">KAITIAKI</text><text x="122.9" y="670.5" font-family="'Lora', 'Georgia', serif" font-size="26" font-style="italic" fill="#6c6a63">Guardians of the</text><text x="122.9" y="702.5" font-family="'Lora', 'Georgia', serif" font-size="26" font-style="italic" fill="#6c6a63">digital world.</text><line x1="122.9" y1="784.3" x2="822.1" y2="784.3" stroke="#3a3a3a" stroke-width="1"/><circle cx="472.5" cy="207.9" r="70.0" fill="none" stroke="#f4f0e8" stroke-width="2"/><circle cx="472.5" cy="207.9" r="45.0" fill="none" stroke="#f4f0e8" stroke-width="2"/><circle cx="472.5" cy="207.9" r="25.0" fill="none" stroke="#f4f0e8" stroke-width="2"/><circle cx="472.5" cy="207.9" r="10.0" fill="none" stroke="#f4f0e8" stroke-width="2"/><circle cx="472.5" cy="207.9" r="3.5" fill="#f4f0e8"/><line x1="37.8" y1="897.0" x2="907.2" y2="897.0" stroke="#3a3a3a" stroke-width="1"/><text x="472.5" y="923.0" font-family="'Inter', 'Helvetica Neue', Arial, sans-serif" font-size="20" font-weight="500" fill="#6c6a63" text-anchor="middle" letter-spacing="1.2">te-pa.org</text></g>
</svg><rect x="868.3" y="2661.0" width="743.3" height="752.0" fill="none" stroke="#cccccc" stroke-dasharray="6 6" stroke-width="1"/><svg x="868.3" y="2665.3" width="743.3" height="743.3" viewBox="0 0 945 945" preserveAspectRatio="xMidYMid meet">
<title>Te Pā Tūwatawata — s11</title>
<desc>Te Pā Tūwatawata · te-pa.org · CC BY-NC-SA 4.0</desc>
<defs><clipPath id="cl"><circle cx="472.5" cy="472.5" r="458.5"/></clipPath></defs><rect width="945" height="945" fill="#0e0e0e" rx="14"/><circle cx="472.5" cy="472.5" r="458.5" fill="#0e0e0e" stroke="#f4f0e8" stroke-width="2"/><g clip-path="url(#cl)"><line x1="122.9" y1="425.2" x2="822.1" y2="425.2" stroke="#3a3a3a" stroke-width="1"/><text x="122.9" y="481.9" font-family="'Inter', 'Helvetica Neue', Arial, sans-serif" font-size="24" font-weight="700" fill="#6c6a63" letter-spacing="2.4">AI</text><text x="122.9" y="557.5" font-family="'Inter', 'Helvetica Neue', Arial, sans-serif" font-size="86" font-weight="800" fill="#f4f0e8" letter-spacing="-1">KĀORE</text><text x="122.9" y="648.5" font-family="'Inter', 'Helvetica Neue', Arial, sans-serif" font-size="86" font-weight="800" fill="#f4f0e8" letter-spacing="-1">E TIKA</text><line x1="122.9" y1="784.3" x2="822.1" y2="784.3" stroke="#3a3a3a" stroke-width="1"/><polygon points="75.6,207.9 94.1,141.9 112.6,207.9" fill="#f4f0e8"/><polygon points="112.6,207.9 131.1,141.9 149.6,207.9" fill="#f4f0e8"/><polygon points="149.6,207.9 168.1,141.9 186.6,207.9" fill="#f4f0e8"/><polygon points="186.6,207.9 205.1,141.9 223.6,207.9" fill="#f4f0e8"/><polygon points="223.6,207.9 242.1,141.9 260.6,207.9" fill="#f4f0e8"/><polygon points="260.6,207.9 279.1,141.9 297.6,207.9" fill="#f4f0e8"/><polygon points="297.6,207.9 316.1,141.9 334.6,207.9" fill="#f4f0e8"/><polygon points="334.6,207.9 353.1,141.9 371.6,207.9" fill="#f4f0e8"/><polygon points="371.6,207.9 390.1,141.9 408.6,207.9" fill="#f4f0e8"/><polygon points="408.6,207.9 427.1,141.9 445.6,207.9" fill="#f4f0e8"/><polygon points="445.6,207.9 464.1,141.9 482.6,207.9" fill="#f4f0e8"/><polygon points="482.6,207.9 501.1,141.9 519.6,207.9" fill="#f4f0e8"/><polygon points="519.6,207.9 538.1,141.9 556.6,207.9" fill="#f4f0e8"/><polygon points="556.6,207.9 575.1,141.9 593.6,207.9" fill="#f4f0e8"/><polygon points="593.6,207.9 612.1,141.9 630.6,207.9" fill="#f4f0e8"/><polygon points="630.6,207.9 649.1,141.9 667.6,207.9" fill="#f4f0e8"/><polygon points="667.6,207.9 686.1,141.9 704.6,207.9" fill="#f4f0e8"/><polygon points="704.6,207.9 723.1,141.9 741.6,207.9" fill="#f4f0e8"/><polygon points="741.6,207.9 760.1,141.9 778.6,207.9" fill="#f4f0e8"/><polygon points="778.6,207.9 797.1,141.9 815.6,207.9" fill="#f4f0e8"/><line x1="37.8" y1="897.0" x2="907.2" y2="897.0" stroke="#3a3a3a" stroke-width="1"/><text x="472.5" y="923.0" font-family="'Inter', 'Helvetica Neue', Arial, sans-serif" font-size="20" font-weight="500" fill="#6c6a63" text-anchor="middle" letter-spacing="1.2">te-pa.org</text></g>
</svg><rect x="1641.7" y="2661.0" width="743.3" height="752.0" fill="none" stroke="#cccccc" stroke-dasharray="6 6" stroke-width="1"/><svg x="1641.7" y="2665.3" width="743.3" height="743.3" viewBox="0 0 945 945" preserveAspectRatio="xMidYMid meet">
<title>Te Pā Tūwatawata — s12</title>
<desc>Te Pā Tūwatawata · te-pa.org · CC BY-NC-SA 4.0</desc>
<defs><clipPath id="cl"><circle cx="472.5" cy="472.5" r="458.5"/></clipPath></defs><rect width="945" height="945" fill="#0e0e0e" rx="14"/><circle cx="472.5" cy="472.5" r="458.5" fill="#0e0e0e" stroke="#f4f0e8" stroke-width="2"/><g clip-path="url(#cl)"><line x1="122.9" y1="425.2" x2="822.1" y2="425.2" stroke="#3a3a3a" stroke-width="1"/><text x="122.9" y="481.9" font-family="'Inter', 'Helvetica Neue', Arial, sans-serif" font-size="24" font-weight="700" fill="#6c6a63" letter-spacing="2.4">HE WAKA</text><text x="122.9" y="557.5" font-family="'Inter', 'Helvetica Neue', Arial, sans-serif" font-size="86" font-weight="800" fill="#f4f0e8" letter-spacing="-1">EKE NOA</text><text x="122.9" y="670.5" font-family="'Lora', 'Georgia', serif" font-size="26" font-style="italic" fill="#6c6a63">A canoe we're</text><text x="122.9" y="702.5" font-family="'Lora', 'Georgia', serif" font-size="26" font-style="italic" fill="#6c6a63">all in together.</text><line x1="122.9" y1="784.3" x2="822.1" y2="784.3" stroke="#3a3a3a" stroke-width="1"/><path d="M -22.0 113.4 A 22.0 22.0 0 0 1 22.0 113.4" fill="none" stroke="#f4f0e8" stroke-width="1.6"/><path d="M 22.0 113.4 A 22.0 22.0 0 0 1 66.0 113.4" fill="none" stroke="#f4f0e8" stroke-width="1.6"/><path d="M 66.0 113.4 A 22.0 22.0 0 0 1 110.0 113.4" fill="none" stroke="#f4f0e8" stroke-width="1.6"/><path d="M 110.0 113.4 A 22.0 22.0 0 0 1 154.0 113.4" fill="none" stroke="#f4f0e8" stroke-width="1.6"/><path d="M 154.0 113.4 A 22.0 22.0 0 0 1 198.0 113.4" fill="none" stroke="#f4f0e8" stroke-width="1.6"/><path d="M 198.0 113.4 A 22.0 22.0 0 0 1 242.0 113.4" fill="none" stroke="#f4f0e8" stroke-width="1.6"/><path d="M 242.0 113.4 A 22.0 22.0 0 0 1 286.0 113.4" fill="none" stroke="#f4f0e8" stroke-width="1.6"/><path d="M 286.0 113.4 A 22.0 22.0 0 0 1 330.0 113.4" fill="none" stroke="#f4f0e8" stroke-width="1.6"/><path d="M 330.0 113.4 A 22.0 22.0 0 0 1 374.0 113.4" fill="none" stroke="#f4f0e8" stroke-width="1.6"/><path d="M 374.0 113.4 A 22.0 22.0 0 0 1 418.0 113.4" fill="none" stroke="#f4f0e8" stroke-width="1.6"/><path d="M 418.0 113.4 A 22.0 22.0 0 0 1 462.0 113.4" fill="none" stroke="#f4f0e8" stroke-width="1.6"/><path d="M 462.0 113.4 A 22.0 22.0 0 0 1 506.0 113.4" fill="none" stroke="#f4f0e8" stroke-width="1.6"/><path d="M 506.0 113.4 A 22.0 22.0 0 0 1 550.0 113.4" fill="none" stroke="#f4f0e8" stroke-width="1.6"/><path d="M 550.0 113.4 A 22.0 22.0 0 0 1 594.0 113.4" fill="none" stroke="#f4f0e8" stroke-width="1.6"/><path d="M 594.0 113.4 A 22.0 22.0 0 0 1 638.0 113.4" fill="none" stroke="#f4f0e8" stroke-width="1.6"/><path d="M 638.0 113.4 A 22.0 22.0 0 0 1 682.0 113.4" fill="none" stroke="#f4f0e8" stroke-width="1.6"/><path d="M 682.0 113.4 A 22.0 22.0 0 0 1 726.0 113.4" fill="none" stroke="#f4f0e8" stroke-width="1.6"/><path d="M 726.0 113.4 A 22.0 22.0 0 0 1 770.0 113.4" fill="none" stroke="#f4f0e8" stroke-width="1.6"/><path d="M 770.0 113.4 A 22.0 22.0 0 0 1 814.0 113.4" fill="none" stroke="#f4f0e8" stroke-width="1.6"/><path d="M 814.0 113.4 A 22.0 22.0 0 0 1 858.0 113.4" fill="none" stroke="#f4f0e8" stroke-width="1.6"/><path d="M 858.0 113.4 A 22.0 22.0 0 0 1 902.0 113.4" fill="none" stroke="#f4f0e8" stroke-width="1.6"/><path d="M 902.0 113.4 A 22.0 22.0 0 0 1 946.0 113.4" fill="none" stroke="#f4f0e8" stroke-width="1.6"/><path d="M 946.0 113.4 A 22.0 22.0 0 0 1 990.0 113.4" fill="none" stroke="#f4f0e8" stroke-width="1.6"/><path d="M 0.0 134.3 A 22.0 22.0 0 0 1 44.0 134.3" fill="none" stroke="#f4f0e8" stroke-width="1.6"/><path d="M 44.0 134.3 A 22.0 22.0 0 0 1 88.0 134.3" fill="none" stroke="#f4f0e8" stroke-width="1.6"/><path d="M 88.0 134.3 A 22.0 22.0 0 0 1 132.0 134.3" fill="none" stroke="#f4f0e8" stroke-width="1.6"/><path d="M 132.0 134.3 A 22.0 22.0 0 0 1 176.0 134.3" fill="none" stroke="#f4f0e8" stroke-width="1.6"/><path d="M 176.0 134.3 A 22.0 22.0 0 0 1 220.0 134.3" fill="none" stroke="#f4f0e8" stroke-width="1.6"/><path d="M 220.0 134.3 A 22.0 22.0 0 0 1 264.0 134.3" fill="none" stroke="#f4f0e8" stroke-width="1.6"/><path d="M 264.0 134.3 A 22.0 22.0 0 0 1 308.0 134.3" fill="none" stroke="#f4f0e8" stroke-width="1.6"/><path d="M 308.0 134.3 A 22.0 22.0 0 0 1 352.0 134.3" fill="none" stroke="#f4f0e8" stroke-width="1.6"/><path d="M 352.0 134.3 A 22.0 22.0 0 0 1 396.0 134.3" fill="none" stroke="#f4f0e8" stroke-width="1.6"/><path d="M 396.0 134.3 A 22.0 22.0 0 0 1 440.0 134.3" fill="none" stroke="#f4f0e8" stroke-width="1.6"/><path d="M 440.0 134.3 A 22.0 22.0 0 0 1 484.0 134.3" fill="none" stroke="#f4f0e8" stroke-width="1.6"/><path d="M 484.0 134.3 A 22.0 22.0 0 0 1 528.0 134.3" fill="none" stroke="#f4f0e8" stroke-width="1.6"/><path d="M 528.0 134.3 A 22.0 22.0 0 0 1 572.0 134.3" fill="none" stroke="#f4f0e8" stroke-width="1.6"/><path d="M 572.0 134.3 A 22.0 22.0 0 0 1 616.0 134.3" fill="none" stroke="#f4f0e8" stroke-width="1.6"/><path d="M 616.0 134.3 A 22.0 22.0 0 0 1 660.0 134.3" fill="none" stroke="#f4f0e8" stroke-width="1.6"/><path d="M 660.0 134.3 A 22.0 22.0 0 0 1 704.0 134.3" fill="none" stroke="#f4f0e8" stroke-width="1.6"/><path d="M 704.0 134.3 A 22.0 22.0 0 0 1 748.0 134.3" fill="none" stroke="#f4f0e8" stroke-width="1.6"/><path d="M 748.0 134.3 A 22.0 22.0 0 0 1 792.0 134.3" fill="none" stroke="#f4f0e8" stroke-width="1.6"/><path d="M 792.0 134.3 A 22.0 22.0 0 0 1 836.0 134.3" fill="none" stroke="#f4f0e8" stroke-width="1.6"/><path d="M 836.0 134.3 A 22.0 22.0 0 0 1 880.0 134.3" fill="none" stroke="#f4f0e8" stroke-width="1.6"/><path d="M 880.0 134.3 A 22.0 22.0 0 0 1 924.0 134.3" fill="none" stroke="#f4f0e8" stroke-width="1.6"/><path d="M 924.0 134.3 A 22.0 22.0 0 0 1 968.0 134.3" fill="none" stroke="#f4f0e8" stroke-width="1.6"/><path d="M 968.0 134.3 A 22.0 22.0 0 0 1 1012.0 134.3" fill="none" stroke="#f4f0e8" stroke-width="1.6"/><path d="M -22.0 155.2 A 22.0 22.0 0 0 1 22.0 155.2" fill="none" stroke="#f4f0e8" stroke-width="1.6"/><path d="M 22.0 155.2 A 22.0 22.0 0 0 1 66.0 155.2" fill="none" stroke="#f4f0e8" stroke-width="1.6"/><path d="M 66.0 155.2 A 22.0 22.0 0 0 1 110.0 155.2" fill="none" stroke="#f4f0e8" stroke-width="1.6"/><path d="M 110.0 155.2 A 22.0 22.0 0 0 1 154.0 155.2" fill="none" stroke="#f4f0e8" stroke-width="1.6"/><path d="M 154.0 155.2 A 22.0 22.0 0 0 1 198.0 155.2" fill="none" stroke="#f4f0e8" stroke-width="1.6"/><path d="M 198.0 155.2 A 22.0 22.0 0 0 1 242.0 155.2" fill="none" stroke="#f4f0e8" stroke-width="1.6"/><path d="M 242.0 155.2 A 22.0 22.0 0 0 1 286.0 155.2" fill="none" stroke="#f4f0e8" stroke-width="1.6"/><path d="M 286.0 155.2 A 22.0 22.0 0 0 1 330.0 155.2" fill="none" stroke="#f4f0e8" stroke-width="1.6"/><path d="M 330.0 155.2 A 22.0 22.0 0 0 1 374.0 155.2" fill="none" stroke="#f4f0e8" stroke-width="1.6"/><path d="M 374.0 155.2 A 22.0 22.0 0 0 1 418.0 155.2" fill="none" stroke="#f4f0e8" stroke-width="1.6"/><path d="M 418.0 155.2 A 22.0 22.0 0 0 1 462.0 155.2" fill="none" stroke="#f4f0e8" stroke-width="1.6"/><path d="M 462.0 155.2 A 22.0 22.0 0 0 1 506.0 155.2" fill="none" stroke="#f4f0e8" stroke-width="1.6"/><path d="M 506.0 155.2 A 22.0 22.0 0 0 1 550.0 155.2" fill="none" stroke="#f4f0e8" stroke-width="1.6"/><path d="M 550.0 155.2 A 22.0 22.0 0 0 1 594.0 155.2" fill="none" stroke="#f4f0e8" stroke-width="1.6"/><path d="M 594.0 155.2 A 22.0 22.0 0 0 1 638.0 155.2" fill="none" stroke="#f4f0e8" stroke-width="1.6"/><path d="M 638.0 155.2 A 22.0 22.0 0 0 1 682.0 155.2" fill="none" stroke="#f4f0e8" stroke-width="1.6"/><path d="M 682.0 155.2 A 22.0 22.0 0 0 1 726.0 155.2" fill="none" stroke="#f4f0e8" stroke-width="1.6"/><path d="M 726.0 155.2 A 22.0 22.0 0 0 1 770.0 155.2" fill="none" stroke="#f4f0e8" stroke-width="1.6"/><path d="M 770.0 155.2 A 22.0 22.0 0 0 1 814.0 155.2" fill="none" stroke="#f4f0e8" stroke-width="1.6"/><path d="M 814.0 155.2 A 22.0 22.0 0 0 1 858.0 155.2" fill="none" stroke="#f4f0e8" stroke-width="1.6"/><path d="M 858.0 155.2 A 22.0 22.0 0 0 1 902.0 155.2" fill="none" stroke="#f4f0e8" stroke-width="1.6"/><path d="M 902.0 155.2 A 22.0 22.0 0 0 1 946.0 155.2" fill="none" stroke="#f4f0e8" stroke-width="1.6"/><path d="M 946.0 155.2 A 22.0 22.0 0 0 1 990.0 155.2" fill="none" stroke="#f4f0e8" stroke-width="1.6"/><line x1="37.8" y1="897.0" x2="907.2" y2="897.0" stroke="#3a3a3a" stroke-width="1"/><text x="472.5" y="923.0" font-family="'Inter', 'Helvetica Neue', Arial, sans-serif" font-size="20" font-weight="500" fill="#6c6a63" text-anchor="middle" letter-spacing="1.2">te-pa.org</text></g>
</svg>
</svg>
