<?xml version="1.0" encoding="UTF-8"?>
<svg xmlns="http://www.w3.org/2000/svg" width="1063" height="591" viewBox="0 0 1063 591">
<title>Te Pā Tūwatawata — rhizome-s02</title>
<desc>Te Pā Tūwatawata · te-pa.org · CC BY-NC-SA 4.0</desc>
<rect width="1063" height="591" fill="#0e0e0e" rx="14"/><text x="361.4" y="94.6" font-family="'Inter', 'Helvetica Neue', Arial, sans-serif" font-size="24" font-weight="700" fill="#6c6a63" letter-spacing="2.4">KIA WHAKATŌMURI</text><text x="361.4" y="177.3" font-family="'Inter', 'Helvetica Neue', Arial, sans-serif" font-size="78" font-weight="800" fill="#f4f0e8" letter-spacing="-1">TE HAERE</text><text x="361.4" y="255.3" font-family="'Inter', 'Helvetica Neue', Arial, sans-serif" font-size="78" font-weight="800" fill="#f4f0e8" letter-spacing="-1">WHAKAMUA</text><line x1="361.4" y1="319.3" x2="993.0" y2="319.3" stroke="#3a3a3a" stroke-width="1"/><text x="361.4" y="363.3" font-family="'Lora', 'Georgia', serif" font-size="28" font-style="italic" fill="#6c6a63">Walk backwards</text><text x="361.4" y="398.3" font-family="'Lora', 'Georgia', serif" font-size="28" font-style="italic" fill="#6c6a63">into the future.</text><line x1="318.9" y1="59.1" x2="318.9" y2="502.3" stroke="#3a3a3a" stroke-width="1"/><circle cx="170.1" cy="325.1" r="3" fill="#f4f0e8"/><path d="M 170.1 325.1 Q 173.9 283.9 163.5 250.1" fill="none" stroke="#f4f0e8" stroke-width="2" stroke-linecap="round"/><circle cx="163.5" cy="250.1" r="3" fill="#f4f0e8"/><path d="M 170.1 325.1 Q 188.6 285.8 190.5 248.8" fill="none" stroke="#f4f0e8" stroke-width="2" stroke-linecap="round"/><circle cx="190.5" cy="248.8" r="3" fill="#f4f0e8"/><path d="M 170.1 325.1 Q 202.4 293.1 217.5 257.3" fill="none" stroke="#f4f0e8" stroke-width="2" stroke-linecap="round"/><circle cx="217.5" cy="257.3" r="3" fill="#f4f0e8"/><path d="M 170.1 325.1 Q 213.3 305.2 240.9 275.4" fill="none" stroke="#f4f0e8" stroke-width="2" stroke-linecap="round"/><circle cx="240.9" cy="275.4" r="3" fill="#f4f0e8"/><path d="M 170.1 325.1 Q 219.0 316.7 254.9 294.2" fill="none" stroke="#f4f0e8" stroke-width="2" stroke-linecap="round"/><circle cx="254.9" cy="294.2" r="3" fill="#f4f0e8"/><path d="M 170.1 325.1 Q 211.4 326.7 244.5 314.6" fill="none" stroke="#f4f0e8" stroke-width="2" stroke-linecap="round"/><circle cx="244.5" cy="314.6" r="3" fill="#f4f0e8"/><path d="M 170.1 325.1 Q 212.2 335.8 248.8 330.6" fill="none" stroke="#f4f0e8" stroke-width="2" stroke-linecap="round"/><circle cx="248.8" cy="330.6" r="3" fill="#f4f0e8"/><path d="M 170.1 325.1 Q 210.1 346.6 248.8 350.6" fill="none" stroke="#f4f0e8" stroke-width="2" stroke-linecap="round"/><circle cx="248.8" cy="350.6" r="3" fill="#f4f0e8"/><path d="M 170.1 325.1 Q 202.9 359.4 240.0 375.9" fill="none" stroke="#f4f0e8" stroke-width="2" stroke-linecap="round"/><circle cx="240.0" cy="375.9" r="3" fill="#f4f0e8"/><path d="M 170.1 325.1 Q 186.8 371.8 215.2 403.2" fill="none" stroke="#f4f0e8" stroke-width="2" stroke-linecap="round"/><circle cx="215.2" cy="403.2" r="3" fill="#f4f0e8"/><line x1="42.5" y1="543.0" x2="1020.5" y2="543.0" stroke="#3a3a3a" stroke-width="1"/><text x="531.5" y="569.0" font-family="'Inter', 'Helvetica Neue', Arial, sans-serif" font-size="20" font-weight="500" fill="#6c6a63" text-anchor="middle" letter-spacing="1.2">te-pa.org</text>
</svg>
