<?xml version="1.0" encoding="UTF-8"?>
<svg xmlns="http://www.w3.org/2000/svg" width="945" height="945" viewBox="0 0 945 945">
<title>Te Pā Tūwatawata — rhizome-s03</title>
<desc>Te Pā Tūwatawata · te-pa.org · CC BY-NC-SA 4.0</desc>
<defs><clipPath id="cl"><circle cx="472.5" cy="472.5" r="458.5"/></clipPath></defs><rect width="945" height="945" fill="#0e0e0e" rx="14"/><circle cx="472.5" cy="472.5" r="458.5" fill="#0e0e0e" stroke="#f4f0e8" stroke-width="2"/><g clip-path="url(#cl)"><line x1="122.9" y1="425.2" x2="822.1" y2="425.2" stroke="#3a3a3a" stroke-width="1"/><text x="122.9" y="481.9" font-family="'Inter', 'Helvetica Neue', Arial, sans-serif" font-size="24" font-weight="700" fill="#6c6a63" letter-spacing="2.4">RAINA RERE</text><text x="122.9" y="557.5" font-family="'Inter', 'Helvetica Neue', Arial, sans-serif" font-size="86" font-weight="800" fill="#f4f0e8" letter-spacing="-1">LINES OF</text><text x="122.9" y="648.5" font-family="'Inter', 'Helvetica Neue', Arial, sans-serif" font-size="86" font-weight="800" fill="#f4f0e8" letter-spacing="-1">FLIGHT</text><line x1="122.9" y1="784.3" x2="822.1" y2="784.3" stroke="#3a3a3a" stroke-width="1"/><circle cx="472.5" cy="207.9" r="3" fill="#f4f0e8"/><path d="M 472.5 207.9 Q 475.2 179.0 467.9 155.3" fill="none" stroke="#f4f0e8" stroke-width="2" stroke-linecap="round"/><circle cx="467.9" cy="155.3" r="3" fill="#f4f0e8"/><path d="M 472.5 207.9 Q 485.5 180.3 486.8 154.3" fill="none" stroke="#f4f0e8" stroke-width="2" stroke-linecap="round"/><circle cx="486.8" cy="154.3" r="3" fill="#f4f0e8"/><path d="M 472.5 207.9 Q 495.2 185.4 505.8 160.3" fill="none" stroke="#f4f0e8" stroke-width="2" stroke-linecap="round"/><circle cx="505.8" cy="160.3" r="3" fill="#f4f0e8"/><path d="M 472.5 207.9 Q 502.8 194.0 522.2 173.1" fill="none" stroke="#f4f0e8" stroke-width="2" stroke-linecap="round"/><circle cx="522.2" cy="173.1" r="3" fill="#f4f0e8"/><path d="M 472.5 207.9 Q 506.9 202.0 532.0 186.2" fill="none" stroke="#f4f0e8" stroke-width="2" stroke-linecap="round"/><circle cx="532.0" cy="186.2" r="3" fill="#f4f0e8"/><path d="M 472.5 207.9 Q 501.5 209.1 524.8 200.6" fill="none" stroke="#f4f0e8" stroke-width="2" stroke-linecap="round"/><circle cx="524.8" cy="200.6" r="3" fill="#f4f0e8"/><path d="M 472.5 207.9 Q 502.0 215.4 527.8 211.8" fill="none" stroke="#f4f0e8" stroke-width="2" stroke-linecap="round"/><circle cx="527.8" cy="211.8" r="3" fill="#f4f0e8"/><path d="M 472.5 207.9 Q 500.6 223.1 527.7 225.8" fill="none" stroke="#f4f0e8" stroke-width="2" stroke-linecap="round"/><circle cx="527.7" cy="225.8" r="3" fill="#f4f0e8"/><path d="M 472.5 207.9 Q 495.6 232.0 521.6 243.6" fill="none" stroke="#f4f0e8" stroke-width="2" stroke-linecap="round"/><circle cx="521.6" cy="243.6" r="3" fill="#f4f0e8"/><path d="M 472.5 207.9 Q 484.2 240.7 504.2 262.8" fill="none" stroke="#f4f0e8" stroke-width="2" stroke-linecap="round"/><circle cx="504.2" cy="262.8" r="3" fill="#f4f0e8"/><line x1="37.8" y1="897.0" x2="907.2" y2="897.0" stroke="#3a3a3a" stroke-width="1"/><text x="472.5" y="923.0" font-family="'Inter', 'Helvetica Neue', Arial, sans-serif" font-size="20" font-weight="500" fill="#6c6a63" text-anchor="middle" letter-spacing="1.2">te-pa.org</text></g>
</svg>
