<?xml version="1.0" encoding="UTF-8"?>
<svg xmlns="http://www.w3.org/2000/svg" width="945" height="945" viewBox="0 0 945 945">
<title>Te Pā Tūwatawata — s12</title>
<desc>Te Pā Tūwatawata · te-pa.org · CC BY-NC-SA 4.0</desc>
<defs><clipPath id="cl"><circle cx="472.5" cy="472.5" r="458.5"/></clipPath></defs><rect width="945" height="945" fill="#0e0e0e" rx="14"/><circle cx="472.5" cy="472.5" r="458.5" fill="#0e0e0e" stroke="#f4f0e8" stroke-width="2"/><g clip-path="url(#cl)"><line x1="122.9" y1="425.2" x2="822.1" y2="425.2" stroke="#3a3a3a" stroke-width="1"/><text x="122.9" y="481.9" font-family="'Inter', 'Helvetica Neue', Arial, sans-serif" font-size="24" font-weight="700" fill="#6c6a63" letter-spacing="2.4">HE WAKA</text><text x="122.9" y="557.5" font-family="'Inter', 'Helvetica Neue', Arial, sans-serif" font-size="86" font-weight="800" fill="#f4f0e8" letter-spacing="-1">EKE NOA</text><text x="122.9" y="670.5" font-family="'Lora', 'Georgia', serif" font-size="26" font-style="italic" fill="#6c6a63">A canoe we're</text><text x="122.9" y="702.5" font-family="'Lora', 'Georgia', serif" font-size="26" font-style="italic" fill="#6c6a63">all in together.</text><line x1="122.9" y1="784.3" x2="822.1" y2="784.3" stroke="#3a3a3a" stroke-width="1"/><path d="M -22.0 113.4 A 22.0 22.0 0 0 1 22.0 113.4" fill="none" stroke="#f4f0e8" stroke-width="1.6"/><path d="M 22.0 113.4 A 22.0 22.0 0 0 1 66.0 113.4" fill="none" stroke="#f4f0e8" stroke-width="1.6"/><path d="M 66.0 113.4 A 22.0 22.0 0 0 1 110.0 113.4" fill="none" stroke="#f4f0e8" stroke-width="1.6"/><path d="M 110.0 113.4 A 22.0 22.0 0 0 1 154.0 113.4" fill="none" stroke="#f4f0e8" stroke-width="1.6"/><path d="M 154.0 113.4 A 22.0 22.0 0 0 1 198.0 113.4" fill="none" stroke="#f4f0e8" stroke-width="1.6"/><path d="M 198.0 113.4 A 22.0 22.0 0 0 1 242.0 113.4" fill="none" stroke="#f4f0e8" stroke-width="1.6"/><path d="M 242.0 113.4 A 22.0 22.0 0 0 1 286.0 113.4" fill="none" stroke="#f4f0e8" stroke-width="1.6"/><path d="M 286.0 113.4 A 22.0 22.0 0 0 1 330.0 113.4" fill="none" stroke="#f4f0e8" stroke-width="1.6"/><path d="M 330.0 113.4 A 22.0 22.0 0 0 1 374.0 113.4" fill="none" stroke="#f4f0e8" stroke-width="1.6"/><path d="M 374.0 113.4 A 22.0 22.0 0 0 1 418.0 113.4" fill="none" stroke="#f4f0e8" stroke-width="1.6"/><path d="M 418.0 113.4 A 22.0 22.0 0 0 1 462.0 113.4" fill="none" stroke="#f4f0e8" stroke-width="1.6"/><path d="M 462.0 113.4 A 22.0 22.0 0 0 1 506.0 113.4" fill="none" stroke="#f4f0e8" stroke-width="1.6"/><path d="M 506.0 113.4 A 22.0 22.0 0 0 1 550.0 113.4" fill="none" stroke="#f4f0e8" stroke-width="1.6"/><path d="M 550.0 113.4 A 22.0 22.0 0 0 1 594.0 113.4" fill="none" stroke="#f4f0e8" stroke-width="1.6"/><path d="M 594.0 113.4 A 22.0 22.0 0 0 1 638.0 113.4" fill="none" stroke="#f4f0e8" stroke-width="1.6"/><path d="M 638.0 113.4 A 22.0 22.0 0 0 1 682.0 113.4" fill="none" stroke="#f4f0e8" stroke-width="1.6"/><path d="M 682.0 113.4 A 22.0 22.0 0 0 1 726.0 113.4" fill="none" stroke="#f4f0e8" stroke-width="1.6"/><path d="M 726.0 113.4 A 22.0 22.0 0 0 1 770.0 113.4" fill="none" stroke="#f4f0e8" stroke-width="1.6"/><path d="M 770.0 113.4 A 22.0 22.0 0 0 1 814.0 113.4" fill="none" stroke="#f4f0e8" stroke-width="1.6"/><path d="M 814.0 113.4 A 22.0 22.0 0 0 1 858.0 113.4" fill="none" stroke="#f4f0e8" stroke-width="1.6"/><path d="M 858.0 113.4 A 22.0 22.0 0 0 1 902.0 113.4" fill="none" stroke="#f4f0e8" stroke-width="1.6"/><path d="M 902.0 113.4 A 22.0 22.0 0 0 1 946.0 113.4" fill="none" stroke="#f4f0e8" stroke-width="1.6"/><path d="M 946.0 113.4 A 22.0 22.0 0 0 1 990.0 113.4" fill="none" stroke="#f4f0e8" stroke-width="1.6"/><path d="M 0.0 134.3 A 22.0 22.0 0 0 1 44.0 134.3" fill="none" stroke="#f4f0e8" stroke-width="1.6"/><path d="M 44.0 134.3 A 22.0 22.0 0 0 1 88.0 134.3" fill="none" stroke="#f4f0e8" stroke-width="1.6"/><path d="M 88.0 134.3 A 22.0 22.0 0 0 1 132.0 134.3" fill="none" stroke="#f4f0e8" stroke-width="1.6"/><path d="M 132.0 134.3 A 22.0 22.0 0 0 1 176.0 134.3" fill="none" stroke="#f4f0e8" stroke-width="1.6"/><path d="M 176.0 134.3 A 22.0 22.0 0 0 1 220.0 134.3" fill="none" stroke="#f4f0e8" stroke-width="1.6"/><path d="M 220.0 134.3 A 22.0 22.0 0 0 1 264.0 134.3" fill="none" stroke="#f4f0e8" stroke-width="1.6"/><path d="M 264.0 134.3 A 22.0 22.0 0 0 1 308.0 134.3" fill="none" stroke="#f4f0e8" stroke-width="1.6"/><path d="M 308.0 134.3 A 22.0 22.0 0 0 1 352.0 134.3" fill="none" stroke="#f4f0e8" stroke-width="1.6"/><path d="M 352.0 134.3 A 22.0 22.0 0 0 1 396.0 134.3" fill="none" stroke="#f4f0e8" stroke-width="1.6"/><path d="M 396.0 134.3 A 22.0 22.0 0 0 1 440.0 134.3" fill="none" stroke="#f4f0e8" stroke-width="1.6"/><path d="M 440.0 134.3 A 22.0 22.0 0 0 1 484.0 134.3" fill="none" stroke="#f4f0e8" stroke-width="1.6"/><path d="M 484.0 134.3 A 22.0 22.0 0 0 1 528.0 134.3" fill="none" stroke="#f4f0e8" stroke-width="1.6"/><path d="M 528.0 134.3 A 22.0 22.0 0 0 1 572.0 134.3" fill="none" stroke="#f4f0e8" stroke-width="1.6"/><path d="M 572.0 134.3 A 22.0 22.0 0 0 1 616.0 134.3" fill="none" stroke="#f4f0e8" stroke-width="1.6"/><path d="M 616.0 134.3 A 22.0 22.0 0 0 1 660.0 134.3" fill="none" stroke="#f4f0e8" stroke-width="1.6"/><path d="M 660.0 134.3 A 22.0 22.0 0 0 1 704.0 134.3" fill="none" stroke="#f4f0e8" stroke-width="1.6"/><path d="M 704.0 134.3 A 22.0 22.0 0 0 1 748.0 134.3" fill="none" stroke="#f4f0e8" stroke-width="1.6"/><path d="M 748.0 134.3 A 22.0 22.0 0 0 1 792.0 134.3" fill="none" stroke="#f4f0e8" stroke-width="1.6"/><path d="M 792.0 134.3 A 22.0 22.0 0 0 1 836.0 134.3" fill="none" stroke="#f4f0e8" stroke-width="1.6"/><path d="M 836.0 134.3 A 22.0 22.0 0 0 1 880.0 134.3" fill="none" stroke="#f4f0e8" stroke-width="1.6"/><path d="M 880.0 134.3 A 22.0 22.0 0 0 1 924.0 134.3" fill="none" stroke="#f4f0e8" stroke-width="1.6"/><path d="M 924.0 134.3 A 22.0 22.0 0 0 1 968.0 134.3" fill="none" stroke="#f4f0e8" stroke-width="1.6"/><path d="M 968.0 134.3 A 22.0 22.0 0 0 1 1012.0 134.3" fill="none" stroke="#f4f0e8" stroke-width="1.6"/><path d="M -22.0 155.2 A 22.0 22.0 0 0 1 22.0 155.2" fill="none" stroke="#f4f0e8" stroke-width="1.6"/><path d="M 22.0 155.2 A 22.0 22.0 0 0 1 66.0 155.2" fill="none" stroke="#f4f0e8" stroke-width="1.6"/><path d="M 66.0 155.2 A 22.0 22.0 0 0 1 110.0 155.2" fill="none" stroke="#f4f0e8" stroke-width="1.6"/><path d="M 110.0 155.2 A 22.0 22.0 0 0 1 154.0 155.2" fill="none" stroke="#f4f0e8" stroke-width="1.6"/><path d="M 154.0 155.2 A 22.0 22.0 0 0 1 198.0 155.2" fill="none" stroke="#f4f0e8" stroke-width="1.6"/><path d="M 198.0 155.2 A 22.0 22.0 0 0 1 242.0 155.2" fill="none" stroke="#f4f0e8" stroke-width="1.6"/><path d="M 242.0 155.2 A 22.0 22.0 0 0 1 286.0 155.2" fill="none" stroke="#f4f0e8" stroke-width="1.6"/><path d="M 286.0 155.2 A 22.0 22.0 0 0 1 330.0 155.2" fill="none" stroke="#f4f0e8" stroke-width="1.6"/><path d="M 330.0 155.2 A 22.0 22.0 0 0 1 374.0 155.2" fill="none" stroke="#f4f0e8" stroke-width="1.6"/><path d="M 374.0 155.2 A 22.0 22.0 0 0 1 418.0 155.2" fill="none" stroke="#f4f0e8" stroke-width="1.6"/><path d="M 418.0 155.2 A 22.0 22.0 0 0 1 462.0 155.2" fill="none" stroke="#f4f0e8" stroke-width="1.6"/><path d="M 462.0 155.2 A 22.0 22.0 0 0 1 506.0 155.2" fill="none" stroke="#f4f0e8" stroke-width="1.6"/><path d="M 506.0 155.2 A 22.0 22.0 0 0 1 550.0 155.2" fill="none" stroke="#f4f0e8" stroke-width="1.6"/><path d="M 550.0 155.2 A 22.0 22.0 0 0 1 594.0 155.2" fill="none" stroke="#f4f0e8" stroke-width="1.6"/><path d="M 594.0 155.2 A 22.0 22.0 0 0 1 638.0 155.2" fill="none" stroke="#f4f0e8" stroke-width="1.6"/><path d="M 638.0 155.2 A 22.0 22.0 0 0 1 682.0 155.2" fill="none" stroke="#f4f0e8" stroke-width="1.6"/><path d="M 682.0 155.2 A 22.0 22.0 0 0 1 726.0 155.2" fill="none" stroke="#f4f0e8" stroke-width="1.6"/><path d="M 726.0 155.2 A 22.0 22.0 0 0 1 770.0 155.2" fill="none" stroke="#f4f0e8" stroke-width="1.6"/><path d="M 770.0 155.2 A 22.0 22.0 0 0 1 814.0 155.2" fill="none" stroke="#f4f0e8" stroke-width="1.6"/><path d="M 814.0 155.2 A 22.0 22.0 0 0 1 858.0 155.2" fill="none" stroke="#f4f0e8" stroke-width="1.6"/><path d="M 858.0 155.2 A 22.0 22.0 0 0 1 902.0 155.2" fill="none" stroke="#f4f0e8" stroke-width="1.6"/><path d="M 902.0 155.2 A 22.0 22.0 0 0 1 946.0 155.2" fill="none" stroke="#f4f0e8" stroke-width="1.6"/><path d="M 946.0 155.2 A 22.0 22.0 0 0 1 990.0 155.2" fill="none" stroke="#f4f0e8" stroke-width="1.6"/><line x1="37.8" y1="897.0" x2="907.2" y2="897.0" stroke="#3a3a3a" stroke-width="1"/><text x="472.5" y="923.0" font-family="'Inter', 'Helvetica Neue', Arial, sans-serif" font-size="20" font-weight="500" fill="#6c6a63" text-anchor="middle" letter-spacing="1.2">te-pa.org</text></g>
</svg>
