<?xml version="1.0" encoding="UTF-8"?>
<svg xmlns="http://www.w3.org/2000/svg" width="1063" height="591" viewBox="0 0 1063 591">
<title>Te Pā Tūwatawata — s03</title>
<desc>Te Pā Tūwatawata · te-pa.org · CC BY-NC-SA 4.0</desc>
<rect width="1063" height="591" fill="#0e0e0e" rx="14"/><text x="361.4" y="94.6" font-family="'Inter', 'Helvetica Neue', Arial, sans-serif" font-size="24" font-weight="700" fill="#6c6a63" letter-spacing="2.4">TINO</text><text x="361.4" y="177.3" font-family="'Inter', 'Helvetica Neue', Arial, sans-serif" font-size="72" font-weight="800" fill="#f4f0e8" letter-spacing="-1">RANGATIRATANGA</text><line x1="361.4" y1="235.3" x2="993.0" y2="235.3" stroke="#3a3a3a" stroke-width="1"/><text x="361.4" y="279.3" font-family="'Lora', 'Georgia', serif" font-size="28" font-style="italic" fill="#6c6a63">Absolute sovereignty.</text><line x1="318.9" y1="59.1" x2="318.9" y2="502.3" stroke="#3a3a3a" stroke-width="1"/><rect x="53.2" y="269.6" width="12.0" height="85.0" fill="#f4f0e8"/><rect x="73.2" y="269.6" width="12.0" height="85.0" fill="#f4f0e8"/><rect x="93.2" y="269.6" width="12.0" height="85.0" fill="#f4f0e8"/><rect x="113.2" y="269.6" width="12.0" height="85.0" fill="#f4f0e8"/><rect x="133.2" y="269.6" width="12.0" height="85.0" fill="#f4f0e8"/><rect x="153.2" y="269.6" width="12.0" height="85.0" fill="#f4f0e8"/><rect x="173.2" y="269.6" width="12.0" height="85.0" fill="#f4f0e8"/><rect x="193.2" y="269.6" width="12.0" height="85.0" fill="#f4f0e8"/><rect x="213.2" y="269.6" width="12.0" height="85.0" fill="#f4f0e8"/><rect x="49.2" y="307.8" width="188.0" height="3.5" fill="#f4f0e8"/><rect x="49.2" y="337.6" width="188.0" height="3.5" fill="#f4f0e8"/><line x1="42.5" y1="543.0" x2="1020.5" y2="543.0" stroke="#3a3a3a" stroke-width="1"/><text x="531.5" y="569.0" font-family="'Inter', 'Helvetica Neue', Arial, sans-serif" font-size="20" font-weight="500" fill="#6c6a63" text-anchor="middle" letter-spacing="1.2">te-pa.org</text>
</svg>
