<?xml version="1.0" encoding="UTF-8"?>
<svg xmlns="http://www.w3.org/2000/svg" width="1004" height="1004" viewBox="0 0 1004 1004">
<title>Te Pā Tūwatawata — s08</title>
<desc>Te Pā Tūwatawata · te-pa.org · CC BY-NC-SA 4.0</desc>
<rect width="1004" height="1004" fill="#0e0e0e" rx="14"/><line x1="80.3" y1="461.8" x2="923.7" y2="461.8" stroke="#3a3a3a" stroke-width="1"/><text x="80.3" y="522.1" font-family="'Inter', 'Helvetica Neue', Arial, sans-serif" font-size="26" font-weight="700" fill="#6c6a63" letter-spacing="2.4">KA WHAWHAI</text><text x="80.3" y="602.4" font-family="'Inter', 'Helvetica Neue', Arial, sans-serif" font-size="92" font-weight="800" fill="#f4f0e8" letter-spacing="-1">TONU</text><text x="80.3" y="699.4" font-family="'Inter', 'Helvetica Neue', Arial, sans-serif" font-size="92" font-weight="800" fill="#f4f0e8" letter-spacing="-1">MĀTOU</text><line x1="80.3" y1="853.4" x2="923.7" y2="853.4" stroke="#3a3a3a" stroke-width="1"/><rect x="180.7" y="236.3" width="12.0" height="85.0" fill="#f4f0e8"/><rect x="225.7" y="236.3" width="12.0" height="85.0" fill="#f4f0e8"/><rect x="270.7" y="236.3" width="12.0" height="85.0" fill="#f4f0e8"/><rect x="315.7" y="236.3" width="12.0" height="85.0" fill="#f4f0e8"/><rect x="360.7" y="236.3" width="12.0" height="85.0" fill="#f4f0e8"/><rect x="405.7" y="236.3" width="12.0" height="85.0" fill="#f4f0e8"/><rect x="450.7" y="236.3" width="12.0" height="85.0" fill="#f4f0e8"/><rect x="495.7" y="236.3" width="12.0" height="85.0" fill="#f4f0e8"/><rect x="540.7" y="236.3" width="12.0" height="85.0" fill="#f4f0e8"/><rect x="585.7" y="236.3" width="12.0" height="85.0" fill="#f4f0e8"/><rect x="630.7" y="236.3" width="12.0" height="85.0" fill="#f4f0e8"/><rect x="675.7" y="236.3" width="12.0" height="85.0" fill="#f4f0e8"/><rect x="720.7" y="236.3" width="12.0" height="85.0" fill="#f4f0e8"/><rect x="765.7" y="236.3" width="12.0" height="85.0" fill="#f4f0e8"/><rect x="810.7" y="236.3" width="12.0" height="85.0" fill="#f4f0e8"/><rect x="176.7" y="274.5" width="683.0" height="3.5" fill="#f4f0e8"/><rect x="176.7" y="304.3" width="683.0" height="3.5" fill="#f4f0e8"/><line x1="40.2" y1="956.0" x2="963.8" y2="956.0" stroke="#3a3a3a" stroke-width="1"/><text x="502.0" y="982.0" font-family="'Inter', 'Helvetica Neue', Arial, sans-serif" font-size="20" font-weight="500" fill="#6c6a63" text-anchor="middle" letter-spacing="1.2">te-pa.org</text>
</svg>
