<?xml version="1.0" encoding="UTF-8"?>
<svg xmlns="http://www.w3.org/2000/svg" width="1004" height="1004" viewBox="0 0 1004 1004">
<title>Te Pā Tūwatawata — s06</title>
<desc>Te Pā Tūwatawata · te-pa.org · CC BY-NC-SA 4.0</desc>
<rect width="1004" height="1004" fill="#0e0e0e" rx="14"/><line x1="80.3" y1="461.8" x2="923.7" y2="461.8" stroke="#3a3a3a" stroke-width="1"/><text x="80.3" y="522.1" font-family="'Inter', 'Helvetica Neue', Arial, sans-serif" font-size="26" font-weight="700" fill="#6c6a63" letter-spacing="2.4">IHUMĀTAO</text><text x="80.3" y="602.4" font-family="'Inter', 'Helvetica Neue', Arial, sans-serif" font-size="92" font-weight="800" fill="#f4f0e8" letter-spacing="-1">E KORE</text><text x="80.3" y="699.4" font-family="'Inter', 'Helvetica Neue', Arial, sans-serif" font-size="92" font-weight="800" fill="#f4f0e8" letter-spacing="-1">E MUTU</text><line x1="80.3" y1="853.4" x2="923.7" y2="853.4" stroke="#3a3a3a" stroke-width="1"/><polyline points="502.0,271.1 502.6,271.1 503.2,271.3 503.7,271.6 504.2,272.1 504.6,272.6 505.0,273.2 505.2,273.9 505.3,274.7 505.2,275.5 505.1,276.4 504.7,277.2 504.3,278.1 503.7,278.9 502.9,279.6 502.0,280.2 501.0,280.8 499.8,281.2 498.6,281.5 497.3,281.7 495.9,281.7 494.5,281.5 493.0,281.1 491.6,280.5 490.1,279.7 488.8,278.7 487.5,277.5 486.3,276.2 485.3,274.6 484.4,272.9 483.7,271.1 483.2,269.1 482.9,267.0 482.8,264.8 483.0,262.6 483.5,260.4 484.2,258.1 485.2,256.0 486.5,253.8 488.0,251.8 489.8,249.9 491.8,248.2 494.1,246.7 496.5,245.4 499.2,244.3 502.0,243.6 504.9,243.1 508.0,243.0 511.1,243.2 514.2,243.7 517.3,244.6 520.3,245.9 523.3,247.5 526.1,249.4 528.7,251.7 531.1,254.3 533.3,257.2 535.1,260.3 536.7,263.7 537.9,267.3 538.7,271.1 539.1,275.0 539.1,279.0 538.6,283.0 537.7,287.0 536.4,290.9 534.6,294.8 532.4,298.5 529.8,302.0 526.8,305.2 523.4,308.1 519.6,310.7 515.6,312.9 511.3,314.7 506.7,316.1 502.0,316.9 497.1,317.3 492.2,317.1 487.3,316.4 482.4,315.2 477.6,313.4 472.9,311.1 468.5,308.3 464.3,305.0 460.5,301.3 457.0,297.1 454.0,292.5 451.4,287.5 449.4,282.3 447.9,276.8 447.0,271.1 446.7,265.3 447.0,259.4 447.9,253.5 449.5,247.7 451.7,242.1 454.5,236.6 457.9,231.4 461.9,226.6 466.4,222.1 471.4,218.2 476.9,214.7 482.7,211.8 488.9,209.5 495.4,207.9 502.0,206.9 508.8,206.7 515.6,207.1 522.4,208.3 529.1,210.2 535.6,212.9 541.9,216.2 547.8,220.2 553.3,224.9 558.4,230.1 562.9,235.9 566.8,242.2 570.0,249.0 572.5,256.1 574.3,263.5 575.3,271.1 575.5,278.8 574.9,286.6 573.5,294.3 571.2,301.9 568.2,309.3 564.3,316.3 559.7,323.0 554.3,329.2 548.3,334.9 541.7,339.9 534.6,344.2 526.9,347.8 518.9,350.6 510.6,352.5 502.0,353.6 493.3,353.7 484.6,353.0 475.9,351.3 467.4,348.7 459.2,345.2 451.4,340.8 443.9,335.6 437.1,329.6 430.8,322.8 425.3,315.4 420.5,307.4 416.6,298.8 413.5,289.9 411.4,280.6 410.3,271.1 410.2,261.4 411.1,251.8 413.1,242.2 416.0,232.8 420.0,223.7 424.9,215.0 430.7,206.9 437.4,199.3 444.9,192.5 453.1,186.4 462.0,181.2 471.4,176.9 481.3,173.6 491.5,171.4 502.0,170.2 512.6,170.2 523.2,171.3 533.7,173.4 544.0,176.7 553.9,181.1 563.4,186.5 572.3,193.0 580.6,200.3 588.0,208.6 594.6,217.6 600.3,227.3 604.9,237.7 608.4,248.5 610.8,259.6" fill="none" stroke="#f4f0e8" stroke-width="3" stroke-linecap="round"/><line x1="502.0" y1="271.1" x2="502.0" y2="414.1" stroke="#f4f0e8" stroke-width="3"/><line x1="40.2" y1="956.0" x2="963.8" y2="956.0" stroke="#3a3a3a" stroke-width="1"/><text x="502.0" y="982.0" font-family="'Inter', 'Helvetica Neue', Arial, sans-serif" font-size="20" font-weight="500" fill="#6c6a63" text-anchor="middle" letter-spacing="1.2">te-pa.org</text>
</svg>
