<?xml version="1.0" encoding="UTF-8"?>
<svg xmlns="http://www.w3.org/2000/svg" width="1063" height="591" viewBox="0 0 1063 591">
<title>Te Pā Tūwatawata — s04</title>
<desc>Te Pā Tūwatawata · te-pa.org · CC BY-NC-SA 4.0</desc>
<rect width="1063" height="591" fill="#0e0e0e" rx="14"/><text x="361.4" y="94.6" font-family="'Inter', 'Helvetica Neue', Arial, sans-serif" font-size="24" font-weight="700" fill="#6c6a63" letter-spacing="2.4">KO TE REO</text><text x="361.4" y="177.3" font-family="'Inter', 'Helvetica Neue', Arial, sans-serif" font-size="78" font-weight="800" fill="#f4f0e8" letter-spacing="-1">TE MAURI</text><line x1="361.4" y1="241.3" x2="993.0" y2="241.3" stroke="#3a3a3a" stroke-width="1"/><text x="361.4" y="285.3" font-family="'Lora', 'Georgia', serif" font-size="28" font-style="italic" fill="#6c6a63">The language is the life force.</text><line x1="318.9" y1="59.1" x2="318.9" y2="502.3" stroke="#3a3a3a" stroke-width="1"/><circle cx="21.3" cy="295.5" r="11.0" fill="none" stroke="#f4f0e8" stroke-width="2.4"/><circle cx="43.3" cy="295.5" r="11.0" fill="none" stroke="#f4f0e8" stroke-width="2.4"/><circle cx="65.3" cy="295.5" r="11.0" fill="none" stroke="#f4f0e8" stroke-width="2.4"/><circle cx="87.3" cy="295.5" r="11.0" fill="none" stroke="#f4f0e8" stroke-width="2.4"/><circle cx="109.3" cy="295.5" r="11.0" fill="none" stroke="#f4f0e8" stroke-width="2.4"/><circle cx="131.3" cy="295.5" r="11.0" fill="none" stroke="#f4f0e8" stroke-width="2.4"/><circle cx="153.3" cy="295.5" r="11.0" fill="none" stroke="#f4f0e8" stroke-width="2.4"/><circle cx="175.3" cy="295.5" r="11.0" fill="none" stroke="#f4f0e8" stroke-width="2.4"/><circle cx="197.3" cy="295.5" r="11.0" fill="none" stroke="#f4f0e8" stroke-width="2.4"/><circle cx="219.3" cy="295.5" r="11.0" fill="none" stroke="#f4f0e8" stroke-width="2.4"/><circle cx="241.3" cy="295.5" r="11.0" fill="none" stroke="#f4f0e8" stroke-width="2.4"/><circle cx="263.3" cy="295.5" r="11.0" fill="none" stroke="#f4f0e8" stroke-width="2.4"/><circle cx="285.3" cy="295.5" r="11.0" fill="none" stroke="#f4f0e8" stroke-width="2.4"/><circle cx="307.3" cy="295.5" r="11.0" fill="none" stroke="#f4f0e8" stroke-width="2.4"/><circle cx="329.3" cy="295.5" r="11.0" fill="none" stroke="#f4f0e8" stroke-width="2.4"/><circle cx="351.3" cy="295.5" r="11.0" fill="none" stroke="#f4f0e8" stroke-width="2.4"/><circle cx="373.3" cy="295.5" r="11.0" fill="none" stroke="#f4f0e8" stroke-width="2.4"/><circle cx="395.3" cy="295.5" r="11.0" fill="none" stroke="#f4f0e8" stroke-width="2.4"/><line x1="42.5" y1="543.0" x2="1020.5" y2="543.0" stroke="#3a3a3a" stroke-width="1"/><text x="531.5" y="569.0" font-family="'Inter', 'Helvetica Neue', Arial, sans-serif" font-size="20" font-weight="500" fill="#6c6a63" text-anchor="middle" letter-spacing="1.2">te-pa.org</text>
</svg>
