<?xml version="1.0" encoding="UTF-8"?>
<svg xmlns="http://www.w3.org/2000/svg" width="945" height="945" viewBox="0 0 945 945">
<title>Te Pā Tūwatawata — s11</title>
<desc>Te Pā Tūwatawata · te-pa.org · CC BY-NC-SA 4.0</desc>
<defs><clipPath id="cl"><circle cx="472.5" cy="472.5" r="458.5"/></clipPath></defs><rect width="945" height="945" fill="#0e0e0e" rx="14"/><circle cx="472.5" cy="472.5" r="458.5" fill="#0e0e0e" stroke="#f4f0e8" stroke-width="2"/><g clip-path="url(#cl)"><line x1="122.9" y1="425.2" x2="822.1" y2="425.2" stroke="#3a3a3a" stroke-width="1"/><text x="122.9" y="481.9" font-family="'Inter', 'Helvetica Neue', Arial, sans-serif" font-size="24" font-weight="700" fill="#6c6a63" letter-spacing="2.4">AI</text><text x="122.9" y="557.5" font-family="'Inter', 'Helvetica Neue', Arial, sans-serif" font-size="86" font-weight="800" fill="#f4f0e8" letter-spacing="-1">KĀORE</text><text x="122.9" y="648.5" font-family="'Inter', 'Helvetica Neue', Arial, sans-serif" font-size="86" font-weight="800" fill="#f4f0e8" letter-spacing="-1">E TIKA</text><line x1="122.9" y1="784.3" x2="822.1" y2="784.3" stroke="#3a3a3a" stroke-width="1"/><polygon points="75.6,207.9 94.1,141.9 112.6,207.9" fill="#f4f0e8"/><polygon points="112.6,207.9 131.1,141.9 149.6,207.9" fill="#f4f0e8"/><polygon points="149.6,207.9 168.1,141.9 186.6,207.9" fill="#f4f0e8"/><polygon points="186.6,207.9 205.1,141.9 223.6,207.9" fill="#f4f0e8"/><polygon points="223.6,207.9 242.1,141.9 260.6,207.9" fill="#f4f0e8"/><polygon points="260.6,207.9 279.1,141.9 297.6,207.9" fill="#f4f0e8"/><polygon points="297.6,207.9 316.1,141.9 334.6,207.9" fill="#f4f0e8"/><polygon points="334.6,207.9 353.1,141.9 371.6,207.9" fill="#f4f0e8"/><polygon points="371.6,207.9 390.1,141.9 408.6,207.9" fill="#f4f0e8"/><polygon points="408.6,207.9 427.1,141.9 445.6,207.9" fill="#f4f0e8"/><polygon points="445.6,207.9 464.1,141.9 482.6,207.9" fill="#f4f0e8"/><polygon points="482.6,207.9 501.1,141.9 519.6,207.9" fill="#f4f0e8"/><polygon points="519.6,207.9 538.1,141.9 556.6,207.9" fill="#f4f0e8"/><polygon points="556.6,207.9 575.1,141.9 593.6,207.9" fill="#f4f0e8"/><polygon points="593.6,207.9 612.1,141.9 630.6,207.9" fill="#f4f0e8"/><polygon points="630.6,207.9 649.1,141.9 667.6,207.9" fill="#f4f0e8"/><polygon points="667.6,207.9 686.1,141.9 704.6,207.9" fill="#f4f0e8"/><polygon points="704.6,207.9 723.1,141.9 741.6,207.9" fill="#f4f0e8"/><polygon points="741.6,207.9 760.1,141.9 778.6,207.9" fill="#f4f0e8"/><polygon points="778.6,207.9 797.1,141.9 815.6,207.9" fill="#f4f0e8"/><line x1="37.8" y1="897.0" x2="907.2" y2="897.0" stroke="#3a3a3a" stroke-width="1"/><text x="472.5" y="923.0" font-family="'Inter', 'Helvetica Neue', Arial, sans-serif" font-size="20" font-weight="500" fill="#6c6a63" text-anchor="middle" letter-spacing="1.2">te-pa.org</text></g>
</svg>
