<svg xmlns="http://www.w3.org/2000/svg" width="510" height="340" viewBox="0 0 510 340">
<title>Unaunahi — The Kiwi Dialectic</title>

<rect width="510" height="340" fill="white" rx="28"/>
<rect width="510" height="340" fill="none" stroke="black" stroke-width="6" rx="28"/>
<path d="M 0.0 0.0 A 30.8 39.2 0 0 1 56.0 0.0 A 30.8 39.2 0 0 1 0.0 0.0 Z" fill="none" stroke="#222" stroke-width="1.0" opacity="0.7"/>
<path d="M 56.0 0.0 A 30.8 39.2 0 0 1 112.0 0.0 A 30.8 39.2 0 0 1 56.0 0.0 Z" fill="none" stroke="#222" stroke-width="1.0" opacity="0.7"/>
<path d="M 112.0 0.0 A 30.8 39.2 0 0 1 168.0 0.0 A 30.8 39.2 0 0 1 112.0 0.0 Z" fill="none" stroke="#222" stroke-width="1.0" opacity="0.7"/>
<path d="M 168.0 0.0 A 30.8 39.2 0 0 1 224.0 0.0 A 30.8 39.2 0 0 1 168.0 0.0 Z" fill="none" stroke="#222" stroke-width="1.0" opacity="0.7"/>
<path d="M 224.0 0.0 A 30.8 39.2 0 0 1 280.0 0.0 A 30.8 39.2 0 0 1 224.0 0.0 Z" fill="none" stroke="#222" stroke-width="1.0" opacity="0.7"/>
<path d="M 280.0 0.0 A 30.8 39.2 0 0 1 336.0 0.0 A 30.8 39.2 0 0 1 280.0 0.0 Z" fill="none" stroke="#222" stroke-width="1.0" opacity="0.7"/>
<path d="M 336.0 0.0 A 30.8 39.2 0 0 1 392.0 0.0 A 30.8 39.2 0 0 1 336.0 0.0 Z" fill="none" stroke="#222" stroke-width="1.0" opacity="0.7"/>
<path d="M 392.0 0.0 A 30.8 39.2 0 0 1 448.0 0.0 A 30.8 39.2 0 0 1 392.0 0.0 Z" fill="none" stroke="#222" stroke-width="1.0" opacity="0.7"/>
<path d="M 448.0 0.0 A 30.8 39.2 0 0 1 504.0 0.0 A 30.8 39.2 0 0 1 448.0 0.0 Z" fill="none" stroke="#222" stroke-width="1.0" opacity="0.7"/>
<path d="M 504.0 0.0 A 30.8 39.2 0 0 1 560.0 0.0 A 30.8 39.2 0 0 1 504.0 0.0 Z" fill="none" stroke="#222" stroke-width="1.0" opacity="0.7"/>
<path d="M 28.0 36.4 A 30.8 39.2 0 0 1 84.0 36.4 A 30.8 39.2 0 0 1 28.0 36.4 Z" fill="none" stroke="#222" stroke-width="1.0" opacity="0.7"/>
<path d="M 84.0 36.4 A 30.8 39.2 0 0 1 140.0 36.4 A 30.8 39.2 0 0 1 84.0 36.4 Z" fill="none" stroke="#222" stroke-width="1.0" opacity="0.7"/>
<path d="M 140.0 36.4 A 30.8 39.2 0 0 1 196.0 36.4 A 30.8 39.2 0 0 1 140.0 36.4 Z" fill="none" stroke="#222" stroke-width="1.0" opacity="0.7"/>
<path d="M 196.0 36.4 A 30.8 39.2 0 0 1 252.0 36.4 A 30.8 39.2 0 0 1 196.0 36.4 Z" fill="none" stroke="#222" stroke-width="1.0" opacity="0.7"/>
<path d="M 252.0 36.4 A 30.8 39.2 0 0 1 308.0 36.4 A 30.8 39.2 0 0 1 252.0 36.4 Z" fill="none" stroke="#222" stroke-width="1.0" opacity="0.7"/>
<path d="M 308.0 36.4 A 30.8 39.2 0 0 1 364.0 36.4 A 30.8 39.2 0 0 1 308.0 36.4 Z" fill="none" stroke="#222" stroke-width="1.0" opacity="0.7"/>
<path d="M 364.0 36.4 A 30.8 39.2 0 0 1 420.0 36.4 A 30.8 39.2 0 0 1 364.0 36.4 Z" fill="none" stroke="#222" stroke-width="1.0" opacity="0.7"/>
<path d="M 420.0 36.4 A 30.8 39.2 0 0 1 476.0 36.4 A 30.8 39.2 0 0 1 420.0 36.4 Z" fill="none" stroke="#222" stroke-width="1.0" opacity="0.7"/>
<path d="M 476.0 36.4 A 30.8 39.2 0 0 1 532.0 36.4 A 30.8 39.2 0 0 1 476.0 36.4 Z" fill="none" stroke="#222" stroke-width="1.0" opacity="0.7"/>
<path d="M 532.0 36.4 A 30.8 39.2 0 0 1 588.0 36.4 A 30.8 39.2 0 0 1 532.0 36.4 Z" fill="none" stroke="#222" stroke-width="1.0" opacity="0.7"/>
<path d="M 0.0 72.8 A 30.8 39.2 0 0 1 56.0 72.8 A 30.8 39.2 0 0 1 0.0 72.8 Z" fill="none" stroke="#222" stroke-width="1.0" opacity="0.7"/>
<path d="M 56.0 72.8 A 30.8 39.2 0 0 1 112.0 72.8 A 30.8 39.2 0 0 1 56.0 72.8 Z" fill="none" stroke="#222" stroke-width="1.0" opacity="0.7"/>
<path d="M 112.0 72.8 A 30.8 39.2 0 0 1 168.0 72.8 A 30.8 39.2 0 0 1 112.0 72.8 Z" fill="none" stroke="#222" stroke-width="1.0" opacity="0.7"/>
<path d="M 168.0 72.8 A 30.8 39.2 0 0 1 224.0 72.8 A 30.8 39.2 0 0 1 168.0 72.8 Z" fill="none" stroke="#222" stroke-width="1.0" opacity="0.7"/>
<path d="M 224.0 72.8 A 30.8 39.2 0 0 1 280.0 72.8 A 30.8 39.2 0 0 1 224.0 72.8 Z" fill="none" stroke="#222" stroke-width="1.0" opacity="0.7"/>
<path d="M 280.0 72.8 A 30.8 39.2 0 0 1 336.0 72.8 A 30.8 39.2 0 0 1 280.0 72.8 Z" fill="none" stroke="#222" stroke-width="1.0" opacity="0.7"/>
<path d="M 336.0 72.8 A 30.8 39.2 0 0 1 392.0 72.8 A 30.8 39.2 0 0 1 336.0 72.8 Z" fill="none" stroke="#222" stroke-width="1.0" opacity="0.7"/>
<path d="M 392.0 72.8 A 30.8 39.2 0 0 1 448.0 72.8 A 30.8 39.2 0 0 1 392.0 72.8 Z" fill="none" stroke="#222" stroke-width="1.0" opacity="0.7"/>
<path d="M 448.0 72.8 A 30.8 39.2 0 0 1 504.0 72.8 A 30.8 39.2 0 0 1 448.0 72.8 Z" fill="none" stroke="#222" stroke-width="1.0" opacity="0.7"/>
<path d="M 504.0 72.8 A 30.8 39.2 0 0 1 560.0 72.8 A 30.8 39.2 0 0 1 504.0 72.8 Z" fill="none" stroke="#222" stroke-width="1.0" opacity="0.7"/>
<path d="M 28.0 109.2 A 30.8 39.2 0 0 1 84.0 109.2 A 30.8 39.2 0 0 1 28.0 109.2 Z" fill="none" stroke="#222" stroke-width="1.0" opacity="0.7"/>
<path d="M 84.0 109.2 A 30.8 39.2 0 0 1 140.0 109.2 A 30.8 39.2 0 0 1 84.0 109.2 Z" fill="none" stroke="#222" stroke-width="1.0" opacity="0.7"/>
<path d="M 140.0 109.2 A 30.8 39.2 0 0 1 196.0 109.2 A 30.8 39.2 0 0 1 140.0 109.2 Z" fill="none" stroke="#222" stroke-width="1.0" opacity="0.7"/>
<path d="M 196.0 109.2 A 30.8 39.2 0 0 1 252.0 109.2 A 30.8 39.2 0 0 1 196.0 109.2 Z" fill="none" stroke="#222" stroke-width="1.0" opacity="0.7"/>
<path d="M 252.0 109.2 A 30.8 39.2 0 0 1 308.0 109.2 A 30.8 39.2 0 0 1 252.0 109.2 Z" fill="none" stroke="#222" stroke-width="1.0" opacity="0.7"/>
<path d="M 308.0 109.2 A 30.8 39.2 0 0 1 364.0 109.2 A 30.8 39.2 0 0 1 308.0 109.2 Z" fill="none" stroke="#222" stroke-width="1.0" opacity="0.7"/>
<path d="M 364.0 109.2 A 30.8 39.2 0 0 1 420.0 109.2 A 30.8 39.2 0 0 1 364.0 109.2 Z" fill="none" stroke="#222" stroke-width="1.0" opacity="0.7"/>
<path d="M 420.0 109.2 A 30.8 39.2 0 0 1 476.0 109.2 A 30.8 39.2 0 0 1 420.0 109.2 Z" fill="none" stroke="#222" stroke-width="1.0" opacity="0.7"/>
<path d="M 476.0 109.2 A 30.8 39.2 0 0 1 532.0 109.2 A 30.8 39.2 0 0 1 476.0 109.2 Z" fill="none" stroke="#222" stroke-width="1.0" opacity="0.7"/>
<path d="M 532.0 109.2 A 30.8 39.2 0 0 1 588.0 109.2 A 30.8 39.2 0 0 1 532.0 109.2 Z" fill="none" stroke="#222" stroke-width="1.0" opacity="0.7"/>
<path d="M 0.0 145.6 A 30.8 39.2 0 0 1 56.0 145.6 A 30.8 39.2 0 0 1 0.0 145.6 Z" fill="none" stroke="#222" stroke-width="1.0" opacity="0.7"/>
<path d="M 56.0 145.6 A 30.8 39.2 0 0 1 112.0 145.6 A 30.8 39.2 0 0 1 56.0 145.6 Z" fill="none" stroke="#222" stroke-width="1.0" opacity="0.7"/>
<path d="M 112.0 145.6 A 30.8 39.2 0 0 1 168.0 145.6 A 30.8 39.2 0 0 1 112.0 145.6 Z" fill="none" stroke="#222" stroke-width="1.0" opacity="0.7"/>
<path d="M 168.0 145.6 A 30.8 39.2 0 0 1 224.0 145.6 A 30.8 39.2 0 0 1 168.0 145.6 Z" fill="none" stroke="#222" stroke-width="1.0" opacity="0.7"/>
<path d="M 224.0 145.6 A 30.8 39.2 0 0 1 280.0 145.6 A 30.8 39.2 0 0 1 224.0 145.6 Z" fill="none" stroke="#222" stroke-width="1.0" opacity="0.7"/>
<path d="M 280.0 145.6 A 30.8 39.2 0 0 1 336.0 145.6 A 30.8 39.2 0 0 1 280.0 145.6 Z" fill="none" stroke="#222" stroke-width="1.0" opacity="0.7"/>
<path d="M 336.0 145.6 A 30.8 39.2 0 0 1 392.0 145.6 A 30.8 39.2 0 0 1 336.0 145.6 Z" fill="none" stroke="#222" stroke-width="1.0" opacity="0.7"/>
<path d="M 392.0 145.6 A 30.8 39.2 0 0 1 448.0 145.6 A 30.8 39.2 0 0 1 392.0 145.6 Z" fill="none" stroke="#222" stroke-width="1.0" opacity="0.7"/>
<path d="M 448.0 145.6 A 30.8 39.2 0 0 1 504.0 145.6 A 30.8 39.2 0 0 1 448.0 145.6 Z" fill="none" stroke="#222" stroke-width="1.0" opacity="0.7"/>
<path d="M 504.0 145.6 A 30.8 39.2 0 0 1 560.0 145.6 A 30.8 39.2 0 0 1 504.0 145.6 Z" fill="none" stroke="#222" stroke-width="1.0" opacity="0.7"/>
<path d="M 28.0 182.0 A 30.8 39.2 0 0 1 84.0 182.0 A 30.8 39.2 0 0 1 28.0 182.0 Z" fill="none" stroke="#222" stroke-width="1.0" opacity="0.7"/>
<path d="M 84.0 182.0 A 30.8 39.2 0 0 1 140.0 182.0 A 30.8 39.2 0 0 1 84.0 182.0 Z" fill="none" stroke="#222" stroke-width="1.0" opacity="0.7"/>
<path d="M 140.0 182.0 A 30.8 39.2 0 0 1 196.0 182.0 A 30.8 39.2 0 0 1 140.0 182.0 Z" fill="none" stroke="#222" stroke-width="1.0" opacity="0.7"/>
<path d="M 196.0 182.0 A 30.8 39.2 0 0 1 252.0 182.0 A 30.8 39.2 0 0 1 196.0 182.0 Z" fill="none" stroke="#222" stroke-width="1.0" opacity="0.7"/>
<path d="M 252.0 182.0 A 30.8 39.2 0 0 1 308.0 182.0 A 30.8 39.2 0 0 1 252.0 182.0 Z" fill="none" stroke="#222" stroke-width="1.0" opacity="0.7"/>
<path d="M 308.0 182.0 A 30.8 39.2 0 0 1 364.0 182.0 A 30.8 39.2 0 0 1 308.0 182.0 Z" fill="none" stroke="#222" stroke-width="1.0" opacity="0.7"/>
<path d="M 364.0 182.0 A 30.8 39.2 0 0 1 420.0 182.0 A 30.8 39.2 0 0 1 364.0 182.0 Z" fill="none" stroke="#222" stroke-width="1.0" opacity="0.7"/>
<path d="M 420.0 182.0 A 30.8 39.2 0 0 1 476.0 182.0 A 30.8 39.2 0 0 1 420.0 182.0 Z" fill="none" stroke="#222" stroke-width="1.0" opacity="0.7"/>
<path d="M 476.0 182.0 A 30.8 39.2 0 0 1 532.0 182.0 A 30.8 39.2 0 0 1 476.0 182.0 Z" fill="none" stroke="#222" stroke-width="1.0" opacity="0.7"/>
<path d="M 532.0 182.0 A 30.8 39.2 0 0 1 588.0 182.0 A 30.8 39.2 0 0 1 532.0 182.0 Z" fill="none" stroke="#222" stroke-width="1.0" opacity="0.7"/>
<path d="M 0.0 218.4 A 30.8 39.2 0 0 1 56.0 218.4 A 30.8 39.2 0 0 1 0.0 218.4 Z" fill="none" stroke="#222" stroke-width="1.0" opacity="0.7"/>
<path d="M 56.0 218.4 A 30.8 39.2 0 0 1 112.0 218.4 A 30.8 39.2 0 0 1 56.0 218.4 Z" fill="none" stroke="#222" stroke-width="1.0" opacity="0.7"/>
<path d="M 112.0 218.4 A 30.8 39.2 0 0 1 168.0 218.4 A 30.8 39.2 0 0 1 112.0 218.4 Z" fill="none" stroke="#222" stroke-width="1.0" opacity="0.7"/>
<path d="M 168.0 218.4 A 30.8 39.2 0 0 1 224.0 218.4 A 30.8 39.2 0 0 1 168.0 218.4 Z" fill="none" stroke="#222" stroke-width="1.0" opacity="0.7"/>
<path d="M 224.0 218.4 A 30.8 39.2 0 0 1 280.0 218.4 A 30.8 39.2 0 0 1 224.0 218.4 Z" fill="none" stroke="#222" stroke-width="1.0" opacity="0.7"/>
<path d="M 280.0 218.4 A 30.8 39.2 0 0 1 336.0 218.4 A 30.8 39.2 0 0 1 280.0 218.4 Z" fill="none" stroke="#222" stroke-width="1.0" opacity="0.7"/>
<path d="M 336.0 218.4 A 30.8 39.2 0 0 1 392.0 218.4 A 30.8 39.2 0 0 1 336.0 218.4 Z" fill="none" stroke="#222" stroke-width="1.0" opacity="0.7"/>
<path d="M 392.0 218.4 A 30.8 39.2 0 0 1 448.0 218.4 A 30.8 39.2 0 0 1 392.0 218.4 Z" fill="none" stroke="#222" stroke-width="1.0" opacity="0.7"/>
<path d="M 448.0 218.4 A 30.8 39.2 0 0 1 504.0 218.4 A 30.8 39.2 0 0 1 448.0 218.4 Z" fill="none" stroke="#222" stroke-width="1.0" opacity="0.7"/>
<path d="M 504.0 218.4 A 30.8 39.2 0 0 1 560.0 218.4 A 30.8 39.2 0 0 1 504.0 218.4 Z" fill="none" stroke="#222" stroke-width="1.0" opacity="0.7"/>
<path d="M 28.0 254.8 A 30.8 39.2 0 0 1 84.0 254.8 A 30.8 39.2 0 0 1 28.0 254.8 Z" fill="none" stroke="#222" stroke-width="1.0" opacity="0.7"/>
<path d="M 84.0 254.8 A 30.8 39.2 0 0 1 140.0 254.8 A 30.8 39.2 0 0 1 84.0 254.8 Z" fill="none" stroke="#222" stroke-width="1.0" opacity="0.7"/>
<path d="M 140.0 254.8 A 30.8 39.2 0 0 1 196.0 254.8 A 30.8 39.2 0 0 1 140.0 254.8 Z" fill="none" stroke="#222" stroke-width="1.0" opacity="0.7"/>
<path d="M 196.0 254.8 A 30.8 39.2 0 0 1 252.0 254.8 A 30.8 39.2 0 0 1 196.0 254.8 Z" fill="none" stroke="#222" stroke-width="1.0" opacity="0.7"/>
<path d="M 252.0 254.8 A 30.8 39.2 0 0 1 308.0 254.8 A 30.8 39.2 0 0 1 252.0 254.8 Z" fill="none" stroke="#222" stroke-width="1.0" opacity="0.7"/>
<path d="M 308.0 254.8 A 30.8 39.2 0 0 1 364.0 254.8 A 30.8 39.2 0 0 1 308.0 254.8 Z" fill="none" stroke="#222" stroke-width="1.0" opacity="0.7"/>
<path d="M 364.0 254.8 A 30.8 39.2 0 0 1 420.0 254.8 A 30.8 39.2 0 0 1 364.0 254.8 Z" fill="none" stroke="#222" stroke-width="1.0" opacity="0.7"/>
<path d="M 420.0 254.8 A 30.8 39.2 0 0 1 476.0 254.8 A 30.8 39.2 0 0 1 420.0 254.8 Z" fill="none" stroke="#222" stroke-width="1.0" opacity="0.7"/>
<path d="M 476.0 254.8 A 30.8 39.2 0 0 1 532.0 254.8 A 30.8 39.2 0 0 1 476.0 254.8 Z" fill="none" stroke="#222" stroke-width="1.0" opacity="0.7"/>
<path d="M 532.0 254.8 A 30.8 39.2 0 0 1 588.0 254.8 A 30.8 39.2 0 0 1 532.0 254.8 Z" fill="none" stroke="#222" stroke-width="1.0" opacity="0.7"/>
<!-- top black bar -->
<rect x="0" y="0" width="510" height="10" fill="black" rx="4"/>
<!-- bottom black bar -->
<rect x="0" y="330" width="510" height="10" fill="black" rx="4"/>
<!-- te reo -->
<text x="255" y="152" font-family="Arial, sans-serif" font-size="51"
      font-weight="bold" fill="black" text-anchor="middle">KIA TŪ MĀIA</text>
<!-- english -->
<text x="255" y="198" font-family="Arial, sans-serif" font-size="25"
      fill="black" text-anchor="middle" opacity="0.7">STAND FIRM</text>
<!-- kiwidialectic credit -->
<text x="255" y="322" font-family="Arial, sans-serif" font-size="14"
      fill="black" text-anchor="middle" opacity="0.5">kiwidialectic.com · UNAUNAHI</text>

</svg>