<?xml version="1.0" encoding="UTF-8"?>
<svg xmlns="http://www.w3.org/2000/svg" width="1004" height="1004" viewBox="0 0 1004 1004">
<title>Te Pā Tūwatawata — rhizome-s01</title>
<desc>Te Pā Tūwatawata · te-pa.org · CC BY-NC-SA 4.0</desc>
<rect width="1004" height="1004" fill="#0e0e0e" rx="14"/><line x1="80.3" y1="461.8" x2="923.7" y2="461.8" stroke="#3a3a3a" stroke-width="1"/><text x="80.3" y="522.1" font-family="'Inter', 'Helvetica Neue', Arial, sans-serif" font-size="26" font-weight="700" fill="#6c6a63" letter-spacing="2.4">HE PAKIAKA</text><text x="80.3" y="602.4" font-family="'Inter', 'Helvetica Neue', Arial, sans-serif" font-size="92" font-weight="800" fill="#f4f0e8" letter-spacing="-1">KAI RARO</text><text x="80.3" y="699.4" font-family="'Inter', 'Helvetica Neue', Arial, sans-serif" font-size="92" font-weight="800" fill="#f4f0e8" letter-spacing="-1">E TUPU</text><text x="80.3" y="796.4" font-family="'Inter', 'Helvetica Neue', Arial, sans-serif" font-size="92" font-weight="800" fill="#f4f0e8" letter-spacing="-1">ANA</text><line x1="80.3" y1="853.4" x2="923.7" y2="853.4" stroke="#3a3a3a" stroke-width="1"/><circle cx="502.0" cy="220.9" r="3" fill="#f4f0e8"/><path d="M 502.0 220.9 Q 504.9 190.2 497.1 165.1" fill="none" stroke="#f4f0e8" stroke-width="2" stroke-linecap="round"/><circle cx="497.1" cy="165.1" r="3" fill="#f4f0e8"/><path d="M 502.0 220.9 Q 515.8 191.6 517.2 164.1" fill="none" stroke="#f4f0e8" stroke-width="2" stroke-linecap="round"/><circle cx="517.2" cy="164.1" r="3" fill="#f4f0e8"/><path d="M 502.0 220.9 Q 526.1 197.1 537.3 170.4" fill="none" stroke="#f4f0e8" stroke-width="2" stroke-linecap="round"/><circle cx="537.3" cy="170.4" r="3" fill="#f4f0e8"/><path d="M 502.0 220.9 Q 534.2 206.1 554.8 183.9" fill="none" stroke="#f4f0e8" stroke-width="2" stroke-linecap="round"/><circle cx="554.8" cy="183.9" r="3" fill="#f4f0e8"/><path d="M 502.0 220.9 Q 538.4 214.7 565.1 197.9" fill="none" stroke="#f4f0e8" stroke-width="2" stroke-linecap="round"/><circle cx="565.1" cy="197.9" r="3" fill="#f4f0e8"/><path d="M 502.0 220.9 Q 532.8 222.1 557.5 213.1" fill="none" stroke="#f4f0e8" stroke-width="2" stroke-linecap="round"/><circle cx="557.5" cy="213.1" r="3" fill="#f4f0e8"/><path d="M 502.0 220.9 Q 533.3 228.9 560.7 225.0" fill="none" stroke="#f4f0e8" stroke-width="2" stroke-linecap="round"/><circle cx="560.7" cy="225.0" r="3" fill="#f4f0e8"/><path d="M 502.0 220.9 Q 531.8 236.9 560.6 239.9" fill="none" stroke="#f4f0e8" stroke-width="2" stroke-linecap="round"/><circle cx="560.6" cy="239.9" r="3" fill="#f4f0e8"/><path d="M 502.0 220.9 Q 526.5 246.5 554.1 258.7" fill="none" stroke="#f4f0e8" stroke-width="2" stroke-linecap="round"/><circle cx="554.1" cy="258.7" r="3" fill="#f4f0e8"/><path d="M 502.0 220.9 Q 514.5 255.7 535.6 279.1" fill="none" stroke="#f4f0e8" stroke-width="2" stroke-linecap="round"/><circle cx="535.6" cy="279.1" r="3" fill="#f4f0e8"/><line x1="40.2" y1="956.0" x2="963.8" y2="956.0" stroke="#3a3a3a" stroke-width="1"/><text x="502.0" y="982.0" font-family="'Inter', 'Helvetica Neue', Arial, sans-serif" font-size="20" font-weight="500" fill="#6c6a63" text-anchor="middle" letter-spacing="1.2">te-pa.org</text>
</svg>
