<?xml version="1.0" encoding="UTF-8"?>
<svg xmlns="http://www.w3.org/2000/svg" width="1063" height="591" viewBox="0 0 1063 591">
<title>Te Pā Tūwatawata — s01</title>
<desc>Te Pā Tūwatawata · te-pa.org · CC BY-NC-SA 4.0</desc>
<rect width="1063" height="591" fill="#0e0e0e" rx="14"/><text x="361.4" y="94.6" font-family="'Inter', 'Helvetica Neue', Arial, sans-serif" font-size="24" font-weight="700" fill="#6c6a63" letter-spacing="2.4">TOITŪ</text><text x="361.4" y="177.3" font-family="'Inter', 'Helvetica Neue', Arial, sans-serif" font-size="78" font-weight="800" fill="#f4f0e8" letter-spacing="-1">TE WHENUA</text><line x1="361.4" y1="241.3" x2="993.0" y2="241.3" stroke="#3a3a3a" stroke-width="1"/><text x="361.4" y="285.3" font-family="'Lora', 'Georgia', serif" font-size="28" font-style="italic" fill="#6c6a63">The land endures.</text><line x1="318.9" y1="59.1" x2="318.9" y2="502.3" stroke="#3a3a3a" stroke-width="1"/><polyline points="170.1,325.1 170.5,325.1 170.9,325.2 171.3,325.4 171.6,325.7 171.9,326.1 172.1,326.5 172.2,327.0 172.3,327.5 172.3,328.1 172.2,328.7 171.9,329.2 171.6,329.8 171.2,330.3 170.7,330.9 170.1,331.3 169.4,331.7 168.6,332.0 167.8,332.2 166.9,332.3 165.9,332.3 164.9,332.1 163.9,331.9 163.0,331.5 162.0,330.9 161.1,330.3 160.2,329.5 159.4,328.5 158.7,327.5 158.1,326.3 157.6,325.1 157.2,323.7 157.0,322.3 157.0,320.8 157.1,319.3 157.5,317.8 157.9,316.2 158.6,314.7 159.5,313.3 160.5,311.9 161.7,310.6 163.1,309.4 164.7,308.4 166.4,307.5 168.2,306.8 170.1,306.3 172.1,306.0 174.2,305.9 176.3,306.0 178.4,306.4 180.5,307.0 182.6,307.9 184.6,308.9 186.5,310.3 188.3,311.8 189.9,313.6 191.4,315.6 192.7,317.7 193.7,320.0 194.5,322.5 195.1,325.1 195.4,327.7 195.3,330.4 195.0,333.2 194.4,335.9 193.5,338.6 192.3,341.2 190.8,343.7 189.0,346.1 187.0,348.3 184.7,350.3 182.1,352.1 179.4,353.6 176.4,354.8 173.3,355.7 170.1,356.3 166.8,356.5 163.4,356.4 160.0,356.0 156.7,355.1 153.4,353.9 150.2,352.4 147.2,350.4 144.4,348.2 141.8,345.6 139.4,342.8 137.3,339.6 135.6,336.3 134.2,332.7 133.2,328.9 132.6,325.1 132.4,321.1 132.6,317.1 133.2,313.1 134.3,309.1 135.8,305.3 137.7,301.5 140.0,298.0 142.8,294.7 145.8,291.7 149.2,289.0 153.0,286.6 156.9,284.6 161.2,283.1 165.6,282.0 170.1,281.3 174.7,281.1 179.3,281.4 184.0,282.3 188.6,283.6 193.0,285.4 197.3,287.6 201.3,290.4 205.1,293.5 208.5,297.1 211.6,301.1 214.2,305.4 216.4,310.0 218.2,314.8 219.4,319.9 220.1,325.1 220.2,330.3 219.8,335.6 218.8,340.9 217.3,346.1 215.2,351.1 212.6,355.9 209.4,360.5 205.8,364.7 201.7,368.5 197.2,372.0 192.3,374.9 187.1,377.4 181.6,379.3 175.9,380.6 170.1,381.3 164.2,381.4 158.2,380.9 152.3,379.7 146.5,378.0 140.9,375.6 135.5,372.6 130.5,369.0 125.8,364.9 121.5,360.3 117.8,355.3 114.5,349.8 111.8,344.0 109.8,337.9 108.3,331.5 107.6,325.1 107.5,318.5 108.1,311.9 109.5,305.4 111.5,299.0 114.1,292.8 117.5,286.8 121.5,281.3 126.0,276.1 131.1,271.5 136.7,267.3 142.8,263.8 149.2,260.9 156.0,258.6 162.9,257.1 170.1,256.3 177.3,256.3 184.5,257.0 191.7,258.5 198.7,260.7 205.5,263.7 212.0,267.4 218.0,271.8 223.6,276.8 228.7,282.4 233.2,288.6 237.1,295.2 240.2,302.3 242.6,309.6 244.3,317.3" fill="none" stroke="#f4f0e8" stroke-width="3" stroke-linecap="round"/><line x1="170.1" y1="325.1" x2="170.1" y2="422.6" stroke="#f4f0e8" stroke-width="3"/><line x1="42.5" y1="543.0" x2="1020.5" y2="543.0" stroke="#3a3a3a" stroke-width="1"/><text x="531.5" y="569.0" font-family="'Inter', 'Helvetica Neue', Arial, sans-serif" font-size="20" font-weight="500" fill="#6c6a63" text-anchor="middle" letter-spacing="1.2">te-pa.org</text>
</svg>
