<?xml version="1.0" encoding="UTF-8"?>
<svg xmlns="http://www.w3.org/2000/svg" width="1004" height="1004" viewBox="0 0 1004 1004">
<title>Te Pā Tūwatawata — s07</title>
<desc>Te Pā Tūwatawata · te-pa.org · CC BY-NC-SA 4.0</desc>
<rect width="1004" height="1004" fill="#0e0e0e" rx="14"/><line x1="80.3" y1="461.8" x2="923.7" y2="461.8" stroke="#3a3a3a" stroke-width="1"/><text x="80.3" y="522.1" font-family="'Inter', 'Helvetica Neue', Arial, sans-serif" font-size="26" font-weight="700" fill="#6c6a63" letter-spacing="2.4">HE RARAUNGA</text><text x="80.3" y="602.4" font-family="'Inter', 'Helvetica Neue', Arial, sans-serif" font-size="92" font-weight="800" fill="#f4f0e8" letter-spacing="-1">NŌ WHAI</text><text x="80.3" y="699.4" font-family="'Inter', 'Helvetica Neue', Arial, sans-serif" font-size="92" font-weight="800" fill="#f4f0e8" letter-spacing="-1">AO MĀORI</text><line x1="80.3" y1="853.4" x2="923.7" y2="853.4" stroke="#3a3a3a" stroke-width="1"/><path d="M -22.0 100.4 A 22.0 22.0 0 0 1 22.0 100.4" fill="none" stroke="#f4f0e8" stroke-width="1.6"/><path d="M 22.0 100.4 A 22.0 22.0 0 0 1 66.0 100.4" fill="none" stroke="#f4f0e8" stroke-width="1.6"/><path d="M 66.0 100.4 A 22.0 22.0 0 0 1 110.0 100.4" fill="none" stroke="#f4f0e8" stroke-width="1.6"/><path d="M 110.0 100.4 A 22.0 22.0 0 0 1 154.0 100.4" fill="none" stroke="#f4f0e8" stroke-width="1.6"/><path d="M 154.0 100.4 A 22.0 22.0 0 0 1 198.0 100.4" fill="none" stroke="#f4f0e8" stroke-width="1.6"/><path d="M 198.0 100.4 A 22.0 22.0 0 0 1 242.0 100.4" fill="none" stroke="#f4f0e8" stroke-width="1.6"/><path d="M 242.0 100.4 A 22.0 22.0 0 0 1 286.0 100.4" fill="none" stroke="#f4f0e8" stroke-width="1.6"/><path d="M 286.0 100.4 A 22.0 22.0 0 0 1 330.0 100.4" fill="none" stroke="#f4f0e8" stroke-width="1.6"/><path d="M 330.0 100.4 A 22.0 22.0 0 0 1 374.0 100.4" fill="none" stroke="#f4f0e8" stroke-width="1.6"/><path d="M 374.0 100.4 A 22.0 22.0 0 0 1 418.0 100.4" fill="none" stroke="#f4f0e8" stroke-width="1.6"/><path d="M 418.0 100.4 A 22.0 22.0 0 0 1 462.0 100.4" fill="none" stroke="#f4f0e8" stroke-width="1.6"/><path d="M 462.0 100.4 A 22.0 22.0 0 0 1 506.0 100.4" fill="none" stroke="#f4f0e8" stroke-width="1.6"/><path d="M 506.0 100.4 A 22.0 22.0 0 0 1 550.0 100.4" fill="none" stroke="#f4f0e8" stroke-width="1.6"/><path d="M 550.0 100.4 A 22.0 22.0 0 0 1 594.0 100.4" fill="none" stroke="#f4f0e8" stroke-width="1.6"/><path d="M 594.0 100.4 A 22.0 22.0 0 0 1 638.0 100.4" fill="none" stroke="#f4f0e8" stroke-width="1.6"/><path d="M 638.0 100.4 A 22.0 22.0 0 0 1 682.0 100.4" fill="none" stroke="#f4f0e8" stroke-width="1.6"/><path d="M 682.0 100.4 A 22.0 22.0 0 0 1 726.0 100.4" fill="none" stroke="#f4f0e8" stroke-width="1.6"/><path d="M 726.0 100.4 A 22.0 22.0 0 0 1 770.0 100.4" fill="none" stroke="#f4f0e8" stroke-width="1.6"/><path d="M 770.0 100.4 A 22.0 22.0 0 0 1 814.0 100.4" fill="none" stroke="#f4f0e8" stroke-width="1.6"/><path d="M 814.0 100.4 A 22.0 22.0 0 0 1 858.0 100.4" fill="none" stroke="#f4f0e8" stroke-width="1.6"/><path d="M 858.0 100.4 A 22.0 22.0 0 0 1 902.0 100.4" fill="none" stroke="#f4f0e8" stroke-width="1.6"/><path d="M 902.0 100.4 A 22.0 22.0 0 0 1 946.0 100.4" fill="none" stroke="#f4f0e8" stroke-width="1.6"/><path d="M 946.0 100.4 A 22.0 22.0 0 0 1 990.0 100.4" fill="none" stroke="#f4f0e8" stroke-width="1.6"/><path d="M 990.0 100.4 A 22.0 22.0 0 0 1 1034.0 100.4" fill="none" stroke="#f4f0e8" stroke-width="1.6"/><path d="M 0.0 121.3 A 22.0 22.0 0 0 1 44.0 121.3" fill="none" stroke="#f4f0e8" stroke-width="1.6"/><path d="M 44.0 121.3 A 22.0 22.0 0 0 1 88.0 121.3" fill="none" stroke="#f4f0e8" stroke-width="1.6"/><path d="M 88.0 121.3 A 22.0 22.0 0 0 1 132.0 121.3" fill="none" stroke="#f4f0e8" stroke-width="1.6"/><path d="M 132.0 121.3 A 22.0 22.0 0 0 1 176.0 121.3" fill="none" stroke="#f4f0e8" stroke-width="1.6"/><path d="M 176.0 121.3 A 22.0 22.0 0 0 1 220.0 121.3" fill="none" stroke="#f4f0e8" stroke-width="1.6"/><path d="M 220.0 121.3 A 22.0 22.0 0 0 1 264.0 121.3" fill="none" stroke="#f4f0e8" stroke-width="1.6"/><path d="M 264.0 121.3 A 22.0 22.0 0 0 1 308.0 121.3" fill="none" stroke="#f4f0e8" stroke-width="1.6"/><path d="M 308.0 121.3 A 22.0 22.0 0 0 1 352.0 121.3" fill="none" stroke="#f4f0e8" stroke-width="1.6"/><path d="M 352.0 121.3 A 22.0 22.0 0 0 1 396.0 121.3" fill="none" stroke="#f4f0e8" stroke-width="1.6"/><path d="M 396.0 121.3 A 22.0 22.0 0 0 1 440.0 121.3" fill="none" stroke="#f4f0e8" stroke-width="1.6"/><path d="M 440.0 121.3 A 22.0 22.0 0 0 1 484.0 121.3" fill="none" stroke="#f4f0e8" stroke-width="1.6"/><path d="M 484.0 121.3 A 22.0 22.0 0 0 1 528.0 121.3" fill="none" stroke="#f4f0e8" stroke-width="1.6"/><path d="M 528.0 121.3 A 22.0 22.0 0 0 1 572.0 121.3" fill="none" stroke="#f4f0e8" stroke-width="1.6"/><path d="M 572.0 121.3 A 22.0 22.0 0 0 1 616.0 121.3" fill="none" stroke="#f4f0e8" stroke-width="1.6"/><path d="M 616.0 121.3 A 22.0 22.0 0 0 1 660.0 121.3" fill="none" stroke="#f4f0e8" stroke-width="1.6"/><path d="M 660.0 121.3 A 22.0 22.0 0 0 1 704.0 121.3" fill="none" stroke="#f4f0e8" stroke-width="1.6"/><path d="M 704.0 121.3 A 22.0 22.0 0 0 1 748.0 121.3" fill="none" stroke="#f4f0e8" stroke-width="1.6"/><path d="M 748.0 121.3 A 22.0 22.0 0 0 1 792.0 121.3" fill="none" stroke="#f4f0e8" stroke-width="1.6"/><path d="M 792.0 121.3 A 22.0 22.0 0 0 1 836.0 121.3" fill="none" stroke="#f4f0e8" stroke-width="1.6"/><path d="M 836.0 121.3 A 22.0 22.0 0 0 1 880.0 121.3" fill="none" stroke="#f4f0e8" stroke-width="1.6"/><path d="M 880.0 121.3 A 22.0 22.0 0 0 1 924.0 121.3" fill="none" stroke="#f4f0e8" stroke-width="1.6"/><path d="M 924.0 121.3 A 22.0 22.0 0 0 1 968.0 121.3" fill="none" stroke="#f4f0e8" stroke-width="1.6"/><path d="M 968.0 121.3 A 22.0 22.0 0 0 1 1012.0 121.3" fill="none" stroke="#f4f0e8" stroke-width="1.6"/><path d="M 1012.0 121.3 A 22.0 22.0 0 0 1 1056.0 121.3" fill="none" stroke="#f4f0e8" stroke-width="1.6"/><path d="M -22.0 142.2 A 22.0 22.0 0 0 1 22.0 142.2" fill="none" stroke="#f4f0e8" stroke-width="1.6"/><path d="M 22.0 142.2 A 22.0 22.0 0 0 1 66.0 142.2" fill="none" stroke="#f4f0e8" stroke-width="1.6"/><path d="M 66.0 142.2 A 22.0 22.0 0 0 1 110.0 142.2" fill="none" stroke="#f4f0e8" stroke-width="1.6"/><path d="M 110.0 142.2 A 22.0 22.0 0 0 1 154.0 142.2" fill="none" stroke="#f4f0e8" stroke-width="1.6"/><path d="M 154.0 142.2 A 22.0 22.0 0 0 1 198.0 142.2" fill="none" stroke="#f4f0e8" stroke-width="1.6"/><path d="M 198.0 142.2 A 22.0 22.0 0 0 1 242.0 142.2" fill="none" stroke="#f4f0e8" stroke-width="1.6"/><path d="M 242.0 142.2 A 22.0 22.0 0 0 1 286.0 142.2" fill="none" stroke="#f4f0e8" stroke-width="1.6"/><path d="M 286.0 142.2 A 22.0 22.0 0 0 1 330.0 142.2" fill="none" stroke="#f4f0e8" stroke-width="1.6"/><path d="M 330.0 142.2 A 22.0 22.0 0 0 1 374.0 142.2" fill="none" stroke="#f4f0e8" stroke-width="1.6"/><path d="M 374.0 142.2 A 22.0 22.0 0 0 1 418.0 142.2" fill="none" stroke="#f4f0e8" stroke-width="1.6"/><path d="M 418.0 142.2 A 22.0 22.0 0 0 1 462.0 142.2" fill="none" stroke="#f4f0e8" stroke-width="1.6"/><path d="M 462.0 142.2 A 22.0 22.0 0 0 1 506.0 142.2" fill="none" stroke="#f4f0e8" stroke-width="1.6"/><path d="M 506.0 142.2 A 22.0 22.0 0 0 1 550.0 142.2" fill="none" stroke="#f4f0e8" stroke-width="1.6"/><path d="M 550.0 142.2 A 22.0 22.0 0 0 1 594.0 142.2" fill="none" stroke="#f4f0e8" stroke-width="1.6"/><path d="M 594.0 142.2 A 22.0 22.0 0 0 1 638.0 142.2" fill="none" stroke="#f4f0e8" stroke-width="1.6"/><path d="M 638.0 142.2 A 22.0 22.0 0 0 1 682.0 142.2" fill="none" stroke="#f4f0e8" stroke-width="1.6"/><path d="M 682.0 142.2 A 22.0 22.0 0 0 1 726.0 142.2" fill="none" stroke="#f4f0e8" stroke-width="1.6"/><path d="M 726.0 142.2 A 22.0 22.0 0 0 1 770.0 142.2" fill="none" stroke="#f4f0e8" stroke-width="1.6"/><path d="M 770.0 142.2 A 22.0 22.0 0 0 1 814.0 142.2" fill="none" stroke="#f4f0e8" stroke-width="1.6"/><path d="M 814.0 142.2 A 22.0 22.0 0 0 1 858.0 142.2" fill="none" stroke="#f4f0e8" stroke-width="1.6"/><path d="M 858.0 142.2 A 22.0 22.0 0 0 1 902.0 142.2" fill="none" stroke="#f4f0e8" stroke-width="1.6"/><path d="M 902.0 142.2 A 22.0 22.0 0 0 1 946.0 142.2" fill="none" stroke="#f4f0e8" stroke-width="1.6"/><path d="M 946.0 142.2 A 22.0 22.0 0 0 1 990.0 142.2" fill="none" stroke="#f4f0e8" stroke-width="1.6"/><path d="M 990.0 142.2 A 22.0 22.0 0 0 1 1034.0 142.2" fill="none" stroke="#f4f0e8" stroke-width="1.6"/><path d="M 0.0 163.1 A 22.0 22.0 0 0 1 44.0 163.1" fill="none" stroke="#f4f0e8" stroke-width="1.6"/><path d="M 44.0 163.1 A 22.0 22.0 0 0 1 88.0 163.1" fill="none" stroke="#f4f0e8" stroke-width="1.6"/><path d="M 88.0 163.1 A 22.0 22.0 0 0 1 132.0 163.1" fill="none" stroke="#f4f0e8" stroke-width="1.6"/><path d="M 132.0 163.1 A 22.0 22.0 0 0 1 176.0 163.1" fill="none" stroke="#f4f0e8" stroke-width="1.6"/><path d="M 176.0 163.1 A 22.0 22.0 0 0 1 220.0 163.1" fill="none" stroke="#f4f0e8" stroke-width="1.6"/><path d="M 220.0 163.1 A 22.0 22.0 0 0 1 264.0 163.1" fill="none" stroke="#f4f0e8" stroke-width="1.6"/><path d="M 264.0 163.1 A 22.0 22.0 0 0 1 308.0 163.1" fill="none" stroke="#f4f0e8" stroke-width="1.6"/><path d="M 308.0 163.1 A 22.0 22.0 0 0 1 352.0 163.1" fill="none" stroke="#f4f0e8" stroke-width="1.6"/><path d="M 352.0 163.1 A 22.0 22.0 0 0 1 396.0 163.1" fill="none" stroke="#f4f0e8" stroke-width="1.6"/><path d="M 396.0 163.1 A 22.0 22.0 0 0 1 440.0 163.1" fill="none" stroke="#f4f0e8" stroke-width="1.6"/><path d="M 440.0 163.1 A 22.0 22.0 0 0 1 484.0 163.1" fill="none" stroke="#f4f0e8" stroke-width="1.6"/><path d="M 484.0 163.1 A 22.0 22.0 0 0 1 528.0 163.1" fill="none" stroke="#f4f0e8" stroke-width="1.6"/><path d="M 528.0 163.1 A 22.0 22.0 0 0 1 572.0 163.1" fill="none" stroke="#f4f0e8" stroke-width="1.6"/><path d="M 572.0 163.1 A 22.0 22.0 0 0 1 616.0 163.1" fill="none" stroke="#f4f0e8" stroke-width="1.6"/><path d="M 616.0 163.1 A 22.0 22.0 0 0 1 660.0 163.1" fill="none" stroke="#f4f0e8" stroke-width="1.6"/><path d="M 660.0 163.1 A 22.0 22.0 0 0 1 704.0 163.1" fill="none" stroke="#f4f0e8" stroke-width="1.6"/><path d="M 704.0 163.1 A 22.0 22.0 0 0 1 748.0 163.1" fill="none" stroke="#f4f0e8" stroke-width="1.6"/><path d="M 748.0 163.1 A 22.0 22.0 0 0 1 792.0 163.1" fill="none" stroke="#f4f0e8" stroke-width="1.6"/><path d="M 792.0 163.1 A 22.0 22.0 0 0 1 836.0 163.1" fill="none" stroke="#f4f0e8" stroke-width="1.6"/><path d="M 836.0 163.1 A 22.0 22.0 0 0 1 880.0 163.1" fill="none" stroke="#f4f0e8" stroke-width="1.6"/><path d="M 880.0 163.1 A 22.0 22.0 0 0 1 924.0 163.1" fill="none" stroke="#f4f0e8" stroke-width="1.6"/><path d="M 924.0 163.1 A 22.0 22.0 0 0 1 968.0 163.1" fill="none" stroke="#f4f0e8" stroke-width="1.6"/><path d="M 968.0 163.1 A 22.0 22.0 0 0 1 1012.0 163.1" fill="none" stroke="#f4f0e8" stroke-width="1.6"/><path d="M 1012.0 163.1 A 22.0 22.0 0 0 1 1056.0 163.1" fill="none" stroke="#f4f0e8" stroke-width="1.6"/><line x1="40.2" y1="956.0" x2="963.8" y2="956.0" stroke="#3a3a3a" stroke-width="1"/><text x="502.0" y="982.0" font-family="'Inter', 'Helvetica Neue', Arial, sans-serif" font-size="20" font-weight="500" fill="#6c6a63" text-anchor="middle" letter-spacing="1.2">te-pa.org</text>
</svg>
