<?xml version="1.0" encoding="UTF-8"?>
<svg xmlns="http://www.w3.org/2000/svg" width="945" height="945" viewBox="0 0 945 945">
<title>Te Pā Tūwatawata — s09</title>
<desc>Te Pā Tūwatawata · te-pa.org · CC BY-NC-SA 4.0</desc>
<defs><clipPath id="cl"><circle cx="472.5" cy="472.5" r="458.5"/></clipPath></defs><rect width="945" height="945" fill="#0e0e0e" rx="14"/><circle cx="472.5" cy="472.5" r="458.5" fill="#0e0e0e" stroke="#f4f0e8" stroke-width="2"/><g clip-path="url(#cl)"><line x1="122.9" y1="425.2" x2="822.1" y2="425.2" stroke="#3a3a3a" stroke-width="1"/><text x="122.9" y="481.9" font-family="'Inter', 'Helvetica Neue', Arial, sans-serif" font-size="24" font-weight="700" fill="#6c6a63" letter-spacing="2.4">TOITŪ</text><text x="122.9" y="557.5" font-family="'Inter', 'Helvetica Neue', Arial, sans-serif" font-size="86" font-weight="800" fill="#f4f0e8" letter-spacing="-1">TE TIRITI</text><text x="122.9" y="670.5" font-family="'Lora', 'Georgia', serif" font-size="26" font-style="italic" fill="#6c6a63">The Treaty endures.</text><line x1="122.9" y1="784.3" x2="822.1" y2="784.3" stroke="#3a3a3a" stroke-width="1"/><circle cx="75.6" cy="236.2" r="14.0" fill="none" stroke="#f4f0e8" stroke-width="2.4"/><circle cx="111.6" cy="236.2" r="14.0" fill="none" stroke="#f4f0e8" stroke-width="2.4"/><circle cx="147.6" cy="236.2" r="14.0" fill="none" stroke="#f4f0e8" stroke-width="2.4"/><circle cx="183.6" cy="236.2" r="14.0" fill="none" stroke="#f4f0e8" stroke-width="2.4"/><circle cx="219.6" cy="236.2" r="14.0" fill="none" stroke="#f4f0e8" stroke-width="2.4"/><circle cx="255.6" cy="236.2" r="14.0" fill="none" stroke="#f4f0e8" stroke-width="2.4"/><circle cx="291.6" cy="236.2" r="14.0" fill="none" stroke="#f4f0e8" stroke-width="2.4"/><circle cx="327.6" cy="236.2" r="14.0" fill="none" stroke="#f4f0e8" stroke-width="2.4"/><circle cx="363.6" cy="236.2" r="14.0" fill="none" stroke="#f4f0e8" stroke-width="2.4"/><circle cx="399.6" cy="236.2" r="14.0" fill="none" stroke="#f4f0e8" stroke-width="2.4"/><circle cx="435.6" cy="236.2" r="14.0" fill="none" stroke="#f4f0e8" stroke-width="2.4"/><circle cx="471.6" cy="236.2" r="14.0" fill="none" stroke="#f4f0e8" stroke-width="2.4"/><circle cx="507.6" cy="236.2" r="14.0" fill="none" stroke="#f4f0e8" stroke-width="2.4"/><circle cx="543.6" cy="236.2" r="14.0" fill="none" stroke="#f4f0e8" stroke-width="2.4"/><circle cx="579.6" cy="236.2" r="14.0" fill="none" stroke="#f4f0e8" stroke-width="2.4"/><circle cx="615.6" cy="236.2" r="14.0" fill="none" stroke="#f4f0e8" stroke-width="2.4"/><circle cx="651.6" cy="236.2" r="14.0" fill="none" stroke="#f4f0e8" stroke-width="2.4"/><circle cx="687.6" cy="236.2" r="14.0" fill="none" stroke="#f4f0e8" stroke-width="2.4"/><circle cx="723.6" cy="236.2" r="14.0" fill="none" stroke="#f4f0e8" stroke-width="2.4"/><circle cx="759.6" cy="236.2" r="14.0" fill="none" stroke="#f4f0e8" stroke-width="2.4"/><circle cx="795.6" cy="236.2" r="14.0" fill="none" stroke="#f4f0e8" stroke-width="2.4"/><circle cx="831.6" cy="236.2" r="14.0" fill="none" stroke="#f4f0e8" stroke-width="2.4"/><line x1="37.8" y1="897.0" x2="907.2" y2="897.0" stroke="#3a3a3a" stroke-width="1"/><text x="472.5" y="923.0" font-family="'Inter', 'Helvetica Neue', Arial, sans-serif" font-size="20" font-weight="500" fill="#6c6a63" text-anchor="middle" letter-spacing="1.2">te-pa.org</text></g>
</svg>
