<?xml version="1.0" encoding="UTF-8"?>
<svg xmlns="http://www.w3.org/2000/svg" width="1063" height="591" viewBox="0 0 1063 591">
<title>Te Pā Tūwatawata — s02</title>
<desc>Te Pā Tūwatawata · te-pa.org · CC BY-NC-SA 4.0</desc>
<rect width="1063" height="591" fill="#0e0e0e" rx="14"/><text x="361.4" y="94.6" font-family="'Inter', 'Helvetica Neue', Arial, sans-serif" font-size="24" font-weight="700" fill="#6c6a63" letter-spacing="2.4">RARAUNGA</text><text x="361.4" y="177.3" font-family="'Inter', 'Helvetica Neue', Arial, sans-serif" font-size="78" font-weight="800" fill="#f4f0e8" letter-spacing="-1">HEI TAONGA</text><line x1="361.4" y1="241.3" x2="993.0" y2="241.3" stroke="#3a3a3a" stroke-width="1"/><text x="361.4" y="285.3" font-family="'Lora', 'Georgia', serif" font-size="28" font-style="italic" fill="#6c6a63">Data is a treasure.</text><line x1="318.9" y1="59.1" x2="318.9" y2="502.3" stroke="#3a3a3a" stroke-width="1"/><polygon points="53.2,325.1 68.2,283.1 83.2,325.1" fill="#f4f0e8"/><polygon points="83.2,325.1 98.2,283.1 113.2,325.1" fill="#f4f0e8"/><polygon points="113.2,325.1 128.2,283.1 143.2,325.1" fill="#f4f0e8"/><polygon points="143.2,325.1 158.2,283.1 173.2,325.1" fill="#f4f0e8"/><polygon points="173.2,325.1 188.2,283.1 203.2,325.1" fill="#f4f0e8"/><polygon points="203.2,325.1 218.2,283.1 233.2,325.1" fill="#f4f0e8"/><polygon points="233.2,325.1 248.2,283.1 263.1,325.1" fill="#f4f0e8"/><polygon points="263.1,325.1 278.1,283.1 293.1,325.1" fill="#f4f0e8"/><line x1="42.5" y1="543.0" x2="1020.5" y2="543.0" stroke="#3a3a3a" stroke-width="1"/><text x="531.5" y="569.0" font-family="'Inter', 'Helvetica Neue', Arial, sans-serif" font-size="20" font-weight="500" fill="#6c6a63" text-anchor="middle" letter-spacing="1.2">te-pa.org</text>
</svg>
