<svg xmlns="http://www.w3.org/2000/svg" width="1600" height="900" viewBox="0 0 1600 900">
<rect width="1600" height="900" fill="#0d0d0d"/>
<polyline points="1287.6,450.0 1287.7,453.5 1287.4,457.0 1286.9,460.4 1286.0,463.8 1284.9,467.2 1283.4,470.5 1281.7,473.6 1279.7,476.6 1277.4,479.4 1274.9,482.0 1272.1,484.4 1269.1,486.6 1265.9,488.5 1262.6,490.1 1259.1,491.4 1255.5,492.5 1251.8,493.2 1248.0,493.6 1244.2,493.6 1240.4,493.3 1236.6,492.7 1232.8,491.8 1229.1,490.5 1225.6,488.9 1222.1,486.9 1218.9,484.7 1215.8,482.2 1212.9,479.4 1210.3,476.4 1208.0,473.1 1205.9,469.6 1204.2,466.0 1202.7,462.1 1201.6,458.2 1200.9,454.1 1200.5,450.0 1200.4,445.8 1200.8,441.7 1201.5,437.5 1202.5,433.4 1203.9,429.5 1205.7,425.6 1207.8,421.9 1210.2,418.3 1213.0,415.0 1216.0,411.9 1219.4,409.1 1222.9,406.6 1226.7,404.3 1230.7,402.5 1234.8,400.9 1239.1,399.7 1243.5,398.9 1248.0,398.5 1252.5,398.5 1257.0,398.9 1261.5,399.6 1265.9,400.8 1270.2,402.3 1274.4,404.3 1278.4,406.6 1282.2,409.2 1285.8,412.2 1289.1,415.5 1292.2,419.1 1294.9,422.9 1297.2,427.0 1299.3,431.3 1300.9,435.8 1302.2,440.4 1303.0,445.2 1303.4,450.0" fill="none" stroke="#e74c3c" stroke-width="2.5" opacity="0.9" stroke-linecap="round"/>
<polyline points="1337.1,450.0 1337.0,457.8 1336.2,465.5 1334.7,473.2 1332.6,480.8 1329.7,488.1 1326.3,495.2 1322.2,502.0 1317.6,508.4 1312.4,514.4 1306.7,519.9 1300.5,525.0 1293.9,529.4 1286.9,533.3 1279.5,536.6 1271.9,539.3 1264.1,541.2 1256.1,542.5 1248.0,543.1 1239.9,542.9 1231.8,542.1 1223.7,540.5 1215.9,538.3 1208.2,535.3 1200.8,531.7 1193.7,527.5 1187.1,522.6 1180.8,517.2 1175.0,511.2 1169.8,504.8 1165.1,497.9 1161.1,490.5 1157.7,482.9 1154.9,474.9 1152.9,466.8 1151.6,458.4 1151.0,450.0 1151.1,441.5 1152.0,433.1 1153.6,424.7 1156.0,416.5 1159.1,408.5 1162.8,400.8 1167.3,393.5 1172.3,386.5 1178.0,380.0 1184.2,374.0 1191.0,368.5 1198.2,363.7 1205.8,359.5 1213.8,355.9 1222.0,353.1 1230.5,351.0 1239.2,349.6 1248.0,349.0 1256.8,349.2 1265.6,350.1 1274.3,351.8 1282.8,354.3 1291.1,357.5 1299.2,361.4 1306.8,366.0 1314.0,371.3 1320.8,377.2 1327.0,383.7 1332.7,390.7 1337.7,398.2 1342.1,406.1 1345.8,414.4 1348.7,423.0 1350.9,431.9 1352.3,440.9 1352.9,450.0" fill="none" stroke="#e74c3c" stroke-width="2.5" opacity="0.7" stroke-linecap="round"/>
<polyline points="1386.6,450.0 1386.3,462.1 1384.9,474.1 1382.5,486.0 1379.1,497.7 1374.6,509.0 1369.2,520.0 1362.8,530.4 1355.5,540.2 1347.4,549.4 1338.5,557.9 1328.9,565.5 1318.6,572.3 1307.8,578.2 1296.5,583.1 1284.7,587.1 1272.7,590.0 1260.4,591.8 1248.0,592.6 1235.6,592.2 1223.2,590.8 1210.9,588.3 1198.9,584.8 1187.3,580.2 1176.1,574.6 1165.3,568.0 1155.2,560.6 1145.8,552.2 1137.1,543.0 1129.2,533.2 1122.3,522.6 1116.2,511.5 1111.1,499.8 1107.1,487.8 1104.1,475.4 1102.3,462.8 1101.5,450.0 1101.8,437.2 1103.3,424.5 1105.8,411.9 1109.5,399.6 1114.2,387.6 1120.0,376.1 1126.7,365.1 1134.4,354.7 1143.0,345.0 1152.4,336.1 1162.6,328.0 1173.4,320.8 1184.9,314.6 1196.8,309.4 1209.2,305.3 1221.9,302.2 1234.9,300.3 1248.0,299.5 1261.1,299.9 1274.2,301.4 1287.1,304.0 1299.8,307.8 1312.1,312.6 1323.9,318.5 1335.2,325.5 1345.9,333.4 1355.8,342.2 1365.0,351.9 1373.2,362.3 1380.6,373.4 1387.0,385.2 1392.3,397.5 1396.5,410.2 1399.7,423.3 1401.6,436.6 1402.4,450.0" fill="none" stroke="#e74c3c" stroke-width="2.5" opacity="0.5" stroke-linecap="round"/>
<rect x="0" y="0" width="1600" height="11" fill="#e74c3c"/>
<rect x="0" y="836" width="1600" height="64" fill="#0d0d0d"/>
<text x="608" y="162" font-family="Georgia,serif" font-size="81" font-weight="bold"
  fill="#f4f0e8" text-anchor="middle" dominant-baseline="middle">Kowhaiwhai</text>
<text x="608" y="288" font-family="Arial,sans-serif" font-size="58"
  font-weight="bold" fill="#e74c3c" text-anchor="middle" dominant-baseline="middle">RESIST EXTRACTION</text>
<text x="608" y="450" font-family="Arial,sans-serif" font-size="34"
  fill="#f4f0e8" text-anchor="middle" dominant-baseline="middle">Land, language, data — all connected.</text>
<text x="608" y="576" font-family="Arial,sans-serif" font-size="25"
  fill="#f4f0e8" text-anchor="middle" dominant-baseline="middle" opacity="0.7">Painted scroll patterns — beauty and continuity</text>
<text x="800" y="868" font-family="Arial,sans-serif" font-size="22" font-weight="bold"
  fill="#f4f0e8" text-anchor="middle" dominant-baseline="middle">TE PĀ TŪWATAWATA · te-pa.org · Māori</text>
</svg>