<svg xmlns="http://www.w3.org/2000/svg" width="1080" height="1080" viewBox="0 0 1080 1080">
<rect width="1080" height="1080" fill="#0d0d0d"/>
<polyline points="587.5,410.4 587.6,414.6 587.3,418.7 586.7,422.9 585.6,427.0 584.3,431.0 582.5,435.0 580.4,438.7 578.0,442.3 575.3,445.7 572.2,448.8 568.9,451.7 565.3,454.3 561.5,456.6 557.5,458.5 553.3,460.1 549.0,461.4 544.5,462.2 540.0,462.7 535.4,462.7 530.8,462.4 526.3,461.7 521.8,460.5 517.4,459.0 513.1,457.0 509.0,454.7 505.0,452.1 501.4,449.0 497.9,445.7 494.8,442.0 492.0,438.1 489.5,433.9 487.4,429.5 485.7,425.0 484.4,420.2 483.5,415.3 483.0,410.4 482.9,405.4 483.3,400.4 484.2,395.4 485.4,390.5 487.1,385.7 489.2,381.1 491.8,376.6 494.7,372.4 498.0,368.4 501.6,364.7 505.6,361.3 509.9,358.3 514.5,355.6 519.2,353.3 524.2,351.5 529.4,350.1 534.6,349.1 540.0,348.6 545.4,348.6 550.8,349.0 556.2,350.0 561.5,351.4 566.7,353.2 571.7,355.5 576.5,358.3 581.1,361.5 585.4,365.0 589.3,369.0 593.0,373.3 596.2,377.9 599.1,382.8 601.5,388.0 603.5,393.4 605.0,398.9 606.0,404.6 606.5,410.4" fill="none" stroke="#e74c3c" stroke-width="2.5" opacity="0.9" stroke-linecap="round"/>
<polyline points="646.9,410.4 646.8,419.7 645.8,429.1 644.0,438.3 641.5,447.3 638.1,456.1 634.0,464.7 629.1,472.8 623.5,480.5 617.3,487.7 610.4,494.3 603.0,500.4 595.0,505.7 586.6,510.4 577.8,514.3 568.7,517.5 559.3,519.9 549.7,521.4 540.0,522.1 530.2,521.9 520.5,520.9 510.9,519.0 501.4,516.3 492.2,512.8 483.4,508.5 474.9,503.4 466.9,497.6 459.4,491.0 452.4,483.9 446.1,476.1 440.5,467.8 435.7,459.0 431.6,449.9 428.3,440.3 425.9,430.5 424.3,420.5 423.6,410.4 423.8,400.2 424.8,390.1 426.8,380.1 429.6,370.2 433.3,360.6 437.8,351.4 443.1,342.6 449.2,334.2 456.0,326.4 463.5,319.2 471.6,312.7 480.2,306.8 489.3,301.8 498.9,297.5 508.8,294.1 519.0,291.6 529.5,289.9 540.0,289.2 550.6,289.4 561.1,290.5 571.6,292.6 581.8,295.5 591.8,299.4 601.4,304.1 610.6,309.6 619.2,316.0 627.4,323.0 634.8,330.8 641.6,339.2 647.7,348.2 652.9,357.7 657.3,367.7 660.9,378.0 663.5,388.6 665.2,399.4 665.9,410.4" fill="none" stroke="#e74c3c" stroke-width="2.5" opacity="0.7" stroke-linecap="round"/>
<polyline points="706.3,410.4 706.0,424.9 704.3,439.4 701.4,453.7 697.3,467.6 691.9,481.2 685.4,494.4 677.8,506.9 669.0,518.7 659.3,529.7 648.6,539.8 637.1,549.0 624.7,557.2 611.7,564.2 598.1,570.2 584.1,574.9 569.6,578.4 554.9,580.6 540.0,581.5 525.1,581.1 510.2,579.4 495.5,576.4 481.1,572.1 467.1,566.6 453.7,559.9 440.8,552.0 428.7,543.1 417.4,533.0 406.9,522.1 397.5,510.2 389.1,497.5 381.8,484.1 375.8,470.2 370.9,455.7 367.4,440.8 365.1,425.7 364.2,410.4 364.6,395.1 366.3,379.8 369.4,364.7 373.8,349.9 379.5,335.5 386.4,321.7 394.5,308.5 403.7,296.0 414.0,284.4 425.3,273.7 437.5,264.0 450.5,255.4 464.2,247.9 478.6,241.7 493.5,236.7 508.7,233.1 524.3,230.8 540.0,229.8 555.8,230.2 571.4,232.0 586.9,235.2 602.1,239.7 616.9,245.5 631.1,252.6 644.6,261.0 657.4,270.5 669.4,281.0 680.4,292.6 690.3,305.2 699.1,318.5 706.8,332.6 713.2,347.4 718.2,362.6 722.0,378.3 724.4,394.3 725.3,410.4" fill="none" stroke="#e74c3c" stroke-width="2.5" opacity="0.5" stroke-linecap="round"/>
<rect x="0" y="0" width="1080" height="13" fill="#e74c3c"/>
<rect x="0" y="1003" width="1080" height="77" fill="#0d0d0d"/>
<text x="540" y="670" font-family="Georgia,serif" font-size="70" font-weight="bold"
  fill="#f4f0e8" text-anchor="middle" dominant-baseline="middle">Kowhaiwhai</text>
<text x="540" y="756" font-family="Arial,sans-serif" font-size="48"
  font-weight="bold" fill="#e74c3c" text-anchor="middle" dominant-baseline="middle">DATA SOVEREIGNTY</text>
<text x="540" y="842" font-family="Arial,sans-serif" font-size="30"
  fill="#f4f0e8" text-anchor="middle" dominant-baseline="middle">Indigenous knowledge is not open source.</text>
<text x="540" y="929" font-family="Arial,sans-serif" font-size="23"
  fill="#f4f0e8" text-anchor="middle" dominant-baseline="middle" opacity="0.7">Painted scroll patterns — beauty and continuity</text>
<text x="540" y="1042" font-family="Arial,sans-serif" font-size="19" font-weight="bold"
  fill="#f4f0e8" text-anchor="middle" dominant-baseline="middle">TE PĀ TŪWATAWATA · te-pa.org · Māori</text>
</svg>