<svg xmlns="http://www.w3.org/2000/svg" width="1200" height="630" viewBox="0 0 1200 630">
<rect width="1200" height="630" fill="#0d0d0d"/>
<polyline points="963.7,315.0 963.8,317.4 963.6,319.9 963.2,322.3 962.6,324.7 961.8,327.0 960.8,329.3 959.6,331.5 958.2,333.6 956.6,335.6 954.8,337.4 952.9,339.1 950.8,340.6 948.6,341.9 946.2,343.1 943.8,344.0 941.2,344.7 938.6,345.2 936.0,345.5 933.3,345.5 930.7,345.3 928.0,344.9 925.4,344.2 922.8,343.3 920.3,342.2 917.9,340.9 915.6,339.3 913.5,337.5 911.5,335.6 909.6,333.5 908.0,331.2 906.6,328.7 905.3,326.2 904.3,323.5 903.5,320.7 903.0,317.9 902.7,315.0 902.7,312.1 902.9,309.2 903.4,306.3 904.2,303.4 905.2,300.6 906.4,297.9 907.9,295.3 909.6,292.8 911.5,290.5 913.6,288.3 915.9,286.4 918.4,284.6 921.1,283.0 923.9,281.7 926.8,280.6 929.8,279.8 932.9,279.3 936.0,279.0 939.2,278.9 942.3,279.2 945.4,279.7 948.5,280.6 951.6,281.6 954.5,283.0 957.3,284.6 960.0,286.5 962.5,288.5 964.8,290.8 966.9,293.4 968.8,296.1 970.5,298.9 971.9,301.9 973.0,305.1 973.9,308.3 974.5,311.6 974.8,315.0" fill="none" stroke="#e74c3c" stroke-width="2.5" opacity="0.9" stroke-linecap="round"/>
<polyline points="998.4,315.0 998.3,320.4 997.7,325.9 996.7,331.3 995.2,336.5 993.2,341.7 990.8,346.6 988.0,351.4 984.7,355.9 981.1,360.1 977.1,364.0 972.7,367.5 968.1,370.6 963.2,373.3 958.1,375.6 952.7,377.5 947.3,378.8 941.7,379.7 936.0,380.1 930.3,380.0 924.6,379.5 919.0,378.4 913.5,376.8 908.1,374.7 903.0,372.2 898.0,369.2 893.3,365.8 889.0,362.0 884.9,357.9 881.3,353.3 878.0,348.5 875.1,343.4 872.8,338.0 870.8,332.5 869.4,326.7 868.5,320.9 868.1,315.0 868.2,309.1 868.8,303.2 870.0,297.3 871.6,291.6 873.8,286.0 876.4,280.6 879.5,275.4 883.0,270.6 887.0,266.0 891.4,261.8 896.1,258.0 901.1,254.6 906.5,251.6 912.0,249.2 917.8,247.2 923.8,245.7 929.9,244.7 936.0,244.3 942.2,244.4 948.3,245.1 954.4,246.3 960.4,248.0 966.2,250.2 971.8,253.0 977.2,256.2 982.2,259.9 987.0,264.0 991.3,268.6 995.3,273.5 998.8,278.7 1001.9,284.3 1004.4,290.1 1006.5,296.1 1008.0,302.3 1009.0,308.6 1009.5,315.0" fill="none" stroke="#e74c3c" stroke-width="2.5" opacity="0.7" stroke-linecap="round"/>
<polyline points="1033.0,315.0 1032.8,323.5 1031.8,331.9 1030.2,340.2 1027.7,348.4 1024.6,356.3 1020.8,364.0 1016.4,371.3 1011.3,378.2 1005.6,384.6 999.4,390.5 992.6,395.9 985.4,400.6 977.8,404.7 969.9,408.2 961.7,410.9 953.3,413.0 944.7,414.3 936.0,414.8 927.3,414.6 918.6,413.6 910.1,411.8 901.7,409.4 893.5,406.1 885.6,402.2 878.1,397.6 871.1,392.4 864.5,386.5 858.4,380.1 852.9,373.2 848.0,365.8 843.7,358.0 840.2,349.9 837.4,341.4 835.3,332.8 834.0,323.9 833.4,315.0 833.7,306.0 834.7,297.1 836.5,288.3 839.0,279.7 842.3,271.3 846.4,263.3 851.1,255.6 856.5,248.3 862.5,241.5 869.1,235.3 876.2,229.6 883.8,224.6 891.8,220.2 900.2,216.6 908.9,213.7 917.8,211.6 926.8,210.2 936.0,209.7 945.2,209.9 954.3,211.0 963.4,212.8 972.2,215.4 980.8,218.8 989.1,223.0 997.0,227.8 1004.5,233.4 1011.5,239.5 1017.9,246.3 1023.7,253.6 1028.8,261.4 1033.3,269.6 1037.0,278.2 1040.0,287.1 1042.2,296.3 1043.5,305.6 1044.1,315.0" fill="none" stroke="#e74c3c" stroke-width="2.5" opacity="0.5" stroke-linecap="round"/>
<rect x="0" y="0" width="1200" height="8" fill="#e74c3c"/>
<rect x="0" y="575" width="1200" height="55" fill="#0d0d0d"/>
<text x="456" y="113" font-family="Georgia,serif" font-size="56" font-weight="bold"
  fill="#f4f0e8" text-anchor="middle" dominant-baseline="middle">Kowhaiwhai</text>
<text x="456" y="202" font-family="Arial,sans-serif" font-size="40"
  font-weight="bold" fill="#e74c3c" text-anchor="middle" dominant-baseline="middle">COMMUNITY FIRST</text>
<text x="456" y="315" font-family="Arial,sans-serif" font-size="23"
  fill="#f4f0e8" text-anchor="middle" dominant-baseline="middle">Whakapapa and kinship over algorithm.</text>
<text x="456" y="403" font-family="Arial,sans-serif" font-size="17"
  fill="#f4f0e8" text-anchor="middle" dominant-baseline="middle" opacity="0.7">Painted scroll patterns — beauty and continuity</text>
<text x="600" y="603" font-family="Arial,sans-serif" font-size="15" font-weight="bold"
  fill="#f4f0e8" text-anchor="middle" dominant-baseline="middle">TE PĀ TŪWATAWATA · te-pa.org · Māori</text>
</svg>