<svg xmlns="http://www.w3.org/2000/svg" width="1080" height="1920" viewBox="0 0 1080 1920">
<rect width="1080" height="1920" fill="#0d0d0d"/>
<polyline points="587.5,672.0 587.6,676.2 587.3,680.3 586.7,684.5 585.6,688.6 584.3,692.6 582.5,696.6 580.4,700.3 578.0,703.9 575.3,707.3 572.2,710.4 568.9,713.3 565.3,715.9 561.5,718.2 557.5,720.1 553.3,721.7 549.0,723.0 544.5,723.8 540.0,724.3 535.4,724.3 530.8,724.0 526.3,723.3 521.8,722.1 517.4,720.6 513.1,718.6 509.0,716.3 505.0,713.7 501.4,710.6 497.9,707.3 494.8,703.6 492.0,699.7 489.5,695.5 487.4,691.1 485.7,686.6 484.4,681.8 483.5,676.9 483.0,672.0 482.9,667.0 483.3,662.0 484.2,657.0 485.4,652.1 487.1,647.3 489.2,642.7 491.8,638.2 494.7,634.0 498.0,630.0 501.6,626.3 505.6,622.9 509.9,619.9 514.5,617.2 519.2,614.9 524.2,613.1 529.4,611.7 534.6,610.7 540.0,610.2 545.4,610.2 550.8,610.6 556.2,611.6 561.5,613.0 566.7,614.8 571.7,617.1 576.5,619.9 581.1,623.1 585.4,626.6 589.3,630.6 593.0,634.9 596.2,639.5 599.1,644.4 601.5,649.6 603.5,655.0 605.0,660.5 606.0,666.2 606.5,672.0" fill="none" stroke="#e74c3c" stroke-width="2.5" opacity="0.9" stroke-linecap="round"/>
<polyline points="646.9,672.0 646.8,681.3 645.8,690.7 644.0,699.9 641.5,708.9 638.1,717.7 634.0,726.3 629.1,734.4 623.5,742.1 617.3,749.3 610.4,755.9 603.0,762.0 595.0,767.3 586.6,772.0 577.8,775.9 568.7,779.1 559.3,781.5 549.7,783.0 540.0,783.7 530.2,783.5 520.5,782.5 510.9,780.6 501.4,777.9 492.2,774.4 483.4,770.1 474.9,765.0 466.9,759.2 459.4,752.6 452.4,745.5 446.1,737.7 440.5,729.4 435.7,720.6 431.6,711.5 428.3,701.9 425.9,692.1 424.3,682.1 423.6,672.0 423.8,661.8 424.8,651.7 426.8,641.7 429.6,631.8 433.3,622.2 437.8,613.0 443.1,604.2 449.2,595.8 456.0,588.0 463.5,580.8 471.6,574.3 480.2,568.4 489.3,563.4 498.9,559.1 508.8,555.7 519.0,553.2 529.5,551.5 540.0,550.8 550.6,551.0 561.1,552.1 571.6,554.2 581.8,557.1 591.8,561.0 601.4,565.7 610.6,571.2 619.2,577.6 627.4,584.6 634.8,592.4 641.6,600.8 647.7,609.8 652.9,619.3 657.3,629.3 660.9,639.6 663.5,650.2 665.2,661.0 665.9,672.0" fill="none" stroke="#e74c3c" stroke-width="2.5" opacity="0.7" stroke-linecap="round"/>
<polyline points="706.3,672.0 706.0,686.5 704.3,701.0 701.4,715.3 697.3,729.2 691.9,742.8 685.4,756.0 677.8,768.5 669.0,780.3 659.3,791.3 648.6,801.4 637.1,810.6 624.7,818.8 611.7,825.8 598.1,831.8 584.1,836.5 569.6,840.0 554.9,842.2 540.0,843.1 525.1,842.7 510.2,841.0 495.5,838.0 481.1,833.7 467.1,828.2 453.7,821.5 440.8,813.6 428.7,804.7 417.4,794.6 406.9,783.7 397.5,771.8 389.1,759.1 381.8,745.7 375.8,731.8 370.9,717.3 367.4,702.4 365.1,687.3 364.2,672.0 364.6,656.7 366.3,641.4 369.4,626.3 373.8,611.5 379.5,597.1 386.4,583.3 394.5,570.1 403.7,557.6 414.0,546.0 425.3,535.3 437.5,525.6 450.5,517.0 464.2,509.5 478.6,503.3 493.5,498.3 508.7,494.7 524.3,492.4 540.0,491.4 555.8,491.8 571.4,493.6 586.9,496.8 602.1,501.3 616.9,507.1 631.1,514.2 644.6,522.6 657.4,532.1 669.4,542.6 680.4,554.2 690.3,566.8 699.1,580.1 706.8,594.2 713.2,609.0 718.2,624.2 722.0,639.9 724.4,655.9 725.3,672.0" fill="none" stroke="#e74c3c" stroke-width="2.5" opacity="0.5" stroke-linecap="round"/>
<rect x="0" y="0" width="1080" height="24" fill="#e74c3c"/>
<rect x="0" y="1783" width="1080" height="137" fill="#0d0d0d"/>
<text x="540" y="1190" font-family="Georgia,serif" font-size="105" font-weight="bold"
  fill="#f4f0e8" text-anchor="middle" dominant-baseline="middle">Kowhaiwhai</text>
<text x="540" y="1344" font-family="Arial,sans-serif" font-size="76"
  font-weight="bold" fill="#e74c3c" text-anchor="middle" dominant-baseline="middle">AI RIGHTS NOW</text>
<text x="540" y="1498" font-family="Arial,sans-serif" font-size="42"
  fill="#f4f0e8" text-anchor="middle" dominant-baseline="middle">No AI training on our sacred knowledge.</text>
<text x="540" y="1632" font-family="Arial,sans-serif" font-size="34"
  fill="#f4f0e8" text-anchor="middle" dominant-baseline="middle" opacity="0.7">Painted scroll patterns — beauty and continuity</text>
<text x="540" y="1852" font-family="Arial,sans-serif" font-size="30" font-weight="bold"
  fill="#f4f0e8" text-anchor="middle" dominant-baseline="middle">TE PĀ TŪWATAWATA · te-pa.org · Māori</text>
</svg>