<svg xmlns="http://www.w3.org/2000/svg" width="1200" height="675" viewBox="0 0 1200 675">
<rect width="1200" height="675" fill="#0d0d0d"/>
<polyline points="816.0,337.0 815.3,347.8 814.0,358.6 812.3,369.3 810.0,379.8 807.1,390.2 803.8,400.4 799.9,410.4 795.6,420.2 790.8,429.7 785.5,439.0 779.8,447.9 773.6,456.6 767.0,464.9 760.1,472.9 752.7,480.4 745.0,487.6 737.0,494.4 728.7,500.7 720.0,506.6 711.1,512.1 702.0,517.1 692.6,521.6 683.0,525.6 673.3,529.1 663.4,532.2 653.4,534.7 643.3,536.7 633.2,538.2 623.0,539.2 612.7,539.6 602.5,539.6 592.4,539.0 582.3,538.0 572.3,536.4 562.4,534.3 552.6,531.8 543.0,528.7 533.6,525.2 524.4,521.2 515.4,516.8 506.7,511.9 498.2,506.7 490.1,501.0 482.2,494.9 474.7,488.5 467.5,481.6 460.8,474.5 454.3,467.0 448.3,459.3 442.7,451.3 437.5,443.0 432.8,434.5 428.5,425.7 424.6,416.8 421.3,407.8 418.3,398.6 415.9,389.2 413.9,379.8 412.4,370.3 411.4,360.8 410.9,351.3 410.8,341.8 411.3,332.3 412.2,322.8 413.6,313.4 415.4,304.2 417.7,295.0 420.5,286.1 423.7,277.2 427.3,268.6 431.3,260.2 435.8,252.0 440.6,244.1 445.9,236.4 451.5,229.1 457.4,222.0 463.7,215.3 470.3,208.9 477.2,202.9 484.3,197.2 491.8,191.9 499.4,187.0 507.3,182.5 515.4,178.4 523.7,174.8 532.1,171.6 540.6,168.8 549.3,166.4 558.0,164.5 566.8,163.0 575.7,162.0 584.5,161.4 593.4,161.3 602.2,161.6 611.0,162.4 619.7,163.6 628.3,165.2 636.8,167.3 645.2,169.8 653.4,172.7 661.4,176.0 669.3,179.6 676.9,183.7 684.3,188.1 691.4,192.9 698.3,198.1 704.9,203.5 711.2,209.3 717.2,215.3 722.8,221.7 728.1,228.3 733.1,235.1 737.7,242.2 741.9,249.4 745.7,256.9 749.2,264.5 752.3,272.2 754.9,280.1 757.2,288.1 759.0,296.2 760.4,304.3 761.4,312.5 762.0,320.7 762.2,328.8 762.0,337.0 761.4,345.1 760.3,353.2 758.9,361.1 757.0,369.0 754.8,376.8 752.2,384.4 749.2,391.8 745.9,399.0 742.2,406.1 738.2,413.0 733.8,419.6 729.1,426.0 724.2,432.1 718.9,437.9 713.4,443.5 707.6,448.7 701.5,453.6 695.3,458.3 688.8,462.5 682.2,466.5 675.4,470.1 668.4,473.3 661.3,476.2 654.0,478.7 646.7,480.8 639.3,482.5 631.9,483.9 624.4,484.9 616.9,485.5 609.4,485.7 601.9,485.6 594.4,485.1 587.0,484.2 579.7,482.9 572.5,481.3 565.4,479.3 558.4,477.0 551.5,474.3 544.9,471.3 538.4,467.9 532.1,464.3 526.0,460.4 520.1,456.1 514.5,451.6 509.1,446.8 504.0,441.8 499.2,436.6 494.6,431.1 490.4,425.4 486.4,419.5 482.8,413.5 479.5,407.3 476.5,400.9 473.8,394.5 471.5,387.9 469.5,381.2 467.8,374.5 466.5,367.7 465.6,360.9 465.0,354.1 464.7,347.2 464.8,340.4 465.3,333.6 466.0,326.9 467.1,320.2 468.6,313.6 470.3,307.2 472.4,300.8 474.8,294.6 477.5,288.5 480.5,282.6 483.7,276.8 487.3,271.3 491.1,266.0 495.2,260.8 499.4,255.9 504.0,251.3 508.7,246.8 513.6,242.7 518.8,238.8 524.1,235.2 529.5,231.9 535.1,228.8 540.8,226.1 546.7,223.6 552.6,221.5 558.6,219.7 564.7,218.2 570.8,217.0 576.9,216.1 583.1,215.5 589.3,215.2 595.4,215.3 601.5,215.6 607.6,216.3 613.6,217.2 619.5,218.5 625.4,220.1 631.1,221.9 636.7,224.0 642.2,226.4 647.5,229.1 652.7,232.0 657.7,235.1 662.5,238.5 667.1,242.1 671.5,246.0 675.7,250.0 679.7,254.2 683.5,258.6 687.0,263.2 690.2,267.9 693.2,272.8 696.0,277.8 698.4,282.9 700.6,288.1 702.6,293.4 704.2,298.7 705.6,304.1 706.7,309.6 707.5,315.1 708.1,320.6 708.3,326.1 708.3,331.6 708.0,337.0 707.4,342.4 706.6,347.8 705.5,353.0 704.1,358.2 702.5,363.3 700.7,368.3 698.5,373.2 696.2,377.9 693.6,382.5 690.9,386.9 687.9,391.2 684.7,395.3 681.3,399.2 677.7,403.0 674.0,406.5 670.1,409.8 666.1,412.9 661.9,415.8 657.6,418.5 653.2,420.9 648.7,423.1 644.2,425.0 639.5,426.8 634.8,428.2 630.0,429.4 625.2,430.4 620.4,431.1 615.6,431.6 610.8,431.9 606.0,431.9 601.2,431.6 596.5,431.1 591.8,430.4 587.1,429.4 582.6,428.2 578.1,426.8 573.8,425.2 569.5,423.4 565.4,421.3 561.4,419.1 557.5,416.7 553.8,414.1 550.2,411.3 546.8,408.3 543.5,405.2 540.5,402.0 537.6,398.6 534.9,395.1 532.4,391.5 530.1,387.8 528.0,384.0 526.1,380.1 524.4,376.1 522.9,372.1 521.7,368.0 520.6,363.9 519.8,359.8 519.2,355.6 518.8,351.4 518.6,347.3 518.6,343.2 518.8,339.0 519.2,335.0 519.9,330.9 520.7,327.0 521.7,323.1 523.0,319.3 524.4,315.5 525.9,311.9 527.7,308.4 529.6,305.0 531.7,301.7 533.9,298.5 536.3,295.5 538.8,292.6 541.5,289.8 544.3,287.2 547.1,284.8 550.1,282.5 553.2,280.4 556.3,278.5 559.6,276.7 562.9,275.1 566.2,273.7 569.7,272.5 573.1,271.5 576.6,270.6 580.1,269.9 583.6,269.4 587.0,269.1 590.5,269.0 594.0,269.0 597.4,269.2 600.8,269.6 604.2,270.2 607.5,270.9 610.7,271.8 613.9,272.8 617.0,274.0 620.0,275.4 622.9,276.9 625.8,278.5 628.5,280.2 631.1,282.1 633.6,284.1 635.9,286.2 638.2,288.4 640.3,290.7 642.3,293.1 644.1,295.6 645.8,298.1 647.3,300.8 648.7,303.4 650.0,306.1 651.1,308.9 652.1,311.7 652.9,314.5 653.5,317.3 654.0,320.2 654.4,323.0 654.6,325.9 654.7,328.7 654.6,331.5 654.4,334.3 654.0,337.0 653.5,339.7 652.9,342.3 652.1,344.9 651.2,347.4 650.2,349.9 649.1,352.3 647.9,354.6 646.5,356.8 645.1,358.9 643.5,360.9 641.9,362.9 640.2,364.7 638.4,366.4 636.6,368.0 634.6,369.5 632.7,370.9 630.6,372.2 628.6,373.3 626.4,374.4 624.3,375.3 622.1,376.1 620.0,376.8 617.8,377.3 615.6,377.8 613.3,378.1" fill="none" stroke="#f4f0e8" stroke-width="2" stroke-linecap="round"/><polyline points="384.0,337.0 384.7,347.8 386.0,358.6 387.7,369.3 390.0,379.8 392.9,390.2 396.2,400.4 400.1,410.4 404.4,420.2 409.2,429.7 414.5,439.0 420.2,447.9 426.4,456.6 433.0,464.9 439.9,472.9 447.3,480.4 455.0,487.6 463.0,494.4 471.3,500.7 480.0,506.6 488.9,512.1 498.0,517.1 507.4,521.6 517.0,525.6 526.7,529.1 536.6,532.2 546.6,534.7 556.7,536.7 566.8,538.2 577.0,539.2 587.3,539.6 597.5,539.6 607.6,539.0 617.7,538.0 627.7,536.4 637.6,534.3 647.4,531.8 657.0,528.7 666.4,525.2 675.6,521.2 684.6,516.8 693.3,511.9 701.8,506.7 709.9,501.0 717.8,494.9 725.3,488.5 732.5,481.6 739.2,474.5 745.7,467.0 751.7,459.3 757.3,451.3 762.5,443.0 767.2,434.5 771.5,425.7 775.4,416.8 778.7,407.8 781.7,398.6 784.1,389.2 786.1,379.8 787.6,370.3 788.6,360.8 789.1,351.3 789.2,341.8 788.7,332.3 787.8,322.8 786.4,313.4 784.6,304.2 782.3,295.0 779.5,286.1 776.3,277.2 772.7,268.6 768.7,260.2 764.2,252.0 759.4,244.1 754.1,236.4 748.5,229.1 742.6,222.0 736.3,215.3 729.7,208.9 722.8,202.9 715.7,197.2 708.2,191.9 700.6,187.0 692.7,182.5 684.6,178.4 676.3,174.8 667.9,171.6 659.4,168.8 650.7,166.4 642.0,164.5 633.2,163.0 624.3,162.0 615.5,161.4 606.6,161.3 597.8,161.6 589.0,162.4 580.3,163.6 571.7,165.2 563.2,167.3 554.8,169.8 546.6,172.7 538.6,176.0 530.7,179.6 523.1,183.7 515.7,188.1 508.6,192.9 501.7,198.1 495.1,203.5 488.8,209.3 482.8,215.3 477.2,221.7 471.9,228.3 466.9,235.1 462.3,242.2 458.1,249.4 454.3,256.9 450.8,264.5 447.7,272.2 445.1,280.1 442.8,288.1 441.0,296.2 439.6,304.3 438.6,312.5 438.0,320.7 437.8,328.8 438.0,337.0 438.6,345.1 439.7,353.2 441.1,361.1 443.0,369.0 445.2,376.8 447.8,384.4 450.8,391.8 454.1,399.0 457.8,406.1 461.8,413.0 466.2,419.6 470.9,426.0 475.8,432.1 481.1,437.9 486.6,443.5 492.4,448.7 498.5,453.6 504.7,458.3 511.2,462.5 517.8,466.5 524.6,470.1 531.6,473.3 538.7,476.2 546.0,478.7 553.3,480.8 560.7,482.5 568.1,483.9 575.6,484.9 583.1,485.5 590.6,485.7 598.1,485.6 605.6,485.1 613.0,484.2 620.3,482.9 627.5,481.3 634.6,479.3 641.6,477.0 648.5,474.3 655.1,471.3 661.6,467.9 667.9,464.3 674.0,460.4 679.9,456.1 685.5,451.6 690.9,446.8 696.0,441.8 700.8,436.6 705.4,431.1 709.6,425.4 713.6,419.5 717.2,413.5 720.5,407.3 723.5,400.9 726.2,394.5 728.5,387.9 730.5,381.2 732.2,374.5 733.5,367.7 734.4,360.9 735.0,354.1 735.3,347.2 735.2,340.4 734.7,333.6 734.0,326.9 732.9,320.2 731.4,313.6 729.7,307.2 727.6,300.8 725.2,294.6 722.5,288.5 719.5,282.6 716.3,276.8 712.7,271.3 708.9,266.0 704.8,260.8 700.6,255.9 696.0,251.3 691.3,246.8 686.4,242.7 681.2,238.8 675.9,235.2 670.5,231.9 664.9,228.8 659.2,226.1 653.3,223.6 647.4,221.5 641.4,219.7 635.3,218.2 629.2,217.0 623.1,216.1 616.9,215.5 610.7,215.2 604.6,215.3 598.5,215.6 592.4,216.3 586.4,217.2 580.5,218.5 574.6,220.1 568.9,221.9 563.3,224.0 557.8,226.4 552.5,229.1 547.3,232.0 542.3,235.1 537.5,238.5 532.9,242.1 528.5,246.0 524.3,250.0 520.3,254.2 516.5,258.6 513.0,263.2 509.8,267.9 506.8,272.8 504.0,277.8 501.6,282.9 499.4,288.1 497.4,293.4 495.8,298.7 494.4,304.1 493.3,309.6 492.5,315.1 491.9,320.6 491.7,326.1 491.7,331.6 492.0,337.0 492.6,342.4 493.4,347.8 494.5,353.0 495.9,358.2 497.5,363.3 499.3,368.3 501.5,373.2 503.8,377.9 506.4,382.5 509.1,386.9 512.1,391.2 515.3,395.3 518.7,399.2 522.3,403.0 526.0,406.5 529.9,409.8 533.9,412.9 538.1,415.8 542.4,418.5 546.8,420.9 551.3,423.1 555.8,425.0 560.5,426.8 565.2,428.2 570.0,429.4 574.8,430.4 579.6,431.1 584.4,431.6 589.2,431.9 594.0,431.9 598.8,431.6 603.5,431.1 608.2,430.4 612.9,429.4 617.4,428.2 621.9,426.8 626.2,425.2 630.5,423.4 634.6,421.3 638.6,419.1 642.5,416.7 646.2,414.1 649.8,411.3 653.2,408.3 656.5,405.2 659.5,402.0 662.4,398.6 665.1,395.1 667.6,391.5 669.9,387.8 672.0,384.0 673.9,380.1 675.6,376.1 677.1,372.1 678.3,368.0 679.4,363.9 680.2,359.8 680.8,355.6 681.2,351.4 681.4,347.3 681.4,343.2 681.2,339.0 680.8,335.0 680.1,330.9 679.3,327.0 678.3,323.1 677.0,319.3 675.6,315.5 674.1,311.9 672.3,308.4 670.4,305.0 668.3,301.7 666.1,298.5 663.7,295.5 661.2,292.6 658.5,289.8 655.7,287.2 652.9,284.8 649.9,282.5 646.8,280.4 643.7,278.5 640.4,276.7 637.1,275.1 633.8,273.7 630.3,272.5 626.9,271.5 623.4,270.6 619.9,269.9 616.4,269.4 613.0,269.1 609.5,269.0 606.0,269.0 602.6,269.2 599.2,269.6 595.8,270.2 592.5,270.9 589.3,271.8 586.1,272.8 583.0,274.0 580.0,275.4 577.1,276.9 574.2,278.5 571.5,280.2 568.9,282.1 566.4,284.1 564.1,286.2 561.8,288.4 559.7,290.7 557.7,293.1 555.9,295.6 554.2,298.1 552.7,300.8 551.3,303.4 550.0,306.1 548.9,308.9 547.9,311.7 547.1,314.5 546.5,317.3 546.0,320.2 545.6,323.0 545.4,325.9 545.3,328.7 545.4,331.5 545.6,334.3 546.0,337.0 546.5,339.7 547.1,342.3 547.9,344.9 548.8,347.4 549.8,349.9 550.9,352.3 552.1,354.6 553.5,356.8 554.9,358.9 556.5,360.9 558.1,362.9 559.8,364.7 561.6,366.4 563.4,368.0 565.4,369.5 567.3,370.9 569.4,372.2 571.4,373.3 573.6,374.4 575.7,375.3 577.9,376.1 580.0,376.8 582.2,377.3 584.4,377.8 586.7,378.1" fill="none" stroke="#c0392b" stroke-width="2" stroke-linecap="round"/>
<rect x="0" y="0" width="1200" height="8" fill="#c0392b"/>
<rect x="0" y="603" width="1200" height="72" fill="#0d0d0d"/>
<rect width="1200" height="18" fill="#0d0d0d"/><polygon points="0.0,0 50.0,0 25.0,18" fill="#c0392b"/><polygon points="50.0,0 100.0,0 75.0,18" fill="#c0392b"/><polygon points="100.0,0 150.0,0 125.0,18" fill="#c0392b"/><polygon points="150.0,0 200.0,0 175.0,18" fill="#c0392b"/><polygon points="200.0,0 250.0,0 225.0,18" fill="#c0392b"/><polygon points="250.0,0 300.0,0 275.0,18" fill="#c0392b"/><polygon points="300.0,0 350.0,0 325.0,18" fill="#c0392b"/><polygon points="350.0,0 400.0,0 375.0,18" fill="#c0392b"/><polygon points="400.0,0 450.0,0 425.0,18" fill="#c0392b"/><polygon points="450.0,0 500.0,0 475.0,18" fill="#c0392b"/><polygon points="500.0,0 550.0,0 525.0,18" fill="#c0392b"/><polygon points="550.0,0 600.0,0 575.0,18" fill="#c0392b"/><polygon points="600.0,0 650.0,0 625.0,18" fill="#c0392b"/><polygon points="650.0,0 700.0,0 675.0,18" fill="#c0392b"/><polygon points="700.0,0 750.0,0 725.0,18" fill="#c0392b"/><polygon points="750.0,0 800.0,0 775.0,18" fill="#c0392b"/><polygon points="800.0,0 850.0,0 825.0,18" fill="#c0392b"/><polygon points="850.0,0 900.0,0 875.0,18" fill="#c0392b"/><polygon points="900.0,0 950.0,0 925.0,18" fill="#c0392b"/><polygon points="950.0,0 1000.0,0 975.0,18" fill="#c0392b"/><polygon points="1000.0,0 1050.0,0 1025.0,18" fill="#c0392b"/><polygon points="1050.0,0 1100.0,0 1075.0,18" fill="#c0392b"/><polygon points="1100.0,0 1150.0,0 1125.0,18" fill="#c0392b"/><polygon points="1150.0,0 1200.0,0 1175.0,18" fill="#c0392b"/>
<text x="600" y="287" font-family="Georgia,serif" font-size="82" font-weight="bold"
  fill="#f4f0e8" text-anchor="middle">KO TĀTOU TE ANAMATA</text>
<text x="600" y="357" font-family="Arial,sans-serif" font-size="41"
  font-weight="bold" fill="#c0392b" text-anchor="middle">WE ARE THE FUTURE</text>
<text x="600" y="399" font-family="Arial,sans-serif" font-size="20"
  fill="#f4f0e8" text-anchor="middle" opacity="0.7">Two spirals. Past and future. Wound together.</text>
<text x="600" y="653" font-family="Arial,sans-serif" font-size="20" font-weight="bold"
  fill="#f4f0e8" text-anchor="middle">THE KIWI DIALECTIC · kiwidialectic.com · Te Pā Tūwatawata</text>
</svg>