<svg xmlns="http://www.w3.org/2000/svg" width="1200" height="630" viewBox="0 0 1200 630">
<rect width="1200" height="630" fill="#0d0d0d"/>
<polyline points="801.6,315.0 800.9,325.1 799.8,335.2 798.1,345.1 796.0,354.9 793.3,364.6 790.2,374.2 786.6,383.5 782.6,392.6 778.1,401.5 773.1,410.2 767.8,418.5 762.0,426.6 755.9,434.4 749.4,441.8 742.6,448.9 735.4,455.6 727.9,461.9 720.1,467.8 712.0,473.3 703.7,478.4 695.2,483.1 686.4,487.3 677.5,491.0 668.4,494.3 659.2,497.1 649.9,499.5 640.4,501.4 631.0,502.8 621.4,503.7 611.9,504.1 602.4,504.1 592.9,503.6 583.5,502.6 574.1,501.1 564.9,499.2 555.8,496.8 546.8,493.9 538.0,490.7 529.4,486.9 521.0,482.8 512.9,478.3 505.0,473.4 497.4,468.0 490.1,462.4 483.1,456.4 476.4,450.0 470.0,443.3 464.1,436.4 458.4,429.1 453.2,421.6 448.4,413.9 443.9,406.0 439.9,397.8 436.3,389.5 433.2,381.1 430.4,372.5 428.2,363.8 426.3,355.0 424.9,346.1 424.0,337.2 423.5,328.3 423.5,319.4 423.9,310.6 424.7,301.8 426.0,293.0 427.7,284.4 429.9,275.8 432.4,267.5 435.4,259.2 438.8,251.2 442.6,243.3 446.7,235.7 451.3,228.3 456.1,221.1 461.4,214.3 466.9,207.7 472.8,201.4 478.9,195.4 485.4,189.8 492.1,184.5 499.0,179.6 506.1,175.0 513.5,170.8 521.0,167.0 528.8,163.6 536.6,160.6 544.6,158.0 552.7,155.8 560.8,154.0 569.0,152.6 577.3,151.7 585.5,151.1 593.8,151.0 602.1,151.3 610.3,152.0 618.4,153.1 626.4,154.7 634.4,156.6 642.2,158.9 649.8,161.6 657.3,164.7 664.7,168.1 671.8,171.9 678.7,176.1 685.3,180.5 691.8,185.3 697.9,190.4 703.8,195.8 709.4,201.4 714.6,207.4 719.6,213.5 724.2,219.9 728.5,226.5 732.4,233.3 736.0,240.2 739.3,247.3 742.1,254.6 744.6,261.9 746.7,269.4 748.4,276.9 749.7,284.5 750.7,292.1 751.2,299.7 751.4,307.4 751.2,315.0 750.6,322.6 749.6,330.1 748.3,337.5 746.6,344.9 744.5,352.1 742.1,359.2 739.3,366.1 736.2,372.9 732.7,379.5 729.0,385.9 724.9,392.1 720.5,398.0 715.9,403.7 711.0,409.2 705.8,414.4 700.4,419.3 694.8,423.9 688.9,428.2 682.9,432.2 676.7,435.9 670.3,439.2 663.8,442.2 657.2,444.9 650.4,447.2 643.6,449.2 636.7,450.8 629.7,452.1 622.8,453.0 615.7,453.6 608.7,453.8 601.7,453.7 594.8,453.2 587.9,452.4 581.1,451.2 574.3,449.7 567.7,447.8 561.2,445.6 554.8,443.1 548.5,440.3 542.5,437.2 536.6,433.8 530.9,430.1 525.5,426.2 520.2,422.0 515.2,417.5 510.4,412.8 505.9,407.9 501.7,402.8 497.7,397.5 494.0,392.0 490.6,386.4 487.5,380.6 484.7,374.7 482.2,368.6 480.0,362.5 478.2,356.3 476.7,350.0 475.4,343.7 474.6,337.3 474.0,330.9 473.8,324.5 473.8,318.2 474.2,311.8 475.0,305.6 476.0,299.3 477.3,293.2 479.0,287.1 480.9,281.2 483.1,275.4 485.7,269.7 488.4,264.2 491.5,258.9 494.8,253.7 498.4,248.7 502.1,243.9 506.2,239.3 510.4,235.0 514.8,230.9 519.4,227.0 524.2,223.4 529.1,220.0 534.2,216.9 539.4,214.0 544.8,211.5 550.2,209.2 555.7,207.2 561.4,205.5 567.0,204.1 572.7,203.0 578.5,202.1 584.2,201.6 590.0,201.3 595.7,201.4 601.4,201.7 607.1,202.3 612.7,203.2 618.2,204.4 623.7,205.9 629.0,207.6 634.3,209.5 639.4,211.8 644.3,214.3 649.2,217.0 653.8,219.9 658.3,223.1 662.6,226.5 666.8,230.0 670.7,233.8 674.4,237.7 677.9,241.9 681.2,246.1 684.2,250.5 687.0,255.1 689.6,259.7 691.9,264.5 693.9,269.4 695.7,274.3 697.3,279.3 698.6,284.3 699.6,289.4 700.3,294.5 700.9,299.7 701.1,304.8 701.1,309.9 700.8,315.0 700.3,320.0 699.5,325.0 698.5,330.0 697.2,334.8 695.7,339.6 693.9,344.2 692.0,348.8 689.8,353.2 687.4,357.5 684.8,361.6 682.0,365.6 679.0,369.4 675.9,373.1 672.6,376.6 669.1,379.9 665.4,383.0 661.7,385.9 657.8,388.6 653.8,391.0 649.7,393.3 645.5,395.3 641.2,397.2 636.9,398.8 632.5,400.1 628.0,401.3 623.6,402.2 619.1,402.9 614.6,403.3 610.1,403.5 605.6,403.5 601.1,403.3 596.7,402.8 592.3,402.2 588.0,401.3 583.8,400.2 579.6,398.8 575.5,397.3 571.6,395.6 567.7,393.7 563.9,391.6 560.3,389.3 556.9,386.9 553.5,384.3 550.3,381.6 547.3,378.7 544.5,375.7 541.8,372.5 539.2,369.2 536.9,365.9 534.8,362.4 532.8,358.8 531.0,355.2 529.5,351.5 528.1,347.7 526.9,343.9 525.9,340.1 525.1,336.2 524.6,332.4 524.2,328.5 524.0,324.6 524.0,320.7 524.2,316.9 524.6,313.1 525.2,309.4 526.0,305.7 527.0,302.0 528.1,298.5 529.4,295.0 530.9,291.6 532.5,288.3 534.3,285.1 536.3,282.0 538.3,279.1 540.6,276.2 542.9,273.5 545.4,271.0 548.0,268.5 550.7,266.3 553.4,264.2 556.3,262.2 559.3,260.4 562.3,258.7 565.4,257.3 568.5,255.9 571.7,254.8 574.9,253.8 578.1,253.0 581.4,252.4 584.6,251.9 587.9,251.6 591.2,251.5 594.4,251.5 597.6,251.7 600.8,252.1 603.9,252.6 607.0,253.3 610.0,254.1 613.0,255.1 615.9,256.2 618.7,257.5 621.4,258.9 624.0,260.4 626.6,262.0 629.0,263.8 631.3,265.6 633.5,267.6 635.6,269.7 637.6,271.8 639.4,274.0 641.1,276.4 642.7,278.7 644.2,281.2 645.5,283.7 646.7,286.2 647.7,288.8 648.6,291.4 649.3,294.0 650.0,296.7 650.4,299.3 650.8,302.0 651.0,304.6 651.0,307.2 650.9,309.9 650.7,312.4 650.4,315.0 649.9,317.5 649.3,320.0 648.6,322.4 647.8,324.7 646.9,327.0 645.8,329.3 644.7,331.4 643.4,333.5 642.1,335.4 640.6,337.3 639.1,339.1 637.5,340.8 635.9,342.5 634.1,344.0 632.3,345.4 630.5,346.7 628.6,347.8 626.7,348.9 624.7,349.9 622.7,350.7 620.7,351.5 618.6,352.1 616.6,352.6 614.5,353.0 612.5,353.3" fill="none" stroke="#f4f0e8" stroke-width="2" stroke-linecap="round"/><polyline points="398.4,315.0 399.1,325.1 400.2,335.2 401.9,345.1 404.0,354.9 406.7,364.6 409.8,374.2 413.4,383.5 417.4,392.6 421.9,401.5 426.9,410.2 432.2,418.5 438.0,426.6 444.1,434.4 450.6,441.8 457.4,448.9 464.6,455.6 472.1,461.9 479.9,467.8 488.0,473.3 496.3,478.4 504.8,483.1 513.6,487.3 522.5,491.0 531.6,494.3 540.8,497.1 550.1,499.5 559.6,501.4 569.0,502.8 578.6,503.7 588.1,504.1 597.6,504.1 607.1,503.6 616.5,502.6 625.9,501.1 635.1,499.2 644.2,496.8 653.2,493.9 662.0,490.7 670.6,486.9 679.0,482.8 687.1,478.3 695.0,473.4 702.6,468.0 709.9,462.4 716.9,456.4 723.6,450.0 730.0,443.3 735.9,436.4 741.6,429.1 746.8,421.6 751.6,413.9 756.1,406.0 760.1,397.8 763.7,389.5 766.8,381.1 769.6,372.5 771.8,363.8 773.7,355.0 775.1,346.1 776.0,337.2 776.5,328.3 776.5,319.4 776.1,310.6 775.3,301.8 774.0,293.0 772.3,284.4 770.1,275.8 767.6,267.5 764.6,259.2 761.2,251.2 757.4,243.3 753.3,235.7 748.7,228.3 743.9,221.1 738.6,214.3 733.1,207.7 727.2,201.4 721.1,195.4 714.6,189.8 707.9,184.5 701.0,179.6 693.9,175.0 686.5,170.8 679.0,167.0 671.2,163.6 663.4,160.6 655.4,158.0 647.3,155.8 639.2,154.0 631.0,152.6 622.7,151.7 614.5,151.1 606.2,151.0 597.9,151.3 589.7,152.0 581.6,153.1 573.6,154.7 565.6,156.6 557.8,158.9 550.2,161.6 542.7,164.7 535.3,168.1 528.2,171.9 521.3,176.1 514.7,180.5 508.2,185.3 502.1,190.4 496.2,195.8 490.6,201.4 485.4,207.4 480.4,213.5 475.8,219.9 471.5,226.5 467.6,233.3 464.0,240.2 460.7,247.3 457.9,254.6 455.4,261.9 453.3,269.4 451.6,276.9 450.3,284.5 449.3,292.1 448.8,299.7 448.6,307.4 448.8,315.0 449.4,322.6 450.4,330.1 451.7,337.5 453.4,344.9 455.5,352.1 457.9,359.2 460.7,366.1 463.8,372.9 467.3,379.5 471.0,385.9 475.1,392.1 479.5,398.0 484.1,403.7 489.0,409.2 494.2,414.4 499.6,419.3 505.2,423.9 511.1,428.2 517.1,432.2 523.3,435.9 529.7,439.2 536.2,442.2 542.8,444.9 549.6,447.2 556.4,449.2 563.3,450.8 570.3,452.1 577.2,453.0 584.3,453.6 591.3,453.8 598.3,453.7 605.2,453.2 612.1,452.4 618.9,451.2 625.7,449.7 632.3,447.8 638.8,445.6 645.2,443.1 651.5,440.3 657.5,437.2 663.4,433.8 669.1,430.1 674.5,426.2 679.8,422.0 684.8,417.5 689.6,412.8 694.1,407.9 698.3,402.8 702.3,397.5 706.0,392.0 709.4,386.4 712.5,380.6 715.3,374.7 717.8,368.6 720.0,362.5 721.8,356.3 723.3,350.0 724.6,343.7 725.4,337.3 726.0,330.9 726.2,324.5 726.2,318.2 725.8,311.8 725.0,305.6 724.0,299.3 722.7,293.2 721.0,287.1 719.1,281.2 716.9,275.4 714.3,269.7 711.6,264.2 708.5,258.9 705.2,253.7 701.6,248.7 697.9,243.9 693.8,239.3 689.6,235.0 685.2,230.9 680.6,227.0 675.8,223.4 670.9,220.0 665.8,216.9 660.6,214.0 655.2,211.5 649.8,209.2 644.3,207.2 638.6,205.5 633.0,204.1 627.3,203.0 621.5,202.1 615.8,201.6 610.0,201.3 604.3,201.4 598.6,201.7 592.9,202.3 587.3,203.2 581.8,204.4 576.3,205.9 571.0,207.6 565.7,209.5 560.6,211.8 555.7,214.3 550.8,217.0 546.2,219.9 541.7,223.1 537.4,226.5 533.2,230.0 529.3,233.8 525.6,237.7 522.1,241.9 518.8,246.1 515.8,250.5 513.0,255.1 510.4,259.7 508.1,264.5 506.1,269.4 504.3,274.3 502.7,279.3 501.4,284.3 500.4,289.4 499.7,294.5 499.1,299.7 498.9,304.8 498.9,309.9 499.2,315.0 499.7,320.0 500.5,325.0 501.5,330.0 502.8,334.8 504.3,339.6 506.1,344.2 508.0,348.8 510.2,353.2 512.6,357.5 515.2,361.6 518.0,365.6 521.0,369.4 524.1,373.1 527.4,376.6 530.9,379.9 534.6,383.0 538.3,385.9 542.2,388.6 546.2,391.0 550.3,393.3 554.5,395.3 558.8,397.2 563.1,398.8 567.5,400.1 572.0,401.3 576.4,402.2 580.9,402.9 585.4,403.3 589.9,403.5 594.4,403.5 598.9,403.3 603.3,402.8 607.7,402.2 612.0,401.3 616.2,400.2 620.4,398.8 624.5,397.3 628.4,395.6 632.3,393.7 636.1,391.6 639.7,389.3 643.1,386.9 646.5,384.3 649.7,381.6 652.7,378.7 655.5,375.7 658.2,372.5 660.8,369.2 663.1,365.9 665.2,362.4 667.2,358.8 669.0,355.2 670.5,351.5 671.9,347.7 673.1,343.9 674.1,340.1 674.9,336.2 675.4,332.4 675.8,328.5 676.0,324.6 676.0,320.7 675.8,316.9 675.4,313.1 674.8,309.4 674.0,305.7 673.0,302.0 671.9,298.5 670.6,295.0 669.1,291.6 667.5,288.3 665.7,285.1 663.7,282.0 661.7,279.1 659.4,276.2 657.1,273.5 654.6,271.0 652.0,268.5 649.3,266.3 646.6,264.2 643.7,262.2 640.7,260.4 637.7,258.7 634.6,257.3 631.5,255.9 628.3,254.8 625.1,253.8 621.9,253.0 618.6,252.4 615.4,251.9 612.1,251.6 608.8,251.5 605.6,251.5 602.4,251.7 599.2,252.1 596.1,252.6 593.0,253.3 590.0,254.1 587.0,255.1 584.1,256.2 581.3,257.5 578.6,258.9 576.0,260.4 573.4,262.0 571.0,263.8 568.7,265.6 566.5,267.6 564.4,269.7 562.4,271.8 560.6,274.0 558.9,276.4 557.3,278.7 555.8,281.2 554.5,283.7 553.3,286.2 552.3,288.8 551.4,291.4 550.7,294.0 550.0,296.7 549.6,299.3 549.2,302.0 549.0,304.6 549.0,307.2 549.1,309.9 549.3,312.4 549.6,315.0 550.1,317.5 550.7,320.0 551.4,322.4 552.2,324.7 553.1,327.0 554.2,329.3 555.3,331.4 556.6,333.5 557.9,335.4 559.4,337.3 560.9,339.1 562.5,340.8 564.1,342.5 565.9,344.0 567.7,345.4 569.5,346.7 571.4,347.8 573.3,348.9 575.3,349.9 577.3,350.7 579.3,351.5 581.4,352.1 583.4,352.6 585.5,353.0 587.5,353.3" fill="none" stroke="#c0392b" stroke-width="2" stroke-linecap="round"/>
<rect x="0" y="0" width="1200" height="8" fill="#c0392b"/>
<rect x="0" y="558" width="1200" height="72" fill="#0d0d0d"/>
<rect width="1200" height="18" fill="#0d0d0d"/><polygon points="0.0,0 50.0,0 25.0,18" fill="#c0392b"/><polygon points="50.0,0 100.0,0 75.0,18" fill="#c0392b"/><polygon points="100.0,0 150.0,0 125.0,18" fill="#c0392b"/><polygon points="150.0,0 200.0,0 175.0,18" fill="#c0392b"/><polygon points="200.0,0 250.0,0 225.0,18" fill="#c0392b"/><polygon points="250.0,0 300.0,0 275.0,18" fill="#c0392b"/><polygon points="300.0,0 350.0,0 325.0,18" fill="#c0392b"/><polygon points="350.0,0 400.0,0 375.0,18" fill="#c0392b"/><polygon points="400.0,0 450.0,0 425.0,18" fill="#c0392b"/><polygon points="450.0,0 500.0,0 475.0,18" fill="#c0392b"/><polygon points="500.0,0 550.0,0 525.0,18" fill="#c0392b"/><polygon points="550.0,0 600.0,0 575.0,18" fill="#c0392b"/><polygon points="600.0,0 650.0,0 625.0,18" fill="#c0392b"/><polygon points="650.0,0 700.0,0 675.0,18" fill="#c0392b"/><polygon points="700.0,0 750.0,0 725.0,18" fill="#c0392b"/><polygon points="750.0,0 800.0,0 775.0,18" fill="#c0392b"/><polygon points="800.0,0 850.0,0 825.0,18" fill="#c0392b"/><polygon points="850.0,0 900.0,0 875.0,18" fill="#c0392b"/><polygon points="900.0,0 950.0,0 925.0,18" fill="#c0392b"/><polygon points="950.0,0 1000.0,0 975.0,18" fill="#c0392b"/><polygon points="1000.0,0 1050.0,0 1025.0,18" fill="#c0392b"/><polygon points="1050.0,0 1100.0,0 1075.0,18" fill="#c0392b"/><polygon points="1100.0,0 1150.0,0 1125.0,18" fill="#c0392b"/><polygon points="1150.0,0 1200.0,0 1175.0,18" fill="#c0392b"/>
<text x="600" y="265" font-family="Georgia,serif" font-size="86" font-weight="bold"
  fill="#f4f0e8" text-anchor="middle">E RUA NGĀ AO</text>
<text x="600" y="335" font-family="Arial,sans-serif" font-size="43"
  font-weight="bold" fill="#c0392b" text-anchor="middle">TWO WORLDS</text>
<text x="600" y="377" font-family="Arial,sans-serif" font-size="21"
  fill="#f4f0e8" text-anchor="middle" opacity="0.7">Digital and physical. Both must be sovereign.</text>
<text x="600" y="608" font-family="Arial,sans-serif" font-size="20" font-weight="bold"
  fill="#f4f0e8" text-anchor="middle">THE KIWI DIALECTIC · kiwidialectic.com · Te Pā Tūwatawata</text>
</svg>