<svg xmlns="http://www.w3.org/2000/svg" width="1080" height="1920" viewBox="0 0 1080 1920">
<rect width="1080" height="1920" fill="#0d0d0d"/>
<polyline points="885.6,960.0 884.5,977.3 882.5,994.5 879.6,1011.6 875.9,1028.5 871.4,1045.1 866.0,1061.4 859.9,1077.4 852.9,1093.1 845.2,1108.3 836.8,1123.2 827.6,1137.5 817.8,1151.3 807.3,1164.6 796.1,1177.4 784.4,1189.5 772.1,1201.0 759.2,1211.8 745.8,1222.0 732.0,1231.4 717.8,1240.1 703.1,1248.1 688.1,1255.3 672.8,1261.8 657.3,1267.4 641.5,1272.3 625.5,1276.3 609.3,1279.5 593.1,1281.9 576.7,1283.5 560.4,1284.2 544.1,1284.1 527.8,1283.3 511.6,1281.5 495.6,1279.0 479.8,1275.7 464.2,1271.6 448.8,1266.8 433.7,1261.1 419.0,1254.8 404.6,1247.7 390.7,1239.9 377.1,1231.5 364.1,1222.4 351.5,1212.6 339.5,1202.3 328.1,1191.4 317.2,1180.0 307.0,1168.1 297.3,1155.7 288.4,1142.8 280.1,1129.6 272.5,1116.0 265.6,1102.0 259.4,1087.7 254.0,1073.2 249.3,1058.5 245.4,1043.6 242.3,1028.5 239.9,1013.4 238.3,998.1 237.4,982.9 237.4,967.6 238.0,952.4 239.5,937.3 241.7,922.3 244.6,907.5 248.3,892.9 252.7,878.5 257.9,864.4 263.7,850.6 270.1,837.1 277.3,824.0 285.0,811.4 293.4,799.1 302.3,787.3 311.9,776.0 321.9,765.3 332.5,755.0 343.5,745.4 355.0,736.3 366.8,727.9 379.1,720.0 391.7,712.8 404.7,706.3 417.9,700.5 431.3,695.3 445.0,690.8 458.8,687.0 472.8,684.0 486.9,681.6 501.0,680.0 515.2,679.1 529.4,678.9 543.5,679.4 557.6,680.6 571.5,682.5 585.3,685.2 598.9,688.5 612.3,692.4 625.4,697.1 638.3,702.3 650.8,708.2 663.0,714.7 674.9,721.8 686.3,729.5 697.3,737.7 707.8,746.4 717.9,755.6 727.5,765.3 736.5,775.5 745.0,786.0 752.9,797.0 760.3,808.3 767.0,819.9 773.2,831.8 778.7,844.0 783.6,856.4 787.9,869.0 791.5,881.8 794.4,894.7 796.7,907.7 798.3,920.8 799.3,933.8 799.6,946.9 799.2,960.0 798.2,973.0 796.5,985.9 794.2,998.6 791.3,1011.2 787.7,1023.6 783.5,1035.8 778.8,1047.7 773.4,1059.3 767.5,1070.6 761.1,1081.5 754.1,1092.1 746.6,1102.3 738.7,1112.1 730.2,1121.5 721.4,1130.3 712.1,1138.7 702.5,1146.6 692.5,1154.0 682.1,1160.9 671.5,1167.2 660.6,1172.9 649.4,1178.1 638.0,1182.7 626.5,1186.7 614.8,1190.1 602.9,1192.9 591.0,1195.1 579.0,1196.7 567.0,1197.6 555.0,1198.0 543.0,1197.8 531.1,1196.9 519.2,1195.5 507.5,1193.5 496.0,1190.8 484.6,1187.7 473.4,1183.9 462.5,1179.7 451.8,1174.8 441.4,1169.5 431.3,1163.7 421.6,1157.4 412.2,1150.6 403.2,1143.4 394.6,1135.8 386.4,1127.7 378.7,1119.3 371.4,1110.5 364.6,1101.4 358.3,1092.0 352.4,1082.4 347.1,1072.4 342.3,1062.3 338.1,1051.9 334.3,1041.4 331.2,1030.8 328.5,1020.0 326.5,1009.1 325.0,998.2 324.0,987.3 323.6,976.3 323.7,965.4 324.4,954.6 325.6,943.8 327.4,933.1 329.7,922.6 332.5,912.3 335.9,902.1 339.7,892.1 344.0,882.4 348.8,872.9 354.0,863.7 359.7,854.9 365.8,846.3 372.2,838.1 379.1,830.3 386.4,822.8 393.9,815.8 401.8,809.1 410.0,802.9 418.5,797.1 427.2,791.8 436.2,786.9 445.3,782.5 454.7,778.6 464.1,775.2 473.7,772.3 483.5,769.9 493.2,767.9 503.1,766.5 513.0,765.6 522.8,765.1 532.7,765.2 542.4,765.8 552.2,766.8 561.8,768.4 571.3,770.4 580.6,772.9 589.8,775.8 598.7,779.2 607.5,783.0 616.0,787.3 624.3,792.0 632.3,797.0 640.0,802.4 647.4,808.2 654.5,814.3 661.2,820.8 667.5,827.6 673.5,834.6 679.1,841.9 684.3,849.5 689.1,857.3 693.5,865.3 697.5,873.4 701.0,881.7 704.1,890.2 706.8,898.8 709.0,907.4 710.7,916.2 712.0,924.9 712.9,933.7 713.3,942.5 713.3,951.3 712.8,960.0 711.9,968.6 710.6,977.2 708.8,985.6 706.6,994.0 704.0,1002.1 701.0,1010.1 697.7,1017.9 693.9,1025.5 689.8,1032.8 685.4,1039.9 680.6,1046.8 675.5,1053.3 670.1,1059.6 664.4,1065.5 658.4,1071.2 652.2,1076.5 645.7,1081.5 639.1,1086.1 632.2,1090.3 625.2,1094.2 618.0,1097.7 610.7,1100.9 603.2,1103.6 595.7,1106.0 588.1,1107.9 580.4,1109.5 572.7,1110.6 565.0,1111.4 557.2,1111.8 549.5,1111.8 541.9,1111.4 534.3,1110.6 526.8,1109.4 519.4,1107.9 512.2,1106.0 505.0,1103.7 498.0,1101.1 491.2,1098.2 484.6,1094.9 478.2,1091.3 472.0,1087.5 466.0,1083.3 460.3,1078.8 454.9,1074.1 449.7,1069.2 444.8,1064.0 440.2,1058.6 435.8,1053.0 431.8,1047.2 428.2,1041.3 424.8,1035.2 421.8,1028.9 419.1,1022.6 416.7,1016.1 414.7,1009.6 413.0,1003.0 411.7,996.4 410.7,989.8 410.0,983.1 409.7,976.5 409.7,969.8 410.1,963.3 410.8,956.8 411.8,950.3 413.1,944.0 414.8,937.7 416.7,931.6 419.0,925.7 421.5,919.8 424.3,914.2 427.4,908.7 430.7,903.5 434.3,898.4 438.1,893.5 442.1,888.9 446.4,884.5 450.8,880.4 455.4,876.5 460.2,872.8 465.1,869.5 470.2,866.4 475.3,863.5 480.6,861.0 486.0,858.8 491.4,856.8 496.9,855.1 502.5,853.8 508.1,852.7 513.7,851.9 519.3,851.4 524.9,851.1 530.4,851.2 535.9,851.6 541.4,852.2 546.7,853.1 552.0,854.2 557.2,855.7 562.3,857.3 567.2,859.2 572.0,861.4 576.7,863.8 581.2,866.4 585.6,869.2 589.7,872.2 593.7,875.4 597.5,878.7 601.1,882.3 604.4,886.0 607.6,889.8 610.5,893.8 613.3,897.8 615.7,902.0 618.0,906.3 620.0,910.6 621.8,915.0 623.3,919.5 624.6,924.0 625.6,928.6 626.5,933.1 627.0,937.7 627.4,942.2 627.5,946.7 627.3,951.2 627.0,955.6 626.4,960.0 625.6,964.3 624.6,968.5 623.4,972.7 622.0,976.7 620.3,980.6 618.5,984.4 616.6,988.1 614.4,991.7 612.1,995.0 609.7,998.3 607.1,1001.4 604.3,1004.3 601.5,1007.1 598.5,1009.6 595.4,1012.0 592.3,1014.3 589.0,1016.3 585.7,1018.2 582.3,1019.8 578.9,1021.3 575.4,1022.6 571.9,1023.6 568.4,1024.5 564.9,1025.2 561.4,1025.7" fill="none" stroke="#f4f0e8" stroke-width="2" stroke-linecap="round"/><polyline points="194.4,960.0 195.5,977.3 197.5,994.5 200.4,1011.6 204.1,1028.5 208.6,1045.1 214.0,1061.4 220.1,1077.4 227.1,1093.1 234.8,1108.3 243.2,1123.2 252.4,1137.5 262.2,1151.3 272.7,1164.6 283.9,1177.4 295.6,1189.5 307.9,1201.0 320.8,1211.8 334.2,1222.0 348.0,1231.4 362.2,1240.1 376.9,1248.1 391.9,1255.3 407.2,1261.8 422.7,1267.4 438.5,1272.3 454.5,1276.3 470.7,1279.5 486.9,1281.9 503.3,1283.5 519.6,1284.2 535.9,1284.1 552.2,1283.3 568.4,1281.5 584.4,1279.0 600.2,1275.7 615.8,1271.6 631.2,1266.8 646.3,1261.1 661.0,1254.8 675.4,1247.7 689.3,1239.9 702.9,1231.5 715.9,1222.4 728.5,1212.6 740.5,1202.3 751.9,1191.4 762.8,1180.0 773.0,1168.1 782.7,1155.7 791.6,1142.8 799.9,1129.6 807.5,1116.0 814.4,1102.0 820.6,1087.7 826.0,1073.2 830.7,1058.5 834.6,1043.6 837.7,1028.5 840.1,1013.4 841.7,998.1 842.6,982.9 842.6,967.6 842.0,952.4 840.5,937.3 838.3,922.3 835.4,907.5 831.7,892.9 827.3,878.5 822.1,864.4 816.3,850.6 809.9,837.1 802.7,824.0 795.0,811.4 786.6,799.1 777.7,787.3 768.1,776.0 758.1,765.3 747.5,755.0 736.5,745.4 725.0,736.3 713.2,727.9 700.9,720.0 688.3,712.8 675.3,706.3 662.1,700.5 648.7,695.3 635.0,690.8 621.2,687.0 607.2,684.0 593.1,681.6 579.0,680.0 564.8,679.1 550.6,678.9 536.5,679.4 522.4,680.6 508.5,682.5 494.7,685.2 481.1,688.5 467.7,692.4 454.6,697.1 441.7,702.3 429.2,708.2 417.0,714.7 405.1,721.8 393.7,729.5 382.7,737.7 372.2,746.4 362.1,755.6 352.5,765.3 343.5,775.5 335.0,786.0 327.1,797.0 319.7,808.3 313.0,819.9 306.8,831.8 301.3,844.0 296.4,856.4 292.1,869.0 288.5,881.8 285.6,894.7 283.3,907.7 281.7,920.8 280.7,933.8 280.4,946.9 280.8,960.0 281.8,973.0 283.5,985.9 285.8,998.6 288.7,1011.2 292.3,1023.6 296.5,1035.8 301.2,1047.7 306.6,1059.3 312.5,1070.6 318.9,1081.5 325.9,1092.1 333.4,1102.3 341.3,1112.1 349.8,1121.5 358.6,1130.3 367.9,1138.7 377.5,1146.6 387.5,1154.0 397.9,1160.9 408.5,1167.2 419.4,1172.9 430.6,1178.1 442.0,1182.7 453.5,1186.7 465.2,1190.1 477.1,1192.9 489.0,1195.1 501.0,1196.7 513.0,1197.6 525.0,1198.0 537.0,1197.8 548.9,1196.9 560.8,1195.5 572.5,1193.5 584.0,1190.8 595.4,1187.7 606.6,1183.9 617.5,1179.7 628.2,1174.8 638.6,1169.5 648.7,1163.7 658.4,1157.4 667.8,1150.6 676.8,1143.4 685.4,1135.8 693.6,1127.7 701.3,1119.3 708.6,1110.5 715.4,1101.4 721.7,1092.0 727.6,1082.4 732.9,1072.4 737.7,1062.3 741.9,1051.9 745.7,1041.4 748.8,1030.8 751.5,1020.0 753.5,1009.1 755.0,998.2 756.0,987.3 756.4,976.3 756.3,965.4 755.6,954.6 754.4,943.8 752.6,933.1 750.3,922.6 747.5,912.3 744.1,902.1 740.3,892.1 736.0,882.4 731.2,872.9 726.0,863.7 720.3,854.9 714.2,846.3 707.8,838.1 700.9,830.3 693.6,822.8 686.1,815.8 678.2,809.1 670.0,802.9 661.5,797.1 652.8,791.8 643.8,786.9 634.7,782.5 625.3,778.6 615.9,775.2 606.3,772.3 596.5,769.9 586.8,767.9 576.9,766.5 567.0,765.6 557.2,765.1 547.3,765.2 537.6,765.8 527.8,766.8 518.2,768.4 508.7,770.4 499.4,772.9 490.2,775.8 481.3,779.2 472.5,783.0 464.0,787.3 455.7,792.0 447.7,797.0 440.0,802.4 432.6,808.2 425.5,814.3 418.8,820.8 412.5,827.6 406.5,834.6 400.9,841.9 395.7,849.5 390.9,857.3 386.5,865.3 382.5,873.4 379.0,881.7 375.9,890.2 373.2,898.8 371.0,907.4 369.3,916.2 368.0,924.9 367.1,933.7 366.7,942.5 366.7,951.3 367.2,960.0 368.1,968.6 369.4,977.2 371.2,985.6 373.4,994.0 376.0,1002.1 379.0,1010.1 382.3,1017.9 386.1,1025.5 390.2,1032.8 394.6,1039.9 399.4,1046.8 404.5,1053.3 409.9,1059.6 415.6,1065.5 421.6,1071.2 427.8,1076.5 434.3,1081.5 440.9,1086.1 447.8,1090.3 454.8,1094.2 462.0,1097.7 469.3,1100.9 476.8,1103.6 484.3,1106.0 491.9,1107.9 499.6,1109.5 507.3,1110.6 515.0,1111.4 522.8,1111.8 530.5,1111.8 538.1,1111.4 545.7,1110.6 553.2,1109.4 560.6,1107.9 567.8,1106.0 575.0,1103.7 582.0,1101.1 588.8,1098.2 595.4,1094.9 601.8,1091.3 608.0,1087.5 614.0,1083.3 619.7,1078.8 625.1,1074.1 630.3,1069.2 635.2,1064.0 639.8,1058.6 644.2,1053.0 648.2,1047.2 651.8,1041.3 655.2,1035.2 658.2,1028.9 660.9,1022.6 663.3,1016.1 665.3,1009.6 667.0,1003.0 668.3,996.4 669.3,989.8 670.0,983.1 670.3,976.5 670.3,969.8 669.9,963.3 669.2,956.8 668.2,950.3 666.9,944.0 665.2,937.7 663.3,931.6 661.0,925.7 658.5,919.8 655.7,914.2 652.6,908.7 649.3,903.5 645.7,898.4 641.9,893.5 637.9,888.9 633.6,884.5 629.2,880.4 624.6,876.5 619.8,872.8 614.9,869.5 609.8,866.4 604.7,863.5 599.4,861.0 594.0,858.8 588.6,856.8 583.1,855.1 577.5,853.8 571.9,852.7 566.3,851.9 560.7,851.4 555.1,851.1 549.6,851.2 544.1,851.6 538.6,852.2 533.3,853.1 528.0,854.2 522.8,855.7 517.7,857.3 512.8,859.2 508.0,861.4 503.3,863.8 498.8,866.4 494.4,869.2 490.3,872.2 486.3,875.4 482.5,878.7 478.9,882.3 475.6,886.0 472.4,889.8 469.5,893.8 466.7,897.8 464.3,902.0 462.0,906.3 460.0,910.6 458.2,915.0 456.7,919.5 455.4,924.0 454.4,928.6 453.5,933.1 453.0,937.7 452.6,942.2 452.5,946.7 452.7,951.2 453.0,955.6 453.6,960.0 454.4,964.3 455.4,968.5 456.6,972.7 458.0,976.7 459.7,980.6 461.5,984.4 463.4,988.1 465.6,991.7 467.9,995.0 470.3,998.3 472.9,1001.4 475.7,1004.3 478.5,1007.1 481.5,1009.6 484.6,1012.0 487.7,1014.3 491.0,1016.3 494.3,1018.2 497.7,1019.8 501.1,1021.3 504.6,1022.6 508.1,1023.6 511.6,1024.5 515.1,1025.2 518.6,1025.7" fill="none" stroke="#c0392b" stroke-width="2" stroke-linecap="round"/>
<rect x="0" y="0" width="1080" height="8" fill="#c0392b"/>
<rect x="0" y="1848" width="1080" height="72" fill="#0d0d0d"/>
<rect width="1080" height="18" fill="#0d0d0d"/><polygon points="0.0,0 45.0,0 22.5,18" fill="#c0392b"/><polygon points="45.0,0 90.0,0 67.5,18" fill="#c0392b"/><polygon points="90.0,0 135.0,0 112.5,18" fill="#c0392b"/><polygon points="135.0,0 180.0,0 157.5,18" fill="#c0392b"/><polygon points="180.0,0 225.0,0 202.5,18" fill="#c0392b"/><polygon points="225.0,0 270.0,0 247.5,18" fill="#c0392b"/><polygon points="270.0,0 315.0,0 292.5,18" fill="#c0392b"/><polygon points="315.0,0 360.0,0 337.5,18" fill="#c0392b"/><polygon points="360.0,0 405.0,0 382.5,18" fill="#c0392b"/><polygon points="405.0,0 450.0,0 427.5,18" fill="#c0392b"/><polygon points="450.0,0 495.0,0 472.5,18" fill="#c0392b"/><polygon points="495.0,0 540.0,0 517.5,18" fill="#c0392b"/><polygon points="540.0,0 585.0,0 562.5,18" fill="#c0392b"/><polygon points="585.0,0 630.0,0 607.5,18" fill="#c0392b"/><polygon points="630.0,0 675.0,0 652.5,18" fill="#c0392b"/><polygon points="675.0,0 720.0,0 697.5,18" fill="#c0392b"/><polygon points="720.0,0 765.0,0 742.5,18" fill="#c0392b"/><polygon points="765.0,0 810.0,0 787.5,18" fill="#c0392b"/><polygon points="810.0,0 855.0,0 832.5,18" fill="#c0392b"/><polygon points="855.0,0 900.0,0 877.5,18" fill="#c0392b"/><polygon points="900.0,0 945.0,0 922.5,18" fill="#c0392b"/><polygon points="945.0,0 990.0,0 967.5,18" fill="#c0392b"/><polygon points="990.0,0 1035.0,0 1012.5,18" fill="#c0392b"/><polygon points="1035.0,0 1080.0,0 1057.5,18" fill="#c0392b"/>
<text x="540" y="910" font-family="Georgia,serif" font-size="73" font-weight="bold"
  fill="#f4f0e8" text-anchor="middle">KO TĀTOU TE ANAMATA</text>
<text x="540" y="980" font-family="Arial,sans-serif" font-size="36"
  font-weight="bold" fill="#c0392b" text-anchor="middle">WE ARE THE FUTURE</text>
<text x="540" y="1022" font-family="Arial,sans-serif" font-size="20"
  fill="#f4f0e8" text-anchor="middle" opacity="0.7">Two spirals. Past and future. Wound together.</text>
<text x="540" y="1898" font-family="Arial,sans-serif" font-size="20" font-weight="bold"
  fill="#f4f0e8" text-anchor="middle">THE KIWI DIALECTIC · kiwidialectic.com · Te Pā Tūwatawata</text>
</svg>