<svg xmlns="http://www.w3.org/2000/svg" width="1080" height="1080" viewBox="0 0 1080 1080">
<rect width="1080" height="1080" fill="#0d0d0d"/>
<polyline points="885.6,540.0 884.5,557.3 882.5,574.5 879.6,591.6 875.9,608.5 871.4,625.1 866.0,641.4 859.9,657.4 852.9,673.1 845.2,688.3 836.8,703.2 827.6,717.5 817.8,731.3 807.3,744.6 796.1,757.4 784.4,769.5 772.1,781.0 759.2,791.8 745.8,802.0 732.0,811.4 717.8,820.1 703.1,828.1 688.1,835.3 672.8,841.8 657.3,847.4 641.5,852.3 625.5,856.3 609.3,859.5 593.1,861.9 576.7,863.5 560.4,864.2 544.1,864.1 527.8,863.3 511.6,861.5 495.6,859.0 479.8,855.7 464.2,851.6 448.8,846.8 433.7,841.1 419.0,834.8 404.6,827.7 390.7,819.9 377.1,811.5 364.1,802.4 351.5,792.6 339.5,782.3 328.1,771.4 317.2,760.0 307.0,748.1 297.3,735.7 288.4,722.8 280.1,709.6 272.5,696.0 265.6,682.0 259.4,667.7 254.0,653.2 249.3,638.5 245.4,623.6 242.3,608.5 239.9,593.4 238.3,578.1 237.4,562.9 237.4,547.6 238.0,532.4 239.5,517.3 241.7,502.3 244.6,487.5 248.3,472.9 252.7,458.5 257.9,444.4 263.7,430.6 270.1,417.1 277.3,404.0 285.0,391.4 293.4,379.1 302.3,367.3 311.9,356.0 321.9,345.3 332.5,335.0 343.5,325.4 355.0,316.3 366.8,307.9 379.1,300.0 391.7,292.8 404.7,286.3 417.9,280.5 431.3,275.3 445.0,270.8 458.8,267.0 472.8,264.0 486.9,261.6 501.0,260.0 515.2,259.1 529.4,258.9 543.5,259.4 557.6,260.6 571.5,262.5 585.3,265.2 598.9,268.5 612.3,272.4 625.4,277.1 638.3,282.3 650.8,288.2 663.0,294.7 674.9,301.8 686.3,309.5 697.3,317.7 707.8,326.4 717.9,335.6 727.5,345.3 736.5,355.5 745.0,366.0 752.9,377.0 760.3,388.3 767.0,399.9 773.2,411.8 778.7,424.0 783.6,436.4 787.9,449.0 791.5,461.8 794.4,474.7 796.7,487.7 798.3,500.8 799.3,513.8 799.6,526.9 799.2,540.0 798.2,553.0 796.5,565.9 794.2,578.6 791.3,591.2 787.7,603.6 783.5,615.8 778.8,627.7 773.4,639.3 767.5,650.6 761.1,661.5 754.1,672.1 746.6,682.3 738.7,692.1 730.2,701.5 721.4,710.3 712.1,718.7 702.5,726.6 692.5,734.0 682.1,740.9 671.5,747.2 660.6,752.9 649.4,758.1 638.0,762.7 626.5,766.7 614.8,770.1 602.9,772.9 591.0,775.1 579.0,776.7 567.0,777.6 555.0,778.0 543.0,777.8 531.1,776.9 519.2,775.5 507.5,773.5 496.0,770.8 484.6,767.7 473.4,763.9 462.5,759.7 451.8,754.8 441.4,749.5 431.3,743.7 421.6,737.4 412.2,730.6 403.2,723.4 394.6,715.8 386.4,707.7 378.7,699.3 371.4,690.5 364.6,681.4 358.3,672.0 352.4,662.4 347.1,652.4 342.3,642.3 338.1,631.9 334.3,621.4 331.2,610.8 328.5,600.0 326.5,589.1 325.0,578.2 324.0,567.3 323.6,556.3 323.7,545.4 324.4,534.6 325.6,523.8 327.4,513.1 329.7,502.6 332.5,492.3 335.9,482.1 339.7,472.1 344.0,462.4 348.8,452.9 354.0,443.7 359.7,434.9 365.8,426.3 372.2,418.1 379.1,410.3 386.4,402.8 393.9,395.8 401.8,389.1 410.0,382.9 418.5,377.1 427.2,371.8 436.2,366.9 445.3,362.5 454.7,358.6 464.1,355.2 473.7,352.3 483.5,349.9 493.2,347.9 503.1,346.5 513.0,345.6 522.8,345.1 532.7,345.2 542.4,345.8 552.2,346.8 561.8,348.4 571.3,350.4 580.6,352.9 589.8,355.8 598.7,359.2 607.5,363.0 616.0,367.3 624.3,372.0 632.3,377.0 640.0,382.4 647.4,388.2 654.5,394.3 661.2,400.8 667.5,407.6 673.5,414.6 679.1,421.9 684.3,429.5 689.1,437.3 693.5,445.3 697.5,453.4 701.0,461.7 704.1,470.2 706.8,478.8 709.0,487.4 710.7,496.2 712.0,504.9 712.9,513.7 713.3,522.5 713.3,531.3 712.8,540.0 711.9,548.6 710.6,557.2 708.8,565.6 706.6,574.0 704.0,582.1 701.0,590.1 697.7,597.9 693.9,605.5 689.8,612.8 685.4,619.9 680.6,626.8 675.5,633.3 670.1,639.6 664.4,645.5 658.4,651.2 652.2,656.5 645.7,661.5 639.1,666.1 632.2,670.3 625.2,674.2 618.0,677.7 610.7,680.9 603.2,683.6 595.7,686.0 588.1,687.9 580.4,689.5 572.7,690.6 565.0,691.4 557.2,691.8 549.5,691.8 541.9,691.4 534.3,690.6 526.8,689.4 519.4,687.9 512.2,686.0 505.0,683.7 498.0,681.1 491.2,678.2 484.6,674.9 478.2,671.3 472.0,667.5 466.0,663.3 460.3,658.8 454.9,654.1 449.7,649.2 444.8,644.0 440.2,638.6 435.8,633.0 431.8,627.2 428.2,621.3 424.8,615.2 421.8,608.9 419.1,602.6 416.7,596.1 414.7,589.6 413.0,583.0 411.7,576.4 410.7,569.8 410.0,563.1 409.7,556.5 409.7,549.8 410.1,543.3 410.8,536.8 411.8,530.3 413.1,524.0 414.8,517.7 416.7,511.6 419.0,505.7 421.5,499.8 424.3,494.2 427.4,488.7 430.7,483.5 434.3,478.4 438.1,473.5 442.1,468.9 446.4,464.5 450.8,460.4 455.4,456.5 460.2,452.8 465.1,449.5 470.2,446.4 475.3,443.5 480.6,441.0 486.0,438.8 491.4,436.8 496.9,435.1 502.5,433.8 508.1,432.7 513.7,431.9 519.3,431.4 524.9,431.1 530.4,431.2 535.9,431.6 541.4,432.2 546.7,433.1 552.0,434.2 557.2,435.7 562.3,437.3 567.2,439.2 572.0,441.4 576.7,443.8 581.2,446.4 585.6,449.2 589.7,452.2 593.7,455.4 597.5,458.7 601.1,462.3 604.4,466.0 607.6,469.8 610.5,473.8 613.3,477.8 615.7,482.0 618.0,486.3 620.0,490.6 621.8,495.0 623.3,499.5 624.6,504.0 625.6,508.6 626.5,513.1 627.0,517.7 627.4,522.2 627.5,526.7 627.3,531.2 627.0,535.6 626.4,540.0 625.6,544.3 624.6,548.5 623.4,552.7 622.0,556.7 620.3,560.6 618.5,564.4 616.6,568.1 614.4,571.7 612.1,575.0 609.7,578.3 607.1,581.4 604.3,584.3 601.5,587.1 598.5,589.6 595.4,592.0 592.3,594.3 589.0,596.3 585.7,598.2 582.3,599.8 578.9,601.3 575.4,602.6 571.9,603.6 568.4,604.5 564.9,605.2 561.4,605.7" fill="none" stroke="#f4f0e8" stroke-width="2" stroke-linecap="round"/><polyline points="194.4,540.0 195.5,557.3 197.5,574.5 200.4,591.6 204.1,608.5 208.6,625.1 214.0,641.4 220.1,657.4 227.1,673.1 234.8,688.3 243.2,703.2 252.4,717.5 262.2,731.3 272.7,744.6 283.9,757.4 295.6,769.5 307.9,781.0 320.8,791.8 334.2,802.0 348.0,811.4 362.2,820.1 376.9,828.1 391.9,835.3 407.2,841.8 422.7,847.4 438.5,852.3 454.5,856.3 470.7,859.5 486.9,861.9 503.3,863.5 519.6,864.2 535.9,864.1 552.2,863.3 568.4,861.5 584.4,859.0 600.2,855.7 615.8,851.6 631.2,846.8 646.3,841.1 661.0,834.8 675.4,827.7 689.3,819.9 702.9,811.5 715.9,802.4 728.5,792.6 740.5,782.3 751.9,771.4 762.8,760.0 773.0,748.1 782.7,735.7 791.6,722.8 799.9,709.6 807.5,696.0 814.4,682.0 820.6,667.7 826.0,653.2 830.7,638.5 834.6,623.6 837.7,608.5 840.1,593.4 841.7,578.1 842.6,562.9 842.6,547.6 842.0,532.4 840.5,517.3 838.3,502.3 835.4,487.5 831.7,472.9 827.3,458.5 822.1,444.4 816.3,430.6 809.9,417.1 802.7,404.0 795.0,391.4 786.6,379.1 777.7,367.3 768.1,356.0 758.1,345.3 747.5,335.0 736.5,325.4 725.0,316.3 713.2,307.9 700.9,300.0 688.3,292.8 675.3,286.3 662.1,280.5 648.7,275.3 635.0,270.8 621.2,267.0 607.2,264.0 593.1,261.6 579.0,260.0 564.8,259.1 550.6,258.9 536.5,259.4 522.4,260.6 508.5,262.5 494.7,265.2 481.1,268.5 467.7,272.4 454.6,277.1 441.7,282.3 429.2,288.2 417.0,294.7 405.1,301.8 393.7,309.5 382.7,317.7 372.2,326.4 362.1,335.6 352.5,345.3 343.5,355.5 335.0,366.0 327.1,377.0 319.7,388.3 313.0,399.9 306.8,411.8 301.3,424.0 296.4,436.4 292.1,449.0 288.5,461.8 285.6,474.7 283.3,487.7 281.7,500.8 280.7,513.8 280.4,526.9 280.8,540.0 281.8,553.0 283.5,565.9 285.8,578.6 288.7,591.2 292.3,603.6 296.5,615.8 301.2,627.7 306.6,639.3 312.5,650.6 318.9,661.5 325.9,672.1 333.4,682.3 341.3,692.1 349.8,701.5 358.6,710.3 367.9,718.7 377.5,726.6 387.5,734.0 397.9,740.9 408.5,747.2 419.4,752.9 430.6,758.1 442.0,762.7 453.5,766.7 465.2,770.1 477.1,772.9 489.0,775.1 501.0,776.7 513.0,777.6 525.0,778.0 537.0,777.8 548.9,776.9 560.8,775.5 572.5,773.5 584.0,770.8 595.4,767.7 606.6,763.9 617.5,759.7 628.2,754.8 638.6,749.5 648.7,743.7 658.4,737.4 667.8,730.6 676.8,723.4 685.4,715.8 693.6,707.7 701.3,699.3 708.6,690.5 715.4,681.4 721.7,672.0 727.6,662.4 732.9,652.4 737.7,642.3 741.9,631.9 745.7,621.4 748.8,610.8 751.5,600.0 753.5,589.1 755.0,578.2 756.0,567.3 756.4,556.3 756.3,545.4 755.6,534.6 754.4,523.8 752.6,513.1 750.3,502.6 747.5,492.3 744.1,482.1 740.3,472.1 736.0,462.4 731.2,452.9 726.0,443.7 720.3,434.9 714.2,426.3 707.8,418.1 700.9,410.3 693.6,402.8 686.1,395.8 678.2,389.1 670.0,382.9 661.5,377.1 652.8,371.8 643.8,366.9 634.7,362.5 625.3,358.6 615.9,355.2 606.3,352.3 596.5,349.9 586.8,347.9 576.9,346.5 567.0,345.6 557.2,345.1 547.3,345.2 537.6,345.8 527.8,346.8 518.2,348.4 508.7,350.4 499.4,352.9 490.2,355.8 481.3,359.2 472.5,363.0 464.0,367.3 455.7,372.0 447.7,377.0 440.0,382.4 432.6,388.2 425.5,394.3 418.8,400.8 412.5,407.6 406.5,414.6 400.9,421.9 395.7,429.5 390.9,437.3 386.5,445.3 382.5,453.4 379.0,461.7 375.9,470.2 373.2,478.8 371.0,487.4 369.3,496.2 368.0,504.9 367.1,513.7 366.7,522.5 366.7,531.3 367.2,540.0 368.1,548.6 369.4,557.2 371.2,565.6 373.4,574.0 376.0,582.1 379.0,590.1 382.3,597.9 386.1,605.5 390.2,612.8 394.6,619.9 399.4,626.8 404.5,633.3 409.9,639.6 415.6,645.5 421.6,651.2 427.8,656.5 434.3,661.5 440.9,666.1 447.8,670.3 454.8,674.2 462.0,677.7 469.3,680.9 476.8,683.6 484.3,686.0 491.9,687.9 499.6,689.5 507.3,690.6 515.0,691.4 522.8,691.8 530.5,691.8 538.1,691.4 545.7,690.6 553.2,689.4 560.6,687.9 567.8,686.0 575.0,683.7 582.0,681.1 588.8,678.2 595.4,674.9 601.8,671.3 608.0,667.5 614.0,663.3 619.7,658.8 625.1,654.1 630.3,649.2 635.2,644.0 639.8,638.6 644.2,633.0 648.2,627.2 651.8,621.3 655.2,615.2 658.2,608.9 660.9,602.6 663.3,596.1 665.3,589.6 667.0,583.0 668.3,576.4 669.3,569.8 670.0,563.1 670.3,556.5 670.3,549.8 669.9,543.3 669.2,536.8 668.2,530.3 666.9,524.0 665.2,517.7 663.3,511.6 661.0,505.7 658.5,499.8 655.7,494.2 652.6,488.7 649.3,483.5 645.7,478.4 641.9,473.5 637.9,468.9 633.6,464.5 629.2,460.4 624.6,456.5 619.8,452.8 614.9,449.5 609.8,446.4 604.7,443.5 599.4,441.0 594.0,438.8 588.6,436.8 583.1,435.1 577.5,433.8 571.9,432.7 566.3,431.9 560.7,431.4 555.1,431.1 549.6,431.2 544.1,431.6 538.6,432.2 533.3,433.1 528.0,434.2 522.8,435.7 517.7,437.3 512.8,439.2 508.0,441.4 503.3,443.8 498.8,446.4 494.4,449.2 490.3,452.2 486.3,455.4 482.5,458.7 478.9,462.3 475.6,466.0 472.4,469.8 469.5,473.8 466.7,477.8 464.3,482.0 462.0,486.3 460.0,490.6 458.2,495.0 456.7,499.5 455.4,504.0 454.4,508.6 453.5,513.1 453.0,517.7 452.6,522.2 452.5,526.7 452.7,531.2 453.0,535.6 453.6,540.0 454.4,544.3 455.4,548.5 456.6,552.7 458.0,556.7 459.7,560.6 461.5,564.4 463.4,568.1 465.6,571.7 467.9,575.0 470.3,578.3 472.9,581.4 475.7,584.3 478.5,587.1 481.5,589.6 484.6,592.0 487.7,594.3 491.0,596.3 494.3,598.2 497.7,599.8 501.1,601.3 504.6,602.6 508.1,603.6 511.6,604.5 515.1,605.2 518.6,605.7" fill="none" stroke="#c0392b" stroke-width="2" stroke-linecap="round"/>
<rect x="0" y="0" width="1080" height="8" fill="#c0392b"/>
<rect x="0" y="1008" width="1080" height="72" fill="#0d0d0d"/>
<rect width="1080" height="18" fill="#0d0d0d"/><polygon points="0.0,0 45.0,0 22.5,18" fill="#c0392b"/><polygon points="45.0,0 90.0,0 67.5,18" fill="#c0392b"/><polygon points="90.0,0 135.0,0 112.5,18" fill="#c0392b"/><polygon points="135.0,0 180.0,0 157.5,18" fill="#c0392b"/><polygon points="180.0,0 225.0,0 202.5,18" fill="#c0392b"/><polygon points="225.0,0 270.0,0 247.5,18" fill="#c0392b"/><polygon points="270.0,0 315.0,0 292.5,18" fill="#c0392b"/><polygon points="315.0,0 360.0,0 337.5,18" fill="#c0392b"/><polygon points="360.0,0 405.0,0 382.5,18" fill="#c0392b"/><polygon points="405.0,0 450.0,0 427.5,18" fill="#c0392b"/><polygon points="450.0,0 495.0,0 472.5,18" fill="#c0392b"/><polygon points="495.0,0 540.0,0 517.5,18" fill="#c0392b"/><polygon points="540.0,0 585.0,0 562.5,18" fill="#c0392b"/><polygon points="585.0,0 630.0,0 607.5,18" fill="#c0392b"/><polygon points="630.0,0 675.0,0 652.5,18" fill="#c0392b"/><polygon points="675.0,0 720.0,0 697.5,18" fill="#c0392b"/><polygon points="720.0,0 765.0,0 742.5,18" fill="#c0392b"/><polygon points="765.0,0 810.0,0 787.5,18" fill="#c0392b"/><polygon points="810.0,0 855.0,0 832.5,18" fill="#c0392b"/><polygon points="855.0,0 900.0,0 877.5,18" fill="#c0392b"/><polygon points="900.0,0 945.0,0 922.5,18" fill="#c0392b"/><polygon points="945.0,0 990.0,0 967.5,18" fill="#c0392b"/><polygon points="990.0,0 1035.0,0 1012.5,18" fill="#c0392b"/><polygon points="1035.0,0 1080.0,0 1057.5,18" fill="#c0392b"/>
<text x="540" y="490" font-family="Georgia,serif" font-size="86" font-weight="bold"
  fill="#f4f0e8" text-anchor="middle">KO TE AO HOU</text>
<text x="540" y="560" font-family="Arial,sans-serif" font-size="43"
  font-weight="bold" fill="#c0392b" text-anchor="middle">THE NEW WORLD</text>
<text x="540" y="602" font-family="Arial,sans-serif" font-size="21"
  fill="#f4f0e8" text-anchor="middle" opacity="0.7">We build the future or it is built for us.</text>
<text x="540" y="1058" font-family="Arial,sans-serif" font-size="20" font-weight="bold"
  fill="#f4f0e8" text-anchor="middle">THE KIWI DIALECTIC · kiwidialectic.com · Te Pā Tūwatawata</text>
</svg>