<svg xmlns="http://www.w3.org/2000/svg" width="1640" height="624" viewBox="0 0 1640 624">
<title>Unaunahi — The Kiwi Dialectic</title>

<rect width="1640" height="624" fill="#0d0d0d"/>
<path d="M 0.0 0.0 A 31.9 40.6 0 0 1 58.0 0.0 A 31.9 40.6 0 0 1 0.0 0.0 Z" fill="#1a1a1a" stroke="#f4f0e8" stroke-width="0.8" opacity="0.3"/>
<path d="M 58.0 0.0 A 31.9 40.6 0 0 1 116.0 0.0 A 31.9 40.6 0 0 1 58.0 0.0 Z" fill="#1a1a1a" stroke="#f4f0e8" stroke-width="0.8" opacity="0.3"/>
<path d="M 116.0 0.0 A 31.9 40.6 0 0 1 174.0 0.0 A 31.9 40.6 0 0 1 116.0 0.0 Z" fill="#1a1a1a" stroke="#f4f0e8" stroke-width="0.8" opacity="0.3"/>
<path d="M 174.0 0.0 A 31.9 40.6 0 0 1 232.0 0.0 A 31.9 40.6 0 0 1 174.0 0.0 Z" fill="#1a1a1a" stroke="#f4f0e8" stroke-width="0.8" opacity="0.3"/>
<path d="M 232.0 0.0 A 31.9 40.6 0 0 1 290.0 0.0 A 31.9 40.6 0 0 1 232.0 0.0 Z" fill="#1a1a1a" stroke="#f4f0e8" stroke-width="0.8" opacity="0.3"/>
<path d="M 290.0 0.0 A 31.9 40.6 0 0 1 348.0 0.0 A 31.9 40.6 0 0 1 290.0 0.0 Z" fill="#1a1a1a" stroke="#f4f0e8" stroke-width="0.8" opacity="0.3"/>
<path d="M 348.0 0.0 A 31.9 40.6 0 0 1 406.0 0.0 A 31.9 40.6 0 0 1 348.0 0.0 Z" fill="#1a1a1a" stroke="#f4f0e8" stroke-width="0.8" opacity="0.3"/>
<path d="M 406.0 0.0 A 31.9 40.6 0 0 1 464.0 0.0 A 31.9 40.6 0 0 1 406.0 0.0 Z" fill="#1a1a1a" stroke="#f4f0e8" stroke-width="0.8" opacity="0.3"/>
<path d="M 464.0 0.0 A 31.9 40.6 0 0 1 522.0 0.0 A 31.9 40.6 0 0 1 464.0 0.0 Z" fill="#1a1a1a" stroke="#f4f0e8" stroke-width="0.8" opacity="0.3"/>
<path d="M 522.0 0.0 A 31.9 40.6 0 0 1 580.0 0.0 A 31.9 40.6 0 0 1 522.0 0.0 Z" fill="#1a1a1a" stroke="#f4f0e8" stroke-width="0.8" opacity="0.3"/>
<path d="M 580.0 0.0 A 31.9 40.6 0 0 1 638.0 0.0 A 31.9 40.6 0 0 1 580.0 0.0 Z" fill="#1a1a1a" stroke="#f4f0e8" stroke-width="0.8" opacity="0.3"/>
<path d="M 638.0 0.0 A 31.9 40.6 0 0 1 696.0 0.0 A 31.9 40.6 0 0 1 638.0 0.0 Z" fill="#1a1a1a" stroke="#f4f0e8" stroke-width="0.8" opacity="0.3"/>
<path d="M 696.0 0.0 A 31.9 40.6 0 0 1 754.0 0.0 A 31.9 40.6 0 0 1 696.0 0.0 Z" fill="#1a1a1a" stroke="#f4f0e8" stroke-width="0.8" opacity="0.3"/>
<path d="M 754.0 0.0 A 31.9 40.6 0 0 1 812.0 0.0 A 31.9 40.6 0 0 1 754.0 0.0 Z" fill="#1a1a1a" stroke="#f4f0e8" stroke-width="0.8" opacity="0.3"/>
<path d="M 29.0 37.7 A 31.9 40.6 0 0 1 87.0 37.7 A 31.9 40.6 0 0 1 29.0 37.7 Z" fill="#1a1a1a" stroke="#f4f0e8" stroke-width="0.8" opacity="0.3"/>
<path d="M 87.0 37.7 A 31.9 40.6 0 0 1 145.0 37.7 A 31.9 40.6 0 0 1 87.0 37.7 Z" fill="#1a1a1a" stroke="#f4f0e8" stroke-width="0.8" opacity="0.3"/>
<path d="M 145.0 37.7 A 31.9 40.6 0 0 1 203.0 37.7 A 31.9 40.6 0 0 1 145.0 37.7 Z" fill="#1a1a1a" stroke="#f4f0e8" stroke-width="0.8" opacity="0.3"/>
<path d="M 203.0 37.7 A 31.9 40.6 0 0 1 261.0 37.7 A 31.9 40.6 0 0 1 203.0 37.7 Z" fill="#1a1a1a" stroke="#f4f0e8" stroke-width="0.8" opacity="0.3"/>
<path d="M 261.0 37.7 A 31.9 40.6 0 0 1 319.0 37.7 A 31.9 40.6 0 0 1 261.0 37.7 Z" fill="#1a1a1a" stroke="#f4f0e8" stroke-width="0.8" opacity="0.3"/>
<path d="M 319.0 37.7 A 31.9 40.6 0 0 1 377.0 37.7 A 31.9 40.6 0 0 1 319.0 37.7 Z" fill="#1a1a1a" stroke="#f4f0e8" stroke-width="0.8" opacity="0.3"/>
<path d="M 377.0 37.7 A 31.9 40.6 0 0 1 435.0 37.7 A 31.9 40.6 0 0 1 377.0 37.7 Z" fill="#1a1a1a" stroke="#f4f0e8" stroke-width="0.8" opacity="0.3"/>
<path d="M 435.0 37.7 A 31.9 40.6 0 0 1 493.0 37.7 A 31.9 40.6 0 0 1 435.0 37.7 Z" fill="#1a1a1a" stroke="#f4f0e8" stroke-width="0.8" opacity="0.3"/>
<path d="M 493.0 37.7 A 31.9 40.6 0 0 1 551.0 37.7 A 31.9 40.6 0 0 1 493.0 37.7 Z" fill="#1a1a1a" stroke="#f4f0e8" stroke-width="0.8" opacity="0.3"/>
<path d="M 551.0 37.7 A 31.9 40.6 0 0 1 609.0 37.7 A 31.9 40.6 0 0 1 551.0 37.7 Z" fill="#1a1a1a" stroke="#f4f0e8" stroke-width="0.8" opacity="0.3"/>
<path d="M 609.0 37.7 A 31.9 40.6 0 0 1 667.0 37.7 A 31.9 40.6 0 0 1 609.0 37.7 Z" fill="#1a1a1a" stroke="#f4f0e8" stroke-width="0.8" opacity="0.3"/>
<path d="M 667.0 37.7 A 31.9 40.6 0 0 1 725.0 37.7 A 31.9 40.6 0 0 1 667.0 37.7 Z" fill="#1a1a1a" stroke="#f4f0e8" stroke-width="0.8" opacity="0.3"/>
<path d="M 725.0 37.7 A 31.9 40.6 0 0 1 783.0 37.7 A 31.9 40.6 0 0 1 725.0 37.7 Z" fill="#1a1a1a" stroke="#f4f0e8" stroke-width="0.8" opacity="0.3"/>
<path d="M 783.0 37.7 A 31.9 40.6 0 0 1 841.0 37.7 A 31.9 40.6 0 0 1 783.0 37.7 Z" fill="#1a1a1a" stroke="#f4f0e8" stroke-width="0.8" opacity="0.3"/>
<path d="M 0.0 75.4 A 31.9 40.6 0 0 1 58.0 75.4 A 31.9 40.6 0 0 1 0.0 75.4 Z" fill="#1a1a1a" stroke="#f4f0e8" stroke-width="0.8" opacity="0.3"/>
<path d="M 58.0 75.4 A 31.9 40.6 0 0 1 116.0 75.4 A 31.9 40.6 0 0 1 58.0 75.4 Z" fill="#1a1a1a" stroke="#f4f0e8" stroke-width="0.8" opacity="0.3"/>
<path d="M 116.0 75.4 A 31.9 40.6 0 0 1 174.0 75.4 A 31.9 40.6 0 0 1 116.0 75.4 Z" fill="#1a1a1a" stroke="#f4f0e8" stroke-width="0.8" opacity="0.3"/>
<path d="M 174.0 75.4 A 31.9 40.6 0 0 1 232.0 75.4 A 31.9 40.6 0 0 1 174.0 75.4 Z" fill="#1a1a1a" stroke="#f4f0e8" stroke-width="0.8" opacity="0.3"/>
<path d="M 232.0 75.4 A 31.9 40.6 0 0 1 290.0 75.4 A 31.9 40.6 0 0 1 232.0 75.4 Z" fill="#1a1a1a" stroke="#f4f0e8" stroke-width="0.8" opacity="0.3"/>
<path d="M 290.0 75.4 A 31.9 40.6 0 0 1 348.0 75.4 A 31.9 40.6 0 0 1 290.0 75.4 Z" fill="#1a1a1a" stroke="#f4f0e8" stroke-width="0.8" opacity="0.3"/>
<path d="M 348.0 75.4 A 31.9 40.6 0 0 1 406.0 75.4 A 31.9 40.6 0 0 1 348.0 75.4 Z" fill="#1a1a1a" stroke="#f4f0e8" stroke-width="0.8" opacity="0.3"/>
<path d="M 406.0 75.4 A 31.9 40.6 0 0 1 464.0 75.4 A 31.9 40.6 0 0 1 406.0 75.4 Z" fill="#1a1a1a" stroke="#f4f0e8" stroke-width="0.8" opacity="0.3"/>
<path d="M 464.0 75.4 A 31.9 40.6 0 0 1 522.0 75.4 A 31.9 40.6 0 0 1 464.0 75.4 Z" fill="#1a1a1a" stroke="#f4f0e8" stroke-width="0.8" opacity="0.3"/>
<path d="M 522.0 75.4 A 31.9 40.6 0 0 1 580.0 75.4 A 31.9 40.6 0 0 1 522.0 75.4 Z" fill="#1a1a1a" stroke="#f4f0e8" stroke-width="0.8" opacity="0.3"/>
<path d="M 580.0 75.4 A 31.9 40.6 0 0 1 638.0 75.4 A 31.9 40.6 0 0 1 580.0 75.4 Z" fill="#1a1a1a" stroke="#f4f0e8" stroke-width="0.8" opacity="0.3"/>
<path d="M 638.0 75.4 A 31.9 40.6 0 0 1 696.0 75.4 A 31.9 40.6 0 0 1 638.0 75.4 Z" fill="#1a1a1a" stroke="#f4f0e8" stroke-width="0.8" opacity="0.3"/>
<path d="M 696.0 75.4 A 31.9 40.6 0 0 1 754.0 75.4 A 31.9 40.6 0 0 1 696.0 75.4 Z" fill="#1a1a1a" stroke="#f4f0e8" stroke-width="0.8" opacity="0.3"/>
<path d="M 754.0 75.4 A 31.9 40.6 0 0 1 812.0 75.4 A 31.9 40.6 0 0 1 754.0 75.4 Z" fill="#1a1a1a" stroke="#f4f0e8" stroke-width="0.8" opacity="0.3"/>
<path d="M 29.0 113.1 A 31.9 40.6 0 0 1 87.0 113.1 A 31.9 40.6 0 0 1 29.0 113.1 Z" fill="#1a1a1a" stroke="#f4f0e8" stroke-width="0.8" opacity="0.3"/>
<path d="M 87.0 113.1 A 31.9 40.6 0 0 1 145.0 113.1 A 31.9 40.6 0 0 1 87.0 113.1 Z" fill="#1a1a1a" stroke="#f4f0e8" stroke-width="0.8" opacity="0.3"/>
<path d="M 145.0 113.1 A 31.9 40.6 0 0 1 203.0 113.1 A 31.9 40.6 0 0 1 145.0 113.1 Z" fill="#1a1a1a" stroke="#f4f0e8" stroke-width="0.8" opacity="0.3"/>
<path d="M 203.0 113.1 A 31.9 40.6 0 0 1 261.0 113.1 A 31.9 40.6 0 0 1 203.0 113.1 Z" fill="#1a1a1a" stroke="#f4f0e8" stroke-width="0.8" opacity="0.3"/>
<path d="M 261.0 113.1 A 31.9 40.6 0 0 1 319.0 113.1 A 31.9 40.6 0 0 1 261.0 113.1 Z" fill="#1a1a1a" stroke="#f4f0e8" stroke-width="0.8" opacity="0.3"/>
<path d="M 319.0 113.1 A 31.9 40.6 0 0 1 377.0 113.1 A 31.9 40.6 0 0 1 319.0 113.1 Z" fill="#1a1a1a" stroke="#f4f0e8" stroke-width="0.8" opacity="0.3"/>
<path d="M 377.0 113.1 A 31.9 40.6 0 0 1 435.0 113.1 A 31.9 40.6 0 0 1 377.0 113.1 Z" fill="#1a1a1a" stroke="#f4f0e8" stroke-width="0.8" opacity="0.3"/>
<path d="M 435.0 113.1 A 31.9 40.6 0 0 1 493.0 113.1 A 31.9 40.6 0 0 1 435.0 113.1 Z" fill="#1a1a1a" stroke="#f4f0e8" stroke-width="0.8" opacity="0.3"/>
<path d="M 493.0 113.1 A 31.9 40.6 0 0 1 551.0 113.1 A 31.9 40.6 0 0 1 493.0 113.1 Z" fill="#1a1a1a" stroke="#f4f0e8" stroke-width="0.8" opacity="0.3"/>
<path d="M 551.0 113.1 A 31.9 40.6 0 0 1 609.0 113.1 A 31.9 40.6 0 0 1 551.0 113.1 Z" fill="#1a1a1a" stroke="#f4f0e8" stroke-width="0.8" opacity="0.3"/>
<path d="M 609.0 113.1 A 31.9 40.6 0 0 1 667.0 113.1 A 31.9 40.6 0 0 1 609.0 113.1 Z" fill="#1a1a1a" stroke="#f4f0e8" stroke-width="0.8" opacity="0.3"/>
<path d="M 667.0 113.1 A 31.9 40.6 0 0 1 725.0 113.1 A 31.9 40.6 0 0 1 667.0 113.1 Z" fill="#1a1a1a" stroke="#f4f0e8" stroke-width="0.8" opacity="0.3"/>
<path d="M 725.0 113.1 A 31.9 40.6 0 0 1 783.0 113.1 A 31.9 40.6 0 0 1 725.0 113.1 Z" fill="#1a1a1a" stroke="#f4f0e8" stroke-width="0.8" opacity="0.3"/>
<path d="M 783.0 113.1 A 31.9 40.6 0 0 1 841.0 113.1 A 31.9 40.6 0 0 1 783.0 113.1 Z" fill="#1a1a1a" stroke="#f4f0e8" stroke-width="0.8" opacity="0.3"/>
<path d="M 0.0 150.8 A 31.9 40.6 0 0 1 58.0 150.8 A 31.9 40.6 0 0 1 0.0 150.8 Z" fill="#1a1a1a" stroke="#f4f0e8" stroke-width="0.8" opacity="0.3"/>
<path d="M 58.0 150.8 A 31.9 40.6 0 0 1 116.0 150.8 A 31.9 40.6 0 0 1 58.0 150.8 Z" fill="#1a1a1a" stroke="#f4f0e8" stroke-width="0.8" opacity="0.3"/>
<path d="M 116.0 150.8 A 31.9 40.6 0 0 1 174.0 150.8 A 31.9 40.6 0 0 1 116.0 150.8 Z" fill="#1a1a1a" stroke="#f4f0e8" stroke-width="0.8" opacity="0.3"/>
<path d="M 174.0 150.8 A 31.9 40.6 0 0 1 232.0 150.8 A 31.9 40.6 0 0 1 174.0 150.8 Z" fill="#1a1a1a" stroke="#f4f0e8" stroke-width="0.8" opacity="0.3"/>
<path d="M 232.0 150.8 A 31.9 40.6 0 0 1 290.0 150.8 A 31.9 40.6 0 0 1 232.0 150.8 Z" fill="#1a1a1a" stroke="#f4f0e8" stroke-width="0.8" opacity="0.3"/>
<path d="M 290.0 150.8 A 31.9 40.6 0 0 1 348.0 150.8 A 31.9 40.6 0 0 1 290.0 150.8 Z" fill="#1a1a1a" stroke="#f4f0e8" stroke-width="0.8" opacity="0.3"/>
<path d="M 348.0 150.8 A 31.9 40.6 0 0 1 406.0 150.8 A 31.9 40.6 0 0 1 348.0 150.8 Z" fill="#1a1a1a" stroke="#f4f0e8" stroke-width="0.8" opacity="0.3"/>
<path d="M 406.0 150.8 A 31.9 40.6 0 0 1 464.0 150.8 A 31.9 40.6 0 0 1 406.0 150.8 Z" fill="#1a1a1a" stroke="#f4f0e8" stroke-width="0.8" opacity="0.3"/>
<path d="M 464.0 150.8 A 31.9 40.6 0 0 1 522.0 150.8 A 31.9 40.6 0 0 1 464.0 150.8 Z" fill="#1a1a1a" stroke="#f4f0e8" stroke-width="0.8" opacity="0.3"/>
<path d="M 522.0 150.8 A 31.9 40.6 0 0 1 580.0 150.8 A 31.9 40.6 0 0 1 522.0 150.8 Z" fill="#1a1a1a" stroke="#f4f0e8" stroke-width="0.8" opacity="0.3"/>
<path d="M 580.0 150.8 A 31.9 40.6 0 0 1 638.0 150.8 A 31.9 40.6 0 0 1 580.0 150.8 Z" fill="#1a1a1a" stroke="#f4f0e8" stroke-width="0.8" opacity="0.3"/>
<path d="M 638.0 150.8 A 31.9 40.6 0 0 1 696.0 150.8 A 31.9 40.6 0 0 1 638.0 150.8 Z" fill="#1a1a1a" stroke="#f4f0e8" stroke-width="0.8" opacity="0.3"/>
<path d="M 696.0 150.8 A 31.9 40.6 0 0 1 754.0 150.8 A 31.9 40.6 0 0 1 696.0 150.8 Z" fill="#1a1a1a" stroke="#f4f0e8" stroke-width="0.8" opacity="0.3"/>
<path d="M 754.0 150.8 A 31.9 40.6 0 0 1 812.0 150.8 A 31.9 40.6 0 0 1 754.0 150.8 Z" fill="#1a1a1a" stroke="#f4f0e8" stroke-width="0.8" opacity="0.3"/>
<path d="M 29.0 188.5 A 31.9 40.6 0 0 1 87.0 188.5 A 31.9 40.6 0 0 1 29.0 188.5 Z" fill="#1a1a1a" stroke="#f4f0e8" stroke-width="0.8" opacity="0.3"/>
<path d="M 87.0 188.5 A 31.9 40.6 0 0 1 145.0 188.5 A 31.9 40.6 0 0 1 87.0 188.5 Z" fill="#1a1a1a" stroke="#f4f0e8" stroke-width="0.8" opacity="0.3"/>
<path d="M 145.0 188.5 A 31.9 40.6 0 0 1 203.0 188.5 A 31.9 40.6 0 0 1 145.0 188.5 Z" fill="#1a1a1a" stroke="#f4f0e8" stroke-width="0.8" opacity="0.3"/>
<path d="M 203.0 188.5 A 31.9 40.6 0 0 1 261.0 188.5 A 31.9 40.6 0 0 1 203.0 188.5 Z" fill="#1a1a1a" stroke="#f4f0e8" stroke-width="0.8" opacity="0.3"/>
<path d="M 261.0 188.5 A 31.9 40.6 0 0 1 319.0 188.5 A 31.9 40.6 0 0 1 261.0 188.5 Z" fill="#1a1a1a" stroke="#f4f0e8" stroke-width="0.8" opacity="0.3"/>
<path d="M 319.0 188.5 A 31.9 40.6 0 0 1 377.0 188.5 A 31.9 40.6 0 0 1 319.0 188.5 Z" fill="#1a1a1a" stroke="#f4f0e8" stroke-width="0.8" opacity="0.3"/>
<path d="M 377.0 188.5 A 31.9 40.6 0 0 1 435.0 188.5 A 31.9 40.6 0 0 1 377.0 188.5 Z" fill="#1a1a1a" stroke="#f4f0e8" stroke-width="0.8" opacity="0.3"/>
<path d="M 435.0 188.5 A 31.9 40.6 0 0 1 493.0 188.5 A 31.9 40.6 0 0 1 435.0 188.5 Z" fill="#1a1a1a" stroke="#f4f0e8" stroke-width="0.8" opacity="0.3"/>
<path d="M 493.0 188.5 A 31.9 40.6 0 0 1 551.0 188.5 A 31.9 40.6 0 0 1 493.0 188.5 Z" fill="#1a1a1a" stroke="#f4f0e8" stroke-width="0.8" opacity="0.3"/>
<path d="M 551.0 188.5 A 31.9 40.6 0 0 1 609.0 188.5 A 31.9 40.6 0 0 1 551.0 188.5 Z" fill="#1a1a1a" stroke="#f4f0e8" stroke-width="0.8" opacity="0.3"/>
<path d="M 609.0 188.5 A 31.9 40.6 0 0 1 667.0 188.5 A 31.9 40.6 0 0 1 609.0 188.5 Z" fill="#1a1a1a" stroke="#f4f0e8" stroke-width="0.8" opacity="0.3"/>
<path d="M 667.0 188.5 A 31.9 40.6 0 0 1 725.0 188.5 A 31.9 40.6 0 0 1 667.0 188.5 Z" fill="#1a1a1a" stroke="#f4f0e8" stroke-width="0.8" opacity="0.3"/>
<path d="M 725.0 188.5 A 31.9 40.6 0 0 1 783.0 188.5 A 31.9 40.6 0 0 1 725.0 188.5 Z" fill="#1a1a1a" stroke="#f4f0e8" stroke-width="0.8" opacity="0.3"/>
<path d="M 783.0 188.5 A 31.9 40.6 0 0 1 841.0 188.5 A 31.9 40.6 0 0 1 783.0 188.5 Z" fill="#1a1a1a" stroke="#f4f0e8" stroke-width="0.8" opacity="0.3"/>
<path d="M 0.0 226.2 A 31.9 40.6 0 0 1 58.0 226.2 A 31.9 40.6 0 0 1 0.0 226.2 Z" fill="#1a1a1a" stroke="#f4f0e8" stroke-width="0.8" opacity="0.3"/>
<path d="M 58.0 226.2 A 31.9 40.6 0 0 1 116.0 226.2 A 31.9 40.6 0 0 1 58.0 226.2 Z" fill="#1a1a1a" stroke="#f4f0e8" stroke-width="0.8" opacity="0.3"/>
<path d="M 116.0 226.2 A 31.9 40.6 0 0 1 174.0 226.2 A 31.9 40.6 0 0 1 116.0 226.2 Z" fill="#1a1a1a" stroke="#f4f0e8" stroke-width="0.8" opacity="0.3"/>
<path d="M 174.0 226.2 A 31.9 40.6 0 0 1 232.0 226.2 A 31.9 40.6 0 0 1 174.0 226.2 Z" fill="#1a1a1a" stroke="#f4f0e8" stroke-width="0.8" opacity="0.3"/>
<path d="M 232.0 226.2 A 31.9 40.6 0 0 1 290.0 226.2 A 31.9 40.6 0 0 1 232.0 226.2 Z" fill="#1a1a1a" stroke="#f4f0e8" stroke-width="0.8" opacity="0.3"/>
<path d="M 290.0 226.2 A 31.9 40.6 0 0 1 348.0 226.2 A 31.9 40.6 0 0 1 290.0 226.2 Z" fill="#1a1a1a" stroke="#f4f0e8" stroke-width="0.8" opacity="0.3"/>
<path d="M 348.0 226.2 A 31.9 40.6 0 0 1 406.0 226.2 A 31.9 40.6 0 0 1 348.0 226.2 Z" fill="#1a1a1a" stroke="#f4f0e8" stroke-width="0.8" opacity="0.3"/>
<path d="M 406.0 226.2 A 31.9 40.6 0 0 1 464.0 226.2 A 31.9 40.6 0 0 1 406.0 226.2 Z" fill="#1a1a1a" stroke="#f4f0e8" stroke-width="0.8" opacity="0.3"/>
<path d="M 464.0 226.2 A 31.9 40.6 0 0 1 522.0 226.2 A 31.9 40.6 0 0 1 464.0 226.2 Z" fill="#1a1a1a" stroke="#f4f0e8" stroke-width="0.8" opacity="0.3"/>
<path d="M 522.0 226.2 A 31.9 40.6 0 0 1 580.0 226.2 A 31.9 40.6 0 0 1 522.0 226.2 Z" fill="#1a1a1a" stroke="#f4f0e8" stroke-width="0.8" opacity="0.3"/>
<path d="M 580.0 226.2 A 31.9 40.6 0 0 1 638.0 226.2 A 31.9 40.6 0 0 1 580.0 226.2 Z" fill="#1a1a1a" stroke="#f4f0e8" stroke-width="0.8" opacity="0.3"/>
<path d="M 638.0 226.2 A 31.9 40.6 0 0 1 696.0 226.2 A 31.9 40.6 0 0 1 638.0 226.2 Z" fill="#1a1a1a" stroke="#f4f0e8" stroke-width="0.8" opacity="0.3"/>
<path d="M 696.0 226.2 A 31.9 40.6 0 0 1 754.0 226.2 A 31.9 40.6 0 0 1 696.0 226.2 Z" fill="#1a1a1a" stroke="#f4f0e8" stroke-width="0.8" opacity="0.3"/>
<path d="M 754.0 226.2 A 31.9 40.6 0 0 1 812.0 226.2 A 31.9 40.6 0 0 1 754.0 226.2 Z" fill="#1a1a1a" stroke="#f4f0e8" stroke-width="0.8" opacity="0.3"/>
<path d="M 29.0 263.9 A 31.9 40.6 0 0 1 87.0 263.9 A 31.9 40.6 0 0 1 29.0 263.9 Z" fill="#1a1a1a" stroke="#f4f0e8" stroke-width="0.8" opacity="0.3"/>
<path d="M 87.0 263.9 A 31.9 40.6 0 0 1 145.0 263.9 A 31.9 40.6 0 0 1 87.0 263.9 Z" fill="#1a1a1a" stroke="#f4f0e8" stroke-width="0.8" opacity="0.3"/>
<path d="M 145.0 263.9 A 31.9 40.6 0 0 1 203.0 263.9 A 31.9 40.6 0 0 1 145.0 263.9 Z" fill="#1a1a1a" stroke="#f4f0e8" stroke-width="0.8" opacity="0.3"/>
<path d="M 203.0 263.9 A 31.9 40.6 0 0 1 261.0 263.9 A 31.9 40.6 0 0 1 203.0 263.9 Z" fill="#1a1a1a" stroke="#f4f0e8" stroke-width="0.8" opacity="0.3"/>
<path d="M 261.0 263.9 A 31.9 40.6 0 0 1 319.0 263.9 A 31.9 40.6 0 0 1 261.0 263.9 Z" fill="#1a1a1a" stroke="#f4f0e8" stroke-width="0.8" opacity="0.3"/>
<path d="M 319.0 263.9 A 31.9 40.6 0 0 1 377.0 263.9 A 31.9 40.6 0 0 1 319.0 263.9 Z" fill="#1a1a1a" stroke="#f4f0e8" stroke-width="0.8" opacity="0.3"/>
<path d="M 377.0 263.9 A 31.9 40.6 0 0 1 435.0 263.9 A 31.9 40.6 0 0 1 377.0 263.9 Z" fill="#1a1a1a" stroke="#f4f0e8" stroke-width="0.8" opacity="0.3"/>
<path d="M 435.0 263.9 A 31.9 40.6 0 0 1 493.0 263.9 A 31.9 40.6 0 0 1 435.0 263.9 Z" fill="#1a1a1a" stroke="#f4f0e8" stroke-width="0.8" opacity="0.3"/>
<path d="M 493.0 263.9 A 31.9 40.6 0 0 1 551.0 263.9 A 31.9 40.6 0 0 1 493.0 263.9 Z" fill="#1a1a1a" stroke="#f4f0e8" stroke-width="0.8" opacity="0.3"/>
<path d="M 551.0 263.9 A 31.9 40.6 0 0 1 609.0 263.9 A 31.9 40.6 0 0 1 551.0 263.9 Z" fill="#1a1a1a" stroke="#f4f0e8" stroke-width="0.8" opacity="0.3"/>
<path d="M 609.0 263.9 A 31.9 40.6 0 0 1 667.0 263.9 A 31.9 40.6 0 0 1 609.0 263.9 Z" fill="#1a1a1a" stroke="#f4f0e8" stroke-width="0.8" opacity="0.3"/>
<path d="M 667.0 263.9 A 31.9 40.6 0 0 1 725.0 263.9 A 31.9 40.6 0 0 1 667.0 263.9 Z" fill="#1a1a1a" stroke="#f4f0e8" stroke-width="0.8" opacity="0.3"/>
<path d="M 725.0 263.9 A 31.9 40.6 0 0 1 783.0 263.9 A 31.9 40.6 0 0 1 725.0 263.9 Z" fill="#1a1a1a" stroke="#f4f0e8" stroke-width="0.8" opacity="0.3"/>
<path d="M 783.0 263.9 A 31.9 40.6 0 0 1 841.0 263.9 A 31.9 40.6 0 0 1 783.0 263.9 Z" fill="#1a1a1a" stroke="#f4f0e8" stroke-width="0.8" opacity="0.3"/>
<path d="M 0.0 301.6 A 31.9 40.6 0 0 1 58.0 301.6 A 31.9 40.6 0 0 1 0.0 301.6 Z" fill="#1a1a1a" stroke="#f4f0e8" stroke-width="0.8" opacity="0.3"/>
<path d="M 58.0 301.6 A 31.9 40.6 0 0 1 116.0 301.6 A 31.9 40.6 0 0 1 58.0 301.6 Z" fill="#1a1a1a" stroke="#f4f0e8" stroke-width="0.8" opacity="0.3"/>
<path d="M 116.0 301.6 A 31.9 40.6 0 0 1 174.0 301.6 A 31.9 40.6 0 0 1 116.0 301.6 Z" fill="#1a1a1a" stroke="#f4f0e8" stroke-width="0.8" opacity="0.3"/>
<path d="M 174.0 301.6 A 31.9 40.6 0 0 1 232.0 301.6 A 31.9 40.6 0 0 1 174.0 301.6 Z" fill="#1a1a1a" stroke="#f4f0e8" stroke-width="0.8" opacity="0.3"/>
<path d="M 232.0 301.6 A 31.9 40.6 0 0 1 290.0 301.6 A 31.9 40.6 0 0 1 232.0 301.6 Z" fill="#1a1a1a" stroke="#f4f0e8" stroke-width="0.8" opacity="0.3"/>
<path d="M 290.0 301.6 A 31.9 40.6 0 0 1 348.0 301.6 A 31.9 40.6 0 0 1 290.0 301.6 Z" fill="#1a1a1a" stroke="#f4f0e8" stroke-width="0.8" opacity="0.3"/>
<path d="M 348.0 301.6 A 31.9 40.6 0 0 1 406.0 301.6 A 31.9 40.6 0 0 1 348.0 301.6 Z" fill="#1a1a1a" stroke="#f4f0e8" stroke-width="0.8" opacity="0.3"/>
<path d="M 406.0 301.6 A 31.9 40.6 0 0 1 464.0 301.6 A 31.9 40.6 0 0 1 406.0 301.6 Z" fill="#1a1a1a" stroke="#f4f0e8" stroke-width="0.8" opacity="0.3"/>
<path d="M 464.0 301.6 A 31.9 40.6 0 0 1 522.0 301.6 A 31.9 40.6 0 0 1 464.0 301.6 Z" fill="#1a1a1a" stroke="#f4f0e8" stroke-width="0.8" opacity="0.3"/>
<path d="M 522.0 301.6 A 31.9 40.6 0 0 1 580.0 301.6 A 31.9 40.6 0 0 1 522.0 301.6 Z" fill="#1a1a1a" stroke="#f4f0e8" stroke-width="0.8" opacity="0.3"/>
<path d="M 580.0 301.6 A 31.9 40.6 0 0 1 638.0 301.6 A 31.9 40.6 0 0 1 580.0 301.6 Z" fill="#1a1a1a" stroke="#f4f0e8" stroke-width="0.8" opacity="0.3"/>
<path d="M 638.0 301.6 A 31.9 40.6 0 0 1 696.0 301.6 A 31.9 40.6 0 0 1 638.0 301.6 Z" fill="#1a1a1a" stroke="#f4f0e8" stroke-width="0.8" opacity="0.3"/>
<path d="M 696.0 301.6 A 31.9 40.6 0 0 1 754.0 301.6 A 31.9 40.6 0 0 1 696.0 301.6 Z" fill="#1a1a1a" stroke="#f4f0e8" stroke-width="0.8" opacity="0.3"/>
<path d="M 754.0 301.6 A 31.9 40.6 0 0 1 812.0 301.6 A 31.9 40.6 0 0 1 754.0 301.6 Z" fill="#1a1a1a" stroke="#f4f0e8" stroke-width="0.8" opacity="0.3"/>
<path d="M 29.0 339.3 A 31.9 40.6 0 0 1 87.0 339.3 A 31.9 40.6 0 0 1 29.0 339.3 Z" fill="#1a1a1a" stroke="#f4f0e8" stroke-width="0.8" opacity="0.3"/>
<path d="M 87.0 339.3 A 31.9 40.6 0 0 1 145.0 339.3 A 31.9 40.6 0 0 1 87.0 339.3 Z" fill="#1a1a1a" stroke="#f4f0e8" stroke-width="0.8" opacity="0.3"/>
<path d="M 145.0 339.3 A 31.9 40.6 0 0 1 203.0 339.3 A 31.9 40.6 0 0 1 145.0 339.3 Z" fill="#1a1a1a" stroke="#f4f0e8" stroke-width="0.8" opacity="0.3"/>
<path d="M 203.0 339.3 A 31.9 40.6 0 0 1 261.0 339.3 A 31.9 40.6 0 0 1 203.0 339.3 Z" fill="#1a1a1a" stroke="#f4f0e8" stroke-width="0.8" opacity="0.3"/>
<path d="M 261.0 339.3 A 31.9 40.6 0 0 1 319.0 339.3 A 31.9 40.6 0 0 1 261.0 339.3 Z" fill="#1a1a1a" stroke="#f4f0e8" stroke-width="0.8" opacity="0.3"/>
<path d="M 319.0 339.3 A 31.9 40.6 0 0 1 377.0 339.3 A 31.9 40.6 0 0 1 319.0 339.3 Z" fill="#1a1a1a" stroke="#f4f0e8" stroke-width="0.8" opacity="0.3"/>
<path d="M 377.0 339.3 A 31.9 40.6 0 0 1 435.0 339.3 A 31.9 40.6 0 0 1 377.0 339.3 Z" fill="#1a1a1a" stroke="#f4f0e8" stroke-width="0.8" opacity="0.3"/>
<path d="M 435.0 339.3 A 31.9 40.6 0 0 1 493.0 339.3 A 31.9 40.6 0 0 1 435.0 339.3 Z" fill="#1a1a1a" stroke="#f4f0e8" stroke-width="0.8" opacity="0.3"/>
<path d="M 493.0 339.3 A 31.9 40.6 0 0 1 551.0 339.3 A 31.9 40.6 0 0 1 493.0 339.3 Z" fill="#1a1a1a" stroke="#f4f0e8" stroke-width="0.8" opacity="0.3"/>
<path d="M 551.0 339.3 A 31.9 40.6 0 0 1 609.0 339.3 A 31.9 40.6 0 0 1 551.0 339.3 Z" fill="#1a1a1a" stroke="#f4f0e8" stroke-width="0.8" opacity="0.3"/>
<path d="M 609.0 339.3 A 31.9 40.6 0 0 1 667.0 339.3 A 31.9 40.6 0 0 1 609.0 339.3 Z" fill="#1a1a1a" stroke="#f4f0e8" stroke-width="0.8" opacity="0.3"/>
<path d="M 667.0 339.3 A 31.9 40.6 0 0 1 725.0 339.3 A 31.9 40.6 0 0 1 667.0 339.3 Z" fill="#1a1a1a" stroke="#f4f0e8" stroke-width="0.8" opacity="0.3"/>
<path d="M 725.0 339.3 A 31.9 40.6 0 0 1 783.0 339.3 A 31.9 40.6 0 0 1 725.0 339.3 Z" fill="#1a1a1a" stroke="#f4f0e8" stroke-width="0.8" opacity="0.3"/>
<path d="M 783.0 339.3 A 31.9 40.6 0 0 1 841.0 339.3 A 31.9 40.6 0 0 1 783.0 339.3 Z" fill="#1a1a1a" stroke="#f4f0e8" stroke-width="0.8" opacity="0.3"/>
<path d="M 0.0 377.0 A 31.9 40.6 0 0 1 58.0 377.0 A 31.9 40.6 0 0 1 0.0 377.0 Z" fill="#1a1a1a" stroke="#f4f0e8" stroke-width="0.8" opacity="0.3"/>
<path d="M 58.0 377.0 A 31.9 40.6 0 0 1 116.0 377.0 A 31.9 40.6 0 0 1 58.0 377.0 Z" fill="#1a1a1a" stroke="#f4f0e8" stroke-width="0.8" opacity="0.3"/>
<path d="M 116.0 377.0 A 31.9 40.6 0 0 1 174.0 377.0 A 31.9 40.6 0 0 1 116.0 377.0 Z" fill="#1a1a1a" stroke="#f4f0e8" stroke-width="0.8" opacity="0.3"/>
<path d="M 174.0 377.0 A 31.9 40.6 0 0 1 232.0 377.0 A 31.9 40.6 0 0 1 174.0 377.0 Z" fill="#1a1a1a" stroke="#f4f0e8" stroke-width="0.8" opacity="0.3"/>
<path d="M 232.0 377.0 A 31.9 40.6 0 0 1 290.0 377.0 A 31.9 40.6 0 0 1 232.0 377.0 Z" fill="#1a1a1a" stroke="#f4f0e8" stroke-width="0.8" opacity="0.3"/>
<path d="M 290.0 377.0 A 31.9 40.6 0 0 1 348.0 377.0 A 31.9 40.6 0 0 1 290.0 377.0 Z" fill="#1a1a1a" stroke="#f4f0e8" stroke-width="0.8" opacity="0.3"/>
<path d="M 348.0 377.0 A 31.9 40.6 0 0 1 406.0 377.0 A 31.9 40.6 0 0 1 348.0 377.0 Z" fill="#1a1a1a" stroke="#f4f0e8" stroke-width="0.8" opacity="0.3"/>
<path d="M 406.0 377.0 A 31.9 40.6 0 0 1 464.0 377.0 A 31.9 40.6 0 0 1 406.0 377.0 Z" fill="#1a1a1a" stroke="#f4f0e8" stroke-width="0.8" opacity="0.3"/>
<path d="M 464.0 377.0 A 31.9 40.6 0 0 1 522.0 377.0 A 31.9 40.6 0 0 1 464.0 377.0 Z" fill="#1a1a1a" stroke="#f4f0e8" stroke-width="0.8" opacity="0.3"/>
<path d="M 522.0 377.0 A 31.9 40.6 0 0 1 580.0 377.0 A 31.9 40.6 0 0 1 522.0 377.0 Z" fill="#1a1a1a" stroke="#f4f0e8" stroke-width="0.8" opacity="0.3"/>
<path d="M 580.0 377.0 A 31.9 40.6 0 0 1 638.0 377.0 A 31.9 40.6 0 0 1 580.0 377.0 Z" fill="#1a1a1a" stroke="#f4f0e8" stroke-width="0.8" opacity="0.3"/>
<path d="M 638.0 377.0 A 31.9 40.6 0 0 1 696.0 377.0 A 31.9 40.6 0 0 1 638.0 377.0 Z" fill="#1a1a1a" stroke="#f4f0e8" stroke-width="0.8" opacity="0.3"/>
<path d="M 696.0 377.0 A 31.9 40.6 0 0 1 754.0 377.0 A 31.9 40.6 0 0 1 696.0 377.0 Z" fill="#1a1a1a" stroke="#f4f0e8" stroke-width="0.8" opacity="0.3"/>
<path d="M 754.0 377.0 A 31.9 40.6 0 0 1 812.0 377.0 A 31.9 40.6 0 0 1 754.0 377.0 Z" fill="#1a1a1a" stroke="#f4f0e8" stroke-width="0.8" opacity="0.3"/>
<path d="M 29.0 414.7 A 31.9 40.6 0 0 1 87.0 414.7 A 31.9 40.6 0 0 1 29.0 414.7 Z" fill="#1a1a1a" stroke="#f4f0e8" stroke-width="0.8" opacity="0.3"/>
<path d="M 87.0 414.7 A 31.9 40.6 0 0 1 145.0 414.7 A 31.9 40.6 0 0 1 87.0 414.7 Z" fill="#1a1a1a" stroke="#f4f0e8" stroke-width="0.8" opacity="0.3"/>
<path d="M 145.0 414.7 A 31.9 40.6 0 0 1 203.0 414.7 A 31.9 40.6 0 0 1 145.0 414.7 Z" fill="#1a1a1a" stroke="#f4f0e8" stroke-width="0.8" opacity="0.3"/>
<path d="M 203.0 414.7 A 31.9 40.6 0 0 1 261.0 414.7 A 31.9 40.6 0 0 1 203.0 414.7 Z" fill="#1a1a1a" stroke="#f4f0e8" stroke-width="0.8" opacity="0.3"/>
<path d="M 261.0 414.7 A 31.9 40.6 0 0 1 319.0 414.7 A 31.9 40.6 0 0 1 261.0 414.7 Z" fill="#1a1a1a" stroke="#f4f0e8" stroke-width="0.8" opacity="0.3"/>
<path d="M 319.0 414.7 A 31.9 40.6 0 0 1 377.0 414.7 A 31.9 40.6 0 0 1 319.0 414.7 Z" fill="#1a1a1a" stroke="#f4f0e8" stroke-width="0.8" opacity="0.3"/>
<path d="M 377.0 414.7 A 31.9 40.6 0 0 1 435.0 414.7 A 31.9 40.6 0 0 1 377.0 414.7 Z" fill="#1a1a1a" stroke="#f4f0e8" stroke-width="0.8" opacity="0.3"/>
<path d="M 435.0 414.7 A 31.9 40.6 0 0 1 493.0 414.7 A 31.9 40.6 0 0 1 435.0 414.7 Z" fill="#1a1a1a" stroke="#f4f0e8" stroke-width="0.8" opacity="0.3"/>
<path d="M 493.0 414.7 A 31.9 40.6 0 0 1 551.0 414.7 A 31.9 40.6 0 0 1 493.0 414.7 Z" fill="#1a1a1a" stroke="#f4f0e8" stroke-width="0.8" opacity="0.3"/>
<path d="M 551.0 414.7 A 31.9 40.6 0 0 1 609.0 414.7 A 31.9 40.6 0 0 1 551.0 414.7 Z" fill="#1a1a1a" stroke="#f4f0e8" stroke-width="0.8" opacity="0.3"/>
<path d="M 609.0 414.7 A 31.9 40.6 0 0 1 667.0 414.7 A 31.9 40.6 0 0 1 609.0 414.7 Z" fill="#1a1a1a" stroke="#f4f0e8" stroke-width="0.8" opacity="0.3"/>
<path d="M 667.0 414.7 A 31.9 40.6 0 0 1 725.0 414.7 A 31.9 40.6 0 0 1 667.0 414.7 Z" fill="#1a1a1a" stroke="#f4f0e8" stroke-width="0.8" opacity="0.3"/>
<path d="M 725.0 414.7 A 31.9 40.6 0 0 1 783.0 414.7 A 31.9 40.6 0 0 1 725.0 414.7 Z" fill="#1a1a1a" stroke="#f4f0e8" stroke-width="0.8" opacity="0.3"/>
<path d="M 783.0 414.7 A 31.9 40.6 0 0 1 841.0 414.7 A 31.9 40.6 0 0 1 783.0 414.7 Z" fill="#1a1a1a" stroke="#f4f0e8" stroke-width="0.8" opacity="0.3"/>
<path d="M 820.0 0.0 A 31.9 40.6 0 0 1 878.0 0.0 A 31.9 40.6 0 0 1 820.0 0.0 Z" fill="none" stroke="#c0392b" stroke-width="1.2" opacity="0.2"/>
<path d="M 878.0 0.0 A 31.9 40.6 0 0 1 936.0 0.0 A 31.9 40.6 0 0 1 878.0 0.0 Z" fill="none" stroke="#c0392b" stroke-width="1.2" opacity="0.2"/>
<path d="M 936.0 0.0 A 31.9 40.6 0 0 1 994.0 0.0 A 31.9 40.6 0 0 1 936.0 0.0 Z" fill="none" stroke="#c0392b" stroke-width="1.2" opacity="0.2"/>
<path d="M 994.0 0.0 A 31.9 40.6 0 0 1 1052.0 0.0 A 31.9 40.6 0 0 1 994.0 0.0 Z" fill="none" stroke="#c0392b" stroke-width="1.2" opacity="0.2"/>
<path d="M 1052.0 0.0 A 31.9 40.6 0 0 1 1110.0 0.0 A 31.9 40.6 0 0 1 1052.0 0.0 Z" fill="none" stroke="#c0392b" stroke-width="1.2" opacity="0.2"/>
<path d="M 1110.0 0.0 A 31.9 40.6 0 0 1 1168.0 0.0 A 31.9 40.6 0 0 1 1110.0 0.0 Z" fill="none" stroke="#c0392b" stroke-width="1.2" opacity="0.2"/>
<path d="M 1168.0 0.0 A 31.9 40.6 0 0 1 1226.0 0.0 A 31.9 40.6 0 0 1 1168.0 0.0 Z" fill="none" stroke="#c0392b" stroke-width="1.2" opacity="0.2"/>
<path d="M 1226.0 0.0 A 31.9 40.6 0 0 1 1284.0 0.0 A 31.9 40.6 0 0 1 1226.0 0.0 Z" fill="none" stroke="#c0392b" stroke-width="1.2" opacity="0.2"/>
<path d="M 1284.0 0.0 A 31.9 40.6 0 0 1 1342.0 0.0 A 31.9 40.6 0 0 1 1284.0 0.0 Z" fill="none" stroke="#c0392b" stroke-width="1.2" opacity="0.2"/>
<path d="M 1342.0 0.0 A 31.9 40.6 0 0 1 1400.0 0.0 A 31.9 40.6 0 0 1 1342.0 0.0 Z" fill="none" stroke="#c0392b" stroke-width="1.2" opacity="0.2"/>
<path d="M 1400.0 0.0 A 31.9 40.6 0 0 1 1458.0 0.0 A 31.9 40.6 0 0 1 1400.0 0.0 Z" fill="none" stroke="#c0392b" stroke-width="1.2" opacity="0.2"/>
<path d="M 1458.0 0.0 A 31.9 40.6 0 0 1 1516.0 0.0 A 31.9 40.6 0 0 1 1458.0 0.0 Z" fill="none" stroke="#c0392b" stroke-width="1.2" opacity="0.2"/>
<path d="M 1516.0 0.0 A 31.9 40.6 0 0 1 1574.0 0.0 A 31.9 40.6 0 0 1 1516.0 0.0 Z" fill="none" stroke="#c0392b" stroke-width="1.2" opacity="0.2"/>
<path d="M 1574.0 0.0 A 31.9 40.6 0 0 1 1632.0 0.0 A 31.9 40.6 0 0 1 1574.0 0.0 Z" fill="none" stroke="#c0392b" stroke-width="1.2" opacity="0.2"/>
<path d="M 849.0 37.7 A 31.9 40.6 0 0 1 907.0 37.7 A 31.9 40.6 0 0 1 849.0 37.7 Z" fill="none" stroke="#c0392b" stroke-width="1.2" opacity="0.2"/>
<path d="M 907.0 37.7 A 31.9 40.6 0 0 1 965.0 37.7 A 31.9 40.6 0 0 1 907.0 37.7 Z" fill="none" stroke="#c0392b" stroke-width="1.2" opacity="0.2"/>
<path d="M 965.0 37.7 A 31.9 40.6 0 0 1 1023.0 37.7 A 31.9 40.6 0 0 1 965.0 37.7 Z" fill="none" stroke="#c0392b" stroke-width="1.2" opacity="0.2"/>
<path d="M 1023.0 37.7 A 31.9 40.6 0 0 1 1081.0 37.7 A 31.9 40.6 0 0 1 1023.0 37.7 Z" fill="none" stroke="#c0392b" stroke-width="1.2" opacity="0.2"/>
<path d="M 1081.0 37.7 A 31.9 40.6 0 0 1 1139.0 37.7 A 31.9 40.6 0 0 1 1081.0 37.7 Z" fill="none" stroke="#c0392b" stroke-width="1.2" opacity="0.2"/>
<path d="M 1139.0 37.7 A 31.9 40.6 0 0 1 1197.0 37.7 A 31.9 40.6 0 0 1 1139.0 37.7 Z" fill="none" stroke="#c0392b" stroke-width="1.2" opacity="0.2"/>
<path d="M 1197.0 37.7 A 31.9 40.6 0 0 1 1255.0 37.7 A 31.9 40.6 0 0 1 1197.0 37.7 Z" fill="none" stroke="#c0392b" stroke-width="1.2" opacity="0.2"/>
<path d="M 1255.0 37.7 A 31.9 40.6 0 0 1 1313.0 37.7 A 31.9 40.6 0 0 1 1255.0 37.7 Z" fill="none" stroke="#c0392b" stroke-width="1.2" opacity="0.2"/>
<path d="M 1313.0 37.7 A 31.9 40.6 0 0 1 1371.0 37.7 A 31.9 40.6 0 0 1 1313.0 37.7 Z" fill="none" stroke="#c0392b" stroke-width="1.2" opacity="0.2"/>
<path d="M 1371.0 37.7 A 31.9 40.6 0 0 1 1429.0 37.7 A 31.9 40.6 0 0 1 1371.0 37.7 Z" fill="none" stroke="#c0392b" stroke-width="1.2" opacity="0.2"/>
<path d="M 1429.0 37.7 A 31.9 40.6 0 0 1 1487.0 37.7 A 31.9 40.6 0 0 1 1429.0 37.7 Z" fill="none" stroke="#c0392b" stroke-width="1.2" opacity="0.2"/>
<path d="M 1487.0 37.7 A 31.9 40.6 0 0 1 1545.0 37.7 A 31.9 40.6 0 0 1 1487.0 37.7 Z" fill="none" stroke="#c0392b" stroke-width="1.2" opacity="0.2"/>
<path d="M 1545.0 37.7 A 31.9 40.6 0 0 1 1603.0 37.7 A 31.9 40.6 0 0 1 1545.0 37.7 Z" fill="none" stroke="#c0392b" stroke-width="1.2" opacity="0.2"/>
<path d="M 1603.0 37.7 A 31.9 40.6 0 0 1 1661.0 37.7 A 31.9 40.6 0 0 1 1603.0 37.7 Z" fill="none" stroke="#c0392b" stroke-width="1.2" opacity="0.2"/>
<path d="M 820.0 75.4 A 31.9 40.6 0 0 1 878.0 75.4 A 31.9 40.6 0 0 1 820.0 75.4 Z" fill="none" stroke="#c0392b" stroke-width="1.2" opacity="0.2"/>
<path d="M 878.0 75.4 A 31.9 40.6 0 0 1 936.0 75.4 A 31.9 40.6 0 0 1 878.0 75.4 Z" fill="none" stroke="#c0392b" stroke-width="1.2" opacity="0.2"/>
<path d="M 936.0 75.4 A 31.9 40.6 0 0 1 994.0 75.4 A 31.9 40.6 0 0 1 936.0 75.4 Z" fill="none" stroke="#c0392b" stroke-width="1.2" opacity="0.2"/>
<path d="M 994.0 75.4 A 31.9 40.6 0 0 1 1052.0 75.4 A 31.9 40.6 0 0 1 994.0 75.4 Z" fill="none" stroke="#c0392b" stroke-width="1.2" opacity="0.2"/>
<path d="M 1052.0 75.4 A 31.9 40.6 0 0 1 1110.0 75.4 A 31.9 40.6 0 0 1 1052.0 75.4 Z" fill="none" stroke="#c0392b" stroke-width="1.2" opacity="0.2"/>
<path d="M 1110.0 75.4 A 31.9 40.6 0 0 1 1168.0 75.4 A 31.9 40.6 0 0 1 1110.0 75.4 Z" fill="none" stroke="#c0392b" stroke-width="1.2" opacity="0.2"/>
<path d="M 1168.0 75.4 A 31.9 40.6 0 0 1 1226.0 75.4 A 31.9 40.6 0 0 1 1168.0 75.4 Z" fill="none" stroke="#c0392b" stroke-width="1.2" opacity="0.2"/>
<path d="M 1226.0 75.4 A 31.9 40.6 0 0 1 1284.0 75.4 A 31.9 40.6 0 0 1 1226.0 75.4 Z" fill="none" stroke="#c0392b" stroke-width="1.2" opacity="0.2"/>
<path d="M 1284.0 75.4 A 31.9 40.6 0 0 1 1342.0 75.4 A 31.9 40.6 0 0 1 1284.0 75.4 Z" fill="none" stroke="#c0392b" stroke-width="1.2" opacity="0.2"/>
<path d="M 1342.0 75.4 A 31.9 40.6 0 0 1 1400.0 75.4 A 31.9 40.6 0 0 1 1342.0 75.4 Z" fill="none" stroke="#c0392b" stroke-width="1.2" opacity="0.2"/>
<path d="M 1400.0 75.4 A 31.9 40.6 0 0 1 1458.0 75.4 A 31.9 40.6 0 0 1 1400.0 75.4 Z" fill="none" stroke="#c0392b" stroke-width="1.2" opacity="0.2"/>
<path d="M 1458.0 75.4 A 31.9 40.6 0 0 1 1516.0 75.4 A 31.9 40.6 0 0 1 1458.0 75.4 Z" fill="none" stroke="#c0392b" stroke-width="1.2" opacity="0.2"/>
<path d="M 1516.0 75.4 A 31.9 40.6 0 0 1 1574.0 75.4 A 31.9 40.6 0 0 1 1516.0 75.4 Z" fill="none" stroke="#c0392b" stroke-width="1.2" opacity="0.2"/>
<path d="M 1574.0 75.4 A 31.9 40.6 0 0 1 1632.0 75.4 A 31.9 40.6 0 0 1 1574.0 75.4 Z" fill="none" stroke="#c0392b" stroke-width="1.2" opacity="0.2"/>
<path d="M 849.0 113.1 A 31.9 40.6 0 0 1 907.0 113.1 A 31.9 40.6 0 0 1 849.0 113.1 Z" fill="none" stroke="#c0392b" stroke-width="1.2" opacity="0.2"/>
<path d="M 907.0 113.1 A 31.9 40.6 0 0 1 965.0 113.1 A 31.9 40.6 0 0 1 907.0 113.1 Z" fill="none" stroke="#c0392b" stroke-width="1.2" opacity="0.2"/>
<path d="M 965.0 113.1 A 31.9 40.6 0 0 1 1023.0 113.1 A 31.9 40.6 0 0 1 965.0 113.1 Z" fill="none" stroke="#c0392b" stroke-width="1.2" opacity="0.2"/>
<path d="M 1023.0 113.1 A 31.9 40.6 0 0 1 1081.0 113.1 A 31.9 40.6 0 0 1 1023.0 113.1 Z" fill="none" stroke="#c0392b" stroke-width="1.2" opacity="0.2"/>
<path d="M 1081.0 113.1 A 31.9 40.6 0 0 1 1139.0 113.1 A 31.9 40.6 0 0 1 1081.0 113.1 Z" fill="none" stroke="#c0392b" stroke-width="1.2" opacity="0.2"/>
<path d="M 1139.0 113.1 A 31.9 40.6 0 0 1 1197.0 113.1 A 31.9 40.6 0 0 1 1139.0 113.1 Z" fill="none" stroke="#c0392b" stroke-width="1.2" opacity="0.2"/>
<path d="M 1197.0 113.1 A 31.9 40.6 0 0 1 1255.0 113.1 A 31.9 40.6 0 0 1 1197.0 113.1 Z" fill="none" stroke="#c0392b" stroke-width="1.2" opacity="0.2"/>
<path d="M 1255.0 113.1 A 31.9 40.6 0 0 1 1313.0 113.1 A 31.9 40.6 0 0 1 1255.0 113.1 Z" fill="none" stroke="#c0392b" stroke-width="1.2" opacity="0.2"/>
<path d="M 1313.0 113.1 A 31.9 40.6 0 0 1 1371.0 113.1 A 31.9 40.6 0 0 1 1313.0 113.1 Z" fill="none" stroke="#c0392b" stroke-width="1.2" opacity="0.2"/>
<path d="M 1371.0 113.1 A 31.9 40.6 0 0 1 1429.0 113.1 A 31.9 40.6 0 0 1 1371.0 113.1 Z" fill="none" stroke="#c0392b" stroke-width="1.2" opacity="0.2"/>
<path d="M 1429.0 113.1 A 31.9 40.6 0 0 1 1487.0 113.1 A 31.9 40.6 0 0 1 1429.0 113.1 Z" fill="none" stroke="#c0392b" stroke-width="1.2" opacity="0.2"/>
<path d="M 1487.0 113.1 A 31.9 40.6 0 0 1 1545.0 113.1 A 31.9 40.6 0 0 1 1487.0 113.1 Z" fill="none" stroke="#c0392b" stroke-width="1.2" opacity="0.2"/>
<path d="M 1545.0 113.1 A 31.9 40.6 0 0 1 1603.0 113.1 A 31.9 40.6 0 0 1 1545.0 113.1 Z" fill="none" stroke="#c0392b" stroke-width="1.2" opacity="0.2"/>
<path d="M 1603.0 113.1 A 31.9 40.6 0 0 1 1661.0 113.1 A 31.9 40.6 0 0 1 1603.0 113.1 Z" fill="none" stroke="#c0392b" stroke-width="1.2" opacity="0.2"/>
<path d="M 820.0 150.8 A 31.9 40.6 0 0 1 878.0 150.8 A 31.9 40.6 0 0 1 820.0 150.8 Z" fill="none" stroke="#c0392b" stroke-width="1.2" opacity="0.2"/>
<path d="M 878.0 150.8 A 31.9 40.6 0 0 1 936.0 150.8 A 31.9 40.6 0 0 1 878.0 150.8 Z" fill="none" stroke="#c0392b" stroke-width="1.2" opacity="0.2"/>
<path d="M 936.0 150.8 A 31.9 40.6 0 0 1 994.0 150.8 A 31.9 40.6 0 0 1 936.0 150.8 Z" fill="none" stroke="#c0392b" stroke-width="1.2" opacity="0.2"/>
<path d="M 994.0 150.8 A 31.9 40.6 0 0 1 1052.0 150.8 A 31.9 40.6 0 0 1 994.0 150.8 Z" fill="none" stroke="#c0392b" stroke-width="1.2" opacity="0.2"/>
<path d="M 1052.0 150.8 A 31.9 40.6 0 0 1 1110.0 150.8 A 31.9 40.6 0 0 1 1052.0 150.8 Z" fill="none" stroke="#c0392b" stroke-width="1.2" opacity="0.2"/>
<path d="M 1110.0 150.8 A 31.9 40.6 0 0 1 1168.0 150.8 A 31.9 40.6 0 0 1 1110.0 150.8 Z" fill="none" stroke="#c0392b" stroke-width="1.2" opacity="0.2"/>
<path d="M 1168.0 150.8 A 31.9 40.6 0 0 1 1226.0 150.8 A 31.9 40.6 0 0 1 1168.0 150.8 Z" fill="none" stroke="#c0392b" stroke-width="1.2" opacity="0.2"/>
<path d="M 1226.0 150.8 A 31.9 40.6 0 0 1 1284.0 150.8 A 31.9 40.6 0 0 1 1226.0 150.8 Z" fill="none" stroke="#c0392b" stroke-width="1.2" opacity="0.2"/>
<path d="M 1284.0 150.8 A 31.9 40.6 0 0 1 1342.0 150.8 A 31.9 40.6 0 0 1 1284.0 150.8 Z" fill="none" stroke="#c0392b" stroke-width="1.2" opacity="0.2"/>
<path d="M 1342.0 150.8 A 31.9 40.6 0 0 1 1400.0 150.8 A 31.9 40.6 0 0 1 1342.0 150.8 Z" fill="none" stroke="#c0392b" stroke-width="1.2" opacity="0.2"/>
<path d="M 1400.0 150.8 A 31.9 40.6 0 0 1 1458.0 150.8 A 31.9 40.6 0 0 1 1400.0 150.8 Z" fill="none" stroke="#c0392b" stroke-width="1.2" opacity="0.2"/>
<path d="M 1458.0 150.8 A 31.9 40.6 0 0 1 1516.0 150.8 A 31.9 40.6 0 0 1 1458.0 150.8 Z" fill="none" stroke="#c0392b" stroke-width="1.2" opacity="0.2"/>
<path d="M 1516.0 150.8 A 31.9 40.6 0 0 1 1574.0 150.8 A 31.9 40.6 0 0 1 1516.0 150.8 Z" fill="none" stroke="#c0392b" stroke-width="1.2" opacity="0.2"/>
<path d="M 1574.0 150.8 A 31.9 40.6 0 0 1 1632.0 150.8 A 31.9 40.6 0 0 1 1574.0 150.8 Z" fill="none" stroke="#c0392b" stroke-width="1.2" opacity="0.2"/>
<path d="M 849.0 188.5 A 31.9 40.6 0 0 1 907.0 188.5 A 31.9 40.6 0 0 1 849.0 188.5 Z" fill="none" stroke="#c0392b" stroke-width="1.2" opacity="0.2"/>
<path d="M 907.0 188.5 A 31.9 40.6 0 0 1 965.0 188.5 A 31.9 40.6 0 0 1 907.0 188.5 Z" fill="none" stroke="#c0392b" stroke-width="1.2" opacity="0.2"/>
<path d="M 965.0 188.5 A 31.9 40.6 0 0 1 1023.0 188.5 A 31.9 40.6 0 0 1 965.0 188.5 Z" fill="none" stroke="#c0392b" stroke-width="1.2" opacity="0.2"/>
<path d="M 1023.0 188.5 A 31.9 40.6 0 0 1 1081.0 188.5 A 31.9 40.6 0 0 1 1023.0 188.5 Z" fill="none" stroke="#c0392b" stroke-width="1.2" opacity="0.2"/>
<path d="M 1081.0 188.5 A 31.9 40.6 0 0 1 1139.0 188.5 A 31.9 40.6 0 0 1 1081.0 188.5 Z" fill="none" stroke="#c0392b" stroke-width="1.2" opacity="0.2"/>
<path d="M 1139.0 188.5 A 31.9 40.6 0 0 1 1197.0 188.5 A 31.9 40.6 0 0 1 1139.0 188.5 Z" fill="none" stroke="#c0392b" stroke-width="1.2" opacity="0.2"/>
<path d="M 1197.0 188.5 A 31.9 40.6 0 0 1 1255.0 188.5 A 31.9 40.6 0 0 1 1197.0 188.5 Z" fill="none" stroke="#c0392b" stroke-width="1.2" opacity="0.2"/>
<path d="M 1255.0 188.5 A 31.9 40.6 0 0 1 1313.0 188.5 A 31.9 40.6 0 0 1 1255.0 188.5 Z" fill="none" stroke="#c0392b" stroke-width="1.2" opacity="0.2"/>
<path d="M 1313.0 188.5 A 31.9 40.6 0 0 1 1371.0 188.5 A 31.9 40.6 0 0 1 1313.0 188.5 Z" fill="none" stroke="#c0392b" stroke-width="1.2" opacity="0.2"/>
<path d="M 1371.0 188.5 A 31.9 40.6 0 0 1 1429.0 188.5 A 31.9 40.6 0 0 1 1371.0 188.5 Z" fill="none" stroke="#c0392b" stroke-width="1.2" opacity="0.2"/>
<path d="M 1429.0 188.5 A 31.9 40.6 0 0 1 1487.0 188.5 A 31.9 40.6 0 0 1 1429.0 188.5 Z" fill="none" stroke="#c0392b" stroke-width="1.2" opacity="0.2"/>
<path d="M 1487.0 188.5 A 31.9 40.6 0 0 1 1545.0 188.5 A 31.9 40.6 0 0 1 1487.0 188.5 Z" fill="none" stroke="#c0392b" stroke-width="1.2" opacity="0.2"/>
<path d="M 1545.0 188.5 A 31.9 40.6 0 0 1 1603.0 188.5 A 31.9 40.6 0 0 1 1545.0 188.5 Z" fill="none" stroke="#c0392b" stroke-width="1.2" opacity="0.2"/>
<path d="M 1603.0 188.5 A 31.9 40.6 0 0 1 1661.0 188.5 A 31.9 40.6 0 0 1 1603.0 188.5 Z" fill="none" stroke="#c0392b" stroke-width="1.2" opacity="0.2"/>
<path d="M 820.0 226.2 A 31.9 40.6 0 0 1 878.0 226.2 A 31.9 40.6 0 0 1 820.0 226.2 Z" fill="none" stroke="#c0392b" stroke-width="1.2" opacity="0.2"/>
<path d="M 878.0 226.2 A 31.9 40.6 0 0 1 936.0 226.2 A 31.9 40.6 0 0 1 878.0 226.2 Z" fill="none" stroke="#c0392b" stroke-width="1.2" opacity="0.2"/>
<path d="M 936.0 226.2 A 31.9 40.6 0 0 1 994.0 226.2 A 31.9 40.6 0 0 1 936.0 226.2 Z" fill="none" stroke="#c0392b" stroke-width="1.2" opacity="0.2"/>
<path d="M 994.0 226.2 A 31.9 40.6 0 0 1 1052.0 226.2 A 31.9 40.6 0 0 1 994.0 226.2 Z" fill="none" stroke="#c0392b" stroke-width="1.2" opacity="0.2"/>
<path d="M 1052.0 226.2 A 31.9 40.6 0 0 1 1110.0 226.2 A 31.9 40.6 0 0 1 1052.0 226.2 Z" fill="none" stroke="#c0392b" stroke-width="1.2" opacity="0.2"/>
<path d="M 1110.0 226.2 A 31.9 40.6 0 0 1 1168.0 226.2 A 31.9 40.6 0 0 1 1110.0 226.2 Z" fill="none" stroke="#c0392b" stroke-width="1.2" opacity="0.2"/>
<path d="M 1168.0 226.2 A 31.9 40.6 0 0 1 1226.0 226.2 A 31.9 40.6 0 0 1 1168.0 226.2 Z" fill="none" stroke="#c0392b" stroke-width="1.2" opacity="0.2"/>
<path d="M 1226.0 226.2 A 31.9 40.6 0 0 1 1284.0 226.2 A 31.9 40.6 0 0 1 1226.0 226.2 Z" fill="none" stroke="#c0392b" stroke-width="1.2" opacity="0.2"/>
<path d="M 1284.0 226.2 A 31.9 40.6 0 0 1 1342.0 226.2 A 31.9 40.6 0 0 1 1284.0 226.2 Z" fill="none" stroke="#c0392b" stroke-width="1.2" opacity="0.2"/>
<path d="M 1342.0 226.2 A 31.9 40.6 0 0 1 1400.0 226.2 A 31.9 40.6 0 0 1 1342.0 226.2 Z" fill="none" stroke="#c0392b" stroke-width="1.2" opacity="0.2"/>
<path d="M 1400.0 226.2 A 31.9 40.6 0 0 1 1458.0 226.2 A 31.9 40.6 0 0 1 1400.0 226.2 Z" fill="none" stroke="#c0392b" stroke-width="1.2" opacity="0.2"/>
<path d="M 1458.0 226.2 A 31.9 40.6 0 0 1 1516.0 226.2 A 31.9 40.6 0 0 1 1458.0 226.2 Z" fill="none" stroke="#c0392b" stroke-width="1.2" opacity="0.2"/>
<path d="M 1516.0 226.2 A 31.9 40.6 0 0 1 1574.0 226.2 A 31.9 40.6 0 0 1 1516.0 226.2 Z" fill="none" stroke="#c0392b" stroke-width="1.2" opacity="0.2"/>
<path d="M 1574.0 226.2 A 31.9 40.6 0 0 1 1632.0 226.2 A 31.9 40.6 0 0 1 1574.0 226.2 Z" fill="none" stroke="#c0392b" stroke-width="1.2" opacity="0.2"/>
<path d="M 849.0 263.9 A 31.9 40.6 0 0 1 907.0 263.9 A 31.9 40.6 0 0 1 849.0 263.9 Z" fill="none" stroke="#c0392b" stroke-width="1.2" opacity="0.2"/>
<path d="M 907.0 263.9 A 31.9 40.6 0 0 1 965.0 263.9 A 31.9 40.6 0 0 1 907.0 263.9 Z" fill="none" stroke="#c0392b" stroke-width="1.2" opacity="0.2"/>
<path d="M 965.0 263.9 A 31.9 40.6 0 0 1 1023.0 263.9 A 31.9 40.6 0 0 1 965.0 263.9 Z" fill="none" stroke="#c0392b" stroke-width="1.2" opacity="0.2"/>
<path d="M 1023.0 263.9 A 31.9 40.6 0 0 1 1081.0 263.9 A 31.9 40.6 0 0 1 1023.0 263.9 Z" fill="none" stroke="#c0392b" stroke-width="1.2" opacity="0.2"/>
<path d="M 1081.0 263.9 A 31.9 40.6 0 0 1 1139.0 263.9 A 31.9 40.6 0 0 1 1081.0 263.9 Z" fill="none" stroke="#c0392b" stroke-width="1.2" opacity="0.2"/>
<path d="M 1139.0 263.9 A 31.9 40.6 0 0 1 1197.0 263.9 A 31.9 40.6 0 0 1 1139.0 263.9 Z" fill="none" stroke="#c0392b" stroke-width="1.2" opacity="0.2"/>
<path d="M 1197.0 263.9 A 31.9 40.6 0 0 1 1255.0 263.9 A 31.9 40.6 0 0 1 1197.0 263.9 Z" fill="none" stroke="#c0392b" stroke-width="1.2" opacity="0.2"/>
<path d="M 1255.0 263.9 A 31.9 40.6 0 0 1 1313.0 263.9 A 31.9 40.6 0 0 1 1255.0 263.9 Z" fill="none" stroke="#c0392b" stroke-width="1.2" opacity="0.2"/>
<path d="M 1313.0 263.9 A 31.9 40.6 0 0 1 1371.0 263.9 A 31.9 40.6 0 0 1 1313.0 263.9 Z" fill="none" stroke="#c0392b" stroke-width="1.2" opacity="0.2"/>
<path d="M 1371.0 263.9 A 31.9 40.6 0 0 1 1429.0 263.9 A 31.9 40.6 0 0 1 1371.0 263.9 Z" fill="none" stroke="#c0392b" stroke-width="1.2" opacity="0.2"/>
<path d="M 1429.0 263.9 A 31.9 40.6 0 0 1 1487.0 263.9 A 31.9 40.6 0 0 1 1429.0 263.9 Z" fill="none" stroke="#c0392b" stroke-width="1.2" opacity="0.2"/>
<path d="M 1487.0 263.9 A 31.9 40.6 0 0 1 1545.0 263.9 A 31.9 40.6 0 0 1 1487.0 263.9 Z" fill="none" stroke="#c0392b" stroke-width="1.2" opacity="0.2"/>
<path d="M 1545.0 263.9 A 31.9 40.6 0 0 1 1603.0 263.9 A 31.9 40.6 0 0 1 1545.0 263.9 Z" fill="none" stroke="#c0392b" stroke-width="1.2" opacity="0.2"/>
<path d="M 1603.0 263.9 A 31.9 40.6 0 0 1 1661.0 263.9 A 31.9 40.6 0 0 1 1603.0 263.9 Z" fill="none" stroke="#c0392b" stroke-width="1.2" opacity="0.2"/>
<path d="M 820.0 301.6 A 31.9 40.6 0 0 1 878.0 301.6 A 31.9 40.6 0 0 1 820.0 301.6 Z" fill="none" stroke="#c0392b" stroke-width="1.2" opacity="0.2"/>
<path d="M 878.0 301.6 A 31.9 40.6 0 0 1 936.0 301.6 A 31.9 40.6 0 0 1 878.0 301.6 Z" fill="none" stroke="#c0392b" stroke-width="1.2" opacity="0.2"/>
<path d="M 936.0 301.6 A 31.9 40.6 0 0 1 994.0 301.6 A 31.9 40.6 0 0 1 936.0 301.6 Z" fill="none" stroke="#c0392b" stroke-width="1.2" opacity="0.2"/>
<path d="M 994.0 301.6 A 31.9 40.6 0 0 1 1052.0 301.6 A 31.9 40.6 0 0 1 994.0 301.6 Z" fill="none" stroke="#c0392b" stroke-width="1.2" opacity="0.2"/>
<path d="M 1052.0 301.6 A 31.9 40.6 0 0 1 1110.0 301.6 A 31.9 40.6 0 0 1 1052.0 301.6 Z" fill="none" stroke="#c0392b" stroke-width="1.2" opacity="0.2"/>
<path d="M 1110.0 301.6 A 31.9 40.6 0 0 1 1168.0 301.6 A 31.9 40.6 0 0 1 1110.0 301.6 Z" fill="none" stroke="#c0392b" stroke-width="1.2" opacity="0.2"/>
<path d="M 1168.0 301.6 A 31.9 40.6 0 0 1 1226.0 301.6 A 31.9 40.6 0 0 1 1168.0 301.6 Z" fill="none" stroke="#c0392b" stroke-width="1.2" opacity="0.2"/>
<path d="M 1226.0 301.6 A 31.9 40.6 0 0 1 1284.0 301.6 A 31.9 40.6 0 0 1 1226.0 301.6 Z" fill="none" stroke="#c0392b" stroke-width="1.2" opacity="0.2"/>
<path d="M 1284.0 301.6 A 31.9 40.6 0 0 1 1342.0 301.6 A 31.9 40.6 0 0 1 1284.0 301.6 Z" fill="none" stroke="#c0392b" stroke-width="1.2" opacity="0.2"/>
<path d="M 1342.0 301.6 A 31.9 40.6 0 0 1 1400.0 301.6 A 31.9 40.6 0 0 1 1342.0 301.6 Z" fill="none" stroke="#c0392b" stroke-width="1.2" opacity="0.2"/>
<path d="M 1400.0 301.6 A 31.9 40.6 0 0 1 1458.0 301.6 A 31.9 40.6 0 0 1 1400.0 301.6 Z" fill="none" stroke="#c0392b" stroke-width="1.2" opacity="0.2"/>
<path d="M 1458.0 301.6 A 31.9 40.6 0 0 1 1516.0 301.6 A 31.9 40.6 0 0 1 1458.0 301.6 Z" fill="none" stroke="#c0392b" stroke-width="1.2" opacity="0.2"/>
<path d="M 1516.0 301.6 A 31.9 40.6 0 0 1 1574.0 301.6 A 31.9 40.6 0 0 1 1516.0 301.6 Z" fill="none" stroke="#c0392b" stroke-width="1.2" opacity="0.2"/>
<path d="M 1574.0 301.6 A 31.9 40.6 0 0 1 1632.0 301.6 A 31.9 40.6 0 0 1 1574.0 301.6 Z" fill="none" stroke="#c0392b" stroke-width="1.2" opacity="0.2"/>
<path d="M 849.0 339.3 A 31.9 40.6 0 0 1 907.0 339.3 A 31.9 40.6 0 0 1 849.0 339.3 Z" fill="none" stroke="#c0392b" stroke-width="1.2" opacity="0.2"/>
<path d="M 907.0 339.3 A 31.9 40.6 0 0 1 965.0 339.3 A 31.9 40.6 0 0 1 907.0 339.3 Z" fill="none" stroke="#c0392b" stroke-width="1.2" opacity="0.2"/>
<path d="M 965.0 339.3 A 31.9 40.6 0 0 1 1023.0 339.3 A 31.9 40.6 0 0 1 965.0 339.3 Z" fill="none" stroke="#c0392b" stroke-width="1.2" opacity="0.2"/>
<path d="M 1023.0 339.3 A 31.9 40.6 0 0 1 1081.0 339.3 A 31.9 40.6 0 0 1 1023.0 339.3 Z" fill="none" stroke="#c0392b" stroke-width="1.2" opacity="0.2"/>
<path d="M 1081.0 339.3 A 31.9 40.6 0 0 1 1139.0 339.3 A 31.9 40.6 0 0 1 1081.0 339.3 Z" fill="none" stroke="#c0392b" stroke-width="1.2" opacity="0.2"/>
<path d="M 1139.0 339.3 A 31.9 40.6 0 0 1 1197.0 339.3 A 31.9 40.6 0 0 1 1139.0 339.3 Z" fill="none" stroke="#c0392b" stroke-width="1.2" opacity="0.2"/>
<path d="M 1197.0 339.3 A 31.9 40.6 0 0 1 1255.0 339.3 A 31.9 40.6 0 0 1 1197.0 339.3 Z" fill="none" stroke="#c0392b" stroke-width="1.2" opacity="0.2"/>
<path d="M 1255.0 339.3 A 31.9 40.6 0 0 1 1313.0 339.3 A 31.9 40.6 0 0 1 1255.0 339.3 Z" fill="none" stroke="#c0392b" stroke-width="1.2" opacity="0.2"/>
<path d="M 1313.0 339.3 A 31.9 40.6 0 0 1 1371.0 339.3 A 31.9 40.6 0 0 1 1313.0 339.3 Z" fill="none" stroke="#c0392b" stroke-width="1.2" opacity="0.2"/>
<path d="M 1371.0 339.3 A 31.9 40.6 0 0 1 1429.0 339.3 A 31.9 40.6 0 0 1 1371.0 339.3 Z" fill="none" stroke="#c0392b" stroke-width="1.2" opacity="0.2"/>
<path d="M 1429.0 339.3 A 31.9 40.6 0 0 1 1487.0 339.3 A 31.9 40.6 0 0 1 1429.0 339.3 Z" fill="none" stroke="#c0392b" stroke-width="1.2" opacity="0.2"/>
<path d="M 1487.0 339.3 A 31.9 40.6 0 0 1 1545.0 339.3 A 31.9 40.6 0 0 1 1487.0 339.3 Z" fill="none" stroke="#c0392b" stroke-width="1.2" opacity="0.2"/>
<path d="M 1545.0 339.3 A 31.9 40.6 0 0 1 1603.0 339.3 A 31.9 40.6 0 0 1 1545.0 339.3 Z" fill="none" stroke="#c0392b" stroke-width="1.2" opacity="0.2"/>
<path d="M 1603.0 339.3 A 31.9 40.6 0 0 1 1661.0 339.3 A 31.9 40.6 0 0 1 1603.0 339.3 Z" fill="none" stroke="#c0392b" stroke-width="1.2" opacity="0.2"/>
<path d="M 820.0 377.0 A 31.9 40.6 0 0 1 878.0 377.0 A 31.9 40.6 0 0 1 820.0 377.0 Z" fill="none" stroke="#c0392b" stroke-width="1.2" opacity="0.2"/>
<path d="M 878.0 377.0 A 31.9 40.6 0 0 1 936.0 377.0 A 31.9 40.6 0 0 1 878.0 377.0 Z" fill="none" stroke="#c0392b" stroke-width="1.2" opacity="0.2"/>
<path d="M 936.0 377.0 A 31.9 40.6 0 0 1 994.0 377.0 A 31.9 40.6 0 0 1 936.0 377.0 Z" fill="none" stroke="#c0392b" stroke-width="1.2" opacity="0.2"/>
<path d="M 994.0 377.0 A 31.9 40.6 0 0 1 1052.0 377.0 A 31.9 40.6 0 0 1 994.0 377.0 Z" fill="none" stroke="#c0392b" stroke-width="1.2" opacity="0.2"/>
<path d="M 1052.0 377.0 A 31.9 40.6 0 0 1 1110.0 377.0 A 31.9 40.6 0 0 1 1052.0 377.0 Z" fill="none" stroke="#c0392b" stroke-width="1.2" opacity="0.2"/>
<path d="M 1110.0 377.0 A 31.9 40.6 0 0 1 1168.0 377.0 A 31.9 40.6 0 0 1 1110.0 377.0 Z" fill="none" stroke="#c0392b" stroke-width="1.2" opacity="0.2"/>
<path d="M 1168.0 377.0 A 31.9 40.6 0 0 1 1226.0 377.0 A 31.9 40.6 0 0 1 1168.0 377.0 Z" fill="none" stroke="#c0392b" stroke-width="1.2" opacity="0.2"/>
<path d="M 1226.0 377.0 A 31.9 40.6 0 0 1 1284.0 377.0 A 31.9 40.6 0 0 1 1226.0 377.0 Z" fill="none" stroke="#c0392b" stroke-width="1.2" opacity="0.2"/>
<path d="M 1284.0 377.0 A 31.9 40.6 0 0 1 1342.0 377.0 A 31.9 40.6 0 0 1 1284.0 377.0 Z" fill="none" stroke="#c0392b" stroke-width="1.2" opacity="0.2"/>
<path d="M 1342.0 377.0 A 31.9 40.6 0 0 1 1400.0 377.0 A 31.9 40.6 0 0 1 1342.0 377.0 Z" fill="none" stroke="#c0392b" stroke-width="1.2" opacity="0.2"/>
<path d="M 1400.0 377.0 A 31.9 40.6 0 0 1 1458.0 377.0 A 31.9 40.6 0 0 1 1400.0 377.0 Z" fill="none" stroke="#c0392b" stroke-width="1.2" opacity="0.2"/>
<path d="M 1458.0 377.0 A 31.9 40.6 0 0 1 1516.0 377.0 A 31.9 40.6 0 0 1 1458.0 377.0 Z" fill="none" stroke="#c0392b" stroke-width="1.2" opacity="0.2"/>
<path d="M 1516.0 377.0 A 31.9 40.6 0 0 1 1574.0 377.0 A 31.9 40.6 0 0 1 1516.0 377.0 Z" fill="none" stroke="#c0392b" stroke-width="1.2" opacity="0.2"/>
<path d="M 1574.0 377.0 A 31.9 40.6 0 0 1 1632.0 377.0 A 31.9 40.6 0 0 1 1574.0 377.0 Z" fill="none" stroke="#c0392b" stroke-width="1.2" opacity="0.2"/>
<path d="M 849.0 414.7 A 31.9 40.6 0 0 1 907.0 414.7 A 31.9 40.6 0 0 1 849.0 414.7 Z" fill="none" stroke="#c0392b" stroke-width="1.2" opacity="0.2"/>
<path d="M 907.0 414.7 A 31.9 40.6 0 0 1 965.0 414.7 A 31.9 40.6 0 0 1 907.0 414.7 Z" fill="none" stroke="#c0392b" stroke-width="1.2" opacity="0.2"/>
<path d="M 965.0 414.7 A 31.9 40.6 0 0 1 1023.0 414.7 A 31.9 40.6 0 0 1 965.0 414.7 Z" fill="none" stroke="#c0392b" stroke-width="1.2" opacity="0.2"/>
<path d="M 1023.0 414.7 A 31.9 40.6 0 0 1 1081.0 414.7 A 31.9 40.6 0 0 1 1023.0 414.7 Z" fill="none" stroke="#c0392b" stroke-width="1.2" opacity="0.2"/>
<path d="M 1081.0 414.7 A 31.9 40.6 0 0 1 1139.0 414.7 A 31.9 40.6 0 0 1 1081.0 414.7 Z" fill="none" stroke="#c0392b" stroke-width="1.2" opacity="0.2"/>
<path d="M 1139.0 414.7 A 31.9 40.6 0 0 1 1197.0 414.7 A 31.9 40.6 0 0 1 1139.0 414.7 Z" fill="none" stroke="#c0392b" stroke-width="1.2" opacity="0.2"/>
<path d="M 1197.0 414.7 A 31.9 40.6 0 0 1 1255.0 414.7 A 31.9 40.6 0 0 1 1197.0 414.7 Z" fill="none" stroke="#c0392b" stroke-width="1.2" opacity="0.2"/>
<path d="M 1255.0 414.7 A 31.9 40.6 0 0 1 1313.0 414.7 A 31.9 40.6 0 0 1 1255.0 414.7 Z" fill="none" stroke="#c0392b" stroke-width="1.2" opacity="0.2"/>
<path d="M 1313.0 414.7 A 31.9 40.6 0 0 1 1371.0 414.7 A 31.9 40.6 0 0 1 1313.0 414.7 Z" fill="none" stroke="#c0392b" stroke-width="1.2" opacity="0.2"/>
<path d="M 1371.0 414.7 A 31.9 40.6 0 0 1 1429.0 414.7 A 31.9 40.6 0 0 1 1371.0 414.7 Z" fill="none" stroke="#c0392b" stroke-width="1.2" opacity="0.2"/>
<path d="M 1429.0 414.7 A 31.9 40.6 0 0 1 1487.0 414.7 A 31.9 40.6 0 0 1 1429.0 414.7 Z" fill="none" stroke="#c0392b" stroke-width="1.2" opacity="0.2"/>
<path d="M 1487.0 414.7 A 31.9 40.6 0 0 1 1545.0 414.7 A 31.9 40.6 0 0 1 1487.0 414.7 Z" fill="none" stroke="#c0392b" stroke-width="1.2" opacity="0.2"/>
<path d="M 1545.0 414.7 A 31.9 40.6 0 0 1 1603.0 414.7 A 31.9 40.6 0 0 1 1545.0 414.7 Z" fill="none" stroke="#c0392b" stroke-width="1.2" opacity="0.2"/>
<path d="M 1603.0 414.7 A 31.9 40.6 0 0 1 1661.0 414.7 A 31.9 40.6 0 0 1 1603.0 414.7 Z" fill="none" stroke="#c0392b" stroke-width="1.2" opacity="0.2"/>
<rect x="0" y="0" width="1640" height="8" fill="#c0392b"/>
<rect x="0" y="616" width="1640" height="8" fill="#c0392b"/>
<text x="820" y="180" font-family="Georgia, serif" font-size="104" font-weight="bold"
      fill="#f4f0e8" text-anchor="middle">TE PĀ TŪWATAWATA</text>
<text x="820" y="270" font-family="Arial, sans-serif" font-size="44"
      fill="#c0392b" text-anchor="middle" letter-spacing="6">UNAUNAHI · KOTAHITANGA</text>
<text x="820" y="340" font-family="Arial, sans-serif" font-size="30"
      fill="#f4f0e8" text-anchor="middle" opacity="0.7">Ko te mana, ko te raraunga, ko te reo</text>
<line x1="300" y1="380" x2="1340" y2="380" stroke="#c0392b" stroke-width="2" opacity="0.5"/>
<text x="820" y="440" font-family="Arial, sans-serif" font-size="26"
      fill="#f4f0e8" text-anchor="middle" opacity="0.55">AI Activism · Māori Data Sovereignty · Radical Pedagogy</text>
<text x="820" y="580" font-family="Arial, sans-serif" font-size="24"
      fill="#f4f0e8" text-anchor="middle" opacity="0.4">te-pa.org</text>

</svg>