<svg xmlns="http://www.w3.org/2000/svg" width="1200" height="630" viewBox="0 0 1200 630">
<rect width="1200" height="630" fill="#0d0d0d"/>
<polyline points="797.0,175.8 802.0,182.8 807.0,189.0 812.0,193.8 817.0,196.6 822.0,197.1 827.0,195.2 832.0,191.2 837.0,185.4 842.0,178.7 847.0,171.6 852.0,165.2 857.0,160.0 862.0,156.7 867.0,155.6 872.0,156.9 877.0,160.5 882.0,165.9 887.0,172.5 892.0,179.5 897.0,186.2 902.0,191.7 907.0,195.5 912.0,197.2 917.0,196.4 922.0,193.3 927.0,188.3 932.0,182.0 937.0,175.0 942.0,168.2 947.0,162.3 952.0,158.0 957.0,155.8 962.0,156.0 967.0,158.5 972.0,163.1 977.0,169.2 982.0,176.1 987.0,183.1 992.0,189.3 997.0,194.0 1002.0,196.7 1007.0,197.1 1012.0,195.1 1017.0,191.0 1022.0,185.2 1027.0,178.4 1032.0,171.4 1037.0,164.9 1042.0,159.8 1047.0,156.6 1052.0,155.6 1057.0,157.0 1062.0,160.7 1067.0,166.1 1072.0,172.7" fill="none" stroke="#1abc9c" stroke-width="1.5" opacity="0.6" stroke-linecap="round"/>
<polyline points="797.0,222.0 802.0,229.0 807.0,235.2 812.0,240.0 817.0,242.8 822.0,243.3 827.0,241.4 832.0,237.4 837.0,231.6 842.0,224.9 847.0,217.8 852.0,211.4 857.0,206.2 862.0,202.9 867.0,201.8 872.0,203.1 877.0,206.7 882.0,212.1 887.0,218.7 892.0,225.7 897.0,232.4 902.0,237.9 907.0,241.7 912.0,243.4 917.0,242.6 922.0,239.5 927.0,234.5 932.0,228.2 937.0,221.2 942.0,214.4 947.0,208.5 952.0,204.2 957.0,202.0 962.0,202.2 967.0,204.7 972.0,209.3 977.0,215.4 982.0,222.3 987.0,229.3 992.0,235.5 997.0,240.2 1002.0,242.9 1007.0,243.3 1012.0,241.3 1017.0,237.2 1022.0,231.4 1027.0,224.6 1032.0,217.6 1037.0,211.1 1042.0,206.0 1047.0,202.8 1052.0,201.8 1057.0,203.2 1062.0,206.9 1067.0,212.3 1072.0,218.9" fill="none" stroke="#1abc9c" stroke-width="1.5" opacity="0.6" stroke-linecap="round"/>
<polyline points="797.0,268.2 802.0,275.2 807.0,281.4 812.0,286.2 817.0,289.0 822.0,289.5 827.0,287.6 832.0,283.6 837.0,277.8 842.0,271.1 847.0,264.0 852.0,257.6 857.0,252.4 862.0,249.1 867.0,248.0 872.0,249.3 877.0,252.9 882.0,258.3 887.0,264.9 892.0,271.9 897.0,278.6 902.0,284.1 907.0,287.9 912.0,289.6 917.0,288.8 922.0,285.7 927.0,280.7 932.0,274.4 937.0,267.4 942.0,260.6 947.0,254.7 952.0,250.4 957.0,248.2 962.0,248.4 967.0,250.9 972.0,255.5 977.0,261.6 982.0,268.5 987.0,275.5 992.0,281.7 997.0,286.4 1002.0,289.1 1007.0,289.5 1012.0,287.5 1017.0,283.4 1022.0,277.6 1027.0,270.8 1032.0,263.8 1037.0,257.3 1042.0,252.2 1047.0,249.0 1052.0,248.0 1057.0,249.4 1062.0,253.1 1067.0,258.5 1072.0,265.1" fill="none" stroke="#1abc9c" stroke-width="1.5" opacity="0.6" stroke-linecap="round"/>
<polyline points="797.0,314.4 802.0,321.4 807.0,327.6 812.0,332.4 817.0,335.2 822.0,335.7 827.0,333.8 832.0,329.8 837.0,324.0 842.0,317.3 847.0,310.2 852.0,303.8 857.0,298.6 862.0,295.3 867.0,294.2 872.0,295.5 877.0,299.1 882.0,304.5 887.0,311.1 892.0,318.1 897.0,324.8 902.0,330.3 907.0,334.1 912.0,335.8 917.0,335.0 922.0,331.9 927.0,326.9 932.0,320.6 937.0,313.6 942.0,306.8 947.0,300.9 952.0,296.6 957.0,294.4 962.0,294.6 967.0,297.1 972.0,301.7 977.0,307.8 982.0,314.7 987.0,321.7 992.0,327.9 997.0,332.6 1002.0,335.3 1007.0,335.7 1012.0,333.7 1017.0,329.6 1022.0,323.8 1027.0,317.0 1032.0,310.0 1037.0,303.5 1042.0,298.4 1047.0,295.2 1052.0,294.2 1057.0,295.6 1062.0,299.3 1067.0,304.7 1072.0,311.3" fill="none" stroke="#1abc9c" stroke-width="2.5" opacity="0.9" stroke-linecap="round"/>
<polyline points="797.0,360.6 802.0,367.6 807.0,373.8 812.0,378.6 817.0,381.4 822.0,381.9 827.0,380.0 832.0,376.0 837.0,370.2 842.0,363.5 847.0,356.4 852.0,350.0 857.0,344.8 862.0,341.5 867.0,340.4 872.0,341.7 877.0,345.3 882.0,350.7 887.0,357.3 892.0,364.3 897.0,371.0 902.0,376.5 907.0,380.3 912.0,382.0 917.0,381.2 922.0,378.1 927.0,373.1 932.0,366.8 937.0,359.8 942.0,353.0 947.0,347.1 952.0,342.8 957.0,340.6 962.0,340.8 967.0,343.3 972.0,347.9 977.0,354.0 982.0,360.9 987.0,367.9 992.0,374.1 997.0,378.8 1002.0,381.5 1007.0,381.9 1012.0,379.9 1017.0,375.8 1022.0,370.0 1027.0,363.2 1032.0,356.2 1037.0,349.7 1042.0,344.6 1047.0,341.4 1052.0,340.4 1057.0,341.8 1062.0,345.5 1067.0,350.9 1072.0,357.5" fill="none" stroke="#1abc9c" stroke-width="1.5" opacity="0.6" stroke-linecap="round"/>
<polyline points="797.0,406.8 802.0,413.8 807.0,420.0 812.0,424.8 817.0,427.6 822.0,428.1 827.0,426.2 832.0,422.2 837.0,416.4 842.0,409.7 847.0,402.6 852.0,396.2 857.0,391.0 862.0,387.7 867.0,386.6 872.0,387.9 877.0,391.5 882.0,396.9 887.0,403.5 892.0,410.5 897.0,417.2 902.0,422.7 907.0,426.5 912.0,428.2 917.0,427.4 922.0,424.3 927.0,419.3 932.0,413.0 937.0,406.0 942.0,399.2 947.0,393.3 952.0,389.0 957.0,386.8 962.0,387.0 967.0,389.5 972.0,394.1 977.0,400.2 982.0,407.1 987.0,414.1 992.0,420.3 997.0,425.0 1002.0,427.7 1007.0,428.1 1012.0,426.1 1017.0,422.0 1022.0,416.2 1027.0,409.4 1032.0,402.4 1037.0,395.9 1042.0,390.8 1047.0,387.6 1052.0,386.6 1057.0,388.0 1062.0,391.7 1067.0,397.1 1072.0,403.7" fill="none" stroke="#1abc9c" stroke-width="1.5" opacity="0.6" stroke-linecap="round"/>
<polyline points="797.0,453.0 802.0,460.0 807.0,466.2 812.0,471.0 817.0,473.8 822.0,474.3 827.0,472.4 832.0,468.4 837.0,462.6 842.0,455.9 847.0,448.8 852.0,442.4 857.0,437.2 862.0,433.9 867.0,432.8 872.0,434.1 877.0,437.7 882.0,443.1 887.0,449.7 892.0,456.7 897.0,463.4 902.0,468.9 907.0,472.7 912.0,474.4 917.0,473.6 922.0,470.5 927.0,465.5 932.0,459.2 937.0,452.2 942.0,445.4 947.0,439.5 952.0,435.2 957.0,433.0 962.0,433.2 967.0,435.7 972.0,440.3 977.0,446.4 982.0,453.3 987.0,460.3 992.0,466.5 997.0,471.2 1002.0,473.9 1007.0,474.3 1012.0,472.3 1017.0,468.2 1022.0,462.4 1027.0,455.6 1032.0,448.6 1037.0,442.1 1042.0,437.0 1047.0,433.8 1052.0,432.8 1057.0,434.2 1062.0,437.9 1067.0,443.3 1072.0,449.9" fill="none" stroke="#1abc9c" stroke-width="1.5" opacity="0.6" stroke-linecap="round"/>
<rect x="0" y="0" width="1200" height="8" fill="#1abc9c"/>
<rect x="0" y="575" width="1200" height="55" fill="#0d0d0d"/>
<text x="456" y="113" font-family="Georgia,serif" font-size="56" font-weight="bold"
  fill="#f4f0e8" text-anchor="middle" dominant-baseline="middle">Aso</text>
<text x="456" y="202" font-family="Arial,sans-serif" font-size="40"
  font-weight="bold" fill="#1abc9c" text-anchor="middle" dominant-baseline="middle">COMMUNITY FIRST</text>
<text x="456" y="315" font-family="Arial,sans-serif" font-size="23"
  fill="#f4f0e8" text-anchor="middle" dominant-baseline="middle">Whakapapa and kinship over algorithm.</text>
<text x="456" y="403" font-family="Arial,sans-serif" font-size="17"
  fill="#f4f0e8" text-anchor="middle" dominant-baseline="middle" opacity="0.7">Horizontal lines — unity and equality</text>
<text x="600" y="603" font-family="Arial,sans-serif" font-size="15" font-weight="bold"
  fill="#f4f0e8" text-anchor="middle" dominant-baseline="middle">TE PĀ TŪWATAWATA · te-pa.org · Samoan</text>
</svg>