<svg xmlns="http://www.w3.org/2000/svg" width="1080" height="1080" viewBox="0 0 1080 1080">
<rect width="1080" height="1080" fill="#0d0d0d"/>
<polyline points="302.0,172.2 307.0,179.3 312.0,186.0 317.0,192.3 322.0,197.8 327.0,202.3 332.0,205.7 337.0,207.7 342.0,208.4 347.0,207.7 352.0,205.7 357.0,202.3 362.0,197.8 367.0,192.3 372.0,186.0 377.0,179.3 382.0,172.2 387.0,165.2 392.0,158.5 397.0,152.4 402.0,147.0 407.0,142.7 412.0,139.5 417.0,137.7 422.0,137.2 427.0,138.1 432.0,140.4 437.0,143.9 442.0,148.6 447.0,154.3 452.0,160.6 457.0,167.4 462.0,174.5 467.0,181.5 472.0,188.1 477.0,194.2 482.0,199.4 487.0,203.5 492.0,206.5 497.0,208.1 502.0,208.4 507.0,207.2 512.0,204.7 517.0,201.0 522.0,196.1 527.0,190.4 532.0,183.9 537.0,177.0 542.0,170.0 547.0,163.0 552.0,156.5 557.0,150.5 562.0,145.5 567.0,141.5 572.0,138.8 577.0,137.3 582.0,137.3 587.0,138.7 592.0,141.4 597.0,145.3 602.0,150.3 607.0,156.2 612.0,162.8 617.0,169.7 622.0,176.8 627.0,183.7 632.0,190.1 637.0,195.9 642.0,200.8 647.0,204.6 652.0,207.2 657.0,208.3 662.0,208.2 667.0,206.6 672.0,203.7 677.0,199.5 682.0,194.4 687.0,188.4 692.0,181.8 697.0,174.8 702.0,167.7 707.0,160.9 712.0,154.5 717.0,148.8 722.0,144.1 727.0,140.5 732.0,138.2 737.0,137.2 742.0,137.6 747.0,139.4 752.0,142.5 757.0,146.8 762.0,152.1 767.0,158.3 772.0,164.9 777.0,172.0" fill="none" stroke="#1abc9c" stroke-width="1.5" opacity="0.6" stroke-linecap="round"/>
<polyline points="302.0,251.4 307.0,258.5 312.0,265.2 317.0,271.5 322.0,277.0 327.0,281.5 332.0,284.9 337.0,286.9 342.0,287.6 347.0,286.9 352.0,284.9 357.0,281.5 362.0,277.0 367.0,271.5 372.0,265.2 377.0,258.5 382.0,251.4 387.0,244.4 392.0,237.7 397.0,231.6 402.0,226.2 407.0,221.9 412.0,218.7 417.0,216.9 422.0,216.4 427.0,217.3 432.0,219.6 437.0,223.1 442.0,227.8 447.0,233.5 452.0,239.8 457.0,246.6 462.0,253.7 467.0,260.7 472.0,267.3 477.0,273.4 482.0,278.6 487.0,282.7 492.0,285.7 497.0,287.3 502.0,287.6 507.0,286.4 512.0,283.9 517.0,280.2 522.0,275.3 527.0,269.6 532.0,263.1 537.0,256.2 542.0,249.2 547.0,242.2 552.0,235.7 557.0,229.7 562.0,224.7 567.0,220.7 572.0,218.0 577.0,216.5 582.0,216.5 587.0,217.9 592.0,220.6 597.0,224.5 602.0,229.5 607.0,235.4 612.0,242.0 617.0,248.9 622.0,256.0 627.0,262.9 632.0,269.3 637.0,275.1 642.0,280.0 647.0,283.8 652.0,286.4 657.0,287.5 662.0,287.4 667.0,285.8 672.0,282.9 677.0,278.7 682.0,273.6 687.0,267.6 692.0,261.0 697.0,254.0 702.0,246.9 707.0,240.1 712.0,233.7 717.0,228.0 722.0,223.3 727.0,219.7 732.0,217.4 737.0,216.4 742.0,216.8 747.0,218.6 752.0,221.7 757.0,226.0 762.0,231.3 767.0,237.5 772.0,244.1 777.0,251.2" fill="none" stroke="#1abc9c" stroke-width="1.5" opacity="0.6" stroke-linecap="round"/>
<polyline points="302.0,330.6 307.0,337.7 312.0,344.4 317.0,350.7 322.0,356.2 327.0,360.7 332.0,364.1 337.0,366.1 342.0,366.8 347.0,366.1 352.0,364.1 357.0,360.7 362.0,356.2 367.0,350.7 372.0,344.4 377.0,337.7 382.0,330.6 387.0,323.6 392.0,316.9 397.0,310.8 402.0,305.4 407.0,301.1 412.0,297.9 417.0,296.1 422.0,295.6 427.0,296.5 432.0,298.8 437.0,302.3 442.0,307.0 447.0,312.7 452.0,319.0 457.0,325.8 462.0,332.9 467.0,339.9 472.0,346.5 477.0,352.6 482.0,357.8 487.0,361.9 492.0,364.9 497.0,366.5 502.0,366.8 507.0,365.6 512.0,363.1 517.0,359.4 522.0,354.5 527.0,348.8 532.0,342.3 537.0,335.4 542.0,328.4 547.0,321.4 552.0,314.9 557.0,308.9 562.0,303.9 567.0,299.9 572.0,297.2 577.0,295.7 582.0,295.7 587.0,297.1 592.0,299.8 597.0,303.7 602.0,308.7 607.0,314.6 612.0,321.2 617.0,328.1 622.0,335.2 627.0,342.1 632.0,348.5 637.0,354.3 642.0,359.2 647.0,363.0 652.0,365.6 657.0,366.7 662.0,366.6 667.0,365.0 672.0,362.1 677.0,357.9 682.0,352.8 687.0,346.8 692.0,340.2 697.0,333.2 702.0,326.1 707.0,319.3 712.0,312.9 717.0,307.2 722.0,302.5 727.0,298.9 732.0,296.6 737.0,295.6 742.0,296.0 747.0,297.8 752.0,300.9 757.0,305.2 762.0,310.5 767.0,316.7 772.0,323.3 777.0,330.4" fill="none" stroke="#1abc9c" stroke-width="1.5" opacity="0.6" stroke-linecap="round"/>
<polyline points="302.0,409.8 307.0,416.9 312.0,423.6 317.0,429.9 322.0,435.4 327.0,439.9 332.0,443.3 337.0,445.3 342.0,446.0 347.0,445.3 352.0,443.3 357.0,439.9 362.0,435.4 367.0,429.9 372.0,423.6 377.0,416.9 382.0,409.8 387.0,402.8 392.0,396.1 397.0,390.0 402.0,384.6 407.0,380.3 412.0,377.1 417.0,375.3 422.0,374.8 427.0,375.7 432.0,378.0 437.0,381.5 442.0,386.2 447.0,391.9 452.0,398.2 457.0,405.0 462.0,412.1 467.0,419.1 472.0,425.7 477.0,431.8 482.0,437.0 487.0,441.1 492.0,444.1 497.0,445.7 502.0,446.0 507.0,444.8 512.0,442.3 517.0,438.6 522.0,433.7 527.0,428.0 532.0,421.5 537.0,414.6 542.0,407.6 547.0,400.6 552.0,394.1 557.0,388.1 562.0,383.1 567.0,379.1 572.0,376.4 577.0,374.9 582.0,374.9 587.0,376.3 592.0,379.0 597.0,382.9 602.0,387.9 607.0,393.8 612.0,400.4 617.0,407.3 622.0,414.4 627.0,421.3 632.0,427.7 637.0,433.5 642.0,438.4 647.0,442.2 652.0,444.8 657.0,445.9 662.0,445.8 667.0,444.2 672.0,441.3 677.0,437.1 682.0,432.0 687.0,426.0 692.0,419.4 697.0,412.4 702.0,405.3 707.0,398.5 712.0,392.1 717.0,386.4 722.0,381.7 727.0,378.1 732.0,375.8 737.0,374.8 742.0,375.2 747.0,377.0 752.0,380.1 757.0,384.4 762.0,389.7 767.0,395.9 772.0,402.5 777.0,409.6" fill="none" stroke="#1abc9c" stroke-width="2.5" opacity="0.9" stroke-linecap="round"/>
<polyline points="302.0,489.0 307.0,496.1 312.0,502.8 317.0,509.1 322.0,514.6 327.0,519.1 332.0,522.5 337.0,524.5 342.0,525.2 347.0,524.5 352.0,522.5 357.0,519.1 362.0,514.6 367.0,509.1 372.0,502.8 377.0,496.1 382.0,489.0 387.0,482.0 392.0,475.3 397.0,469.2 402.0,463.8 407.0,459.5 412.0,456.3 417.0,454.5 422.0,454.0 427.0,454.9 432.0,457.2 437.0,460.7 442.0,465.4 447.0,471.1 452.0,477.4 457.0,484.2 462.0,491.3 467.0,498.3 472.0,504.9 477.0,511.0 482.0,516.2 487.0,520.3 492.0,523.3 497.0,524.9 502.0,525.2 507.0,524.0 512.0,521.5 517.0,517.8 522.0,512.9 527.0,507.2 532.0,500.7 537.0,493.8 542.0,486.8 547.0,479.8 552.0,473.3 557.0,467.3 562.0,462.3 567.0,458.3 572.0,455.6 577.0,454.1 582.0,454.1 587.0,455.5 592.0,458.2 597.0,462.1 602.0,467.1 607.0,473.0 612.0,479.6 617.0,486.5 622.0,493.6 627.0,500.5 632.0,506.9 637.0,512.7 642.0,517.6 647.0,521.4 652.0,524.0 657.0,525.1 662.0,525.0 667.0,523.4 672.0,520.5 677.0,516.3 682.0,511.2 687.0,505.2 692.0,498.6 697.0,491.6 702.0,484.5 707.0,477.7 712.0,471.3 717.0,465.6 722.0,460.9 727.0,457.3 732.0,455.0 737.0,454.0 742.0,454.4 747.0,456.2 752.0,459.3 757.0,463.6 762.0,468.9 767.0,475.1 772.0,481.7 777.0,488.8" fill="none" stroke="#1abc9c" stroke-width="1.5" opacity="0.6" stroke-linecap="round"/>
<polyline points="302.0,568.2 307.0,575.3 312.0,582.0 317.0,588.3 322.0,593.8 327.0,598.3 332.0,601.7 337.0,603.7 342.0,604.4 347.0,603.7 352.0,601.7 357.0,598.3 362.0,593.8 367.0,588.3 372.0,582.0 377.0,575.3 382.0,568.2 387.0,561.2 392.0,554.5 397.0,548.4 402.0,543.0 407.0,538.7 412.0,535.5 417.0,533.7 422.0,533.2 427.0,534.1 432.0,536.4 437.0,539.9 442.0,544.6 447.0,550.3 452.0,556.6 457.0,563.4 462.0,570.5 467.0,577.5 472.0,584.1 477.0,590.2 482.0,595.4 487.0,599.5 492.0,602.5 497.0,604.1 502.0,604.4 507.0,603.2 512.0,600.7 517.0,597.0 522.0,592.1 527.0,586.4 532.0,579.9 537.0,573.0 542.0,566.0 547.0,559.0 552.0,552.5 557.0,546.5 562.0,541.5 567.0,537.5 572.0,534.8 577.0,533.3 582.0,533.3 587.0,534.7 592.0,537.4 597.0,541.3 602.0,546.3 607.0,552.2 612.0,558.8 617.0,565.7 622.0,572.8 627.0,579.7 632.0,586.1 637.0,591.9 642.0,596.8 647.0,600.6 652.0,603.2 657.0,604.3 662.0,604.2 667.0,602.6 672.0,599.7 677.0,595.5 682.0,590.4 687.0,584.4 692.0,577.8 697.0,570.8 702.0,563.7 707.0,556.9 712.0,550.5 717.0,544.8 722.0,540.1 727.0,536.5 732.0,534.2 737.0,533.2 742.0,533.6 747.0,535.4 752.0,538.5 757.0,542.8 762.0,548.1 767.0,554.3 772.0,560.9 777.0,568.0" fill="none" stroke="#1abc9c" stroke-width="1.5" opacity="0.6" stroke-linecap="round"/>
<polyline points="302.0,647.4 307.0,654.5 312.0,661.2 317.0,667.5 322.0,673.0 327.0,677.5 332.0,680.9 337.0,682.9 342.0,683.6 347.0,682.9 352.0,680.9 357.0,677.5 362.0,673.0 367.0,667.5 372.0,661.2 377.0,654.5 382.0,647.4 387.0,640.4 392.0,633.7 397.0,627.6 402.0,622.2 407.0,617.9 412.0,614.7 417.0,612.9 422.0,612.4 427.0,613.3 432.0,615.6 437.0,619.1 442.0,623.8 447.0,629.5 452.0,635.8 457.0,642.6 462.0,649.7 467.0,656.7 472.0,663.3 477.0,669.4 482.0,674.6 487.0,678.7 492.0,681.7 497.0,683.3 502.0,683.6 507.0,682.4 512.0,679.9 517.0,676.2 522.0,671.3 527.0,665.6 532.0,659.1 537.0,652.2 542.0,645.2 547.0,638.2 552.0,631.7 557.0,625.7 562.0,620.7 567.0,616.7 572.0,614.0 577.0,612.5 582.0,612.5 587.0,613.9 592.0,616.6 597.0,620.5 602.0,625.5 607.0,631.4 612.0,638.0 617.0,644.9 622.0,652.0 627.0,658.9 632.0,665.3 637.0,671.1 642.0,676.0 647.0,679.8 652.0,682.4 657.0,683.5 662.0,683.4 667.0,681.8 672.0,678.9 677.0,674.7 682.0,669.6 687.0,663.6 692.0,657.0 697.0,650.0 702.0,642.9 707.0,636.1 712.0,629.7 717.0,624.0 722.0,619.3 727.0,615.7 732.0,613.4 737.0,612.4 742.0,612.8 747.0,614.6 752.0,617.7 757.0,622.0 762.0,627.3 767.0,633.5 772.0,640.1 777.0,647.2" fill="none" stroke="#1abc9c" stroke-width="1.5" opacity="0.6" stroke-linecap="round"/>
<rect x="0" y="0" width="1080" height="13" fill="#1abc9c"/>
<rect x="0" y="1003" width="1080" height="77" fill="#0d0d0d"/>
<text x="540" y="670" font-family="Georgia,serif" font-size="70" font-weight="bold"
  fill="#f4f0e8" text-anchor="middle" dominant-baseline="middle">Aso</text>
<text x="540" y="756" font-family="Arial,sans-serif" font-size="48"
  font-weight="bold" fill="#1abc9c" text-anchor="middle" dominant-baseline="middle">IDENTITY IS POWER</text>
<text x="540" y="842" font-family="Arial,sans-serif" font-size="30"
  fill="#f4f0e8" text-anchor="middle" dominant-baseline="middle">Culture encoded in every line.</text>
<text x="540" y="929" font-family="Arial,sans-serif" font-size="23"
  fill="#f4f0e8" text-anchor="middle" dominant-baseline="middle" opacity="0.7">Horizontal lines — unity and equality</text>
<text x="540" y="1042" font-family="Arial,sans-serif" font-size="19" font-weight="bold"
  fill="#f4f0e8" text-anchor="middle" dominant-baseline="middle">TE PĀ TŪWATAWATA · te-pa.org · Samoan</text>
</svg>