<svg xmlns="http://www.w3.org/2000/svg" width="1754" height="1240" viewBox="0 0 1754 1240">
<title>Unaunahi — The Kiwi Dialectic</title>

<rect width="1754" height="1240" fill="#0d0d0d"/>
<!-- scale field -->
<path d="M 0.0 0.0 A 39.6 50.4 0 0 1 72.0 0.0 A 39.6 50.4 0 0 1 0.0 0.0 Z" fill="#1a1a1a" stroke="#f4f0e8" stroke-width="0.9" opacity="0.55"/>
<path d="M 72.0 0.0 A 39.6 50.4 0 0 1 144.0 0.0 A 39.6 50.4 0 0 1 72.0 0.0 Z" fill="#1a1a1a" stroke="#f4f0e8" stroke-width="0.9" opacity="0.55"/>
<path d="M 144.0 0.0 A 39.6 50.4 0 0 1 216.0 0.0 A 39.6 50.4 0 0 1 144.0 0.0 Z" fill="#1a1a1a" stroke="#f4f0e8" stroke-width="0.9" opacity="0.55"/>
<path d="M 216.0 0.0 A 39.6 50.4 0 0 1 288.0 0.0 A 39.6 50.4 0 0 1 216.0 0.0 Z" fill="#1a1a1a" stroke="#f4f0e8" stroke-width="0.9" opacity="0.55"/>
<path d="M 288.0 0.0 A 39.6 50.4 0 0 1 360.0 0.0 A 39.6 50.4 0 0 1 288.0 0.0 Z" fill="#1a1a1a" stroke="#f4f0e8" stroke-width="0.9" opacity="0.55"/>
<path d="M 360.0 0.0 A 39.6 50.4 0 0 1 432.0 0.0 A 39.6 50.4 0 0 1 360.0 0.0 Z" fill="#1a1a1a" stroke="#f4f0e8" stroke-width="0.9" opacity="0.55"/>
<path d="M 432.0 0.0 A 39.6 50.4 0 0 1 504.0 0.0 A 39.6 50.4 0 0 1 432.0 0.0 Z" fill="#1a1a1a" stroke="#f4f0e8" stroke-width="0.9" opacity="0.55"/>
<path d="M 504.0 0.0 A 39.6 50.4 0 0 1 576.0 0.0 A 39.6 50.4 0 0 1 504.0 0.0 Z" fill="#1a1a1a" stroke="#f4f0e8" stroke-width="0.9" opacity="0.55"/>
<path d="M 576.0 0.0 A 39.6 50.4 0 0 1 648.0 0.0 A 39.6 50.4 0 0 1 576.0 0.0 Z" fill="#1a1a1a" stroke="#f4f0e8" stroke-width="0.9" opacity="0.55"/>
<path d="M 648.0 0.0 A 39.6 50.4 0 0 1 720.0 0.0 A 39.6 50.4 0 0 1 648.0 0.0 Z" fill="#1a1a1a" stroke="#f4f0e8" stroke-width="0.9" opacity="0.55"/>
<path d="M 720.0 0.0 A 39.6 50.4 0 0 1 792.0 0.0 A 39.6 50.4 0 0 1 720.0 0.0 Z" fill="#1a1a1a" stroke="#f4f0e8" stroke-width="0.9" opacity="0.55"/>
<path d="M 792.0 0.0 A 39.6 50.4 0 0 1 864.0 0.0 A 39.6 50.4 0 0 1 792.0 0.0 Z" fill="#1a1a1a" stroke="#f4f0e8" stroke-width="0.9" opacity="0.55"/>
<path d="M 864.0 0.0 A 39.6 50.4 0 0 1 936.0 0.0 A 39.6 50.4 0 0 1 864.0 0.0 Z" fill="#1a1a1a" stroke="#f4f0e8" stroke-width="0.9" opacity="0.55"/>
<path d="M 936.0 0.0 A 39.6 50.4 0 0 1 1008.0 0.0 A 39.6 50.4 0 0 1 936.0 0.0 Z" fill="#1a1a1a" stroke="#f4f0e8" stroke-width="0.9" opacity="0.55"/>
<path d="M 1008.0 0.0 A 39.6 50.4 0 0 1 1080.0 0.0 A 39.6 50.4 0 0 1 1008.0 0.0 Z" fill="#1a1a1a" stroke="#f4f0e8" stroke-width="0.9" opacity="0.55"/>
<path d="M 1080.0 0.0 A 39.6 50.4 0 0 1 1152.0 0.0 A 39.6 50.4 0 0 1 1080.0 0.0 Z" fill="#1a1a1a" stroke="#f4f0e8" stroke-width="0.9" opacity="0.55"/>
<path d="M 1152.0 0.0 A 39.6 50.4 0 0 1 1224.0 0.0 A 39.6 50.4 0 0 1 1152.0 0.0 Z" fill="#1a1a1a" stroke="#f4f0e8" stroke-width="0.9" opacity="0.55"/>
<path d="M 1224.0 0.0 A 39.6 50.4 0 0 1 1296.0 0.0 A 39.6 50.4 0 0 1 1224.0 0.0 Z" fill="#1a1a1a" stroke="#f4f0e8" stroke-width="0.9" opacity="0.55"/>
<path d="M 1296.0 0.0 A 39.6 50.4 0 0 1 1368.0 0.0 A 39.6 50.4 0 0 1 1296.0 0.0 Z" fill="#1a1a1a" stroke="#f4f0e8" stroke-width="0.9" opacity="0.55"/>
<path d="M 1368.0 0.0 A 39.6 50.4 0 0 1 1440.0 0.0 A 39.6 50.4 0 0 1 1368.0 0.0 Z" fill="#1a1a1a" stroke="#f4f0e8" stroke-width="0.9" opacity="0.55"/>
<path d="M 1440.0 0.0 A 39.6 50.4 0 0 1 1512.0 0.0 A 39.6 50.4 0 0 1 1440.0 0.0 Z" fill="#1a1a1a" stroke="#f4f0e8" stroke-width="0.9" opacity="0.55"/>
<path d="M 1512.0 0.0 A 39.6 50.4 0 0 1 1584.0 0.0 A 39.6 50.4 0 0 1 1512.0 0.0 Z" fill="#1a1a1a" stroke="#f4f0e8" stroke-width="0.9" opacity="0.55"/>
<path d="M 1584.0 0.0 A 39.6 50.4 0 0 1 1656.0 0.0 A 39.6 50.4 0 0 1 1584.0 0.0 Z" fill="#1a1a1a" stroke="#f4f0e8" stroke-width="0.9" opacity="0.55"/>
<path d="M 1656.0 0.0 A 39.6 50.4 0 0 1 1728.0 0.0 A 39.6 50.4 0 0 1 1656.0 0.0 Z" fill="#1a1a1a" stroke="#f4f0e8" stroke-width="0.9" opacity="0.55"/>
<path d="M 1728.0 0.0 A 39.6 50.4 0 0 1 1800.0 0.0 A 39.6 50.4 0 0 1 1728.0 0.0 Z" fill="#1a1a1a" stroke="#f4f0e8" stroke-width="0.9" opacity="0.55"/>
<path d="M 1800.0 0.0 A 39.6 50.4 0 0 1 1872.0 0.0 A 39.6 50.4 0 0 1 1800.0 0.0 Z" fill="#1a1a1a" stroke="#f4f0e8" stroke-width="0.9" opacity="0.55"/>
<path d="M 36.0 46.8 A 39.6 50.4 0 0 1 108.0 46.8 A 39.6 50.4 0 0 1 36.0 46.8 Z" fill="#1a1a1a" stroke="#f4f0e8" stroke-width="0.9" opacity="0.55"/>
<path d="M 108.0 46.8 A 39.6 50.4 0 0 1 180.0 46.8 A 39.6 50.4 0 0 1 108.0 46.8 Z" fill="#1a1a1a" stroke="#f4f0e8" stroke-width="0.9" opacity="0.55"/>
<path d="M 180.0 46.8 A 39.6 50.4 0 0 1 252.0 46.8 A 39.6 50.4 0 0 1 180.0 46.8 Z" fill="#1a1a1a" stroke="#f4f0e8" stroke-width="0.9" opacity="0.55"/>
<path d="M 252.0 46.8 A 39.6 50.4 0 0 1 324.0 46.8 A 39.6 50.4 0 0 1 252.0 46.8 Z" fill="#1a1a1a" stroke="#f4f0e8" stroke-width="0.9" opacity="0.55"/>
<path d="M 324.0 46.8 A 39.6 50.4 0 0 1 396.0 46.8 A 39.6 50.4 0 0 1 324.0 46.8 Z" fill="#1a1a1a" stroke="#f4f0e8" stroke-width="0.9" opacity="0.55"/>
<path d="M 396.0 46.8 A 39.6 50.4 0 0 1 468.0 46.8 A 39.6 50.4 0 0 1 396.0 46.8 Z" fill="#1a1a1a" stroke="#f4f0e8" stroke-width="0.9" opacity="0.55"/>
<path d="M 468.0 46.8 A 39.6 50.4 0 0 1 540.0 46.8 A 39.6 50.4 0 0 1 468.0 46.8 Z" fill="#1a1a1a" stroke="#f4f0e8" stroke-width="0.9" opacity="0.55"/>
<path d="M 540.0 46.8 A 39.6 50.4 0 0 1 612.0 46.8 A 39.6 50.4 0 0 1 540.0 46.8 Z" fill="#1a1a1a" stroke="#f4f0e8" stroke-width="0.9" opacity="0.55"/>
<path d="M 612.0 46.8 A 39.6 50.4 0 0 1 684.0 46.8 A 39.6 50.4 0 0 1 612.0 46.8 Z" fill="#1a1a1a" stroke="#f4f0e8" stroke-width="0.9" opacity="0.55"/>
<path d="M 684.0 46.8 A 39.6 50.4 0 0 1 756.0 46.8 A 39.6 50.4 0 0 1 684.0 46.8 Z" fill="#1a1a1a" stroke="#f4f0e8" stroke-width="0.9" opacity="0.55"/>
<path d="M 756.0 46.8 A 39.6 50.4 0 0 1 828.0 46.8 A 39.6 50.4 0 0 1 756.0 46.8 Z" fill="#1a1a1a" stroke="#f4f0e8" stroke-width="0.9" opacity="0.55"/>
<path d="M 828.0 46.8 A 39.6 50.4 0 0 1 900.0 46.8 A 39.6 50.4 0 0 1 828.0 46.8 Z" fill="#1a1a1a" stroke="#f4f0e8" stroke-width="0.9" opacity="0.55"/>
<path d="M 900.0 46.8 A 39.6 50.4 0 0 1 972.0 46.8 A 39.6 50.4 0 0 1 900.0 46.8 Z" fill="#1a1a1a" stroke="#f4f0e8" stroke-width="0.9" opacity="0.55"/>
<path d="M 972.0 46.8 A 39.6 50.4 0 0 1 1044.0 46.8 A 39.6 50.4 0 0 1 972.0 46.8 Z" fill="#1a1a1a" stroke="#f4f0e8" stroke-width="0.9" opacity="0.55"/>
<path d="M 1044.0 46.8 A 39.6 50.4 0 0 1 1116.0 46.8 A 39.6 50.4 0 0 1 1044.0 46.8 Z" fill="#1a1a1a" stroke="#f4f0e8" stroke-width="0.9" opacity="0.55"/>
<path d="M 1116.0 46.8 A 39.6 50.4 0 0 1 1188.0 46.8 A 39.6 50.4 0 0 1 1116.0 46.8 Z" fill="#1a1a1a" stroke="#f4f0e8" stroke-width="0.9" opacity="0.55"/>
<path d="M 1188.0 46.8 A 39.6 50.4 0 0 1 1260.0 46.8 A 39.6 50.4 0 0 1 1188.0 46.8 Z" fill="#1a1a1a" stroke="#f4f0e8" stroke-width="0.9" opacity="0.55"/>
<path d="M 1260.0 46.8 A 39.6 50.4 0 0 1 1332.0 46.8 A 39.6 50.4 0 0 1 1260.0 46.8 Z" fill="#1a1a1a" stroke="#f4f0e8" stroke-width="0.9" opacity="0.55"/>
<path d="M 1332.0 46.8 A 39.6 50.4 0 0 1 1404.0 46.8 A 39.6 50.4 0 0 1 1332.0 46.8 Z" fill="#1a1a1a" stroke="#f4f0e8" stroke-width="0.9" opacity="0.55"/>
<path d="M 1404.0 46.8 A 39.6 50.4 0 0 1 1476.0 46.8 A 39.6 50.4 0 0 1 1404.0 46.8 Z" fill="#1a1a1a" stroke="#f4f0e8" stroke-width="0.9" opacity="0.55"/>
<path d="M 1476.0 46.8 A 39.6 50.4 0 0 1 1548.0 46.8 A 39.6 50.4 0 0 1 1476.0 46.8 Z" fill="#1a1a1a" stroke="#f4f0e8" stroke-width="0.9" opacity="0.55"/>
<path d="M 1548.0 46.8 A 39.6 50.4 0 0 1 1620.0 46.8 A 39.6 50.4 0 0 1 1548.0 46.8 Z" fill="#1a1a1a" stroke="#f4f0e8" stroke-width="0.9" opacity="0.55"/>
<path d="M 1620.0 46.8 A 39.6 50.4 0 0 1 1692.0 46.8 A 39.6 50.4 0 0 1 1620.0 46.8 Z" fill="#1a1a1a" stroke="#f4f0e8" stroke-width="0.9" opacity="0.55"/>
<path d="M 1692.0 46.8 A 39.6 50.4 0 0 1 1764.0 46.8 A 39.6 50.4 0 0 1 1692.0 46.8 Z" fill="#1a1a1a" stroke="#f4f0e8" stroke-width="0.9" opacity="0.55"/>
<path d="M 1764.0 46.8 A 39.6 50.4 0 0 1 1836.0 46.8 A 39.6 50.4 0 0 1 1764.0 46.8 Z" fill="#1a1a1a" stroke="#f4f0e8" stroke-width="0.9" opacity="0.55"/>
<path d="M 1836.0 46.8 A 39.6 50.4 0 0 1 1908.0 46.8 A 39.6 50.4 0 0 1 1836.0 46.8 Z" fill="#1a1a1a" stroke="#f4f0e8" stroke-width="0.9" opacity="0.55"/>
<path d="M 0.0 93.6 A 39.6 50.4 0 0 1 72.0 93.6 A 39.6 50.4 0 0 1 0.0 93.6 Z" fill="#1a1a1a" stroke="#f4f0e8" stroke-width="0.9" opacity="0.55"/>
<path d="M 72.0 93.6 A 39.6 50.4 0 0 1 144.0 93.6 A 39.6 50.4 0 0 1 72.0 93.6 Z" fill="#1a1a1a" stroke="#f4f0e8" stroke-width="0.9" opacity="0.55"/>
<path d="M 144.0 93.6 A 39.6 50.4 0 0 1 216.0 93.6 A 39.6 50.4 0 0 1 144.0 93.6 Z" fill="#1a1a1a" stroke="#f4f0e8" stroke-width="0.9" opacity="0.55"/>
<path d="M 216.0 93.6 A 39.6 50.4 0 0 1 288.0 93.6 A 39.6 50.4 0 0 1 216.0 93.6 Z" fill="#1a1a1a" stroke="#f4f0e8" stroke-width="0.9" opacity="0.55"/>
<path d="M 288.0 93.6 A 39.6 50.4 0 0 1 360.0 93.6 A 39.6 50.4 0 0 1 288.0 93.6 Z" fill="#1a1a1a" stroke="#f4f0e8" stroke-width="0.9" opacity="0.55"/>
<path d="M 360.0 93.6 A 39.6 50.4 0 0 1 432.0 93.6 A 39.6 50.4 0 0 1 360.0 93.6 Z" fill="#1a1a1a" stroke="#f4f0e8" stroke-width="0.9" opacity="0.55"/>
<path d="M 432.0 93.6 A 39.6 50.4 0 0 1 504.0 93.6 A 39.6 50.4 0 0 1 432.0 93.6 Z" fill="#1a1a1a" stroke="#f4f0e8" stroke-width="0.9" opacity="0.55"/>
<path d="M 504.0 93.6 A 39.6 50.4 0 0 1 576.0 93.6 A 39.6 50.4 0 0 1 504.0 93.6 Z" fill="#1a1a1a" stroke="#f4f0e8" stroke-width="0.9" opacity="0.55"/>
<path d="M 576.0 93.6 A 39.6 50.4 0 0 1 648.0 93.6 A 39.6 50.4 0 0 1 576.0 93.6 Z" fill="#1a1a1a" stroke="#f4f0e8" stroke-width="0.9" opacity="0.55"/>
<path d="M 648.0 93.6 A 39.6 50.4 0 0 1 720.0 93.6 A 39.6 50.4 0 0 1 648.0 93.6 Z" fill="#1a1a1a" stroke="#f4f0e8" stroke-width="0.9" opacity="0.55"/>
<path d="M 720.0 93.6 A 39.6 50.4 0 0 1 792.0 93.6 A 39.6 50.4 0 0 1 720.0 93.6 Z" fill="#1a1a1a" stroke="#f4f0e8" stroke-width="0.9" opacity="0.55"/>
<path d="M 792.0 93.6 A 39.6 50.4 0 0 1 864.0 93.6 A 39.6 50.4 0 0 1 792.0 93.6 Z" fill="#1a1a1a" stroke="#f4f0e8" stroke-width="0.9" opacity="0.55"/>
<path d="M 864.0 93.6 A 39.6 50.4 0 0 1 936.0 93.6 A 39.6 50.4 0 0 1 864.0 93.6 Z" fill="#1a1a1a" stroke="#f4f0e8" stroke-width="0.9" opacity="0.55"/>
<path d="M 936.0 93.6 A 39.6 50.4 0 0 1 1008.0 93.6 A 39.6 50.4 0 0 1 936.0 93.6 Z" fill="#1a1a1a" stroke="#f4f0e8" stroke-width="0.9" opacity="0.55"/>
<path d="M 1008.0 93.6 A 39.6 50.4 0 0 1 1080.0 93.6 A 39.6 50.4 0 0 1 1008.0 93.6 Z" fill="#1a1a1a" stroke="#f4f0e8" stroke-width="0.9" opacity="0.55"/>
<path d="M 1080.0 93.6 A 39.6 50.4 0 0 1 1152.0 93.6 A 39.6 50.4 0 0 1 1080.0 93.6 Z" fill="#1a1a1a" stroke="#f4f0e8" stroke-width="0.9" opacity="0.55"/>
<path d="M 1152.0 93.6 A 39.6 50.4 0 0 1 1224.0 93.6 A 39.6 50.4 0 0 1 1152.0 93.6 Z" fill="#1a1a1a" stroke="#f4f0e8" stroke-width="0.9" opacity="0.55"/>
<path d="M 1224.0 93.6 A 39.6 50.4 0 0 1 1296.0 93.6 A 39.6 50.4 0 0 1 1224.0 93.6 Z" fill="#1a1a1a" stroke="#f4f0e8" stroke-width="0.9" opacity="0.55"/>
<path d="M 1296.0 93.6 A 39.6 50.4 0 0 1 1368.0 93.6 A 39.6 50.4 0 0 1 1296.0 93.6 Z" fill="#1a1a1a" stroke="#f4f0e8" stroke-width="0.9" opacity="0.55"/>
<path d="M 1368.0 93.6 A 39.6 50.4 0 0 1 1440.0 93.6 A 39.6 50.4 0 0 1 1368.0 93.6 Z" fill="#1a1a1a" stroke="#f4f0e8" stroke-width="0.9" opacity="0.55"/>
<path d="M 1440.0 93.6 A 39.6 50.4 0 0 1 1512.0 93.6 A 39.6 50.4 0 0 1 1440.0 93.6 Z" fill="#1a1a1a" stroke="#f4f0e8" stroke-width="0.9" opacity="0.55"/>
<path d="M 1512.0 93.6 A 39.6 50.4 0 0 1 1584.0 93.6 A 39.6 50.4 0 0 1 1512.0 93.6 Z" fill="#1a1a1a" stroke="#f4f0e8" stroke-width="0.9" opacity="0.55"/>
<path d="M 1584.0 93.6 A 39.6 50.4 0 0 1 1656.0 93.6 A 39.6 50.4 0 0 1 1584.0 93.6 Z" fill="#1a1a1a" stroke="#f4f0e8" stroke-width="0.9" opacity="0.55"/>
<path d="M 1656.0 93.6 A 39.6 50.4 0 0 1 1728.0 93.6 A 39.6 50.4 0 0 1 1656.0 93.6 Z" fill="#1a1a1a" stroke="#f4f0e8" stroke-width="0.9" opacity="0.55"/>
<path d="M 1728.0 93.6 A 39.6 50.4 0 0 1 1800.0 93.6 A 39.6 50.4 0 0 1 1728.0 93.6 Z" fill="#1a1a1a" stroke="#f4f0e8" stroke-width="0.9" opacity="0.55"/>
<path d="M 1800.0 93.6 A 39.6 50.4 0 0 1 1872.0 93.6 A 39.6 50.4 0 0 1 1800.0 93.6 Z" fill="#1a1a1a" stroke="#f4f0e8" stroke-width="0.9" opacity="0.55"/>
<path d="M 36.0 140.4 A 39.6 50.4 0 0 1 108.0 140.4 A 39.6 50.4 0 0 1 36.0 140.4 Z" fill="#1a1a1a" stroke="#f4f0e8" stroke-width="0.9" opacity="0.55"/>
<path d="M 108.0 140.4 A 39.6 50.4 0 0 1 180.0 140.4 A 39.6 50.4 0 0 1 108.0 140.4 Z" fill="#1a1a1a" stroke="#f4f0e8" stroke-width="0.9" opacity="0.55"/>
<path d="M 180.0 140.4 A 39.6 50.4 0 0 1 252.0 140.4 A 39.6 50.4 0 0 1 180.0 140.4 Z" fill="#1a1a1a" stroke="#f4f0e8" stroke-width="0.9" opacity="0.55"/>
<path d="M 252.0 140.4 A 39.6 50.4 0 0 1 324.0 140.4 A 39.6 50.4 0 0 1 252.0 140.4 Z" fill="#1a1a1a" stroke="#f4f0e8" stroke-width="0.9" opacity="0.55"/>
<path d="M 324.0 140.4 A 39.6 50.4 0 0 1 396.0 140.4 A 39.6 50.4 0 0 1 324.0 140.4 Z" fill="#1a1a1a" stroke="#f4f0e8" stroke-width="0.9" opacity="0.55"/>
<path d="M 396.0 140.4 A 39.6 50.4 0 0 1 468.0 140.4 A 39.6 50.4 0 0 1 396.0 140.4 Z" fill="#1a1a1a" stroke="#f4f0e8" stroke-width="0.9" opacity="0.55"/>
<path d="M 468.0 140.4 A 39.6 50.4 0 0 1 540.0 140.4 A 39.6 50.4 0 0 1 468.0 140.4 Z" fill="#1a1a1a" stroke="#f4f0e8" stroke-width="0.9" opacity="0.55"/>
<path d="M 540.0 140.4 A 39.6 50.4 0 0 1 612.0 140.4 A 39.6 50.4 0 0 1 540.0 140.4 Z" fill="#1a1a1a" stroke="#f4f0e8" stroke-width="0.9" opacity="0.55"/>
<path d="M 612.0 140.4 A 39.6 50.4 0 0 1 684.0 140.4 A 39.6 50.4 0 0 1 612.0 140.4 Z" fill="#1a1a1a" stroke="#f4f0e8" stroke-width="0.9" opacity="0.55"/>
<path d="M 684.0 140.4 A 39.6 50.4 0 0 1 756.0 140.4 A 39.6 50.4 0 0 1 684.0 140.4 Z" fill="#1a1a1a" stroke="#f4f0e8" stroke-width="0.9" opacity="0.55"/>
<path d="M 756.0 140.4 A 39.6 50.4 0 0 1 828.0 140.4 A 39.6 50.4 0 0 1 756.0 140.4 Z" fill="#1a1a1a" stroke="#f4f0e8" stroke-width="0.9" opacity="0.55"/>
<path d="M 828.0 140.4 A 39.6 50.4 0 0 1 900.0 140.4 A 39.6 50.4 0 0 1 828.0 140.4 Z" fill="#1a1a1a" stroke="#f4f0e8" stroke-width="0.9" opacity="0.55"/>
<path d="M 900.0 140.4 A 39.6 50.4 0 0 1 972.0 140.4 A 39.6 50.4 0 0 1 900.0 140.4 Z" fill="#1a1a1a" stroke="#f4f0e8" stroke-width="0.9" opacity="0.55"/>
<path d="M 972.0 140.4 A 39.6 50.4 0 0 1 1044.0 140.4 A 39.6 50.4 0 0 1 972.0 140.4 Z" fill="#1a1a1a" stroke="#f4f0e8" stroke-width="0.9" opacity="0.55"/>
<path d="M 1044.0 140.4 A 39.6 50.4 0 0 1 1116.0 140.4 A 39.6 50.4 0 0 1 1044.0 140.4 Z" fill="#1a1a1a" stroke="#f4f0e8" stroke-width="0.9" opacity="0.55"/>
<path d="M 1116.0 140.4 A 39.6 50.4 0 0 1 1188.0 140.4 A 39.6 50.4 0 0 1 1116.0 140.4 Z" fill="#1a1a1a" stroke="#f4f0e8" stroke-width="0.9" opacity="0.55"/>
<path d="M 1188.0 140.4 A 39.6 50.4 0 0 1 1260.0 140.4 A 39.6 50.4 0 0 1 1188.0 140.4 Z" fill="#1a1a1a" stroke="#f4f0e8" stroke-width="0.9" opacity="0.55"/>
<path d="M 1260.0 140.4 A 39.6 50.4 0 0 1 1332.0 140.4 A 39.6 50.4 0 0 1 1260.0 140.4 Z" fill="#1a1a1a" stroke="#f4f0e8" stroke-width="0.9" opacity="0.55"/>
<path d="M 1332.0 140.4 A 39.6 50.4 0 0 1 1404.0 140.4 A 39.6 50.4 0 0 1 1332.0 140.4 Z" fill="#1a1a1a" stroke="#f4f0e8" stroke-width="0.9" opacity="0.55"/>
<path d="M 1404.0 140.4 A 39.6 50.4 0 0 1 1476.0 140.4 A 39.6 50.4 0 0 1 1404.0 140.4 Z" fill="#1a1a1a" stroke="#f4f0e8" stroke-width="0.9" opacity="0.55"/>
<path d="M 1476.0 140.4 A 39.6 50.4 0 0 1 1548.0 140.4 A 39.6 50.4 0 0 1 1476.0 140.4 Z" fill="#1a1a1a" stroke="#f4f0e8" stroke-width="0.9" opacity="0.55"/>
<path d="M 1548.0 140.4 A 39.6 50.4 0 0 1 1620.0 140.4 A 39.6 50.4 0 0 1 1548.0 140.4 Z" fill="#1a1a1a" stroke="#f4f0e8" stroke-width="0.9" opacity="0.55"/>
<path d="M 1620.0 140.4 A 39.6 50.4 0 0 1 1692.0 140.4 A 39.6 50.4 0 0 1 1620.0 140.4 Z" fill="#1a1a1a" stroke="#f4f0e8" stroke-width="0.9" opacity="0.55"/>
<path d="M 1692.0 140.4 A 39.6 50.4 0 0 1 1764.0 140.4 A 39.6 50.4 0 0 1 1692.0 140.4 Z" fill="#1a1a1a" stroke="#f4f0e8" stroke-width="0.9" opacity="0.55"/>
<path d="M 1764.0 140.4 A 39.6 50.4 0 0 1 1836.0 140.4 A 39.6 50.4 0 0 1 1764.0 140.4 Z" fill="#1a1a1a" stroke="#f4f0e8" stroke-width="0.9" opacity="0.55"/>
<path d="M 1836.0 140.4 A 39.6 50.4 0 0 1 1908.0 140.4 A 39.6 50.4 0 0 1 1836.0 140.4 Z" fill="#1a1a1a" stroke="#f4f0e8" stroke-width="0.9" opacity="0.55"/>
<path d="M 0.0 187.2 A 39.6 50.4 0 0 1 72.0 187.2 A 39.6 50.4 0 0 1 0.0 187.2 Z" fill="#1a1a1a" stroke="#f4f0e8" stroke-width="0.9" opacity="0.55"/>
<path d="M 72.0 187.2 A 39.6 50.4 0 0 1 144.0 187.2 A 39.6 50.4 0 0 1 72.0 187.2 Z" fill="#1a1a1a" stroke="#f4f0e8" stroke-width="0.9" opacity="0.55"/>
<path d="M 144.0 187.2 A 39.6 50.4 0 0 1 216.0 187.2 A 39.6 50.4 0 0 1 144.0 187.2 Z" fill="#1a1a1a" stroke="#f4f0e8" stroke-width="0.9" opacity="0.55"/>
<path d="M 216.0 187.2 A 39.6 50.4 0 0 1 288.0 187.2 A 39.6 50.4 0 0 1 216.0 187.2 Z" fill="#1a1a1a" stroke="#f4f0e8" stroke-width="0.9" opacity="0.55"/>
<path d="M 288.0 187.2 A 39.6 50.4 0 0 1 360.0 187.2 A 39.6 50.4 0 0 1 288.0 187.2 Z" fill="#1a1a1a" stroke="#f4f0e8" stroke-width="0.9" opacity="0.55"/>
<path d="M 360.0 187.2 A 39.6 50.4 0 0 1 432.0 187.2 A 39.6 50.4 0 0 1 360.0 187.2 Z" fill="#1a1a1a" stroke="#f4f0e8" stroke-width="0.9" opacity="0.55"/>
<path d="M 432.0 187.2 A 39.6 50.4 0 0 1 504.0 187.2 A 39.6 50.4 0 0 1 432.0 187.2 Z" fill="#1a1a1a" stroke="#f4f0e8" stroke-width="0.9" opacity="0.55"/>
<path d="M 504.0 187.2 A 39.6 50.4 0 0 1 576.0 187.2 A 39.6 50.4 0 0 1 504.0 187.2 Z" fill="#1a1a1a" stroke="#f4f0e8" stroke-width="0.9" opacity="0.55"/>
<path d="M 576.0 187.2 A 39.6 50.4 0 0 1 648.0 187.2 A 39.6 50.4 0 0 1 576.0 187.2 Z" fill="#1a1a1a" stroke="#f4f0e8" stroke-width="0.9" opacity="0.55"/>
<path d="M 648.0 187.2 A 39.6 50.4 0 0 1 720.0 187.2 A 39.6 50.4 0 0 1 648.0 187.2 Z" fill="#1a1a1a" stroke="#f4f0e8" stroke-width="0.9" opacity="0.55"/>
<path d="M 720.0 187.2 A 39.6 50.4 0 0 1 792.0 187.2 A 39.6 50.4 0 0 1 720.0 187.2 Z" fill="#1a1a1a" stroke="#f4f0e8" stroke-width="0.9" opacity="0.55"/>
<path d="M 792.0 187.2 A 39.6 50.4 0 0 1 864.0 187.2 A 39.6 50.4 0 0 1 792.0 187.2 Z" fill="#1a1a1a" stroke="#f4f0e8" stroke-width="0.9" opacity="0.55"/>
<path d="M 864.0 187.2 A 39.6 50.4 0 0 1 936.0 187.2 A 39.6 50.4 0 0 1 864.0 187.2 Z" fill="#1a1a1a" stroke="#f4f0e8" stroke-width="0.9" opacity="0.55"/>
<path d="M 936.0 187.2 A 39.6 50.4 0 0 1 1008.0 187.2 A 39.6 50.4 0 0 1 936.0 187.2 Z" fill="#1a1a1a" stroke="#f4f0e8" stroke-width="0.9" opacity="0.55"/>
<path d="M 1008.0 187.2 A 39.6 50.4 0 0 1 1080.0 187.2 A 39.6 50.4 0 0 1 1008.0 187.2 Z" fill="#1a1a1a" stroke="#f4f0e8" stroke-width="0.9" opacity="0.55"/>
<path d="M 1080.0 187.2 A 39.6 50.4 0 0 1 1152.0 187.2 A 39.6 50.4 0 0 1 1080.0 187.2 Z" fill="#1a1a1a" stroke="#f4f0e8" stroke-width="0.9" opacity="0.55"/>
<path d="M 1152.0 187.2 A 39.6 50.4 0 0 1 1224.0 187.2 A 39.6 50.4 0 0 1 1152.0 187.2 Z" fill="#1a1a1a" stroke="#f4f0e8" stroke-width="0.9" opacity="0.55"/>
<path d="M 1224.0 187.2 A 39.6 50.4 0 0 1 1296.0 187.2 A 39.6 50.4 0 0 1 1224.0 187.2 Z" fill="#1a1a1a" stroke="#f4f0e8" stroke-width="0.9" opacity="0.55"/>
<path d="M 1296.0 187.2 A 39.6 50.4 0 0 1 1368.0 187.2 A 39.6 50.4 0 0 1 1296.0 187.2 Z" fill="#1a1a1a" stroke="#f4f0e8" stroke-width="0.9" opacity="0.55"/>
<path d="M 1368.0 187.2 A 39.6 50.4 0 0 1 1440.0 187.2 A 39.6 50.4 0 0 1 1368.0 187.2 Z" fill="#1a1a1a" stroke="#f4f0e8" stroke-width="0.9" opacity="0.55"/>
<path d="M 1440.0 187.2 A 39.6 50.4 0 0 1 1512.0 187.2 A 39.6 50.4 0 0 1 1440.0 187.2 Z" fill="#1a1a1a" stroke="#f4f0e8" stroke-width="0.9" opacity="0.55"/>
<path d="M 1512.0 187.2 A 39.6 50.4 0 0 1 1584.0 187.2 A 39.6 50.4 0 0 1 1512.0 187.2 Z" fill="#1a1a1a" stroke="#f4f0e8" stroke-width="0.9" opacity="0.55"/>
<path d="M 1584.0 187.2 A 39.6 50.4 0 0 1 1656.0 187.2 A 39.6 50.4 0 0 1 1584.0 187.2 Z" fill="#1a1a1a" stroke="#f4f0e8" stroke-width="0.9" opacity="0.55"/>
<path d="M 1656.0 187.2 A 39.6 50.4 0 0 1 1728.0 187.2 A 39.6 50.4 0 0 1 1656.0 187.2 Z" fill="#1a1a1a" stroke="#f4f0e8" stroke-width="0.9" opacity="0.55"/>
<path d="M 1728.0 187.2 A 39.6 50.4 0 0 1 1800.0 187.2 A 39.6 50.4 0 0 1 1728.0 187.2 Z" fill="#1a1a1a" stroke="#f4f0e8" stroke-width="0.9" opacity="0.55"/>
<path d="M 1800.0 187.2 A 39.6 50.4 0 0 1 1872.0 187.2 A 39.6 50.4 0 0 1 1800.0 187.2 Z" fill="#1a1a1a" stroke="#f4f0e8" stroke-width="0.9" opacity="0.55"/>
<path d="M 36.0 234.0 A 39.6 50.4 0 0 1 108.0 234.0 A 39.6 50.4 0 0 1 36.0 234.0 Z" fill="#1a1a1a" stroke="#f4f0e8" stroke-width="0.9" opacity="0.55"/>
<path d="M 108.0 234.0 A 39.6 50.4 0 0 1 180.0 234.0 A 39.6 50.4 0 0 1 108.0 234.0 Z" fill="#1a1a1a" stroke="#f4f0e8" stroke-width="0.9" opacity="0.55"/>
<path d="M 180.0 234.0 A 39.6 50.4 0 0 1 252.0 234.0 A 39.6 50.4 0 0 1 180.0 234.0 Z" fill="#1a1a1a" stroke="#f4f0e8" stroke-width="0.9" opacity="0.55"/>
<path d="M 252.0 234.0 A 39.6 50.4 0 0 1 324.0 234.0 A 39.6 50.4 0 0 1 252.0 234.0 Z" fill="#1a1a1a" stroke="#f4f0e8" stroke-width="0.9" opacity="0.55"/>
<path d="M 324.0 234.0 A 39.6 50.4 0 0 1 396.0 234.0 A 39.6 50.4 0 0 1 324.0 234.0 Z" fill="#1a1a1a" stroke="#f4f0e8" stroke-width="0.9" opacity="0.55"/>
<path d="M 396.0 234.0 A 39.6 50.4 0 0 1 468.0 234.0 A 39.6 50.4 0 0 1 396.0 234.0 Z" fill="#1a1a1a" stroke="#f4f0e8" stroke-width="0.9" opacity="0.55"/>
<path d="M 468.0 234.0 A 39.6 50.4 0 0 1 540.0 234.0 A 39.6 50.4 0 0 1 468.0 234.0 Z" fill="#1a1a1a" stroke="#f4f0e8" stroke-width="0.9" opacity="0.55"/>
<path d="M 540.0 234.0 A 39.6 50.4 0 0 1 612.0 234.0 A 39.6 50.4 0 0 1 540.0 234.0 Z" fill="#1a1a1a" stroke="#f4f0e8" stroke-width="0.9" opacity="0.55"/>
<path d="M 612.0 234.0 A 39.6 50.4 0 0 1 684.0 234.0 A 39.6 50.4 0 0 1 612.0 234.0 Z" fill="#1a1a1a" stroke="#f4f0e8" stroke-width="0.9" opacity="0.55"/>
<path d="M 684.0 234.0 A 39.6 50.4 0 0 1 756.0 234.0 A 39.6 50.4 0 0 1 684.0 234.0 Z" fill="#1a1a1a" stroke="#f4f0e8" stroke-width="0.9" opacity="0.55"/>
<path d="M 756.0 234.0 A 39.6 50.4 0 0 1 828.0 234.0 A 39.6 50.4 0 0 1 756.0 234.0 Z" fill="#1a1a1a" stroke="#f4f0e8" stroke-width="0.9" opacity="0.55"/>
<path d="M 828.0 234.0 A 39.6 50.4 0 0 1 900.0 234.0 A 39.6 50.4 0 0 1 828.0 234.0 Z" fill="#1a1a1a" stroke="#f4f0e8" stroke-width="0.9" opacity="0.55"/>
<path d="M 900.0 234.0 A 39.6 50.4 0 0 1 972.0 234.0 A 39.6 50.4 0 0 1 900.0 234.0 Z" fill="#1a1a1a" stroke="#f4f0e8" stroke-width="0.9" opacity="0.55"/>
<path d="M 972.0 234.0 A 39.6 50.4 0 0 1 1044.0 234.0 A 39.6 50.4 0 0 1 972.0 234.0 Z" fill="#1a1a1a" stroke="#f4f0e8" stroke-width="0.9" opacity="0.55"/>
<path d="M 1044.0 234.0 A 39.6 50.4 0 0 1 1116.0 234.0 A 39.6 50.4 0 0 1 1044.0 234.0 Z" fill="#1a1a1a" stroke="#f4f0e8" stroke-width="0.9" opacity="0.55"/>
<path d="M 1116.0 234.0 A 39.6 50.4 0 0 1 1188.0 234.0 A 39.6 50.4 0 0 1 1116.0 234.0 Z" fill="#1a1a1a" stroke="#f4f0e8" stroke-width="0.9" opacity="0.55"/>
<path d="M 1188.0 234.0 A 39.6 50.4 0 0 1 1260.0 234.0 A 39.6 50.4 0 0 1 1188.0 234.0 Z" fill="#1a1a1a" stroke="#f4f0e8" stroke-width="0.9" opacity="0.55"/>
<path d="M 1260.0 234.0 A 39.6 50.4 0 0 1 1332.0 234.0 A 39.6 50.4 0 0 1 1260.0 234.0 Z" fill="#1a1a1a" stroke="#f4f0e8" stroke-width="0.9" opacity="0.55"/>
<path d="M 1332.0 234.0 A 39.6 50.4 0 0 1 1404.0 234.0 A 39.6 50.4 0 0 1 1332.0 234.0 Z" fill="#1a1a1a" stroke="#f4f0e8" stroke-width="0.9" opacity="0.55"/>
<path d="M 1404.0 234.0 A 39.6 50.4 0 0 1 1476.0 234.0 A 39.6 50.4 0 0 1 1404.0 234.0 Z" fill="#1a1a1a" stroke="#f4f0e8" stroke-width="0.9" opacity="0.55"/>
<path d="M 1476.0 234.0 A 39.6 50.4 0 0 1 1548.0 234.0 A 39.6 50.4 0 0 1 1476.0 234.0 Z" fill="#1a1a1a" stroke="#f4f0e8" stroke-width="0.9" opacity="0.55"/>
<path d="M 1548.0 234.0 A 39.6 50.4 0 0 1 1620.0 234.0 A 39.6 50.4 0 0 1 1548.0 234.0 Z" fill="#1a1a1a" stroke="#f4f0e8" stroke-width="0.9" opacity="0.55"/>
<path d="M 1620.0 234.0 A 39.6 50.4 0 0 1 1692.0 234.0 A 39.6 50.4 0 0 1 1620.0 234.0 Z" fill="#1a1a1a" stroke="#f4f0e8" stroke-width="0.9" opacity="0.55"/>
<path d="M 1692.0 234.0 A 39.6 50.4 0 0 1 1764.0 234.0 A 39.6 50.4 0 0 1 1692.0 234.0 Z" fill="#1a1a1a" stroke="#f4f0e8" stroke-width="0.9" opacity="0.55"/>
<path d="M 1764.0 234.0 A 39.6 50.4 0 0 1 1836.0 234.0 A 39.6 50.4 0 0 1 1764.0 234.0 Z" fill="#1a1a1a" stroke="#f4f0e8" stroke-width="0.9" opacity="0.55"/>
<path d="M 1836.0 234.0 A 39.6 50.4 0 0 1 1908.0 234.0 A 39.6 50.4 0 0 1 1836.0 234.0 Z" fill="#1a1a1a" stroke="#f4f0e8" stroke-width="0.9" opacity="0.55"/>
<path d="M 0.0 280.8 A 39.6 50.4 0 0 1 72.0 280.8 A 39.6 50.4 0 0 1 0.0 280.8 Z" fill="#1a1a1a" stroke="#f4f0e8" stroke-width="0.9" opacity="0.55"/>
<path d="M 72.0 280.8 A 39.6 50.4 0 0 1 144.0 280.8 A 39.6 50.4 0 0 1 72.0 280.8 Z" fill="#1a1a1a" stroke="#f4f0e8" stroke-width="0.9" opacity="0.55"/>
<path d="M 144.0 280.8 A 39.6 50.4 0 0 1 216.0 280.8 A 39.6 50.4 0 0 1 144.0 280.8 Z" fill="#1a1a1a" stroke="#f4f0e8" stroke-width="0.9" opacity="0.55"/>
<path d="M 216.0 280.8 A 39.6 50.4 0 0 1 288.0 280.8 A 39.6 50.4 0 0 1 216.0 280.8 Z" fill="#1a1a1a" stroke="#f4f0e8" stroke-width="0.9" opacity="0.55"/>
<path d="M 288.0 280.8 A 39.6 50.4 0 0 1 360.0 280.8 A 39.6 50.4 0 0 1 288.0 280.8 Z" fill="#1a1a1a" stroke="#f4f0e8" stroke-width="0.9" opacity="0.55"/>
<path d="M 360.0 280.8 A 39.6 50.4 0 0 1 432.0 280.8 A 39.6 50.4 0 0 1 360.0 280.8 Z" fill="#1a1a1a" stroke="#f4f0e8" stroke-width="0.9" opacity="0.55"/>
<path d="M 432.0 280.8 A 39.6 50.4 0 0 1 504.0 280.8 A 39.6 50.4 0 0 1 432.0 280.8 Z" fill="#1a1a1a" stroke="#f4f0e8" stroke-width="0.9" opacity="0.55"/>
<path d="M 504.0 280.8 A 39.6 50.4 0 0 1 576.0 280.8 A 39.6 50.4 0 0 1 504.0 280.8 Z" fill="#1a1a1a" stroke="#f4f0e8" stroke-width="0.9" opacity="0.55"/>
<path d="M 576.0 280.8 A 39.6 50.4 0 0 1 648.0 280.8 A 39.6 50.4 0 0 1 576.0 280.8 Z" fill="#1a1a1a" stroke="#f4f0e8" stroke-width="0.9" opacity="0.55"/>
<path d="M 648.0 280.8 A 39.6 50.4 0 0 1 720.0 280.8 A 39.6 50.4 0 0 1 648.0 280.8 Z" fill="#1a1a1a" stroke="#f4f0e8" stroke-width="0.9" opacity="0.55"/>
<path d="M 720.0 280.8 A 39.6 50.4 0 0 1 792.0 280.8 A 39.6 50.4 0 0 1 720.0 280.8 Z" fill="#1a1a1a" stroke="#f4f0e8" stroke-width="0.9" opacity="0.55"/>
<path d="M 792.0 280.8 A 39.6 50.4 0 0 1 864.0 280.8 A 39.6 50.4 0 0 1 792.0 280.8 Z" fill="#1a1a1a" stroke="#f4f0e8" stroke-width="0.9" opacity="0.55"/>
<path d="M 864.0 280.8 A 39.6 50.4 0 0 1 936.0 280.8 A 39.6 50.4 0 0 1 864.0 280.8 Z" fill="#1a1a1a" stroke="#f4f0e8" stroke-width="0.9" opacity="0.55"/>
<path d="M 936.0 280.8 A 39.6 50.4 0 0 1 1008.0 280.8 A 39.6 50.4 0 0 1 936.0 280.8 Z" fill="#1a1a1a" stroke="#f4f0e8" stroke-width="0.9" opacity="0.55"/>
<path d="M 1008.0 280.8 A 39.6 50.4 0 0 1 1080.0 280.8 A 39.6 50.4 0 0 1 1008.0 280.8 Z" fill="#1a1a1a" stroke="#f4f0e8" stroke-width="0.9" opacity="0.55"/>
<path d="M 1080.0 280.8 A 39.6 50.4 0 0 1 1152.0 280.8 A 39.6 50.4 0 0 1 1080.0 280.8 Z" fill="#1a1a1a" stroke="#f4f0e8" stroke-width="0.9" opacity="0.55"/>
<path d="M 1152.0 280.8 A 39.6 50.4 0 0 1 1224.0 280.8 A 39.6 50.4 0 0 1 1152.0 280.8 Z" fill="#1a1a1a" stroke="#f4f0e8" stroke-width="0.9" opacity="0.55"/>
<path d="M 1224.0 280.8 A 39.6 50.4 0 0 1 1296.0 280.8 A 39.6 50.4 0 0 1 1224.0 280.8 Z" fill="#1a1a1a" stroke="#f4f0e8" stroke-width="0.9" opacity="0.55"/>
<path d="M 1296.0 280.8 A 39.6 50.4 0 0 1 1368.0 280.8 A 39.6 50.4 0 0 1 1296.0 280.8 Z" fill="#1a1a1a" stroke="#f4f0e8" stroke-width="0.9" opacity="0.55"/>
<path d="M 1368.0 280.8 A 39.6 50.4 0 0 1 1440.0 280.8 A 39.6 50.4 0 0 1 1368.0 280.8 Z" fill="#1a1a1a" stroke="#f4f0e8" stroke-width="0.9" opacity="0.55"/>
<path d="M 1440.0 280.8 A 39.6 50.4 0 0 1 1512.0 280.8 A 39.6 50.4 0 0 1 1440.0 280.8 Z" fill="#1a1a1a" stroke="#f4f0e8" stroke-width="0.9" opacity="0.55"/>
<path d="M 1512.0 280.8 A 39.6 50.4 0 0 1 1584.0 280.8 A 39.6 50.4 0 0 1 1512.0 280.8 Z" fill="#1a1a1a" stroke="#f4f0e8" stroke-width="0.9" opacity="0.55"/>
<path d="M 1584.0 280.8 A 39.6 50.4 0 0 1 1656.0 280.8 A 39.6 50.4 0 0 1 1584.0 280.8 Z" fill="#1a1a1a" stroke="#f4f0e8" stroke-width="0.9" opacity="0.55"/>
<path d="M 1656.0 280.8 A 39.6 50.4 0 0 1 1728.0 280.8 A 39.6 50.4 0 0 1 1656.0 280.8 Z" fill="#1a1a1a" stroke="#f4f0e8" stroke-width="0.9" opacity="0.55"/>
<path d="M 1728.0 280.8 A 39.6 50.4 0 0 1 1800.0 280.8 A 39.6 50.4 0 0 1 1728.0 280.8 Z" fill="#1a1a1a" stroke="#f4f0e8" stroke-width="0.9" opacity="0.55"/>
<path d="M 1800.0 280.8 A 39.6 50.4 0 0 1 1872.0 280.8 A 39.6 50.4 0 0 1 1800.0 280.8 Z" fill="#1a1a1a" stroke="#f4f0e8" stroke-width="0.9" opacity="0.55"/>
<path d="M 36.0 327.6 A 39.6 50.4 0 0 1 108.0 327.6 A 39.6 50.4 0 0 1 36.0 327.6 Z" fill="#1a1a1a" stroke="#f4f0e8" stroke-width="0.9" opacity="0.55"/>
<path d="M 108.0 327.6 A 39.6 50.4 0 0 1 180.0 327.6 A 39.6 50.4 0 0 1 108.0 327.6 Z" fill="#1a1a1a" stroke="#f4f0e8" stroke-width="0.9" opacity="0.55"/>
<path d="M 180.0 327.6 A 39.6 50.4 0 0 1 252.0 327.6 A 39.6 50.4 0 0 1 180.0 327.6 Z" fill="#1a1a1a" stroke="#f4f0e8" stroke-width="0.9" opacity="0.55"/>
<path d="M 252.0 327.6 A 39.6 50.4 0 0 1 324.0 327.6 A 39.6 50.4 0 0 1 252.0 327.6 Z" fill="#1a1a1a" stroke="#f4f0e8" stroke-width="0.9" opacity="0.55"/>
<path d="M 324.0 327.6 A 39.6 50.4 0 0 1 396.0 327.6 A 39.6 50.4 0 0 1 324.0 327.6 Z" fill="#1a1a1a" stroke="#f4f0e8" stroke-width="0.9" opacity="0.55"/>
<path d="M 396.0 327.6 A 39.6 50.4 0 0 1 468.0 327.6 A 39.6 50.4 0 0 1 396.0 327.6 Z" fill="#1a1a1a" stroke="#f4f0e8" stroke-width="0.9" opacity="0.55"/>
<path d="M 468.0 327.6 A 39.6 50.4 0 0 1 540.0 327.6 A 39.6 50.4 0 0 1 468.0 327.6 Z" fill="#1a1a1a" stroke="#f4f0e8" stroke-width="0.9" opacity="0.55"/>
<path d="M 540.0 327.6 A 39.6 50.4 0 0 1 612.0 327.6 A 39.6 50.4 0 0 1 540.0 327.6 Z" fill="#1a1a1a" stroke="#f4f0e8" stroke-width="0.9" opacity="0.55"/>
<path d="M 612.0 327.6 A 39.6 50.4 0 0 1 684.0 327.6 A 39.6 50.4 0 0 1 612.0 327.6 Z" fill="#1a1a1a" stroke="#f4f0e8" stroke-width="0.9" opacity="0.55"/>
<path d="M 684.0 327.6 A 39.6 50.4 0 0 1 756.0 327.6 A 39.6 50.4 0 0 1 684.0 327.6 Z" fill="#1a1a1a" stroke="#f4f0e8" stroke-width="0.9" opacity="0.55"/>
<path d="M 756.0 327.6 A 39.6 50.4 0 0 1 828.0 327.6 A 39.6 50.4 0 0 1 756.0 327.6 Z" fill="#1a1a1a" stroke="#f4f0e8" stroke-width="0.9" opacity="0.55"/>
<path d="M 828.0 327.6 A 39.6 50.4 0 0 1 900.0 327.6 A 39.6 50.4 0 0 1 828.0 327.6 Z" fill="#1a1a1a" stroke="#f4f0e8" stroke-width="0.9" opacity="0.55"/>
<path d="M 900.0 327.6 A 39.6 50.4 0 0 1 972.0 327.6 A 39.6 50.4 0 0 1 900.0 327.6 Z" fill="#1a1a1a" stroke="#f4f0e8" stroke-width="0.9" opacity="0.55"/>
<path d="M 972.0 327.6 A 39.6 50.4 0 0 1 1044.0 327.6 A 39.6 50.4 0 0 1 972.0 327.6 Z" fill="#1a1a1a" stroke="#f4f0e8" stroke-width="0.9" opacity="0.55"/>
<path d="M 1044.0 327.6 A 39.6 50.4 0 0 1 1116.0 327.6 A 39.6 50.4 0 0 1 1044.0 327.6 Z" fill="#1a1a1a" stroke="#f4f0e8" stroke-width="0.9" opacity="0.55"/>
<path d="M 1116.0 327.6 A 39.6 50.4 0 0 1 1188.0 327.6 A 39.6 50.4 0 0 1 1116.0 327.6 Z" fill="#1a1a1a" stroke="#f4f0e8" stroke-width="0.9" opacity="0.55"/>
<path d="M 1188.0 327.6 A 39.6 50.4 0 0 1 1260.0 327.6 A 39.6 50.4 0 0 1 1188.0 327.6 Z" fill="#1a1a1a" stroke="#f4f0e8" stroke-width="0.9" opacity="0.55"/>
<path d="M 1260.0 327.6 A 39.6 50.4 0 0 1 1332.0 327.6 A 39.6 50.4 0 0 1 1260.0 327.6 Z" fill="#1a1a1a" stroke="#f4f0e8" stroke-width="0.9" opacity="0.55"/>
<path d="M 1332.0 327.6 A 39.6 50.4 0 0 1 1404.0 327.6 A 39.6 50.4 0 0 1 1332.0 327.6 Z" fill="#1a1a1a" stroke="#f4f0e8" stroke-width="0.9" opacity="0.55"/>
<path d="M 1404.0 327.6 A 39.6 50.4 0 0 1 1476.0 327.6 A 39.6 50.4 0 0 1 1404.0 327.6 Z" fill="#1a1a1a" stroke="#f4f0e8" stroke-width="0.9" opacity="0.55"/>
<path d="M 1476.0 327.6 A 39.6 50.4 0 0 1 1548.0 327.6 A 39.6 50.4 0 0 1 1476.0 327.6 Z" fill="#1a1a1a" stroke="#f4f0e8" stroke-width="0.9" opacity="0.55"/>
<path d="M 1548.0 327.6 A 39.6 50.4 0 0 1 1620.0 327.6 A 39.6 50.4 0 0 1 1548.0 327.6 Z" fill="#1a1a1a" stroke="#f4f0e8" stroke-width="0.9" opacity="0.55"/>
<path d="M 1620.0 327.6 A 39.6 50.4 0 0 1 1692.0 327.6 A 39.6 50.4 0 0 1 1620.0 327.6 Z" fill="#1a1a1a" stroke="#f4f0e8" stroke-width="0.9" opacity="0.55"/>
<path d="M 1692.0 327.6 A 39.6 50.4 0 0 1 1764.0 327.6 A 39.6 50.4 0 0 1 1692.0 327.6 Z" fill="#1a1a1a" stroke="#f4f0e8" stroke-width="0.9" opacity="0.55"/>
<path d="M 1764.0 327.6 A 39.6 50.4 0 0 1 1836.0 327.6 A 39.6 50.4 0 0 1 1764.0 327.6 Z" fill="#1a1a1a" stroke="#f4f0e8" stroke-width="0.9" opacity="0.55"/>
<path d="M 1836.0 327.6 A 39.6 50.4 0 0 1 1908.0 327.6 A 39.6 50.4 0 0 1 1836.0 327.6 Z" fill="#1a1a1a" stroke="#f4f0e8" stroke-width="0.9" opacity="0.55"/>
<path d="M 0.0 374.4 A 39.6 50.4 0 0 1 72.0 374.4 A 39.6 50.4 0 0 1 0.0 374.4 Z" fill="#1a1a1a" stroke="#f4f0e8" stroke-width="0.9" opacity="0.55"/>
<path d="M 72.0 374.4 A 39.6 50.4 0 0 1 144.0 374.4 A 39.6 50.4 0 0 1 72.0 374.4 Z" fill="#1a1a1a" stroke="#f4f0e8" stroke-width="0.9" opacity="0.55"/>
<path d="M 144.0 374.4 A 39.6 50.4 0 0 1 216.0 374.4 A 39.6 50.4 0 0 1 144.0 374.4 Z" fill="#1a1a1a" stroke="#f4f0e8" stroke-width="0.9" opacity="0.55"/>
<path d="M 216.0 374.4 A 39.6 50.4 0 0 1 288.0 374.4 A 39.6 50.4 0 0 1 216.0 374.4 Z" fill="#1a1a1a" stroke="#f4f0e8" stroke-width="0.9" opacity="0.55"/>
<path d="M 288.0 374.4 A 39.6 50.4 0 0 1 360.0 374.4 A 39.6 50.4 0 0 1 288.0 374.4 Z" fill="#1a1a1a" stroke="#f4f0e8" stroke-width="0.9" opacity="0.55"/>
<path d="M 360.0 374.4 A 39.6 50.4 0 0 1 432.0 374.4 A 39.6 50.4 0 0 1 360.0 374.4 Z" fill="#1a1a1a" stroke="#f4f0e8" stroke-width="0.9" opacity="0.55"/>
<path d="M 432.0 374.4 A 39.6 50.4 0 0 1 504.0 374.4 A 39.6 50.4 0 0 1 432.0 374.4 Z" fill="#1a1a1a" stroke="#f4f0e8" stroke-width="0.9" opacity="0.55"/>
<path d="M 504.0 374.4 A 39.6 50.4 0 0 1 576.0 374.4 A 39.6 50.4 0 0 1 504.0 374.4 Z" fill="#1a1a1a" stroke="#f4f0e8" stroke-width="0.9" opacity="0.55"/>
<path d="M 576.0 374.4 A 39.6 50.4 0 0 1 648.0 374.4 A 39.6 50.4 0 0 1 576.0 374.4 Z" fill="#1a1a1a" stroke="#f4f0e8" stroke-width="0.9" opacity="0.55"/>
<path d="M 648.0 374.4 A 39.6 50.4 0 0 1 720.0 374.4 A 39.6 50.4 0 0 1 648.0 374.4 Z" fill="#1a1a1a" stroke="#f4f0e8" stroke-width="0.9" opacity="0.55"/>
<path d="M 720.0 374.4 A 39.6 50.4 0 0 1 792.0 374.4 A 39.6 50.4 0 0 1 720.0 374.4 Z" fill="#1a1a1a" stroke="#f4f0e8" stroke-width="0.9" opacity="0.55"/>
<path d="M 792.0 374.4 A 39.6 50.4 0 0 1 864.0 374.4 A 39.6 50.4 0 0 1 792.0 374.4 Z" fill="#1a1a1a" stroke="#f4f0e8" stroke-width="0.9" opacity="0.55"/>
<path d="M 864.0 374.4 A 39.6 50.4 0 0 1 936.0 374.4 A 39.6 50.4 0 0 1 864.0 374.4 Z" fill="#1a1a1a" stroke="#f4f0e8" stroke-width="0.9" opacity="0.55"/>
<path d="M 936.0 374.4 A 39.6 50.4 0 0 1 1008.0 374.4 A 39.6 50.4 0 0 1 936.0 374.4 Z" fill="#1a1a1a" stroke="#f4f0e8" stroke-width="0.9" opacity="0.55"/>
<path d="M 1008.0 374.4 A 39.6 50.4 0 0 1 1080.0 374.4 A 39.6 50.4 0 0 1 1008.0 374.4 Z" fill="#1a1a1a" stroke="#f4f0e8" stroke-width="0.9" opacity="0.55"/>
<path d="M 1080.0 374.4 A 39.6 50.4 0 0 1 1152.0 374.4 A 39.6 50.4 0 0 1 1080.0 374.4 Z" fill="#1a1a1a" stroke="#f4f0e8" stroke-width="0.9" opacity="0.55"/>
<path d="M 1152.0 374.4 A 39.6 50.4 0 0 1 1224.0 374.4 A 39.6 50.4 0 0 1 1152.0 374.4 Z" fill="#1a1a1a" stroke="#f4f0e8" stroke-width="0.9" opacity="0.55"/>
<path d="M 1224.0 374.4 A 39.6 50.4 0 0 1 1296.0 374.4 A 39.6 50.4 0 0 1 1224.0 374.4 Z" fill="#1a1a1a" stroke="#f4f0e8" stroke-width="0.9" opacity="0.55"/>
<path d="M 1296.0 374.4 A 39.6 50.4 0 0 1 1368.0 374.4 A 39.6 50.4 0 0 1 1296.0 374.4 Z" fill="#1a1a1a" stroke="#f4f0e8" stroke-width="0.9" opacity="0.55"/>
<path d="M 1368.0 374.4 A 39.6 50.4 0 0 1 1440.0 374.4 A 39.6 50.4 0 0 1 1368.0 374.4 Z" fill="#1a1a1a" stroke="#f4f0e8" stroke-width="0.9" opacity="0.55"/>
<path d="M 1440.0 374.4 A 39.6 50.4 0 0 1 1512.0 374.4 A 39.6 50.4 0 0 1 1440.0 374.4 Z" fill="#1a1a1a" stroke="#f4f0e8" stroke-width="0.9" opacity="0.55"/>
<path d="M 1512.0 374.4 A 39.6 50.4 0 0 1 1584.0 374.4 A 39.6 50.4 0 0 1 1512.0 374.4 Z" fill="#1a1a1a" stroke="#f4f0e8" stroke-width="0.9" opacity="0.55"/>
<path d="M 1584.0 374.4 A 39.6 50.4 0 0 1 1656.0 374.4 A 39.6 50.4 0 0 1 1584.0 374.4 Z" fill="#1a1a1a" stroke="#f4f0e8" stroke-width="0.9" opacity="0.55"/>
<path d="M 1656.0 374.4 A 39.6 50.4 0 0 1 1728.0 374.4 A 39.6 50.4 0 0 1 1656.0 374.4 Z" fill="#1a1a1a" stroke="#f4f0e8" stroke-width="0.9" opacity="0.55"/>
<path d="M 1728.0 374.4 A 39.6 50.4 0 0 1 1800.0 374.4 A 39.6 50.4 0 0 1 1728.0 374.4 Z" fill="#1a1a1a" stroke="#f4f0e8" stroke-width="0.9" opacity="0.55"/>
<path d="M 1800.0 374.4 A 39.6 50.4 0 0 1 1872.0 374.4 A 39.6 50.4 0 0 1 1800.0 374.4 Z" fill="#1a1a1a" stroke="#f4f0e8" stroke-width="0.9" opacity="0.55"/>
<path d="M 36.0 421.2 A 39.6 50.4 0 0 1 108.0 421.2 A 39.6 50.4 0 0 1 36.0 421.2 Z" fill="#1a1a1a" stroke="#f4f0e8" stroke-width="0.9" opacity="0.55"/>
<path d="M 108.0 421.2 A 39.6 50.4 0 0 1 180.0 421.2 A 39.6 50.4 0 0 1 108.0 421.2 Z" fill="#1a1a1a" stroke="#f4f0e8" stroke-width="0.9" opacity="0.55"/>
<path d="M 180.0 421.2 A 39.6 50.4 0 0 1 252.0 421.2 A 39.6 50.4 0 0 1 180.0 421.2 Z" fill="#1a1a1a" stroke="#f4f0e8" stroke-width="0.9" opacity="0.55"/>
<path d="M 252.0 421.2 A 39.6 50.4 0 0 1 324.0 421.2 A 39.6 50.4 0 0 1 252.0 421.2 Z" fill="#1a1a1a" stroke="#f4f0e8" stroke-width="0.9" opacity="0.55"/>
<path d="M 324.0 421.2 A 39.6 50.4 0 0 1 396.0 421.2 A 39.6 50.4 0 0 1 324.0 421.2 Z" fill="#1a1a1a" stroke="#f4f0e8" stroke-width="0.9" opacity="0.55"/>
<path d="M 396.0 421.2 A 39.6 50.4 0 0 1 468.0 421.2 A 39.6 50.4 0 0 1 396.0 421.2 Z" fill="#1a1a1a" stroke="#f4f0e8" stroke-width="0.9" opacity="0.55"/>
<path d="M 468.0 421.2 A 39.6 50.4 0 0 1 540.0 421.2 A 39.6 50.4 0 0 1 468.0 421.2 Z" fill="#1a1a1a" stroke="#f4f0e8" stroke-width="0.9" opacity="0.55"/>
<path d="M 540.0 421.2 A 39.6 50.4 0 0 1 612.0 421.2 A 39.6 50.4 0 0 1 540.0 421.2 Z" fill="#1a1a1a" stroke="#f4f0e8" stroke-width="0.9" opacity="0.55"/>
<path d="M 612.0 421.2 A 39.6 50.4 0 0 1 684.0 421.2 A 39.6 50.4 0 0 1 612.0 421.2 Z" fill="#1a1a1a" stroke="#f4f0e8" stroke-width="0.9" opacity="0.55"/>
<path d="M 684.0 421.2 A 39.6 50.4 0 0 1 756.0 421.2 A 39.6 50.4 0 0 1 684.0 421.2 Z" fill="#1a1a1a" stroke="#f4f0e8" stroke-width="0.9" opacity="0.55"/>
<path d="M 756.0 421.2 A 39.6 50.4 0 0 1 828.0 421.2 A 39.6 50.4 0 0 1 756.0 421.2 Z" fill="#1a1a1a" stroke="#f4f0e8" stroke-width="0.9" opacity="0.55"/>
<path d="M 828.0 421.2 A 39.6 50.4 0 0 1 900.0 421.2 A 39.6 50.4 0 0 1 828.0 421.2 Z" fill="#1a1a1a" stroke="#f4f0e8" stroke-width="0.9" opacity="0.55"/>
<path d="M 900.0 421.2 A 39.6 50.4 0 0 1 972.0 421.2 A 39.6 50.4 0 0 1 900.0 421.2 Z" fill="#1a1a1a" stroke="#f4f0e8" stroke-width="0.9" opacity="0.55"/>
<path d="M 972.0 421.2 A 39.6 50.4 0 0 1 1044.0 421.2 A 39.6 50.4 0 0 1 972.0 421.2 Z" fill="#1a1a1a" stroke="#f4f0e8" stroke-width="0.9" opacity="0.55"/>
<path d="M 1044.0 421.2 A 39.6 50.4 0 0 1 1116.0 421.2 A 39.6 50.4 0 0 1 1044.0 421.2 Z" fill="#1a1a1a" stroke="#f4f0e8" stroke-width="0.9" opacity="0.55"/>
<path d="M 1116.0 421.2 A 39.6 50.4 0 0 1 1188.0 421.2 A 39.6 50.4 0 0 1 1116.0 421.2 Z" fill="#1a1a1a" stroke="#f4f0e8" stroke-width="0.9" opacity="0.55"/>
<path d="M 1188.0 421.2 A 39.6 50.4 0 0 1 1260.0 421.2 A 39.6 50.4 0 0 1 1188.0 421.2 Z" fill="#1a1a1a" stroke="#f4f0e8" stroke-width="0.9" opacity="0.55"/>
<path d="M 1260.0 421.2 A 39.6 50.4 0 0 1 1332.0 421.2 A 39.6 50.4 0 0 1 1260.0 421.2 Z" fill="#1a1a1a" stroke="#f4f0e8" stroke-width="0.9" opacity="0.55"/>
<path d="M 1332.0 421.2 A 39.6 50.4 0 0 1 1404.0 421.2 A 39.6 50.4 0 0 1 1332.0 421.2 Z" fill="#1a1a1a" stroke="#f4f0e8" stroke-width="0.9" opacity="0.55"/>
<path d="M 1404.0 421.2 A 39.6 50.4 0 0 1 1476.0 421.2 A 39.6 50.4 0 0 1 1404.0 421.2 Z" fill="#1a1a1a" stroke="#f4f0e8" stroke-width="0.9" opacity="0.55"/>
<path d="M 1476.0 421.2 A 39.6 50.4 0 0 1 1548.0 421.2 A 39.6 50.4 0 0 1 1476.0 421.2 Z" fill="#1a1a1a" stroke="#f4f0e8" stroke-width="0.9" opacity="0.55"/>
<path d="M 1548.0 421.2 A 39.6 50.4 0 0 1 1620.0 421.2 A 39.6 50.4 0 0 1 1548.0 421.2 Z" fill="#1a1a1a" stroke="#f4f0e8" stroke-width="0.9" opacity="0.55"/>
<path d="M 1620.0 421.2 A 39.6 50.4 0 0 1 1692.0 421.2 A 39.6 50.4 0 0 1 1620.0 421.2 Z" fill="#1a1a1a" stroke="#f4f0e8" stroke-width="0.9" opacity="0.55"/>
<path d="M 1692.0 421.2 A 39.6 50.4 0 0 1 1764.0 421.2 A 39.6 50.4 0 0 1 1692.0 421.2 Z" fill="#1a1a1a" stroke="#f4f0e8" stroke-width="0.9" opacity="0.55"/>
<path d="M 1764.0 421.2 A 39.6 50.4 0 0 1 1836.0 421.2 A 39.6 50.4 0 0 1 1764.0 421.2 Z" fill="#1a1a1a" stroke="#f4f0e8" stroke-width="0.9" opacity="0.55"/>
<path d="M 1836.0 421.2 A 39.6 50.4 0 0 1 1908.0 421.2 A 39.6 50.4 0 0 1 1836.0 421.2 Z" fill="#1a1a1a" stroke="#f4f0e8" stroke-width="0.9" opacity="0.55"/>
<path d="M 0.0 468.0 A 39.6 50.4 0 0 1 72.0 468.0 A 39.6 50.4 0 0 1 0.0 468.0 Z" fill="#1a1a1a" stroke="#f4f0e8" stroke-width="0.9" opacity="0.55"/>
<path d="M 72.0 468.0 A 39.6 50.4 0 0 1 144.0 468.0 A 39.6 50.4 0 0 1 72.0 468.0 Z" fill="#1a1a1a" stroke="#f4f0e8" stroke-width="0.9" opacity="0.55"/>
<path d="M 144.0 468.0 A 39.6 50.4 0 0 1 216.0 468.0 A 39.6 50.4 0 0 1 144.0 468.0 Z" fill="#1a1a1a" stroke="#f4f0e8" stroke-width="0.9" opacity="0.55"/>
<path d="M 216.0 468.0 A 39.6 50.4 0 0 1 288.0 468.0 A 39.6 50.4 0 0 1 216.0 468.0 Z" fill="#1a1a1a" stroke="#f4f0e8" stroke-width="0.9" opacity="0.55"/>
<path d="M 288.0 468.0 A 39.6 50.4 0 0 1 360.0 468.0 A 39.6 50.4 0 0 1 288.0 468.0 Z" fill="#1a1a1a" stroke="#f4f0e8" stroke-width="0.9" opacity="0.55"/>
<path d="M 360.0 468.0 A 39.6 50.4 0 0 1 432.0 468.0 A 39.6 50.4 0 0 1 360.0 468.0 Z" fill="#1a1a1a" stroke="#f4f0e8" stroke-width="0.9" opacity="0.55"/>
<path d="M 432.0 468.0 A 39.6 50.4 0 0 1 504.0 468.0 A 39.6 50.4 0 0 1 432.0 468.0 Z" fill="#1a1a1a" stroke="#f4f0e8" stroke-width="0.9" opacity="0.55"/>
<path d="M 504.0 468.0 A 39.6 50.4 0 0 1 576.0 468.0 A 39.6 50.4 0 0 1 504.0 468.0 Z" fill="#1a1a1a" stroke="#f4f0e8" stroke-width="0.9" opacity="0.55"/>
<path d="M 576.0 468.0 A 39.6 50.4 0 0 1 648.0 468.0 A 39.6 50.4 0 0 1 576.0 468.0 Z" fill="#1a1a1a" stroke="#f4f0e8" stroke-width="0.9" opacity="0.55"/>
<path d="M 648.0 468.0 A 39.6 50.4 0 0 1 720.0 468.0 A 39.6 50.4 0 0 1 648.0 468.0 Z" fill="#1a1a1a" stroke="#f4f0e8" stroke-width="0.9" opacity="0.55"/>
<path d="M 720.0 468.0 A 39.6 50.4 0 0 1 792.0 468.0 A 39.6 50.4 0 0 1 720.0 468.0 Z" fill="#1a1a1a" stroke="#f4f0e8" stroke-width="0.9" opacity="0.55"/>
<path d="M 792.0 468.0 A 39.6 50.4 0 0 1 864.0 468.0 A 39.6 50.4 0 0 1 792.0 468.0 Z" fill="#1a1a1a" stroke="#f4f0e8" stroke-width="0.9" opacity="0.55"/>
<path d="M 864.0 468.0 A 39.6 50.4 0 0 1 936.0 468.0 A 39.6 50.4 0 0 1 864.0 468.0 Z" fill="#1a1a1a" stroke="#f4f0e8" stroke-width="0.9" opacity="0.55"/>
<path d="M 936.0 468.0 A 39.6 50.4 0 0 1 1008.0 468.0 A 39.6 50.4 0 0 1 936.0 468.0 Z" fill="#1a1a1a" stroke="#f4f0e8" stroke-width="0.9" opacity="0.55"/>
<path d="M 1008.0 468.0 A 39.6 50.4 0 0 1 1080.0 468.0 A 39.6 50.4 0 0 1 1008.0 468.0 Z" fill="#1a1a1a" stroke="#f4f0e8" stroke-width="0.9" opacity="0.55"/>
<path d="M 1080.0 468.0 A 39.6 50.4 0 0 1 1152.0 468.0 A 39.6 50.4 0 0 1 1080.0 468.0 Z" fill="#1a1a1a" stroke="#f4f0e8" stroke-width="0.9" opacity="0.55"/>
<path d="M 1152.0 468.0 A 39.6 50.4 0 0 1 1224.0 468.0 A 39.6 50.4 0 0 1 1152.0 468.0 Z" fill="#1a1a1a" stroke="#f4f0e8" stroke-width="0.9" opacity="0.55"/>
<path d="M 1224.0 468.0 A 39.6 50.4 0 0 1 1296.0 468.0 A 39.6 50.4 0 0 1 1224.0 468.0 Z" fill="#1a1a1a" stroke="#f4f0e8" stroke-width="0.9" opacity="0.55"/>
<path d="M 1296.0 468.0 A 39.6 50.4 0 0 1 1368.0 468.0 A 39.6 50.4 0 0 1 1296.0 468.0 Z" fill="#1a1a1a" stroke="#f4f0e8" stroke-width="0.9" opacity="0.55"/>
<path d="M 1368.0 468.0 A 39.6 50.4 0 0 1 1440.0 468.0 A 39.6 50.4 0 0 1 1368.0 468.0 Z" fill="#1a1a1a" stroke="#f4f0e8" stroke-width="0.9" opacity="0.55"/>
<path d="M 1440.0 468.0 A 39.6 50.4 0 0 1 1512.0 468.0 A 39.6 50.4 0 0 1 1440.0 468.0 Z" fill="#1a1a1a" stroke="#f4f0e8" stroke-width="0.9" opacity="0.55"/>
<path d="M 1512.0 468.0 A 39.6 50.4 0 0 1 1584.0 468.0 A 39.6 50.4 0 0 1 1512.0 468.0 Z" fill="#1a1a1a" stroke="#f4f0e8" stroke-width="0.9" opacity="0.55"/>
<path d="M 1584.0 468.0 A 39.6 50.4 0 0 1 1656.0 468.0 A 39.6 50.4 0 0 1 1584.0 468.0 Z" fill="#1a1a1a" stroke="#f4f0e8" stroke-width="0.9" opacity="0.55"/>
<path d="M 1656.0 468.0 A 39.6 50.4 0 0 1 1728.0 468.0 A 39.6 50.4 0 0 1 1656.0 468.0 Z" fill="#1a1a1a" stroke="#f4f0e8" stroke-width="0.9" opacity="0.55"/>
<path d="M 1728.0 468.0 A 39.6 50.4 0 0 1 1800.0 468.0 A 39.6 50.4 0 0 1 1728.0 468.0 Z" fill="#1a1a1a" stroke="#f4f0e8" stroke-width="0.9" opacity="0.55"/>
<path d="M 1800.0 468.0 A 39.6 50.4 0 0 1 1872.0 468.0 A 39.6 50.4 0 0 1 1800.0 468.0 Z" fill="#1a1a1a" stroke="#f4f0e8" stroke-width="0.9" opacity="0.55"/>
<path d="M 36.0 514.8 A 39.6 50.4 0 0 1 108.0 514.8 A 39.6 50.4 0 0 1 36.0 514.8 Z" fill="#1a1a1a" stroke="#f4f0e8" stroke-width="0.9" opacity="0.55"/>
<path d="M 108.0 514.8 A 39.6 50.4 0 0 1 180.0 514.8 A 39.6 50.4 0 0 1 108.0 514.8 Z" fill="#1a1a1a" stroke="#f4f0e8" stroke-width="0.9" opacity="0.55"/>
<path d="M 180.0 514.8 A 39.6 50.4 0 0 1 252.0 514.8 A 39.6 50.4 0 0 1 180.0 514.8 Z" fill="#1a1a1a" stroke="#f4f0e8" stroke-width="0.9" opacity="0.55"/>
<path d="M 252.0 514.8 A 39.6 50.4 0 0 1 324.0 514.8 A 39.6 50.4 0 0 1 252.0 514.8 Z" fill="#1a1a1a" stroke="#f4f0e8" stroke-width="0.9" opacity="0.55"/>
<path d="M 324.0 514.8 A 39.6 50.4 0 0 1 396.0 514.8 A 39.6 50.4 0 0 1 324.0 514.8 Z" fill="#1a1a1a" stroke="#f4f0e8" stroke-width="0.9" opacity="0.55"/>
<path d="M 396.0 514.8 A 39.6 50.4 0 0 1 468.0 514.8 A 39.6 50.4 0 0 1 396.0 514.8 Z" fill="#1a1a1a" stroke="#f4f0e8" stroke-width="0.9" opacity="0.55"/>
<path d="M 468.0 514.8 A 39.6 50.4 0 0 1 540.0 514.8 A 39.6 50.4 0 0 1 468.0 514.8 Z" fill="#1a1a1a" stroke="#f4f0e8" stroke-width="0.9" opacity="0.55"/>
<path d="M 540.0 514.8 A 39.6 50.4 0 0 1 612.0 514.8 A 39.6 50.4 0 0 1 540.0 514.8 Z" fill="#1a1a1a" stroke="#f4f0e8" stroke-width="0.9" opacity="0.55"/>
<path d="M 612.0 514.8 A 39.6 50.4 0 0 1 684.0 514.8 A 39.6 50.4 0 0 1 612.0 514.8 Z" fill="#1a1a1a" stroke="#f4f0e8" stroke-width="0.9" opacity="0.55"/>
<path d="M 684.0 514.8 A 39.6 50.4 0 0 1 756.0 514.8 A 39.6 50.4 0 0 1 684.0 514.8 Z" fill="#1a1a1a" stroke="#f4f0e8" stroke-width="0.9" opacity="0.55"/>
<path d="M 756.0 514.8 A 39.6 50.4 0 0 1 828.0 514.8 A 39.6 50.4 0 0 1 756.0 514.8 Z" fill="#1a1a1a" stroke="#f4f0e8" stroke-width="0.9" opacity="0.55"/>
<path d="M 828.0 514.8 A 39.6 50.4 0 0 1 900.0 514.8 A 39.6 50.4 0 0 1 828.0 514.8 Z" fill="#1a1a1a" stroke="#f4f0e8" stroke-width="0.9" opacity="0.55"/>
<path d="M 900.0 514.8 A 39.6 50.4 0 0 1 972.0 514.8 A 39.6 50.4 0 0 1 900.0 514.8 Z" fill="#1a1a1a" stroke="#f4f0e8" stroke-width="0.9" opacity="0.55"/>
<path d="M 972.0 514.8 A 39.6 50.4 0 0 1 1044.0 514.8 A 39.6 50.4 0 0 1 972.0 514.8 Z" fill="#1a1a1a" stroke="#f4f0e8" stroke-width="0.9" opacity="0.55"/>
<path d="M 1044.0 514.8 A 39.6 50.4 0 0 1 1116.0 514.8 A 39.6 50.4 0 0 1 1044.0 514.8 Z" fill="#1a1a1a" stroke="#f4f0e8" stroke-width="0.9" opacity="0.55"/>
<path d="M 1116.0 514.8 A 39.6 50.4 0 0 1 1188.0 514.8 A 39.6 50.4 0 0 1 1116.0 514.8 Z" fill="#1a1a1a" stroke="#f4f0e8" stroke-width="0.9" opacity="0.55"/>
<path d="M 1188.0 514.8 A 39.6 50.4 0 0 1 1260.0 514.8 A 39.6 50.4 0 0 1 1188.0 514.8 Z" fill="#1a1a1a" stroke="#f4f0e8" stroke-width="0.9" opacity="0.55"/>
<path d="M 1260.0 514.8 A 39.6 50.4 0 0 1 1332.0 514.8 A 39.6 50.4 0 0 1 1260.0 514.8 Z" fill="#1a1a1a" stroke="#f4f0e8" stroke-width="0.9" opacity="0.55"/>
<path d="M 1332.0 514.8 A 39.6 50.4 0 0 1 1404.0 514.8 A 39.6 50.4 0 0 1 1332.0 514.8 Z" fill="#1a1a1a" stroke="#f4f0e8" stroke-width="0.9" opacity="0.55"/>
<path d="M 1404.0 514.8 A 39.6 50.4 0 0 1 1476.0 514.8 A 39.6 50.4 0 0 1 1404.0 514.8 Z" fill="#1a1a1a" stroke="#f4f0e8" stroke-width="0.9" opacity="0.55"/>
<path d="M 1476.0 514.8 A 39.6 50.4 0 0 1 1548.0 514.8 A 39.6 50.4 0 0 1 1476.0 514.8 Z" fill="#1a1a1a" stroke="#f4f0e8" stroke-width="0.9" opacity="0.55"/>
<path d="M 1548.0 514.8 A 39.6 50.4 0 0 1 1620.0 514.8 A 39.6 50.4 0 0 1 1548.0 514.8 Z" fill="#1a1a1a" stroke="#f4f0e8" stroke-width="0.9" opacity="0.55"/>
<path d="M 1620.0 514.8 A 39.6 50.4 0 0 1 1692.0 514.8 A 39.6 50.4 0 0 1 1620.0 514.8 Z" fill="#1a1a1a" stroke="#f4f0e8" stroke-width="0.9" opacity="0.55"/>
<path d="M 1692.0 514.8 A 39.6 50.4 0 0 1 1764.0 514.8 A 39.6 50.4 0 0 1 1692.0 514.8 Z" fill="#1a1a1a" stroke="#f4f0e8" stroke-width="0.9" opacity="0.55"/>
<path d="M 1764.0 514.8 A 39.6 50.4 0 0 1 1836.0 514.8 A 39.6 50.4 0 0 1 1764.0 514.8 Z" fill="#1a1a1a" stroke="#f4f0e8" stroke-width="0.9" opacity="0.55"/>
<path d="M 1836.0 514.8 A 39.6 50.4 0 0 1 1908.0 514.8 A 39.6 50.4 0 0 1 1836.0 514.8 Z" fill="#1a1a1a" stroke="#f4f0e8" stroke-width="0.9" opacity="0.55"/>
<path d="M 0.0 561.6 A 39.6 50.4 0 0 1 72.0 561.6 A 39.6 50.4 0 0 1 0.0 561.6 Z" fill="#1a1a1a" stroke="#f4f0e8" stroke-width="0.9" opacity="0.55"/>
<path d="M 72.0 561.6 A 39.6 50.4 0 0 1 144.0 561.6 A 39.6 50.4 0 0 1 72.0 561.6 Z" fill="#1a1a1a" stroke="#f4f0e8" stroke-width="0.9" opacity="0.55"/>
<path d="M 144.0 561.6 A 39.6 50.4 0 0 1 216.0 561.6 A 39.6 50.4 0 0 1 144.0 561.6 Z" fill="#1a1a1a" stroke="#f4f0e8" stroke-width="0.9" opacity="0.55"/>
<path d="M 216.0 561.6 A 39.6 50.4 0 0 1 288.0 561.6 A 39.6 50.4 0 0 1 216.0 561.6 Z" fill="#1a1a1a" stroke="#f4f0e8" stroke-width="0.9" opacity="0.55"/>
<path d="M 288.0 561.6 A 39.6 50.4 0 0 1 360.0 561.6 A 39.6 50.4 0 0 1 288.0 561.6 Z" fill="#1a1a1a" stroke="#f4f0e8" stroke-width="0.9" opacity="0.55"/>
<path d="M 360.0 561.6 A 39.6 50.4 0 0 1 432.0 561.6 A 39.6 50.4 0 0 1 360.0 561.6 Z" fill="#1a1a1a" stroke="#f4f0e8" stroke-width="0.9" opacity="0.55"/>
<path d="M 432.0 561.6 A 39.6 50.4 0 0 1 504.0 561.6 A 39.6 50.4 0 0 1 432.0 561.6 Z" fill="#1a1a1a" stroke="#f4f0e8" stroke-width="0.9" opacity="0.55"/>
<path d="M 504.0 561.6 A 39.6 50.4 0 0 1 576.0 561.6 A 39.6 50.4 0 0 1 504.0 561.6 Z" fill="#1a1a1a" stroke="#f4f0e8" stroke-width="0.9" opacity="0.55"/>
<path d="M 576.0 561.6 A 39.6 50.4 0 0 1 648.0 561.6 A 39.6 50.4 0 0 1 576.0 561.6 Z" fill="#1a1a1a" stroke="#f4f0e8" stroke-width="0.9" opacity="0.55"/>
<path d="M 648.0 561.6 A 39.6 50.4 0 0 1 720.0 561.6 A 39.6 50.4 0 0 1 648.0 561.6 Z" fill="#1a1a1a" stroke="#f4f0e8" stroke-width="0.9" opacity="0.55"/>
<path d="M 720.0 561.6 A 39.6 50.4 0 0 1 792.0 561.6 A 39.6 50.4 0 0 1 720.0 561.6 Z" fill="#1a1a1a" stroke="#f4f0e8" stroke-width="0.9" opacity="0.55"/>
<path d="M 792.0 561.6 A 39.6 50.4 0 0 1 864.0 561.6 A 39.6 50.4 0 0 1 792.0 561.6 Z" fill="#1a1a1a" stroke="#f4f0e8" stroke-width="0.9" opacity="0.55"/>
<path d="M 864.0 561.6 A 39.6 50.4 0 0 1 936.0 561.6 A 39.6 50.4 0 0 1 864.0 561.6 Z" fill="#1a1a1a" stroke="#f4f0e8" stroke-width="0.9" opacity="0.55"/>
<path d="M 936.0 561.6 A 39.6 50.4 0 0 1 1008.0 561.6 A 39.6 50.4 0 0 1 936.0 561.6 Z" fill="#1a1a1a" stroke="#f4f0e8" stroke-width="0.9" opacity="0.55"/>
<path d="M 1008.0 561.6 A 39.6 50.4 0 0 1 1080.0 561.6 A 39.6 50.4 0 0 1 1008.0 561.6 Z" fill="#1a1a1a" stroke="#f4f0e8" stroke-width="0.9" opacity="0.55"/>
<path d="M 1080.0 561.6 A 39.6 50.4 0 0 1 1152.0 561.6 A 39.6 50.4 0 0 1 1080.0 561.6 Z" fill="#1a1a1a" stroke="#f4f0e8" stroke-width="0.9" opacity="0.55"/>
<path d="M 1152.0 561.6 A 39.6 50.4 0 0 1 1224.0 561.6 A 39.6 50.4 0 0 1 1152.0 561.6 Z" fill="#1a1a1a" stroke="#f4f0e8" stroke-width="0.9" opacity="0.55"/>
<path d="M 1224.0 561.6 A 39.6 50.4 0 0 1 1296.0 561.6 A 39.6 50.4 0 0 1 1224.0 561.6 Z" fill="#1a1a1a" stroke="#f4f0e8" stroke-width="0.9" opacity="0.55"/>
<path d="M 1296.0 561.6 A 39.6 50.4 0 0 1 1368.0 561.6 A 39.6 50.4 0 0 1 1296.0 561.6 Z" fill="#1a1a1a" stroke="#f4f0e8" stroke-width="0.9" opacity="0.55"/>
<path d="M 1368.0 561.6 A 39.6 50.4 0 0 1 1440.0 561.6 A 39.6 50.4 0 0 1 1368.0 561.6 Z" fill="#1a1a1a" stroke="#f4f0e8" stroke-width="0.9" opacity="0.55"/>
<path d="M 1440.0 561.6 A 39.6 50.4 0 0 1 1512.0 561.6 A 39.6 50.4 0 0 1 1440.0 561.6 Z" fill="#1a1a1a" stroke="#f4f0e8" stroke-width="0.9" opacity="0.55"/>
<path d="M 1512.0 561.6 A 39.6 50.4 0 0 1 1584.0 561.6 A 39.6 50.4 0 0 1 1512.0 561.6 Z" fill="#1a1a1a" stroke="#f4f0e8" stroke-width="0.9" opacity="0.55"/>
<path d="M 1584.0 561.6 A 39.6 50.4 0 0 1 1656.0 561.6 A 39.6 50.4 0 0 1 1584.0 561.6 Z" fill="#1a1a1a" stroke="#f4f0e8" stroke-width="0.9" opacity="0.55"/>
<path d="M 1656.0 561.6 A 39.6 50.4 0 0 1 1728.0 561.6 A 39.6 50.4 0 0 1 1656.0 561.6 Z" fill="#1a1a1a" stroke="#f4f0e8" stroke-width="0.9" opacity="0.55"/>
<path d="M 1728.0 561.6 A 39.6 50.4 0 0 1 1800.0 561.6 A 39.6 50.4 0 0 1 1728.0 561.6 Z" fill="#1a1a1a" stroke="#f4f0e8" stroke-width="0.9" opacity="0.55"/>
<path d="M 1800.0 561.6 A 39.6 50.4 0 0 1 1872.0 561.6 A 39.6 50.4 0 0 1 1800.0 561.6 Z" fill="#1a1a1a" stroke="#f4f0e8" stroke-width="0.9" opacity="0.55"/>
<path d="M 36.0 608.4 A 39.6 50.4 0 0 1 108.0 608.4 A 39.6 50.4 0 0 1 36.0 608.4 Z" fill="#1a1a1a" stroke="#f4f0e8" stroke-width="0.9" opacity="0.55"/>
<path d="M 108.0 608.4 A 39.6 50.4 0 0 1 180.0 608.4 A 39.6 50.4 0 0 1 108.0 608.4 Z" fill="#1a1a1a" stroke="#f4f0e8" stroke-width="0.9" opacity="0.55"/>
<path d="M 180.0 608.4 A 39.6 50.4 0 0 1 252.0 608.4 A 39.6 50.4 0 0 1 180.0 608.4 Z" fill="#1a1a1a" stroke="#f4f0e8" stroke-width="0.9" opacity="0.55"/>
<path d="M 252.0 608.4 A 39.6 50.4 0 0 1 324.0 608.4 A 39.6 50.4 0 0 1 252.0 608.4 Z" fill="#1a1a1a" stroke="#f4f0e8" stroke-width="0.9" opacity="0.55"/>
<path d="M 324.0 608.4 A 39.6 50.4 0 0 1 396.0 608.4 A 39.6 50.4 0 0 1 324.0 608.4 Z" fill="#1a1a1a" stroke="#f4f0e8" stroke-width="0.9" opacity="0.55"/>
<path d="M 396.0 608.4 A 39.6 50.4 0 0 1 468.0 608.4 A 39.6 50.4 0 0 1 396.0 608.4 Z" fill="#1a1a1a" stroke="#f4f0e8" stroke-width="0.9" opacity="0.55"/>
<path d="M 468.0 608.4 A 39.6 50.4 0 0 1 540.0 608.4 A 39.6 50.4 0 0 1 468.0 608.4 Z" fill="#1a1a1a" stroke="#f4f0e8" stroke-width="0.9" opacity="0.55"/>
<path d="M 540.0 608.4 A 39.6 50.4 0 0 1 612.0 608.4 A 39.6 50.4 0 0 1 540.0 608.4 Z" fill="#1a1a1a" stroke="#f4f0e8" stroke-width="0.9" opacity="0.55"/>
<path d="M 612.0 608.4 A 39.6 50.4 0 0 1 684.0 608.4 A 39.6 50.4 0 0 1 612.0 608.4 Z" fill="#1a1a1a" stroke="#f4f0e8" stroke-width="0.9" opacity="0.55"/>
<path d="M 684.0 608.4 A 39.6 50.4 0 0 1 756.0 608.4 A 39.6 50.4 0 0 1 684.0 608.4 Z" fill="#1a1a1a" stroke="#f4f0e8" stroke-width="0.9" opacity="0.55"/>
<path d="M 756.0 608.4 A 39.6 50.4 0 0 1 828.0 608.4 A 39.6 50.4 0 0 1 756.0 608.4 Z" fill="#1a1a1a" stroke="#f4f0e8" stroke-width="0.9" opacity="0.55"/>
<path d="M 828.0 608.4 A 39.6 50.4 0 0 1 900.0 608.4 A 39.6 50.4 0 0 1 828.0 608.4 Z" fill="#1a1a1a" stroke="#f4f0e8" stroke-width="0.9" opacity="0.55"/>
<path d="M 900.0 608.4 A 39.6 50.4 0 0 1 972.0 608.4 A 39.6 50.4 0 0 1 900.0 608.4 Z" fill="#1a1a1a" stroke="#f4f0e8" stroke-width="0.9" opacity="0.55"/>
<path d="M 972.0 608.4 A 39.6 50.4 0 0 1 1044.0 608.4 A 39.6 50.4 0 0 1 972.0 608.4 Z" fill="#1a1a1a" stroke="#f4f0e8" stroke-width="0.9" opacity="0.55"/>
<path d="M 1044.0 608.4 A 39.6 50.4 0 0 1 1116.0 608.4 A 39.6 50.4 0 0 1 1044.0 608.4 Z" fill="#1a1a1a" stroke="#f4f0e8" stroke-width="0.9" opacity="0.55"/>
<path d="M 1116.0 608.4 A 39.6 50.4 0 0 1 1188.0 608.4 A 39.6 50.4 0 0 1 1116.0 608.4 Z" fill="#1a1a1a" stroke="#f4f0e8" stroke-width="0.9" opacity="0.55"/>
<path d="M 1188.0 608.4 A 39.6 50.4 0 0 1 1260.0 608.4 A 39.6 50.4 0 0 1 1188.0 608.4 Z" fill="#1a1a1a" stroke="#f4f0e8" stroke-width="0.9" opacity="0.55"/>
<path d="M 1260.0 608.4 A 39.6 50.4 0 0 1 1332.0 608.4 A 39.6 50.4 0 0 1 1260.0 608.4 Z" fill="#1a1a1a" stroke="#f4f0e8" stroke-width="0.9" opacity="0.55"/>
<path d="M 1332.0 608.4 A 39.6 50.4 0 0 1 1404.0 608.4 A 39.6 50.4 0 0 1 1332.0 608.4 Z" fill="#1a1a1a" stroke="#f4f0e8" stroke-width="0.9" opacity="0.55"/>
<path d="M 1404.0 608.4 A 39.6 50.4 0 0 1 1476.0 608.4 A 39.6 50.4 0 0 1 1404.0 608.4 Z" fill="#1a1a1a" stroke="#f4f0e8" stroke-width="0.9" opacity="0.55"/>
<path d="M 1476.0 608.4 A 39.6 50.4 0 0 1 1548.0 608.4 A 39.6 50.4 0 0 1 1476.0 608.4 Z" fill="#1a1a1a" stroke="#f4f0e8" stroke-width="0.9" opacity="0.55"/>
<path d="M 1548.0 608.4 A 39.6 50.4 0 0 1 1620.0 608.4 A 39.6 50.4 0 0 1 1548.0 608.4 Z" fill="#1a1a1a" stroke="#f4f0e8" stroke-width="0.9" opacity="0.55"/>
<path d="M 1620.0 608.4 A 39.6 50.4 0 0 1 1692.0 608.4 A 39.6 50.4 0 0 1 1620.0 608.4 Z" fill="#1a1a1a" stroke="#f4f0e8" stroke-width="0.9" opacity="0.55"/>
<path d="M 1692.0 608.4 A 39.6 50.4 0 0 1 1764.0 608.4 A 39.6 50.4 0 0 1 1692.0 608.4 Z" fill="#1a1a1a" stroke="#f4f0e8" stroke-width="0.9" opacity="0.55"/>
<path d="M 1764.0 608.4 A 39.6 50.4 0 0 1 1836.0 608.4 A 39.6 50.4 0 0 1 1764.0 608.4 Z" fill="#1a1a1a" stroke="#f4f0e8" stroke-width="0.9" opacity="0.55"/>
<path d="M 1836.0 608.4 A 39.6 50.4 0 0 1 1908.0 608.4 A 39.6 50.4 0 0 1 1836.0 608.4 Z" fill="#1a1a1a" stroke="#f4f0e8" stroke-width="0.9" opacity="0.55"/>
<path d="M 0.0 655.2 A 39.6 50.4 0 0 1 72.0 655.2 A 39.6 50.4 0 0 1 0.0 655.2 Z" fill="#1a1a1a" stroke="#f4f0e8" stroke-width="0.9" opacity="0.55"/>
<path d="M 72.0 655.2 A 39.6 50.4 0 0 1 144.0 655.2 A 39.6 50.4 0 0 1 72.0 655.2 Z" fill="#1a1a1a" stroke="#f4f0e8" stroke-width="0.9" opacity="0.55"/>
<path d="M 144.0 655.2 A 39.6 50.4 0 0 1 216.0 655.2 A 39.6 50.4 0 0 1 144.0 655.2 Z" fill="#1a1a1a" stroke="#f4f0e8" stroke-width="0.9" opacity="0.55"/>
<path d="M 216.0 655.2 A 39.6 50.4 0 0 1 288.0 655.2 A 39.6 50.4 0 0 1 216.0 655.2 Z" fill="#1a1a1a" stroke="#f4f0e8" stroke-width="0.9" opacity="0.55"/>
<path d="M 288.0 655.2 A 39.6 50.4 0 0 1 360.0 655.2 A 39.6 50.4 0 0 1 288.0 655.2 Z" fill="#1a1a1a" stroke="#f4f0e8" stroke-width="0.9" opacity="0.55"/>
<path d="M 360.0 655.2 A 39.6 50.4 0 0 1 432.0 655.2 A 39.6 50.4 0 0 1 360.0 655.2 Z" fill="#1a1a1a" stroke="#f4f0e8" stroke-width="0.9" opacity="0.55"/>
<path d="M 432.0 655.2 A 39.6 50.4 0 0 1 504.0 655.2 A 39.6 50.4 0 0 1 432.0 655.2 Z" fill="#1a1a1a" stroke="#f4f0e8" stroke-width="0.9" opacity="0.55"/>
<path d="M 504.0 655.2 A 39.6 50.4 0 0 1 576.0 655.2 A 39.6 50.4 0 0 1 504.0 655.2 Z" fill="#1a1a1a" stroke="#f4f0e8" stroke-width="0.9" opacity="0.55"/>
<path d="M 576.0 655.2 A 39.6 50.4 0 0 1 648.0 655.2 A 39.6 50.4 0 0 1 576.0 655.2 Z" fill="#1a1a1a" stroke="#f4f0e8" stroke-width="0.9" opacity="0.55"/>
<path d="M 648.0 655.2 A 39.6 50.4 0 0 1 720.0 655.2 A 39.6 50.4 0 0 1 648.0 655.2 Z" fill="#1a1a1a" stroke="#f4f0e8" stroke-width="0.9" opacity="0.55"/>
<path d="M 720.0 655.2 A 39.6 50.4 0 0 1 792.0 655.2 A 39.6 50.4 0 0 1 720.0 655.2 Z" fill="#1a1a1a" stroke="#f4f0e8" stroke-width="0.9" opacity="0.55"/>
<path d="M 792.0 655.2 A 39.6 50.4 0 0 1 864.0 655.2 A 39.6 50.4 0 0 1 792.0 655.2 Z" fill="#1a1a1a" stroke="#f4f0e8" stroke-width="0.9" opacity="0.55"/>
<path d="M 864.0 655.2 A 39.6 50.4 0 0 1 936.0 655.2 A 39.6 50.4 0 0 1 864.0 655.2 Z" fill="#1a1a1a" stroke="#f4f0e8" stroke-width="0.9" opacity="0.55"/>
<path d="M 936.0 655.2 A 39.6 50.4 0 0 1 1008.0 655.2 A 39.6 50.4 0 0 1 936.0 655.2 Z" fill="#1a1a1a" stroke="#f4f0e8" stroke-width="0.9" opacity="0.55"/>
<path d="M 1008.0 655.2 A 39.6 50.4 0 0 1 1080.0 655.2 A 39.6 50.4 0 0 1 1008.0 655.2 Z" fill="#1a1a1a" stroke="#f4f0e8" stroke-width="0.9" opacity="0.55"/>
<path d="M 1080.0 655.2 A 39.6 50.4 0 0 1 1152.0 655.2 A 39.6 50.4 0 0 1 1080.0 655.2 Z" fill="#1a1a1a" stroke="#f4f0e8" stroke-width="0.9" opacity="0.55"/>
<path d="M 1152.0 655.2 A 39.6 50.4 0 0 1 1224.0 655.2 A 39.6 50.4 0 0 1 1152.0 655.2 Z" fill="#1a1a1a" stroke="#f4f0e8" stroke-width="0.9" opacity="0.55"/>
<path d="M 1224.0 655.2 A 39.6 50.4 0 0 1 1296.0 655.2 A 39.6 50.4 0 0 1 1224.0 655.2 Z" fill="#1a1a1a" stroke="#f4f0e8" stroke-width="0.9" opacity="0.55"/>
<path d="M 1296.0 655.2 A 39.6 50.4 0 0 1 1368.0 655.2 A 39.6 50.4 0 0 1 1296.0 655.2 Z" fill="#1a1a1a" stroke="#f4f0e8" stroke-width="0.9" opacity="0.55"/>
<path d="M 1368.0 655.2 A 39.6 50.4 0 0 1 1440.0 655.2 A 39.6 50.4 0 0 1 1368.0 655.2 Z" fill="#1a1a1a" stroke="#f4f0e8" stroke-width="0.9" opacity="0.55"/>
<path d="M 1440.0 655.2 A 39.6 50.4 0 0 1 1512.0 655.2 A 39.6 50.4 0 0 1 1440.0 655.2 Z" fill="#1a1a1a" stroke="#f4f0e8" stroke-width="0.9" opacity="0.55"/>
<path d="M 1512.0 655.2 A 39.6 50.4 0 0 1 1584.0 655.2 A 39.6 50.4 0 0 1 1512.0 655.2 Z" fill="#1a1a1a" stroke="#f4f0e8" stroke-width="0.9" opacity="0.55"/>
<path d="M 1584.0 655.2 A 39.6 50.4 0 0 1 1656.0 655.2 A 39.6 50.4 0 0 1 1584.0 655.2 Z" fill="#1a1a1a" stroke="#f4f0e8" stroke-width="0.9" opacity="0.55"/>
<path d="M 1656.0 655.2 A 39.6 50.4 0 0 1 1728.0 655.2 A 39.6 50.4 0 0 1 1656.0 655.2 Z" fill="#1a1a1a" stroke="#f4f0e8" stroke-width="0.9" opacity="0.55"/>
<path d="M 1728.0 655.2 A 39.6 50.4 0 0 1 1800.0 655.2 A 39.6 50.4 0 0 1 1728.0 655.2 Z" fill="#1a1a1a" stroke="#f4f0e8" stroke-width="0.9" opacity="0.55"/>
<path d="M 1800.0 655.2 A 39.6 50.4 0 0 1 1872.0 655.2 A 39.6 50.4 0 0 1 1800.0 655.2 Z" fill="#1a1a1a" stroke="#f4f0e8" stroke-width="0.9" opacity="0.55"/>
<path d="M 36.0 702.0 A 39.6 50.4 0 0 1 108.0 702.0 A 39.6 50.4 0 0 1 36.0 702.0 Z" fill="#1a1a1a" stroke="#f4f0e8" stroke-width="0.9" opacity="0.55"/>
<path d="M 108.0 702.0 A 39.6 50.4 0 0 1 180.0 702.0 A 39.6 50.4 0 0 1 108.0 702.0 Z" fill="#1a1a1a" stroke="#f4f0e8" stroke-width="0.9" opacity="0.55"/>
<path d="M 180.0 702.0 A 39.6 50.4 0 0 1 252.0 702.0 A 39.6 50.4 0 0 1 180.0 702.0 Z" fill="#1a1a1a" stroke="#f4f0e8" stroke-width="0.9" opacity="0.55"/>
<path d="M 252.0 702.0 A 39.6 50.4 0 0 1 324.0 702.0 A 39.6 50.4 0 0 1 252.0 702.0 Z" fill="#1a1a1a" stroke="#f4f0e8" stroke-width="0.9" opacity="0.55"/>
<path d="M 324.0 702.0 A 39.6 50.4 0 0 1 396.0 702.0 A 39.6 50.4 0 0 1 324.0 702.0 Z" fill="#1a1a1a" stroke="#f4f0e8" stroke-width="0.9" opacity="0.55"/>
<path d="M 396.0 702.0 A 39.6 50.4 0 0 1 468.0 702.0 A 39.6 50.4 0 0 1 396.0 702.0 Z" fill="#1a1a1a" stroke="#f4f0e8" stroke-width="0.9" opacity="0.55"/>
<path d="M 468.0 702.0 A 39.6 50.4 0 0 1 540.0 702.0 A 39.6 50.4 0 0 1 468.0 702.0 Z" fill="#1a1a1a" stroke="#f4f0e8" stroke-width="0.9" opacity="0.55"/>
<path d="M 540.0 702.0 A 39.6 50.4 0 0 1 612.0 702.0 A 39.6 50.4 0 0 1 540.0 702.0 Z" fill="#1a1a1a" stroke="#f4f0e8" stroke-width="0.9" opacity="0.55"/>
<path d="M 612.0 702.0 A 39.6 50.4 0 0 1 684.0 702.0 A 39.6 50.4 0 0 1 612.0 702.0 Z" fill="#1a1a1a" stroke="#f4f0e8" stroke-width="0.9" opacity="0.55"/>
<path d="M 684.0 702.0 A 39.6 50.4 0 0 1 756.0 702.0 A 39.6 50.4 0 0 1 684.0 702.0 Z" fill="#1a1a1a" stroke="#f4f0e8" stroke-width="0.9" opacity="0.55"/>
<path d="M 756.0 702.0 A 39.6 50.4 0 0 1 828.0 702.0 A 39.6 50.4 0 0 1 756.0 702.0 Z" fill="#1a1a1a" stroke="#f4f0e8" stroke-width="0.9" opacity="0.55"/>
<path d="M 828.0 702.0 A 39.6 50.4 0 0 1 900.0 702.0 A 39.6 50.4 0 0 1 828.0 702.0 Z" fill="#1a1a1a" stroke="#f4f0e8" stroke-width="0.9" opacity="0.55"/>
<path d="M 900.0 702.0 A 39.6 50.4 0 0 1 972.0 702.0 A 39.6 50.4 0 0 1 900.0 702.0 Z" fill="#1a1a1a" stroke="#f4f0e8" stroke-width="0.9" opacity="0.55"/>
<path d="M 972.0 702.0 A 39.6 50.4 0 0 1 1044.0 702.0 A 39.6 50.4 0 0 1 972.0 702.0 Z" fill="#1a1a1a" stroke="#f4f0e8" stroke-width="0.9" opacity="0.55"/>
<path d="M 1044.0 702.0 A 39.6 50.4 0 0 1 1116.0 702.0 A 39.6 50.4 0 0 1 1044.0 702.0 Z" fill="#1a1a1a" stroke="#f4f0e8" stroke-width="0.9" opacity="0.55"/>
<path d="M 1116.0 702.0 A 39.6 50.4 0 0 1 1188.0 702.0 A 39.6 50.4 0 0 1 1116.0 702.0 Z" fill="#1a1a1a" stroke="#f4f0e8" stroke-width="0.9" opacity="0.55"/>
<path d="M 1188.0 702.0 A 39.6 50.4 0 0 1 1260.0 702.0 A 39.6 50.4 0 0 1 1188.0 702.0 Z" fill="#1a1a1a" stroke="#f4f0e8" stroke-width="0.9" opacity="0.55"/>
<path d="M 1260.0 702.0 A 39.6 50.4 0 0 1 1332.0 702.0 A 39.6 50.4 0 0 1 1260.0 702.0 Z" fill="#1a1a1a" stroke="#f4f0e8" stroke-width="0.9" opacity="0.55"/>
<path d="M 1332.0 702.0 A 39.6 50.4 0 0 1 1404.0 702.0 A 39.6 50.4 0 0 1 1332.0 702.0 Z" fill="#1a1a1a" stroke="#f4f0e8" stroke-width="0.9" opacity="0.55"/>
<path d="M 1404.0 702.0 A 39.6 50.4 0 0 1 1476.0 702.0 A 39.6 50.4 0 0 1 1404.0 702.0 Z" fill="#1a1a1a" stroke="#f4f0e8" stroke-width="0.9" opacity="0.55"/>
<path d="M 1476.0 702.0 A 39.6 50.4 0 0 1 1548.0 702.0 A 39.6 50.4 0 0 1 1476.0 702.0 Z" fill="#1a1a1a" stroke="#f4f0e8" stroke-width="0.9" opacity="0.55"/>
<path d="M 1548.0 702.0 A 39.6 50.4 0 0 1 1620.0 702.0 A 39.6 50.4 0 0 1 1548.0 702.0 Z" fill="#1a1a1a" stroke="#f4f0e8" stroke-width="0.9" opacity="0.55"/>
<path d="M 1620.0 702.0 A 39.6 50.4 0 0 1 1692.0 702.0 A 39.6 50.4 0 0 1 1620.0 702.0 Z" fill="#1a1a1a" stroke="#f4f0e8" stroke-width="0.9" opacity="0.55"/>
<path d="M 1692.0 702.0 A 39.6 50.4 0 0 1 1764.0 702.0 A 39.6 50.4 0 0 1 1692.0 702.0 Z" fill="#1a1a1a" stroke="#f4f0e8" stroke-width="0.9" opacity="0.55"/>
<path d="M 1764.0 702.0 A 39.6 50.4 0 0 1 1836.0 702.0 A 39.6 50.4 0 0 1 1764.0 702.0 Z" fill="#1a1a1a" stroke="#f4f0e8" stroke-width="0.9" opacity="0.55"/>
<path d="M 1836.0 702.0 A 39.6 50.4 0 0 1 1908.0 702.0 A 39.6 50.4 0 0 1 1836.0 702.0 Z" fill="#1a1a1a" stroke="#f4f0e8" stroke-width="0.9" opacity="0.55"/>
<path d="M 0.0 748.8 A 39.6 50.4 0 0 1 72.0 748.8 A 39.6 50.4 0 0 1 0.0 748.8 Z" fill="#1a1a1a" stroke="#f4f0e8" stroke-width="0.9" opacity="0.55"/>
<path d="M 72.0 748.8 A 39.6 50.4 0 0 1 144.0 748.8 A 39.6 50.4 0 0 1 72.0 748.8 Z" fill="#1a1a1a" stroke="#f4f0e8" stroke-width="0.9" opacity="0.55"/>
<path d="M 144.0 748.8 A 39.6 50.4 0 0 1 216.0 748.8 A 39.6 50.4 0 0 1 144.0 748.8 Z" fill="#1a1a1a" stroke="#f4f0e8" stroke-width="0.9" opacity="0.55"/>
<path d="M 216.0 748.8 A 39.6 50.4 0 0 1 288.0 748.8 A 39.6 50.4 0 0 1 216.0 748.8 Z" fill="#1a1a1a" stroke="#f4f0e8" stroke-width="0.9" opacity="0.55"/>
<path d="M 288.0 748.8 A 39.6 50.4 0 0 1 360.0 748.8 A 39.6 50.4 0 0 1 288.0 748.8 Z" fill="#1a1a1a" stroke="#f4f0e8" stroke-width="0.9" opacity="0.55"/>
<path d="M 360.0 748.8 A 39.6 50.4 0 0 1 432.0 748.8 A 39.6 50.4 0 0 1 360.0 748.8 Z" fill="#1a1a1a" stroke="#f4f0e8" stroke-width="0.9" opacity="0.55"/>
<path d="M 432.0 748.8 A 39.6 50.4 0 0 1 504.0 748.8 A 39.6 50.4 0 0 1 432.0 748.8 Z" fill="#1a1a1a" stroke="#f4f0e8" stroke-width="0.9" opacity="0.55"/>
<path d="M 504.0 748.8 A 39.6 50.4 0 0 1 576.0 748.8 A 39.6 50.4 0 0 1 504.0 748.8 Z" fill="#1a1a1a" stroke="#f4f0e8" stroke-width="0.9" opacity="0.55"/>
<path d="M 576.0 748.8 A 39.6 50.4 0 0 1 648.0 748.8 A 39.6 50.4 0 0 1 576.0 748.8 Z" fill="#1a1a1a" stroke="#f4f0e8" stroke-width="0.9" opacity="0.55"/>
<path d="M 648.0 748.8 A 39.6 50.4 0 0 1 720.0 748.8 A 39.6 50.4 0 0 1 648.0 748.8 Z" fill="#1a1a1a" stroke="#f4f0e8" stroke-width="0.9" opacity="0.55"/>
<path d="M 720.0 748.8 A 39.6 50.4 0 0 1 792.0 748.8 A 39.6 50.4 0 0 1 720.0 748.8 Z" fill="#1a1a1a" stroke="#f4f0e8" stroke-width="0.9" opacity="0.55"/>
<path d="M 792.0 748.8 A 39.6 50.4 0 0 1 864.0 748.8 A 39.6 50.4 0 0 1 792.0 748.8 Z" fill="#1a1a1a" stroke="#f4f0e8" stroke-width="0.9" opacity="0.55"/>
<path d="M 864.0 748.8 A 39.6 50.4 0 0 1 936.0 748.8 A 39.6 50.4 0 0 1 864.0 748.8 Z" fill="#1a1a1a" stroke="#f4f0e8" stroke-width="0.9" opacity="0.55"/>
<path d="M 936.0 748.8 A 39.6 50.4 0 0 1 1008.0 748.8 A 39.6 50.4 0 0 1 936.0 748.8 Z" fill="#1a1a1a" stroke="#f4f0e8" stroke-width="0.9" opacity="0.55"/>
<path d="M 1008.0 748.8 A 39.6 50.4 0 0 1 1080.0 748.8 A 39.6 50.4 0 0 1 1008.0 748.8 Z" fill="#1a1a1a" stroke="#f4f0e8" stroke-width="0.9" opacity="0.55"/>
<path d="M 1080.0 748.8 A 39.6 50.4 0 0 1 1152.0 748.8 A 39.6 50.4 0 0 1 1080.0 748.8 Z" fill="#1a1a1a" stroke="#f4f0e8" stroke-width="0.9" opacity="0.55"/>
<path d="M 1152.0 748.8 A 39.6 50.4 0 0 1 1224.0 748.8 A 39.6 50.4 0 0 1 1152.0 748.8 Z" fill="#1a1a1a" stroke="#f4f0e8" stroke-width="0.9" opacity="0.55"/>
<path d="M 1224.0 748.8 A 39.6 50.4 0 0 1 1296.0 748.8 A 39.6 50.4 0 0 1 1224.0 748.8 Z" fill="#1a1a1a" stroke="#f4f0e8" stroke-width="0.9" opacity="0.55"/>
<path d="M 1296.0 748.8 A 39.6 50.4 0 0 1 1368.0 748.8 A 39.6 50.4 0 0 1 1296.0 748.8 Z" fill="#1a1a1a" stroke="#f4f0e8" stroke-width="0.9" opacity="0.55"/>
<path d="M 1368.0 748.8 A 39.6 50.4 0 0 1 1440.0 748.8 A 39.6 50.4 0 0 1 1368.0 748.8 Z" fill="#1a1a1a" stroke="#f4f0e8" stroke-width="0.9" opacity="0.55"/>
<path d="M 1440.0 748.8 A 39.6 50.4 0 0 1 1512.0 748.8 A 39.6 50.4 0 0 1 1440.0 748.8 Z" fill="#1a1a1a" stroke="#f4f0e8" stroke-width="0.9" opacity="0.55"/>
<path d="M 1512.0 748.8 A 39.6 50.4 0 0 1 1584.0 748.8 A 39.6 50.4 0 0 1 1512.0 748.8 Z" fill="#1a1a1a" stroke="#f4f0e8" stroke-width="0.9" opacity="0.55"/>
<path d="M 1584.0 748.8 A 39.6 50.4 0 0 1 1656.0 748.8 A 39.6 50.4 0 0 1 1584.0 748.8 Z" fill="#1a1a1a" stroke="#f4f0e8" stroke-width="0.9" opacity="0.55"/>
<path d="M 1656.0 748.8 A 39.6 50.4 0 0 1 1728.0 748.8 A 39.6 50.4 0 0 1 1656.0 748.8 Z" fill="#1a1a1a" stroke="#f4f0e8" stroke-width="0.9" opacity="0.55"/>
<path d="M 1728.0 748.8 A 39.6 50.4 0 0 1 1800.0 748.8 A 39.6 50.4 0 0 1 1728.0 748.8 Z" fill="#1a1a1a" stroke="#f4f0e8" stroke-width="0.9" opacity="0.55"/>
<path d="M 1800.0 748.8 A 39.6 50.4 0 0 1 1872.0 748.8 A 39.6 50.4 0 0 1 1800.0 748.8 Z" fill="#1a1a1a" stroke="#f4f0e8" stroke-width="0.9" opacity="0.55"/>
<path d="M 36.0 795.6 A 39.6 50.4 0 0 1 108.0 795.6 A 39.6 50.4 0 0 1 36.0 795.6 Z" fill="#1a1a1a" stroke="#f4f0e8" stroke-width="0.9" opacity="0.55"/>
<path d="M 108.0 795.6 A 39.6 50.4 0 0 1 180.0 795.6 A 39.6 50.4 0 0 1 108.0 795.6 Z" fill="#1a1a1a" stroke="#f4f0e8" stroke-width="0.9" opacity="0.55"/>
<path d="M 180.0 795.6 A 39.6 50.4 0 0 1 252.0 795.6 A 39.6 50.4 0 0 1 180.0 795.6 Z" fill="#1a1a1a" stroke="#f4f0e8" stroke-width="0.9" opacity="0.55"/>
<path d="M 252.0 795.6 A 39.6 50.4 0 0 1 324.0 795.6 A 39.6 50.4 0 0 1 252.0 795.6 Z" fill="#1a1a1a" stroke="#f4f0e8" stroke-width="0.9" opacity="0.55"/>
<path d="M 324.0 795.6 A 39.6 50.4 0 0 1 396.0 795.6 A 39.6 50.4 0 0 1 324.0 795.6 Z" fill="#1a1a1a" stroke="#f4f0e8" stroke-width="0.9" opacity="0.55"/>
<path d="M 396.0 795.6 A 39.6 50.4 0 0 1 468.0 795.6 A 39.6 50.4 0 0 1 396.0 795.6 Z" fill="#1a1a1a" stroke="#f4f0e8" stroke-width="0.9" opacity="0.55"/>
<path d="M 468.0 795.6 A 39.6 50.4 0 0 1 540.0 795.6 A 39.6 50.4 0 0 1 468.0 795.6 Z" fill="#1a1a1a" stroke="#f4f0e8" stroke-width="0.9" opacity="0.55"/>
<path d="M 540.0 795.6 A 39.6 50.4 0 0 1 612.0 795.6 A 39.6 50.4 0 0 1 540.0 795.6 Z" fill="#1a1a1a" stroke="#f4f0e8" stroke-width="0.9" opacity="0.55"/>
<path d="M 612.0 795.6 A 39.6 50.4 0 0 1 684.0 795.6 A 39.6 50.4 0 0 1 612.0 795.6 Z" fill="#1a1a1a" stroke="#f4f0e8" stroke-width="0.9" opacity="0.55"/>
<path d="M 684.0 795.6 A 39.6 50.4 0 0 1 756.0 795.6 A 39.6 50.4 0 0 1 684.0 795.6 Z" fill="#1a1a1a" stroke="#f4f0e8" stroke-width="0.9" opacity="0.55"/>
<path d="M 756.0 795.6 A 39.6 50.4 0 0 1 828.0 795.6 A 39.6 50.4 0 0 1 756.0 795.6 Z" fill="#1a1a1a" stroke="#f4f0e8" stroke-width="0.9" opacity="0.55"/>
<path d="M 828.0 795.6 A 39.6 50.4 0 0 1 900.0 795.6 A 39.6 50.4 0 0 1 828.0 795.6 Z" fill="#1a1a1a" stroke="#f4f0e8" stroke-width="0.9" opacity="0.55"/>
<path d="M 900.0 795.6 A 39.6 50.4 0 0 1 972.0 795.6 A 39.6 50.4 0 0 1 900.0 795.6 Z" fill="#1a1a1a" stroke="#f4f0e8" stroke-width="0.9" opacity="0.55"/>
<path d="M 972.0 795.6 A 39.6 50.4 0 0 1 1044.0 795.6 A 39.6 50.4 0 0 1 972.0 795.6 Z" fill="#1a1a1a" stroke="#f4f0e8" stroke-width="0.9" opacity="0.55"/>
<path d="M 1044.0 795.6 A 39.6 50.4 0 0 1 1116.0 795.6 A 39.6 50.4 0 0 1 1044.0 795.6 Z" fill="#1a1a1a" stroke="#f4f0e8" stroke-width="0.9" opacity="0.55"/>
<path d="M 1116.0 795.6 A 39.6 50.4 0 0 1 1188.0 795.6 A 39.6 50.4 0 0 1 1116.0 795.6 Z" fill="#1a1a1a" stroke="#f4f0e8" stroke-width="0.9" opacity="0.55"/>
<path d="M 1188.0 795.6 A 39.6 50.4 0 0 1 1260.0 795.6 A 39.6 50.4 0 0 1 1188.0 795.6 Z" fill="#1a1a1a" stroke="#f4f0e8" stroke-width="0.9" opacity="0.55"/>
<path d="M 1260.0 795.6 A 39.6 50.4 0 0 1 1332.0 795.6 A 39.6 50.4 0 0 1 1260.0 795.6 Z" fill="#1a1a1a" stroke="#f4f0e8" stroke-width="0.9" opacity="0.55"/>
<path d="M 1332.0 795.6 A 39.6 50.4 0 0 1 1404.0 795.6 A 39.6 50.4 0 0 1 1332.0 795.6 Z" fill="#1a1a1a" stroke="#f4f0e8" stroke-width="0.9" opacity="0.55"/>
<path d="M 1404.0 795.6 A 39.6 50.4 0 0 1 1476.0 795.6 A 39.6 50.4 0 0 1 1404.0 795.6 Z" fill="#1a1a1a" stroke="#f4f0e8" stroke-width="0.9" opacity="0.55"/>
<path d="M 1476.0 795.6 A 39.6 50.4 0 0 1 1548.0 795.6 A 39.6 50.4 0 0 1 1476.0 795.6 Z" fill="#1a1a1a" stroke="#f4f0e8" stroke-width="0.9" opacity="0.55"/>
<path d="M 1548.0 795.6 A 39.6 50.4 0 0 1 1620.0 795.6 A 39.6 50.4 0 0 1 1548.0 795.6 Z" fill="#1a1a1a" stroke="#f4f0e8" stroke-width="0.9" opacity="0.55"/>
<path d="M 1620.0 795.6 A 39.6 50.4 0 0 1 1692.0 795.6 A 39.6 50.4 0 0 1 1620.0 795.6 Z" fill="#1a1a1a" stroke="#f4f0e8" stroke-width="0.9" opacity="0.55"/>
<path d="M 1692.0 795.6 A 39.6 50.4 0 0 1 1764.0 795.6 A 39.6 50.4 0 0 1 1692.0 795.6 Z" fill="#1a1a1a" stroke="#f4f0e8" stroke-width="0.9" opacity="0.55"/>
<path d="M 1764.0 795.6 A 39.6 50.4 0 0 1 1836.0 795.6 A 39.6 50.4 0 0 1 1764.0 795.6 Z" fill="#1a1a1a" stroke="#f4f0e8" stroke-width="0.9" opacity="0.55"/>
<path d="M 1836.0 795.6 A 39.6 50.4 0 0 1 1908.0 795.6 A 39.6 50.4 0 0 1 1836.0 795.6 Z" fill="#1a1a1a" stroke="#f4f0e8" stroke-width="0.9" opacity="0.55"/>
<path d="M 0.0 842.4 A 39.6 50.4 0 0 1 72.0 842.4 A 39.6 50.4 0 0 1 0.0 842.4 Z" fill="#1a1a1a" stroke="#f4f0e8" stroke-width="0.9" opacity="0.55"/>
<path d="M 72.0 842.4 A 39.6 50.4 0 0 1 144.0 842.4 A 39.6 50.4 0 0 1 72.0 842.4 Z" fill="#1a1a1a" stroke="#f4f0e8" stroke-width="0.9" opacity="0.55"/>
<path d="M 144.0 842.4 A 39.6 50.4 0 0 1 216.0 842.4 A 39.6 50.4 0 0 1 144.0 842.4 Z" fill="#1a1a1a" stroke="#f4f0e8" stroke-width="0.9" opacity="0.55"/>
<path d="M 216.0 842.4 A 39.6 50.4 0 0 1 288.0 842.4 A 39.6 50.4 0 0 1 216.0 842.4 Z" fill="#1a1a1a" stroke="#f4f0e8" stroke-width="0.9" opacity="0.55"/>
<path d="M 288.0 842.4 A 39.6 50.4 0 0 1 360.0 842.4 A 39.6 50.4 0 0 1 288.0 842.4 Z" fill="#1a1a1a" stroke="#f4f0e8" stroke-width="0.9" opacity="0.55"/>
<path d="M 360.0 842.4 A 39.6 50.4 0 0 1 432.0 842.4 A 39.6 50.4 0 0 1 360.0 842.4 Z" fill="#1a1a1a" stroke="#f4f0e8" stroke-width="0.9" opacity="0.55"/>
<path d="M 432.0 842.4 A 39.6 50.4 0 0 1 504.0 842.4 A 39.6 50.4 0 0 1 432.0 842.4 Z" fill="#1a1a1a" stroke="#f4f0e8" stroke-width="0.9" opacity="0.55"/>
<path d="M 504.0 842.4 A 39.6 50.4 0 0 1 576.0 842.4 A 39.6 50.4 0 0 1 504.0 842.4 Z" fill="#1a1a1a" stroke="#f4f0e8" stroke-width="0.9" opacity="0.55"/>
<path d="M 576.0 842.4 A 39.6 50.4 0 0 1 648.0 842.4 A 39.6 50.4 0 0 1 576.0 842.4 Z" fill="#1a1a1a" stroke="#f4f0e8" stroke-width="0.9" opacity="0.55"/>
<path d="M 648.0 842.4 A 39.6 50.4 0 0 1 720.0 842.4 A 39.6 50.4 0 0 1 648.0 842.4 Z" fill="#1a1a1a" stroke="#f4f0e8" stroke-width="0.9" opacity="0.55"/>
<path d="M 720.0 842.4 A 39.6 50.4 0 0 1 792.0 842.4 A 39.6 50.4 0 0 1 720.0 842.4 Z" fill="#1a1a1a" stroke="#f4f0e8" stroke-width="0.9" opacity="0.55"/>
<path d="M 792.0 842.4 A 39.6 50.4 0 0 1 864.0 842.4 A 39.6 50.4 0 0 1 792.0 842.4 Z" fill="#1a1a1a" stroke="#f4f0e8" stroke-width="0.9" opacity="0.55"/>
<path d="M 864.0 842.4 A 39.6 50.4 0 0 1 936.0 842.4 A 39.6 50.4 0 0 1 864.0 842.4 Z" fill="#1a1a1a" stroke="#f4f0e8" stroke-width="0.9" opacity="0.55"/>
<path d="M 936.0 842.4 A 39.6 50.4 0 0 1 1008.0 842.4 A 39.6 50.4 0 0 1 936.0 842.4 Z" fill="#1a1a1a" stroke="#f4f0e8" stroke-width="0.9" opacity="0.55"/>
<path d="M 1008.0 842.4 A 39.6 50.4 0 0 1 1080.0 842.4 A 39.6 50.4 0 0 1 1008.0 842.4 Z" fill="#1a1a1a" stroke="#f4f0e8" stroke-width="0.9" opacity="0.55"/>
<path d="M 1080.0 842.4 A 39.6 50.4 0 0 1 1152.0 842.4 A 39.6 50.4 0 0 1 1080.0 842.4 Z" fill="#1a1a1a" stroke="#f4f0e8" stroke-width="0.9" opacity="0.55"/>
<path d="M 1152.0 842.4 A 39.6 50.4 0 0 1 1224.0 842.4 A 39.6 50.4 0 0 1 1152.0 842.4 Z" fill="#1a1a1a" stroke="#f4f0e8" stroke-width="0.9" opacity="0.55"/>
<path d="M 1224.0 842.4 A 39.6 50.4 0 0 1 1296.0 842.4 A 39.6 50.4 0 0 1 1224.0 842.4 Z" fill="#1a1a1a" stroke="#f4f0e8" stroke-width="0.9" opacity="0.55"/>
<path d="M 1296.0 842.4 A 39.6 50.4 0 0 1 1368.0 842.4 A 39.6 50.4 0 0 1 1296.0 842.4 Z" fill="#1a1a1a" stroke="#f4f0e8" stroke-width="0.9" opacity="0.55"/>
<path d="M 1368.0 842.4 A 39.6 50.4 0 0 1 1440.0 842.4 A 39.6 50.4 0 0 1 1368.0 842.4 Z" fill="#1a1a1a" stroke="#f4f0e8" stroke-width="0.9" opacity="0.55"/>
<path d="M 1440.0 842.4 A 39.6 50.4 0 0 1 1512.0 842.4 A 39.6 50.4 0 0 1 1440.0 842.4 Z" fill="#1a1a1a" stroke="#f4f0e8" stroke-width="0.9" opacity="0.55"/>
<path d="M 1512.0 842.4 A 39.6 50.4 0 0 1 1584.0 842.4 A 39.6 50.4 0 0 1 1512.0 842.4 Z" fill="#1a1a1a" stroke="#f4f0e8" stroke-width="0.9" opacity="0.55"/>
<path d="M 1584.0 842.4 A 39.6 50.4 0 0 1 1656.0 842.4 A 39.6 50.4 0 0 1 1584.0 842.4 Z" fill="#1a1a1a" stroke="#f4f0e8" stroke-width="0.9" opacity="0.55"/>
<path d="M 1656.0 842.4 A 39.6 50.4 0 0 1 1728.0 842.4 A 39.6 50.4 0 0 1 1656.0 842.4 Z" fill="#1a1a1a" stroke="#f4f0e8" stroke-width="0.9" opacity="0.55"/>
<path d="M 1728.0 842.4 A 39.6 50.4 0 0 1 1800.0 842.4 A 39.6 50.4 0 0 1 1728.0 842.4 Z" fill="#1a1a1a" stroke="#f4f0e8" stroke-width="0.9" opacity="0.55"/>
<path d="M 1800.0 842.4 A 39.6 50.4 0 0 1 1872.0 842.4 A 39.6 50.4 0 0 1 1800.0 842.4 Z" fill="#1a1a1a" stroke="#f4f0e8" stroke-width="0.9" opacity="0.55"/>
<path d="M 36.0 889.2 A 39.6 50.4 0 0 1 108.0 889.2 A 39.6 50.4 0 0 1 36.0 889.2 Z" fill="#1a1a1a" stroke="#f4f0e8" stroke-width="0.9" opacity="0.55"/>
<path d="M 108.0 889.2 A 39.6 50.4 0 0 1 180.0 889.2 A 39.6 50.4 0 0 1 108.0 889.2 Z" fill="#1a1a1a" stroke="#f4f0e8" stroke-width="0.9" opacity="0.55"/>
<path d="M 180.0 889.2 A 39.6 50.4 0 0 1 252.0 889.2 A 39.6 50.4 0 0 1 180.0 889.2 Z" fill="#1a1a1a" stroke="#f4f0e8" stroke-width="0.9" opacity="0.55"/>
<path d="M 252.0 889.2 A 39.6 50.4 0 0 1 324.0 889.2 A 39.6 50.4 0 0 1 252.0 889.2 Z" fill="#1a1a1a" stroke="#f4f0e8" stroke-width="0.9" opacity="0.55"/>
<path d="M 324.0 889.2 A 39.6 50.4 0 0 1 396.0 889.2 A 39.6 50.4 0 0 1 324.0 889.2 Z" fill="#1a1a1a" stroke="#f4f0e8" stroke-width="0.9" opacity="0.55"/>
<path d="M 396.0 889.2 A 39.6 50.4 0 0 1 468.0 889.2 A 39.6 50.4 0 0 1 396.0 889.2 Z" fill="#1a1a1a" stroke="#f4f0e8" stroke-width="0.9" opacity="0.55"/>
<path d="M 468.0 889.2 A 39.6 50.4 0 0 1 540.0 889.2 A 39.6 50.4 0 0 1 468.0 889.2 Z" fill="#1a1a1a" stroke="#f4f0e8" stroke-width="0.9" opacity="0.55"/>
<path d="M 540.0 889.2 A 39.6 50.4 0 0 1 612.0 889.2 A 39.6 50.4 0 0 1 540.0 889.2 Z" fill="#1a1a1a" stroke="#f4f0e8" stroke-width="0.9" opacity="0.55"/>
<path d="M 612.0 889.2 A 39.6 50.4 0 0 1 684.0 889.2 A 39.6 50.4 0 0 1 612.0 889.2 Z" fill="#1a1a1a" stroke="#f4f0e8" stroke-width="0.9" opacity="0.55"/>
<path d="M 684.0 889.2 A 39.6 50.4 0 0 1 756.0 889.2 A 39.6 50.4 0 0 1 684.0 889.2 Z" fill="#1a1a1a" stroke="#f4f0e8" stroke-width="0.9" opacity="0.55"/>
<path d="M 756.0 889.2 A 39.6 50.4 0 0 1 828.0 889.2 A 39.6 50.4 0 0 1 756.0 889.2 Z" fill="#1a1a1a" stroke="#f4f0e8" stroke-width="0.9" opacity="0.55"/>
<path d="M 828.0 889.2 A 39.6 50.4 0 0 1 900.0 889.2 A 39.6 50.4 0 0 1 828.0 889.2 Z" fill="#1a1a1a" stroke="#f4f0e8" stroke-width="0.9" opacity="0.55"/>
<path d="M 900.0 889.2 A 39.6 50.4 0 0 1 972.0 889.2 A 39.6 50.4 0 0 1 900.0 889.2 Z" fill="#1a1a1a" stroke="#f4f0e8" stroke-width="0.9" opacity="0.55"/>
<path d="M 972.0 889.2 A 39.6 50.4 0 0 1 1044.0 889.2 A 39.6 50.4 0 0 1 972.0 889.2 Z" fill="#1a1a1a" stroke="#f4f0e8" stroke-width="0.9" opacity="0.55"/>
<path d="M 1044.0 889.2 A 39.6 50.4 0 0 1 1116.0 889.2 A 39.6 50.4 0 0 1 1044.0 889.2 Z" fill="#1a1a1a" stroke="#f4f0e8" stroke-width="0.9" opacity="0.55"/>
<path d="M 1116.0 889.2 A 39.6 50.4 0 0 1 1188.0 889.2 A 39.6 50.4 0 0 1 1116.0 889.2 Z" fill="#1a1a1a" stroke="#f4f0e8" stroke-width="0.9" opacity="0.55"/>
<path d="M 1188.0 889.2 A 39.6 50.4 0 0 1 1260.0 889.2 A 39.6 50.4 0 0 1 1188.0 889.2 Z" fill="#1a1a1a" stroke="#f4f0e8" stroke-width="0.9" opacity="0.55"/>
<path d="M 1260.0 889.2 A 39.6 50.4 0 0 1 1332.0 889.2 A 39.6 50.4 0 0 1 1260.0 889.2 Z" fill="#1a1a1a" stroke="#f4f0e8" stroke-width="0.9" opacity="0.55"/>
<path d="M 1332.0 889.2 A 39.6 50.4 0 0 1 1404.0 889.2 A 39.6 50.4 0 0 1 1332.0 889.2 Z" fill="#1a1a1a" stroke="#f4f0e8" stroke-width="0.9" opacity="0.55"/>
<path d="M 1404.0 889.2 A 39.6 50.4 0 0 1 1476.0 889.2 A 39.6 50.4 0 0 1 1404.0 889.2 Z" fill="#1a1a1a" stroke="#f4f0e8" stroke-width="0.9" opacity="0.55"/>
<path d="M 1476.0 889.2 A 39.6 50.4 0 0 1 1548.0 889.2 A 39.6 50.4 0 0 1 1476.0 889.2 Z" fill="#1a1a1a" stroke="#f4f0e8" stroke-width="0.9" opacity="0.55"/>
<path d="M 1548.0 889.2 A 39.6 50.4 0 0 1 1620.0 889.2 A 39.6 50.4 0 0 1 1548.0 889.2 Z" fill="#1a1a1a" stroke="#f4f0e8" stroke-width="0.9" opacity="0.55"/>
<path d="M 1620.0 889.2 A 39.6 50.4 0 0 1 1692.0 889.2 A 39.6 50.4 0 0 1 1620.0 889.2 Z" fill="#1a1a1a" stroke="#f4f0e8" stroke-width="0.9" opacity="0.55"/>
<path d="M 1692.0 889.2 A 39.6 50.4 0 0 1 1764.0 889.2 A 39.6 50.4 0 0 1 1692.0 889.2 Z" fill="#1a1a1a" stroke="#f4f0e8" stroke-width="0.9" opacity="0.55"/>
<path d="M 1764.0 889.2 A 39.6 50.4 0 0 1 1836.0 889.2 A 39.6 50.4 0 0 1 1764.0 889.2 Z" fill="#1a1a1a" stroke="#f4f0e8" stroke-width="0.9" opacity="0.55"/>
<path d="M 1836.0 889.2 A 39.6 50.4 0 0 1 1908.0 889.2 A 39.6 50.4 0 0 1 1836.0 889.2 Z" fill="#1a1a1a" stroke="#f4f0e8" stroke-width="0.9" opacity="0.55"/>
<path d="M 0.0 936.0 A 39.6 50.4 0 0 1 72.0 936.0 A 39.6 50.4 0 0 1 0.0 936.0 Z" fill="#1a1a1a" stroke="#f4f0e8" stroke-width="0.9" opacity="0.55"/>
<path d="M 72.0 936.0 A 39.6 50.4 0 0 1 144.0 936.0 A 39.6 50.4 0 0 1 72.0 936.0 Z" fill="#1a1a1a" stroke="#f4f0e8" stroke-width="0.9" opacity="0.55"/>
<path d="M 144.0 936.0 A 39.6 50.4 0 0 1 216.0 936.0 A 39.6 50.4 0 0 1 144.0 936.0 Z" fill="#1a1a1a" stroke="#f4f0e8" stroke-width="0.9" opacity="0.55"/>
<path d="M 216.0 936.0 A 39.6 50.4 0 0 1 288.0 936.0 A 39.6 50.4 0 0 1 216.0 936.0 Z" fill="#1a1a1a" stroke="#f4f0e8" stroke-width="0.9" opacity="0.55"/>
<path d="M 288.0 936.0 A 39.6 50.4 0 0 1 360.0 936.0 A 39.6 50.4 0 0 1 288.0 936.0 Z" fill="#1a1a1a" stroke="#f4f0e8" stroke-width="0.9" opacity="0.55"/>
<path d="M 360.0 936.0 A 39.6 50.4 0 0 1 432.0 936.0 A 39.6 50.4 0 0 1 360.0 936.0 Z" fill="#1a1a1a" stroke="#f4f0e8" stroke-width="0.9" opacity="0.55"/>
<path d="M 432.0 936.0 A 39.6 50.4 0 0 1 504.0 936.0 A 39.6 50.4 0 0 1 432.0 936.0 Z" fill="#1a1a1a" stroke="#f4f0e8" stroke-width="0.9" opacity="0.55"/>
<path d="M 504.0 936.0 A 39.6 50.4 0 0 1 576.0 936.0 A 39.6 50.4 0 0 1 504.0 936.0 Z" fill="#1a1a1a" stroke="#f4f0e8" stroke-width="0.9" opacity="0.55"/>
<path d="M 576.0 936.0 A 39.6 50.4 0 0 1 648.0 936.0 A 39.6 50.4 0 0 1 576.0 936.0 Z" fill="#1a1a1a" stroke="#f4f0e8" stroke-width="0.9" opacity="0.55"/>
<path d="M 648.0 936.0 A 39.6 50.4 0 0 1 720.0 936.0 A 39.6 50.4 0 0 1 648.0 936.0 Z" fill="#1a1a1a" stroke="#f4f0e8" stroke-width="0.9" opacity="0.55"/>
<path d="M 720.0 936.0 A 39.6 50.4 0 0 1 792.0 936.0 A 39.6 50.4 0 0 1 720.0 936.0 Z" fill="#1a1a1a" stroke="#f4f0e8" stroke-width="0.9" opacity="0.55"/>
<path d="M 792.0 936.0 A 39.6 50.4 0 0 1 864.0 936.0 A 39.6 50.4 0 0 1 792.0 936.0 Z" fill="#1a1a1a" stroke="#f4f0e8" stroke-width="0.9" opacity="0.55"/>
<path d="M 864.0 936.0 A 39.6 50.4 0 0 1 936.0 936.0 A 39.6 50.4 0 0 1 864.0 936.0 Z" fill="#1a1a1a" stroke="#f4f0e8" stroke-width="0.9" opacity="0.55"/>
<path d="M 936.0 936.0 A 39.6 50.4 0 0 1 1008.0 936.0 A 39.6 50.4 0 0 1 936.0 936.0 Z" fill="#1a1a1a" stroke="#f4f0e8" stroke-width="0.9" opacity="0.55"/>
<path d="M 1008.0 936.0 A 39.6 50.4 0 0 1 1080.0 936.0 A 39.6 50.4 0 0 1 1008.0 936.0 Z" fill="#1a1a1a" stroke="#f4f0e8" stroke-width="0.9" opacity="0.55"/>
<path d="M 1080.0 936.0 A 39.6 50.4 0 0 1 1152.0 936.0 A 39.6 50.4 0 0 1 1080.0 936.0 Z" fill="#1a1a1a" stroke="#f4f0e8" stroke-width="0.9" opacity="0.55"/>
<path d="M 1152.0 936.0 A 39.6 50.4 0 0 1 1224.0 936.0 A 39.6 50.4 0 0 1 1152.0 936.0 Z" fill="#1a1a1a" stroke="#f4f0e8" stroke-width="0.9" opacity="0.55"/>
<path d="M 1224.0 936.0 A 39.6 50.4 0 0 1 1296.0 936.0 A 39.6 50.4 0 0 1 1224.0 936.0 Z" fill="#1a1a1a" stroke="#f4f0e8" stroke-width="0.9" opacity="0.55"/>
<path d="M 1296.0 936.0 A 39.6 50.4 0 0 1 1368.0 936.0 A 39.6 50.4 0 0 1 1296.0 936.0 Z" fill="#1a1a1a" stroke="#f4f0e8" stroke-width="0.9" opacity="0.55"/>
<path d="M 1368.0 936.0 A 39.6 50.4 0 0 1 1440.0 936.0 A 39.6 50.4 0 0 1 1368.0 936.0 Z" fill="#1a1a1a" stroke="#f4f0e8" stroke-width="0.9" opacity="0.55"/>
<path d="M 1440.0 936.0 A 39.6 50.4 0 0 1 1512.0 936.0 A 39.6 50.4 0 0 1 1440.0 936.0 Z" fill="#1a1a1a" stroke="#f4f0e8" stroke-width="0.9" opacity="0.55"/>
<path d="M 1512.0 936.0 A 39.6 50.4 0 0 1 1584.0 936.0 A 39.6 50.4 0 0 1 1512.0 936.0 Z" fill="#1a1a1a" stroke="#f4f0e8" stroke-width="0.9" opacity="0.55"/>
<path d="M 1584.0 936.0 A 39.6 50.4 0 0 1 1656.0 936.0 A 39.6 50.4 0 0 1 1584.0 936.0 Z" fill="#1a1a1a" stroke="#f4f0e8" stroke-width="0.9" opacity="0.55"/>
<path d="M 1656.0 936.0 A 39.6 50.4 0 0 1 1728.0 936.0 A 39.6 50.4 0 0 1 1656.0 936.0 Z" fill="#1a1a1a" stroke="#f4f0e8" stroke-width="0.9" opacity="0.55"/>
<path d="M 1728.0 936.0 A 39.6 50.4 0 0 1 1800.0 936.0 A 39.6 50.4 0 0 1 1728.0 936.0 Z" fill="#1a1a1a" stroke="#f4f0e8" stroke-width="0.9" opacity="0.55"/>
<path d="M 1800.0 936.0 A 39.6 50.4 0 0 1 1872.0 936.0 A 39.6 50.4 0 0 1 1800.0 936.0 Z" fill="#1a1a1a" stroke="#f4f0e8" stroke-width="0.9" opacity="0.55"/>
<path d="M 36.0 982.8 A 39.6 50.4 0 0 1 108.0 982.8 A 39.6 50.4 0 0 1 36.0 982.8 Z" fill="#1a1a1a" stroke="#f4f0e8" stroke-width="0.9" opacity="0.55"/>
<path d="M 108.0 982.8 A 39.6 50.4 0 0 1 180.0 982.8 A 39.6 50.4 0 0 1 108.0 982.8 Z" fill="#1a1a1a" stroke="#f4f0e8" stroke-width="0.9" opacity="0.55"/>
<path d="M 180.0 982.8 A 39.6 50.4 0 0 1 252.0 982.8 A 39.6 50.4 0 0 1 180.0 982.8 Z" fill="#1a1a1a" stroke="#f4f0e8" stroke-width="0.9" opacity="0.55"/>
<path d="M 252.0 982.8 A 39.6 50.4 0 0 1 324.0 982.8 A 39.6 50.4 0 0 1 252.0 982.8 Z" fill="#1a1a1a" stroke="#f4f0e8" stroke-width="0.9" opacity="0.55"/>
<path d="M 324.0 982.8 A 39.6 50.4 0 0 1 396.0 982.8 A 39.6 50.4 0 0 1 324.0 982.8 Z" fill="#1a1a1a" stroke="#f4f0e8" stroke-width="0.9" opacity="0.55"/>
<path d="M 396.0 982.8 A 39.6 50.4 0 0 1 468.0 982.8 A 39.6 50.4 0 0 1 396.0 982.8 Z" fill="#1a1a1a" stroke="#f4f0e8" stroke-width="0.9" opacity="0.55"/>
<path d="M 468.0 982.8 A 39.6 50.4 0 0 1 540.0 982.8 A 39.6 50.4 0 0 1 468.0 982.8 Z" fill="#1a1a1a" stroke="#f4f0e8" stroke-width="0.9" opacity="0.55"/>
<path d="M 540.0 982.8 A 39.6 50.4 0 0 1 612.0 982.8 A 39.6 50.4 0 0 1 540.0 982.8 Z" fill="#1a1a1a" stroke="#f4f0e8" stroke-width="0.9" opacity="0.55"/>
<path d="M 612.0 982.8 A 39.6 50.4 0 0 1 684.0 982.8 A 39.6 50.4 0 0 1 612.0 982.8 Z" fill="#1a1a1a" stroke="#f4f0e8" stroke-width="0.9" opacity="0.55"/>
<path d="M 684.0 982.8 A 39.6 50.4 0 0 1 756.0 982.8 A 39.6 50.4 0 0 1 684.0 982.8 Z" fill="#1a1a1a" stroke="#f4f0e8" stroke-width="0.9" opacity="0.55"/>
<path d="M 756.0 982.8 A 39.6 50.4 0 0 1 828.0 982.8 A 39.6 50.4 0 0 1 756.0 982.8 Z" fill="#1a1a1a" stroke="#f4f0e8" stroke-width="0.9" opacity="0.55"/>
<path d="M 828.0 982.8 A 39.6 50.4 0 0 1 900.0 982.8 A 39.6 50.4 0 0 1 828.0 982.8 Z" fill="#1a1a1a" stroke="#f4f0e8" stroke-width="0.9" opacity="0.55"/>
<path d="M 900.0 982.8 A 39.6 50.4 0 0 1 972.0 982.8 A 39.6 50.4 0 0 1 900.0 982.8 Z" fill="#1a1a1a" stroke="#f4f0e8" stroke-width="0.9" opacity="0.55"/>
<path d="M 972.0 982.8 A 39.6 50.4 0 0 1 1044.0 982.8 A 39.6 50.4 0 0 1 972.0 982.8 Z" fill="#1a1a1a" stroke="#f4f0e8" stroke-width="0.9" opacity="0.55"/>
<path d="M 1044.0 982.8 A 39.6 50.4 0 0 1 1116.0 982.8 A 39.6 50.4 0 0 1 1044.0 982.8 Z" fill="#1a1a1a" stroke="#f4f0e8" stroke-width="0.9" opacity="0.55"/>
<path d="M 1116.0 982.8 A 39.6 50.4 0 0 1 1188.0 982.8 A 39.6 50.4 0 0 1 1116.0 982.8 Z" fill="#1a1a1a" stroke="#f4f0e8" stroke-width="0.9" opacity="0.55"/>
<path d="M 1188.0 982.8 A 39.6 50.4 0 0 1 1260.0 982.8 A 39.6 50.4 0 0 1 1188.0 982.8 Z" fill="#1a1a1a" stroke="#f4f0e8" stroke-width="0.9" opacity="0.55"/>
<path d="M 1260.0 982.8 A 39.6 50.4 0 0 1 1332.0 982.8 A 39.6 50.4 0 0 1 1260.0 982.8 Z" fill="#1a1a1a" stroke="#f4f0e8" stroke-width="0.9" opacity="0.55"/>
<path d="M 1332.0 982.8 A 39.6 50.4 0 0 1 1404.0 982.8 A 39.6 50.4 0 0 1 1332.0 982.8 Z" fill="#1a1a1a" stroke="#f4f0e8" stroke-width="0.9" opacity="0.55"/>
<path d="M 1404.0 982.8 A 39.6 50.4 0 0 1 1476.0 982.8 A 39.6 50.4 0 0 1 1404.0 982.8 Z" fill="#1a1a1a" stroke="#f4f0e8" stroke-width="0.9" opacity="0.55"/>
<path d="M 1476.0 982.8 A 39.6 50.4 0 0 1 1548.0 982.8 A 39.6 50.4 0 0 1 1476.0 982.8 Z" fill="#1a1a1a" stroke="#f4f0e8" stroke-width="0.9" opacity="0.55"/>
<path d="M 1548.0 982.8 A 39.6 50.4 0 0 1 1620.0 982.8 A 39.6 50.4 0 0 1 1548.0 982.8 Z" fill="#1a1a1a" stroke="#f4f0e8" stroke-width="0.9" opacity="0.55"/>
<path d="M 1620.0 982.8 A 39.6 50.4 0 0 1 1692.0 982.8 A 39.6 50.4 0 0 1 1620.0 982.8 Z" fill="#1a1a1a" stroke="#f4f0e8" stroke-width="0.9" opacity="0.55"/>
<path d="M 1692.0 982.8 A 39.6 50.4 0 0 1 1764.0 982.8 A 39.6 50.4 0 0 1 1692.0 982.8 Z" fill="#1a1a1a" stroke="#f4f0e8" stroke-width="0.9" opacity="0.55"/>
<path d="M 1764.0 982.8 A 39.6 50.4 0 0 1 1836.0 982.8 A 39.6 50.4 0 0 1 1764.0 982.8 Z" fill="#1a1a1a" stroke="#f4f0e8" stroke-width="0.9" opacity="0.55"/>
<path d="M 1836.0 982.8 A 39.6 50.4 0 0 1 1908.0 982.8 A 39.6 50.4 0 0 1 1836.0 982.8 Z" fill="#1a1a1a" stroke="#f4f0e8" stroke-width="0.9" opacity="0.55"/>
<!-- left red stripe -->
<rect x="0" y="0" width="14" height="1240" fill="#c0392b"/>
<!-- bottom bar -->
<rect x="0" y="1150" width="1754" height="90" fill="#c0392b"/>
<!-- headline -->
<text x="80" y="220" font-family="Georgia, serif" font-size="148" font-weight="bold"
      fill="#f4f0e8" letter-spacing="-3">NŌ MĀORI TE RARAUNGA</text>
<!-- sub -->
<text x="80" y="340" font-family="Arial, sans-serif" font-size="56" font-weight="bold"
      fill="#f4f0e8" letter-spacing="4">MĀORI DATA SOVEREIGNTY</text>
<!-- caption -->
<text x="80" y="460" font-family="Arial, sans-serif" font-size="38"
      fill="#f4f0e8" opacity="0.75">Te Pā Tūwatawata · Kotahitanga · AI must not become a machine for extraction · kiwidialectic.com</text>
<!-- motif label -->
<text x="80" y="1130" font-family="Arial, sans-serif" font-size="28"
      fill="#f4f0e8" opacity="0.5">UNAUNAHI — FISH SCALE — KOTAHITANGA — COLLECTIVE ARMOUR</text>
<!-- footer text -->
<text x="80" y="1210" font-family="Arial, sans-serif" font-size="28" font-weight="bold"
      fill="#f4f0e8">THE KIWI DIALECTIC · www.kiwidialectic.com · Te Pā Tūwatawata</text>

</svg>