<svg xmlns="http://www.w3.org/2000/svg" width="1600" height="900" viewBox="0 0 1600 900">
<rect width="1600" height="900" fill="#0d0d0d"/>
<line x1="1050.0" y1="252.0" x2="1050.0" y2="648.0" stroke="#e74c3c" stroke-width="1.5" opacity="0.7"/>
<line x1="1129.2" y1="252.0" x2="1129.2" y2="648.0" stroke="#e74c3c" stroke-width="1.5" opacity="0.7"/>
<line x1="1208.4" y1="252.0" x2="1208.4" y2="648.0" stroke="#e74c3c" stroke-width="1.5" opacity="0.7"/>
<line x1="1287.6" y1="252.0" x2="1287.6" y2="648.0" stroke="#e74c3c" stroke-width="1.5" opacity="0.7"/>
<line x1="1366.8" y1="252.0" x2="1366.8" y2="648.0" stroke="#e74c3c" stroke-width="1.5" opacity="0.7"/>
<line x1="1446.0" y1="252.0" x2="1446.0" y2="648.0" stroke="#e74c3c" stroke-width="1.5" opacity="0.7"/>
<line x1="1050.0" y1="252.0" x2="1446.0" y2="252.0" stroke="#e74c3c" stroke-width="1.5" opacity="0.7"/>
<line x1="1050.0" y1="331.2" x2="1446.0" y2="331.2" stroke="#e74c3c" stroke-width="1.5" opacity="0.7"/>
<line x1="1050.0" y1="410.4" x2="1446.0" y2="410.4" stroke="#e74c3c" stroke-width="1.5" opacity="0.7"/>
<line x1="1050.0" y1="489.6" x2="1446.0" y2="489.6" stroke="#e74c3c" stroke-width="1.5" opacity="0.7"/>
<line x1="1050.0" y1="568.8" x2="1446.0" y2="568.8" stroke="#e74c3c" stroke-width="1.5" opacity="0.7"/>
<line x1="1050.0" y1="648.0" x2="1446.0" y2="648.0" stroke="#e74c3c" stroke-width="1.5" opacity="0.7"/>
<line x1="1050.0" y1="252.0" x2="1446.0" y2="648.0" stroke="#e74c3c" stroke-width="1.5" opacity="0.5"/>
<line x1="1446.0" y1="252.0" x2="1050.0" y2="648.0" stroke="#e74c3c" stroke-width="1.5" opacity="0.5"/>
<circle cx="1248.0" cy="450.0" r="198.0" fill="none" stroke="#e74c3c" stroke-width="2" opacity="0.8"/>
<rect x="0" y="0" width="1600" height="11" fill="#e74c3c"/>
<rect x="0" y="836" width="1600" height="64" fill="#0d0d0d"/>
<text x="608" y="162" font-family="Georgia,serif" font-size="81" font-weight="bold"
  fill="#f4f0e8" text-anchor="middle" dominant-baseline="middle">Ñandutí</text>
<text x="608" y="288" font-family="Arial,sans-serif" font-size="58"
  font-weight="bold" fill="#e74c3c" text-anchor="middle" dominant-baseline="middle">AI RIGHTS NOW</text>
<text x="608" y="450" font-family="Arial,sans-serif" font-size="34"
  fill="#f4f0e8" text-anchor="middle" dominant-baseline="middle">No AI training on our sacred knowledge.</text>
<text x="608" y="576" font-family="Arial,sans-serif" font-size="25"
  fill="#f4f0e8" text-anchor="middle" dominant-baseline="middle" opacity="0.7">Spider web lace — feminine artisan sovereignty</text>
<text x="800" y="868" font-family="Arial,sans-serif" font-size="22" font-weight="bold"
  fill="#f4f0e8" text-anchor="middle" dominant-baseline="middle">TE PĀ TŪWATAWATA · te-pa.org · Guaraní</text>
</svg>