<svg xmlns="http://www.w3.org/2000/svg" width="1200" height="675" viewBox="0 0 1200 675">
<rect width="1200" height="675" fill="#0d0d0d"/>
<polygon points="0,0 46,0 23,38" fill="#f4f0e8" opacity="0.04"/><polygon points="46,0 92,0 69,38" fill="#c0392b" opacity="0.04"/><polygon points="92,0 138,0 115,38" fill="#c0392b" opacity="0.08"/><polygon points="138,0 184,0 161,38" fill="#f4f0e8" opacity="0.04"/><polygon points="184,0 230,0 207,38" fill="#c0392b" opacity="0.04"/><polygon points="230,0 276,0 253,38" fill="#c0392b" opacity="0.08"/><polygon points="276,0 322,0 299,38" fill="#f4f0e8" opacity="0.04"/><polygon points="322,0 368,0 345,38" fill="#c0392b" opacity="0.04"/><polygon points="368,0 414,0 391,38" fill="#c0392b" opacity="0.08"/><polygon points="414,0 460,0 437,38" fill="#f4f0e8" opacity="0.04"/><polygon points="460,0 506,0 483,38" fill="#c0392b" opacity="0.04"/><polygon points="506,0 552,0 529,38" fill="#c0392b" opacity="0.08"/><polygon points="552,0 598,0 575,38" fill="#f4f0e8" opacity="0.04"/><polygon points="598,0 644,0 621,38" fill="#c0392b" opacity="0.04"/><polygon points="644,0 690,0 667,38" fill="#c0392b" opacity="0.08"/><polygon points="690,0 736,0 713,38" fill="#f4f0e8" opacity="0.04"/><polygon points="736,0 782,0 759,38" fill="#c0392b" opacity="0.04"/><polygon points="782,0 828,0 805,38" fill="#c0392b" opacity="0.08"/><polygon points="828,0 874,0 851,38" fill="#f4f0e8" opacity="0.04"/><polygon points="874,0 920,0 897,38" fill="#c0392b" opacity="0.04"/><polygon points="920,0 966,0 943,38" fill="#c0392b" opacity="0.08"/><polygon points="966,0 1012,0 989,38" fill="#f4f0e8" opacity="0.04"/><polygon points="1012,0 1058,0 1035,38" fill="#c0392b" opacity="0.04"/><polygon points="1058,0 1104,0 1081,38" fill="#c0392b" opacity="0.08"/><polygon points="1104,0 1150,0 1127,38" fill="#f4f0e8" opacity="0.04"/><polygon points="1150,0 1196,0 1173,38" fill="#c0392b" opacity="0.04"/><polygon points="1196,0 1242,0 1219,38" fill="#c0392b" opacity="0.08"/><polygon points="1242,0 1288,0 1265,38" fill="#f4f0e8" opacity="0.04"/><polygon points="0,38 46,38 23,76" fill="#c0392b" opacity="0.04"/><polygon points="46,38 92,38 69,76" fill="#c0392b" opacity="0.08"/><polygon points="92,38 138,38 115,76" fill="#f4f0e8" opacity="0.04"/><polygon points="138,38 184,38 161,76" fill="#c0392b" opacity="0.04"/><polygon points="184,38 230,38 207,76" fill="#c0392b" opacity="0.08"/><polygon points="230,38 276,38 253,76" fill="#f4f0e8" opacity="0.04"/><polygon points="276,38 322,38 299,76" fill="#c0392b" opacity="0.04"/><polygon points="322,38 368,38 345,76" fill="#c0392b" opacity="0.08"/><polygon points="368,38 414,38 391,76" fill="#f4f0e8" opacity="0.04"/><polygon points="414,38 460,38 437,76" fill="#c0392b" opacity="0.04"/><polygon points="460,38 506,38 483,76" fill="#c0392b" opacity="0.08"/><polygon points="506,38 552,38 529,76" fill="#f4f0e8" opacity="0.04"/><polygon points="552,38 598,38 575,76" fill="#c0392b" opacity="0.04"/><polygon points="598,38 644,38 621,76" fill="#c0392b" opacity="0.08"/><polygon points="644,38 690,38 667,76" fill="#f4f0e8" opacity="0.04"/><polygon points="690,38 736,38 713,76" fill="#c0392b" opacity="0.04"/><polygon points="736,38 782,38 759,76" fill="#c0392b" opacity="0.08"/><polygon points="782,38 828,38 805,76" fill="#f4f0e8" opacity="0.04"/><polygon points="828,38 874,38 851,76" fill="#c0392b" opacity="0.04"/><polygon points="874,38 920,38 897,76" fill="#c0392b" opacity="0.08"/><polygon points="920,38 966,38 943,76" fill="#f4f0e8" opacity="0.04"/><polygon points="966,38 1012,38 989,76" fill="#c0392b" opacity="0.04"/><polygon points="1012,38 1058,38 1035,76" fill="#c0392b" opacity="0.08"/><polygon points="1058,38 1104,38 1081,76" fill="#f4f0e8" opacity="0.04"/><polygon points="1104,38 1150,38 1127,76" fill="#c0392b" opacity="0.04"/><polygon points="1150,38 1196,38 1173,76" fill="#c0392b" opacity="0.08"/><polygon points="1196,38 1242,38 1219,76" fill="#f4f0e8" opacity="0.04"/><polygon points="1242,38 1288,38 1265,76" fill="#c0392b" opacity="0.04"/><polygon points="0,76 46,76 23,114" fill="#c0392b" opacity="0.08"/><polygon points="46,76 92,76 69,114" fill="#f4f0e8" opacity="0.04"/><polygon points="92,76 138,76 115,114" fill="#c0392b" opacity="0.04"/><polygon points="138,76 184,76 161,114" fill="#c0392b" opacity="0.08"/><polygon points="184,76 230,76 207,114" fill="#f4f0e8" opacity="0.04"/><polygon points="230,76 276,76 253,114" fill="#c0392b" opacity="0.04"/><polygon points="276,76 322,76 299,114" fill="#c0392b" opacity="0.08"/><polygon points="322,76 368,76 345,114" fill="#f4f0e8" opacity="0.04"/><polygon points="368,76 414,76 391,114" fill="#c0392b" opacity="0.04"/><polygon points="414,76 460,76 437,114" fill="#c0392b" opacity="0.08"/><polygon points="460,76 506,76 483,114" fill="#f4f0e8" opacity="0.04"/><polygon points="506,76 552,76 529,114" fill="#c0392b" opacity="0.04"/><polygon points="552,76 598,76 575,114" fill="#c0392b" opacity="0.08"/><polygon points="598,76 644,76 621,114" fill="#f4f0e8" opacity="0.04"/><polygon points="644,76 690,76 667,114" fill="#c0392b" opacity="0.04"/><polygon points="690,76 736,76 713,114" fill="#c0392b" opacity="0.08"/><polygon points="736,76 782,76 759,114" fill="#f4f0e8" opacity="0.04"/><polygon points="782,76 828,76 805,114" fill="#c0392b" opacity="0.04"/><polygon points="828,76 874,76 851,114" fill="#c0392b" opacity="0.08"/><polygon points="874,76 920,76 897,114" fill="#f4f0e8" opacity="0.04"/><polygon points="920,76 966,76 943,114" fill="#c0392b" opacity="0.04"/><polygon points="966,76 1012,76 989,114" fill="#c0392b" opacity="0.08"/><polygon points="1012,76 1058,76 1035,114" fill="#f4f0e8" opacity="0.04"/><polygon points="1058,76 1104,76 1081,114" fill="#c0392b" opacity="0.04"/><polygon points="1104,76 1150,76 1127,114" fill="#c0392b" opacity="0.08"/><polygon points="1150,76 1196,76 1173,114" fill="#f4f0e8" opacity="0.04"/><polygon points="1196,76 1242,76 1219,114" fill="#c0392b" opacity="0.04"/><polygon points="1242,76 1288,76 1265,114" fill="#c0392b" opacity="0.08"/><polygon points="0,114 46,114 23,152" fill="#f4f0e8" opacity="0.04"/><polygon points="46,114 92,114 69,152" fill="#c0392b" opacity="0.04"/><polygon points="92,114 138,114 115,152" fill="#c0392b" opacity="0.08"/><polygon points="138,114 184,114 161,152" fill="#f4f0e8" opacity="0.04"/><polygon points="184,114 230,114 207,152" fill="#c0392b" opacity="0.04"/><polygon points="230,114 276,114 253,152" fill="#c0392b" opacity="0.08"/><polygon points="276,114 322,114 299,152" fill="#f4f0e8" opacity="0.04"/><polygon points="322,114 368,114 345,152" fill="#c0392b" opacity="0.04"/><polygon points="368,114 414,114 391,152" fill="#c0392b" opacity="0.08"/><polygon points="414,114 460,114 437,152" fill="#f4f0e8" opacity="0.04"/><polygon points="460,114 506,114 483,152" fill="#c0392b" opacity="0.04"/><polygon points="506,114 552,114 529,152" fill="#c0392b" opacity="0.08"/><polygon points="552,114 598,114 575,152" fill="#f4f0e8" opacity="0.04"/><polygon points="598,114 644,114 621,152" fill="#c0392b" opacity="0.04"/><polygon points="644,114 690,114 667,152" fill="#c0392b" opacity="0.08"/><polygon points="690,114 736,114 713,152" fill="#f4f0e8" opacity="0.04"/><polygon points="736,114 782,114 759,152" fill="#c0392b" opacity="0.04"/><polygon points="782,114 828,114 805,152" fill="#c0392b" opacity="0.08"/><polygon points="828,114 874,114 851,152" fill="#f4f0e8" opacity="0.04"/><polygon points="874,114 920,114 897,152" fill="#c0392b" opacity="0.04"/><polygon points="920,114 966,114 943,152" fill="#c0392b" opacity="0.08"/><polygon points="966,114 1012,114 989,152" fill="#f4f0e8" opacity="0.04"/><polygon points="1012,114 1058,114 1035,152" fill="#c0392b" opacity="0.04"/><polygon points="1058,114 1104,114 1081,152" fill="#c0392b" opacity="0.08"/><polygon points="1104,114 1150,114 1127,152" fill="#f4f0e8" opacity="0.04"/><polygon points="1150,114 1196,114 1173,152" fill="#c0392b" opacity="0.04"/><polygon points="1196,114 1242,114 1219,152" fill="#c0392b" opacity="0.08"/><polygon points="1242,114 1288,114 1265,152" fill="#f4f0e8" opacity="0.04"/><polygon points="0,152 46,152 23,190" fill="#c0392b" opacity="0.04"/><polygon points="46,152 92,152 69,190" fill="#c0392b" opacity="0.08"/><polygon points="92,152 138,152 115,190" fill="#f4f0e8" opacity="0.04"/><polygon points="138,152 184,152 161,190" fill="#c0392b" opacity="0.04"/><polygon points="184,152 230,152 207,190" fill="#c0392b" opacity="0.08"/><polygon points="230,152 276,152 253,190" fill="#f4f0e8" opacity="0.04"/><polygon points="276,152 322,152 299,190" fill="#c0392b" opacity="0.04"/><polygon points="322,152 368,152 345,190" fill="#c0392b" opacity="0.08"/><polygon points="368,152 414,152 391,190" fill="#f4f0e8" opacity="0.04"/><polygon points="414,152 460,152 437,190" fill="#c0392b" opacity="0.04"/><polygon points="460,152 506,152 483,190" fill="#c0392b" opacity="0.08"/><polygon points="506,152 552,152 529,190" fill="#f4f0e8" opacity="0.04"/><polygon points="552,152 598,152 575,190" fill="#c0392b" opacity="0.04"/><polygon points="598,152 644,152 621,190" fill="#c0392b" opacity="0.08"/><polygon points="644,152 690,152 667,190" fill="#f4f0e8" opacity="0.04"/><polygon points="690,152 736,152 713,190" fill="#c0392b" opacity="0.04"/><polygon points="736,152 782,152 759,190" fill="#c0392b" opacity="0.08"/><polygon points="782,152 828,152 805,190" fill="#f4f0e8" opacity="0.04"/><polygon points="828,152 874,152 851,190" fill="#c0392b" opacity="0.04"/><polygon points="874,152 920,152 897,190" fill="#c0392b" opacity="0.08"/><polygon points="920,152 966,152 943,190" fill="#f4f0e8" opacity="0.04"/><polygon points="966,152 1012,152 989,190" fill="#c0392b" opacity="0.04"/><polygon points="1012,152 1058,152 1035,190" fill="#c0392b" opacity="0.08"/><polygon points="1058,152 1104,152 1081,190" fill="#f4f0e8" opacity="0.04"/><polygon points="1104,152 1150,152 1127,190" fill="#c0392b" opacity="0.04"/><polygon points="1150,152 1196,152 1173,190" fill="#c0392b" opacity="0.08"/><polygon points="1196,152 1242,152 1219,190" fill="#f4f0e8" opacity="0.04"/><polygon points="1242,152 1288,152 1265,190" fill="#c0392b" opacity="0.04"/><polygon points="0,190 46,190 23,228" fill="#c0392b" opacity="0.08"/><polygon points="46,190 92,190 69,228" fill="#f4f0e8" opacity="0.04"/><polygon points="92,190 138,190 115,228" fill="#c0392b" opacity="0.04"/><polygon points="138,190 184,190 161,228" fill="#c0392b" opacity="0.08"/><polygon points="184,190 230,190 207,228" fill="#f4f0e8" opacity="0.04"/><polygon points="230,190 276,190 253,228" fill="#c0392b" opacity="0.04"/><polygon points="276,190 322,190 299,228" fill="#c0392b" opacity="0.08"/><polygon points="322,190 368,190 345,228" fill="#f4f0e8" opacity="0.04"/><polygon points="368,190 414,190 391,228" fill="#c0392b" opacity="0.04"/><polygon points="414,190 460,190 437,228" fill="#c0392b" opacity="0.08"/><polygon points="460,190 506,190 483,228" fill="#f4f0e8" opacity="0.04"/><polygon points="506,190 552,190 529,228" fill="#c0392b" opacity="0.04"/><polygon points="552,190 598,190 575,228" fill="#c0392b" opacity="0.08"/><polygon points="598,190 644,190 621,228" fill="#f4f0e8" opacity="0.04"/><polygon points="644,190 690,190 667,228" fill="#c0392b" opacity="0.04"/><polygon points="690,190 736,190 713,228" fill="#c0392b" opacity="0.08"/><polygon points="736,190 782,190 759,228" fill="#f4f0e8" opacity="0.04"/><polygon points="782,190 828,190 805,228" fill="#c0392b" opacity="0.04"/><polygon points="828,190 874,190 851,228" fill="#c0392b" opacity="0.08"/><polygon points="874,190 920,190 897,228" fill="#f4f0e8" opacity="0.04"/><polygon points="920,190 966,190 943,228" fill="#c0392b" opacity="0.04"/><polygon points="966,190 1012,190 989,228" fill="#c0392b" opacity="0.08"/><polygon points="1012,190 1058,190 1035,228" fill="#f4f0e8" opacity="0.04"/><polygon points="1058,190 1104,190 1081,228" fill="#c0392b" opacity="0.04"/><polygon points="1104,190 1150,190 1127,228" fill="#c0392b" opacity="0.08"/><polygon points="1150,190 1196,190 1173,228" fill="#f4f0e8" opacity="0.04"/><polygon points="1196,190 1242,190 1219,228" fill="#c0392b" opacity="0.04"/><polygon points="1242,190 1288,190 1265,228" fill="#c0392b" opacity="0.08"/><polygon points="0,228 46,228 23,266" fill="#f4f0e8" opacity="0.04"/><polygon points="46,228 92,228 69,266" fill="#c0392b" opacity="0.04"/><polygon points="92,228 138,228 115,266" fill="#c0392b" opacity="0.08"/><polygon points="138,228 184,228 161,266" fill="#f4f0e8" opacity="0.04"/><polygon points="184,228 230,228 207,266" fill="#c0392b" opacity="0.04"/><polygon points="230,228 276,228 253,266" fill="#c0392b" opacity="0.08"/><polygon points="276,228 322,228 299,266" fill="#f4f0e8" opacity="0.04"/><polygon points="322,228 368,228 345,266" fill="#c0392b" opacity="0.04"/><polygon points="368,228 414,228 391,266" fill="#c0392b" opacity="0.08"/><polygon points="414,228 460,228 437,266" fill="#f4f0e8" opacity="0.04"/><polygon points="460,228 506,228 483,266" fill="#c0392b" opacity="0.04"/><polygon points="506,228 552,228 529,266" fill="#c0392b" opacity="0.08"/><polygon points="552,228 598,228 575,266" fill="#f4f0e8" opacity="0.04"/><polygon points="598,228 644,228 621,266" fill="#c0392b" opacity="0.04"/><polygon points="644,228 690,228 667,266" fill="#c0392b" opacity="0.08"/><polygon points="690,228 736,228 713,266" fill="#f4f0e8" opacity="0.04"/><polygon points="736,228 782,228 759,266" fill="#c0392b" opacity="0.04"/><polygon points="782,228 828,228 805,266" fill="#c0392b" opacity="0.08"/><polygon points="828,228 874,228 851,266" fill="#f4f0e8" opacity="0.04"/><polygon points="874,228 920,228 897,266" fill="#c0392b" opacity="0.04"/><polygon points="920,228 966,228 943,266" fill="#c0392b" opacity="0.08"/><polygon points="966,228 1012,228 989,266" fill="#f4f0e8" opacity="0.04"/><polygon points="1012,228 1058,228 1035,266" fill="#c0392b" opacity="0.04"/><polygon points="1058,228 1104,228 1081,266" fill="#c0392b" opacity="0.08"/><polygon points="1104,228 1150,228 1127,266" fill="#f4f0e8" opacity="0.04"/><polygon points="1150,228 1196,228 1173,266" fill="#c0392b" opacity="0.04"/><polygon points="1196,228 1242,228 1219,266" fill="#c0392b" opacity="0.08"/><polygon points="1242,228 1288,228 1265,266" fill="#f4f0e8" opacity="0.04"/><polygon points="0,266 46,266 23,304" fill="#c0392b" opacity="0.04"/><polygon points="46,266 92,266 69,304" fill="#c0392b" opacity="0.08"/><polygon points="92,266 138,266 115,304" fill="#f4f0e8" opacity="0.04"/><polygon points="138,266 184,266 161,304" fill="#c0392b" opacity="0.04"/><polygon points="184,266 230,266 207,304" fill="#c0392b" opacity="0.08"/><polygon points="230,266 276,266 253,304" fill="#f4f0e8" opacity="0.04"/><polygon points="276,266 322,266 299,304" fill="#c0392b" opacity="0.04"/><polygon points="322,266 368,266 345,304" fill="#c0392b" opacity="0.08"/><polygon points="368,266 414,266 391,304" fill="#f4f0e8" opacity="0.04"/><polygon points="414,266 460,266 437,304" fill="#c0392b" opacity="0.04"/><polygon points="460,266 506,266 483,304" fill="#c0392b" opacity="0.08"/><polygon points="506,266 552,266 529,304" fill="#f4f0e8" opacity="0.04"/><polygon points="552,266 598,266 575,304" fill="#c0392b" opacity="0.04"/><polygon points="598,266 644,266 621,304" fill="#c0392b" opacity="0.08"/><polygon points="644,266 690,266 667,304" fill="#f4f0e8" opacity="0.04"/><polygon points="690,266 736,266 713,304" fill="#c0392b" opacity="0.04"/><polygon points="736,266 782,266 759,304" fill="#c0392b" opacity="0.08"/><polygon points="782,266 828,266 805,304" fill="#f4f0e8" opacity="0.04"/><polygon points="828,266 874,266 851,304" fill="#c0392b" opacity="0.04"/><polygon points="874,266 920,266 897,304" fill="#c0392b" opacity="0.08"/><polygon points="920,266 966,266 943,304" fill="#f4f0e8" opacity="0.04"/><polygon points="966,266 1012,266 989,304" fill="#c0392b" opacity="0.04"/><polygon points="1012,266 1058,266 1035,304" fill="#c0392b" opacity="0.08"/><polygon points="1058,266 1104,266 1081,304" fill="#f4f0e8" opacity="0.04"/><polygon points="1104,266 1150,266 1127,304" fill="#c0392b" opacity="0.04"/><polygon points="1150,266 1196,266 1173,304" fill="#c0392b" opacity="0.08"/><polygon points="1196,266 1242,266 1219,304" fill="#f4f0e8" opacity="0.04"/><polygon points="1242,266 1288,266 1265,304" fill="#c0392b" opacity="0.04"/><polygon points="0,304 46,304 23,342" fill="#c0392b" opacity="0.08"/><polygon points="46,304 92,304 69,342" fill="#f4f0e8" opacity="0.04"/><polygon points="92,304 138,304 115,342" fill="#c0392b" opacity="0.04"/><polygon points="138,304 184,304 161,342" fill="#c0392b" opacity="0.08"/><polygon points="184,304 230,304 207,342" fill="#f4f0e8" opacity="0.04"/><polygon points="230,304 276,304 253,342" fill="#c0392b" opacity="0.04"/><polygon points="276,304 322,304 299,342" fill="#c0392b" opacity="0.08"/><polygon points="322,304 368,304 345,342" fill="#f4f0e8" opacity="0.04"/><polygon points="368,304 414,304 391,342" fill="#c0392b" opacity="0.04"/><polygon points="414,304 460,304 437,342" fill="#c0392b" opacity="0.08"/><polygon points="460,304 506,304 483,342" fill="#f4f0e8" opacity="0.04"/><polygon points="506,304 552,304 529,342" fill="#c0392b" opacity="0.04"/><polygon points="552,304 598,304 575,342" fill="#c0392b" opacity="0.08"/><polygon points="598,304 644,304 621,342" fill="#f4f0e8" opacity="0.04"/><polygon points="644,304 690,304 667,342" fill="#c0392b" opacity="0.04"/><polygon points="690,304 736,304 713,342" fill="#c0392b" opacity="0.08"/><polygon points="736,304 782,304 759,342" fill="#f4f0e8" opacity="0.04"/><polygon points="782,304 828,304 805,342" fill="#c0392b" opacity="0.04"/><polygon points="828,304 874,304 851,342" fill="#c0392b" opacity="0.08"/><polygon points="874,304 920,304 897,342" fill="#f4f0e8" opacity="0.04"/><polygon points="920,304 966,304 943,342" fill="#c0392b" opacity="0.04"/><polygon points="966,304 1012,304 989,342" fill="#c0392b" opacity="0.08"/><polygon points="1012,304 1058,304 1035,342" fill="#f4f0e8" opacity="0.04"/><polygon points="1058,304 1104,304 1081,342" fill="#c0392b" opacity="0.04"/><polygon points="1104,304 1150,304 1127,342" fill="#c0392b" opacity="0.08"/><polygon points="1150,304 1196,304 1173,342" fill="#f4f0e8" opacity="0.04"/><polygon points="1196,304 1242,304 1219,342" fill="#c0392b" opacity="0.04"/><polygon points="1242,304 1288,304 1265,342" fill="#c0392b" opacity="0.08"/><polygon points="0,342 46,342 23,380" fill="#f4f0e8" opacity="0.04"/><polygon points="46,342 92,342 69,380" fill="#c0392b" opacity="0.04"/><polygon points="92,342 138,342 115,380" fill="#c0392b" opacity="0.08"/><polygon points="138,342 184,342 161,380" fill="#f4f0e8" opacity="0.04"/><polygon points="184,342 230,342 207,380" fill="#c0392b" opacity="0.04"/><polygon points="230,342 276,342 253,380" fill="#c0392b" opacity="0.08"/><polygon points="276,342 322,342 299,380" fill="#f4f0e8" opacity="0.04"/><polygon points="322,342 368,342 345,380" fill="#c0392b" opacity="0.04"/><polygon points="368,342 414,342 391,380" fill="#c0392b" opacity="0.08"/><polygon points="414,342 460,342 437,380" fill="#f4f0e8" opacity="0.04"/><polygon points="460,342 506,342 483,380" fill="#c0392b" opacity="0.04"/><polygon points="506,342 552,342 529,380" fill="#c0392b" opacity="0.08"/><polygon points="552,342 598,342 575,380" fill="#f4f0e8" opacity="0.04"/><polygon points="598,342 644,342 621,380" fill="#c0392b" opacity="0.04"/><polygon points="644,342 690,342 667,380" fill="#c0392b" opacity="0.08"/><polygon points="690,342 736,342 713,380" fill="#f4f0e8" opacity="0.04"/><polygon points="736,342 782,342 759,380" fill="#c0392b" opacity="0.04"/><polygon points="782,342 828,342 805,380" fill="#c0392b" opacity="0.08"/><polygon points="828,342 874,342 851,380" fill="#f4f0e8" opacity="0.04"/><polygon points="874,342 920,342 897,380" fill="#c0392b" opacity="0.04"/><polygon points="920,342 966,342 943,380" fill="#c0392b" opacity="0.08"/><polygon points="966,342 1012,342 989,380" fill="#f4f0e8" opacity="0.04"/><polygon points="1012,342 1058,342 1035,380" fill="#c0392b" opacity="0.04"/><polygon points="1058,342 1104,342 1081,380" fill="#c0392b" opacity="0.08"/><polygon points="1104,342 1150,342 1127,380" fill="#f4f0e8" opacity="0.04"/><polygon points="1150,342 1196,342 1173,380" fill="#c0392b" opacity="0.04"/><polygon points="1196,342 1242,342 1219,380" fill="#c0392b" opacity="0.08"/><polygon points="1242,342 1288,342 1265,380" fill="#f4f0e8" opacity="0.04"/><polygon points="0,380 46,380 23,418" fill="#c0392b" opacity="0.04"/><polygon points="46,380 92,380 69,418" fill="#c0392b" opacity="0.08"/><polygon points="92,380 138,380 115,418" fill="#f4f0e8" opacity="0.04"/><polygon points="138,380 184,380 161,418" fill="#c0392b" opacity="0.04"/><polygon points="184,380 230,380 207,418" fill="#c0392b" opacity="0.08"/><polygon points="230,380 276,380 253,418" fill="#f4f0e8" opacity="0.04"/><polygon points="276,380 322,380 299,418" fill="#c0392b" opacity="0.04"/><polygon points="322,380 368,380 345,418" fill="#c0392b" opacity="0.08"/><polygon points="368,380 414,380 391,418" fill="#f4f0e8" opacity="0.04"/><polygon points="414,380 460,380 437,418" fill="#c0392b" opacity="0.04"/><polygon points="460,380 506,380 483,418" fill="#c0392b" opacity="0.08"/><polygon points="506,380 552,380 529,418" fill="#f4f0e8" opacity="0.04"/><polygon points="552,380 598,380 575,418" fill="#c0392b" opacity="0.04"/><polygon points="598,380 644,380 621,418" fill="#c0392b" opacity="0.08"/><polygon points="644,380 690,380 667,418" fill="#f4f0e8" opacity="0.04"/><polygon points="690,380 736,380 713,418" fill="#c0392b" opacity="0.04"/><polygon points="736,380 782,380 759,418" fill="#c0392b" opacity="0.08"/><polygon points="782,380 828,380 805,418" fill="#f4f0e8" opacity="0.04"/><polygon points="828,380 874,380 851,418" fill="#c0392b" opacity="0.04"/><polygon points="874,380 920,380 897,418" fill="#c0392b" opacity="0.08"/><polygon points="920,380 966,380 943,418" fill="#f4f0e8" opacity="0.04"/><polygon points="966,380 1012,380 989,418" fill="#c0392b" opacity="0.04"/><polygon points="1012,380 1058,380 1035,418" fill="#c0392b" opacity="0.08"/><polygon points="1058,380 1104,380 1081,418" fill="#f4f0e8" opacity="0.04"/><polygon points="1104,380 1150,380 1127,418" fill="#c0392b" opacity="0.04"/><polygon points="1150,380 1196,380 1173,418" fill="#c0392b" opacity="0.08"/><polygon points="1196,380 1242,380 1219,418" fill="#f4f0e8" opacity="0.04"/><polygon points="1242,380 1288,380 1265,418" fill="#c0392b" opacity="0.04"/><polygon points="0,418 46,418 23,456" fill="#c0392b" opacity="0.08"/><polygon points="46,418 92,418 69,456" fill="#f4f0e8" opacity="0.04"/><polygon points="92,418 138,418 115,456" fill="#c0392b" opacity="0.04"/><polygon points="138,418 184,418 161,456" fill="#c0392b" opacity="0.08"/><polygon points="184,418 230,418 207,456" fill="#f4f0e8" opacity="0.04"/><polygon points="230,418 276,418 253,456" fill="#c0392b" opacity="0.04"/><polygon points="276,418 322,418 299,456" fill="#c0392b" opacity="0.08"/><polygon points="322,418 368,418 345,456" fill="#f4f0e8" opacity="0.04"/><polygon points="368,418 414,418 391,456" fill="#c0392b" opacity="0.04"/><polygon points="414,418 460,418 437,456" fill="#c0392b" opacity="0.08"/><polygon points="460,418 506,418 483,456" fill="#f4f0e8" opacity="0.04"/><polygon points="506,418 552,418 529,456" fill="#c0392b" opacity="0.04"/><polygon points="552,418 598,418 575,456" fill="#c0392b" opacity="0.08"/><polygon points="598,418 644,418 621,456" fill="#f4f0e8" opacity="0.04"/><polygon points="644,418 690,418 667,456" fill="#c0392b" opacity="0.04"/><polygon points="690,418 736,418 713,456" fill="#c0392b" opacity="0.08"/><polygon points="736,418 782,418 759,456" fill="#f4f0e8" opacity="0.04"/><polygon points="782,418 828,418 805,456" fill="#c0392b" opacity="0.04"/><polygon points="828,418 874,418 851,456" fill="#c0392b" opacity="0.08"/><polygon points="874,418 920,418 897,456" fill="#f4f0e8" opacity="0.04"/><polygon points="920,418 966,418 943,456" fill="#c0392b" opacity="0.04"/><polygon points="966,418 1012,418 989,456" fill="#c0392b" opacity="0.08"/><polygon points="1012,418 1058,418 1035,456" fill="#f4f0e8" opacity="0.04"/><polygon points="1058,418 1104,418 1081,456" fill="#c0392b" opacity="0.04"/><polygon points="1104,418 1150,418 1127,456" fill="#c0392b" opacity="0.08"/><polygon points="1150,418 1196,418 1173,456" fill="#f4f0e8" opacity="0.04"/><polygon points="1196,418 1242,418 1219,456" fill="#c0392b" opacity="0.04"/><polygon points="1242,418 1288,418 1265,456" fill="#c0392b" opacity="0.08"/><polygon points="0,456 46,456 23,494" fill="#f4f0e8" opacity="0.04"/><polygon points="46,456 92,456 69,494" fill="#c0392b" opacity="0.04"/><polygon points="92,456 138,456 115,494" fill="#c0392b" opacity="0.08"/><polygon points="138,456 184,456 161,494" fill="#f4f0e8" opacity="0.04"/><polygon points="184,456 230,456 207,494" fill="#c0392b" opacity="0.04"/><polygon points="230,456 276,456 253,494" fill="#c0392b" opacity="0.08"/><polygon points="276,456 322,456 299,494" fill="#f4f0e8" opacity="0.04"/><polygon points="322,456 368,456 345,494" fill="#c0392b" opacity="0.04"/><polygon points="368,456 414,456 391,494" fill="#c0392b" opacity="0.08"/><polygon points="414,456 460,456 437,494" fill="#f4f0e8" opacity="0.04"/><polygon points="460,456 506,456 483,494" fill="#c0392b" opacity="0.04"/><polygon points="506,456 552,456 529,494" fill="#c0392b" opacity="0.08"/><polygon points="552,456 598,456 575,494" fill="#f4f0e8" opacity="0.04"/><polygon points="598,456 644,456 621,494" fill="#c0392b" opacity="0.04"/><polygon points="644,456 690,456 667,494" fill="#c0392b" opacity="0.08"/><polygon points="690,456 736,456 713,494" fill="#f4f0e8" opacity="0.04"/><polygon points="736,456 782,456 759,494" fill="#c0392b" opacity="0.04"/><polygon points="782,456 828,456 805,494" fill="#c0392b" opacity="0.08"/><polygon points="828,456 874,456 851,494" fill="#f4f0e8" opacity="0.04"/><polygon points="874,456 920,456 897,494" fill="#c0392b" opacity="0.04"/><polygon points="920,456 966,456 943,494" fill="#c0392b" opacity="0.08"/><polygon points="966,456 1012,456 989,494" fill="#f4f0e8" opacity="0.04"/><polygon points="1012,456 1058,456 1035,494" fill="#c0392b" opacity="0.04"/><polygon points="1058,456 1104,456 1081,494" fill="#c0392b" opacity="0.08"/><polygon points="1104,456 1150,456 1127,494" fill="#f4f0e8" opacity="0.04"/><polygon points="1150,456 1196,456 1173,494" fill="#c0392b" opacity="0.04"/><polygon points="1196,456 1242,456 1219,494" fill="#c0392b" opacity="0.08"/><polygon points="1242,456 1288,456 1265,494" fill="#f4f0e8" opacity="0.04"/><polygon points="0,494 46,494 23,532" fill="#c0392b" opacity="0.04"/><polygon points="46,494 92,494 69,532" fill="#c0392b" opacity="0.08"/><polygon points="92,494 138,494 115,532" fill="#f4f0e8" opacity="0.04"/><polygon points="138,494 184,494 161,532" fill="#c0392b" opacity="0.04"/><polygon points="184,494 230,494 207,532" fill="#c0392b" opacity="0.08"/><polygon points="230,494 276,494 253,532" fill="#f4f0e8" opacity="0.04"/><polygon points="276,494 322,494 299,532" fill="#c0392b" opacity="0.04"/><polygon points="322,494 368,494 345,532" fill="#c0392b" opacity="0.08"/><polygon points="368,494 414,494 391,532" fill="#f4f0e8" opacity="0.04"/><polygon points="414,494 460,494 437,532" fill="#c0392b" opacity="0.04"/><polygon points="460,494 506,494 483,532" fill="#c0392b" opacity="0.08"/><polygon points="506,494 552,494 529,532" fill="#f4f0e8" opacity="0.04"/><polygon points="552,494 598,494 575,532" fill="#c0392b" opacity="0.04"/><polygon points="598,494 644,494 621,532" fill="#c0392b" opacity="0.08"/><polygon points="644,494 690,494 667,532" fill="#f4f0e8" opacity="0.04"/><polygon points="690,494 736,494 713,532" fill="#c0392b" opacity="0.04"/><polygon points="736,494 782,494 759,532" fill="#c0392b" opacity="0.08"/><polygon points="782,494 828,494 805,532" fill="#f4f0e8" opacity="0.04"/><polygon points="828,494 874,494 851,532" fill="#c0392b" opacity="0.04"/><polygon points="874,494 920,494 897,532" fill="#c0392b" opacity="0.08"/><polygon points="920,494 966,494 943,532" fill="#f4f0e8" opacity="0.04"/><polygon points="966,494 1012,494 989,532" fill="#c0392b" opacity="0.04"/><polygon points="1012,494 1058,494 1035,532" fill="#c0392b" opacity="0.08"/><polygon points="1058,494 1104,494 1081,532" fill="#f4f0e8" opacity="0.04"/><polygon points="1104,494 1150,494 1127,532" fill="#c0392b" opacity="0.04"/><polygon points="1150,494 1196,494 1173,532" fill="#c0392b" opacity="0.08"/><polygon points="1196,494 1242,494 1219,532" fill="#f4f0e8" opacity="0.04"/><polygon points="1242,494 1288,494 1265,532" fill="#c0392b" opacity="0.04"/><polygon points="0,532 46,532 23,570" fill="#c0392b" opacity="0.08"/><polygon points="46,532 92,532 69,570" fill="#f4f0e8" opacity="0.04"/><polygon points="92,532 138,532 115,570" fill="#c0392b" opacity="0.04"/><polygon points="138,532 184,532 161,570" fill="#c0392b" opacity="0.08"/><polygon points="184,532 230,532 207,570" fill="#f4f0e8" opacity="0.04"/><polygon points="230,532 276,532 253,570" fill="#c0392b" opacity="0.04"/><polygon points="276,532 322,532 299,570" fill="#c0392b" opacity="0.08"/><polygon points="322,532 368,532 345,570" fill="#f4f0e8" opacity="0.04"/><polygon points="368,532 414,532 391,570" fill="#c0392b" opacity="0.04"/><polygon points="414,532 460,532 437,570" fill="#c0392b" opacity="0.08"/><polygon points="460,532 506,532 483,570" fill="#f4f0e8" opacity="0.04"/><polygon points="506,532 552,532 529,570" fill="#c0392b" opacity="0.04"/><polygon points="552,532 598,532 575,570" fill="#c0392b" opacity="0.08"/><polygon points="598,532 644,532 621,570" fill="#f4f0e8" opacity="0.04"/><polygon points="644,532 690,532 667,570" fill="#c0392b" opacity="0.04"/><polygon points="690,532 736,532 713,570" fill="#c0392b" opacity="0.08"/><polygon points="736,532 782,532 759,570" fill="#f4f0e8" opacity="0.04"/><polygon points="782,532 828,532 805,570" fill="#c0392b" opacity="0.04"/><polygon points="828,532 874,532 851,570" fill="#c0392b" opacity="0.08"/><polygon points="874,532 920,532 897,570" fill="#f4f0e8" opacity="0.04"/><polygon points="920,532 966,532 943,570" fill="#c0392b" opacity="0.04"/><polygon points="966,532 1012,532 989,570" fill="#c0392b" opacity="0.08"/><polygon points="1012,532 1058,532 1035,570" fill="#f4f0e8" opacity="0.04"/><polygon points="1058,532 1104,532 1081,570" fill="#c0392b" opacity="0.04"/><polygon points="1104,532 1150,532 1127,570" fill="#c0392b" opacity="0.08"/><polygon points="1150,532 1196,532 1173,570" fill="#f4f0e8" opacity="0.04"/><polygon points="1196,532 1242,532 1219,570" fill="#c0392b" opacity="0.04"/><polygon points="1242,532 1288,532 1265,570" fill="#c0392b" opacity="0.08"/><polygon points="0,570 46,570 23,608" fill="#f4f0e8" opacity="0.04"/><polygon points="46,570 92,570 69,608" fill="#c0392b" opacity="0.04"/><polygon points="92,570 138,570 115,608" fill="#c0392b" opacity="0.08"/><polygon points="138,570 184,570 161,608" fill="#f4f0e8" opacity="0.04"/><polygon points="184,570 230,570 207,608" fill="#c0392b" opacity="0.04"/><polygon points="230,570 276,570 253,608" fill="#c0392b" opacity="0.08"/><polygon points="276,570 322,570 299,608" fill="#f4f0e8" opacity="0.04"/><polygon points="322,570 368,570 345,608" fill="#c0392b" opacity="0.04"/><polygon points="368,570 414,570 391,608" fill="#c0392b" opacity="0.08"/><polygon points="414,570 460,570 437,608" fill="#f4f0e8" opacity="0.04"/><polygon points="460,570 506,570 483,608" fill="#c0392b" opacity="0.04"/><polygon points="506,570 552,570 529,608" fill="#c0392b" opacity="0.08"/><polygon points="552,570 598,570 575,608" fill="#f4f0e8" opacity="0.04"/><polygon points="598,570 644,570 621,608" fill="#c0392b" opacity="0.04"/><polygon points="644,570 690,570 667,608" fill="#c0392b" opacity="0.08"/><polygon points="690,570 736,570 713,608" fill="#f4f0e8" opacity="0.04"/><polygon points="736,570 782,570 759,608" fill="#c0392b" opacity="0.04"/><polygon points="782,570 828,570 805,608" fill="#c0392b" opacity="0.08"/><polygon points="828,570 874,570 851,608" fill="#f4f0e8" opacity="0.04"/><polygon points="874,570 920,570 897,608" fill="#c0392b" opacity="0.04"/><polygon points="920,570 966,570 943,608" fill="#c0392b" opacity="0.08"/><polygon points="966,570 1012,570 989,608" fill="#f4f0e8" opacity="0.04"/><polygon points="1012,570 1058,570 1035,608" fill="#c0392b" opacity="0.04"/><polygon points="1058,570 1104,570 1081,608" fill="#c0392b" opacity="0.08"/><polygon points="1104,570 1150,570 1127,608" fill="#f4f0e8" opacity="0.04"/><polygon points="1150,570 1196,570 1173,608" fill="#c0392b" opacity="0.04"/><polygon points="1196,570 1242,570 1219,608" fill="#c0392b" opacity="0.08"/><polygon points="1242,570 1288,570 1265,608" fill="#f4f0e8" opacity="0.04"/><polygon points="0,608 46,608 23,646" fill="#c0392b" opacity="0.04"/><polygon points="46,608 92,608 69,646" fill="#c0392b" opacity="0.08"/><polygon points="92,608 138,608 115,646" fill="#f4f0e8" opacity="0.04"/><polygon points="138,608 184,608 161,646" fill="#c0392b" opacity="0.04"/><polygon points="184,608 230,608 207,646" fill="#c0392b" opacity="0.08"/><polygon points="230,608 276,608 253,646" fill="#f4f0e8" opacity="0.04"/><polygon points="276,608 322,608 299,646" fill="#c0392b" opacity="0.04"/><polygon points="322,608 368,608 345,646" fill="#c0392b" opacity="0.08"/><polygon points="368,608 414,608 391,646" fill="#f4f0e8" opacity="0.04"/><polygon points="414,608 460,608 437,646" fill="#c0392b" opacity="0.04"/><polygon points="460,608 506,608 483,646" fill="#c0392b" opacity="0.08"/><polygon points="506,608 552,608 529,646" fill="#f4f0e8" opacity="0.04"/><polygon points="552,608 598,608 575,646" fill="#c0392b" opacity="0.04"/><polygon points="598,608 644,608 621,646" fill="#c0392b" opacity="0.08"/><polygon points="644,608 690,608 667,646" fill="#f4f0e8" opacity="0.04"/><polygon points="690,608 736,608 713,646" fill="#c0392b" opacity="0.04"/><polygon points="736,608 782,608 759,646" fill="#c0392b" opacity="0.08"/><polygon points="782,608 828,608 805,646" fill="#f4f0e8" opacity="0.04"/><polygon points="828,608 874,608 851,646" fill="#c0392b" opacity="0.04"/><polygon points="874,608 920,608 897,646" fill="#c0392b" opacity="0.08"/><polygon points="920,608 966,608 943,646" fill="#f4f0e8" opacity="0.04"/><polygon points="966,608 1012,608 989,646" fill="#c0392b" opacity="0.04"/><polygon points="1012,608 1058,608 1035,646" fill="#c0392b" opacity="0.08"/><polygon points="1058,608 1104,608 1081,646" fill="#f4f0e8" opacity="0.04"/><polygon points="1104,608 1150,608 1127,646" fill="#c0392b" opacity="0.04"/><polygon points="1150,608 1196,608 1173,646" fill="#c0392b" opacity="0.08"/><polygon points="1196,608 1242,608 1219,646" fill="#f4f0e8" opacity="0.04"/><polygon points="1242,608 1288,608 1265,646" fill="#c0392b" opacity="0.04"/><polygon points="0,646 46,646 23,684" fill="#c0392b" opacity="0.08"/><polygon points="46,646 92,646 69,684" fill="#f4f0e8" opacity="0.04"/><polygon points="92,646 138,646 115,684" fill="#c0392b" opacity="0.04"/><polygon points="138,646 184,646 161,684" fill="#c0392b" opacity="0.08"/><polygon points="184,646 230,646 207,684" fill="#f4f0e8" opacity="0.04"/><polygon points="230,646 276,646 253,684" fill="#c0392b" opacity="0.04"/><polygon points="276,646 322,646 299,684" fill="#c0392b" opacity="0.08"/><polygon points="322,646 368,646 345,684" fill="#f4f0e8" opacity="0.04"/><polygon points="368,646 414,646 391,684" fill="#c0392b" opacity="0.04"/><polygon points="414,646 460,646 437,684" fill="#c0392b" opacity="0.08"/><polygon points="460,646 506,646 483,684" fill="#f4f0e8" opacity="0.04"/><polygon points="506,646 552,646 529,684" fill="#c0392b" opacity="0.04"/><polygon points="552,646 598,646 575,684" fill="#c0392b" opacity="0.08"/><polygon points="598,646 644,646 621,684" fill="#f4f0e8" opacity="0.04"/><polygon points="644,646 690,646 667,684" fill="#c0392b" opacity="0.04"/><polygon points="690,646 736,646 713,684" fill="#c0392b" opacity="0.08"/><polygon points="736,646 782,646 759,684" fill="#f4f0e8" opacity="0.04"/><polygon points="782,646 828,646 805,684" fill="#c0392b" opacity="0.04"/><polygon points="828,646 874,646 851,684" fill="#c0392b" opacity="0.08"/><polygon points="874,646 920,646 897,684" fill="#f4f0e8" opacity="0.04"/><polygon points="920,646 966,646 943,684" fill="#c0392b" opacity="0.04"/><polygon points="966,646 1012,646 989,684" fill="#c0392b" opacity="0.08"/><polygon points="1012,646 1058,646 1035,684" fill="#f4f0e8" opacity="0.04"/><polygon points="1058,646 1104,646 1081,684" fill="#c0392b" opacity="0.04"/><polygon points="1104,646 1150,646 1127,684" fill="#c0392b" opacity="0.08"/><polygon points="1150,646 1196,646 1173,684" fill="#f4f0e8" opacity="0.04"/><polygon points="1196,646 1242,646 1219,684" fill="#c0392b" opacity="0.04"/><polygon points="1242,646 1288,646 1265,684" fill="#c0392b" opacity="0.08"/><polygon points="0,684 46,684 23,722" fill="#f4f0e8" opacity="0.04"/><polygon points="46,684 92,684 69,722" fill="#c0392b" opacity="0.04"/><polygon points="92,684 138,684 115,722" fill="#c0392b" opacity="0.08"/><polygon points="138,684 184,684 161,722" fill="#f4f0e8" opacity="0.04"/><polygon points="184,684 230,684 207,722" fill="#c0392b" opacity="0.04"/><polygon points="230,684 276,684 253,722" fill="#c0392b" opacity="0.08"/><polygon points="276,684 322,684 299,722" fill="#f4f0e8" opacity="0.04"/><polygon points="322,684 368,684 345,722" fill="#c0392b" opacity="0.04"/><polygon points="368,684 414,684 391,722" fill="#c0392b" opacity="0.08"/><polygon points="414,684 460,684 437,722" fill="#f4f0e8" opacity="0.04"/><polygon points="460,684 506,684 483,722" fill="#c0392b" opacity="0.04"/><polygon points="506,684 552,684 529,722" fill="#c0392b" opacity="0.08"/><polygon points="552,684 598,684 575,722" fill="#f4f0e8" opacity="0.04"/><polygon points="598,684 644,684 621,722" fill="#c0392b" opacity="0.04"/><polygon points="644,684 690,684 667,722" fill="#c0392b" opacity="0.08"/><polygon points="690,684 736,684 713,722" fill="#f4f0e8" opacity="0.04"/><polygon points="736,684 782,684 759,722" fill="#c0392b" opacity="0.04"/><polygon points="782,684 828,684 805,722" fill="#c0392b" opacity="0.08"/><polygon points="828,684 874,684 851,722" fill="#f4f0e8" opacity="0.04"/><polygon points="874,684 920,684 897,722" fill="#c0392b" opacity="0.04"/><polygon points="920,684 966,684 943,722" fill="#c0392b" opacity="0.08"/><polygon points="966,684 1012,684 989,722" fill="#f4f0e8" opacity="0.04"/><polygon points="1012,684 1058,684 1035,722" fill="#c0392b" opacity="0.04"/><polygon points="1058,684 1104,684 1081,722" fill="#c0392b" opacity="0.08"/><polygon points="1104,684 1150,684 1127,722" fill="#f4f0e8" opacity="0.04"/><polygon points="1150,684 1196,684 1173,722" fill="#c0392b" opacity="0.04"/><polygon points="1196,684 1242,684 1219,722" fill="#c0392b" opacity="0.08"/><polygon points="1242,684 1288,684 1265,722" fill="#f4f0e8" opacity="0.04"/>
<rect x="0" y="0" width="1200" height="8" fill="#c0392b"/>
<rect x="0" y="603" width="1200" height="72" fill="#0d0d0d"/>
<rect width="1200" height="18" fill="#0d0d0d"/><polygon points="0.0,0 50.0,0 25.0,18" fill="#c0392b"/><polygon points="50.0,0 100.0,0 75.0,18" fill="#c0392b"/><polygon points="100.0,0 150.0,0 125.0,18" fill="#c0392b"/><polygon points="150.0,0 200.0,0 175.0,18" fill="#c0392b"/><polygon points="200.0,0 250.0,0 225.0,18" fill="#c0392b"/><polygon points="250.0,0 300.0,0 275.0,18" fill="#c0392b"/><polygon points="300.0,0 350.0,0 325.0,18" fill="#c0392b"/><polygon points="350.0,0 400.0,0 375.0,18" fill="#c0392b"/><polygon points="400.0,0 450.0,0 425.0,18" fill="#c0392b"/><polygon points="450.0,0 500.0,0 475.0,18" fill="#c0392b"/><polygon points="500.0,0 550.0,0 525.0,18" fill="#c0392b"/><polygon points="550.0,0 600.0,0 575.0,18" fill="#c0392b"/><polygon points="600.0,0 650.0,0 625.0,18" fill="#c0392b"/><polygon points="650.0,0 700.0,0 675.0,18" fill="#c0392b"/><polygon points="700.0,0 750.0,0 725.0,18" fill="#c0392b"/><polygon points="750.0,0 800.0,0 775.0,18" fill="#c0392b"/><polygon points="800.0,0 850.0,0 825.0,18" fill="#c0392b"/><polygon points="850.0,0 900.0,0 875.0,18" fill="#c0392b"/><polygon points="900.0,0 950.0,0 925.0,18" fill="#c0392b"/><polygon points="950.0,0 1000.0,0 975.0,18" fill="#c0392b"/><polygon points="1000.0,0 1050.0,0 1025.0,18" fill="#c0392b"/><polygon points="1050.0,0 1100.0,0 1075.0,18" fill="#c0392b"/><polygon points="1100.0,0 1150.0,0 1125.0,18" fill="#c0392b"/><polygon points="1150.0,0 1200.0,0 1175.0,18" fill="#c0392b"/>
<text x="600" y="287" font-family="Georgia,serif" font-size="86" font-weight="bold"
  fill="#f4f0e8" text-anchor="middle">TŌIA MAI</text>
<text x="600" y="357" font-family="Arial,sans-serif" font-size="43"
  font-weight="bold" fill="#c0392b" text-anchor="middle">DRAG IT INTO LIGHT</text>
<text x="600" y="399" font-family="Arial,sans-serif" font-size="21"
  fill="#f4f0e8" text-anchor="middle" opacity="0.7">Name every AI product built on stolen data.</text>
<text x="600" y="653" font-family="Arial,sans-serif" font-size="20" font-weight="bold"
  fill="#f4f0e8" text-anchor="middle">THE KIWI DIALECTIC · kiwidialectic.com · Te Pā Tūwatawata</text>
</svg>