<svg lang="ar" dir="rtl" xmlns="http://www.w3.org/2000/svg" width="794" height="1123" viewBox="0 0 794 1123">
<title>Unaunahi — The Kiwi Dialectic</title>

<rect width="794" height="1123" fill="#0d0d0d"/>
<path d="M -20.0 561.0 A 33.0 42.0 0 0 1 40.0 561.0 A 33.0 42.0 0 0 1 -20.0 561.0 Z" fill="none" stroke="#c0392b" stroke-width="1.2" opacity="0.4"/>
<path d="M 40.0 561.0 A 33.0 42.0 0 0 1 100.0 561.0 A 33.0 42.0 0 0 1 40.0 561.0 Z" fill="none" stroke="#c0392b" stroke-width="1.2" opacity="0.4"/>
<path d="M 100.0 561.0 A 33.0 42.0 0 0 1 160.0 561.0 A 33.0 42.0 0 0 1 100.0 561.0 Z" fill="none" stroke="#c0392b" stroke-width="1.2" opacity="0.4"/>
<path d="M 160.0 561.0 A 33.0 42.0 0 0 1 220.0 561.0 A 33.0 42.0 0 0 1 160.0 561.0 Z" fill="none" stroke="#c0392b" stroke-width="1.2" opacity="0.4"/>
<path d="M 220.0 561.0 A 33.0 42.0 0 0 1 280.0 561.0 A 33.0 42.0 0 0 1 220.0 561.0 Z" fill="none" stroke="#c0392b" stroke-width="1.2" opacity="0.4"/>
<path d="M 280.0 561.0 A 33.0 42.0 0 0 1 340.0 561.0 A 33.0 42.0 0 0 1 280.0 561.0 Z" fill="none" stroke="#c0392b" stroke-width="1.2" opacity="0.4"/>
<path d="M 340.0 561.0 A 33.0 42.0 0 0 1 400.0 561.0 A 33.0 42.0 0 0 1 340.0 561.0 Z" fill="none" stroke="#c0392b" stroke-width="1.2" opacity="0.4"/>
<path d="M 400.0 561.0 A 33.0 42.0 0 0 1 460.0 561.0 A 33.0 42.0 0 0 1 400.0 561.0 Z" fill="none" stroke="#c0392b" stroke-width="1.2" opacity="0.4"/>
<path d="M 460.0 561.0 A 33.0 42.0 0 0 1 520.0 561.0 A 33.0 42.0 0 0 1 460.0 561.0 Z" fill="none" stroke="#c0392b" stroke-width="1.2" opacity="0.4"/>
<path d="M 520.0 561.0 A 33.0 42.0 0 0 1 580.0 561.0 A 33.0 42.0 0 0 1 520.0 561.0 Z" fill="none" stroke="#c0392b" stroke-width="1.2" opacity="0.4"/>
<path d="M 580.0 561.0 A 33.0 42.0 0 0 1 640.0 561.0 A 33.0 42.0 0 0 1 580.0 561.0 Z" fill="none" stroke="#c0392b" stroke-width="1.2" opacity="0.4"/>
<path d="M 640.0 561.0 A 33.0 42.0 0 0 1 700.0 561.0 A 33.0 42.0 0 0 1 640.0 561.0 Z" fill="none" stroke="#c0392b" stroke-width="1.2" opacity="0.4"/>
<path d="M 700.0 561.0 A 33.0 42.0 0 0 1 760.0 561.0 A 33.0 42.0 0 0 1 700.0 561.0 Z" fill="none" stroke="#c0392b" stroke-width="1.2" opacity="0.4"/>
<path d="M 760.0 561.0 A 33.0 42.0 0 0 1 820.0 561.0 A 33.0 42.0 0 0 1 760.0 561.0 Z" fill="none" stroke="#c0392b" stroke-width="1.2" opacity="0.4"/>
<path d="M 820.0 561.0 A 33.0 42.0 0 0 1 880.0 561.0 A 33.0 42.0 0 0 1 820.0 561.0 Z" fill="none" stroke="#c0392b" stroke-width="1.2" opacity="0.4"/>
<path d="M 10.0 600.0 A 33.0 42.0 0 0 1 70.0 600.0 A 33.0 42.0 0 0 1 10.0 600.0 Z" fill="none" stroke="#c0392b" stroke-width="1.2" opacity="0.4"/>
<path d="M 70.0 600.0 A 33.0 42.0 0 0 1 130.0 600.0 A 33.0 42.0 0 0 1 70.0 600.0 Z" fill="none" stroke="#c0392b" stroke-width="1.2" opacity="0.4"/>
<path d="M 130.0 600.0 A 33.0 42.0 0 0 1 190.0 600.0 A 33.0 42.0 0 0 1 130.0 600.0 Z" fill="none" stroke="#c0392b" stroke-width="1.2" opacity="0.4"/>
<path d="M 190.0 600.0 A 33.0 42.0 0 0 1 250.0 600.0 A 33.0 42.0 0 0 1 190.0 600.0 Z" fill="none" stroke="#c0392b" stroke-width="1.2" opacity="0.4"/>
<path d="M 250.0 600.0 A 33.0 42.0 0 0 1 310.0 600.0 A 33.0 42.0 0 0 1 250.0 600.0 Z" fill="none" stroke="#c0392b" stroke-width="1.2" opacity="0.4"/>
<path d="M 310.0 600.0 A 33.0 42.0 0 0 1 370.0 600.0 A 33.0 42.0 0 0 1 310.0 600.0 Z" fill="none" stroke="#c0392b" stroke-width="1.2" opacity="0.4"/>
<path d="M 370.0 600.0 A 33.0 42.0 0 0 1 430.0 600.0 A 33.0 42.0 0 0 1 370.0 600.0 Z" fill="none" stroke="#c0392b" stroke-width="1.2" opacity="0.4"/>
<path d="M 430.0 600.0 A 33.0 42.0 0 0 1 490.0 600.0 A 33.0 42.0 0 0 1 430.0 600.0 Z" fill="none" stroke="#c0392b" stroke-width="1.2" opacity="0.4"/>
<path d="M 490.0 600.0 A 33.0 42.0 0 0 1 550.0 600.0 A 33.0 42.0 0 0 1 490.0 600.0 Z" fill="none" stroke="#c0392b" stroke-width="1.2" opacity="0.4"/>
<path d="M 550.0 600.0 A 33.0 42.0 0 0 1 610.0 600.0 A 33.0 42.0 0 0 1 550.0 600.0 Z" fill="none" stroke="#c0392b" stroke-width="1.2" opacity="0.4"/>
<path d="M 610.0 600.0 A 33.0 42.0 0 0 1 670.0 600.0 A 33.0 42.0 0 0 1 610.0 600.0 Z" fill="none" stroke="#c0392b" stroke-width="1.2" opacity="0.4"/>
<path d="M 670.0 600.0 A 33.0 42.0 0 0 1 730.0 600.0 A 33.0 42.0 0 0 1 670.0 600.0 Z" fill="none" stroke="#c0392b" stroke-width="1.2" opacity="0.4"/>
<path d="M 730.0 600.0 A 33.0 42.0 0 0 1 790.0 600.0 A 33.0 42.0 0 0 1 730.0 600.0 Z" fill="none" stroke="#c0392b" stroke-width="1.2" opacity="0.4"/>
<path d="M 790.0 600.0 A 33.0 42.0 0 0 1 850.0 600.0 A 33.0 42.0 0 0 1 790.0 600.0 Z" fill="none" stroke="#c0392b" stroke-width="1.2" opacity="0.4"/>
<path d="M 850.0 600.0 A 33.0 42.0 0 0 1 910.0 600.0 A 33.0 42.0 0 0 1 850.0 600.0 Z" fill="none" stroke="#c0392b" stroke-width="1.2" opacity="0.4"/>
<path d="M -20.0 639.0 A 33.0 42.0 0 0 1 40.0 639.0 A 33.0 42.0 0 0 1 -20.0 639.0 Z" fill="none" stroke="#c0392b" stroke-width="1.2" opacity="0.4"/>
<path d="M 40.0 639.0 A 33.0 42.0 0 0 1 100.0 639.0 A 33.0 42.0 0 0 1 40.0 639.0 Z" fill="none" stroke="#c0392b" stroke-width="1.2" opacity="0.4"/>
<path d="M 100.0 639.0 A 33.0 42.0 0 0 1 160.0 639.0 A 33.0 42.0 0 0 1 100.0 639.0 Z" fill="none" stroke="#c0392b" stroke-width="1.2" opacity="0.4"/>
<path d="M 160.0 639.0 A 33.0 42.0 0 0 1 220.0 639.0 A 33.0 42.0 0 0 1 160.0 639.0 Z" fill="none" stroke="#c0392b" stroke-width="1.2" opacity="0.4"/>
<path d="M 220.0 639.0 A 33.0 42.0 0 0 1 280.0 639.0 A 33.0 42.0 0 0 1 220.0 639.0 Z" fill="none" stroke="#c0392b" stroke-width="1.2" opacity="0.4"/>
<path d="M 280.0 639.0 A 33.0 42.0 0 0 1 340.0 639.0 A 33.0 42.0 0 0 1 280.0 639.0 Z" fill="none" stroke="#c0392b" stroke-width="1.2" opacity="0.4"/>
<path d="M 340.0 639.0 A 33.0 42.0 0 0 1 400.0 639.0 A 33.0 42.0 0 0 1 340.0 639.0 Z" fill="none" stroke="#c0392b" stroke-width="1.2" opacity="0.4"/>
<path d="M 400.0 639.0 A 33.0 42.0 0 0 1 460.0 639.0 A 33.0 42.0 0 0 1 400.0 639.0 Z" fill="none" stroke="#c0392b" stroke-width="1.2" opacity="0.4"/>
<path d="M 460.0 639.0 A 33.0 42.0 0 0 1 520.0 639.0 A 33.0 42.0 0 0 1 460.0 639.0 Z" fill="none" stroke="#c0392b" stroke-width="1.2" opacity="0.4"/>
<path d="M 520.0 639.0 A 33.0 42.0 0 0 1 580.0 639.0 A 33.0 42.0 0 0 1 520.0 639.0 Z" fill="none" stroke="#c0392b" stroke-width="1.2" opacity="0.4"/>
<path d="M 580.0 639.0 A 33.0 42.0 0 0 1 640.0 639.0 A 33.0 42.0 0 0 1 580.0 639.0 Z" fill="none" stroke="#c0392b" stroke-width="1.2" opacity="0.4"/>
<path d="M 640.0 639.0 A 33.0 42.0 0 0 1 700.0 639.0 A 33.0 42.0 0 0 1 640.0 639.0 Z" fill="none" stroke="#c0392b" stroke-width="1.2" opacity="0.4"/>
<path d="M 700.0 639.0 A 33.0 42.0 0 0 1 760.0 639.0 A 33.0 42.0 0 0 1 700.0 639.0 Z" fill="none" stroke="#c0392b" stroke-width="1.2" opacity="0.4"/>
<path d="M 760.0 639.0 A 33.0 42.0 0 0 1 820.0 639.0 A 33.0 42.0 0 0 1 760.0 639.0 Z" fill="none" stroke="#c0392b" stroke-width="1.2" opacity="0.4"/>
<path d="M 820.0 639.0 A 33.0 42.0 0 0 1 880.0 639.0 A 33.0 42.0 0 0 1 820.0 639.0 Z" fill="none" stroke="#c0392b" stroke-width="1.2" opacity="0.4"/>
<path d="M 10.0 678.0 A 33.0 42.0 0 0 1 70.0 678.0 A 33.0 42.0 0 0 1 10.0 678.0 Z" fill="none" stroke="#c0392b" stroke-width="1.2" opacity="0.4"/>
<path d="M 70.0 678.0 A 33.0 42.0 0 0 1 130.0 678.0 A 33.0 42.0 0 0 1 70.0 678.0 Z" fill="none" stroke="#c0392b" stroke-width="1.2" opacity="0.4"/>
<path d="M 130.0 678.0 A 33.0 42.0 0 0 1 190.0 678.0 A 33.0 42.0 0 0 1 130.0 678.0 Z" fill="none" stroke="#c0392b" stroke-width="1.2" opacity="0.4"/>
<path d="M 190.0 678.0 A 33.0 42.0 0 0 1 250.0 678.0 A 33.0 42.0 0 0 1 190.0 678.0 Z" fill="none" stroke="#c0392b" stroke-width="1.2" opacity="0.4"/>
<path d="M 250.0 678.0 A 33.0 42.0 0 0 1 310.0 678.0 A 33.0 42.0 0 0 1 250.0 678.0 Z" fill="none" stroke="#c0392b" stroke-width="1.2" opacity="0.4"/>
<path d="M 310.0 678.0 A 33.0 42.0 0 0 1 370.0 678.0 A 33.0 42.0 0 0 1 310.0 678.0 Z" fill="none" stroke="#c0392b" stroke-width="1.2" opacity="0.4"/>
<path d="M 370.0 678.0 A 33.0 42.0 0 0 1 430.0 678.0 A 33.0 42.0 0 0 1 370.0 678.0 Z" fill="none" stroke="#c0392b" stroke-width="1.2" opacity="0.4"/>
<path d="M 430.0 678.0 A 33.0 42.0 0 0 1 490.0 678.0 A 33.0 42.0 0 0 1 430.0 678.0 Z" fill="none" stroke="#c0392b" stroke-width="1.2" opacity="0.4"/>
<path d="M 490.0 678.0 A 33.0 42.0 0 0 1 550.0 678.0 A 33.0 42.0 0 0 1 490.0 678.0 Z" fill="none" stroke="#c0392b" stroke-width="1.2" opacity="0.4"/>
<path d="M 550.0 678.0 A 33.0 42.0 0 0 1 610.0 678.0 A 33.0 42.0 0 0 1 550.0 678.0 Z" fill="none" stroke="#c0392b" stroke-width="1.2" opacity="0.4"/>
<path d="M 610.0 678.0 A 33.0 42.0 0 0 1 670.0 678.0 A 33.0 42.0 0 0 1 610.0 678.0 Z" fill="none" stroke="#c0392b" stroke-width="1.2" opacity="0.4"/>
<path d="M 670.0 678.0 A 33.0 42.0 0 0 1 730.0 678.0 A 33.0 42.0 0 0 1 670.0 678.0 Z" fill="none" stroke="#c0392b" stroke-width="1.2" opacity="0.4"/>
<path d="M 730.0 678.0 A 33.0 42.0 0 0 1 790.0 678.0 A 33.0 42.0 0 0 1 730.0 678.0 Z" fill="none" stroke="#c0392b" stroke-width="1.2" opacity="0.4"/>
<path d="M 790.0 678.0 A 33.0 42.0 0 0 1 850.0 678.0 A 33.0 42.0 0 0 1 790.0 678.0 Z" fill="none" stroke="#c0392b" stroke-width="1.2" opacity="0.4"/>
<path d="M 850.0 678.0 A 33.0 42.0 0 0 1 910.0 678.0 A 33.0 42.0 0 0 1 850.0 678.0 Z" fill="none" stroke="#c0392b" stroke-width="1.2" opacity="0.4"/>
<path d="M -20.0 717.0 A 33.0 42.0 0 0 1 40.0 717.0 A 33.0 42.0 0 0 1 -20.0 717.0 Z" fill="none" stroke="#c0392b" stroke-width="1.2" opacity="0.4"/>
<path d="M 40.0 717.0 A 33.0 42.0 0 0 1 100.0 717.0 A 33.0 42.0 0 0 1 40.0 717.0 Z" fill="none" stroke="#c0392b" stroke-width="1.2" opacity="0.4"/>
<path d="M 100.0 717.0 A 33.0 42.0 0 0 1 160.0 717.0 A 33.0 42.0 0 0 1 100.0 717.0 Z" fill="none" stroke="#c0392b" stroke-width="1.2" opacity="0.4"/>
<path d="M 160.0 717.0 A 33.0 42.0 0 0 1 220.0 717.0 A 33.0 42.0 0 0 1 160.0 717.0 Z" fill="none" stroke="#c0392b" stroke-width="1.2" opacity="0.4"/>
<path d="M 220.0 717.0 A 33.0 42.0 0 0 1 280.0 717.0 A 33.0 42.0 0 0 1 220.0 717.0 Z" fill="none" stroke="#c0392b" stroke-width="1.2" opacity="0.4"/>
<path d="M 280.0 717.0 A 33.0 42.0 0 0 1 340.0 717.0 A 33.0 42.0 0 0 1 280.0 717.0 Z" fill="none" stroke="#c0392b" stroke-width="1.2" opacity="0.4"/>
<path d="M 340.0 717.0 A 33.0 42.0 0 0 1 400.0 717.0 A 33.0 42.0 0 0 1 340.0 717.0 Z" fill="none" stroke="#c0392b" stroke-width="1.2" opacity="0.4"/>
<path d="M 400.0 717.0 A 33.0 42.0 0 0 1 460.0 717.0 A 33.0 42.0 0 0 1 400.0 717.0 Z" fill="none" stroke="#c0392b" stroke-width="1.2" opacity="0.4"/>
<path d="M 460.0 717.0 A 33.0 42.0 0 0 1 520.0 717.0 A 33.0 42.0 0 0 1 460.0 717.0 Z" fill="none" stroke="#c0392b" stroke-width="1.2" opacity="0.4"/>
<path d="M 520.0 717.0 A 33.0 42.0 0 0 1 580.0 717.0 A 33.0 42.0 0 0 1 520.0 717.0 Z" fill="none" stroke="#c0392b" stroke-width="1.2" opacity="0.4"/>
<path d="M 580.0 717.0 A 33.0 42.0 0 0 1 640.0 717.0 A 33.0 42.0 0 0 1 580.0 717.0 Z" fill="none" stroke="#c0392b" stroke-width="1.2" opacity="0.4"/>
<path d="M 640.0 717.0 A 33.0 42.0 0 0 1 700.0 717.0 A 33.0 42.0 0 0 1 640.0 717.0 Z" fill="none" stroke="#c0392b" stroke-width="1.2" opacity="0.4"/>
<path d="M 700.0 717.0 A 33.0 42.0 0 0 1 760.0 717.0 A 33.0 42.0 0 0 1 700.0 717.0 Z" fill="none" stroke="#c0392b" stroke-width="1.2" opacity="0.4"/>
<path d="M 760.0 717.0 A 33.0 42.0 0 0 1 820.0 717.0 A 33.0 42.0 0 0 1 760.0 717.0 Z" fill="none" stroke="#c0392b" stroke-width="1.2" opacity="0.4"/>
<path d="M 820.0 717.0 A 33.0 42.0 0 0 1 880.0 717.0 A 33.0 42.0 0 0 1 820.0 717.0 Z" fill="none" stroke="#c0392b" stroke-width="1.2" opacity="0.4"/>
<path d="M 10.0 756.0 A 33.0 42.0 0 0 1 70.0 756.0 A 33.0 42.0 0 0 1 10.0 756.0 Z" fill="none" stroke="#c0392b" stroke-width="1.2" opacity="0.4"/>
<path d="M 70.0 756.0 A 33.0 42.0 0 0 1 130.0 756.0 A 33.0 42.0 0 0 1 70.0 756.0 Z" fill="none" stroke="#c0392b" stroke-width="1.2" opacity="0.4"/>
<path d="M 130.0 756.0 A 33.0 42.0 0 0 1 190.0 756.0 A 33.0 42.0 0 0 1 130.0 756.0 Z" fill="none" stroke="#c0392b" stroke-width="1.2" opacity="0.4"/>
<path d="M 190.0 756.0 A 33.0 42.0 0 0 1 250.0 756.0 A 33.0 42.0 0 0 1 190.0 756.0 Z" fill="none" stroke="#c0392b" stroke-width="1.2" opacity="0.4"/>
<path d="M 250.0 756.0 A 33.0 42.0 0 0 1 310.0 756.0 A 33.0 42.0 0 0 1 250.0 756.0 Z" fill="none" stroke="#c0392b" stroke-width="1.2" opacity="0.4"/>
<path d="M 310.0 756.0 A 33.0 42.0 0 0 1 370.0 756.0 A 33.0 42.0 0 0 1 310.0 756.0 Z" fill="none" stroke="#c0392b" stroke-width="1.2" opacity="0.4"/>
<path d="M 370.0 756.0 A 33.0 42.0 0 0 1 430.0 756.0 A 33.0 42.0 0 0 1 370.0 756.0 Z" fill="none" stroke="#c0392b" stroke-width="1.2" opacity="0.4"/>
<path d="M 430.0 756.0 A 33.0 42.0 0 0 1 490.0 756.0 A 33.0 42.0 0 0 1 430.0 756.0 Z" fill="none" stroke="#c0392b" stroke-width="1.2" opacity="0.4"/>
<path d="M 490.0 756.0 A 33.0 42.0 0 0 1 550.0 756.0 A 33.0 42.0 0 0 1 490.0 756.0 Z" fill="none" stroke="#c0392b" stroke-width="1.2" opacity="0.4"/>
<path d="M 550.0 756.0 A 33.0 42.0 0 0 1 610.0 756.0 A 33.0 42.0 0 0 1 550.0 756.0 Z" fill="none" stroke="#c0392b" stroke-width="1.2" opacity="0.4"/>
<path d="M 610.0 756.0 A 33.0 42.0 0 0 1 670.0 756.0 A 33.0 42.0 0 0 1 610.0 756.0 Z" fill="none" stroke="#c0392b" stroke-width="1.2" opacity="0.4"/>
<path d="M 670.0 756.0 A 33.0 42.0 0 0 1 730.0 756.0 A 33.0 42.0 0 0 1 670.0 756.0 Z" fill="none" stroke="#c0392b" stroke-width="1.2" opacity="0.4"/>
<path d="M 730.0 756.0 A 33.0 42.0 0 0 1 790.0 756.0 A 33.0 42.0 0 0 1 730.0 756.0 Z" fill="none" stroke="#c0392b" stroke-width="1.2" opacity="0.4"/>
<path d="M 790.0 756.0 A 33.0 42.0 0 0 1 850.0 756.0 A 33.0 42.0 0 0 1 790.0 756.0 Z" fill="none" stroke="#c0392b" stroke-width="1.2" opacity="0.4"/>
<path d="M 850.0 756.0 A 33.0 42.0 0 0 1 910.0 756.0 A 33.0 42.0 0 0 1 850.0 756.0 Z" fill="none" stroke="#c0392b" stroke-width="1.2" opacity="0.4"/>
<path d="M -20.0 795.0 A 33.0 42.0 0 0 1 40.0 795.0 A 33.0 42.0 0 0 1 -20.0 795.0 Z" fill="none" stroke="#c0392b" stroke-width="1.2" opacity="0.4"/>
<path d="M 40.0 795.0 A 33.0 42.0 0 0 1 100.0 795.0 A 33.0 42.0 0 0 1 40.0 795.0 Z" fill="none" stroke="#c0392b" stroke-width="1.2" opacity="0.4"/>
<path d="M 100.0 795.0 A 33.0 42.0 0 0 1 160.0 795.0 A 33.0 42.0 0 0 1 100.0 795.0 Z" fill="none" stroke="#c0392b" stroke-width="1.2" opacity="0.4"/>
<path d="M 160.0 795.0 A 33.0 42.0 0 0 1 220.0 795.0 A 33.0 42.0 0 0 1 160.0 795.0 Z" fill="none" stroke="#c0392b" stroke-width="1.2" opacity="0.4"/>
<path d="M 220.0 795.0 A 33.0 42.0 0 0 1 280.0 795.0 A 33.0 42.0 0 0 1 220.0 795.0 Z" fill="none" stroke="#c0392b" stroke-width="1.2" opacity="0.4"/>
<path d="M 280.0 795.0 A 33.0 42.0 0 0 1 340.0 795.0 A 33.0 42.0 0 0 1 280.0 795.0 Z" fill="none" stroke="#c0392b" stroke-width="1.2" opacity="0.4"/>
<path d="M 340.0 795.0 A 33.0 42.0 0 0 1 400.0 795.0 A 33.0 42.0 0 0 1 340.0 795.0 Z" fill="none" stroke="#c0392b" stroke-width="1.2" opacity="0.4"/>
<path d="M 400.0 795.0 A 33.0 42.0 0 0 1 460.0 795.0 A 33.0 42.0 0 0 1 400.0 795.0 Z" fill="none" stroke="#c0392b" stroke-width="1.2" opacity="0.4"/>
<path d="M 460.0 795.0 A 33.0 42.0 0 0 1 520.0 795.0 A 33.0 42.0 0 0 1 460.0 795.0 Z" fill="none" stroke="#c0392b" stroke-width="1.2" opacity="0.4"/>
<path d="M 520.0 795.0 A 33.0 42.0 0 0 1 580.0 795.0 A 33.0 42.0 0 0 1 520.0 795.0 Z" fill="none" stroke="#c0392b" stroke-width="1.2" opacity="0.4"/>
<path d="M 580.0 795.0 A 33.0 42.0 0 0 1 640.0 795.0 A 33.0 42.0 0 0 1 580.0 795.0 Z" fill="none" stroke="#c0392b" stroke-width="1.2" opacity="0.4"/>
<path d="M 640.0 795.0 A 33.0 42.0 0 0 1 700.0 795.0 A 33.0 42.0 0 0 1 640.0 795.0 Z" fill="none" stroke="#c0392b" stroke-width="1.2" opacity="0.4"/>
<path d="M 700.0 795.0 A 33.0 42.0 0 0 1 760.0 795.0 A 33.0 42.0 0 0 1 700.0 795.0 Z" fill="none" stroke="#c0392b" stroke-width="1.2" opacity="0.4"/>
<path d="M 760.0 795.0 A 33.0 42.0 0 0 1 820.0 795.0 A 33.0 42.0 0 0 1 760.0 795.0 Z" fill="none" stroke="#c0392b" stroke-width="1.2" opacity="0.4"/>
<path d="M 820.0 795.0 A 33.0 42.0 0 0 1 880.0 795.0 A 33.0 42.0 0 0 1 820.0 795.0 Z" fill="none" stroke="#c0392b" stroke-width="1.2" opacity="0.4"/>
<path d="M 10.0 834.0 A 33.0 42.0 0 0 1 70.0 834.0 A 33.0 42.0 0 0 1 10.0 834.0 Z" fill="none" stroke="#c0392b" stroke-width="1.2" opacity="0.4"/>
<path d="M 70.0 834.0 A 33.0 42.0 0 0 1 130.0 834.0 A 33.0 42.0 0 0 1 70.0 834.0 Z" fill="none" stroke="#c0392b" stroke-width="1.2" opacity="0.4"/>
<path d="M 130.0 834.0 A 33.0 42.0 0 0 1 190.0 834.0 A 33.0 42.0 0 0 1 130.0 834.0 Z" fill="none" stroke="#c0392b" stroke-width="1.2" opacity="0.4"/>
<path d="M 190.0 834.0 A 33.0 42.0 0 0 1 250.0 834.0 A 33.0 42.0 0 0 1 190.0 834.0 Z" fill="none" stroke="#c0392b" stroke-width="1.2" opacity="0.4"/>
<path d="M 250.0 834.0 A 33.0 42.0 0 0 1 310.0 834.0 A 33.0 42.0 0 0 1 250.0 834.0 Z" fill="none" stroke="#c0392b" stroke-width="1.2" opacity="0.4"/>
<path d="M 310.0 834.0 A 33.0 42.0 0 0 1 370.0 834.0 A 33.0 42.0 0 0 1 310.0 834.0 Z" fill="none" stroke="#c0392b" stroke-width="1.2" opacity="0.4"/>
<path d="M 370.0 834.0 A 33.0 42.0 0 0 1 430.0 834.0 A 33.0 42.0 0 0 1 370.0 834.0 Z" fill="none" stroke="#c0392b" stroke-width="1.2" opacity="0.4"/>
<path d="M 430.0 834.0 A 33.0 42.0 0 0 1 490.0 834.0 A 33.0 42.0 0 0 1 430.0 834.0 Z" fill="none" stroke="#c0392b" stroke-width="1.2" opacity="0.4"/>
<path d="M 490.0 834.0 A 33.0 42.0 0 0 1 550.0 834.0 A 33.0 42.0 0 0 1 490.0 834.0 Z" fill="none" stroke="#c0392b" stroke-width="1.2" opacity="0.4"/>
<path d="M 550.0 834.0 A 33.0 42.0 0 0 1 610.0 834.0 A 33.0 42.0 0 0 1 550.0 834.0 Z" fill="none" stroke="#c0392b" stroke-width="1.2" opacity="0.4"/>
<path d="M 610.0 834.0 A 33.0 42.0 0 0 1 670.0 834.0 A 33.0 42.0 0 0 1 610.0 834.0 Z" fill="none" stroke="#c0392b" stroke-width="1.2" opacity="0.4"/>
<path d="M 670.0 834.0 A 33.0 42.0 0 0 1 730.0 834.0 A 33.0 42.0 0 0 1 670.0 834.0 Z" fill="none" stroke="#c0392b" stroke-width="1.2" opacity="0.4"/>
<path d="M 730.0 834.0 A 33.0 42.0 0 0 1 790.0 834.0 A 33.0 42.0 0 0 1 730.0 834.0 Z" fill="none" stroke="#c0392b" stroke-width="1.2" opacity="0.4"/>
<path d="M 790.0 834.0 A 33.0 42.0 0 0 1 850.0 834.0 A 33.0 42.0 0 0 1 790.0 834.0 Z" fill="none" stroke="#c0392b" stroke-width="1.2" opacity="0.4"/>
<path d="M 850.0 834.0 A 33.0 42.0 0 0 1 910.0 834.0 A 33.0 42.0 0 0 1 850.0 834.0 Z" fill="none" stroke="#c0392b" stroke-width="1.2" opacity="0.4"/>
<path d="M -20.0 873.0 A 33.0 42.0 0 0 1 40.0 873.0 A 33.0 42.0 0 0 1 -20.0 873.0 Z" fill="none" stroke="#c0392b" stroke-width="1.2" opacity="0.4"/>
<path d="M 40.0 873.0 A 33.0 42.0 0 0 1 100.0 873.0 A 33.0 42.0 0 0 1 40.0 873.0 Z" fill="none" stroke="#c0392b" stroke-width="1.2" opacity="0.4"/>
<path d="M 100.0 873.0 A 33.0 42.0 0 0 1 160.0 873.0 A 33.0 42.0 0 0 1 100.0 873.0 Z" fill="none" stroke="#c0392b" stroke-width="1.2" opacity="0.4"/>
<path d="M 160.0 873.0 A 33.0 42.0 0 0 1 220.0 873.0 A 33.0 42.0 0 0 1 160.0 873.0 Z" fill="none" stroke="#c0392b" stroke-width="1.2" opacity="0.4"/>
<path d="M 220.0 873.0 A 33.0 42.0 0 0 1 280.0 873.0 A 33.0 42.0 0 0 1 220.0 873.0 Z" fill="none" stroke="#c0392b" stroke-width="1.2" opacity="0.4"/>
<path d="M 280.0 873.0 A 33.0 42.0 0 0 1 340.0 873.0 A 33.0 42.0 0 0 1 280.0 873.0 Z" fill="none" stroke="#c0392b" stroke-width="1.2" opacity="0.4"/>
<path d="M 340.0 873.0 A 33.0 42.0 0 0 1 400.0 873.0 A 33.0 42.0 0 0 1 340.0 873.0 Z" fill="none" stroke="#c0392b" stroke-width="1.2" opacity="0.4"/>
<path d="M 400.0 873.0 A 33.0 42.0 0 0 1 460.0 873.0 A 33.0 42.0 0 0 1 400.0 873.0 Z" fill="none" stroke="#c0392b" stroke-width="1.2" opacity="0.4"/>
<path d="M 460.0 873.0 A 33.0 42.0 0 0 1 520.0 873.0 A 33.0 42.0 0 0 1 460.0 873.0 Z" fill="none" stroke="#c0392b" stroke-width="1.2" opacity="0.4"/>
<path d="M 520.0 873.0 A 33.0 42.0 0 0 1 580.0 873.0 A 33.0 42.0 0 0 1 520.0 873.0 Z" fill="none" stroke="#c0392b" stroke-width="1.2" opacity="0.4"/>
<path d="M 580.0 873.0 A 33.0 42.0 0 0 1 640.0 873.0 A 33.0 42.0 0 0 1 580.0 873.0 Z" fill="none" stroke="#c0392b" stroke-width="1.2" opacity="0.4"/>
<path d="M 640.0 873.0 A 33.0 42.0 0 0 1 700.0 873.0 A 33.0 42.0 0 0 1 640.0 873.0 Z" fill="none" stroke="#c0392b" stroke-width="1.2" opacity="0.4"/>
<path d="M 700.0 873.0 A 33.0 42.0 0 0 1 760.0 873.0 A 33.0 42.0 0 0 1 700.0 873.0 Z" fill="none" stroke="#c0392b" stroke-width="1.2" opacity="0.4"/>
<path d="M 760.0 873.0 A 33.0 42.0 0 0 1 820.0 873.0 A 33.0 42.0 0 0 1 760.0 873.0 Z" fill="none" stroke="#c0392b" stroke-width="1.2" opacity="0.4"/>
<path d="M 820.0 873.0 A 33.0 42.0 0 0 1 880.0 873.0 A 33.0 42.0 0 0 1 820.0 873.0 Z" fill="none" stroke="#c0392b" stroke-width="1.2" opacity="0.4"/>
<path d="M 10.0 912.0 A 33.0 42.0 0 0 1 70.0 912.0 A 33.0 42.0 0 0 1 10.0 912.0 Z" fill="none" stroke="#c0392b" stroke-width="1.2" opacity="0.4"/>
<path d="M 70.0 912.0 A 33.0 42.0 0 0 1 130.0 912.0 A 33.0 42.0 0 0 1 70.0 912.0 Z" fill="none" stroke="#c0392b" stroke-width="1.2" opacity="0.4"/>
<path d="M 130.0 912.0 A 33.0 42.0 0 0 1 190.0 912.0 A 33.0 42.0 0 0 1 130.0 912.0 Z" fill="none" stroke="#c0392b" stroke-width="1.2" opacity="0.4"/>
<path d="M 190.0 912.0 A 33.0 42.0 0 0 1 250.0 912.0 A 33.0 42.0 0 0 1 190.0 912.0 Z" fill="none" stroke="#c0392b" stroke-width="1.2" opacity="0.4"/>
<path d="M 250.0 912.0 A 33.0 42.0 0 0 1 310.0 912.0 A 33.0 42.0 0 0 1 250.0 912.0 Z" fill="none" stroke="#c0392b" stroke-width="1.2" opacity="0.4"/>
<path d="M 310.0 912.0 A 33.0 42.0 0 0 1 370.0 912.0 A 33.0 42.0 0 0 1 310.0 912.0 Z" fill="none" stroke="#c0392b" stroke-width="1.2" opacity="0.4"/>
<path d="M 370.0 912.0 A 33.0 42.0 0 0 1 430.0 912.0 A 33.0 42.0 0 0 1 370.0 912.0 Z" fill="none" stroke="#c0392b" stroke-width="1.2" opacity="0.4"/>
<path d="M 430.0 912.0 A 33.0 42.0 0 0 1 490.0 912.0 A 33.0 42.0 0 0 1 430.0 912.0 Z" fill="none" stroke="#c0392b" stroke-width="1.2" opacity="0.4"/>
<path d="M 490.0 912.0 A 33.0 42.0 0 0 1 550.0 912.0 A 33.0 42.0 0 0 1 490.0 912.0 Z" fill="none" stroke="#c0392b" stroke-width="1.2" opacity="0.4"/>
<path d="M 550.0 912.0 A 33.0 42.0 0 0 1 610.0 912.0 A 33.0 42.0 0 0 1 550.0 912.0 Z" fill="none" stroke="#c0392b" stroke-width="1.2" opacity="0.4"/>
<path d="M 610.0 912.0 A 33.0 42.0 0 0 1 670.0 912.0 A 33.0 42.0 0 0 1 610.0 912.0 Z" fill="none" stroke="#c0392b" stroke-width="1.2" opacity="0.4"/>
<path d="M 670.0 912.0 A 33.0 42.0 0 0 1 730.0 912.0 A 33.0 42.0 0 0 1 670.0 912.0 Z" fill="none" stroke="#c0392b" stroke-width="1.2" opacity="0.4"/>
<path d="M 730.0 912.0 A 33.0 42.0 0 0 1 790.0 912.0 A 33.0 42.0 0 0 1 730.0 912.0 Z" fill="none" stroke="#c0392b" stroke-width="1.2" opacity="0.4"/>
<path d="M 790.0 912.0 A 33.0 42.0 0 0 1 850.0 912.0 A 33.0 42.0 0 0 1 790.0 912.0 Z" fill="none" stroke="#c0392b" stroke-width="1.2" opacity="0.4"/>
<path d="M 850.0 912.0 A 33.0 42.0 0 0 1 910.0 912.0 A 33.0 42.0 0 0 1 850.0 912.0 Z" fill="none" stroke="#c0392b" stroke-width="1.2" opacity="0.4"/>
<path d="M -20.0 951.0 A 33.0 42.0 0 0 1 40.0 951.0 A 33.0 42.0 0 0 1 -20.0 951.0 Z" fill="none" stroke="#c0392b" stroke-width="1.2" opacity="0.4"/>
<path d="M 40.0 951.0 A 33.0 42.0 0 0 1 100.0 951.0 A 33.0 42.0 0 0 1 40.0 951.0 Z" fill="none" stroke="#c0392b" stroke-width="1.2" opacity="0.4"/>
<path d="M 100.0 951.0 A 33.0 42.0 0 0 1 160.0 951.0 A 33.0 42.0 0 0 1 100.0 951.0 Z" fill="none" stroke="#c0392b" stroke-width="1.2" opacity="0.4"/>
<path d="M 160.0 951.0 A 33.0 42.0 0 0 1 220.0 951.0 A 33.0 42.0 0 0 1 160.0 951.0 Z" fill="none" stroke="#c0392b" stroke-width="1.2" opacity="0.4"/>
<path d="M 220.0 951.0 A 33.0 42.0 0 0 1 280.0 951.0 A 33.0 42.0 0 0 1 220.0 951.0 Z" fill="none" stroke="#c0392b" stroke-width="1.2" opacity="0.4"/>
<path d="M 280.0 951.0 A 33.0 42.0 0 0 1 340.0 951.0 A 33.0 42.0 0 0 1 280.0 951.0 Z" fill="none" stroke="#c0392b" stroke-width="1.2" opacity="0.4"/>
<path d="M 340.0 951.0 A 33.0 42.0 0 0 1 400.0 951.0 A 33.0 42.0 0 0 1 340.0 951.0 Z" fill="none" stroke="#c0392b" stroke-width="1.2" opacity="0.4"/>
<path d="M 400.0 951.0 A 33.0 42.0 0 0 1 460.0 951.0 A 33.0 42.0 0 0 1 400.0 951.0 Z" fill="none" stroke="#c0392b" stroke-width="1.2" opacity="0.4"/>
<path d="M 460.0 951.0 A 33.0 42.0 0 0 1 520.0 951.0 A 33.0 42.0 0 0 1 460.0 951.0 Z" fill="none" stroke="#c0392b" stroke-width="1.2" opacity="0.4"/>
<path d="M 520.0 951.0 A 33.0 42.0 0 0 1 580.0 951.0 A 33.0 42.0 0 0 1 520.0 951.0 Z" fill="none" stroke="#c0392b" stroke-width="1.2" opacity="0.4"/>
<path d="M 580.0 951.0 A 33.0 42.0 0 0 1 640.0 951.0 A 33.0 42.0 0 0 1 580.0 951.0 Z" fill="none" stroke="#c0392b" stroke-width="1.2" opacity="0.4"/>
<path d="M 640.0 951.0 A 33.0 42.0 0 0 1 700.0 951.0 A 33.0 42.0 0 0 1 640.0 951.0 Z" fill="none" stroke="#c0392b" stroke-width="1.2" opacity="0.4"/>
<path d="M 700.0 951.0 A 33.0 42.0 0 0 1 760.0 951.0 A 33.0 42.0 0 0 1 700.0 951.0 Z" fill="none" stroke="#c0392b" stroke-width="1.2" opacity="0.4"/>
<path d="M 760.0 951.0 A 33.0 42.0 0 0 1 820.0 951.0 A 33.0 42.0 0 0 1 760.0 951.0 Z" fill="none" stroke="#c0392b" stroke-width="1.2" opacity="0.4"/>
<path d="M 820.0 951.0 A 33.0 42.0 0 0 1 880.0 951.0 A 33.0 42.0 0 0 1 820.0 951.0 Z" fill="none" stroke="#c0392b" stroke-width="1.2" opacity="0.4"/>
<path d="M 10.0 990.0 A 33.0 42.0 0 0 1 70.0 990.0 A 33.0 42.0 0 0 1 10.0 990.0 Z" fill="none" stroke="#c0392b" stroke-width="1.2" opacity="0.4"/>
<path d="M 70.0 990.0 A 33.0 42.0 0 0 1 130.0 990.0 A 33.0 42.0 0 0 1 70.0 990.0 Z" fill="none" stroke="#c0392b" stroke-width="1.2" opacity="0.4"/>
<path d="M 130.0 990.0 A 33.0 42.0 0 0 1 190.0 990.0 A 33.0 42.0 0 0 1 130.0 990.0 Z" fill="none" stroke="#c0392b" stroke-width="1.2" opacity="0.4"/>
<path d="M 190.0 990.0 A 33.0 42.0 0 0 1 250.0 990.0 A 33.0 42.0 0 0 1 190.0 990.0 Z" fill="none" stroke="#c0392b" stroke-width="1.2" opacity="0.4"/>
<path d="M 250.0 990.0 A 33.0 42.0 0 0 1 310.0 990.0 A 33.0 42.0 0 0 1 250.0 990.0 Z" fill="none" stroke="#c0392b" stroke-width="1.2" opacity="0.4"/>
<path d="M 310.0 990.0 A 33.0 42.0 0 0 1 370.0 990.0 A 33.0 42.0 0 0 1 310.0 990.0 Z" fill="none" stroke="#c0392b" stroke-width="1.2" opacity="0.4"/>
<path d="M 370.0 990.0 A 33.0 42.0 0 0 1 430.0 990.0 A 33.0 42.0 0 0 1 370.0 990.0 Z" fill="none" stroke="#c0392b" stroke-width="1.2" opacity="0.4"/>
<path d="M 430.0 990.0 A 33.0 42.0 0 0 1 490.0 990.0 A 33.0 42.0 0 0 1 430.0 990.0 Z" fill="none" stroke="#c0392b" stroke-width="1.2" opacity="0.4"/>
<path d="M 490.0 990.0 A 33.0 42.0 0 0 1 550.0 990.0 A 33.0 42.0 0 0 1 490.0 990.0 Z" fill="none" stroke="#c0392b" stroke-width="1.2" opacity="0.4"/>
<path d="M 550.0 990.0 A 33.0 42.0 0 0 1 610.0 990.0 A 33.0 42.0 0 0 1 550.0 990.0 Z" fill="none" stroke="#c0392b" stroke-width="1.2" opacity="0.4"/>
<path d="M 610.0 990.0 A 33.0 42.0 0 0 1 670.0 990.0 A 33.0 42.0 0 0 1 610.0 990.0 Z" fill="none" stroke="#c0392b" stroke-width="1.2" opacity="0.4"/>
<path d="M 670.0 990.0 A 33.0 42.0 0 0 1 730.0 990.0 A 33.0 42.0 0 0 1 670.0 990.0 Z" fill="none" stroke="#c0392b" stroke-width="1.2" opacity="0.4"/>
<path d="M 730.0 990.0 A 33.0 42.0 0 0 1 790.0 990.0 A 33.0 42.0 0 0 1 730.0 990.0 Z" fill="none" stroke="#c0392b" stroke-width="1.2" opacity="0.4"/>
<path d="M 790.0 990.0 A 33.0 42.0 0 0 1 850.0 990.0 A 33.0 42.0 0 0 1 790.0 990.0 Z" fill="none" stroke="#c0392b" stroke-width="1.2" opacity="0.4"/>
<path d="M 850.0 990.0 A 33.0 42.0 0 0 1 910.0 990.0 A 33.0 42.0 0 0 1 850.0 990.0 Z" fill="none" stroke="#c0392b" stroke-width="1.2" opacity="0.4"/>
<path d="M -20.0 1029.0 A 33.0 42.0 0 0 1 40.0 1029.0 A 33.0 42.0 0 0 1 -20.0 1029.0 Z" fill="none" stroke="#c0392b" stroke-width="1.2" opacity="0.4"/>
<path d="M 40.0 1029.0 A 33.0 42.0 0 0 1 100.0 1029.0 A 33.0 42.0 0 0 1 40.0 1029.0 Z" fill="none" stroke="#c0392b" stroke-width="1.2" opacity="0.4"/>
<path d="M 100.0 1029.0 A 33.0 42.0 0 0 1 160.0 1029.0 A 33.0 42.0 0 0 1 100.0 1029.0 Z" fill="none" stroke="#c0392b" stroke-width="1.2" opacity="0.4"/>
<path d="M 160.0 1029.0 A 33.0 42.0 0 0 1 220.0 1029.0 A 33.0 42.0 0 0 1 160.0 1029.0 Z" fill="none" stroke="#c0392b" stroke-width="1.2" opacity="0.4"/>
<path d="M 220.0 1029.0 A 33.0 42.0 0 0 1 280.0 1029.0 A 33.0 42.0 0 0 1 220.0 1029.0 Z" fill="none" stroke="#c0392b" stroke-width="1.2" opacity="0.4"/>
<path d="M 280.0 1029.0 A 33.0 42.0 0 0 1 340.0 1029.0 A 33.0 42.0 0 0 1 280.0 1029.0 Z" fill="none" stroke="#c0392b" stroke-width="1.2" opacity="0.4"/>
<path d="M 340.0 1029.0 A 33.0 42.0 0 0 1 400.0 1029.0 A 33.0 42.0 0 0 1 340.0 1029.0 Z" fill="none" stroke="#c0392b" stroke-width="1.2" opacity="0.4"/>
<path d="M 400.0 1029.0 A 33.0 42.0 0 0 1 460.0 1029.0 A 33.0 42.0 0 0 1 400.0 1029.0 Z" fill="none" stroke="#c0392b" stroke-width="1.2" opacity="0.4"/>
<path d="M 460.0 1029.0 A 33.0 42.0 0 0 1 520.0 1029.0 A 33.0 42.0 0 0 1 460.0 1029.0 Z" fill="none" stroke="#c0392b" stroke-width="1.2" opacity="0.4"/>
<path d="M 520.0 1029.0 A 33.0 42.0 0 0 1 580.0 1029.0 A 33.0 42.0 0 0 1 520.0 1029.0 Z" fill="none" stroke="#c0392b" stroke-width="1.2" opacity="0.4"/>
<path d="M 580.0 1029.0 A 33.0 42.0 0 0 1 640.0 1029.0 A 33.0 42.0 0 0 1 580.0 1029.0 Z" fill="none" stroke="#c0392b" stroke-width="1.2" opacity="0.4"/>
<path d="M 640.0 1029.0 A 33.0 42.0 0 0 1 700.0 1029.0 A 33.0 42.0 0 0 1 640.0 1029.0 Z" fill="none" stroke="#c0392b" stroke-width="1.2" opacity="0.4"/>
<path d="M 700.0 1029.0 A 33.0 42.0 0 0 1 760.0 1029.0 A 33.0 42.0 0 0 1 700.0 1029.0 Z" fill="none" stroke="#c0392b" stroke-width="1.2" opacity="0.4"/>
<path d="M 760.0 1029.0 A 33.0 42.0 0 0 1 820.0 1029.0 A 33.0 42.0 0 0 1 760.0 1029.0 Z" fill="none" stroke="#c0392b" stroke-width="1.2" opacity="0.4"/>
<path d="M 820.0 1029.0 A 33.0 42.0 0 0 1 880.0 1029.0 A 33.0 42.0 0 0 1 820.0 1029.0 Z" fill="none" stroke="#c0392b" stroke-width="1.2" opacity="0.4"/>
<path d="M 10.0 1068.0 A 33.0 42.0 0 0 1 70.0 1068.0 A 33.0 42.0 0 0 1 10.0 1068.0 Z" fill="none" stroke="#c0392b" stroke-width="1.2" opacity="0.4"/>
<path d="M 70.0 1068.0 A 33.0 42.0 0 0 1 130.0 1068.0 A 33.0 42.0 0 0 1 70.0 1068.0 Z" fill="none" stroke="#c0392b" stroke-width="1.2" opacity="0.4"/>
<path d="M 130.0 1068.0 A 33.0 42.0 0 0 1 190.0 1068.0 A 33.0 42.0 0 0 1 130.0 1068.0 Z" fill="none" stroke="#c0392b" stroke-width="1.2" opacity="0.4"/>
<path d="M 190.0 1068.0 A 33.0 42.0 0 0 1 250.0 1068.0 A 33.0 42.0 0 0 1 190.0 1068.0 Z" fill="none" stroke="#c0392b" stroke-width="1.2" opacity="0.4"/>
<path d="M 250.0 1068.0 A 33.0 42.0 0 0 1 310.0 1068.0 A 33.0 42.0 0 0 1 250.0 1068.0 Z" fill="none" stroke="#c0392b" stroke-width="1.2" opacity="0.4"/>
<path d="M 310.0 1068.0 A 33.0 42.0 0 0 1 370.0 1068.0 A 33.0 42.0 0 0 1 310.0 1068.0 Z" fill="none" stroke="#c0392b" stroke-width="1.2" opacity="0.4"/>
<path d="M 370.0 1068.0 A 33.0 42.0 0 0 1 430.0 1068.0 A 33.0 42.0 0 0 1 370.0 1068.0 Z" fill="none" stroke="#c0392b" stroke-width="1.2" opacity="0.4"/>
<path d="M 430.0 1068.0 A 33.0 42.0 0 0 1 490.0 1068.0 A 33.0 42.0 0 0 1 430.0 1068.0 Z" fill="none" stroke="#c0392b" stroke-width="1.2" opacity="0.4"/>
<path d="M 490.0 1068.0 A 33.0 42.0 0 0 1 550.0 1068.0 A 33.0 42.0 0 0 1 490.0 1068.0 Z" fill="none" stroke="#c0392b" stroke-width="1.2" opacity="0.4"/>
<path d="M 550.0 1068.0 A 33.0 42.0 0 0 1 610.0 1068.0 A 33.0 42.0 0 0 1 550.0 1068.0 Z" fill="none" stroke="#c0392b" stroke-width="1.2" opacity="0.4"/>
<path d="M 610.0 1068.0 A 33.0 42.0 0 0 1 670.0 1068.0 A 33.0 42.0 0 0 1 610.0 1068.0 Z" fill="none" stroke="#c0392b" stroke-width="1.2" opacity="0.4"/>
<path d="M 670.0 1068.0 A 33.0 42.0 0 0 1 730.0 1068.0 A 33.0 42.0 0 0 1 670.0 1068.0 Z" fill="none" stroke="#c0392b" stroke-width="1.2" opacity="0.4"/>
<path d="M 730.0 1068.0 A 33.0 42.0 0 0 1 790.0 1068.0 A 33.0 42.0 0 0 1 730.0 1068.0 Z" fill="none" stroke="#c0392b" stroke-width="1.2" opacity="0.4"/>
<path d="M 790.0 1068.0 A 33.0 42.0 0 0 1 850.0 1068.0 A 33.0 42.0 0 0 1 790.0 1068.0 Z" fill="none" stroke="#c0392b" stroke-width="1.2" opacity="0.4"/>
<path d="M 850.0 1068.0 A 33.0 42.0 0 0 1 910.0 1068.0 A 33.0 42.0 0 0 1 850.0 1068.0 Z" fill="none" stroke="#c0392b" stroke-width="1.2" opacity="0.4"/>
<path d="M 400.0 0.0 A 30.3 38.5 0 0 1 455.0 0.0 A 30.3 38.5 0 0 1 400.0 0.0 Z" fill="none" stroke="#f4f0e8" stroke-width="0.8" opacity="0.25"/>
<path d="M 455.0 0.0 A 30.3 38.5 0 0 1 510.0 0.0 A 30.3 38.5 0 0 1 455.0 0.0 Z" fill="none" stroke="#f4f0e8" stroke-width="0.8" opacity="0.25"/>
<path d="M 510.0 0.0 A 30.3 38.5 0 0 1 565.0 0.0 A 30.3 38.5 0 0 1 510.0 0.0 Z" fill="none" stroke="#f4f0e8" stroke-width="0.8" opacity="0.25"/>
<path d="M 565.0 0.0 A 30.3 38.5 0 0 1 620.0 0.0 A 30.3 38.5 0 0 1 565.0 0.0 Z" fill="none" stroke="#f4f0e8" stroke-width="0.8" opacity="0.25"/>
<path d="M 620.0 0.0 A 30.3 38.5 0 0 1 675.0 0.0 A 30.3 38.5 0 0 1 620.0 0.0 Z" fill="none" stroke="#f4f0e8" stroke-width="0.8" opacity="0.25"/>
<path d="M 675.0 0.0 A 30.3 38.5 0 0 1 730.0 0.0 A 30.3 38.5 0 0 1 675.0 0.0 Z" fill="none" stroke="#f4f0e8" stroke-width="0.8" opacity="0.25"/>
<path d="M 730.0 0.0 A 30.3 38.5 0 0 1 785.0 0.0 A 30.3 38.5 0 0 1 730.0 0.0 Z" fill="none" stroke="#f4f0e8" stroke-width="0.8" opacity="0.25"/>
<path d="M 785.0 0.0 A 30.3 38.5 0 0 1 840.0 0.0 A 30.3 38.5 0 0 1 785.0 0.0 Z" fill="none" stroke="#f4f0e8" stroke-width="0.8" opacity="0.25"/>
<path d="M 840.0 0.0 A 30.3 38.5 0 0 1 895.0 0.0 A 30.3 38.5 0 0 1 840.0 0.0 Z" fill="none" stroke="#f4f0e8" stroke-width="0.8" opacity="0.25"/>
<path d="M 895.0 0.0 A 30.3 38.5 0 0 1 950.0 0.0 A 30.3 38.5 0 0 1 895.0 0.0 Z" fill="none" stroke="#f4f0e8" stroke-width="0.8" opacity="0.25"/>
<path d="M 427.5 35.8 A 30.3 38.5 0 0 1 482.5 35.8 A 30.3 38.5 0 0 1 427.5 35.8 Z" fill="none" stroke="#f4f0e8" stroke-width="0.8" opacity="0.25"/>
<path d="M 482.5 35.8 A 30.3 38.5 0 0 1 537.5 35.8 A 30.3 38.5 0 0 1 482.5 35.8 Z" fill="none" stroke="#f4f0e8" stroke-width="0.8" opacity="0.25"/>
<path d="M 537.5 35.8 A 30.3 38.5 0 0 1 592.5 35.8 A 30.3 38.5 0 0 1 537.5 35.8 Z" fill="none" stroke="#f4f0e8" stroke-width="0.8" opacity="0.25"/>
<path d="M 592.5 35.8 A 30.3 38.5 0 0 1 647.5 35.8 A 30.3 38.5 0 0 1 592.5 35.8 Z" fill="none" stroke="#f4f0e8" stroke-width="0.8" opacity="0.25"/>
<path d="M 647.5 35.8 A 30.3 38.5 0 0 1 702.5 35.8 A 30.3 38.5 0 0 1 647.5 35.8 Z" fill="none" stroke="#f4f0e8" stroke-width="0.8" opacity="0.25"/>
<path d="M 702.5 35.8 A 30.3 38.5 0 0 1 757.5 35.8 A 30.3 38.5 0 0 1 702.5 35.8 Z" fill="none" stroke="#f4f0e8" stroke-width="0.8" opacity="0.25"/>
<path d="M 757.5 35.8 A 30.3 38.5 0 0 1 812.5 35.8 A 30.3 38.5 0 0 1 757.5 35.8 Z" fill="none" stroke="#f4f0e8" stroke-width="0.8" opacity="0.25"/>
<path d="M 812.5 35.8 A 30.3 38.5 0 0 1 867.5 35.8 A 30.3 38.5 0 0 1 812.5 35.8 Z" fill="none" stroke="#f4f0e8" stroke-width="0.8" opacity="0.25"/>
<path d="M 867.5 35.8 A 30.3 38.5 0 0 1 922.5 35.8 A 30.3 38.5 0 0 1 867.5 35.8 Z" fill="none" stroke="#f4f0e8" stroke-width="0.8" opacity="0.25"/>
<path d="M 922.5 35.8 A 30.3 38.5 0 0 1 977.5 35.8 A 30.3 38.5 0 0 1 922.5 35.8 Z" fill="none" stroke="#f4f0e8" stroke-width="0.8" opacity="0.25"/>
<path d="M 400.0 71.5 A 30.3 38.5 0 0 1 455.0 71.5 A 30.3 38.5 0 0 1 400.0 71.5 Z" fill="none" stroke="#f4f0e8" stroke-width="0.8" opacity="0.25"/>
<path d="M 455.0 71.5 A 30.3 38.5 0 0 1 510.0 71.5 A 30.3 38.5 0 0 1 455.0 71.5 Z" fill="none" stroke="#f4f0e8" stroke-width="0.8" opacity="0.25"/>
<path d="M 510.0 71.5 A 30.3 38.5 0 0 1 565.0 71.5 A 30.3 38.5 0 0 1 510.0 71.5 Z" fill="none" stroke="#f4f0e8" stroke-width="0.8" opacity="0.25"/>
<path d="M 565.0 71.5 A 30.3 38.5 0 0 1 620.0 71.5 A 30.3 38.5 0 0 1 565.0 71.5 Z" fill="none" stroke="#f4f0e8" stroke-width="0.8" opacity="0.25"/>
<path d="M 620.0 71.5 A 30.3 38.5 0 0 1 675.0 71.5 A 30.3 38.5 0 0 1 620.0 71.5 Z" fill="none" stroke="#f4f0e8" stroke-width="0.8" opacity="0.25"/>
<path d="M 675.0 71.5 A 30.3 38.5 0 0 1 730.0 71.5 A 30.3 38.5 0 0 1 675.0 71.5 Z" fill="none" stroke="#f4f0e8" stroke-width="0.8" opacity="0.25"/>
<path d="M 730.0 71.5 A 30.3 38.5 0 0 1 785.0 71.5 A 30.3 38.5 0 0 1 730.0 71.5 Z" fill="none" stroke="#f4f0e8" stroke-width="0.8" opacity="0.25"/>
<path d="M 785.0 71.5 A 30.3 38.5 0 0 1 840.0 71.5 A 30.3 38.5 0 0 1 785.0 71.5 Z" fill="none" stroke="#f4f0e8" stroke-width="0.8" opacity="0.25"/>
<path d="M 840.0 71.5 A 30.3 38.5 0 0 1 895.0 71.5 A 30.3 38.5 0 0 1 840.0 71.5 Z" fill="none" stroke="#f4f0e8" stroke-width="0.8" opacity="0.25"/>
<path d="M 895.0 71.5 A 30.3 38.5 0 0 1 950.0 71.5 A 30.3 38.5 0 0 1 895.0 71.5 Z" fill="none" stroke="#f4f0e8" stroke-width="0.8" opacity="0.25"/>
<path d="M 427.5 107.2 A 30.3 38.5 0 0 1 482.5 107.2 A 30.3 38.5 0 0 1 427.5 107.2 Z" fill="none" stroke="#f4f0e8" stroke-width="0.8" opacity="0.25"/>
<path d="M 482.5 107.2 A 30.3 38.5 0 0 1 537.5 107.2 A 30.3 38.5 0 0 1 482.5 107.2 Z" fill="none" stroke="#f4f0e8" stroke-width="0.8" opacity="0.25"/>
<path d="M 537.5 107.2 A 30.3 38.5 0 0 1 592.5 107.2 A 30.3 38.5 0 0 1 537.5 107.2 Z" fill="none" stroke="#f4f0e8" stroke-width="0.8" opacity="0.25"/>
<path d="M 592.5 107.2 A 30.3 38.5 0 0 1 647.5 107.2 A 30.3 38.5 0 0 1 592.5 107.2 Z" fill="none" stroke="#f4f0e8" stroke-width="0.8" opacity="0.25"/>
<path d="M 647.5 107.2 A 30.3 38.5 0 0 1 702.5 107.2 A 30.3 38.5 0 0 1 647.5 107.2 Z" fill="none" stroke="#f4f0e8" stroke-width="0.8" opacity="0.25"/>
<path d="M 702.5 107.2 A 30.3 38.5 0 0 1 757.5 107.2 A 30.3 38.5 0 0 1 702.5 107.2 Z" fill="none" stroke="#f4f0e8" stroke-width="0.8" opacity="0.25"/>
<path d="M 757.5 107.2 A 30.3 38.5 0 0 1 812.5 107.2 A 30.3 38.5 0 0 1 757.5 107.2 Z" fill="none" stroke="#f4f0e8" stroke-width="0.8" opacity="0.25"/>
<path d="M 812.5 107.2 A 30.3 38.5 0 0 1 867.5 107.2 A 30.3 38.5 0 0 1 812.5 107.2 Z" fill="none" stroke="#f4f0e8" stroke-width="0.8" opacity="0.25"/>
<path d="M 867.5 107.2 A 30.3 38.5 0 0 1 922.5 107.2 A 30.3 38.5 0 0 1 867.5 107.2 Z" fill="none" stroke="#f4f0e8" stroke-width="0.8" opacity="0.25"/>
<path d="M 922.5 107.2 A 30.3 38.5 0 0 1 977.5 107.2 A 30.3 38.5 0 0 1 922.5 107.2 Z" fill="none" stroke="#f4f0e8" stroke-width="0.8" opacity="0.25"/>
<path d="M 400.0 143.0 A 30.3 38.5 0 0 1 455.0 143.0 A 30.3 38.5 0 0 1 400.0 143.0 Z" fill="none" stroke="#f4f0e8" stroke-width="0.8" opacity="0.25"/>
<path d="M 455.0 143.0 A 30.3 38.5 0 0 1 510.0 143.0 A 30.3 38.5 0 0 1 455.0 143.0 Z" fill="none" stroke="#f4f0e8" stroke-width="0.8" opacity="0.25"/>
<path d="M 510.0 143.0 A 30.3 38.5 0 0 1 565.0 143.0 A 30.3 38.5 0 0 1 510.0 143.0 Z" fill="none" stroke="#f4f0e8" stroke-width="0.8" opacity="0.25"/>
<path d="M 565.0 143.0 A 30.3 38.5 0 0 1 620.0 143.0 A 30.3 38.5 0 0 1 565.0 143.0 Z" fill="none" stroke="#f4f0e8" stroke-width="0.8" opacity="0.25"/>
<path d="M 620.0 143.0 A 30.3 38.5 0 0 1 675.0 143.0 A 30.3 38.5 0 0 1 620.0 143.0 Z" fill="none" stroke="#f4f0e8" stroke-width="0.8" opacity="0.25"/>
<path d="M 675.0 143.0 A 30.3 38.5 0 0 1 730.0 143.0 A 30.3 38.5 0 0 1 675.0 143.0 Z" fill="none" stroke="#f4f0e8" stroke-width="0.8" opacity="0.25"/>
<path d="M 730.0 143.0 A 30.3 38.5 0 0 1 785.0 143.0 A 30.3 38.5 0 0 1 730.0 143.0 Z" fill="none" stroke="#f4f0e8" stroke-width="0.8" opacity="0.25"/>
<path d="M 785.0 143.0 A 30.3 38.5 0 0 1 840.0 143.0 A 30.3 38.5 0 0 1 785.0 143.0 Z" fill="none" stroke="#f4f0e8" stroke-width="0.8" opacity="0.25"/>
<path d="M 840.0 143.0 A 30.3 38.5 0 0 1 895.0 143.0 A 30.3 38.5 0 0 1 840.0 143.0 Z" fill="none" stroke="#f4f0e8" stroke-width="0.8" opacity="0.25"/>
<path d="M 895.0 143.0 A 30.3 38.5 0 0 1 950.0 143.0 A 30.3 38.5 0 0 1 895.0 143.0 Z" fill="none" stroke="#f4f0e8" stroke-width="0.8" opacity="0.25"/>
<path d="M 427.5 178.8 A 30.3 38.5 0 0 1 482.5 178.8 A 30.3 38.5 0 0 1 427.5 178.8 Z" fill="none" stroke="#f4f0e8" stroke-width="0.8" opacity="0.25"/>
<path d="M 482.5 178.8 A 30.3 38.5 0 0 1 537.5 178.8 A 30.3 38.5 0 0 1 482.5 178.8 Z" fill="none" stroke="#f4f0e8" stroke-width="0.8" opacity="0.25"/>
<path d="M 537.5 178.8 A 30.3 38.5 0 0 1 592.5 178.8 A 30.3 38.5 0 0 1 537.5 178.8 Z" fill="none" stroke="#f4f0e8" stroke-width="0.8" opacity="0.25"/>
<path d="M 592.5 178.8 A 30.3 38.5 0 0 1 647.5 178.8 A 30.3 38.5 0 0 1 592.5 178.8 Z" fill="none" stroke="#f4f0e8" stroke-width="0.8" opacity="0.25"/>
<path d="M 647.5 178.8 A 30.3 38.5 0 0 1 702.5 178.8 A 30.3 38.5 0 0 1 647.5 178.8 Z" fill="none" stroke="#f4f0e8" stroke-width="0.8" opacity="0.25"/>
<path d="M 702.5 178.8 A 30.3 38.5 0 0 1 757.5 178.8 A 30.3 38.5 0 0 1 702.5 178.8 Z" fill="none" stroke="#f4f0e8" stroke-width="0.8" opacity="0.25"/>
<path d="M 757.5 178.8 A 30.3 38.5 0 0 1 812.5 178.8 A 30.3 38.5 0 0 1 757.5 178.8 Z" fill="none" stroke="#f4f0e8" stroke-width="0.8" opacity="0.25"/>
<path d="M 812.5 178.8 A 30.3 38.5 0 0 1 867.5 178.8 A 30.3 38.5 0 0 1 812.5 178.8 Z" fill="none" stroke="#f4f0e8" stroke-width="0.8" opacity="0.25"/>
<path d="M 867.5 178.8 A 30.3 38.5 0 0 1 922.5 178.8 A 30.3 38.5 0 0 1 867.5 178.8 Z" fill="none" stroke="#f4f0e8" stroke-width="0.8" opacity="0.25"/>
<path d="M 922.5 178.8 A 30.3 38.5 0 0 1 977.5 178.8 A 30.3 38.5 0 0 1 922.5 178.8 Z" fill="none" stroke="#f4f0e8" stroke-width="0.8" opacity="0.25"/>
<path d="M 400.0 214.5 A 30.3 38.5 0 0 1 455.0 214.5 A 30.3 38.5 0 0 1 400.0 214.5 Z" fill="none" stroke="#f4f0e8" stroke-width="0.8" opacity="0.25"/>
<path d="M 455.0 214.5 A 30.3 38.5 0 0 1 510.0 214.5 A 30.3 38.5 0 0 1 455.0 214.5 Z" fill="none" stroke="#f4f0e8" stroke-width="0.8" opacity="0.25"/>
<path d="M 510.0 214.5 A 30.3 38.5 0 0 1 565.0 214.5 A 30.3 38.5 0 0 1 510.0 214.5 Z" fill="none" stroke="#f4f0e8" stroke-width="0.8" opacity="0.25"/>
<path d="M 565.0 214.5 A 30.3 38.5 0 0 1 620.0 214.5 A 30.3 38.5 0 0 1 565.0 214.5 Z" fill="none" stroke="#f4f0e8" stroke-width="0.8" opacity="0.25"/>
<path d="M 620.0 214.5 A 30.3 38.5 0 0 1 675.0 214.5 A 30.3 38.5 0 0 1 620.0 214.5 Z" fill="none" stroke="#f4f0e8" stroke-width="0.8" opacity="0.25"/>
<path d="M 675.0 214.5 A 30.3 38.5 0 0 1 730.0 214.5 A 30.3 38.5 0 0 1 675.0 214.5 Z" fill="none" stroke="#f4f0e8" stroke-width="0.8" opacity="0.25"/>
<path d="M 730.0 214.5 A 30.3 38.5 0 0 1 785.0 214.5 A 30.3 38.5 0 0 1 730.0 214.5 Z" fill="none" stroke="#f4f0e8" stroke-width="0.8" opacity="0.25"/>
<path d="M 785.0 214.5 A 30.3 38.5 0 0 1 840.0 214.5 A 30.3 38.5 0 0 1 785.0 214.5 Z" fill="none" stroke="#f4f0e8" stroke-width="0.8" opacity="0.25"/>
<path d="M 840.0 214.5 A 30.3 38.5 0 0 1 895.0 214.5 A 30.3 38.5 0 0 1 840.0 214.5 Z" fill="none" stroke="#f4f0e8" stroke-width="0.8" opacity="0.25"/>
<path d="M 895.0 214.5 A 30.3 38.5 0 0 1 950.0 214.5 A 30.3 38.5 0 0 1 895.0 214.5 Z" fill="none" stroke="#f4f0e8" stroke-width="0.8" opacity="0.25"/>
<path d="M 427.5 250.2 A 30.3 38.5 0 0 1 482.5 250.2 A 30.3 38.5 0 0 1 427.5 250.2 Z" fill="none" stroke="#f4f0e8" stroke-width="0.8" opacity="0.25"/>
<path d="M 482.5 250.2 A 30.3 38.5 0 0 1 537.5 250.2 A 30.3 38.5 0 0 1 482.5 250.2 Z" fill="none" stroke="#f4f0e8" stroke-width="0.8" opacity="0.25"/>
<path d="M 537.5 250.2 A 30.3 38.5 0 0 1 592.5 250.2 A 30.3 38.5 0 0 1 537.5 250.2 Z" fill="none" stroke="#f4f0e8" stroke-width="0.8" opacity="0.25"/>
<path d="M 592.5 250.2 A 30.3 38.5 0 0 1 647.5 250.2 A 30.3 38.5 0 0 1 592.5 250.2 Z" fill="none" stroke="#f4f0e8" stroke-width="0.8" opacity="0.25"/>
<path d="M 647.5 250.2 A 30.3 38.5 0 0 1 702.5 250.2 A 30.3 38.5 0 0 1 647.5 250.2 Z" fill="none" stroke="#f4f0e8" stroke-width="0.8" opacity="0.25"/>
<path d="M 702.5 250.2 A 30.3 38.5 0 0 1 757.5 250.2 A 30.3 38.5 0 0 1 702.5 250.2 Z" fill="none" stroke="#f4f0e8" stroke-width="0.8" opacity="0.25"/>
<path d="M 757.5 250.2 A 30.3 38.5 0 0 1 812.5 250.2 A 30.3 38.5 0 0 1 757.5 250.2 Z" fill="none" stroke="#f4f0e8" stroke-width="0.8" opacity="0.25"/>
<path d="M 812.5 250.2 A 30.3 38.5 0 0 1 867.5 250.2 A 30.3 38.5 0 0 1 812.5 250.2 Z" fill="none" stroke="#f4f0e8" stroke-width="0.8" opacity="0.25"/>
<path d="M 867.5 250.2 A 30.3 38.5 0 0 1 922.5 250.2 A 30.3 38.5 0 0 1 867.5 250.2 Z" fill="none" stroke="#f4f0e8" stroke-width="0.8" opacity="0.25"/>
<path d="M 922.5 250.2 A 30.3 38.5 0 0 1 977.5 250.2 A 30.3 38.5 0 0 1 922.5 250.2 Z" fill="none" stroke="#f4f0e8" stroke-width="0.8" opacity="0.25"/>
<path d="M 400.0 286.0 A 30.3 38.5 0 0 1 455.0 286.0 A 30.3 38.5 0 0 1 400.0 286.0 Z" fill="none" stroke="#f4f0e8" stroke-width="0.8" opacity="0.25"/>
<path d="M 455.0 286.0 A 30.3 38.5 0 0 1 510.0 286.0 A 30.3 38.5 0 0 1 455.0 286.0 Z" fill="none" stroke="#f4f0e8" stroke-width="0.8" opacity="0.25"/>
<path d="M 510.0 286.0 A 30.3 38.5 0 0 1 565.0 286.0 A 30.3 38.5 0 0 1 510.0 286.0 Z" fill="none" stroke="#f4f0e8" stroke-width="0.8" opacity="0.25"/>
<path d="M 565.0 286.0 A 30.3 38.5 0 0 1 620.0 286.0 A 30.3 38.5 0 0 1 565.0 286.0 Z" fill="none" stroke="#f4f0e8" stroke-width="0.8" opacity="0.25"/>
<path d="M 620.0 286.0 A 30.3 38.5 0 0 1 675.0 286.0 A 30.3 38.5 0 0 1 620.0 286.0 Z" fill="none" stroke="#f4f0e8" stroke-width="0.8" opacity="0.25"/>
<path d="M 675.0 286.0 A 30.3 38.5 0 0 1 730.0 286.0 A 30.3 38.5 0 0 1 675.0 286.0 Z" fill="none" stroke="#f4f0e8" stroke-width="0.8" opacity="0.25"/>
<path d="M 730.0 286.0 A 30.3 38.5 0 0 1 785.0 286.0 A 30.3 38.5 0 0 1 730.0 286.0 Z" fill="none" stroke="#f4f0e8" stroke-width="0.8" opacity="0.25"/>
<path d="M 785.0 286.0 A 30.3 38.5 0 0 1 840.0 286.0 A 30.3 38.5 0 0 1 785.0 286.0 Z" fill="none" stroke="#f4f0e8" stroke-width="0.8" opacity="0.25"/>
<path d="M 840.0 286.0 A 30.3 38.5 0 0 1 895.0 286.0 A 30.3 38.5 0 0 1 840.0 286.0 Z" fill="none" stroke="#f4f0e8" stroke-width="0.8" opacity="0.25"/>
<path d="M 895.0 286.0 A 30.3 38.5 0 0 1 950.0 286.0 A 30.3 38.5 0 0 1 895.0 286.0 Z" fill="none" stroke="#f4f0e8" stroke-width="0.8" opacity="0.25"/>
<path d="M 427.5 321.8 A 30.3 38.5 0 0 1 482.5 321.8 A 30.3 38.5 0 0 1 427.5 321.8 Z" fill="none" stroke="#f4f0e8" stroke-width="0.8" opacity="0.25"/>
<path d="M 482.5 321.8 A 30.3 38.5 0 0 1 537.5 321.8 A 30.3 38.5 0 0 1 482.5 321.8 Z" fill="none" stroke="#f4f0e8" stroke-width="0.8" opacity="0.25"/>
<path d="M 537.5 321.8 A 30.3 38.5 0 0 1 592.5 321.8 A 30.3 38.5 0 0 1 537.5 321.8 Z" fill="none" stroke="#f4f0e8" stroke-width="0.8" opacity="0.25"/>
<path d="M 592.5 321.8 A 30.3 38.5 0 0 1 647.5 321.8 A 30.3 38.5 0 0 1 592.5 321.8 Z" fill="none" stroke="#f4f0e8" stroke-width="0.8" opacity="0.25"/>
<path d="M 647.5 321.8 A 30.3 38.5 0 0 1 702.5 321.8 A 30.3 38.5 0 0 1 647.5 321.8 Z" fill="none" stroke="#f4f0e8" stroke-width="0.8" opacity="0.25"/>
<path d="M 702.5 321.8 A 30.3 38.5 0 0 1 757.5 321.8 A 30.3 38.5 0 0 1 702.5 321.8 Z" fill="none" stroke="#f4f0e8" stroke-width="0.8" opacity="0.25"/>
<path d="M 757.5 321.8 A 30.3 38.5 0 0 1 812.5 321.8 A 30.3 38.5 0 0 1 757.5 321.8 Z" fill="none" stroke="#f4f0e8" stroke-width="0.8" opacity="0.25"/>
<path d="M 812.5 321.8 A 30.3 38.5 0 0 1 867.5 321.8 A 30.3 38.5 0 0 1 812.5 321.8 Z" fill="none" stroke="#f4f0e8" stroke-width="0.8" opacity="0.25"/>
<path d="M 867.5 321.8 A 30.3 38.5 0 0 1 922.5 321.8 A 30.3 38.5 0 0 1 867.5 321.8 Z" fill="none" stroke="#f4f0e8" stroke-width="0.8" opacity="0.25"/>
<path d="M 922.5 321.8 A 30.3 38.5 0 0 1 977.5 321.8 A 30.3 38.5 0 0 1 922.5 321.8 Z" fill="none" stroke="#f4f0e8" stroke-width="0.8" opacity="0.25"/>
<!-- red accent bar top -->
<rect x="0" y="0" width="794" height="12" fill="#c0392b"/>
<!-- red accent bar bottom -->
<rect x="0" y="1111" width="794" height="12" fill="#c0392b"/>
<!-- left margin rule -->
<rect x="52" y="80" width="6" height="963" fill="#c0392b" opacity="0.6"/>
<!-- line 1 -->
<text x="88" y="200" font-family="Georgia, serif" font-size="88" font-weight="bold"
      fill="#f4f0e8" letter-spacing="-2">KO TĀTOU</text>
<!-- line 2 -->
<text x="88" y="310" font-family="Georgia, serif" font-size="88" font-weight="bold"
      fill="#c0392b">HE KAHU</text>
<!-- line 3 -->
<text x="88" y="420" font-family="Georgia, serif" font-size="72" font-weight="bold"
      fill="#f4f0e8" opacity="0.9">KOTAHITANGA</text>
<!-- divider -->
<line x1="88" y1="470" x2="714" y2="470" stroke="#c0392b" stroke-width="3"/>
<!-- tag -->
<text x="88" y="530" font-family="Noto Naskh Arabic, Tahoma, Arial, sans-serif" font-size="32" fill="#f4f0e8" opacity="0.7">Collective armour. Unaunahi. Māori data sovereignty.</text>
<!-- large unaunahi decorative arc motif -->
<circle cx="397" cy="783" r="220" fill="none" stroke="#f4f0e8" stroke-width="1.5" opacity="0.12"/>
<circle cx="397" cy="783" r="170" fill="none" stroke="#c0392b" stroke-width="2" opacity="0.18"/>
<circle cx="397" cy="783" r="120" fill="none" stroke="#f4f0e8" stroke-width="1" opacity="0.12"/>
<!-- unaunahi word as centrepiece -->
<text x="397" y="803" font-family="Georgia, serif" font-size="72"
      fill="#f4f0e8" text-anchor="middle" opacity="0.9">UNAUNAHI</text>
<text x="397" y="873" font-family="Arial, sans-serif" font-size="24"
      fill="#f4f0e8" text-anchor="middle" opacity="0.5">FISH SCALE · KOTAHITANGA · COLLECTIVE PROTECTION</text>
<!-- footer -->
<text x="397" y="1083" font-family="Arial, sans-serif" font-size="22"
      fill="#f4f0e8" text-anchor="middle" opacity="0.6">TE PĀ TŪWATAWATA · te-pa.org/solidarity/australia/</text>

</svg>