<svg xmlns="http://www.w3.org/2000/svg" width="1080" height="1080" viewBox="0 0 1080 1080" role="img" aria-label="Te Pā Tūwatawata launch card">
<title>Te Pā Tūwatawata — public launch · te-pa.org</title>
<rect width="1080" height="1080" fill="#0d0d0d"/>
<path d="M 130 230.0 A 22.0 30.799999999999997 0 0 1 174 230.0 Z" fill="none" stroke="#c0392b" stroke-width="0.8" opacity="0.10"/>
<path d="M 174 230.0 A 22.0 30.799999999999997 0 0 1 218 230.0 Z" fill="none" stroke="#c0392b" stroke-width="0.8" opacity="0.10"/>
<path d="M 218 230.0 A 22.0 30.799999999999997 0 0 1 262 230.0 Z" fill="none" stroke="#c0392b" stroke-width="0.8" opacity="0.10"/>
<path d="M 262 230.0 A 22.0 30.799999999999997 0 0 1 306 230.0 Z" fill="none" stroke="#c0392b" stroke-width="0.8" opacity="0.10"/>
<path d="M 306 230.0 A 22.0 30.799999999999997 0 0 1 350 230.0 Z" fill="none" stroke="#c0392b" stroke-width="0.8" opacity="0.10"/>
<path d="M 350 230.0 A 22.0 30.799999999999997 0 0 1 394 230.0 Z" fill="none" stroke="#c0392b" stroke-width="0.8" opacity="0.10"/>
<path d="M 394 230.0 A 22.0 30.799999999999997 0 0 1 438 230.0 Z" fill="none" stroke="#c0392b" stroke-width="0.8" opacity="0.10"/>
<path d="M 438 230.0 A 22.0 30.799999999999997 0 0 1 482 230.0 Z" fill="none" stroke="#c0392b" stroke-width="0.8" opacity="0.10"/>
<path d="M 482 230.0 A 22.0 30.799999999999997 0 0 1 526 230.0 Z" fill="none" stroke="#c0392b" stroke-width="0.8" opacity="0.10"/>
<path d="M 526 230.0 A 22.0 30.799999999999997 0 0 1 570 230.0 Z" fill="none" stroke="#c0392b" stroke-width="0.8" opacity="0.10"/>
<path d="M 570 230.0 A 22.0 30.799999999999997 0 0 1 614 230.0 Z" fill="none" stroke="#c0392b" stroke-width="0.8" opacity="0.10"/>
<path d="M 614 230.0 A 22.0 30.799999999999997 0 0 1 658 230.0 Z" fill="none" stroke="#c0392b" stroke-width="0.8" opacity="0.10"/>
<path d="M 658 230.0 A 22.0 30.799999999999997 0 0 1 702 230.0 Z" fill="none" stroke="#c0392b" stroke-width="0.8" opacity="0.10"/>
<path d="M 702 230.0 A 22.0 30.799999999999997 0 0 1 746 230.0 Z" fill="none" stroke="#c0392b" stroke-width="0.8" opacity="0.10"/>
<path d="M 152.0 267.4 A 22.0 30.799999999999997 0 0 1 196.0 267.4 Z" fill="none" stroke="#c0392b" stroke-width="0.8" opacity="0.10"/>
<path d="M 196.0 267.4 A 22.0 30.799999999999997 0 0 1 240.0 267.4 Z" fill="none" stroke="#c0392b" stroke-width="0.8" opacity="0.10"/>
<path d="M 240.0 267.4 A 22.0 30.799999999999997 0 0 1 284.0 267.4 Z" fill="none" stroke="#c0392b" stroke-width="0.8" opacity="0.10"/>
<path d="M 284.0 267.4 A 22.0 30.799999999999997 0 0 1 328.0 267.4 Z" fill="none" stroke="#c0392b" stroke-width="0.8" opacity="0.10"/>
<path d="M 328.0 267.4 A 22.0 30.799999999999997 0 0 1 372.0 267.4 Z" fill="none" stroke="#c0392b" stroke-width="0.8" opacity="0.10"/>
<path d="M 372.0 267.4 A 22.0 30.799999999999997 0 0 1 416.0 267.4 Z" fill="none" stroke="#c0392b" stroke-width="0.8" opacity="0.10"/>
<path d="M 416.0 267.4 A 22.0 30.799999999999997 0 0 1 460.0 267.4 Z" fill="none" stroke="#c0392b" stroke-width="0.8" opacity="0.10"/>
<path d="M 460.0 267.4 A 22.0 30.799999999999997 0 0 1 504.0 267.4 Z" fill="none" stroke="#c0392b" stroke-width="0.8" opacity="0.10"/>
<path d="M 504.0 267.4 A 22.0 30.799999999999997 0 0 1 548.0 267.4 Z" fill="none" stroke="#c0392b" stroke-width="0.8" opacity="0.10"/>
<path d="M 548.0 267.4 A 22.0 30.799999999999997 0 0 1 592.0 267.4 Z" fill="none" stroke="#c0392b" stroke-width="0.8" opacity="0.10"/>
<path d="M 592.0 267.4 A 22.0 30.799999999999997 0 0 1 636.0 267.4 Z" fill="none" stroke="#c0392b" stroke-width="0.8" opacity="0.10"/>
<path d="M 636.0 267.4 A 22.0 30.799999999999997 0 0 1 680.0 267.4 Z" fill="none" stroke="#c0392b" stroke-width="0.8" opacity="0.10"/>
<path d="M 680.0 267.4 A 22.0 30.799999999999997 0 0 1 724.0 267.4 Z" fill="none" stroke="#c0392b" stroke-width="0.8" opacity="0.10"/>
<path d="M 724.0 267.4 A 22.0 30.799999999999997 0 0 1 768.0 267.4 Z" fill="none" stroke="#c0392b" stroke-width="0.8" opacity="0.10"/>
<path d="M 130 304.8 A 22.0 30.799999999999997 0 0 1 174 304.8 Z" fill="none" stroke="#c0392b" stroke-width="0.8" opacity="0.10"/>
<path d="M 174 304.8 A 22.0 30.799999999999997 0 0 1 218 304.8 Z" fill="none" stroke="#c0392b" stroke-width="0.8" opacity="0.10"/>
<path d="M 218 304.8 A 22.0 30.799999999999997 0 0 1 262 304.8 Z" fill="none" stroke="#c0392b" stroke-width="0.8" opacity="0.10"/>
<path d="M 262 304.8 A 22.0 30.799999999999997 0 0 1 306 304.8 Z" fill="none" stroke="#c0392b" stroke-width="0.8" opacity="0.10"/>
<path d="M 306 304.8 A 22.0 30.799999999999997 0 0 1 350 304.8 Z" fill="none" stroke="#c0392b" stroke-width="0.8" opacity="0.10"/>
<path d="M 350 304.8 A 22.0 30.799999999999997 0 0 1 394 304.8 Z" fill="none" stroke="#c0392b" stroke-width="0.8" opacity="0.10"/>
<path d="M 394 304.8 A 22.0 30.799999999999997 0 0 1 438 304.8 Z" fill="none" stroke="#c0392b" stroke-width="0.8" opacity="0.10"/>
<path d="M 438 304.8 A 22.0 30.799999999999997 0 0 1 482 304.8 Z" fill="none" stroke="#c0392b" stroke-width="0.8" opacity="0.10"/>
<path d="M 482 304.8 A 22.0 30.799999999999997 0 0 1 526 304.8 Z" fill="none" stroke="#c0392b" stroke-width="0.8" opacity="0.10"/>
<path d="M 526 304.8 A 22.0 30.799999999999997 0 0 1 570 304.8 Z" fill="none" stroke="#c0392b" stroke-width="0.8" opacity="0.10"/>
<path d="M 570 304.8 A 22.0 30.799999999999997 0 0 1 614 304.8 Z" fill="none" stroke="#c0392b" stroke-width="0.8" opacity="0.10"/>
<path d="M 614 304.8 A 22.0 30.799999999999997 0 0 1 658 304.8 Z" fill="none" stroke="#c0392b" stroke-width="0.8" opacity="0.10"/>
<path d="M 658 304.8 A 22.0 30.799999999999997 0 0 1 702 304.8 Z" fill="none" stroke="#c0392b" stroke-width="0.8" opacity="0.10"/>
<path d="M 702 304.8 A 22.0 30.799999999999997 0 0 1 746 304.8 Z" fill="none" stroke="#c0392b" stroke-width="0.8" opacity="0.10"/>
<path d="M 152.0 342.2 A 22.0 30.799999999999997 0 0 1 196.0 342.2 Z" fill="none" stroke="#c0392b" stroke-width="0.8" opacity="0.10"/>
<path d="M 196.0 342.2 A 22.0 30.799999999999997 0 0 1 240.0 342.2 Z" fill="none" stroke="#c0392b" stroke-width="0.8" opacity="0.10"/>
<path d="M 240.0 342.2 A 22.0 30.799999999999997 0 0 1 284.0 342.2 Z" fill="none" stroke="#c0392b" stroke-width="0.8" opacity="0.10"/>
<path d="M 284.0 342.2 A 22.0 30.799999999999997 0 0 1 328.0 342.2 Z" fill="none" stroke="#c0392b" stroke-width="0.8" opacity="0.10"/>
<path d="M 328.0 342.2 A 22.0 30.799999999999997 0 0 1 372.0 342.2 Z" fill="none" stroke="#c0392b" stroke-width="0.8" opacity="0.10"/>
<path d="M 372.0 342.2 A 22.0 30.799999999999997 0 0 1 416.0 342.2 Z" fill="none" stroke="#c0392b" stroke-width="0.8" opacity="0.10"/>
<path d="M 416.0 342.2 A 22.0 30.799999999999997 0 0 1 460.0 342.2 Z" fill="none" stroke="#c0392b" stroke-width="0.8" opacity="0.10"/>
<path d="M 460.0 342.2 A 22.0 30.799999999999997 0 0 1 504.0 342.2 Z" fill="none" stroke="#c0392b" stroke-width="0.8" opacity="0.10"/>
<path d="M 504.0 342.2 A 22.0 30.799999999999997 0 0 1 548.0 342.2 Z" fill="none" stroke="#c0392b" stroke-width="0.8" opacity="0.10"/>
<path d="M 548.0 342.2 A 22.0 30.799999999999997 0 0 1 592.0 342.2 Z" fill="none" stroke="#c0392b" stroke-width="0.8" opacity="0.10"/>
<path d="M 592.0 342.2 A 22.0 30.799999999999997 0 0 1 636.0 342.2 Z" fill="none" stroke="#c0392b" stroke-width="0.8" opacity="0.10"/>
<path d="M 636.0 342.2 A 22.0 30.799999999999997 0 0 1 680.0 342.2 Z" fill="none" stroke="#c0392b" stroke-width="0.8" opacity="0.10"/>
<path d="M 680.0 342.2 A 22.0 30.799999999999997 0 0 1 724.0 342.2 Z" fill="none" stroke="#c0392b" stroke-width="0.8" opacity="0.10"/>
<path d="M 724.0 342.2 A 22.0 30.799999999999997 0 0 1 768.0 342.2 Z" fill="none" stroke="#c0392b" stroke-width="0.8" opacity="0.10"/>
<path d="M 130 379.6 A 22.0 30.799999999999997 0 0 1 174 379.6 Z" fill="none" stroke="#c0392b" stroke-width="0.8" opacity="0.10"/>
<path d="M 174 379.6 A 22.0 30.799999999999997 0 0 1 218 379.6 Z" fill="none" stroke="#c0392b" stroke-width="0.8" opacity="0.10"/>
<path d="M 218 379.6 A 22.0 30.799999999999997 0 0 1 262 379.6 Z" fill="none" stroke="#c0392b" stroke-width="0.8" opacity="0.10"/>
<path d="M 262 379.6 A 22.0 30.799999999999997 0 0 1 306 379.6 Z" fill="none" stroke="#c0392b" stroke-width="0.8" opacity="0.10"/>
<path d="M 306 379.6 A 22.0 30.799999999999997 0 0 1 350 379.6 Z" fill="none" stroke="#c0392b" stroke-width="0.8" opacity="0.10"/>
<path d="M 350 379.6 A 22.0 30.799999999999997 0 0 1 394 379.6 Z" fill="none" stroke="#c0392b" stroke-width="0.8" opacity="0.10"/>
<path d="M 394 379.6 A 22.0 30.799999999999997 0 0 1 438 379.6 Z" fill="none" stroke="#c0392b" stroke-width="0.8" opacity="0.10"/>
<path d="M 438 379.6 A 22.0 30.799999999999997 0 0 1 482 379.6 Z" fill="none" stroke="#c0392b" stroke-width="0.8" opacity="0.10"/>
<path d="M 482 379.6 A 22.0 30.799999999999997 0 0 1 526 379.6 Z" fill="none" stroke="#c0392b" stroke-width="0.8" opacity="0.10"/>
<path d="M 526 379.6 A 22.0 30.799999999999997 0 0 1 570 379.6 Z" fill="none" stroke="#c0392b" stroke-width="0.8" opacity="0.10"/>
<path d="M 570 379.6 A 22.0 30.799999999999997 0 0 1 614 379.6 Z" fill="none" stroke="#c0392b" stroke-width="0.8" opacity="0.10"/>
<path d="M 614 379.6 A 22.0 30.799999999999997 0 0 1 658 379.6 Z" fill="none" stroke="#c0392b" stroke-width="0.8" opacity="0.10"/>
<path d="M 658 379.6 A 22.0 30.799999999999997 0 0 1 702 379.6 Z" fill="none" stroke="#c0392b" stroke-width="0.8" opacity="0.10"/>
<path d="M 702 379.6 A 22.0 30.799999999999997 0 0 1 746 379.6 Z" fill="none" stroke="#c0392b" stroke-width="0.8" opacity="0.10"/>
<path d="M 152.0 417.0 A 22.0 30.799999999999997 0 0 1 196.0 417.0 Z" fill="none" stroke="#c0392b" stroke-width="0.8" opacity="0.10"/>
<path d="M 196.0 417.0 A 22.0 30.799999999999997 0 0 1 240.0 417.0 Z" fill="none" stroke="#c0392b" stroke-width="0.8" opacity="0.10"/>
<path d="M 240.0 417.0 A 22.0 30.799999999999997 0 0 1 284.0 417.0 Z" fill="none" stroke="#c0392b" stroke-width="0.8" opacity="0.10"/>
<path d="M 284.0 417.0 A 22.0 30.799999999999997 0 0 1 328.0 417.0 Z" fill="none" stroke="#c0392b" stroke-width="0.8" opacity="0.10"/>
<path d="M 328.0 417.0 A 22.0 30.799999999999997 0 0 1 372.0 417.0 Z" fill="none" stroke="#c0392b" stroke-width="0.8" opacity="0.10"/>
<path d="M 372.0 417.0 A 22.0 30.799999999999997 0 0 1 416.0 417.0 Z" fill="none" stroke="#c0392b" stroke-width="0.8" opacity="0.10"/>
<path d="M 416.0 417.0 A 22.0 30.799999999999997 0 0 1 460.0 417.0 Z" fill="none" stroke="#c0392b" stroke-width="0.8" opacity="0.10"/>
<path d="M 460.0 417.0 A 22.0 30.799999999999997 0 0 1 504.0 417.0 Z" fill="none" stroke="#c0392b" stroke-width="0.8" opacity="0.10"/>
<path d="M 504.0 417.0 A 22.0 30.799999999999997 0 0 1 548.0 417.0 Z" fill="none" stroke="#c0392b" stroke-width="0.8" opacity="0.10"/>
<path d="M 548.0 417.0 A 22.0 30.799999999999997 0 0 1 592.0 417.0 Z" fill="none" stroke="#c0392b" stroke-width="0.8" opacity="0.10"/>
<path d="M 592.0 417.0 A 22.0 30.799999999999997 0 0 1 636.0 417.0 Z" fill="none" stroke="#c0392b" stroke-width="0.8" opacity="0.10"/>
<path d="M 636.0 417.0 A 22.0 30.799999999999997 0 0 1 680.0 417.0 Z" fill="none" stroke="#c0392b" stroke-width="0.8" opacity="0.10"/>
<path d="M 680.0 417.0 A 22.0 30.799999999999997 0 0 1 724.0 417.0 Z" fill="none" stroke="#c0392b" stroke-width="0.8" opacity="0.10"/>
<path d="M 724.0 417.0 A 22.0 30.799999999999997 0 0 1 768.0 417.0 Z" fill="none" stroke="#c0392b" stroke-width="0.8" opacity="0.10"/>
<path d="M 130 454.4 A 22.0 30.799999999999997 0 0 1 174 454.4 Z" fill="none" stroke="#c0392b" stroke-width="0.8" opacity="0.10"/>
<path d="M 174 454.4 A 22.0 30.799999999999997 0 0 1 218 454.4 Z" fill="none" stroke="#c0392b" stroke-width="0.8" opacity="0.10"/>
<path d="M 218 454.4 A 22.0 30.799999999999997 0 0 1 262 454.4 Z" fill="none" stroke="#c0392b" stroke-width="0.8" opacity="0.10"/>
<path d="M 262 454.4 A 22.0 30.799999999999997 0 0 1 306 454.4 Z" fill="none" stroke="#c0392b" stroke-width="0.8" opacity="0.10"/>
<path d="M 306 454.4 A 22.0 30.799999999999997 0 0 1 350 454.4 Z" fill="none" stroke="#c0392b" stroke-width="0.8" opacity="0.10"/>
<path d="M 350 454.4 A 22.0 30.799999999999997 0 0 1 394 454.4 Z" fill="none" stroke="#c0392b" stroke-width="0.8" opacity="0.10"/>
<path d="M 394 454.4 A 22.0 30.799999999999997 0 0 1 438 454.4 Z" fill="none" stroke="#c0392b" stroke-width="0.8" opacity="0.10"/>
<path d="M 438 454.4 A 22.0 30.799999999999997 0 0 1 482 454.4 Z" fill="none" stroke="#c0392b" stroke-width="0.8" opacity="0.10"/>
<path d="M 482 454.4 A 22.0 30.799999999999997 0 0 1 526 454.4 Z" fill="none" stroke="#c0392b" stroke-width="0.8" opacity="0.10"/>
<path d="M 526 454.4 A 22.0 30.799999999999997 0 0 1 570 454.4 Z" fill="none" stroke="#c0392b" stroke-width="0.8" opacity="0.10"/>
<path d="M 570 454.4 A 22.0 30.799999999999997 0 0 1 614 454.4 Z" fill="none" stroke="#c0392b" stroke-width="0.8" opacity="0.10"/>
<path d="M 614 454.4 A 22.0 30.799999999999997 0 0 1 658 454.4 Z" fill="none" stroke="#c0392b" stroke-width="0.8" opacity="0.10"/>
<path d="M 658 454.4 A 22.0 30.799999999999997 0 0 1 702 454.4 Z" fill="none" stroke="#c0392b" stroke-width="0.8" opacity="0.10"/>
<path d="M 702 454.4 A 22.0 30.799999999999997 0 0 1 746 454.4 Z" fill="none" stroke="#c0392b" stroke-width="0.8" opacity="0.10"/>
<path d="M 152.0 491.8 A 22.0 30.799999999999997 0 0 1 196.0 491.8 Z" fill="none" stroke="#c0392b" stroke-width="0.8" opacity="0.10"/>
<path d="M 196.0 491.8 A 22.0 30.799999999999997 0 0 1 240.0 491.8 Z" fill="none" stroke="#c0392b" stroke-width="0.8" opacity="0.10"/>
<path d="M 240.0 491.8 A 22.0 30.799999999999997 0 0 1 284.0 491.8 Z" fill="none" stroke="#c0392b" stroke-width="0.8" opacity="0.10"/>
<path d="M 284.0 491.8 A 22.0 30.799999999999997 0 0 1 328.0 491.8 Z" fill="none" stroke="#c0392b" stroke-width="0.8" opacity="0.10"/>
<path d="M 328.0 491.8 A 22.0 30.799999999999997 0 0 1 372.0 491.8 Z" fill="none" stroke="#c0392b" stroke-width="0.8" opacity="0.10"/>
<path d="M 372.0 491.8 A 22.0 30.799999999999997 0 0 1 416.0 491.8 Z" fill="none" stroke="#c0392b" stroke-width="0.8" opacity="0.10"/>
<path d="M 416.0 491.8 A 22.0 30.799999999999997 0 0 1 460.0 491.8 Z" fill="none" stroke="#c0392b" stroke-width="0.8" opacity="0.10"/>
<path d="M 460.0 491.8 A 22.0 30.799999999999997 0 0 1 504.0 491.8 Z" fill="none" stroke="#c0392b" stroke-width="0.8" opacity="0.10"/>
<path d="M 504.0 491.8 A 22.0 30.799999999999997 0 0 1 548.0 491.8 Z" fill="none" stroke="#c0392b" stroke-width="0.8" opacity="0.10"/>
<path d="M 548.0 491.8 A 22.0 30.799999999999997 0 0 1 592.0 491.8 Z" fill="none" stroke="#c0392b" stroke-width="0.8" opacity="0.10"/>
<path d="M 592.0 491.8 A 22.0 30.799999999999997 0 0 1 636.0 491.8 Z" fill="none" stroke="#c0392b" stroke-width="0.8" opacity="0.10"/>
<path d="M 636.0 491.8 A 22.0 30.799999999999997 0 0 1 680.0 491.8 Z" fill="none" stroke="#c0392b" stroke-width="0.8" opacity="0.10"/>
<path d="M 680.0 491.8 A 22.0 30.799999999999997 0 0 1 724.0 491.8 Z" fill="none" stroke="#c0392b" stroke-width="0.8" opacity="0.10"/>
<path d="M 724.0 491.8 A 22.0 30.799999999999997 0 0 1 768.0 491.8 Z" fill="none" stroke="#c0392b" stroke-width="0.8" opacity="0.10"/>
<path d="M 130 529.2 A 22.0 30.799999999999997 0 0 1 174 529.2 Z" fill="none" stroke="#c0392b" stroke-width="0.8" opacity="0.10"/>
<path d="M 174 529.2 A 22.0 30.799999999999997 0 0 1 218 529.2 Z" fill="none" stroke="#c0392b" stroke-width="0.8" opacity="0.10"/>
<path d="M 218 529.2 A 22.0 30.799999999999997 0 0 1 262 529.2 Z" fill="none" stroke="#c0392b" stroke-width="0.8" opacity="0.10"/>
<path d="M 262 529.2 A 22.0 30.799999999999997 0 0 1 306 529.2 Z" fill="none" stroke="#c0392b" stroke-width="0.8" opacity="0.10"/>
<path d="M 306 529.2 A 22.0 30.799999999999997 0 0 1 350 529.2 Z" fill="none" stroke="#c0392b" stroke-width="0.8" opacity="0.10"/>
<path d="M 350 529.2 A 22.0 30.799999999999997 0 0 1 394 529.2 Z" fill="none" stroke="#c0392b" stroke-width="0.8" opacity="0.10"/>
<path d="M 394 529.2 A 22.0 30.799999999999997 0 0 1 438 529.2 Z" fill="none" stroke="#c0392b" stroke-width="0.8" opacity="0.10"/>
<path d="M 438 529.2 A 22.0 30.799999999999997 0 0 1 482 529.2 Z" fill="none" stroke="#c0392b" stroke-width="0.8" opacity="0.10"/>
<path d="M 482 529.2 A 22.0 30.799999999999997 0 0 1 526 529.2 Z" fill="none" stroke="#c0392b" stroke-width="0.8" opacity="0.10"/>
<path d="M 526 529.2 A 22.0 30.799999999999997 0 0 1 570 529.2 Z" fill="none" stroke="#c0392b" stroke-width="0.8" opacity="0.10"/>
<path d="M 570 529.2 A 22.0 30.799999999999997 0 0 1 614 529.2 Z" fill="none" stroke="#c0392b" stroke-width="0.8" opacity="0.10"/>
<path d="M 614 529.2 A 22.0 30.799999999999997 0 0 1 658 529.2 Z" fill="none" stroke="#c0392b" stroke-width="0.8" opacity="0.10"/>
<path d="M 658 529.2 A 22.0 30.799999999999997 0 0 1 702 529.2 Z" fill="none" stroke="#c0392b" stroke-width="0.8" opacity="0.10"/>
<path d="M 702 529.2 A 22.0 30.799999999999997 0 0 1 746 529.2 Z" fill="none" stroke="#c0392b" stroke-width="0.8" opacity="0.10"/>
<path d="M 152.0 566.5999999999999 A 22.0 30.799999999999997 0 0 1 196.0 566.5999999999999 Z" fill="none" stroke="#c0392b" stroke-width="0.8" opacity="0.10"/>
<path d="M 196.0 566.5999999999999 A 22.0 30.799999999999997 0 0 1 240.0 566.5999999999999 Z" fill="none" stroke="#c0392b" stroke-width="0.8" opacity="0.10"/>
<path d="M 240.0 566.5999999999999 A 22.0 30.799999999999997 0 0 1 284.0 566.5999999999999 Z" fill="none" stroke="#c0392b" stroke-width="0.8" opacity="0.10"/>
<path d="M 284.0 566.5999999999999 A 22.0 30.799999999999997 0 0 1 328.0 566.5999999999999 Z" fill="none" stroke="#c0392b" stroke-width="0.8" opacity="0.10"/>
<path d="M 328.0 566.5999999999999 A 22.0 30.799999999999997 0 0 1 372.0 566.5999999999999 Z" fill="none" stroke="#c0392b" stroke-width="0.8" opacity="0.10"/>
<path d="M 372.0 566.5999999999999 A 22.0 30.799999999999997 0 0 1 416.0 566.5999999999999 Z" fill="none" stroke="#c0392b" stroke-width="0.8" opacity="0.10"/>
<path d="M 416.0 566.5999999999999 A 22.0 30.799999999999997 0 0 1 460.0 566.5999999999999 Z" fill="none" stroke="#c0392b" stroke-width="0.8" opacity="0.10"/>
<path d="M 460.0 566.5999999999999 A 22.0 30.799999999999997 0 0 1 504.0 566.5999999999999 Z" fill="none" stroke="#c0392b" stroke-width="0.8" opacity="0.10"/>
<path d="M 504.0 566.5999999999999 A 22.0 30.799999999999997 0 0 1 548.0 566.5999999999999 Z" fill="none" stroke="#c0392b" stroke-width="0.8" opacity="0.10"/>
<path d="M 548.0 566.5999999999999 A 22.0 30.799999999999997 0 0 1 592.0 566.5999999999999 Z" fill="none" stroke="#c0392b" stroke-width="0.8" opacity="0.10"/>
<path d="M 592.0 566.5999999999999 A 22.0 30.799999999999997 0 0 1 636.0 566.5999999999999 Z" fill="none" stroke="#c0392b" stroke-width="0.8" opacity="0.10"/>
<path d="M 636.0 566.5999999999999 A 22.0 30.799999999999997 0 0 1 680.0 566.5999999999999 Z" fill="none" stroke="#c0392b" stroke-width="0.8" opacity="0.10"/>
<path d="M 680.0 566.5999999999999 A 22.0 30.799999999999997 0 0 1 724.0 566.5999999999999 Z" fill="none" stroke="#c0392b" stroke-width="0.8" opacity="0.10"/>
<path d="M 724.0 566.5999999999999 A 22.0 30.799999999999997 0 0 1 768.0 566.5999999999999 Z" fill="none" stroke="#c0392b" stroke-width="0.8" opacity="0.10"/>
<path d="M 130 604.0 A 22.0 30.799999999999997 0 0 1 174 604.0 Z" fill="none" stroke="#c0392b" stroke-width="0.8" opacity="0.10"/>
<path d="M 174 604.0 A 22.0 30.799999999999997 0 0 1 218 604.0 Z" fill="none" stroke="#c0392b" stroke-width="0.8" opacity="0.10"/>
<path d="M 218 604.0 A 22.0 30.799999999999997 0 0 1 262 604.0 Z" fill="none" stroke="#c0392b" stroke-width="0.8" opacity="0.10"/>
<path d="M 262 604.0 A 22.0 30.799999999999997 0 0 1 306 604.0 Z" fill="none" stroke="#c0392b" stroke-width="0.8" opacity="0.10"/>
<path d="M 306 604.0 A 22.0 30.799999999999997 0 0 1 350 604.0 Z" fill="none" stroke="#c0392b" stroke-width="0.8" opacity="0.10"/>
<path d="M 350 604.0 A 22.0 30.799999999999997 0 0 1 394 604.0 Z" fill="none" stroke="#c0392b" stroke-width="0.8" opacity="0.10"/>
<path d="M 394 604.0 A 22.0 30.799999999999997 0 0 1 438 604.0 Z" fill="none" stroke="#c0392b" stroke-width="0.8" opacity="0.10"/>
<path d="M 438 604.0 A 22.0 30.799999999999997 0 0 1 482 604.0 Z" fill="none" stroke="#c0392b" stroke-width="0.8" opacity="0.10"/>
<path d="M 482 604.0 A 22.0 30.799999999999997 0 0 1 526 604.0 Z" fill="none" stroke="#c0392b" stroke-width="0.8" opacity="0.10"/>
<path d="M 526 604.0 A 22.0 30.799999999999997 0 0 1 570 604.0 Z" fill="none" stroke="#c0392b" stroke-width="0.8" opacity="0.10"/>
<path d="M 570 604.0 A 22.0 30.799999999999997 0 0 1 614 604.0 Z" fill="none" stroke="#c0392b" stroke-width="0.8" opacity="0.10"/>
<path d="M 614 604.0 A 22.0 30.799999999999997 0 0 1 658 604.0 Z" fill="none" stroke="#c0392b" stroke-width="0.8" opacity="0.10"/>
<path d="M 658 604.0 A 22.0 30.799999999999997 0 0 1 702 604.0 Z" fill="none" stroke="#c0392b" stroke-width="0.8" opacity="0.10"/>
<path d="M 702 604.0 A 22.0 30.799999999999997 0 0 1 746 604.0 Z" fill="none" stroke="#c0392b" stroke-width="0.8" opacity="0.10"/>
<path d="M 152.0 641.4 A 22.0 30.799999999999997 0 0 1 196.0 641.4 Z" fill="none" stroke="#c0392b" stroke-width="0.8" opacity="0.10"/>
<path d="M 196.0 641.4 A 22.0 30.799999999999997 0 0 1 240.0 641.4 Z" fill="none" stroke="#c0392b" stroke-width="0.8" opacity="0.10"/>
<path d="M 240.0 641.4 A 22.0 30.799999999999997 0 0 1 284.0 641.4 Z" fill="none" stroke="#c0392b" stroke-width="0.8" opacity="0.10"/>
<path d="M 284.0 641.4 A 22.0 30.799999999999997 0 0 1 328.0 641.4 Z" fill="none" stroke="#c0392b" stroke-width="0.8" opacity="0.10"/>
<path d="M 328.0 641.4 A 22.0 30.799999999999997 0 0 1 372.0 641.4 Z" fill="none" stroke="#c0392b" stroke-width="0.8" opacity="0.10"/>
<path d="M 372.0 641.4 A 22.0 30.799999999999997 0 0 1 416.0 641.4 Z" fill="none" stroke="#c0392b" stroke-width="0.8" opacity="0.10"/>
<path d="M 416.0 641.4 A 22.0 30.799999999999997 0 0 1 460.0 641.4 Z" fill="none" stroke="#c0392b" stroke-width="0.8" opacity="0.10"/>
<path d="M 460.0 641.4 A 22.0 30.799999999999997 0 0 1 504.0 641.4 Z" fill="none" stroke="#c0392b" stroke-width="0.8" opacity="0.10"/>
<path d="M 504.0 641.4 A 22.0 30.799999999999997 0 0 1 548.0 641.4 Z" fill="none" stroke="#c0392b" stroke-width="0.8" opacity="0.10"/>
<path d="M 548.0 641.4 A 22.0 30.799999999999997 0 0 1 592.0 641.4 Z" fill="none" stroke="#c0392b" stroke-width="0.8" opacity="0.10"/>
<path d="M 592.0 641.4 A 22.0 30.799999999999997 0 0 1 636.0 641.4 Z" fill="none" stroke="#c0392b" stroke-width="0.8" opacity="0.10"/>
<path d="M 636.0 641.4 A 22.0 30.799999999999997 0 0 1 680.0 641.4 Z" fill="none" stroke="#c0392b" stroke-width="0.8" opacity="0.10"/>
<path d="M 680.0 641.4 A 22.0 30.799999999999997 0 0 1 724.0 641.4 Z" fill="none" stroke="#c0392b" stroke-width="0.8" opacity="0.10"/>
<path d="M 724.0 641.4 A 22.0 30.799999999999997 0 0 1 768.0 641.4 Z" fill="none" stroke="#c0392b" stroke-width="0.8" opacity="0.10"/>
<path d="M 130 678.8 A 22.0 30.799999999999997 0 0 1 174 678.8 Z" fill="none" stroke="#c0392b" stroke-width="0.8" opacity="0.10"/>
<path d="M 174 678.8 A 22.0 30.799999999999997 0 0 1 218 678.8 Z" fill="none" stroke="#c0392b" stroke-width="0.8" opacity="0.10"/>
<path d="M 218 678.8 A 22.0 30.799999999999997 0 0 1 262 678.8 Z" fill="none" stroke="#c0392b" stroke-width="0.8" opacity="0.10"/>
<path d="M 262 678.8 A 22.0 30.799999999999997 0 0 1 306 678.8 Z" fill="none" stroke="#c0392b" stroke-width="0.8" opacity="0.10"/>
<path d="M 306 678.8 A 22.0 30.799999999999997 0 0 1 350 678.8 Z" fill="none" stroke="#c0392b" stroke-width="0.8" opacity="0.10"/>
<path d="M 350 678.8 A 22.0 30.799999999999997 0 0 1 394 678.8 Z" fill="none" stroke="#c0392b" stroke-width="0.8" opacity="0.10"/>
<path d="M 394 678.8 A 22.0 30.799999999999997 0 0 1 438 678.8 Z" fill="none" stroke="#c0392b" stroke-width="0.8" opacity="0.10"/>
<path d="M 438 678.8 A 22.0 30.799999999999997 0 0 1 482 678.8 Z" fill="none" stroke="#c0392b" stroke-width="0.8" opacity="0.10"/>
<path d="M 482 678.8 A 22.0 30.799999999999997 0 0 1 526 678.8 Z" fill="none" stroke="#c0392b" stroke-width="0.8" opacity="0.10"/>
<path d="M 526 678.8 A 22.0 30.799999999999997 0 0 1 570 678.8 Z" fill="none" stroke="#c0392b" stroke-width="0.8" opacity="0.10"/>
<path d="M 570 678.8 A 22.0 30.799999999999997 0 0 1 614 678.8 Z" fill="none" stroke="#c0392b" stroke-width="0.8" opacity="0.10"/>
<path d="M 614 678.8 A 22.0 30.799999999999997 0 0 1 658 678.8 Z" fill="none" stroke="#c0392b" stroke-width="0.8" opacity="0.10"/>
<path d="M 658 678.8 A 22.0 30.799999999999997 0 0 1 702 678.8 Z" fill="none" stroke="#c0392b" stroke-width="0.8" opacity="0.10"/>
<path d="M 702 678.8 A 22.0 30.799999999999997 0 0 1 746 678.8 Z" fill="none" stroke="#c0392b" stroke-width="0.8" opacity="0.10"/>
<path d="M 152.0 716.2 A 22.0 30.799999999999997 0 0 1 196.0 716.2 Z" fill="none" stroke="#c0392b" stroke-width="0.8" opacity="0.10"/>
<path d="M 196.0 716.2 A 22.0 30.799999999999997 0 0 1 240.0 716.2 Z" fill="none" stroke="#c0392b" stroke-width="0.8" opacity="0.10"/>
<path d="M 240.0 716.2 A 22.0 30.799999999999997 0 0 1 284.0 716.2 Z" fill="none" stroke="#c0392b" stroke-width="0.8" opacity="0.10"/>
<path d="M 284.0 716.2 A 22.0 30.799999999999997 0 0 1 328.0 716.2 Z" fill="none" stroke="#c0392b" stroke-width="0.8" opacity="0.10"/>
<path d="M 328.0 716.2 A 22.0 30.799999999999997 0 0 1 372.0 716.2 Z" fill="none" stroke="#c0392b" stroke-width="0.8" opacity="0.10"/>
<path d="M 372.0 716.2 A 22.0 30.799999999999997 0 0 1 416.0 716.2 Z" fill="none" stroke="#c0392b" stroke-width="0.8" opacity="0.10"/>
<path d="M 416.0 716.2 A 22.0 30.799999999999997 0 0 1 460.0 716.2 Z" fill="none" stroke="#c0392b" stroke-width="0.8" opacity="0.10"/>
<path d="M 460.0 716.2 A 22.0 30.799999999999997 0 0 1 504.0 716.2 Z" fill="none" stroke="#c0392b" stroke-width="0.8" opacity="0.10"/>
<path d="M 504.0 716.2 A 22.0 30.799999999999997 0 0 1 548.0 716.2 Z" fill="none" stroke="#c0392b" stroke-width="0.8" opacity="0.10"/>
<path d="M 548.0 716.2 A 22.0 30.799999999999997 0 0 1 592.0 716.2 Z" fill="none" stroke="#c0392b" stroke-width="0.8" opacity="0.10"/>
<path d="M 592.0 716.2 A 22.0 30.799999999999997 0 0 1 636.0 716.2 Z" fill="none" stroke="#c0392b" stroke-width="0.8" opacity="0.10"/>
<path d="M 636.0 716.2 A 22.0 30.799999999999997 0 0 1 680.0 716.2 Z" fill="none" stroke="#c0392b" stroke-width="0.8" opacity="0.10"/>
<path d="M 680.0 716.2 A 22.0 30.799999999999997 0 0 1 724.0 716.2 Z" fill="none" stroke="#c0392b" stroke-width="0.8" opacity="0.10"/>
<path d="M 724.0 716.2 A 22.0 30.799999999999997 0 0 1 768.0 716.2 Z" fill="none" stroke="#c0392b" stroke-width="0.8" opacity="0.10"/>
<path d="M 60.0,60.0 L 80.0,40.0 L 80.0,60.0 L 100.0,60.0 L 120.0,40.0 L 120.0,60.0 L 140.0,60.0 L 160.0,40.0 L 160.0,60.0 L 180.0,60.0 L 200.0,40.0 L 200.0,60.0 L 220.0,60.0 L 240.0,40.0 L 240.0,60.0 L 260.0,60.0 L 280.0,40.0 L 280.0,60.0 L 300.0,60.0 L 320.0,40.0 L 320.0,60.0 L 340.0,60.0 L 360.0,40.0 L 360.0,60.0 L 380.0,60.0 L 400.0,40.0 L 400.0,60.0 L 420.0,60.0 L 440.0,40.0 L 440.0,60.0 L 460.0,60.0 L 480.0,40.0 L 480.0,60.0 L 500.0,60.0 L 520.0,40.0 L 520.0,60.0 L 540.0,60.0 L 560.0,40.0 L 560.0,60.0 L 580.0,60.0 L 600.0,40.0 L 600.0,60.0 L 620.0,60.0 L 640.0,40.0 L 640.0,60.0 L 660.0,60.0 L 680.0,40.0 L 680.0,60.0 L 700.0,60.0 L 720.0,40.0 L 720.0,60.0 L 740.0,60.0 L 760.0,40.0 L 760.0,60.0 L 780.0,60.0 L 800.0,40.0 L 800.0,60.0 L 820.0,60.0 L 840.0,40.0 L 840.0,60.0 L 860.0,60.0 L 880.0,40.0 L 880.0,60.0 L 900.0,60.0 L 920.0,40.0 L 920.0,60.0 L 940.0,60.0 L 960.0,40.0 L 960.0,60.0 L 980.0,60.0 L 1000.0,40.0 L 1000.0,60.0 L 1020.0,60.0 L 1040.0,40.0" fill="none" stroke="#d4a544" stroke-width="2.4" opacity="0.92"/>
<path d="M 60.0,1020.0 L 80.0,1040.0 L 80.0,1020.0 L 100.0,1020.0 L 120.0,1040.0 L 120.0,1020.0 L 140.0,1020.0 L 160.0,1040.0 L 160.0,1020.0 L 180.0,1020.0 L 200.0,1040.0 L 200.0,1020.0 L 220.0,1020.0 L 240.0,1040.0 L 240.0,1020.0 L 260.0,1020.0 L 280.0,1040.0 L 280.0,1020.0 L 300.0,1020.0 L 320.0,1040.0 L 320.0,1020.0 L 340.0,1020.0 L 360.0,1040.0 L 360.0,1020.0 L 380.0,1020.0 L 400.0,1040.0 L 400.0,1020.0 L 420.0,1020.0 L 440.0,1040.0 L 440.0,1020.0 L 460.0,1020.0 L 480.0,1040.0 L 480.0,1020.0 L 500.0,1020.0 L 520.0,1040.0 L 520.0,1020.0 L 540.0,1020.0 L 560.0,1040.0 L 560.0,1020.0 L 580.0,1020.0 L 600.0,1040.0 L 600.0,1020.0 L 620.0,1020.0 L 640.0,1040.0 L 640.0,1020.0 L 660.0,1020.0 L 680.0,1040.0 L 680.0,1020.0 L 700.0,1020.0 L 720.0,1040.0 L 720.0,1020.0 L 740.0,1020.0 L 760.0,1040.0 L 760.0,1020.0 L 780.0,1020.0 L 800.0,1040.0 L 800.0,1020.0 L 820.0,1020.0 L 840.0,1040.0 L 840.0,1020.0 L 860.0,1020.0 L 880.0,1040.0 L 880.0,1020.0 L 900.0,1020.0 L 920.0,1040.0 L 920.0,1020.0 L 940.0,1020.0 L 960.0,1040.0 L 960.0,1020.0 L 980.0,1020.0 L 1000.0,1040.0 L 1000.0,1020.0 L 1020.0,1020.0 L 1040.0,1040.0" fill="none" stroke="#d4a544" stroke-width="2.4" opacity="0.92"/>
<rect x="0" y="100" width="1080" height="170" fill="#0d0d0d"/>
<g font-family="Georgia, 'Times New Roman', serif" text-anchor="middle">
<text x="540.0" y="170" font-size="38" letter-spacing="3" fill="#d4a544" font-weight="700">TE PĀ TŪWATAWATA</text>
<text x="540.0" y="220" font-size="20" letter-spacing="2" fill="#9a9080">INDIGENOUS · DATA · SOVEREIGNTY</text>
</g>
<g transform="translate(540.0, 570.0)">
<path d="M 200.0 0.0 L 199.1 14.7 L 197.0 29.2 L 194.0 43.5 L 189.8 57.6 L 184.7 71.2 L 178.6 84.4 L 171.6 97.2 L 163.6 109.3 L 154.8 120.8 L 145.2 131.6 L 134.9 141.6 L 123.8 150.8 L 112.2 159.2 L 100.0 166.7 L 87.3 173.2 L 74.1 178.8 L 60.7 183.4 L 46.9 187.0 L 33.0 189.5 L 18.9 191.1 L 4.8 191.5 L -9.3 191.0 L -23.3 189.4 L -37.1 186.8 L -50.6 183.2 L -63.8 178.6 L -76.6 173.1 L -88.9 166.6 L -100.8 159.3 L -112.0 151.2 L -122.5 142.2 L -132.4 132.6 L -141.5 122.2 L -149.8 111.3 L -157.2 99.7 L -163.8 87.7 L -169.5 75.3 L -174.2 62.5 L -178.0 49.4 L -180.7 36.1 L -182.5 22.7 L -183.3 9.2 L -183.1 -4.3 L -181.9 -17.8 L -179.8 -31.0 L -176.6 -44.1 L -172.6 -56.8 L -167.6 -69.2 L -161.7 -81.2 L -155.0 -92.7 L -147.4 -103.6 L -139.1 -113.9 L -130.1 -123.6 L -120.4 -132.6 L -110.1 -140.8 L -99.3 -148.2 L -87.9 -154.8 L -76.1 -160.5 L -64.0 -165.3 L -51.6 -169.2 L -38.9 -172.2 L -26.1 -174.3 L -13.2 -175.4 L -0.2 -175.5 L 12.7 -174.7 L 25.4 -172.9 L 38.0 -170.2 L 50.3 -166.6 L 62.3 -162.2 L 73.9 -156.8 L 85.1 -150.6 L 95.7 -143.7 L 105.8 -136.0 L 115.3 -127.6 L 124.1 -118.5 L 132.2 -108.8 L 139.6 -98.6 L 146.1 -87.9 L 151.9 -76.8 L 156.8 -65.3 L 160.9 -53.4 L 164.0 -41.4 L 166.3 -29.1 L 167.6 -16.8 L 168.1 -4.4 L 167.6 7.9 L 166.2 20.2 L 163.9 32.3 L 160.8 44.2 L 156.8 55.8 L 152.0 67.0 L 146.3 77.9 L 139.9 88.2 L 132.8 98.1 L 124.9 107.3 L 116.5 116.0 L 107.4 124.0 L 97.8 131.3 L 87.7 137.9 L 77.2 143.6 L 66.2 148.6 L 55.0 152.8 L 43.6 156.1 L 31.9 158.5 L 20.1 160.1 L 8.3 160.9 L -3.6 160.7 L -15.4 159.7 L -27.0 157.8 L -38.5 155.1 L -49.7 151.5 L -60.5 147.1 L -71.1 142.0 L -81.1 136.1 L -90.7 129.5 L -99.8 122.2 L -108.3 114.3 L -116.2 105.8 L -123.4 96.8 L -129.9 87.3 L -135.7 77.3 L -140.8 67.0 L -145.0 56.4 L -148.4 45.4 L -151.1 34.3 L -152.9 23.1 L -153.9 11.8 L -154.0 0.4 L -153.3 -10.9 L -151.8 -22.1 L -149.4 -33.1 L -146.3 -43.9 L -142.4 -54.5 L -137.7 -64.7 L -132.3 -74.5 L -126.2 -83.8 L -119.4 -92.7 L -112.1 -101.0 L -104.1 -108.7 L -95.7 -115.9 L -86.7 -122.3 L -77.3 -128.1 L -67.5 -133.2 L -57.4 -137.5 L -47.1 -141.1 L -36.5 -143.9 L -25.8 -145.9 L -14.9 -147.1 L -4.1 -147.5 L 6.8 -147.1 L 17.5 -145.9 L 28.2 -143.9 L 38.6 -141.1 L 48.8 -137.6 L 58.6 -133.4 L 68.1 -128.5 L 77.2 -122.9 L 85.9 -116.6 L 94.1 -109.8 L 101.7 -102.3 L 108.7 -94.4 L 115.1 -86.0 L 120.9 -77.1 L 125.9 -67.9 L 130.3 -58.3 L 134.0 -48.5 L 136.9 -38.4 L 139.1 -28.2 L 140.5 -17.8 L 141.1 -7.4 L 141.0 3.0 L 140.1 13.3 L 138.5 23.5 L 136.1 33.6 L 133.0 43.4 L 129.2 53.0 L 124.7 62.2 L 119.5 71.0 L 113.7 79.5 L 107.4 87.4 L 100.4 94.9 L 93.0 101.8 L 85.1 108.2 L 76.7 113.9 L 68.0 119.0 L 59.0 123.4 L 49.6 127.2 L 40.0 130.2 L 30.3 132.5 L 20.4 134.1 L 10.5 135.0 L 0.5 135.1 L -9.4 134.5 L -19.2 133.2 L -28.9 131.1 L -38.4 128.4 L -47.6 125.0 L -56.6 120.9 L -65.2 116.2 L -73.4 110.8 L -81.2 104.9 L -88.5 98.5 L -95.3 91.5 L -101.6 84.1 L -107.3 76.2 L -112.3 68.0 L -116.8 59.4 L -120.6 50.6 L -123.7 41.5 L -126.2 32.2 L -128.0 22.8 L -129.0 13.3 L -129.4 3.7 L -129.0 -5.8 L -128.0 -15.2 L -126.3 -24.5 L -123.9 -33.7 L -120.8 -42.6 L -117.1 -51.3 L -112.8 -59.6 L -107.9 -67.6 L -102.4 -75.2 L -96.4 -82.4 L -89.9 -89.1 L -82.9 -95.3 L -75.6 -100.9 L -67.8 -106.0 L -59.7 -110.4 L -51.3 -114.3 L -42.7 -117.5 L -33.8 -120.1 L -24.9 -122.0 L -15.8 -123.3 L -6.7 -123.8 L 2.4 -123.7 L 11.5 -123.0 L 20.5 -121.5 L 29.3 -119.5 L 37.9 -116.7" fill="none" stroke="#f4f0e8" stroke-width="3.0" stroke-linecap="round"/>
<path d="M 150.0 0.0 L 149.4 9.4 L 148.3 18.8 L 146.5 28.1 L 144.2 37.2 L 141.4 46.1 L 137.9 54.9 L 134.0 63.3 L 129.5 71.5 L 124.5 79.4 L 119.0 87.0 L 113.1 94.1 L 106.8 100.9 L 100.0 107.2 L 92.9 113.1 L 85.4 118.5 L 77.6 123.5 L 69.6 127.9 L 61.3 131.8 L 52.7 135.2 L 44.0 138.0 L 35.2 140.2 L 26.2 141.9 L 17.2 143.1 L 8.1 143.6 L -0.9 143.6 L -10.0 143.0 L -18.9 141.8 L -27.8 140.1 L -36.5 137.8 L -45.0 135.0 L -53.4 131.7 L -61.5 127.8 L -69.3 123.5 L -76.8 118.6 L -84.0 113.4 L -90.8 107.7 L -97.2 101.5 L -103.3 95.0 L -108.9 88.2 L -114.0 81.0 L -118.7 73.5 L -122.9 65.8 L -126.5 57.8 L -129.7 49.6 L -132.3 41.3 L -134.5 32.8 L -136.0 24.2 L -137.0 15.6 L -137.5 6.9 L -137.4 -1.8 L -136.8 -10.4 L -135.6 -19.0 L -133.9 -27.5 L -131.7 -35.8 L -128.9 -44.0 L -125.7 -51.9 L -122.0 -59.6 L -117.7 -67.1 L -113.1 -74.2 L -108.0 -81.1 L -102.5 -87.6 L -96.6 -93.7 L -90.3 -99.4 L -83.7 -104.7 L -76.8 -109.6 L -69.6 -114.1 L -62.2 -118.0 L -54.5 -121.5 L -46.7 -124.5 L -38.7 -126.9 L -30.5 -128.9 L -22.3 -130.3 L -14.0 -131.3 L -5.7 -131.6 L 2.6 -131.5 L 10.9 -130.9 L 19.1 -129.7 L 27.1 -128.0 L 35.1 -125.8 L 42.9 -123.1 L 50.5 -120.0 L 57.8 -116.4 L 65.0 -112.3 L 71.8 -107.8 L 78.3 -102.8 L 84.5 -97.5 L 90.3 -91.9 L 95.7 -85.8 L 100.8 -79.5 L 105.4 -72.8 L 109.6 -65.9 L 113.3 -58.8 L 116.6 -51.4 L 119.4 -43.9 L 121.7 -36.2 L 123.6 -28.4 L 124.9 -20.5 L 125.7 -12.6 L 126.0 -4.6 L 125.9 3.3 L 125.2 11.2 L 124.0 19.1 L 122.3 26.8 L 120.2 34.4 L 117.6 41.8 L 114.5 49.1 L 111.0 56.1 L 107.1 62.9 L 102.7 69.4 L 97.9 75.6 L 92.8 81.5 L 87.4 87.0 L 81.5 92.2 L 75.4 97.0 L 69.1 101.4 L 62.4 105.3 L 55.6 108.9 L 48.5 111.9 L 41.3 114.6 L 33.9 116.8 L 26.4 118.5 L 18.9 119.7 L 11.3 120.4 L 3.6 120.7 L -4.0 120.5 L -11.5 119.8 L -19.0 118.6 L -26.4 116.9 L -33.7 114.8 L -40.8 112.3 L -47.7 109.3 L -54.4 105.9 L -60.9 102.1 L -67.1 97.9 L -73.0 93.3 L -78.6 88.3 L -83.8 83.1 L -88.7 77.5 L -93.3 71.6 L -97.4 65.5 L -101.2 59.1 L -104.5 52.5 L -107.5 45.7 L -109.9 38.8 L -112.0 31.7 L -113.5 24.6 L -114.7 17.3 L -115.3 10.0 L -115.5 2.7 L -115.3 -4.5 L -114.5 -11.8 L -113.4 -19.0 L -111.8 -26.0 L -109.7 -33.0 L -107.2 -39.7 L -104.3 -46.3 L -101.0 -52.7 L -97.3 -58.9 L -93.2 -64.8 L -88.8 -70.4 L -84.1 -75.8 L -79.0 -80.8 L -73.6 -85.4 L -67.9 -89.7 L -62.0 -93.7 L -55.9 -97.2 L -49.6 -100.4 L -43.1 -103.1 L -36.4 -105.5 L -29.7 -107.4 L -22.8 -108.8 L -15.8 -109.9 L -8.9 -110.4 L -1.9 -110.6 L 5.1 -110.3 L 12.0 -109.6 L 18.9 -108.4 L 25.6 -106.8 L 32.2 -104.8 L 38.7 -102.4 L 45.0 -99.6 L 51.1 -96.4 L 57.0 -92.8 L 62.6 -88.8 L 68.0 -84.6 L 73.0 -80.0 L 77.8 -75.1 L 82.2 -69.9 L 86.3 -64.5 L 90.1 -58.8 L 93.4 -52.9 L 96.4 -46.8 L 99.0 -40.6 L 101.2 -34.2 L 103.0 -27.7 L 104.3 -21.1 L 105.3 -14.5 L 105.8 -7.8 L 105.9 -1.1 L 105.5 5.6 L 104.8 12.2 L 103.6 18.7 L 102.1 25.2 L 100.1 31.5 L 97.7 37.7 L 95.0 43.7 L 91.9 49.5 L 88.4 55.1 L 84.6 60.5 L 80.5 65.6 L 76.1 70.4 L 71.4 74.9 L 66.4 79.1 L 61.2 83.0 L 55.7 86.6 L 50.1 89.8 L 44.2 92.6 L 38.2 95.0 L 32.1 97.1 L 25.9 98.7 L 19.6 100.0 L 13.2 100.8 L 6.8 101.3 L 0.4 101.3 L -6.0 101.0 L -12.3 100.2 L -18.6 99.1 L -24.7 97.5 L -30.8 95.6 L -36.7 93.3 L -42.4 90.7 L -48.0 87.7 L -53.3 84.3 L -58.4 80.6 L -63.3 76.7 L -67.9 72.4 L -72.2 67.8 L -76.2 63.1 L -79.9 58.0" fill="none" stroke="#c0392b" stroke-width="1.6" stroke-linecap="round" opacity="0.6"/>
</g>
<rect x="0" y="800" width="1080" height="180" fill="#0d0d0d"/>
<g font-family="Georgia, serif" text-anchor="middle" fill="#f4f0e8">
<text x="540.0" y="860" font-size="56" font-weight="800">Ko tātou te anamata.</text>
<text x="540.0" y="900" font-size="26" fill="#9a9080" font-style="italic">We are the future.</text>
</g>
<g font-family="Georgia, serif" text-anchor="middle">
<text x="540.0" y="945" font-size="18" fill="#f4f0e8" letter-spacing="2">FREE · OPEN · 6 LANGUAGES · 30 MOTIFS</text>
<text x="540.0" y="985" font-size="34" fill="#d4a544" font-weight="700" letter-spacing="4">te-pa.org</text>
</g>
</svg>