<svg xmlns="http://www.w3.org/2000/svg" width="1500" height="500" viewBox="0 0 1500 500" role="img" aria-label="Te Pā Tūwatawata launch banner">
<title>Te Pā Tūwatawata — public launch banner</title>
<rect width="1500" height="500" fill="#0d0d0d"/>
<g transform="translate(160, 250)" opacity="0.55">
<path d="M 110.0 0.0 L 109.6 6.9 L 108.8 13.8 L 107.5 20.6 L 105.8 27.3 L 103.7 33.9 L 101.2 40.3 L 98.3 46.5 L 95.0 52.5 L 91.4 58.3 L 87.4 63.8 L 83.0 69.1 L 78.4 74.1 L 73.5 78.8 L 68.2 83.1 L 62.7 87.1 L 57.0 90.7 L 51.1 94.0 L 45.0 96.9 L 38.8 99.3 L 32.4 101.4 L 25.9 103.1 L 19.3 104.4 L 12.6 105.2 L 6.0 105.6 L -0.7 105.6 L -7.3 105.2 L -13.9 104.3 L -20.5 103.1 L -26.9 101.4 L -33.2 99.4 L -39.3 96.9 L -45.2 94.1 L -51.0 90.9 L -56.5 87.4 L -61.8 83.5 L -66.9 79.3 L -71.6 74.8 L -76.1 70.0 L -80.2 65.0 L -84.0 59.7 L -87.5 54.2 L -90.5 48.5 L -93.3 42.6 L -95.6 36.6 L -97.6 30.4 L -99.1 24.2 L -100.3 17.9 L -101.1 11.5 L -101.4 5.1 L -101.4 -1.3 L -100.9 -7.7 L -100.1 -14.0 L -98.8 -20.3 L -97.2 -26.4 L -95.2 -32.5 L -92.8 -38.3 L -90.0 -44.0 L -86.9 -49.5 L -83.5 -54.8 L -79.8 -59.9 L -75.7 -64.7 L -71.4 -69.2 L -66.7 -73.5 L -61.9 -77.4 L -56.8 -81.0 L -51.5 -84.3 L -46.0 -87.2 L -40.3 -89.8 L -34.5 -92.0 L -28.6 -93.9 L -22.6 -95.3 L -16.5 -96.4 L -10.4 -97.1 L -4.2 -97.4 L 1.9 -97.3 L 8.0 -96.8 L 14.1 -96.0 L 20.1 -94.7 L 26.0 -93.1 L 31.8 -91.2 L 37.4 -88.8 L 42.8 -86.2 L 48.1 -83.2 L 53.2 -79.8 L 58.0 -76.2 L 62.6 -72.3 L 66.9 -68.1 L 70.9 -63.6 L 74.7 -58.9 L 78.1 -54.0 L 81.3 -48.9 L 84.0 -43.6 L 86.5 -38.1 L 88.6 -32.6 L 90.3 -26.9 L 91.7 -21.1 L 92.7 -15.2 L 93.3 -9.3 L 93.5 -3.4 L 93.4 2.5 L 92.9 8.3 L 92.1 14.1 L 90.8 19.9 L 89.2 25.5 L 87.3 31.1 L 85.0 36.4 L 82.4 41.7 L 79.5 46.7 L 76.3 51.5 L 72.8 56.2 L 69.0 60.5 L 64.9 64.7 L 60.6 68.5 L 56.1 72.1 L 51.3 75.3 L 46.4 78.3 L 41.3 80.9 L 36.1 83.3 L 30.7 85.2 L 25.2 86.8 L 19.7 88.1 L 14.0 89.0 L 8.4 89.6 L 2.7 89.8 L -2.9 89.7 L -8.6 89.1 L -14.2 88.3 L -19.7 87.1 L -25.1 85.5 L -30.4 83.6 L -35.5 81.4 L -40.5 78.9 L -45.3 76.0 L -50.0 72.9 L -54.4 69.5 L -58.6 65.8 L -62.5 61.9 L -66.2 57.8 L -69.6 53.4 L -72.7 48.8 L -75.5 44.1 L -78.0 39.1 L -80.2 34.1 L -82.0 28.9 L -83.5 23.7 L -84.7 18.3 L -85.6 12.9 L -86.1 7.5 L -86.2 2.0 L -86.0 -3.4 L -85.5 -8.8 L -84.7 -14.2 L -83.5 -19.4 L -81.9 -24.6 L -80.1 -29.7 L -77.9 -34.6 L -75.5 -39.4 L -72.7 -44.0 L -69.7 -48.4 L -66.4 -52.6 L -62.8 -56.6 L -59.0 -60.4 L -55.0 -63.9 L -50.8 -67.1 L -46.4 -70.1 L -41.8 -72.7 L -37.1 -75.1 L -32.2 -77.2 L -27.3 -78.9 L -22.2 -80.3 L -17.1 -81.4 L -11.9 -82.2 L -6.6 -82.7 L -1.4 -82.8 L 3.8 -82.6 L 9.0 -82.0 L 14.1 -81.2 L 19.2 -80.0 L 24.1 -78.5 L 29.0 -76.7 L 33.7 -74.6 L 38.3 -72.2 L 42.7 -69.5 L 46.9 -66.6 L 50.9 -63.4 L 54.8 -60.0 L 58.3 -56.3 L 61.7 -52.4 L 64.7 -48.4 L 67.6 -44.1 L 70.1 -39.7 L 72.3 -35.1 L 74.3 -30.5 L 75.9 -25.7 L 77.3 -20.8 L 78.3 -15.9 L 79.0 -10.9 L 79.4 -5.9 L 79.5 -0.8 L 79.3 4.2 L 78.7 9.1 L 77.8 14.1 L 76.7 18.9 L 75.2 23.7 L 73.4 28.3 L 71.4 32.8 L 69.1 37.2 L 66.5 41.4 L 63.6 45.5 L 60.5 49.3 L 57.2 52.9 L 53.7 56.4 L 49.9 59.5 L 46.0 62.5 L 41.9 65.1 L 37.7 67.5 L 33.3 69.7 L 28.8 71.5 L 24.2 73.1 L 19.5 74.3 L 14.7 75.3 L 9.9 75.9 L 5.1 76.3 L 0.3 76.3 L -4.5 76.1 L -9.3 75.5 L -14.0 74.6 L -18.6 73.5 L -23.2 72.1 L -27.7 70.3 L -32.0 68.3 L -36.2 66.1 L -40.2 63.6 L -44.1 60.8 L -47.7 57.8 L -51.2 54.6 L -54.4 51.2 L -57.5 47.6 L -60.2 43.8" fill="none" stroke="#c0392b" stroke-width="2"/>
</g>
<g transform="translate(1340, 250) scale(-1, 1)" opacity="0.55">
<path d="M 110.0 0.0 L 109.6 6.9 L 108.8 13.8 L 107.5 20.6 L 105.8 27.3 L 103.7 33.9 L 101.2 40.3 L 98.3 46.5 L 95.0 52.5 L 91.4 58.3 L 87.4 63.8 L 83.0 69.1 L 78.4 74.1 L 73.5 78.8 L 68.2 83.1 L 62.7 87.1 L 57.0 90.7 L 51.1 94.0 L 45.0 96.9 L 38.8 99.3 L 32.4 101.4 L 25.9 103.1 L 19.3 104.4 L 12.6 105.2 L 6.0 105.6 L -0.7 105.6 L -7.3 105.2 L -13.9 104.3 L -20.5 103.1 L -26.9 101.4 L -33.2 99.4 L -39.3 96.9 L -45.2 94.1 L -51.0 90.9 L -56.5 87.4 L -61.8 83.5 L -66.9 79.3 L -71.6 74.8 L -76.1 70.0 L -80.2 65.0 L -84.0 59.7 L -87.5 54.2 L -90.5 48.5 L -93.3 42.6 L -95.6 36.6 L -97.6 30.4 L -99.1 24.2 L -100.3 17.9 L -101.1 11.5 L -101.4 5.1 L -101.4 -1.3 L -100.9 -7.7 L -100.1 -14.0 L -98.8 -20.3 L -97.2 -26.4 L -95.2 -32.5 L -92.8 -38.3 L -90.0 -44.0 L -86.9 -49.5 L -83.5 -54.8 L -79.8 -59.9 L -75.7 -64.7 L -71.4 -69.2 L -66.7 -73.5 L -61.9 -77.4 L -56.8 -81.0 L -51.5 -84.3 L -46.0 -87.2 L -40.3 -89.8 L -34.5 -92.0 L -28.6 -93.9 L -22.6 -95.3 L -16.5 -96.4 L -10.4 -97.1 L -4.2 -97.4 L 1.9 -97.3 L 8.0 -96.8 L 14.1 -96.0 L 20.1 -94.7 L 26.0 -93.1 L 31.8 -91.2 L 37.4 -88.8 L 42.8 -86.2 L 48.1 -83.2 L 53.2 -79.8 L 58.0 -76.2 L 62.6 -72.3 L 66.9 -68.1 L 70.9 -63.6 L 74.7 -58.9 L 78.1 -54.0 L 81.3 -48.9 L 84.0 -43.6 L 86.5 -38.1 L 88.6 -32.6 L 90.3 -26.9 L 91.7 -21.1 L 92.7 -15.2 L 93.3 -9.3 L 93.5 -3.4 L 93.4 2.5 L 92.9 8.3 L 92.1 14.1 L 90.8 19.9 L 89.2 25.5 L 87.3 31.1 L 85.0 36.4 L 82.4 41.7 L 79.5 46.7 L 76.3 51.5 L 72.8 56.2 L 69.0 60.5 L 64.9 64.7 L 60.6 68.5 L 56.1 72.1 L 51.3 75.3 L 46.4 78.3 L 41.3 80.9 L 36.1 83.3 L 30.7 85.2 L 25.2 86.8 L 19.7 88.1 L 14.0 89.0 L 8.4 89.6 L 2.7 89.8 L -2.9 89.7 L -8.6 89.1 L -14.2 88.3 L -19.7 87.1 L -25.1 85.5 L -30.4 83.6 L -35.5 81.4 L -40.5 78.9 L -45.3 76.0 L -50.0 72.9 L -54.4 69.5 L -58.6 65.8 L -62.5 61.9 L -66.2 57.8 L -69.6 53.4 L -72.7 48.8 L -75.5 44.1 L -78.0 39.1 L -80.2 34.1 L -82.0 28.9 L -83.5 23.7 L -84.7 18.3 L -85.6 12.9 L -86.1 7.5 L -86.2 2.0 L -86.0 -3.4 L -85.5 -8.8 L -84.7 -14.2 L -83.5 -19.4 L -81.9 -24.6 L -80.1 -29.7 L -77.9 -34.6 L -75.5 -39.4 L -72.7 -44.0 L -69.7 -48.4 L -66.4 -52.6 L -62.8 -56.6 L -59.0 -60.4 L -55.0 -63.9 L -50.8 -67.1 L -46.4 -70.1 L -41.8 -72.7 L -37.1 -75.1 L -32.2 -77.2 L -27.3 -78.9 L -22.2 -80.3 L -17.1 -81.4 L -11.9 -82.2 L -6.6 -82.7 L -1.4 -82.8 L 3.8 -82.6 L 9.0 -82.0 L 14.1 -81.2 L 19.2 -80.0 L 24.1 -78.5 L 29.0 -76.7 L 33.7 -74.6 L 38.3 -72.2 L 42.7 -69.5 L 46.9 -66.6 L 50.9 -63.4 L 54.8 -60.0 L 58.3 -56.3 L 61.7 -52.4 L 64.7 -48.4 L 67.6 -44.1 L 70.1 -39.7 L 72.3 -35.1 L 74.3 -30.5 L 75.9 -25.7 L 77.3 -20.8 L 78.3 -15.9 L 79.0 -10.9 L 79.4 -5.9 L 79.5 -0.8 L 79.3 4.2 L 78.7 9.1 L 77.8 14.1 L 76.7 18.9 L 75.2 23.7 L 73.4 28.3 L 71.4 32.8 L 69.1 37.2 L 66.5 41.4 L 63.6 45.5 L 60.5 49.3 L 57.2 52.9 L 53.7 56.4 L 49.9 59.5 L 46.0 62.5 L 41.9 65.1 L 37.7 67.5 L 33.3 69.7 L 28.8 71.5 L 24.2 73.1 L 19.5 74.3 L 14.7 75.3 L 9.9 75.9 L 5.1 76.3 L 0.3 76.3 L -4.5 76.1 L -9.3 75.5 L -14.0 74.6 L -18.6 73.5 L -23.2 72.1 L -27.7 70.3 L -32.0 68.3 L -36.2 66.1 L -40.2 63.6 L -44.1 60.8 L -47.7 57.8 L -51.2 54.6 L -54.4 51.2 L -57.5 47.6 L -60.2 43.8" fill="none" stroke="#c0392b" stroke-width="2"/>
</g>
<path d="M 40.0,32.0 L 57.0,18.0 L 57.0,32.0 L 74.0,32.0 L 91.0,18.0 L 91.0,32.0 L 108.0,32.0 L 125.0,18.0 L 125.0,32.0 L 142.0,32.0 L 159.0,18.0 L 159.0,32.0 L 176.0,32.0 L 193.0,18.0 L 193.0,32.0 L 210.0,32.0 L 227.0,18.0 L 227.0,32.0 L 244.0,32.0 L 261.0,18.0 L 261.0,32.0 L 278.0,32.0 L 295.0,18.0 L 295.0,32.0 L 312.0,32.0 L 329.0,18.0 L 329.0,32.0 L 346.0,32.0 L 363.0,18.0 L 363.0,32.0 L 380.0,32.0 L 397.0,18.0 L 397.0,32.0 L 414.0,32.0 L 431.0,18.0 L 431.0,32.0 L 448.0,32.0 L 465.0,18.0 L 465.0,32.0 L 482.0,32.0 L 499.0,18.0 L 499.0,32.0 L 516.0,32.0 L 533.0,18.0 L 533.0,32.0 L 550.0,32.0 L 567.0,18.0 L 567.0,32.0 L 584.0,32.0 L 601.0,18.0 L 601.0,32.0 L 618.0,32.0 L 635.0,18.0 L 635.0,32.0 L 652.0,32.0 L 669.0,18.0 L 669.0,32.0 L 686.0,32.0 L 703.0,18.0 L 703.0,32.0 L 720.0,32.0 L 737.0,18.0 L 737.0,32.0 L 754.0,32.0 L 771.0,18.0 L 771.0,32.0 L 788.0,32.0 L 805.0,18.0 L 805.0,32.0 L 822.0,32.0 L 839.0,18.0 L 839.0,32.0 L 856.0,32.0 L 873.0,18.0 L 873.0,32.0 L 890.0,32.0 L 907.0,18.0 L 907.0,32.0 L 924.0,32.0 L 941.0,18.0 L 941.0,32.0 L 958.0,32.0 L 975.0,18.0 L 975.0,32.0 L 992.0,32.0 L 1009.0,18.0 L 1009.0,32.0 L 1026.0,32.0 L 1043.0,18.0 L 1043.0,32.0 L 1060.0,32.0 L 1077.0,18.0 L 1077.0,32.0 L 1094.0,32.0 L 1111.0,18.0 L 1111.0,32.0 L 1128.0,32.0 L 1145.0,18.0 L 1145.0,32.0 L 1162.0,32.0 L 1179.0,18.0 L 1179.0,32.0 L 1196.0,32.0 L 1213.0,18.0 L 1213.0,32.0 L 1230.0,32.0 L 1247.0,18.0 L 1247.0,32.0 L 1264.0,32.0 L 1281.0,18.0 L 1281.0,32.0 L 1298.0,32.0 L 1315.0,18.0 L 1315.0,32.0 L 1332.0,32.0 L 1349.0,18.0 L 1349.0,32.0 L 1366.0,32.0 L 1383.0,18.0 L 1383.0,32.0 L 1400.0,32.0 L 1417.0,18.0 L 1417.0,32.0 L 1434.0,32.0 L 1451.0,18.0 L 1451.0,32.0" fill="none" stroke="#d4a544" stroke-width="2" opacity="0.9"/>
<path d="M 40.0,468.0 L 57.0,482.0 L 57.0,468.0 L 74.0,468.0 L 91.0,482.0 L 91.0,468.0 L 108.0,468.0 L 125.0,482.0 L 125.0,468.0 L 142.0,468.0 L 159.0,482.0 L 159.0,468.0 L 176.0,468.0 L 193.0,482.0 L 193.0,468.0 L 210.0,468.0 L 227.0,482.0 L 227.0,468.0 L 244.0,468.0 L 261.0,482.0 L 261.0,468.0 L 278.0,468.0 L 295.0,482.0 L 295.0,468.0 L 312.0,468.0 L 329.0,482.0 L 329.0,468.0 L 346.0,468.0 L 363.0,482.0 L 363.0,468.0 L 380.0,468.0 L 397.0,482.0 L 397.0,468.0 L 414.0,468.0 L 431.0,482.0 L 431.0,468.0 L 448.0,468.0 L 465.0,482.0 L 465.0,468.0 L 482.0,468.0 L 499.0,482.0 L 499.0,468.0 L 516.0,468.0 L 533.0,482.0 L 533.0,468.0 L 550.0,468.0 L 567.0,482.0 L 567.0,468.0 L 584.0,468.0 L 601.0,482.0 L 601.0,468.0 L 618.0,468.0 L 635.0,482.0 L 635.0,468.0 L 652.0,468.0 L 669.0,482.0 L 669.0,468.0 L 686.0,468.0 L 703.0,482.0 L 703.0,468.0 L 720.0,468.0 L 737.0,482.0 L 737.0,468.0 L 754.0,468.0 L 771.0,482.0 L 771.0,468.0 L 788.0,468.0 L 805.0,482.0 L 805.0,468.0 L 822.0,468.0 L 839.0,482.0 L 839.0,468.0 L 856.0,468.0 L 873.0,482.0 L 873.0,468.0 L 890.0,468.0 L 907.0,482.0 L 907.0,468.0 L 924.0,468.0 L 941.0,482.0 L 941.0,468.0 L 958.0,468.0 L 975.0,482.0 L 975.0,468.0 L 992.0,468.0 L 1009.0,482.0 L 1009.0,468.0 L 1026.0,468.0 L 1043.0,482.0 L 1043.0,468.0 L 1060.0,468.0 L 1077.0,482.0 L 1077.0,468.0 L 1094.0,468.0 L 1111.0,482.0 L 1111.0,468.0 L 1128.0,468.0 L 1145.0,482.0 L 1145.0,468.0 L 1162.0,468.0 L 1179.0,482.0 L 1179.0,468.0 L 1196.0,468.0 L 1213.0,482.0 L 1213.0,468.0 L 1230.0,468.0 L 1247.0,482.0 L 1247.0,468.0 L 1264.0,468.0 L 1281.0,482.0 L 1281.0,468.0 L 1298.0,468.0 L 1315.0,482.0 L 1315.0,468.0 L 1332.0,468.0 L 1349.0,482.0 L 1349.0,468.0 L 1366.0,468.0 L 1383.0,482.0 L 1383.0,468.0 L 1400.0,468.0 L 1417.0,482.0 L 1417.0,468.0 L 1434.0,468.0 L 1451.0,482.0 L 1451.0,468.0" fill="none" stroke="#d4a544" stroke-width="2" opacity="0.9"/>
<rect x="290" y="100" width="920" height="300" fill="#0d0d0d" opacity="0.92"/>
<g font-family="Georgia, serif" text-anchor="middle">
<text x="750.0" y="170" font-size="18" letter-spacing="4" fill="#9a9080">A FREE OPEN PLATFORM FOR</text>
<text x="750.0" y="240" font-size="56" font-weight="800" fill="#f4f0e8">Indigenous Data Sovereignty</text>
<text x="750.0" y="284" font-size="24" font-style="italic" fill="#d4a544">· te mana raraunga · soberania · sovereignty ·</text>
<text x="750.0" y="350" font-size="36" letter-spacing="6" fill="#f4f0e8" font-weight="700">te-pa.org</text>
<text x="750.0" y="392" font-size="14" letter-spacing="2" fill="#9a9080">30 MOTIFS · 11 CULTURES · 6 LANGUAGES · CC BY-NC-SA 4.0</text>
</g>
</svg>