<svg xmlns="http://www.w3.org/2000/svg" width="1080" height="1080" viewBox="0 0 1080 1080">
<rect width="1080" height="1080" fill="#0d0d0d"/>
<path d="M0.0,540.0 C22.5,568.0 67.5,512.0 90.0,540.0" fill="none" stroke="#f4f0e8" stroke-width="2.5" opacity="0.7"/><path d="M90.0,540.0 C112.5,512.0 157.5,568.0 180.0,540.0" fill="none" stroke="#c0392b" stroke-width="2.5" opacity="0.7"/><path d="M180.0,540.0 C202.5,568.0 247.5,512.0 270.0,540.0" fill="none" stroke="#f4f0e8" stroke-width="2.5" opacity="0.7"/><path d="M270.0,540.0 C292.5,512.0 337.5,568.0 360.0,540.0" fill="none" stroke="#c0392b" stroke-width="2.5" opacity="0.7"/><path d="M360.0,540.0 C382.5,568.0 427.5,512.0 450.0,540.0" fill="none" stroke="#f4f0e8" stroke-width="2.5" opacity="0.7"/><path d="M450.0,540.0 C472.5,512.0 517.5,568.0 540.0,540.0" fill="none" stroke="#c0392b" stroke-width="2.5" opacity="0.7"/><path d="M540.0,540.0 C562.5,568.0 607.5,512.0 630.0,540.0" fill="none" stroke="#f4f0e8" stroke-width="2.5" opacity="0.7"/><path d="M630.0,540.0 C652.5,512.0 697.5,568.0 720.0,540.0" fill="none" stroke="#c0392b" stroke-width="2.5" opacity="0.7"/><path d="M720.0,540.0 C742.5,568.0 787.5,512.0 810.0,540.0" fill="none" stroke="#f4f0e8" stroke-width="2.5" opacity="0.7"/><path d="M810.0,540.0 C832.5,512.0 877.5,568.0 900.0,540.0" fill="none" stroke="#c0392b" stroke-width="2.5" opacity="0.7"/><path d="M900.0,540.0 C922.5,568.0 967.5,512.0 990.0,540.0" fill="none" stroke="#f4f0e8" stroke-width="2.5" opacity="0.7"/><path d="M990.0,540.0 C1012.5,512.0 1057.5,568.0 1080.0,540.0" fill="none" stroke="#c0392b" stroke-width="2.5" opacity="0.7"/><path d="M1080.0,540.0 C1102.5,568.0 1147.5,512.0 1170.0,540.0" fill="none" stroke="#f4f0e8" stroke-width="2.5" opacity="0.7"/>
<rect x="0" y="0" width="1080" height="8" fill="#c0392b"/>
<rect x="0" y="1008" width="1080" height="72" fill="#0d0d0d"/>
<rect width="1080" height="18" fill="#0d0d0d"/><polygon points="0.0,0 45.0,0 22.5,18" fill="#c0392b"/><polygon points="45.0,0 90.0,0 67.5,18" fill="#c0392b"/><polygon points="90.0,0 135.0,0 112.5,18" fill="#c0392b"/><polygon points="135.0,0 180.0,0 157.5,18" fill="#c0392b"/><polygon points="180.0,0 225.0,0 202.5,18" fill="#c0392b"/><polygon points="225.0,0 270.0,0 247.5,18" fill="#c0392b"/><polygon points="270.0,0 315.0,0 292.5,18" fill="#c0392b"/><polygon points="315.0,0 360.0,0 337.5,18" fill="#c0392b"/><polygon points="360.0,0 405.0,0 382.5,18" fill="#c0392b"/><polygon points="405.0,0 450.0,0 427.5,18" fill="#c0392b"/><polygon points="450.0,0 495.0,0 472.5,18" fill="#c0392b"/><polygon points="495.0,0 540.0,0 517.5,18" fill="#c0392b"/><polygon points="540.0,0 585.0,0 562.5,18" fill="#c0392b"/><polygon points="585.0,0 630.0,0 607.5,18" fill="#c0392b"/><polygon points="630.0,0 675.0,0 652.5,18" fill="#c0392b"/><polygon points="675.0,0 720.0,0 697.5,18" fill="#c0392b"/><polygon points="720.0,0 765.0,0 742.5,18" fill="#c0392b"/><polygon points="765.0,0 810.0,0 787.5,18" fill="#c0392b"/><polygon points="810.0,0 855.0,0 832.5,18" fill="#c0392b"/><polygon points="855.0,0 900.0,0 877.5,18" fill="#c0392b"/><polygon points="900.0,0 945.0,0 922.5,18" fill="#c0392b"/><polygon points="945.0,0 990.0,0 967.5,18" fill="#c0392b"/><polygon points="990.0,0 1035.0,0 1012.5,18" fill="#c0392b"/><polygon points="1035.0,0 1080.0,0 1057.5,18" fill="#c0392b"/>
<text x="540" y="490" font-family="Georgia,serif" font-size="86" font-weight="bold"
  fill="#f4f0e8" text-anchor="middle">KO TE WHAKAPAPA</text>
<text x="540" y="560" font-family="Arial,sans-serif" font-size="43"
  font-weight="bold" fill="#c0392b" text-anchor="middle">GENEALOGY</text>
<text x="540" y="602" font-family="Arial,sans-serif" font-size="21"
  fill="#f4f0e8" text-anchor="middle" opacity="0.7">Every relationship carries obligation.</text>
<text x="540" y="1058" font-family="Arial,sans-serif" font-size="20" font-weight="bold"
  fill="#f4f0e8" text-anchor="middle">THE KIWI DIALECTIC · kiwidialectic.com · Te Pā Tūwatawata</text>
</svg>