<svg xmlns="http://www.w3.org/2000/svg" width="1200" height="630" viewBox="0 0 1200 630">
<rect width="1200" height="630" fill="#0d0d0d"/>
<path d="M-58,-52 A31.9,36.4 0 0 1 0,-52 A31.9,36.4 0 0 1 -58,-52Z" fill="none" stroke="#f4f0e8" stroke-width="1.1" opacity="0.2"/><path d="M0,-52 A31.9,36.4 0 0 1 58,-52 A31.9,36.4 0 0 1 0,-52Z" fill="none" stroke="#f4f0e8" stroke-width="1.1" opacity="0.2"/><path d="M58,-52 A31.9,36.4 0 0 1 116,-52 A31.9,36.4 0 0 1 58,-52Z" fill="none" stroke="#f4f0e8" stroke-width="1.1" opacity="0.2"/><path d="M116,-52 A31.9,36.4 0 0 1 174,-52 A31.9,36.4 0 0 1 116,-52Z" fill="none" stroke="#f4f0e8" stroke-width="1.1" opacity="0.2"/><path d="M174,-52 A31.9,36.4 0 0 1 232,-52 A31.9,36.4 0 0 1 174,-52Z" fill="none" stroke="#f4f0e8" stroke-width="1.1" opacity="0.2"/><path d="M232,-52 A31.9,36.4 0 0 1 290,-52 A31.9,36.4 0 0 1 232,-52Z" fill="none" stroke="#f4f0e8" stroke-width="1.1" opacity="0.2"/><path d="M290,-52 A31.9,36.4 0 0 1 348,-52 A31.9,36.4 0 0 1 290,-52Z" fill="none" stroke="#f4f0e8" stroke-width="1.1" opacity="0.2"/><path d="M348,-52 A31.9,36.4 0 0 1 406,-52 A31.9,36.4 0 0 1 348,-52Z" fill="none" stroke="#f4f0e8" stroke-width="1.1" opacity="0.2"/><path d="M406,-52 A31.9,36.4 0 0 1 464,-52 A31.9,36.4 0 0 1 406,-52Z" fill="none" stroke="#f4f0e8" stroke-width="1.1" opacity="0.2"/><path d="M464,-52 A31.9,36.4 0 0 1 522,-52 A31.9,36.4 0 0 1 464,-52Z" fill="none" stroke="#f4f0e8" stroke-width="1.1" opacity="0.2"/><path d="M522,-52 A31.9,36.4 0 0 1 580,-52 A31.9,36.4 0 0 1 522,-52Z" fill="none" stroke="#f4f0e8" stroke-width="1.1" opacity="0.2"/><path d="M580,-52 A31.9,36.4 0 0 1 638,-52 A31.9,36.4 0 0 1 580,-52Z" fill="none" stroke="#f4f0e8" stroke-width="1.1" opacity="0.2"/><path d="M638,-52 A31.9,36.4 0 0 1 696,-52 A31.9,36.4 0 0 1 638,-52Z" fill="none" stroke="#f4f0e8" stroke-width="1.1" opacity="0.2"/><path d="M696,-52 A31.9,36.4 0 0 1 754,-52 A31.9,36.4 0 0 1 696,-52Z" fill="none" stroke="#f4f0e8" stroke-width="1.1" opacity="0.2"/><path d="M754,-52 A31.9,36.4 0 0 1 812,-52 A31.9,36.4 0 0 1 754,-52Z" fill="none" stroke="#f4f0e8" stroke-width="1.1" opacity="0.2"/><path d="M812,-52 A31.9,36.4 0 0 1 870,-52 A31.9,36.4 0 0 1 812,-52Z" fill="none" stroke="#f4f0e8" stroke-width="1.1" opacity="0.2"/><path d="M870,-52 A31.9,36.4 0 0 1 928,-52 A31.9,36.4 0 0 1 870,-52Z" fill="none" stroke="#f4f0e8" stroke-width="1.1" opacity="0.2"/><path d="M928,-52 A31.9,36.4 0 0 1 986,-52 A31.9,36.4 0 0 1 928,-52Z" fill="none" stroke="#f4f0e8" stroke-width="1.1" opacity="0.2"/><path d="M986,-52 A31.9,36.4 0 0 1 1044,-52 A31.9,36.4 0 0 1 986,-52Z" fill="none" stroke="#f4f0e8" stroke-width="1.1" opacity="0.2"/><path d="M1044,-52 A31.9,36.4 0 0 1 1102,-52 A31.9,36.4 0 0 1 1044,-52Z" fill="none" stroke="#f4f0e8" stroke-width="1.1" opacity="0.2"/><path d="M1102,-52 A31.9,36.4 0 0 1 1160,-52 A31.9,36.4 0 0 1 1102,-52Z" fill="none" stroke="#f4f0e8" stroke-width="1.1" opacity="0.2"/><path d="M1160,-52 A31.9,36.4 0 0 1 1218,-52 A31.9,36.4 0 0 1 1160,-52Z" fill="none" stroke="#f4f0e8" stroke-width="1.1" opacity="0.2"/><path d="M1218,-52 A31.9,36.4 0 0 1 1276,-52 A31.9,36.4 0 0 1 1218,-52Z" fill="none" stroke="#f4f0e8" stroke-width="1.1" opacity="0.2"/><path d="M-29,-19 A31.9,36.4 0 0 1 29,-19 A31.9,36.4 0 0 1 -29,-19Z" fill="none" stroke="#f4f0e8" stroke-width="1.1" opacity="0.2"/><path d="M29,-19 A31.9,36.4 0 0 1 87,-19 A31.9,36.4 0 0 1 29,-19Z" fill="none" stroke="#f4f0e8" stroke-width="1.1" opacity="0.2"/><path d="M87,-19 A31.9,36.4 0 0 1 145,-19 A31.9,36.4 0 0 1 87,-19Z" fill="none" stroke="#f4f0e8" stroke-width="1.1" opacity="0.2"/><path d="M145,-19 A31.9,36.4 0 0 1 203,-19 A31.9,36.4 0 0 1 145,-19Z" fill="none" stroke="#f4f0e8" stroke-width="1.1" opacity="0.2"/><path d="M203,-19 A31.9,36.4 0 0 1 261,-19 A31.9,36.4 0 0 1 203,-19Z" fill="none" stroke="#f4f0e8" stroke-width="1.1" opacity="0.2"/><path d="M261,-19 A31.9,36.4 0 0 1 319,-19 A31.9,36.4 0 0 1 261,-19Z" fill="none" stroke="#f4f0e8" stroke-width="1.1" opacity="0.2"/><path d="M319,-19 A31.9,36.4 0 0 1 377,-19 A31.9,36.4 0 0 1 319,-19Z" fill="none" stroke="#f4f0e8" stroke-width="1.1" opacity="0.2"/><path d="M377,-19 A31.9,36.4 0 0 1 435,-19 A31.9,36.4 0 0 1 377,-19Z" fill="none" stroke="#f4f0e8" stroke-width="1.1" opacity="0.2"/><path d="M435,-19 A31.9,36.4 0 0 1 493,-19 A31.9,36.4 0 0 1 435,-19Z" fill="none" stroke="#f4f0e8" stroke-width="1.1" opacity="0.2"/><path d="M493,-19 A31.9,36.4 0 0 1 551,-19 A31.9,36.4 0 0 1 493,-19Z" fill="none" stroke="#f4f0e8" stroke-width="1.1" opacity="0.2"/><path d="M551,-19 A31.9,36.4 0 0 1 609,-19 A31.9,36.4 0 0 1 551,-19Z" fill="none" stroke="#f4f0e8" stroke-width="1.1" opacity="0.2"/><path d="M609,-19 A31.9,36.4 0 0 1 667,-19 A31.9,36.4 0 0 1 609,-19Z" fill="none" stroke="#f4f0e8" stroke-width="1.1" opacity="0.2"/><path d="M667,-19 A31.9,36.4 0 0 1 725,-19 A31.9,36.4 0 0 1 667,-19Z" fill="none" stroke="#f4f0e8" stroke-width="1.1" opacity="0.2"/><path d="M725,-19 A31.9,36.4 0 0 1 783,-19 A31.9,36.4 0 0 1 725,-19Z" fill="none" stroke="#f4f0e8" stroke-width="1.1" opacity="0.2"/><path d="M783,-19 A31.9,36.4 0 0 1 841,-19 A31.9,36.4 0 0 1 783,-19Z" fill="none" stroke="#f4f0e8" stroke-width="1.1" opacity="0.2"/><path d="M841,-19 A31.9,36.4 0 0 1 899,-19 A31.9,36.4 0 0 1 841,-19Z" fill="none" stroke="#f4f0e8" stroke-width="1.1" opacity="0.2"/><path d="M899,-19 A31.9,36.4 0 0 1 957,-19 A31.9,36.4 0 0 1 899,-19Z" fill="none" stroke="#f4f0e8" stroke-width="1.1" opacity="0.2"/><path d="M957,-19 A31.9,36.4 0 0 1 1015,-19 A31.9,36.4 0 0 1 957,-19Z" fill="none" stroke="#f4f0e8" stroke-width="1.1" opacity="0.2"/><path d="M1015,-19 A31.9,36.4 0 0 1 1073,-19 A31.9,36.4 0 0 1 1015,-19Z" fill="none" stroke="#f4f0e8" stroke-width="1.1" opacity="0.2"/><path d="M1073,-19 A31.9,36.4 0 0 1 1131,-19 A31.9,36.4 0 0 1 1073,-19Z" fill="none" stroke="#f4f0e8" stroke-width="1.1" opacity="0.2"/><path d="M1131,-19 A31.9,36.4 0 0 1 1189,-19 A31.9,36.4 0 0 1 1131,-19Z" fill="none" stroke="#f4f0e8" stroke-width="1.1" opacity="0.2"/><path d="M1189,-19 A31.9,36.4 0 0 1 1247,-19 A31.9,36.4 0 0 1 1189,-19Z" fill="none" stroke="#f4f0e8" stroke-width="1.1" opacity="0.2"/><path d="M1247,-19 A31.9,36.4 0 0 1 1305,-19 A31.9,36.4 0 0 1 1247,-19Z" fill="none" stroke="#f4f0e8" stroke-width="1.1" opacity="0.2"/><path d="M-58,14 A31.9,36.4 0 0 1 0,14 A31.9,36.4 0 0 1 -58,14Z" fill="none" stroke="#f4f0e8" stroke-width="1.1" opacity="0.2"/><path d="M0,14 A31.9,36.4 0 0 1 58,14 A31.9,36.4 0 0 1 0,14Z" fill="none" stroke="#f4f0e8" stroke-width="1.1" opacity="0.2"/><path d="M58,14 A31.9,36.4 0 0 1 116,14 A31.9,36.4 0 0 1 58,14Z" fill="none" stroke="#f4f0e8" stroke-width="1.1" opacity="0.2"/><path d="M116,14 A31.9,36.4 0 0 1 174,14 A31.9,36.4 0 0 1 116,14Z" fill="none" stroke="#f4f0e8" stroke-width="1.1" opacity="0.2"/><path d="M174,14 A31.9,36.4 0 0 1 232,14 A31.9,36.4 0 0 1 174,14Z" fill="none" stroke="#f4f0e8" stroke-width="1.1" opacity="0.2"/><path d="M232,14 A31.9,36.4 0 0 1 290,14 A31.9,36.4 0 0 1 232,14Z" fill="none" stroke="#f4f0e8" stroke-width="1.1" opacity="0.2"/><path d="M290,14 A31.9,36.4 0 0 1 348,14 A31.9,36.4 0 0 1 290,14Z" fill="none" stroke="#f4f0e8" stroke-width="1.1" opacity="0.2"/><path d="M348,14 A31.9,36.4 0 0 1 406,14 A31.9,36.4 0 0 1 348,14Z" fill="none" stroke="#f4f0e8" stroke-width="1.1" opacity="0.2"/><path d="M406,14 A31.9,36.4 0 0 1 464,14 A31.9,36.4 0 0 1 406,14Z" fill="none" stroke="#f4f0e8" stroke-width="1.1" opacity="0.2"/><path d="M464,14 A31.9,36.4 0 0 1 522,14 A31.9,36.4 0 0 1 464,14Z" fill="none" stroke="#f4f0e8" stroke-width="1.1" opacity="0.2"/><path d="M522,14 A31.9,36.4 0 0 1 580,14 A31.9,36.4 0 0 1 522,14Z" fill="none" stroke="#f4f0e8" stroke-width="1.1" opacity="0.2"/><path d="M580,14 A31.9,36.4 0 0 1 638,14 A31.9,36.4 0 0 1 580,14Z" fill="none" stroke="#f4f0e8" stroke-width="1.1" opacity="0.2"/><path d="M638,14 A31.9,36.4 0 0 1 696,14 A31.9,36.4 0 0 1 638,14Z" fill="none" stroke="#f4f0e8" stroke-width="1.1" opacity="0.2"/><path d="M696,14 A31.9,36.4 0 0 1 754,14 A31.9,36.4 0 0 1 696,14Z" fill="none" stroke="#f4f0e8" stroke-width="1.1" opacity="0.2"/><path d="M754,14 A31.9,36.4 0 0 1 812,14 A31.9,36.4 0 0 1 754,14Z" fill="none" stroke="#f4f0e8" stroke-width="1.1" opacity="0.2"/><path d="M812,14 A31.9,36.4 0 0 1 870,14 A31.9,36.4 0 0 1 812,14Z" fill="none" stroke="#f4f0e8" stroke-width="1.1" opacity="0.2"/><path d="M870,14 A31.9,36.4 0 0 1 928,14 A31.9,36.4 0 0 1 870,14Z" fill="none" stroke="#f4f0e8" stroke-width="1.1" opacity="0.2"/><path d="M928,14 A31.9,36.4 0 0 1 986,14 A31.9,36.4 0 0 1 928,14Z" fill="none" stroke="#f4f0e8" stroke-width="1.1" opacity="0.2"/><path d="M986,14 A31.9,36.4 0 0 1 1044,14 A31.9,36.4 0 0 1 986,14Z" fill="none" stroke="#f4f0e8" stroke-width="1.1" opacity="0.2"/><path d="M1044,14 A31.9,36.4 0 0 1 1102,14 A31.9,36.4 0 0 1 1044,14Z" fill="none" stroke="#f4f0e8" stroke-width="1.1" opacity="0.2"/><path d="M1102,14 A31.9,36.4 0 0 1 1160,14 A31.9,36.4 0 0 1 1102,14Z" fill="none" stroke="#f4f0e8" stroke-width="1.1" opacity="0.2"/><path d="M1160,14 A31.9,36.4 0 0 1 1218,14 A31.9,36.4 0 0 1 1160,14Z" fill="none" stroke="#f4f0e8" stroke-width="1.1" opacity="0.2"/><path d="M1218,14 A31.9,36.4 0 0 1 1276,14 A31.9,36.4 0 0 1 1218,14Z" fill="none" stroke="#f4f0e8" stroke-width="1.1" opacity="0.2"/><path d="M-29,47 A31.9,36.4 0 0 1 29,47 A31.9,36.4 0 0 1 -29,47Z" fill="none" stroke="#f4f0e8" stroke-width="1.1" opacity="0.2"/><path d="M29,47 A31.9,36.4 0 0 1 87,47 A31.9,36.4 0 0 1 29,47Z" fill="none" stroke="#f4f0e8" stroke-width="1.1" opacity="0.2"/><path d="M87,47 A31.9,36.4 0 0 1 145,47 A31.9,36.4 0 0 1 87,47Z" fill="none" stroke="#f4f0e8" stroke-width="1.1" opacity="0.2"/><path d="M145,47 A31.9,36.4 0 0 1 203,47 A31.9,36.4 0 0 1 145,47Z" fill="none" stroke="#f4f0e8" stroke-width="1.1" opacity="0.2"/><path d="M203,47 A31.9,36.4 0 0 1 261,47 A31.9,36.4 0 0 1 203,47Z" fill="none" stroke="#f4f0e8" stroke-width="1.1" opacity="0.2"/><path d="M261,47 A31.9,36.4 0 0 1 319,47 A31.9,36.4 0 0 1 261,47Z" fill="none" stroke="#f4f0e8" stroke-width="1.1" opacity="0.2"/><path d="M319,47 A31.9,36.4 0 0 1 377,47 A31.9,36.4 0 0 1 319,47Z" fill="none" stroke="#f4f0e8" stroke-width="1.1" opacity="0.2"/><path d="M377,47 A31.9,36.4 0 0 1 435,47 A31.9,36.4 0 0 1 377,47Z" fill="none" stroke="#f4f0e8" stroke-width="1.1" opacity="0.2"/><path d="M435,47 A31.9,36.4 0 0 1 493,47 A31.9,36.4 0 0 1 435,47Z" fill="none" stroke="#f4f0e8" stroke-width="1.1" opacity="0.2"/><path d="M493,47 A31.9,36.4 0 0 1 551,47 A31.9,36.4 0 0 1 493,47Z" fill="none" stroke="#f4f0e8" stroke-width="1.1" opacity="0.2"/><path d="M551,47 A31.9,36.4 0 0 1 609,47 A31.9,36.4 0 0 1 551,47Z" fill="none" stroke="#f4f0e8" stroke-width="1.1" opacity="0.2"/><path d="M609,47 A31.9,36.4 0 0 1 667,47 A31.9,36.4 0 0 1 609,47Z" fill="none" stroke="#f4f0e8" stroke-width="1.1" opacity="0.2"/><path d="M667,47 A31.9,36.4 0 0 1 725,47 A31.9,36.4 0 0 1 667,47Z" fill="none" stroke="#f4f0e8" stroke-width="1.1" opacity="0.2"/><path d="M725,47 A31.9,36.4 0 0 1 783,47 A31.9,36.4 0 0 1 725,47Z" fill="none" stroke="#f4f0e8" stroke-width="1.1" opacity="0.2"/><path d="M783,47 A31.9,36.4 0 0 1 841,47 A31.9,36.4 0 0 1 783,47Z" fill="none" stroke="#f4f0e8" stroke-width="1.1" opacity="0.2"/><path d="M841,47 A31.9,36.4 0 0 1 899,47 A31.9,36.4 0 0 1 841,47Z" fill="none" stroke="#f4f0e8" stroke-width="1.1" opacity="0.2"/><path d="M899,47 A31.9,36.4 0 0 1 957,47 A31.9,36.4 0 0 1 899,47Z" fill="none" stroke="#f4f0e8" stroke-width="1.1" opacity="0.2"/><path d="M957,47 A31.9,36.4 0 0 1 1015,47 A31.9,36.4 0 0 1 957,47Z" fill="none" stroke="#f4f0e8" stroke-width="1.1" opacity="0.2"/><path d="M1015,47 A31.9,36.4 0 0 1 1073,47 A31.9,36.4 0 0 1 1015,47Z" fill="none" stroke="#f4f0e8" stroke-width="1.1" opacity="0.2"/><path d="M1073,47 A31.9,36.4 0 0 1 1131,47 A31.9,36.4 0 0 1 1073,47Z" fill="none" stroke="#f4f0e8" stroke-width="1.1" opacity="0.2"/><path d="M1131,47 A31.9,36.4 0 0 1 1189,47 A31.9,36.4 0 0 1 1131,47Z" fill="none" stroke="#f4f0e8" stroke-width="1.1" opacity="0.2"/><path d="M1189,47 A31.9,36.4 0 0 1 1247,47 A31.9,36.4 0 0 1 1189,47Z" fill="none" stroke="#f4f0e8" stroke-width="1.1" opacity="0.2"/><path d="M1247,47 A31.9,36.4 0 0 1 1305,47 A31.9,36.4 0 0 1 1247,47Z" fill="none" stroke="#f4f0e8" stroke-width="1.1" opacity="0.2"/><path d="M-58,80 A31.9,36.4 0 0 1 0,80 A31.9,36.4 0 0 1 -58,80Z" fill="none" stroke="#f4f0e8" stroke-width="1.1" opacity="0.2"/><path d="M0,80 A31.9,36.4 0 0 1 58,80 A31.9,36.4 0 0 1 0,80Z" fill="none" stroke="#f4f0e8" stroke-width="1.1" opacity="0.2"/><path d="M58,80 A31.9,36.4 0 0 1 116,80 A31.9,36.4 0 0 1 58,80Z" fill="none" stroke="#f4f0e8" stroke-width="1.1" opacity="0.2"/><path d="M116,80 A31.9,36.4 0 0 1 174,80 A31.9,36.4 0 0 1 116,80Z" fill="none" stroke="#f4f0e8" stroke-width="1.1" opacity="0.2"/><path d="M174,80 A31.9,36.4 0 0 1 232,80 A31.9,36.4 0 0 1 174,80Z" fill="none" stroke="#f4f0e8" stroke-width="1.1" opacity="0.2"/><path d="M232,80 A31.9,36.4 0 0 1 290,80 A31.9,36.4 0 0 1 232,80Z" fill="none" stroke="#f4f0e8" stroke-width="1.1" opacity="0.2"/><path d="M290,80 A31.9,36.4 0 0 1 348,80 A31.9,36.4 0 0 1 290,80Z" fill="none" stroke="#f4f0e8" stroke-width="1.1" opacity="0.2"/><path d="M348,80 A31.9,36.4 0 0 1 406,80 A31.9,36.4 0 0 1 348,80Z" fill="none" stroke="#f4f0e8" stroke-width="1.1" opacity="0.2"/><path d="M406,80 A31.9,36.4 0 0 1 464,80 A31.9,36.4 0 0 1 406,80Z" fill="none" stroke="#f4f0e8" stroke-width="1.1" opacity="0.2"/><path d="M464,80 A31.9,36.4 0 0 1 522,80 A31.9,36.4 0 0 1 464,80Z" fill="none" stroke="#f4f0e8" stroke-width="1.1" opacity="0.2"/><path d="M522,80 A31.9,36.4 0 0 1 580,80 A31.9,36.4 0 0 1 522,80Z" fill="none" stroke="#f4f0e8" stroke-width="1.1" opacity="0.2"/><path d="M580,80 A31.9,36.4 0 0 1 638,80 A31.9,36.4 0 0 1 580,80Z" fill="none" stroke="#f4f0e8" stroke-width="1.1" opacity="0.2"/><path d="M638,80 A31.9,36.4 0 0 1 696,80 A31.9,36.4 0 0 1 638,80Z" fill="none" stroke="#f4f0e8" stroke-width="1.1" opacity="0.2"/><path d="M696,80 A31.9,36.4 0 0 1 754,80 A31.9,36.4 0 0 1 696,80Z" fill="none" stroke="#f4f0e8" stroke-width="1.1" opacity="0.2"/><path d="M754,80 A31.9,36.4 0 0 1 812,80 A31.9,36.4 0 0 1 754,80Z" fill="none" stroke="#f4f0e8" stroke-width="1.1" opacity="0.2"/><path d="M812,80 A31.9,36.4 0 0 1 870,80 A31.9,36.4 0 0 1 812,80Z" fill="none" stroke="#f4f0e8" stroke-width="1.1" opacity="0.2"/><path d="M870,80 A31.9,36.4 0 0 1 928,80 A31.9,36.4 0 0 1 870,80Z" fill="none" stroke="#f4f0e8" stroke-width="1.1" opacity="0.2"/><path d="M928,80 A31.9,36.4 0 0 1 986,80 A31.9,36.4 0 0 1 928,80Z" fill="none" stroke="#f4f0e8" stroke-width="1.1" opacity="0.2"/><path d="M986,80 A31.9,36.4 0 0 1 1044,80 A31.9,36.4 0 0 1 986,80Z" fill="none" stroke="#f4f0e8" stroke-width="1.1" opacity="0.2"/><path d="M1044,80 A31.9,36.4 0 0 1 1102,80 A31.9,36.4 0 0 1 1044,80Z" fill="none" stroke="#f4f0e8" stroke-width="1.1" opacity="0.2"/><path d="M1102,80 A31.9,36.4 0 0 1 1160,80 A31.9,36.4 0 0 1 1102,80Z" fill="none" stroke="#f4f0e8" stroke-width="1.1" opacity="0.2"/><path d="M1160,80 A31.9,36.4 0 0 1 1218,80 A31.9,36.4 0 0 1 1160,80Z" fill="none" stroke="#f4f0e8" stroke-width="1.1" opacity="0.2"/><path d="M1218,80 A31.9,36.4 0 0 1 1276,80 A31.9,36.4 0 0 1 1218,80Z" fill="none" stroke="#f4f0e8" stroke-width="1.1" opacity="0.2"/><path d="M-29,113 A31.9,36.4 0 0 1 29,113 A31.9,36.4 0 0 1 -29,113Z" fill="none" stroke="#f4f0e8" stroke-width="1.1" opacity="0.2"/><path d="M29,113 A31.9,36.4 0 0 1 87,113 A31.9,36.4 0 0 1 29,113Z" fill="none" stroke="#f4f0e8" stroke-width="1.1" opacity="0.2"/><path d="M87,113 A31.9,36.4 0 0 1 145,113 A31.9,36.4 0 0 1 87,113Z" fill="none" stroke="#f4f0e8" stroke-width="1.1" opacity="0.2"/><path d="M145,113 A31.9,36.4 0 0 1 203,113 A31.9,36.4 0 0 1 145,113Z" fill="none" stroke="#f4f0e8" stroke-width="1.1" opacity="0.2"/><path d="M203,113 A31.9,36.4 0 0 1 261,113 A31.9,36.4 0 0 1 203,113Z" fill="none" stroke="#f4f0e8" stroke-width="1.1" opacity="0.2"/><path d="M261,113 A31.9,36.4 0 0 1 319,113 A31.9,36.4 0 0 1 261,113Z" fill="none" stroke="#f4f0e8" stroke-width="1.1" opacity="0.2"/><path d="M319,113 A31.9,36.4 0 0 1 377,113 A31.9,36.4 0 0 1 319,113Z" fill="none" stroke="#f4f0e8" stroke-width="1.1" opacity="0.2"/><path d="M377,113 A31.9,36.4 0 0 1 435,113 A31.9,36.4 0 0 1 377,113Z" fill="none" stroke="#f4f0e8" stroke-width="1.1" opacity="0.2"/><path d="M435,113 A31.9,36.4 0 0 1 493,113 A31.9,36.4 0 0 1 435,113Z" fill="none" stroke="#f4f0e8" stroke-width="1.1" opacity="0.2"/><path d="M493,113 A31.9,36.4 0 0 1 551,113 A31.9,36.4 0 0 1 493,113Z" fill="none" stroke="#f4f0e8" stroke-width="1.1" opacity="0.2"/><path d="M551,113 A31.9,36.4 0 0 1 609,113 A31.9,36.4 0 0 1 551,113Z" fill="none" stroke="#f4f0e8" stroke-width="1.1" opacity="0.2"/><path d="M609,113 A31.9,36.4 0 0 1 667,113 A31.9,36.4 0 0 1 609,113Z" fill="none" stroke="#f4f0e8" stroke-width="1.1" opacity="0.2"/><path d="M667,113 A31.9,36.4 0 0 1 725,113 A31.9,36.4 0 0 1 667,113Z" fill="none" stroke="#f4f0e8" stroke-width="1.1" opacity="0.2"/><path d="M725,113 A31.9,36.4 0 0 1 783,113 A31.9,36.4 0 0 1 725,113Z" fill="none" stroke="#f4f0e8" stroke-width="1.1" opacity="0.2"/><path d="M783,113 A31.9,36.4 0 0 1 841,113 A31.9,36.4 0 0 1 783,113Z" fill="none" stroke="#f4f0e8" stroke-width="1.1" opacity="0.2"/><path d="M841,113 A31.9,36.4 0 0 1 899,113 A31.9,36.4 0 0 1 841,113Z" fill="none" stroke="#f4f0e8" stroke-width="1.1" opacity="0.2"/><path d="M899,113 A31.9,36.4 0 0 1 957,113 A31.9,36.4 0 0 1 899,113Z" fill="none" stroke="#f4f0e8" stroke-width="1.1" opacity="0.2"/><path d="M957,113 A31.9,36.4 0 0 1 1015,113 A31.9,36.4 0 0 1 957,113Z" fill="none" stroke="#f4f0e8" stroke-width="1.1" opacity="0.2"/><path d="M1015,113 A31.9,36.4 0 0 1 1073,113 A31.9,36.4 0 0 1 1015,113Z" fill="none" stroke="#f4f0e8" stroke-width="1.1" opacity="0.2"/><path d="M1073,113 A31.9,36.4 0 0 1 1131,113 A31.9,36.4 0 0 1 1073,113Z" fill="none" stroke="#f4f0e8" stroke-width="1.1" opacity="0.2"/><path d="M1131,113 A31.9,36.4 0 0 1 1189,113 A31.9,36.4 0 0 1 1131,113Z" fill="none" stroke="#f4f0e8" stroke-width="1.1" opacity="0.2"/><path d="M1189,113 A31.9,36.4 0 0 1 1247,113 A31.9,36.4 0 0 1 1189,113Z" fill="none" stroke="#f4f0e8" stroke-width="1.1" opacity="0.2"/><path d="M1247,113 A31.9,36.4 0 0 1 1305,113 A31.9,36.4 0 0 1 1247,113Z" fill="none" stroke="#f4f0e8" stroke-width="1.1" opacity="0.2"/><path d="M-58,146 A31.9,36.4 0 0 1 0,146 A31.9,36.4 0 0 1 -58,146Z" fill="none" stroke="#f4f0e8" stroke-width="1.1" opacity="0.2"/><path d="M0,146 A31.9,36.4 0 0 1 58,146 A31.9,36.4 0 0 1 0,146Z" fill="none" stroke="#f4f0e8" stroke-width="1.1" opacity="0.2"/><path d="M58,146 A31.9,36.4 0 0 1 116,146 A31.9,36.4 0 0 1 58,146Z" fill="none" stroke="#f4f0e8" stroke-width="1.1" opacity="0.2"/><path d="M116,146 A31.9,36.4 0 0 1 174,146 A31.9,36.4 0 0 1 116,146Z" fill="none" stroke="#f4f0e8" stroke-width="1.1" opacity="0.2"/><path d="M174,146 A31.9,36.4 0 0 1 232,146 A31.9,36.4 0 0 1 174,146Z" fill="none" stroke="#f4f0e8" stroke-width="1.1" opacity="0.2"/><path d="M232,146 A31.9,36.4 0 0 1 290,146 A31.9,36.4 0 0 1 232,146Z" fill="none" stroke="#f4f0e8" stroke-width="1.1" opacity="0.2"/><path d="M290,146 A31.9,36.4 0 0 1 348,146 A31.9,36.4 0 0 1 290,146Z" fill="none" stroke="#f4f0e8" stroke-width="1.1" opacity="0.2"/><path d="M348,146 A31.9,36.4 0 0 1 406,146 A31.9,36.4 0 0 1 348,146Z" fill="none" stroke="#f4f0e8" stroke-width="1.1" opacity="0.2"/><path d="M406,146 A31.9,36.4 0 0 1 464,146 A31.9,36.4 0 0 1 406,146Z" fill="none" stroke="#f4f0e8" stroke-width="1.1" opacity="0.2"/><path d="M464,146 A31.9,36.4 0 0 1 522,146 A31.9,36.4 0 0 1 464,146Z" fill="none" stroke="#f4f0e8" stroke-width="1.1" opacity="0.2"/><path d="M522,146 A31.9,36.4 0 0 1 580,146 A31.9,36.4 0 0 1 522,146Z" fill="none" stroke="#f4f0e8" stroke-width="1.1" opacity="0.2"/><path d="M580,146 A31.9,36.4 0 0 1 638,146 A31.9,36.4 0 0 1 580,146Z" fill="none" stroke="#f4f0e8" stroke-width="1.1" opacity="0.2"/><path d="M638,146 A31.9,36.4 0 0 1 696,146 A31.9,36.4 0 0 1 638,146Z" fill="none" stroke="#f4f0e8" stroke-width="1.1" opacity="0.2"/><path d="M696,146 A31.9,36.4 0 0 1 754,146 A31.9,36.4 0 0 1 696,146Z" fill="none" stroke="#f4f0e8" stroke-width="1.1" opacity="0.2"/><path d="M754,146 A31.9,36.4 0 0 1 812,146 A31.9,36.4 0 0 1 754,146Z" fill="none" stroke="#f4f0e8" stroke-width="1.1" opacity="0.2"/><path d="M812,146 A31.9,36.4 0 0 1 870,146 A31.9,36.4 0 0 1 812,146Z" fill="none" stroke="#f4f0e8" stroke-width="1.1" opacity="0.2"/><path d="M870,146 A31.9,36.4 0 0 1 928,146 A31.9,36.4 0 0 1 870,146Z" fill="none" stroke="#f4f0e8" stroke-width="1.1" opacity="0.2"/><path d="M928,146 A31.9,36.4 0 0 1 986,146 A31.9,36.4 0 0 1 928,146Z" fill="none" stroke="#f4f0e8" stroke-width="1.1" opacity="0.2"/><path d="M986,146 A31.9,36.4 0 0 1 1044,146 A31.9,36.4 0 0 1 986,146Z" fill="none" stroke="#f4f0e8" stroke-width="1.1" opacity="0.2"/><path d="M1044,146 A31.9,36.4 0 0 1 1102,146 A31.9,36.4 0 0 1 1044,146Z" fill="none" stroke="#f4f0e8" stroke-width="1.1" opacity="0.2"/><path d="M1102,146 A31.9,36.4 0 0 1 1160,146 A31.9,36.4 0 0 1 1102,146Z" fill="none" stroke="#f4f0e8" stroke-width="1.1" opacity="0.2"/><path d="M1160,146 A31.9,36.4 0 0 1 1218,146 A31.9,36.4 0 0 1 1160,146Z" fill="none" stroke="#f4f0e8" stroke-width="1.1" opacity="0.2"/><path d="M1218,146 A31.9,36.4 0 0 1 1276,146 A31.9,36.4 0 0 1 1218,146Z" fill="none" stroke="#f4f0e8" stroke-width="1.1" opacity="0.2"/><path d="M-29,179 A31.9,36.4 0 0 1 29,179 A31.9,36.4 0 0 1 -29,179Z" fill="none" stroke="#f4f0e8" stroke-width="1.1" opacity="0.2"/><path d="M29,179 A31.9,36.4 0 0 1 87,179 A31.9,36.4 0 0 1 29,179Z" fill="none" stroke="#f4f0e8" stroke-width="1.1" opacity="0.2"/><path d="M87,179 A31.9,36.4 0 0 1 145,179 A31.9,36.4 0 0 1 87,179Z" fill="none" stroke="#f4f0e8" stroke-width="1.1" opacity="0.2"/><path d="M145,179 A31.9,36.4 0 0 1 203,179 A31.9,36.4 0 0 1 145,179Z" fill="none" stroke="#f4f0e8" stroke-width="1.1" opacity="0.2"/><path d="M203,179 A31.9,36.4 0 0 1 261,179 A31.9,36.4 0 0 1 203,179Z" fill="none" stroke="#f4f0e8" stroke-width="1.1" opacity="0.2"/><path d="M261,179 A31.9,36.4 0 0 1 319,179 A31.9,36.4 0 0 1 261,179Z" fill="none" stroke="#f4f0e8" stroke-width="1.1" opacity="0.2"/><path d="M319,179 A31.9,36.4 0 0 1 377,179 A31.9,36.4 0 0 1 319,179Z" fill="none" stroke="#f4f0e8" stroke-width="1.1" opacity="0.2"/><path d="M377,179 A31.9,36.4 0 0 1 435,179 A31.9,36.4 0 0 1 377,179Z" fill="none" stroke="#f4f0e8" stroke-width="1.1" opacity="0.2"/><path d="M435,179 A31.9,36.4 0 0 1 493,179 A31.9,36.4 0 0 1 435,179Z" fill="none" stroke="#f4f0e8" stroke-width="1.1" opacity="0.2"/><path d="M493,179 A31.9,36.4 0 0 1 551,179 A31.9,36.4 0 0 1 493,179Z" fill="none" stroke="#f4f0e8" stroke-width="1.1" opacity="0.2"/><path d="M551,179 A31.9,36.4 0 0 1 609,179 A31.9,36.4 0 0 1 551,179Z" fill="none" stroke="#f4f0e8" stroke-width="1.1" opacity="0.2"/><path d="M609,179 A31.9,36.4 0 0 1 667,179 A31.9,36.4 0 0 1 609,179Z" fill="none" stroke="#f4f0e8" stroke-width="1.1" opacity="0.2"/><path d="M667,179 A31.9,36.4 0 0 1 725,179 A31.9,36.4 0 0 1 667,179Z" fill="none" stroke="#f4f0e8" stroke-width="1.1" opacity="0.2"/><path d="M725,179 A31.9,36.4 0 0 1 783,179 A31.9,36.4 0 0 1 725,179Z" fill="none" stroke="#f4f0e8" stroke-width="1.1" opacity="0.2"/><path d="M783,179 A31.9,36.4 0 0 1 841,179 A31.9,36.4 0 0 1 783,179Z" fill="none" stroke="#f4f0e8" stroke-width="1.1" opacity="0.2"/><path d="M841,179 A31.9,36.4 0 0 1 899,179 A31.9,36.4 0 0 1 841,179Z" fill="none" stroke="#f4f0e8" stroke-width="1.1" opacity="0.2"/><path d="M899,179 A31.9,36.4 0 0 1 957,179 A31.9,36.4 0 0 1 899,179Z" fill="none" stroke="#f4f0e8" stroke-width="1.1" opacity="0.2"/><path d="M957,179 A31.9,36.4 0 0 1 1015,179 A31.9,36.4 0 0 1 957,179Z" fill="none" stroke="#f4f0e8" stroke-width="1.1" opacity="0.2"/><path d="M1015,179 A31.9,36.4 0 0 1 1073,179 A31.9,36.4 0 0 1 1015,179Z" fill="none" stroke="#f4f0e8" stroke-width="1.1" opacity="0.2"/><path d="M1073,179 A31.9,36.4 0 0 1 1131,179 A31.9,36.4 0 0 1 1073,179Z" fill="none" stroke="#f4f0e8" stroke-width="1.1" opacity="0.2"/><path d="M1131,179 A31.9,36.4 0 0 1 1189,179 A31.9,36.4 0 0 1 1131,179Z" fill="none" stroke="#f4f0e8" stroke-width="1.1" opacity="0.2"/><path d="M1189,179 A31.9,36.4 0 0 1 1247,179 A31.9,36.4 0 0 1 1189,179Z" fill="none" stroke="#f4f0e8" stroke-width="1.1" opacity="0.2"/><path d="M1247,179 A31.9,36.4 0 0 1 1305,179 A31.9,36.4 0 0 1 1247,179Z" fill="none" stroke="#f4f0e8" stroke-width="1.1" opacity="0.2"/><path d="M-58,212 A31.9,36.4 0 0 1 0,212 A31.9,36.4 0 0 1 -58,212Z" fill="none" stroke="#f4f0e8" stroke-width="1.1" opacity="0.2"/><path d="M0,212 A31.9,36.4 0 0 1 58,212 A31.9,36.4 0 0 1 0,212Z" fill="none" stroke="#f4f0e8" stroke-width="1.1" opacity="0.2"/><path d="M58,212 A31.9,36.4 0 0 1 116,212 A31.9,36.4 0 0 1 58,212Z" fill="none" stroke="#f4f0e8" stroke-width="1.1" opacity="0.2"/><path d="M116,212 A31.9,36.4 0 0 1 174,212 A31.9,36.4 0 0 1 116,212Z" fill="none" stroke="#f4f0e8" stroke-width="1.1" opacity="0.2"/><path d="M174,212 A31.9,36.4 0 0 1 232,212 A31.9,36.4 0 0 1 174,212Z" fill="none" stroke="#f4f0e8" stroke-width="1.1" opacity="0.2"/><path d="M232,212 A31.9,36.4 0 0 1 290,212 A31.9,36.4 0 0 1 232,212Z" fill="none" stroke="#f4f0e8" stroke-width="1.1" opacity="0.2"/><path d="M290,212 A31.9,36.4 0 0 1 348,212 A31.9,36.4 0 0 1 290,212Z" fill="none" stroke="#f4f0e8" stroke-width="1.1" opacity="0.2"/><path d="M348,212 A31.9,36.4 0 0 1 406,212 A31.9,36.4 0 0 1 348,212Z" fill="none" stroke="#f4f0e8" stroke-width="1.1" opacity="0.2"/><path d="M406,212 A31.9,36.4 0 0 1 464,212 A31.9,36.4 0 0 1 406,212Z" fill="none" stroke="#f4f0e8" stroke-width="1.1" opacity="0.2"/><path d="M464,212 A31.9,36.4 0 0 1 522,212 A31.9,36.4 0 0 1 464,212Z" fill="none" stroke="#f4f0e8" stroke-width="1.1" opacity="0.2"/><path d="M522,212 A31.9,36.4 0 0 1 580,212 A31.9,36.4 0 0 1 522,212Z" fill="none" stroke="#f4f0e8" stroke-width="1.1" opacity="0.2"/><path d="M580,212 A31.9,36.4 0 0 1 638,212 A31.9,36.4 0 0 1 580,212Z" fill="none" stroke="#f4f0e8" stroke-width="1.1" opacity="0.2"/><path d="M638,212 A31.9,36.4 0 0 1 696,212 A31.9,36.4 0 0 1 638,212Z" fill="none" stroke="#f4f0e8" stroke-width="1.1" opacity="0.2"/><path d="M696,212 A31.9,36.4 0 0 1 754,212 A31.9,36.4 0 0 1 696,212Z" fill="none" stroke="#f4f0e8" stroke-width="1.1" opacity="0.2"/><path d="M754,212 A31.9,36.4 0 0 1 812,212 A31.9,36.4 0 0 1 754,212Z" fill="none" stroke="#f4f0e8" stroke-width="1.1" opacity="0.2"/><path d="M812,212 A31.9,36.4 0 0 1 870,212 A31.9,36.4 0 0 1 812,212Z" fill="none" stroke="#f4f0e8" stroke-width="1.1" opacity="0.2"/><path d="M870,212 A31.9,36.4 0 0 1 928,212 A31.9,36.4 0 0 1 870,212Z" fill="none" stroke="#f4f0e8" stroke-width="1.1" opacity="0.2"/><path d="M928,212 A31.9,36.4 0 0 1 986,212 A31.9,36.4 0 0 1 928,212Z" fill="none" stroke="#f4f0e8" stroke-width="1.1" opacity="0.2"/><path d="M986,212 A31.9,36.4 0 0 1 1044,212 A31.9,36.4 0 0 1 986,212Z" fill="none" stroke="#f4f0e8" stroke-width="1.1" opacity="0.2"/><path d="M1044,212 A31.9,36.4 0 0 1 1102,212 A31.9,36.4 0 0 1 1044,212Z" fill="none" stroke="#f4f0e8" stroke-width="1.1" opacity="0.2"/><path d="M1102,212 A31.9,36.4 0 0 1 1160,212 A31.9,36.4 0 0 1 1102,212Z" fill="none" stroke="#f4f0e8" stroke-width="1.1" opacity="0.2"/><path d="M1160,212 A31.9,36.4 0 0 1 1218,212 A31.9,36.4 0 0 1 1160,212Z" fill="none" stroke="#f4f0e8" stroke-width="1.1" opacity="0.2"/><path d="M1218,212 A31.9,36.4 0 0 1 1276,212 A31.9,36.4 0 0 1 1218,212Z" fill="none" stroke="#f4f0e8" stroke-width="1.1" opacity="0.2"/><path d="M-29,245 A31.9,36.4 0 0 1 29,245 A31.9,36.4 0 0 1 -29,245Z" fill="none" stroke="#f4f0e8" stroke-width="1.1" opacity="0.2"/><path d="M29,245 A31.9,36.4 0 0 1 87,245 A31.9,36.4 0 0 1 29,245Z" fill="none" stroke="#f4f0e8" stroke-width="1.1" opacity="0.2"/><path d="M87,245 A31.9,36.4 0 0 1 145,245 A31.9,36.4 0 0 1 87,245Z" fill="none" stroke="#f4f0e8" stroke-width="1.1" opacity="0.2"/><path d="M145,245 A31.9,36.4 0 0 1 203,245 A31.9,36.4 0 0 1 145,245Z" fill="none" stroke="#f4f0e8" stroke-width="1.1" opacity="0.2"/><path d="M203,245 A31.9,36.4 0 0 1 261,245 A31.9,36.4 0 0 1 203,245Z" fill="none" stroke="#f4f0e8" stroke-width="1.1" opacity="0.2"/><path d="M261,245 A31.9,36.4 0 0 1 319,245 A31.9,36.4 0 0 1 261,245Z" fill="none" stroke="#f4f0e8" stroke-width="1.1" opacity="0.2"/><path d="M319,245 A31.9,36.4 0 0 1 377,245 A31.9,36.4 0 0 1 319,245Z" fill="none" stroke="#f4f0e8" stroke-width="1.1" opacity="0.2"/><path d="M377,245 A31.9,36.4 0 0 1 435,245 A31.9,36.4 0 0 1 377,245Z" fill="none" stroke="#f4f0e8" stroke-width="1.1" opacity="0.2"/><path d="M435,245 A31.9,36.4 0 0 1 493,245 A31.9,36.4 0 0 1 435,245Z" fill="none" stroke="#f4f0e8" stroke-width="1.1" opacity="0.2"/><path d="M493,245 A31.9,36.4 0 0 1 551,245 A31.9,36.4 0 0 1 493,245Z" fill="none" stroke="#f4f0e8" stroke-width="1.1" opacity="0.2"/><path d="M551,245 A31.9,36.4 0 0 1 609,245 A31.9,36.4 0 0 1 551,245Z" fill="none" stroke="#f4f0e8" stroke-width="1.1" opacity="0.2"/><path d="M609,245 A31.9,36.4 0 0 1 667,245 A31.9,36.4 0 0 1 609,245Z" fill="none" stroke="#f4f0e8" stroke-width="1.1" opacity="0.2"/><path d="M667,245 A31.9,36.4 0 0 1 725,245 A31.9,36.4 0 0 1 667,245Z" fill="none" stroke="#f4f0e8" stroke-width="1.1" opacity="0.2"/><path d="M725,245 A31.9,36.4 0 0 1 783,245 A31.9,36.4 0 0 1 725,245Z" fill="none" stroke="#f4f0e8" stroke-width="1.1" opacity="0.2"/><path d="M783,245 A31.9,36.4 0 0 1 841,245 A31.9,36.4 0 0 1 783,245Z" fill="none" stroke="#f4f0e8" stroke-width="1.1" opacity="0.2"/><path d="M841,245 A31.9,36.4 0 0 1 899,245 A31.9,36.4 0 0 1 841,245Z" fill="none" stroke="#f4f0e8" stroke-width="1.1" opacity="0.2"/><path d="M899,245 A31.9,36.4 0 0 1 957,245 A31.9,36.4 0 0 1 899,245Z" fill="none" stroke="#f4f0e8" stroke-width="1.1" opacity="0.2"/><path d="M957,245 A31.9,36.4 0 0 1 1015,245 A31.9,36.4 0 0 1 957,245Z" fill="none" stroke="#f4f0e8" stroke-width="1.1" opacity="0.2"/><path d="M1015,245 A31.9,36.4 0 0 1 1073,245 A31.9,36.4 0 0 1 1015,245Z" fill="none" stroke="#f4f0e8" stroke-width="1.1" opacity="0.2"/><path d="M1073,245 A31.9,36.4 0 0 1 1131,245 A31.9,36.4 0 0 1 1073,245Z" fill="none" stroke="#f4f0e8" stroke-width="1.1" opacity="0.2"/><path d="M1131,245 A31.9,36.4 0 0 1 1189,245 A31.9,36.4 0 0 1 1131,245Z" fill="none" stroke="#f4f0e8" stroke-width="1.1" opacity="0.2"/><path d="M1189,245 A31.9,36.4 0 0 1 1247,245 A31.9,36.4 0 0 1 1189,245Z" fill="none" stroke="#f4f0e8" stroke-width="1.1" opacity="0.2"/><path d="M1247,245 A31.9,36.4 0 0 1 1305,245 A31.9,36.4 0 0 1 1247,245Z" fill="none" stroke="#f4f0e8" stroke-width="1.1" opacity="0.2"/><path d="M-58,278 A31.9,36.4 0 0 1 0,278 A31.9,36.4 0 0 1 -58,278Z" fill="none" stroke="#f4f0e8" stroke-width="1.1" opacity="0.2"/><path d="M0,278 A31.9,36.4 0 0 1 58,278 A31.9,36.4 0 0 1 0,278Z" fill="none" stroke="#f4f0e8" stroke-width="1.1" opacity="0.2"/><path d="M58,278 A31.9,36.4 0 0 1 116,278 A31.9,36.4 0 0 1 58,278Z" fill="none" stroke="#f4f0e8" stroke-width="1.1" opacity="0.2"/><path d="M116,278 A31.9,36.4 0 0 1 174,278 A31.9,36.4 0 0 1 116,278Z" fill="none" stroke="#f4f0e8" stroke-width="1.1" opacity="0.2"/><path d="M174,278 A31.9,36.4 0 0 1 232,278 A31.9,36.4 0 0 1 174,278Z" fill="none" stroke="#f4f0e8" stroke-width="1.1" opacity="0.2"/><path d="M232,278 A31.9,36.4 0 0 1 290,278 A31.9,36.4 0 0 1 232,278Z" fill="none" stroke="#f4f0e8" stroke-width="1.1" opacity="0.2"/><path d="M290,278 A31.9,36.4 0 0 1 348,278 A31.9,36.4 0 0 1 290,278Z" fill="none" stroke="#f4f0e8" stroke-width="1.1" opacity="0.2"/><path d="M348,278 A31.9,36.4 0 0 1 406,278 A31.9,36.4 0 0 1 348,278Z" fill="none" stroke="#f4f0e8" stroke-width="1.1" opacity="0.2"/><path d="M406,278 A31.9,36.4 0 0 1 464,278 A31.9,36.4 0 0 1 406,278Z" fill="none" stroke="#f4f0e8" stroke-width="1.1" opacity="0.2"/><path d="M464,278 A31.9,36.4 0 0 1 522,278 A31.9,36.4 0 0 1 464,278Z" fill="none" stroke="#f4f0e8" stroke-width="1.1" opacity="0.2"/><path d="M522,278 A31.9,36.4 0 0 1 580,278 A31.9,36.4 0 0 1 522,278Z" fill="none" stroke="#f4f0e8" stroke-width="1.1" opacity="0.2"/><path d="M580,278 A31.9,36.4 0 0 1 638,278 A31.9,36.4 0 0 1 580,278Z" fill="none" stroke="#f4f0e8" stroke-width="1.1" opacity="0.2"/><path d="M638,278 A31.9,36.4 0 0 1 696,278 A31.9,36.4 0 0 1 638,278Z" fill="none" stroke="#f4f0e8" stroke-width="1.1" opacity="0.2"/><path d="M696,278 A31.9,36.4 0 0 1 754,278 A31.9,36.4 0 0 1 696,278Z" fill="none" stroke="#f4f0e8" stroke-width="1.1" opacity="0.2"/><path d="M754,278 A31.9,36.4 0 0 1 812,278 A31.9,36.4 0 0 1 754,278Z" fill="none" stroke="#f4f0e8" stroke-width="1.1" opacity="0.2"/><path d="M812,278 A31.9,36.4 0 0 1 870,278 A31.9,36.4 0 0 1 812,278Z" fill="none" stroke="#f4f0e8" stroke-width="1.1" opacity="0.2"/><path d="M870,278 A31.9,36.4 0 0 1 928,278 A31.9,36.4 0 0 1 870,278Z" fill="none" stroke="#f4f0e8" stroke-width="1.1" opacity="0.2"/><path d="M928,278 A31.9,36.4 0 0 1 986,278 A31.9,36.4 0 0 1 928,278Z" fill="none" stroke="#f4f0e8" stroke-width="1.1" opacity="0.2"/><path d="M986,278 A31.9,36.4 0 0 1 1044,278 A31.9,36.4 0 0 1 986,278Z" fill="none" stroke="#f4f0e8" stroke-width="1.1" opacity="0.2"/><path d="M1044,278 A31.9,36.4 0 0 1 1102,278 A31.9,36.4 0 0 1 1044,278Z" fill="none" stroke="#f4f0e8" stroke-width="1.1" opacity="0.2"/><path d="M1102,278 A31.9,36.4 0 0 1 1160,278 A31.9,36.4 0 0 1 1102,278Z" fill="none" stroke="#f4f0e8" stroke-width="1.1" opacity="0.2"/><path d="M1160,278 A31.9,36.4 0 0 1 1218,278 A31.9,36.4 0 0 1 1160,278Z" fill="none" stroke="#f4f0e8" stroke-width="1.1" opacity="0.2"/><path d="M1218,278 A31.9,36.4 0 0 1 1276,278 A31.9,36.4 0 0 1 1218,278Z" fill="none" stroke="#f4f0e8" stroke-width="1.1" opacity="0.2"/><path d="M-29,311 A31.9,36.4 0 0 1 29,311 A31.9,36.4 0 0 1 -29,311Z" fill="none" stroke="#f4f0e8" stroke-width="1.1" opacity="0.2"/><path d="M29,311 A31.9,36.4 0 0 1 87,311 A31.9,36.4 0 0 1 29,311Z" fill="none" stroke="#f4f0e8" stroke-width="1.1" opacity="0.2"/><path d="M87,311 A31.9,36.4 0 0 1 145,311 A31.9,36.4 0 0 1 87,311Z" fill="none" stroke="#f4f0e8" stroke-width="1.1" opacity="0.2"/><path d="M145,311 A31.9,36.4 0 0 1 203,311 A31.9,36.4 0 0 1 145,311Z" fill="none" stroke="#f4f0e8" stroke-width="1.1" opacity="0.2"/><path d="M203,311 A31.9,36.4 0 0 1 261,311 A31.9,36.4 0 0 1 203,311Z" fill="none" stroke="#f4f0e8" stroke-width="1.1" opacity="0.2"/><path d="M261,311 A31.9,36.4 0 0 1 319,311 A31.9,36.4 0 0 1 261,311Z" fill="none" stroke="#f4f0e8" stroke-width="1.1" opacity="0.2"/><path d="M319,311 A31.9,36.4 0 0 1 377,311 A31.9,36.4 0 0 1 319,311Z" fill="none" stroke="#f4f0e8" stroke-width="1.1" opacity="0.2"/><path d="M377,311 A31.9,36.4 0 0 1 435,311 A31.9,36.4 0 0 1 377,311Z" fill="none" stroke="#f4f0e8" stroke-width="1.1" opacity="0.2"/><path d="M435,311 A31.9,36.4 0 0 1 493,311 A31.9,36.4 0 0 1 435,311Z" fill="none" stroke="#f4f0e8" stroke-width="1.1" opacity="0.2"/><path d="M493,311 A31.9,36.4 0 0 1 551,311 A31.9,36.4 0 0 1 493,311Z" fill="none" stroke="#f4f0e8" stroke-width="1.1" opacity="0.2"/><path d="M551,311 A31.9,36.4 0 0 1 609,311 A31.9,36.4 0 0 1 551,311Z" fill="none" stroke="#f4f0e8" stroke-width="1.1" opacity="0.2"/><path d="M609,311 A31.9,36.4 0 0 1 667,311 A31.9,36.4 0 0 1 609,311Z" fill="none" stroke="#f4f0e8" stroke-width="1.1" opacity="0.2"/><path d="M667,311 A31.9,36.4 0 0 1 725,311 A31.9,36.4 0 0 1 667,311Z" fill="none" stroke="#f4f0e8" stroke-width="1.1" opacity="0.2"/><path d="M725,311 A31.9,36.4 0 0 1 783,311 A31.9,36.4 0 0 1 725,311Z" fill="none" stroke="#f4f0e8" stroke-width="1.1" opacity="0.2"/><path d="M783,311 A31.9,36.4 0 0 1 841,311 A31.9,36.4 0 0 1 783,311Z" fill="none" stroke="#f4f0e8" stroke-width="1.1" opacity="0.2"/><path d="M841,311 A31.9,36.4 0 0 1 899,311 A31.9,36.4 0 0 1 841,311Z" fill="none" stroke="#f4f0e8" stroke-width="1.1" opacity="0.2"/><path d="M899,311 A31.9,36.4 0 0 1 957,311 A31.9,36.4 0 0 1 899,311Z" fill="none" stroke="#f4f0e8" stroke-width="1.1" opacity="0.2"/><path d="M957,311 A31.9,36.4 0 0 1 1015,311 A31.9,36.4 0 0 1 957,311Z" fill="none" stroke="#f4f0e8" stroke-width="1.1" opacity="0.2"/><path d="M1015,311 A31.9,36.4 0 0 1 1073,311 A31.9,36.4 0 0 1 1015,311Z" fill="none" stroke="#f4f0e8" stroke-width="1.1" opacity="0.2"/><path d="M1073,311 A31.9,36.4 0 0 1 1131,311 A31.9,36.4 0 0 1 1073,311Z" fill="none" stroke="#f4f0e8" stroke-width="1.1" opacity="0.2"/><path d="M1131,311 A31.9,36.4 0 0 1 1189,311 A31.9,36.4 0 0 1 1131,311Z" fill="none" stroke="#f4f0e8" stroke-width="1.1" opacity="0.2"/><path d="M1189,311 A31.9,36.4 0 0 1 1247,311 A31.9,36.4 0 0 1 1189,311Z" fill="none" stroke="#f4f0e8" stroke-width="1.1" opacity="0.2"/><path d="M1247,311 A31.9,36.4 0 0 1 1305,311 A31.9,36.4 0 0 1 1247,311Z" fill="none" stroke="#f4f0e8" stroke-width="1.1" opacity="0.2"/><path d="M-58,344 A31.9,36.4 0 0 1 0,344 A31.9,36.4 0 0 1 -58,344Z" fill="none" stroke="#f4f0e8" stroke-width="1.1" opacity="0.2"/><path d="M0,344 A31.9,36.4 0 0 1 58,344 A31.9,36.4 0 0 1 0,344Z" fill="none" stroke="#f4f0e8" stroke-width="1.1" opacity="0.2"/><path d="M58,344 A31.9,36.4 0 0 1 116,344 A31.9,36.4 0 0 1 58,344Z" fill="none" stroke="#f4f0e8" stroke-width="1.1" opacity="0.2"/><path d="M116,344 A31.9,36.4 0 0 1 174,344 A31.9,36.4 0 0 1 116,344Z" fill="none" stroke="#f4f0e8" stroke-width="1.1" opacity="0.2"/><path d="M174,344 A31.9,36.4 0 0 1 232,344 A31.9,36.4 0 0 1 174,344Z" fill="none" stroke="#f4f0e8" stroke-width="1.1" opacity="0.2"/><path d="M232,344 A31.9,36.4 0 0 1 290,344 A31.9,36.4 0 0 1 232,344Z" fill="none" stroke="#f4f0e8" stroke-width="1.1" opacity="0.2"/><path d="M290,344 A31.9,36.4 0 0 1 348,344 A31.9,36.4 0 0 1 290,344Z" fill="none" stroke="#f4f0e8" stroke-width="1.1" opacity="0.2"/><path d="M348,344 A31.9,36.4 0 0 1 406,344 A31.9,36.4 0 0 1 348,344Z" fill="none" stroke="#f4f0e8" stroke-width="1.1" opacity="0.2"/><path d="M406,344 A31.9,36.4 0 0 1 464,344 A31.9,36.4 0 0 1 406,344Z" fill="none" stroke="#f4f0e8" stroke-width="1.1" opacity="0.2"/><path d="M464,344 A31.9,36.4 0 0 1 522,344 A31.9,36.4 0 0 1 464,344Z" fill="none" stroke="#f4f0e8" stroke-width="1.1" opacity="0.2"/><path d="M522,344 A31.9,36.4 0 0 1 580,344 A31.9,36.4 0 0 1 522,344Z" fill="none" stroke="#f4f0e8" stroke-width="1.1" opacity="0.2"/><path d="M580,344 A31.9,36.4 0 0 1 638,344 A31.9,36.4 0 0 1 580,344Z" fill="none" stroke="#f4f0e8" stroke-width="1.1" opacity="0.2"/><path d="M638,344 A31.9,36.4 0 0 1 696,344 A31.9,36.4 0 0 1 638,344Z" fill="none" stroke="#f4f0e8" stroke-width="1.1" opacity="0.2"/><path d="M696,344 A31.9,36.4 0 0 1 754,344 A31.9,36.4 0 0 1 696,344Z" fill="none" stroke="#f4f0e8" stroke-width="1.1" opacity="0.2"/><path d="M754,344 A31.9,36.4 0 0 1 812,344 A31.9,36.4 0 0 1 754,344Z" fill="none" stroke="#f4f0e8" stroke-width="1.1" opacity="0.2"/><path d="M812,344 A31.9,36.4 0 0 1 870,344 A31.9,36.4 0 0 1 812,344Z" fill="none" stroke="#f4f0e8" stroke-width="1.1" opacity="0.2"/><path d="M870,344 A31.9,36.4 0 0 1 928,344 A31.9,36.4 0 0 1 870,344Z" fill="none" stroke="#f4f0e8" stroke-width="1.1" opacity="0.2"/><path d="M928,344 A31.9,36.4 0 0 1 986,344 A31.9,36.4 0 0 1 928,344Z" fill="none" stroke="#f4f0e8" stroke-width="1.1" opacity="0.2"/><path d="M986,344 A31.9,36.4 0 0 1 1044,344 A31.9,36.4 0 0 1 986,344Z" fill="none" stroke="#f4f0e8" stroke-width="1.1" opacity="0.2"/><path d="M1044,344 A31.9,36.4 0 0 1 1102,344 A31.9,36.4 0 0 1 1044,344Z" fill="none" stroke="#f4f0e8" stroke-width="1.1" opacity="0.2"/><path d="M1102,344 A31.9,36.4 0 0 1 1160,344 A31.9,36.4 0 0 1 1102,344Z" fill="none" stroke="#f4f0e8" stroke-width="1.1" opacity="0.2"/><path d="M1160,344 A31.9,36.4 0 0 1 1218,344 A31.9,36.4 0 0 1 1160,344Z" fill="none" stroke="#f4f0e8" stroke-width="1.1" opacity="0.2"/><path d="M1218,344 A31.9,36.4 0 0 1 1276,344 A31.9,36.4 0 0 1 1218,344Z" fill="none" stroke="#f4f0e8" stroke-width="1.1" opacity="0.2"/><path d="M-29,377 A31.9,36.4 0 0 1 29,377 A31.9,36.4 0 0 1 -29,377Z" fill="none" stroke="#f4f0e8" stroke-width="1.1" opacity="0.2"/><path d="M29,377 A31.9,36.4 0 0 1 87,377 A31.9,36.4 0 0 1 29,377Z" fill="none" stroke="#f4f0e8" stroke-width="1.1" opacity="0.2"/><path d="M87,377 A31.9,36.4 0 0 1 145,377 A31.9,36.4 0 0 1 87,377Z" fill="none" stroke="#f4f0e8" stroke-width="1.1" opacity="0.2"/><path d="M145,377 A31.9,36.4 0 0 1 203,377 A31.9,36.4 0 0 1 145,377Z" fill="none" stroke="#f4f0e8" stroke-width="1.1" opacity="0.2"/><path d="M203,377 A31.9,36.4 0 0 1 261,377 A31.9,36.4 0 0 1 203,377Z" fill="none" stroke="#f4f0e8" stroke-width="1.1" opacity="0.2"/><path d="M261,377 A31.9,36.4 0 0 1 319,377 A31.9,36.4 0 0 1 261,377Z" fill="none" stroke="#f4f0e8" stroke-width="1.1" opacity="0.2"/><path d="M319,377 A31.9,36.4 0 0 1 377,377 A31.9,36.4 0 0 1 319,377Z" fill="none" stroke="#f4f0e8" stroke-width="1.1" opacity="0.2"/><path d="M377,377 A31.9,36.4 0 0 1 435,377 A31.9,36.4 0 0 1 377,377Z" fill="none" stroke="#f4f0e8" stroke-width="1.1" opacity="0.2"/><path d="M435,377 A31.9,36.4 0 0 1 493,377 A31.9,36.4 0 0 1 435,377Z" fill="none" stroke="#f4f0e8" stroke-width="1.1" opacity="0.2"/><path d="M493,377 A31.9,36.4 0 0 1 551,377 A31.9,36.4 0 0 1 493,377Z" fill="none" stroke="#f4f0e8" stroke-width="1.1" opacity="0.2"/><path d="M551,377 A31.9,36.4 0 0 1 609,377 A31.9,36.4 0 0 1 551,377Z" fill="none" stroke="#f4f0e8" stroke-width="1.1" opacity="0.2"/><path d="M609,377 A31.9,36.4 0 0 1 667,377 A31.9,36.4 0 0 1 609,377Z" fill="none" stroke="#f4f0e8" stroke-width="1.1" opacity="0.2"/><path d="M667,377 A31.9,36.4 0 0 1 725,377 A31.9,36.4 0 0 1 667,377Z" fill="none" stroke="#f4f0e8" stroke-width="1.1" opacity="0.2"/><path d="M725,377 A31.9,36.4 0 0 1 783,377 A31.9,36.4 0 0 1 725,377Z" fill="none" stroke="#f4f0e8" stroke-width="1.1" opacity="0.2"/><path d="M783,377 A31.9,36.4 0 0 1 841,377 A31.9,36.4 0 0 1 783,377Z" fill="none" stroke="#f4f0e8" stroke-width="1.1" opacity="0.2"/><path d="M841,377 A31.9,36.4 0 0 1 899,377 A31.9,36.4 0 0 1 841,377Z" fill="none" stroke="#f4f0e8" stroke-width="1.1" opacity="0.2"/><path d="M899,377 A31.9,36.4 0 0 1 957,377 A31.9,36.4 0 0 1 899,377Z" fill="none" stroke="#f4f0e8" stroke-width="1.1" opacity="0.2"/><path d="M957,377 A31.9,36.4 0 0 1 1015,377 A31.9,36.4 0 0 1 957,377Z" fill="none" stroke="#f4f0e8" stroke-width="1.1" opacity="0.2"/><path d="M1015,377 A31.9,36.4 0 0 1 1073,377 A31.9,36.4 0 0 1 1015,377Z" fill="none" stroke="#f4f0e8" stroke-width="1.1" opacity="0.2"/><path d="M1073,377 A31.9,36.4 0 0 1 1131,377 A31.9,36.4 0 0 1 1073,377Z" fill="none" stroke="#f4f0e8" stroke-width="1.1" opacity="0.2"/><path d="M1131,377 A31.9,36.4 0 0 1 1189,377 A31.9,36.4 0 0 1 1131,377Z" fill="none" stroke="#f4f0e8" stroke-width="1.1" opacity="0.2"/><path d="M1189,377 A31.9,36.4 0 0 1 1247,377 A31.9,36.4 0 0 1 1189,377Z" fill="none" stroke="#f4f0e8" stroke-width="1.1" opacity="0.2"/><path d="M1247,377 A31.9,36.4 0 0 1 1305,377 A31.9,36.4 0 0 1 1247,377Z" fill="none" stroke="#f4f0e8" stroke-width="1.1" opacity="0.2"/><path d="M-58,410 A31.9,36.4 0 0 1 0,410 A31.9,36.4 0 0 1 -58,410Z" fill="none" stroke="#f4f0e8" stroke-width="1.1" opacity="0.2"/><path d="M0,410 A31.9,36.4 0 0 1 58,410 A31.9,36.4 0 0 1 0,410Z" fill="none" stroke="#f4f0e8" stroke-width="1.1" opacity="0.2"/><path d="M58,410 A31.9,36.4 0 0 1 116,410 A31.9,36.4 0 0 1 58,410Z" fill="none" stroke="#f4f0e8" stroke-width="1.1" opacity="0.2"/><path d="M116,410 A31.9,36.4 0 0 1 174,410 A31.9,36.4 0 0 1 116,410Z" fill="none" stroke="#f4f0e8" stroke-width="1.1" opacity="0.2"/><path d="M174,410 A31.9,36.4 0 0 1 232,410 A31.9,36.4 0 0 1 174,410Z" fill="none" stroke="#f4f0e8" stroke-width="1.1" opacity="0.2"/><path d="M232,410 A31.9,36.4 0 0 1 290,410 A31.9,36.4 0 0 1 232,410Z" fill="none" stroke="#f4f0e8" stroke-width="1.1" opacity="0.2"/><path d="M290,410 A31.9,36.4 0 0 1 348,410 A31.9,36.4 0 0 1 290,410Z" fill="none" stroke="#f4f0e8" stroke-width="1.1" opacity="0.2"/><path d="M348,410 A31.9,36.4 0 0 1 406,410 A31.9,36.4 0 0 1 348,410Z" fill="none" stroke="#f4f0e8" stroke-width="1.1" opacity="0.2"/><path d="M406,410 A31.9,36.4 0 0 1 464,410 A31.9,36.4 0 0 1 406,410Z" fill="none" stroke="#f4f0e8" stroke-width="1.1" opacity="0.2"/><path d="M464,410 A31.9,36.4 0 0 1 522,410 A31.9,36.4 0 0 1 464,410Z" fill="none" stroke="#f4f0e8" stroke-width="1.1" opacity="0.2"/><path d="M522,410 A31.9,36.4 0 0 1 580,410 A31.9,36.4 0 0 1 522,410Z" fill="none" stroke="#f4f0e8" stroke-width="1.1" opacity="0.2"/><path d="M580,410 A31.9,36.4 0 0 1 638,410 A31.9,36.4 0 0 1 580,410Z" fill="none" stroke="#f4f0e8" stroke-width="1.1" opacity="0.2"/><path d="M638,410 A31.9,36.4 0 0 1 696,410 A31.9,36.4 0 0 1 638,410Z" fill="none" stroke="#f4f0e8" stroke-width="1.1" opacity="0.2"/><path d="M696,410 A31.9,36.4 0 0 1 754,410 A31.9,36.4 0 0 1 696,410Z" fill="none" stroke="#f4f0e8" stroke-width="1.1" opacity="0.2"/><path d="M754,410 A31.9,36.4 0 0 1 812,410 A31.9,36.4 0 0 1 754,410Z" fill="none" stroke="#f4f0e8" stroke-width="1.1" opacity="0.2"/><path d="M812,410 A31.9,36.4 0 0 1 870,410 A31.9,36.4 0 0 1 812,410Z" fill="none" stroke="#f4f0e8" stroke-width="1.1" opacity="0.2"/><path d="M870,410 A31.9,36.4 0 0 1 928,410 A31.9,36.4 0 0 1 870,410Z" fill="none" stroke="#f4f0e8" stroke-width="1.1" opacity="0.2"/><path d="M928,410 A31.9,36.4 0 0 1 986,410 A31.9,36.4 0 0 1 928,410Z" fill="none" stroke="#f4f0e8" stroke-width="1.1" opacity="0.2"/><path d="M986,410 A31.9,36.4 0 0 1 1044,410 A31.9,36.4 0 0 1 986,410Z" fill="none" stroke="#f4f0e8" stroke-width="1.1" opacity="0.2"/><path d="M1044,410 A31.9,36.4 0 0 1 1102,410 A31.9,36.4 0 0 1 1044,410Z" fill="none" stroke="#f4f0e8" stroke-width="1.1" opacity="0.2"/><path d="M1102,410 A31.9,36.4 0 0 1 1160,410 A31.9,36.4 0 0 1 1102,410Z" fill="none" stroke="#f4f0e8" stroke-width="1.1" opacity="0.2"/><path d="M1160,410 A31.9,36.4 0 0 1 1218,410 A31.9,36.4 0 0 1 1160,410Z" fill="none" stroke="#f4f0e8" stroke-width="1.1" opacity="0.2"/><path d="M1218,410 A31.9,36.4 0 0 1 1276,410 A31.9,36.4 0 0 1 1218,410Z" fill="none" stroke="#f4f0e8" stroke-width="1.1" opacity="0.2"/><path d="M-29,443 A31.9,36.4 0 0 1 29,443 A31.9,36.4 0 0 1 -29,443Z" fill="none" stroke="#f4f0e8" stroke-width="1.1" opacity="0.2"/><path d="M29,443 A31.9,36.4 0 0 1 87,443 A31.9,36.4 0 0 1 29,443Z" fill="none" stroke="#f4f0e8" stroke-width="1.1" opacity="0.2"/><path d="M87,443 A31.9,36.4 0 0 1 145,443 A31.9,36.4 0 0 1 87,443Z" fill="none" stroke="#f4f0e8" stroke-width="1.1" opacity="0.2"/><path d="M145,443 A31.9,36.4 0 0 1 203,443 A31.9,36.4 0 0 1 145,443Z" fill="none" stroke="#f4f0e8" stroke-width="1.1" opacity="0.2"/><path d="M203,443 A31.9,36.4 0 0 1 261,443 A31.9,36.4 0 0 1 203,443Z" fill="none" stroke="#f4f0e8" stroke-width="1.1" opacity="0.2"/><path d="M261,443 A31.9,36.4 0 0 1 319,443 A31.9,36.4 0 0 1 261,443Z" fill="none" stroke="#f4f0e8" stroke-width="1.1" opacity="0.2"/><path d="M319,443 A31.9,36.4 0 0 1 377,443 A31.9,36.4 0 0 1 319,443Z" fill="none" stroke="#f4f0e8" stroke-width="1.1" opacity="0.2"/><path d="M377,443 A31.9,36.4 0 0 1 435,443 A31.9,36.4 0 0 1 377,443Z" fill="none" stroke="#f4f0e8" stroke-width="1.1" opacity="0.2"/><path d="M435,443 A31.9,36.4 0 0 1 493,443 A31.9,36.4 0 0 1 435,443Z" fill="none" stroke="#f4f0e8" stroke-width="1.1" opacity="0.2"/><path d="M493,443 A31.9,36.4 0 0 1 551,443 A31.9,36.4 0 0 1 493,443Z" fill="none" stroke="#f4f0e8" stroke-width="1.1" opacity="0.2"/><path d="M551,443 A31.9,36.4 0 0 1 609,443 A31.9,36.4 0 0 1 551,443Z" fill="none" stroke="#f4f0e8" stroke-width="1.1" opacity="0.2"/><path d="M609,443 A31.9,36.4 0 0 1 667,443 A31.9,36.4 0 0 1 609,443Z" fill="none" stroke="#f4f0e8" stroke-width="1.1" opacity="0.2"/><path d="M667,443 A31.9,36.4 0 0 1 725,443 A31.9,36.4 0 0 1 667,443Z" fill="none" stroke="#f4f0e8" stroke-width="1.1" opacity="0.2"/><path d="M725,443 A31.9,36.4 0 0 1 783,443 A31.9,36.4 0 0 1 725,443Z" fill="none" stroke="#f4f0e8" stroke-width="1.1" opacity="0.2"/><path d="M783,443 A31.9,36.4 0 0 1 841,443 A31.9,36.4 0 0 1 783,443Z" fill="none" stroke="#f4f0e8" stroke-width="1.1" opacity="0.2"/><path d="M841,443 A31.9,36.4 0 0 1 899,443 A31.9,36.4 0 0 1 841,443Z" fill="none" stroke="#f4f0e8" stroke-width="1.1" opacity="0.2"/><path d="M899,443 A31.9,36.4 0 0 1 957,443 A31.9,36.4 0 0 1 899,443Z" fill="none" stroke="#f4f0e8" stroke-width="1.1" opacity="0.2"/><path d="M957,443 A31.9,36.4 0 0 1 1015,443 A31.9,36.4 0 0 1 957,443Z" fill="none" stroke="#f4f0e8" stroke-width="1.1" opacity="0.2"/><path d="M1015,443 A31.9,36.4 0 0 1 1073,443 A31.9,36.4 0 0 1 1015,443Z" fill="none" stroke="#f4f0e8" stroke-width="1.1" opacity="0.2"/><path d="M1073,443 A31.9,36.4 0 0 1 1131,443 A31.9,36.4 0 0 1 1073,443Z" fill="none" stroke="#f4f0e8" stroke-width="1.1" opacity="0.2"/><path d="M1131,443 A31.9,36.4 0 0 1 1189,443 A31.9,36.4 0 0 1 1131,443Z" fill="none" stroke="#f4f0e8" stroke-width="1.1" opacity="0.2"/><path d="M1189,443 A31.9,36.4 0 0 1 1247,443 A31.9,36.4 0 0 1 1189,443Z" fill="none" stroke="#f4f0e8" stroke-width="1.1" opacity="0.2"/><path d="M1247,443 A31.9,36.4 0 0 1 1305,443 A31.9,36.4 0 0 1 1247,443Z" fill="none" stroke="#f4f0e8" stroke-width="1.1" opacity="0.2"/><path d="M-58,476 A31.9,36.4 0 0 1 0,476 A31.9,36.4 0 0 1 -58,476Z" fill="none" stroke="#f4f0e8" stroke-width="1.1" opacity="0.2"/><path d="M0,476 A31.9,36.4 0 0 1 58,476 A31.9,36.4 0 0 1 0,476Z" fill="none" stroke="#f4f0e8" stroke-width="1.1" opacity="0.2"/><path d="M58,476 A31.9,36.4 0 0 1 116,476 A31.9,36.4 0 0 1 58,476Z" fill="none" stroke="#f4f0e8" stroke-width="1.1" opacity="0.2"/><path d="M116,476 A31.9,36.4 0 0 1 174,476 A31.9,36.4 0 0 1 116,476Z" fill="none" stroke="#f4f0e8" stroke-width="1.1" opacity="0.2"/><path d="M174,476 A31.9,36.4 0 0 1 232,476 A31.9,36.4 0 0 1 174,476Z" fill="none" stroke="#f4f0e8" stroke-width="1.1" opacity="0.2"/><path d="M232,476 A31.9,36.4 0 0 1 290,476 A31.9,36.4 0 0 1 232,476Z" fill="none" stroke="#f4f0e8" stroke-width="1.1" opacity="0.2"/><path d="M290,476 A31.9,36.4 0 0 1 348,476 A31.9,36.4 0 0 1 290,476Z" fill="none" stroke="#f4f0e8" stroke-width="1.1" opacity="0.2"/><path d="M348,476 A31.9,36.4 0 0 1 406,476 A31.9,36.4 0 0 1 348,476Z" fill="none" stroke="#f4f0e8" stroke-width="1.1" opacity="0.2"/><path d="M406,476 A31.9,36.4 0 0 1 464,476 A31.9,36.4 0 0 1 406,476Z" fill="none" stroke="#f4f0e8" stroke-width="1.1" opacity="0.2"/><path d="M464,476 A31.9,36.4 0 0 1 522,476 A31.9,36.4 0 0 1 464,476Z" fill="none" stroke="#f4f0e8" stroke-width="1.1" opacity="0.2"/><path d="M522,476 A31.9,36.4 0 0 1 580,476 A31.9,36.4 0 0 1 522,476Z" fill="none" stroke="#f4f0e8" stroke-width="1.1" opacity="0.2"/><path d="M580,476 A31.9,36.4 0 0 1 638,476 A31.9,36.4 0 0 1 580,476Z" fill="none" stroke="#f4f0e8" stroke-width="1.1" opacity="0.2"/><path d="M638,476 A31.9,36.4 0 0 1 696,476 A31.9,36.4 0 0 1 638,476Z" fill="none" stroke="#f4f0e8" stroke-width="1.1" opacity="0.2"/><path d="M696,476 A31.9,36.4 0 0 1 754,476 A31.9,36.4 0 0 1 696,476Z" fill="none" stroke="#f4f0e8" stroke-width="1.1" opacity="0.2"/><path d="M754,476 A31.9,36.4 0 0 1 812,476 A31.9,36.4 0 0 1 754,476Z" fill="none" stroke="#f4f0e8" stroke-width="1.1" opacity="0.2"/><path d="M812,476 A31.9,36.4 0 0 1 870,476 A31.9,36.4 0 0 1 812,476Z" fill="none" stroke="#f4f0e8" stroke-width="1.1" opacity="0.2"/><path d="M870,476 A31.9,36.4 0 0 1 928,476 A31.9,36.4 0 0 1 870,476Z" fill="none" stroke="#f4f0e8" stroke-width="1.1" opacity="0.2"/><path d="M928,476 A31.9,36.4 0 0 1 986,476 A31.9,36.4 0 0 1 928,476Z" fill="none" stroke="#f4f0e8" stroke-width="1.1" opacity="0.2"/><path d="M986,476 A31.9,36.4 0 0 1 1044,476 A31.9,36.4 0 0 1 986,476Z" fill="none" stroke="#f4f0e8" stroke-width="1.1" opacity="0.2"/><path d="M1044,476 A31.9,36.4 0 0 1 1102,476 A31.9,36.4 0 0 1 1044,476Z" fill="none" stroke="#f4f0e8" stroke-width="1.1" opacity="0.2"/><path d="M1102,476 A31.9,36.4 0 0 1 1160,476 A31.9,36.4 0 0 1 1102,476Z" fill="none" stroke="#f4f0e8" stroke-width="1.1" opacity="0.2"/><path d="M1160,476 A31.9,36.4 0 0 1 1218,476 A31.9,36.4 0 0 1 1160,476Z" fill="none" stroke="#f4f0e8" stroke-width="1.1" opacity="0.2"/><path d="M1218,476 A31.9,36.4 0 0 1 1276,476 A31.9,36.4 0 0 1 1218,476Z" fill="none" stroke="#f4f0e8" stroke-width="1.1" opacity="0.2"/><path d="M-29,509 A31.9,36.4 0 0 1 29,509 A31.9,36.4 0 0 1 -29,509Z" fill="none" stroke="#f4f0e8" stroke-width="1.1" opacity="0.2"/><path d="M29,509 A31.9,36.4 0 0 1 87,509 A31.9,36.4 0 0 1 29,509Z" fill="none" stroke="#f4f0e8" stroke-width="1.1" opacity="0.2"/><path d="M87,509 A31.9,36.4 0 0 1 145,509 A31.9,36.4 0 0 1 87,509Z" fill="none" stroke="#f4f0e8" stroke-width="1.1" opacity="0.2"/><path d="M145,509 A31.9,36.4 0 0 1 203,509 A31.9,36.4 0 0 1 145,509Z" fill="none" stroke="#f4f0e8" stroke-width="1.1" opacity="0.2"/><path d="M203,509 A31.9,36.4 0 0 1 261,509 A31.9,36.4 0 0 1 203,509Z" fill="none" stroke="#f4f0e8" stroke-width="1.1" opacity="0.2"/><path d="M261,509 A31.9,36.4 0 0 1 319,509 A31.9,36.4 0 0 1 261,509Z" fill="none" stroke="#f4f0e8" stroke-width="1.1" opacity="0.2"/><path d="M319,509 A31.9,36.4 0 0 1 377,509 A31.9,36.4 0 0 1 319,509Z" fill="none" stroke="#f4f0e8" stroke-width="1.1" opacity="0.2"/><path d="M377,509 A31.9,36.4 0 0 1 435,509 A31.9,36.4 0 0 1 377,509Z" fill="none" stroke="#f4f0e8" stroke-width="1.1" opacity="0.2"/><path d="M435,509 A31.9,36.4 0 0 1 493,509 A31.9,36.4 0 0 1 435,509Z" fill="none" stroke="#f4f0e8" stroke-width="1.1" opacity="0.2"/><path d="M493,509 A31.9,36.4 0 0 1 551,509 A31.9,36.4 0 0 1 493,509Z" fill="none" stroke="#f4f0e8" stroke-width="1.1" opacity="0.2"/><path d="M551,509 A31.9,36.4 0 0 1 609,509 A31.9,36.4 0 0 1 551,509Z" fill="none" stroke="#f4f0e8" stroke-width="1.1" opacity="0.2"/><path d="M609,509 A31.9,36.4 0 0 1 667,509 A31.9,36.4 0 0 1 609,509Z" fill="none" stroke="#f4f0e8" stroke-width="1.1" opacity="0.2"/><path d="M667,509 A31.9,36.4 0 0 1 725,509 A31.9,36.4 0 0 1 667,509Z" fill="none" stroke="#f4f0e8" stroke-width="1.1" opacity="0.2"/><path d="M725,509 A31.9,36.4 0 0 1 783,509 A31.9,36.4 0 0 1 725,509Z" fill="none" stroke="#f4f0e8" stroke-width="1.1" opacity="0.2"/><path d="M783,509 A31.9,36.4 0 0 1 841,509 A31.9,36.4 0 0 1 783,509Z" fill="none" stroke="#f4f0e8" stroke-width="1.1" opacity="0.2"/><path d="M841,509 A31.9,36.4 0 0 1 899,509 A31.9,36.4 0 0 1 841,509Z" fill="none" stroke="#f4f0e8" stroke-width="1.1" opacity="0.2"/><path d="M899,509 A31.9,36.4 0 0 1 957,509 A31.9,36.4 0 0 1 899,509Z" fill="none" stroke="#f4f0e8" stroke-width="1.1" opacity="0.2"/><path d="M957,509 A31.9,36.4 0 0 1 1015,509 A31.9,36.4 0 0 1 957,509Z" fill="none" stroke="#f4f0e8" stroke-width="1.1" opacity="0.2"/><path d="M1015,509 A31.9,36.4 0 0 1 1073,509 A31.9,36.4 0 0 1 1015,509Z" fill="none" stroke="#f4f0e8" stroke-width="1.1" opacity="0.2"/><path d="M1073,509 A31.9,36.4 0 0 1 1131,509 A31.9,36.4 0 0 1 1073,509Z" fill="none" stroke="#f4f0e8" stroke-width="1.1" opacity="0.2"/><path d="M1131,509 A31.9,36.4 0 0 1 1189,509 A31.9,36.4 0 0 1 1131,509Z" fill="none" stroke="#f4f0e8" stroke-width="1.1" opacity="0.2"/><path d="M1189,509 A31.9,36.4 0 0 1 1247,509 A31.9,36.4 0 0 1 1189,509Z" fill="none" stroke="#f4f0e8" stroke-width="1.1" opacity="0.2"/><path d="M1247,509 A31.9,36.4 0 0 1 1305,509 A31.9,36.4 0 0 1 1247,509Z" fill="none" stroke="#f4f0e8" stroke-width="1.1" opacity="0.2"/><path d="M-58,542 A31.9,36.4 0 0 1 0,542 A31.9,36.4 0 0 1 -58,542Z" fill="none" stroke="#f4f0e8" stroke-width="1.1" opacity="0.2"/><path d="M0,542 A31.9,36.4 0 0 1 58,542 A31.9,36.4 0 0 1 0,542Z" fill="none" stroke="#f4f0e8" stroke-width="1.1" opacity="0.2"/><path d="M58,542 A31.9,36.4 0 0 1 116,542 A31.9,36.4 0 0 1 58,542Z" fill="none" stroke="#f4f0e8" stroke-width="1.1" opacity="0.2"/><path d="M116,542 A31.9,36.4 0 0 1 174,542 A31.9,36.4 0 0 1 116,542Z" fill="none" stroke="#f4f0e8" stroke-width="1.1" opacity="0.2"/><path d="M174,542 A31.9,36.4 0 0 1 232,542 A31.9,36.4 0 0 1 174,542Z" fill="none" stroke="#f4f0e8" stroke-width="1.1" opacity="0.2"/><path d="M232,542 A31.9,36.4 0 0 1 290,542 A31.9,36.4 0 0 1 232,542Z" fill="none" stroke="#f4f0e8" stroke-width="1.1" opacity="0.2"/><path d="M290,542 A31.9,36.4 0 0 1 348,542 A31.9,36.4 0 0 1 290,542Z" fill="none" stroke="#f4f0e8" stroke-width="1.1" opacity="0.2"/><path d="M348,542 A31.9,36.4 0 0 1 406,542 A31.9,36.4 0 0 1 348,542Z" fill="none" stroke="#f4f0e8" stroke-width="1.1" opacity="0.2"/><path d="M406,542 A31.9,36.4 0 0 1 464,542 A31.9,36.4 0 0 1 406,542Z" fill="none" stroke="#f4f0e8" stroke-width="1.1" opacity="0.2"/><path d="M464,542 A31.9,36.4 0 0 1 522,542 A31.9,36.4 0 0 1 464,542Z" fill="none" stroke="#f4f0e8" stroke-width="1.1" opacity="0.2"/><path d="M522,542 A31.9,36.4 0 0 1 580,542 A31.9,36.4 0 0 1 522,542Z" fill="none" stroke="#f4f0e8" stroke-width="1.1" opacity="0.2"/><path d="M580,542 A31.9,36.4 0 0 1 638,542 A31.9,36.4 0 0 1 580,542Z" fill="none" stroke="#f4f0e8" stroke-width="1.1" opacity="0.2"/><path d="M638,542 A31.9,36.4 0 0 1 696,542 A31.9,36.4 0 0 1 638,542Z" fill="none" stroke="#f4f0e8" stroke-width="1.1" opacity="0.2"/><path d="M696,542 A31.9,36.4 0 0 1 754,542 A31.9,36.4 0 0 1 696,542Z" fill="none" stroke="#f4f0e8" stroke-width="1.1" opacity="0.2"/><path d="M754,542 A31.9,36.4 0 0 1 812,542 A31.9,36.4 0 0 1 754,542Z" fill="none" stroke="#f4f0e8" stroke-width="1.1" opacity="0.2"/><path d="M812,542 A31.9,36.4 0 0 1 870,542 A31.9,36.4 0 0 1 812,542Z" fill="none" stroke="#f4f0e8" stroke-width="1.1" opacity="0.2"/><path d="M870,542 A31.9,36.4 0 0 1 928,542 A31.9,36.4 0 0 1 870,542Z" fill="none" stroke="#f4f0e8" stroke-width="1.1" opacity="0.2"/><path d="M928,542 A31.9,36.4 0 0 1 986,542 A31.9,36.4 0 0 1 928,542Z" fill="none" stroke="#f4f0e8" stroke-width="1.1" opacity="0.2"/><path d="M986,542 A31.9,36.4 0 0 1 1044,542 A31.9,36.4 0 0 1 986,542Z" fill="none" stroke="#f4f0e8" stroke-width="1.1" opacity="0.2"/><path d="M1044,542 A31.9,36.4 0 0 1 1102,542 A31.9,36.4 0 0 1 1044,542Z" fill="none" stroke="#f4f0e8" stroke-width="1.1" opacity="0.2"/><path d="M1102,542 A31.9,36.4 0 0 1 1160,542 A31.9,36.4 0 0 1 1102,542Z" fill="none" stroke="#f4f0e8" stroke-width="1.1" opacity="0.2"/><path d="M1160,542 A31.9,36.4 0 0 1 1218,542 A31.9,36.4 0 0 1 1160,542Z" fill="none" stroke="#f4f0e8" stroke-width="1.1" opacity="0.2"/><path d="M1218,542 A31.9,36.4 0 0 1 1276,542 A31.9,36.4 0 0 1 1218,542Z" fill="none" stroke="#f4f0e8" stroke-width="1.1" opacity="0.2"/><path d="M-29,575 A31.9,36.4 0 0 1 29,575 A31.9,36.4 0 0 1 -29,575Z" fill="none" stroke="#f4f0e8" stroke-width="1.1" opacity="0.2"/><path d="M29,575 A31.9,36.4 0 0 1 87,575 A31.9,36.4 0 0 1 29,575Z" fill="none" stroke="#f4f0e8" stroke-width="1.1" opacity="0.2"/><path d="M87,575 A31.9,36.4 0 0 1 145,575 A31.9,36.4 0 0 1 87,575Z" fill="none" stroke="#f4f0e8" stroke-width="1.1" opacity="0.2"/><path d="M145,575 A31.9,36.4 0 0 1 203,575 A31.9,36.4 0 0 1 145,575Z" fill="none" stroke="#f4f0e8" stroke-width="1.1" opacity="0.2"/><path d="M203,575 A31.9,36.4 0 0 1 261,575 A31.9,36.4 0 0 1 203,575Z" fill="none" stroke="#f4f0e8" stroke-width="1.1" opacity="0.2"/><path d="M261,575 A31.9,36.4 0 0 1 319,575 A31.9,36.4 0 0 1 261,575Z" fill="none" stroke="#f4f0e8" stroke-width="1.1" opacity="0.2"/><path d="M319,575 A31.9,36.4 0 0 1 377,575 A31.9,36.4 0 0 1 319,575Z" fill="none" stroke="#f4f0e8" stroke-width="1.1" opacity="0.2"/><path d="M377,575 A31.9,36.4 0 0 1 435,575 A31.9,36.4 0 0 1 377,575Z" fill="none" stroke="#f4f0e8" stroke-width="1.1" opacity="0.2"/><path d="M435,575 A31.9,36.4 0 0 1 493,575 A31.9,36.4 0 0 1 435,575Z" fill="none" stroke="#f4f0e8" stroke-width="1.1" opacity="0.2"/><path d="M493,575 A31.9,36.4 0 0 1 551,575 A31.9,36.4 0 0 1 493,575Z" fill="none" stroke="#f4f0e8" stroke-width="1.1" opacity="0.2"/><path d="M551,575 A31.9,36.4 0 0 1 609,575 A31.9,36.4 0 0 1 551,575Z" fill="none" stroke="#f4f0e8" stroke-width="1.1" opacity="0.2"/><path d="M609,575 A31.9,36.4 0 0 1 667,575 A31.9,36.4 0 0 1 609,575Z" fill="none" stroke="#f4f0e8" stroke-width="1.1" opacity="0.2"/><path d="M667,575 A31.9,36.4 0 0 1 725,575 A31.9,36.4 0 0 1 667,575Z" fill="none" stroke="#f4f0e8" stroke-width="1.1" opacity="0.2"/><path d="M725,575 A31.9,36.4 0 0 1 783,575 A31.9,36.4 0 0 1 725,575Z" fill="none" stroke="#f4f0e8" stroke-width="1.1" opacity="0.2"/><path d="M783,575 A31.9,36.4 0 0 1 841,575 A31.9,36.4 0 0 1 783,575Z" fill="none" stroke="#f4f0e8" stroke-width="1.1" opacity="0.2"/><path d="M841,575 A31.9,36.4 0 0 1 899,575 A31.9,36.4 0 0 1 841,575Z" fill="none" stroke="#f4f0e8" stroke-width="1.1" opacity="0.2"/><path d="M899,575 A31.9,36.4 0 0 1 957,575 A31.9,36.4 0 0 1 899,575Z" fill="none" stroke="#f4f0e8" stroke-width="1.1" opacity="0.2"/><path d="M957,575 A31.9,36.4 0 0 1 1015,575 A31.9,36.4 0 0 1 957,575Z" fill="none" stroke="#f4f0e8" stroke-width="1.1" opacity="0.2"/><path d="M1015,575 A31.9,36.4 0 0 1 1073,575 A31.9,36.4 0 0 1 1015,575Z" fill="none" stroke="#f4f0e8" stroke-width="1.1" opacity="0.2"/><path d="M1073,575 A31.9,36.4 0 0 1 1131,575 A31.9,36.4 0 0 1 1073,575Z" fill="none" stroke="#f4f0e8" stroke-width="1.1" opacity="0.2"/><path d="M1131,575 A31.9,36.4 0 0 1 1189,575 A31.9,36.4 0 0 1 1131,575Z" fill="none" stroke="#f4f0e8" stroke-width="1.1" opacity="0.2"/><path d="M1189,575 A31.9,36.4 0 0 1 1247,575 A31.9,36.4 0 0 1 1189,575Z" fill="none" stroke="#f4f0e8" stroke-width="1.1" opacity="0.2"/><path d="M1247,575 A31.9,36.4 0 0 1 1305,575 A31.9,36.4 0 0 1 1247,575Z" fill="none" stroke="#f4f0e8" stroke-width="1.1" opacity="0.2"/><path d="M-58,608 A31.9,36.4 0 0 1 0,608 A31.9,36.4 0 0 1 -58,608Z" fill="none" stroke="#f4f0e8" stroke-width="1.1" opacity="0.2"/><path d="M0,608 A31.9,36.4 0 0 1 58,608 A31.9,36.4 0 0 1 0,608Z" fill="none" stroke="#f4f0e8" stroke-width="1.1" opacity="0.2"/><path d="M58,608 A31.9,36.4 0 0 1 116,608 A31.9,36.4 0 0 1 58,608Z" fill="none" stroke="#f4f0e8" stroke-width="1.1" opacity="0.2"/><path d="M116,608 A31.9,36.4 0 0 1 174,608 A31.9,36.4 0 0 1 116,608Z" fill="none" stroke="#f4f0e8" stroke-width="1.1" opacity="0.2"/><path d="M174,608 A31.9,36.4 0 0 1 232,608 A31.9,36.4 0 0 1 174,608Z" fill="none" stroke="#f4f0e8" stroke-width="1.1" opacity="0.2"/><path d="M232,608 A31.9,36.4 0 0 1 290,608 A31.9,36.4 0 0 1 232,608Z" fill="none" stroke="#f4f0e8" stroke-width="1.1" opacity="0.2"/><path d="M290,608 A31.9,36.4 0 0 1 348,608 A31.9,36.4 0 0 1 290,608Z" fill="none" stroke="#f4f0e8" stroke-width="1.1" opacity="0.2"/><path d="M348,608 A31.9,36.4 0 0 1 406,608 A31.9,36.4 0 0 1 348,608Z" fill="none" stroke="#f4f0e8" stroke-width="1.1" opacity="0.2"/><path d="M406,608 A31.9,36.4 0 0 1 464,608 A31.9,36.4 0 0 1 406,608Z" fill="none" stroke="#f4f0e8" stroke-width="1.1" opacity="0.2"/><path d="M464,608 A31.9,36.4 0 0 1 522,608 A31.9,36.4 0 0 1 464,608Z" fill="none" stroke="#f4f0e8" stroke-width="1.1" opacity="0.2"/><path d="M522,608 A31.9,36.4 0 0 1 580,608 A31.9,36.4 0 0 1 522,608Z" fill="none" stroke="#f4f0e8" stroke-width="1.1" opacity="0.2"/><path d="M580,608 A31.9,36.4 0 0 1 638,608 A31.9,36.4 0 0 1 580,608Z" fill="none" stroke="#f4f0e8" stroke-width="1.1" opacity="0.2"/><path d="M638,608 A31.9,36.4 0 0 1 696,608 A31.9,36.4 0 0 1 638,608Z" fill="none" stroke="#f4f0e8" stroke-width="1.1" opacity="0.2"/><path d="M696,608 A31.9,36.4 0 0 1 754,608 A31.9,36.4 0 0 1 696,608Z" fill="none" stroke="#f4f0e8" stroke-width="1.1" opacity="0.2"/><path d="M754,608 A31.9,36.4 0 0 1 812,608 A31.9,36.4 0 0 1 754,608Z" fill="none" stroke="#f4f0e8" stroke-width="1.1" opacity="0.2"/><path d="M812,608 A31.9,36.4 0 0 1 870,608 A31.9,36.4 0 0 1 812,608Z" fill="none" stroke="#f4f0e8" stroke-width="1.1" opacity="0.2"/><path d="M870,608 A31.9,36.4 0 0 1 928,608 A31.9,36.4 0 0 1 870,608Z" fill="none" stroke="#f4f0e8" stroke-width="1.1" opacity="0.2"/><path d="M928,608 A31.9,36.4 0 0 1 986,608 A31.9,36.4 0 0 1 928,608Z" fill="none" stroke="#f4f0e8" stroke-width="1.1" opacity="0.2"/><path d="M986,608 A31.9,36.4 0 0 1 1044,608 A31.9,36.4 0 0 1 986,608Z" fill="none" stroke="#f4f0e8" stroke-width="1.1" opacity="0.2"/><path d="M1044,608 A31.9,36.4 0 0 1 1102,608 A31.9,36.4 0 0 1 1044,608Z" fill="none" stroke="#f4f0e8" stroke-width="1.1" opacity="0.2"/><path d="M1102,608 A31.9,36.4 0 0 1 1160,608 A31.9,36.4 0 0 1 1102,608Z" fill="none" stroke="#f4f0e8" stroke-width="1.1" opacity="0.2"/><path d="M1160,608 A31.9,36.4 0 0 1 1218,608 A31.9,36.4 0 0 1 1160,608Z" fill="none" stroke="#f4f0e8" stroke-width="1.1" opacity="0.2"/><path d="M1218,608 A31.9,36.4 0 0 1 1276,608 A31.9,36.4 0 0 1 1218,608Z" fill="none" stroke="#f4f0e8" stroke-width="1.1" opacity="0.2"/><path d="M-29,641 A31.9,36.4 0 0 1 29,641 A31.9,36.4 0 0 1 -29,641Z" fill="none" stroke="#f4f0e8" stroke-width="1.1" opacity="0.2"/><path d="M29,641 A31.9,36.4 0 0 1 87,641 A31.9,36.4 0 0 1 29,641Z" fill="none" stroke="#f4f0e8" stroke-width="1.1" opacity="0.2"/><path d="M87,641 A31.9,36.4 0 0 1 145,641 A31.9,36.4 0 0 1 87,641Z" fill="none" stroke="#f4f0e8" stroke-width="1.1" opacity="0.2"/><path d="M145,641 A31.9,36.4 0 0 1 203,641 A31.9,36.4 0 0 1 145,641Z" fill="none" stroke="#f4f0e8" stroke-width="1.1" opacity="0.2"/><path d="M203,641 A31.9,36.4 0 0 1 261,641 A31.9,36.4 0 0 1 203,641Z" fill="none" stroke="#f4f0e8" stroke-width="1.1" opacity="0.2"/><path d="M261,641 A31.9,36.4 0 0 1 319,641 A31.9,36.4 0 0 1 261,641Z" fill="none" stroke="#f4f0e8" stroke-width="1.1" opacity="0.2"/><path d="M319,641 A31.9,36.4 0 0 1 377,641 A31.9,36.4 0 0 1 319,641Z" fill="none" stroke="#f4f0e8" stroke-width="1.1" opacity="0.2"/><path d="M377,641 A31.9,36.4 0 0 1 435,641 A31.9,36.4 0 0 1 377,641Z" fill="none" stroke="#f4f0e8" stroke-width="1.1" opacity="0.2"/><path d="M435,641 A31.9,36.4 0 0 1 493,641 A31.9,36.4 0 0 1 435,641Z" fill="none" stroke="#f4f0e8" stroke-width="1.1" opacity="0.2"/><path d="M493,641 A31.9,36.4 0 0 1 551,641 A31.9,36.4 0 0 1 493,641Z" fill="none" stroke="#f4f0e8" stroke-width="1.1" opacity="0.2"/><path d="M551,641 A31.9,36.4 0 0 1 609,641 A31.9,36.4 0 0 1 551,641Z" fill="none" stroke="#f4f0e8" stroke-width="1.1" opacity="0.2"/><path d="M609,641 A31.9,36.4 0 0 1 667,641 A31.9,36.4 0 0 1 609,641Z" fill="none" stroke="#f4f0e8" stroke-width="1.1" opacity="0.2"/><path d="M667,641 A31.9,36.4 0 0 1 725,641 A31.9,36.4 0 0 1 667,641Z" fill="none" stroke="#f4f0e8" stroke-width="1.1" opacity="0.2"/><path d="M725,641 A31.9,36.4 0 0 1 783,641 A31.9,36.4 0 0 1 725,641Z" fill="none" stroke="#f4f0e8" stroke-width="1.1" opacity="0.2"/><path d="M783,641 A31.9,36.4 0 0 1 841,641 A31.9,36.4 0 0 1 783,641Z" fill="none" stroke="#f4f0e8" stroke-width="1.1" opacity="0.2"/><path d="M841,641 A31.9,36.4 0 0 1 899,641 A31.9,36.4 0 0 1 841,641Z" fill="none" stroke="#f4f0e8" stroke-width="1.1" opacity="0.2"/><path d="M899,641 A31.9,36.4 0 0 1 957,641 A31.9,36.4 0 0 1 899,641Z" fill="none" stroke="#f4f0e8" stroke-width="1.1" opacity="0.2"/><path d="M957,641 A31.9,36.4 0 0 1 1015,641 A31.9,36.4 0 0 1 957,641Z" fill="none" stroke="#f4f0e8" stroke-width="1.1" opacity="0.2"/><path d="M1015,641 A31.9,36.4 0 0 1 1073,641 A31.9,36.4 0 0 1 1015,641Z" fill="none" stroke="#f4f0e8" stroke-width="1.1" opacity="0.2"/><path d="M1073,641 A31.9,36.4 0 0 1 1131,641 A31.9,36.4 0 0 1 1073,641Z" fill="none" stroke="#f4f0e8" stroke-width="1.1" opacity="0.2"/><path d="M1131,641 A31.9,36.4 0 0 1 1189,641 A31.9,36.4 0 0 1 1131,641Z" fill="none" stroke="#f4f0e8" stroke-width="1.1" opacity="0.2"/><path d="M1189,641 A31.9,36.4 0 0 1 1247,641 A31.9,36.4 0 0 1 1189,641Z" fill="none" stroke="#f4f0e8" stroke-width="1.1" opacity="0.2"/><path d="M1247,641 A31.9,36.4 0 0 1 1305,641 A31.9,36.4 0 0 1 1247,641Z" fill="none" stroke="#f4f0e8" stroke-width="1.1" opacity="0.2"/>
<rect x="0" y="0" width="1200" height="8" fill="#c0392b"/>
<rect x="0" y="558" width="1200" height="72" fill="#0d0d0d"/>
<rect width="1200" height="18" fill="#0d0d0d"/><polygon points="0.0,0 50.0,0 25.0,18" fill="#c0392b"/><polygon points="50.0,0 100.0,0 75.0,18" fill="#c0392b"/><polygon points="100.0,0 150.0,0 125.0,18" fill="#c0392b"/><polygon points="150.0,0 200.0,0 175.0,18" fill="#c0392b"/><polygon points="200.0,0 250.0,0 225.0,18" fill="#c0392b"/><polygon points="250.0,0 300.0,0 275.0,18" fill="#c0392b"/><polygon points="300.0,0 350.0,0 325.0,18" fill="#c0392b"/><polygon points="350.0,0 400.0,0 375.0,18" fill="#c0392b"/><polygon points="400.0,0 450.0,0 425.0,18" fill="#c0392b"/><polygon points="450.0,0 500.0,0 475.0,18" fill="#c0392b"/><polygon points="500.0,0 550.0,0 525.0,18" fill="#c0392b"/><polygon points="550.0,0 600.0,0 575.0,18" fill="#c0392b"/><polygon points="600.0,0 650.0,0 625.0,18" fill="#c0392b"/><polygon points="650.0,0 700.0,0 675.0,18" fill="#c0392b"/><polygon points="700.0,0 750.0,0 725.0,18" fill="#c0392b"/><polygon points="750.0,0 800.0,0 775.0,18" fill="#c0392b"/><polygon points="800.0,0 850.0,0 825.0,18" fill="#c0392b"/><polygon points="850.0,0 900.0,0 875.0,18" fill="#c0392b"/><polygon points="900.0,0 950.0,0 925.0,18" fill="#c0392b"/><polygon points="950.0,0 1000.0,0 975.0,18" fill="#c0392b"/><polygon points="1000.0,0 1050.0,0 1025.0,18" fill="#c0392b"/><polygon points="1050.0,0 1100.0,0 1075.0,18" fill="#c0392b"/><polygon points="1100.0,0 1150.0,0 1125.0,18" fill="#c0392b"/><polygon points="1150.0,0 1200.0,0 1175.0,18" fill="#c0392b"/>
<text x="600" y="265" font-family="Georgia,serif" font-size="86" font-weight="bold"
  fill="#f4f0e8" text-anchor="middle">ĀRAHIA ŌU TIKANGA</text>
<text x="600" y="335" font-family="Arial,sans-serif" font-size="43"
  font-weight="bold" fill="#c0392b" text-anchor="middle">HOLD YOUR CONSENT</text>
<text x="600" y="377" font-family="Arial,sans-serif" font-size="21"
  fill="#f4f0e8" text-anchor="middle" opacity="0.7">Your data cannot be taken without consent.</text>
<text x="600" y="608" font-family="Arial,sans-serif" font-size="20" font-weight="bold"
  fill="#f4f0e8" text-anchor="middle">THE KIWI DIALECTIC · kiwidialectic.com · Te Pā Tūwatawata</text>
</svg>