<svg xmlns="http://www.w3.org/2000/svg" width="1080" height="1080" viewBox="0 0 1080 1080">
<rect width="1080" height="1080" fill="#0d0d0d"/>
<polyline points="540.0,236.0 557.6,237.4 575.0,239.7 592.3,242.9 609.3,247.1 625.9,252.2 642.3,258.2 658.2,265.0 673.7,272.7 688.8,281.2 703.3,290.4 717.2,300.5 730.5,311.2 743.2,322.6 755.2,334.6 766.5,347.3 777.1,360.5 786.9,374.2 795.9,388.4 804.1,403.1 811.4,418.1 817.9,433.4 823.6,449.1 828.4,465.0 832.3,481.0 835.3,497.2 837.4,513.5 838.6,529.9 838.9,546.2 838.3,562.5 836.8,578.7 834.5,594.7 831.3,610.5 827.3,626.1 822.4,641.4 816.7,656.4 810.2,670.9 803.0,685.1 795.0,698.8 786.3,712.0 777.0,724.7 767.0,736.8 756.3,748.3 745.1,759.2 733.4,769.4 721.1,778.9 708.4,787.8 695.3,795.9 681.8,803.2 667.9,809.8 653.8,815.5 639.4,820.5 624.8,824.7 610.0,828.1 595.2,830.6 580.2,832.3 565.3,833.2 550.3,833.3 535.4,832.6 520.7,831.1 506.1,828.7 491.6,825.6 477.5,821.7 463.6,817.1 450.0,811.7 436.8,805.6 423.9,798.8 411.5,791.4 399.6,783.3 388.2,774.6 377.3,765.3 366.9,755.5 357.1,745.2 348.0,734.3 339.5,723.1 331.6,711.4 324.4,699.4 317.9,687.0 312.1,674.3 307.1,661.4 302.7,648.2 299.1,634.9 296.3,621.5 294.1,608.0 292.8,594.4 292.1,580.8 292.3,567.3 293.1,553.8 294.7,540.4 297.0,527.2 300.0,514.2 303.7,501.4 308.1,488.9 313.2,476.7 318.8,464.8 325.1,453.3 332.0,442.2 339.5,431.6 347.5,421.4 356.0,411.7 365.0,402.5 374.5,393.8 384.4,385.7 394.6,378.2 405.3,371.3 416.2,365.0 427.5,359.3 438.9,354.2 450.6,349.9 462.5,346.1 474.5,343.1 486.6,340.7 498.8,339.0 511.0,338.0 523.2,337.6 535.3,337.9 547.4,338.9 559.4,340.5 571.2,342.7 582.8,345.6 594.1,349.1 605.3,353.2 616.1,357.9 626.7,363.2 636.8,369.0 646.7,375.3 656.1,382.1 665.0,389.4 673.6,397.1 681.7,405.3 689.2,413.9 696.3,422.8 702.8,432.0 708.8,441.6 714.3,451.4 719.2,461.5 723.5,471.8 727.2,482.2 730.3,492.8 732.8,503.5 734.7,514.3 736.1,525.1 736.8,536.0 736.9,546.8 736.5,557.5 735.4,568.2 733.8,578.7 731.6,589.1 728.9,599.3 725.6,609.3 721.8,619.1 717.5,628.6 712.7,637.8 707.4,646.6 701.7,655.2 695.5,663.3 689.0,671.1 682.0,678.5 674.7,685.4 667.1,692.0 659.1,698.0 650.9,703.6 642.4,708.7 633.7,713.3 624.8,717.4 615.7,720.9 606.5,724.0 597.2,726.6 587.8,728.6 578.4,730.1 568.9,731.0 559.5,731.5 550.1,731.4 540.7,730.8 531.5,729.7 522.3,728.1 513.4,726.0 504.5,723.4 495.9,720.4 487.5,716.9 479.4,713.0 471.5,708.7 464.0,704.0 456.7,698.9 449.8,693.4 443.2,687.6 436.9,681.4 431.1,675.0 425.6,668.3 420.6,661.3 416.0,654.2 411.7,646.8 408.0,639.2 404.6,631.5 401.8,623.6 399.3,615.7 397.3,607.7 395.8,599.6 394.7,591.5 394.1,583.4 393.9,575.4 394.2,567.3 394.9,559.4 396.0,551.5 397.6,543.8 399.5,536.2 401.9,528.8 404.7,521.6 407.8,514.6 411.3,507.8 415.1,501.2 419.3,494.9 423.8,488.9 428.5,483.2 433.6,477.8 438.9,472.7 444.4,467.9 450.2,463.5 456.1,459.5 462.2,455.8 468.5,452.4 474.9,449.4 481.5,446.9 488.1,444.6 494.7,442.8 501.5,441.4 508.2,440.3 514.9,439.6 521.7,439.3 528.3,439.4 535.0,439.8 541.5,440.6 547.9,441.7 554.3,443.2 560.4,445.0 566.5,447.2 572.3,449.6 578.0,452.4 583.4,455.4 588.7,458.8 593.7,462.3 598.5,466.1 603.0,470.2 607.2,474.5 611.2,478.9 614.9,483.5 618.3,488.3 621.4,493.2 624.2,498.3 626.7,503.5 628.9,508.7 630.7,514.0 632.3,519.4 633.5,524.8 634.5,530.2 635.1,535.6 635.4,541.0 635.4,546.3 635.1,551.6 634.6,556.8 633.7,562.0 632.6,567.0 631.2,571.9 629.5,576.7 627.6,581.3 625.5,585.8 623.1,590.1 620.6,594.3 617.8,598.2 614.8,601.9 611.7,605.5 608.4,608.8 604.9,611.9 601.3,614.8 597.6,617.4 593.8,619.8 589.9,621.9 586.0,623.9 582.0,625.5 577.9,626.9 573.8,628.1 569.7,629.0 565.6,629.7 561.5,630.2 557.4,630.4 553.4,630.3 549.5,630.1 545.6,629.6 541.7,628.9 538.0,628.0 534.4,626.9 530.9,625.7 527.5,624.2 524.2,622.6 521.1,620.8 518.1,618.8 515.3,616.7 512.7,614.5 510.2,612.2 507.9,609.7 505.7,607.2" fill="none" stroke="#f4f0e8" stroke-width="2.2" stroke-linecap="round"/><polyline points="620.0,328.8 626.9,329.4 633.8,330.3 640.7,331.5 647.4,333.0 654.1,334.8 660.6,336.9 667.0,339.3 673.3,342.0 679.4,345.0 685.4,348.3 691.2,351.8 696.8,355.6 702.2,359.6 707.4,363.8 712.4,368.3 717.2,373.0 721.7,377.8 726.0,382.9 730.1,388.2 733.9,393.6 737.4,399.2 740.6,404.9 743.6,410.7 746.3,416.7 748.7,422.7 750.8,428.8 752.6,435.1 754.2,441.3 755.4,447.6 756.3,454.0 757.0,460.4 757.3,466.7 757.4,473.1 757.1,479.4 756.6,485.7 755.8,492.0 754.7,498.2 753.3,504.3 751.6,510.3 749.7,516.2 747.5,522.0 745.1,527.7 742.3,533.2 739.4,538.6 736.2,543.9 732.8,549.0 729.1,553.8 725.3,558.5 721.2,563.0 717.0,567.3 712.6,571.4 708.0,575.3 703.2,578.9 698.4,582.3 693.3,585.5 688.2,588.4 682.9,591.1 677.5,593.5 672.1,595.6 666.5,597.5 660.9,599.2 655.3,600.5 649.6,601.6 643.9,602.4 638.2,603.0 632.4,603.3 626.7,603.3 621.0,603.1 615.4,602.6 609.8,601.8 604.2,600.8 598.7,599.6 593.4,598.1 588.1,596.3 582.9,594.3 577.8,592.1 572.8,589.7 568.0,587.0 563.3,584.1 558.8,581.1 554.4,577.8 550.3,574.3 546.2,570.7 542.4,566.9 538.8,562.9 535.4,558.8 532.1,554.6 529.1,550.2 526.3,545.7 523.7,541.1 521.4,536.4 519.3,531.6 517.4,526.7 515.7,521.8 514.3,516.8 513.1,511.8 512.2,506.7 511.4,501.7 511.0,496.6 510.7,491.5 510.7,486.4 511.0,481.4 511.4,476.4 512.1,471.4 513.0,466.5 514.2,461.6 515.5,456.9 517.1,452.2 518.9,447.6 520.9,443.1 523.1,438.8 525.4,434.5 528.0,430.4 530.7,426.5 533.6,422.6 536.7,419.0 539.9,415.4 543.3,412.1 546.8,408.9 550.4,405.9 554.2,403.1 558.1,400.5 562.0,398.1 566.1,395.8 570.2,393.8 574.4,392.0 578.7,390.3 583.0,388.9 587.4,387.7 591.8,386.7 596.3,385.9 600.7,385.3 605.1,384.9 609.6,384.7 614.0,384.8 618.4,385.0 622.8,385.5 627.1,386.1 631.4,386.9 635.6,388.0 639.7,389.2 643.8,390.6 647.7,392.2 651.6,393.9 655.4,395.9 659.0,397.9 662.6,400.2 666.0,402.6 669.3,405.1 672.4,407.8 675.4,410.6 678.3,413.6 681.0,416.6 683.6,419.8 686.0,423.1 688.2,426.4 690.3,429.9 692.1,433.4 693.9,436.9 695.4,440.6 696.8,444.3 697.9,448.0 698.9,451.8 699.8,455.6 700.4,459.4 700.9,463.2 701.1,467.0 701.2,470.8 701.2,474.6 700.9,478.3 700.5,482.0 699.9,485.7 699.2,489.3 698.2,492.9 697.2,496.4 695.9,499.8 694.5,503.2 693.0,506.5 691.3,509.6 689.5,512.7 687.6,515.7 685.5,518.5 683.3,521.3 681.0,523.9 678.6,526.4 676.1,528.8 673.5,531.0 670.8,533.2 668.0,535.1 665.1,537.0 662.2,538.6 659.3,540.2 656.2,541.6 653.2,542.8 650.1,543.9 646.9,544.8 643.8,545.6 640.6,546.2 637.4,546.7 634.3,547.0 631.1,547.2 627.9,547.3 624.8,547.1 621.7,546.9 618.6,546.5 615.6,545.9 612.6,545.2 609.7,544.4 606.8,543.5 604.0,542.4 601.2,541.2 598.6,539.9 596.0,538.4 593.5,536.9 591.1,535.3 588.8,533.5 586.6,531.7 584.5,529.7 582.5,527.7 580.6,525.6 578.8,523.5 577.2,521.2 575.6,519.0 574.2,516.6 572.9,514.2 571.7,511.8 570.7,509.3 569.7,506.8 568.9,504.3 568.2,501.8 567.7,499.2 567.2,496.7 566.9,494.1 566.7,491.6 566.7,489.0 566.7,486.5 566.9,484.0 567.2,481.5 567.6,479.1 568.1,476.7 568.7,474.4 569.4,472.1 570.2,469.9 571.2,467.7 572.2,465.6 573.3,463.5 574.5,461.5 575.8,459.6 577.1,457.8 578.5,456.1 580.0,454.4 581.6,452.8 583.2,451.3 584.9,449.9 586.6,448.6 588.4,447.4 590.2,446.3 592.0,445.3 593.9,444.4 595.8,443.6 597.7,442.8 599.6,442.2 601.6,441.7 603.5,441.3 605.5,440.9 607.4,440.7 609.3,440.6 611.3,440.5 613.2,440.6 615.0,440.7 616.9,440.9 618.7,441.2 620.5,441.6 622.2,442.1 623.9,442.7 625.6,443.3 627.2,444.0 628.7,444.8 630.2,445.6 631.7,446.5 633.0,447.4 634.4,448.5 635.6,449.5 636.8,450.6 637.9,451.8 638.9,453.0 639.9,454.2 640.8,455.5 641.6,456.8 642.4,458.1 643.1,459.4 643.7,460.7 644.2,462.1 644.7,463.5 645.0,464.8 645.4,466.2 645.6,467.6 645.8,468.9 645.9,470.3 645.9,471.6" fill="none" stroke="#c0392b" stroke-width="1.4" stroke-linecap="round"/>
<rect x="0" y="0" width="1080" height="8" fill="#c0392b"/>
<rect x="0" y="1008" width="1080" height="72" fill="#0d0d0d"/>
<rect width="1080" height="18" fill="#0d0d0d"/><polygon points="0.0,0 45.0,0 22.5,18" fill="#c0392b"/><polygon points="45.0,0 90.0,0 67.5,18" fill="#c0392b"/><polygon points="90.0,0 135.0,0 112.5,18" fill="#c0392b"/><polygon points="135.0,0 180.0,0 157.5,18" fill="#c0392b"/><polygon points="180.0,0 225.0,0 202.5,18" fill="#c0392b"/><polygon points="225.0,0 270.0,0 247.5,18" fill="#c0392b"/><polygon points="270.0,0 315.0,0 292.5,18" fill="#c0392b"/><polygon points="315.0,0 360.0,0 337.5,18" fill="#c0392b"/><polygon points="360.0,0 405.0,0 382.5,18" fill="#c0392b"/><polygon points="405.0,0 450.0,0 427.5,18" fill="#c0392b"/><polygon points="450.0,0 495.0,0 472.5,18" fill="#c0392b"/><polygon points="495.0,0 540.0,0 517.5,18" fill="#c0392b"/><polygon points="540.0,0 585.0,0 562.5,18" fill="#c0392b"/><polygon points="585.0,0 630.0,0 607.5,18" fill="#c0392b"/><polygon points="630.0,0 675.0,0 652.5,18" fill="#c0392b"/><polygon points="675.0,0 720.0,0 697.5,18" fill="#c0392b"/><polygon points="720.0,0 765.0,0 742.5,18" fill="#c0392b"/><polygon points="765.0,0 810.0,0 787.5,18" fill="#c0392b"/><polygon points="810.0,0 855.0,0 832.5,18" fill="#c0392b"/><polygon points="855.0,0 900.0,0 877.5,18" fill="#c0392b"/><polygon points="900.0,0 945.0,0 922.5,18" fill="#c0392b"/><polygon points="945.0,0 990.0,0 967.5,18" fill="#c0392b"/><polygon points="990.0,0 1035.0,0 1012.5,18" fill="#c0392b"/><polygon points="1035.0,0 1080.0,0 1057.5,18" fill="#c0392b"/>
<text x="540" y="490" font-family="Georgia,serif" font-size="86" font-weight="bold"
  fill="#f4f0e8" text-anchor="middle">HE ARA HOU</text>
<text x="540" y="560" font-family="Arial,sans-serif" font-size="43"
  font-weight="bold" fill="#c0392b" text-anchor="middle">A NEW PATH</text>
<text x="540" y="602" font-family="Arial,sans-serif" font-size="21"
  fill="#f4f0e8" text-anchor="middle" opacity="0.7">Koru — the unfurling frond, perpetual motion.</text>
<text x="540" y="1058" font-family="Arial,sans-serif" font-size="20" font-weight="bold"
  fill="#f4f0e8" text-anchor="middle">THE KIWI DIALECTIC · kiwidialectic.com · Te Pā Tūwatawata</text>
</svg>