<svg xmlns="http://www.w3.org/2000/svg" width="1200" height="675" viewBox="0 0 1200 675">
<rect width="1200" height="675" fill="#0d0d0d"/>
<polyline points="600.0,154.5 611.0,155.4 621.9,156.8 632.7,158.8 643.3,161.4 653.7,164.6 663.9,168.4 673.9,172.6 683.6,177.4 693.0,182.7 702.0,188.5 710.7,194.8 719.1,201.5 727.0,208.6 734.5,216.2 741.6,224.1 748.2,232.3 754.3,240.9 759.9,249.8 765.0,258.9 769.6,268.3 773.7,277.9 777.2,287.7 780.2,297.6 782.7,307.6 784.5,317.8 785.9,328.0 786.6,338.2 786.8,348.4 786.4,358.6 785.5,368.7 784.1,378.7 782.1,388.6 779.5,398.3 776.5,407.9 772.9,417.2 768.9,426.3 764.4,435.2 759.4,443.8 754.0,452.0 748.1,459.9 741.8,467.5 735.2,474.7 728.2,481.5 720.9,487.9 713.2,493.8 705.3,499.4 697.0,504.4 688.6,509.0 679.9,513.1 671.1,516.7 662.1,519.8 653.0,522.4 643.8,524.5 634.5,526.1 625.1,527.2 615.8,527.8 606.4,527.8 597.1,527.4 587.9,526.4 578.8,525.0 569.8,523.0 560.9,520.6 552.2,517.7 543.7,514.3 535.5,510.5 527.5,506.3 519.7,501.6 512.2,496.6 505.1,491.1 498.3,485.3 491.8,479.2 485.7,472.7 480.0,466.0 474.7,458.9 469.8,451.6 465.3,444.1 461.2,436.4 457.6,428.4 454.4,420.4 451.7,412.2 449.4,403.8 447.7,395.4 446.3,387.0 445.5,378.5 445.1,370.0 445.2,361.5 445.7,353.1 446.7,344.8 448.1,336.5 450.0,328.4 452.3,320.4 455.1,312.6 458.2,305.0 461.8,297.5 465.7,290.3 470.0,283.4 474.7,276.7 479.7,270.4 485.0,264.3 490.6,258.5 496.6,253.1 502.7,248.1 509.2,243.4 515.8,239.0 522.6,235.1 529.7,231.5 536.8,228.4 544.1,225.7 551.6,223.3 559.1,221.4 566.6,219.9 574.2,218.9 581.9,218.2 589.5,218.0 597.1,218.2 604.6,218.8 612.1,219.8 619.5,221.2 626.7,223.0 633.8,225.2 640.8,227.8 647.6,230.7 654.2,234.0 660.5,237.6 666.7,241.5 672.5,245.8 678.2,250.4 683.5,255.2 688.5,260.3 693.3,265.7 697.7,271.2 701.8,277.0 705.5,283.0 708.9,289.1 712.0,295.4 714.7,301.9 717.0,308.4 718.9,315.0 720.5,321.7 721.7,328.5 722.5,335.2 723.0,342.0 723.1,348.7 722.8,355.5 722.1,362.1 721.1,368.7 719.8,375.2 718.1,381.6 716.0,387.8 713.6,393.9 710.9,399.9 707.9,405.6 704.6,411.1 701.1,416.5 697.2,421.6 693.1,426.4 688.8,431.1 684.2,435.4 679.4,439.5 674.5,443.3 669.3,446.7 664.0,449.9 658.6,452.8 653.0,455.4 647.3,457.6 641.6,459.5 635.8,461.1 629.9,462.4 624.0,463.3 618.1,463.9 612.2,464.2 606.3,464.1 600.4,463.7 594.7,463.1 589.0,462.1 583.3,460.8 577.8,459.2 572.5,457.3 567.2,455.1 562.1,452.6 557.2,449.9 552.5,447.0 547.9,443.8 543.6,440.4 539.5,436.7 535.6,432.9 531.9,428.9 528.5,424.7 525.4,420.3 522.5,415.8 519.8,411.2 517.5,406.5 515.4,401.7 513.6,396.8 512.1,391.8 510.8,386.8 509.9,381.8 509.2,376.7 508.8,371.6 508.7,366.6 508.9,361.6 509.3,356.6 510.0,351.7 511.0,346.9 512.2,342.2 513.7,337.5 515.4,333.0 517.4,328.6 519.5,324.4 521.9,320.3 524.5,316.3 527.3,312.6 530.3,309.0 533.5,305.6 536.8,302.4 540.3,299.5 543.9,296.7 547.6,294.2 551.4,291.8 555.3,289.8 559.3,287.9 563.4,286.3 567.5,284.9 571.7,283.8 575.9,282.9 580.1,282.2 584.3,281.8 588.5,281.6 592.7,281.6 596.9,281.9 600.9,282.4 605.0,283.1 608.9,284.0 612.8,285.1 616.5,286.5 620.2,288.0 623.7,289.7 627.1,291.6 630.4,293.7 633.6,296.0 636.5,298.3 639.4,300.9 642.0,303.5 644.5,306.3 646.8,309.2 648.9,312.2 650.9,315.3 652.6,318.4 654.2,321.7 655.5,324.9 656.7,328.3 657.7,331.6 658.5,335.0 659.0,338.4 659.4,341.7 659.6,345.1 659.6,348.4 659.5,351.8 659.1,355.0 658.6,358.2 657.9,361.4 657.0,364.4 656.0,367.4 654.8,370.3 653.4,373.1 652.0,375.8 650.4,378.4 648.6,380.9 646.8,383.2 644.8,385.4 642.7,387.5 640.6,389.4 638.3,391.2 636.0,392.9 633.6,394.4 631.2,395.7 628.7,396.9 626.2,397.9 623.7,398.8 621.1,399.6 618.6,400.1 616.0,400.6 613.4,400.8 610.9,401.0 608.4,401.0 605.9,400.8 603.5,400.5 601.1,400.1 598.8,399.5 596.5,398.8 594.3,398.0 592.2,397.1 590.1,396.1 588.2,395.0 586.3,393.8 584.6,392.5 582.9,391.1 581.4,389.6 579.9,388.1 578.6,386.5" fill="none" stroke="#f4f0e8" stroke-width="2.2" stroke-linecap="round"/><polyline points="680.0,182.5 684.3,182.9 688.6,183.4 692.9,184.2 697.1,185.1 701.3,186.3 705.4,187.6 709.4,189.1 713.3,190.8 717.1,192.6 720.9,194.7 724.5,196.9 728.0,199.2 731.4,201.7 734.6,204.4 737.8,207.2 740.7,210.1 743.6,213.2 746.3,216.3 748.8,219.6 751.2,223.0 753.4,226.5 755.4,230.0 757.2,233.7 758.9,237.4 760.4,241.2 761.8,245.0 762.9,248.9 763.9,252.8 764.6,256.8 765.2,260.7 765.6,264.7 765.8,268.7 765.9,272.7 765.7,276.6 765.4,280.6 764.9,284.5 764.2,288.4 763.3,292.2 762.3,295.9 761.1,299.6 759.7,303.3 758.2,306.8 756.5,310.3 754.6,313.7 752.6,316.9 750.5,320.1 748.2,323.2 745.8,326.1 743.3,328.9 740.6,331.6 737.9,334.1 735.0,336.6 732.0,338.8 729.0,341.0 725.8,342.9 722.6,344.8 719.3,346.4 716.0,347.9 712.5,349.3 709.1,350.5 705.6,351.5 702.1,352.3 698.5,353.0 694.9,353.5 691.4,353.9 687.8,354.1 684.2,354.1 680.6,353.9 677.1,353.6 673.6,353.2 670.1,352.5 666.7,351.7 663.3,350.8 660.0,349.7 656.8,348.5 653.6,347.1 650.5,345.5 647.5,343.9 644.6,342.1 641.8,340.2 639.0,338.1 636.4,336.0 633.9,333.7 631.5,331.3 629.2,328.8 627.1,326.3 625.1,323.6 623.2,320.9 621.5,318.1 619.8,315.2 618.4,312.2 617.0,309.2 615.9,306.2 614.8,303.1 613.9,300.0 613.2,296.9 612.6,293.7 612.1,290.5 611.9,287.4 611.7,284.2 611.7,281.0 611.9,277.9 612.1,274.7 612.6,271.6 613.2,268.6 613.9,265.5 614.7,262.6 615.7,259.6 616.8,256.8 618.1,254.0 619.4,251.2 620.9,248.6 622.5,246.0 624.2,243.5 626.0,241.1 627.9,238.8 630.0,236.7 632.1,234.6 634.3,232.6 636.5,230.7 638.9,229.0 641.3,227.3 643.8,225.8 646.3,224.4 648.9,223.1 651.5,222.0 654.2,221.0 656.9,220.1 659.6,219.3 662.4,218.7 665.2,218.2 667.9,217.8 670.7,217.6 673.5,217.5 676.3,217.5 679.0,217.6 681.7,217.9 684.4,218.3 687.1,218.8 689.7,219.5 692.3,220.2 694.8,221.1 697.3,222.1 699.7,223.2 702.1,224.4 704.4,225.7 706.6,227.1 708.7,228.6 710.8,230.2 712.8,231.9 714.7,233.7 716.4,235.5 718.1,237.4 719.7,239.4 721.2,241.4 722.6,243.5 723.9,245.7 725.1,247.9 726.2,250.1 727.1,252.4 728.0,254.7 728.7,257.0 729.3,259.4 729.8,261.7 730.3,264.1 730.5,266.5 730.7,268.9 730.8,271.2 730.7,273.6 730.6,275.9 730.3,278.3 729.9,280.6 729.5,282.8 728.9,285.1 728.2,287.2 727.4,289.4 726.6,291.5 725.6,293.5 724.6,295.5 723.4,297.4 722.2,299.3 720.9,301.1 719.6,302.8 718.1,304.5 716.6,306.0 715.0,307.5 713.4,308.9 711.7,310.2 710.0,311.5 708.2,312.6 706.4,313.6 704.5,314.6 702.6,315.5 700.7,316.3 698.8,316.9 696.8,317.5 694.9,318.0 692.9,318.4 690.9,318.7 688.9,318.9 686.9,319.0 685.0,319.0 683.0,319.0 681.1,318.8 679.1,318.5 677.2,318.2 675.4,317.8 673.5,317.3 671.7,316.7 670.0,316.0 668.3,315.2 666.6,314.4 665.0,313.5 663.4,312.6 661.9,311.5 660.5,310.4 659.1,309.3 657.8,308.1 656.6,306.8 655.4,305.5 654.3,304.2 653.2,302.8 652.3,301.3 651.4,299.9 650.6,298.4 649.8,296.9 649.2,295.3 648.6,293.8 648.1,292.2 647.7,290.6 647.3,289.0 647.0,287.4 646.8,285.8 646.7,284.2 646.7,282.6 646.7,281.1 646.8,279.5 647.0,278.0 647.2,276.5 647.6,275.0 647.9,273.5 648.4,272.1 648.9,270.7 649.5,269.3 650.1,268.0 650.8,266.7 651.6,265.5 652.3,264.3 653.2,263.1 654.1,262.0 655.0,261.0 656.0,260.0 657.0,259.1 658.1,258.2 659.1,257.4 660.2,256.6 661.4,255.9 662.5,255.3 663.7,254.7 664.9,254.2 666.1,253.8 667.3,253.4 668.5,253.1 669.7,252.8 670.9,252.6 672.1,252.4 673.3,252.4 674.5,252.3 675.7,252.4 676.9,252.4 678.1,252.6 679.2,252.8 680.3,253.0 681.4,253.3 682.5,253.7 683.5,254.1 684.5,254.5 685.5,255.0 686.4,255.5 687.3,256.1 688.2,256.7 689.0,257.3 689.8,258.0 690.5,258.6 691.2,259.4 691.8,260.1 692.4,260.9 693.0,261.7 693.5,262.5 694.0,263.3 694.4,264.1 694.8,265.0 695.1,265.8 695.4,266.7 695.7,267.5 695.8,268.4 696.0,269.2 696.1,270.1 696.2,270.9 696.2,271.7" fill="none" stroke="#c0392b" stroke-width="1.4" stroke-linecap="round"/>
<rect x="0" y="0" width="1200" height="8" fill="#c0392b"/>
<rect x="0" y="603" width="1200" height="72" fill="#0d0d0d"/>
<rect width="1200" height="18" fill="#0d0d0d"/><polygon points="0.0,0 50.0,0 25.0,18" fill="#c0392b"/><polygon points="50.0,0 100.0,0 75.0,18" fill="#c0392b"/><polygon points="100.0,0 150.0,0 125.0,18" fill="#c0392b"/><polygon points="150.0,0 200.0,0 175.0,18" fill="#c0392b"/><polygon points="200.0,0 250.0,0 225.0,18" fill="#c0392b"/><polygon points="250.0,0 300.0,0 275.0,18" fill="#c0392b"/><polygon points="300.0,0 350.0,0 325.0,18" fill="#c0392b"/><polygon points="350.0,0 400.0,0 375.0,18" fill="#c0392b"/><polygon points="400.0,0 450.0,0 425.0,18" fill="#c0392b"/><polygon points="450.0,0 500.0,0 475.0,18" fill="#c0392b"/><polygon points="500.0,0 550.0,0 525.0,18" fill="#c0392b"/><polygon points="550.0,0 600.0,0 575.0,18" fill="#c0392b"/><polygon points="600.0,0 650.0,0 625.0,18" fill="#c0392b"/><polygon points="650.0,0 700.0,0 675.0,18" fill="#c0392b"/><polygon points="700.0,0 750.0,0 725.0,18" fill="#c0392b"/><polygon points="750.0,0 800.0,0 775.0,18" fill="#c0392b"/><polygon points="800.0,0 850.0,0 825.0,18" fill="#c0392b"/><polygon points="850.0,0 900.0,0 875.0,18" fill="#c0392b"/><polygon points="900.0,0 950.0,0 925.0,18" fill="#c0392b"/><polygon points="950.0,0 1000.0,0 975.0,18" fill="#c0392b"/><polygon points="1000.0,0 1050.0,0 1025.0,18" fill="#c0392b"/><polygon points="1050.0,0 1100.0,0 1075.0,18" fill="#c0392b"/><polygon points="1100.0,0 1150.0,0 1125.0,18" fill="#c0392b"/><polygon points="1150.0,0 1200.0,0 1175.0,18" fill="#c0392b"/>
<text x="600" y="287" font-family="Georgia,serif" font-size="86" font-weight="bold"
  fill="#f4f0e8" text-anchor="middle">HE ARA HOU</text>
<text x="600" y="357" font-family="Arial,sans-serif" font-size="43"
  font-weight="bold" fill="#c0392b" text-anchor="middle">A NEW PATH</text>
<text x="600" y="399" font-family="Arial,sans-serif" font-size="21"
  fill="#f4f0e8" text-anchor="middle" opacity="0.7">Koru — the unfurling frond, perpetual motion.</text>
<text x="600" y="653" font-family="Arial,sans-serif" font-size="20" font-weight="bold"
  fill="#f4f0e8" text-anchor="middle">THE KIWI DIALECTIC · kiwidialectic.com · Te Pā Tūwatawata</text>
</svg>