<svg xmlns="http://www.w3.org/2000/svg" width="1080" height="1920" viewBox="0 0 1080 1920">
<rect width="1080" height="1920" fill="#0d0d0d"/>
<polyline points="540.0,656.0 557.6,657.4 575.0,659.7 592.3,662.9 609.3,667.1 625.9,672.2 642.3,678.2 658.2,685.0 673.7,692.7 688.8,701.2 703.3,710.4 717.2,720.5 730.5,731.2 743.2,742.6 755.2,754.6 766.5,767.3 777.1,780.5 786.9,794.2 795.9,808.4 804.1,823.1 811.4,838.1 817.9,853.4 823.6,869.1 828.4,885.0 832.3,901.0 835.3,917.2 837.4,933.5 838.6,949.9 838.9,966.2 838.3,982.5 836.8,998.7 834.5,1014.7 831.3,1030.5 827.3,1046.1 822.4,1061.4 816.7,1076.4 810.2,1090.9 803.0,1105.1 795.0,1118.8 786.3,1132.0 777.0,1144.7 767.0,1156.8 756.3,1168.3 745.1,1179.2 733.4,1189.4 721.1,1198.9 708.4,1207.8 695.3,1215.9 681.8,1223.2 667.9,1229.8 653.8,1235.5 639.4,1240.5 624.8,1244.7 610.0,1248.1 595.2,1250.6 580.2,1252.3 565.3,1253.2 550.3,1253.3 535.4,1252.6 520.7,1251.1 506.1,1248.7 491.6,1245.6 477.5,1241.7 463.6,1237.1 450.0,1231.7 436.8,1225.6 423.9,1218.8 411.5,1211.4 399.6,1203.3 388.2,1194.6 377.3,1185.3 366.9,1175.5 357.1,1165.2 348.0,1154.3 339.5,1143.1 331.6,1131.4 324.4,1119.4 317.9,1107.0 312.1,1094.3 307.1,1081.4 302.7,1068.2 299.1,1054.9 296.3,1041.5 294.1,1028.0 292.8,1014.4 292.1,1000.8 292.3,987.3 293.1,973.8 294.7,960.4 297.0,947.2 300.0,934.2 303.7,921.4 308.1,908.9 313.2,896.7 318.8,884.8 325.1,873.3 332.0,862.2 339.5,851.6 347.5,841.4 356.0,831.7 365.0,822.5 374.5,813.8 384.4,805.7 394.6,798.2 405.3,791.3 416.2,785.0 427.5,779.3 438.9,774.2 450.6,769.9 462.5,766.1 474.5,763.1 486.6,760.7 498.8,759.0 511.0,758.0 523.2,757.6 535.3,757.9 547.4,758.9 559.4,760.5 571.2,762.7 582.8,765.6 594.1,769.1 605.3,773.2 616.1,777.9 626.7,783.2 636.8,789.0 646.7,795.3 656.1,802.1 665.0,809.4 673.6,817.1 681.7,825.3 689.2,833.9 696.3,842.8 702.8,852.0 708.8,861.6 714.3,871.4 719.2,881.5 723.5,891.8 727.2,902.2 730.3,912.8 732.8,923.5 734.7,934.3 736.1,945.1 736.8,956.0 736.9,966.8 736.5,977.5 735.4,988.2 733.8,998.7 731.6,1009.1 728.9,1019.3 725.6,1029.3 721.8,1039.1 717.5,1048.6 712.7,1057.8 707.4,1066.6 701.7,1075.2 695.5,1083.3 689.0,1091.1 682.0,1098.5 674.7,1105.4 667.1,1112.0 659.1,1118.0 650.9,1123.6 642.4,1128.7 633.7,1133.3 624.8,1137.4 615.7,1140.9 606.5,1144.0 597.2,1146.6 587.8,1148.6 578.4,1150.1 568.9,1151.0 559.5,1151.5 550.1,1151.4 540.7,1150.8 531.5,1149.7 522.3,1148.1 513.4,1146.0 504.5,1143.4 495.9,1140.4 487.5,1136.9 479.4,1133.0 471.5,1128.7 464.0,1124.0 456.7,1118.9 449.8,1113.4 443.2,1107.6 436.9,1101.4 431.1,1095.0 425.6,1088.3 420.6,1081.3 416.0,1074.2 411.7,1066.8 408.0,1059.2 404.6,1051.5 401.8,1043.6 399.3,1035.7 397.3,1027.7 395.8,1019.6 394.7,1011.5 394.1,1003.4 393.9,995.4 394.2,987.3 394.9,979.4 396.0,971.5 397.6,963.8 399.5,956.2 401.9,948.8 404.7,941.6 407.8,934.6 411.3,927.8 415.1,921.2 419.3,914.9 423.8,908.9 428.5,903.2 433.6,897.8 438.9,892.7 444.4,887.9 450.2,883.5 456.1,879.5 462.2,875.8 468.5,872.4 474.9,869.4 481.5,866.9 488.1,864.6 494.7,862.8 501.5,861.4 508.2,860.3 514.9,859.6 521.7,859.3 528.3,859.4 535.0,859.8 541.5,860.6 547.9,861.7 554.3,863.2 560.4,865.0 566.5,867.2 572.3,869.6 578.0,872.4 583.4,875.4 588.7,878.8 593.7,882.3 598.5,886.1 603.0,890.2 607.2,894.5 611.2,898.9 614.9,903.5 618.3,908.3 621.4,913.2 624.2,918.3 626.7,923.5 628.9,928.7 630.7,934.0 632.3,939.4 633.5,944.8 634.5,950.2 635.1,955.6 635.4,961.0 635.4,966.3 635.1,971.6 634.6,976.8 633.7,982.0 632.6,987.0 631.2,991.9 629.5,996.7 627.6,1001.3 625.5,1005.8 623.1,1010.1 620.6,1014.3 617.8,1018.2 614.8,1021.9 611.7,1025.5 608.4,1028.8 604.9,1031.9 601.3,1034.8 597.6,1037.4 593.8,1039.8 589.9,1041.9 586.0,1043.9 582.0,1045.5 577.9,1046.9 573.8,1048.1 569.7,1049.0 565.6,1049.7 561.5,1050.2 557.4,1050.4 553.4,1050.3 549.5,1050.1 545.6,1049.6 541.7,1048.9 538.0,1048.0 534.4,1046.9 530.9,1045.7 527.5,1044.2 524.2,1042.6 521.1,1040.8 518.1,1038.8 515.3,1036.7 512.7,1034.5 510.2,1032.2 507.9,1029.7 505.7,1027.2" fill="none" stroke="#f4f0e8" stroke-width="2.2" stroke-linecap="round"/><polyline points="620.0,748.8 626.9,749.4 633.8,750.3 640.7,751.5 647.4,753.0 654.1,754.8 660.6,756.9 667.0,759.3 673.3,762.0 679.4,765.0 685.4,768.3 691.2,771.8 696.8,775.6 702.2,779.6 707.4,783.8 712.4,788.3 717.2,793.0 721.7,797.8 726.0,802.9 730.1,808.2 733.9,813.6 737.4,819.2 740.6,824.9 743.6,830.7 746.3,836.7 748.7,842.7 750.8,848.8 752.6,855.1 754.2,861.3 755.4,867.6 756.3,874.0 757.0,880.4 757.3,886.7 757.4,893.1 757.1,899.4 756.6,905.7 755.8,912.0 754.7,918.2 753.3,924.3 751.6,930.3 749.7,936.2 747.5,942.0 745.1,947.7 742.3,953.2 739.4,958.6 736.2,963.9 732.8,969.0 729.1,973.8 725.3,978.5 721.2,983.0 717.0,987.3 712.6,991.4 708.0,995.3 703.2,998.9 698.4,1002.3 693.3,1005.5 688.2,1008.4 682.9,1011.1 677.5,1013.5 672.1,1015.6 666.5,1017.5 660.9,1019.2 655.3,1020.5 649.6,1021.6 643.9,1022.4 638.2,1023.0 632.4,1023.3 626.7,1023.3 621.0,1023.1 615.4,1022.6 609.8,1021.8 604.2,1020.8 598.7,1019.6 593.4,1018.1 588.1,1016.3 582.9,1014.3 577.8,1012.1 572.8,1009.7 568.0,1007.0 563.3,1004.1 558.8,1001.1 554.4,997.8 550.3,994.3 546.2,990.7 542.4,986.9 538.8,982.9 535.4,978.8 532.1,974.6 529.1,970.2 526.3,965.7 523.7,961.1 521.4,956.4 519.3,951.6 517.4,946.7 515.7,941.8 514.3,936.8 513.1,931.8 512.2,926.7 511.4,921.7 511.0,916.6 510.7,911.5 510.7,906.4 511.0,901.4 511.4,896.4 512.1,891.4 513.0,886.5 514.2,881.6 515.5,876.9 517.1,872.2 518.9,867.6 520.9,863.1 523.1,858.8 525.4,854.5 528.0,850.4 530.7,846.5 533.6,842.6 536.7,839.0 539.9,835.4 543.3,832.1 546.8,828.9 550.4,825.9 554.2,823.1 558.1,820.5 562.0,818.1 566.1,815.8 570.2,813.8 574.4,812.0 578.7,810.3 583.0,808.9 587.4,807.7 591.8,806.7 596.3,805.9 600.7,805.3 605.1,804.9 609.6,804.7 614.0,804.8 618.4,805.0 622.8,805.5 627.1,806.1 631.4,806.9 635.6,808.0 639.7,809.2 643.8,810.6 647.7,812.2 651.6,813.9 655.4,815.9 659.0,817.9 662.6,820.2 666.0,822.6 669.3,825.1 672.4,827.8 675.4,830.6 678.3,833.6 681.0,836.6 683.6,839.8 686.0,843.1 688.2,846.4 690.3,849.9 692.1,853.4 693.9,856.9 695.4,860.6 696.8,864.3 697.9,868.0 698.9,871.8 699.8,875.6 700.4,879.4 700.9,883.2 701.1,887.0 701.2,890.8 701.2,894.6 700.9,898.3 700.5,902.0 699.9,905.7 699.2,909.3 698.2,912.9 697.2,916.4 695.9,919.8 694.5,923.2 693.0,926.5 691.3,929.6 689.5,932.7 687.6,935.7 685.5,938.5 683.3,941.3 681.0,943.9 678.6,946.4 676.1,948.8 673.5,951.0 670.8,953.2 668.0,955.1 665.1,957.0 662.2,958.6 659.3,960.2 656.2,961.6 653.2,962.8 650.1,963.9 646.9,964.8 643.8,965.6 640.6,966.2 637.4,966.7 634.3,967.0 631.1,967.2 627.9,967.3 624.8,967.1 621.7,966.9 618.6,966.5 615.6,965.9 612.6,965.2 609.7,964.4 606.8,963.5 604.0,962.4 601.2,961.2 598.6,959.9 596.0,958.4 593.5,956.9 591.1,955.3 588.8,953.5 586.6,951.7 584.5,949.7 582.5,947.7 580.6,945.6 578.8,943.5 577.2,941.2 575.6,939.0 574.2,936.6 572.9,934.2 571.7,931.8 570.7,929.3 569.7,926.8 568.9,924.3 568.2,921.8 567.7,919.2 567.2,916.7 566.9,914.1 566.7,911.6 566.7,909.0 566.7,906.5 566.9,904.0 567.2,901.5 567.6,899.1 568.1,896.7 568.7,894.4 569.4,892.1 570.2,889.9 571.2,887.7 572.2,885.6 573.3,883.5 574.5,881.5 575.8,879.6 577.1,877.8 578.5,876.1 580.0,874.4 581.6,872.8 583.2,871.3 584.9,869.9 586.6,868.6 588.4,867.4 590.2,866.3 592.0,865.3 593.9,864.4 595.8,863.6 597.7,862.8 599.6,862.2 601.6,861.7 603.5,861.3 605.5,860.9 607.4,860.7 609.3,860.6 611.3,860.5 613.2,860.6 615.0,860.7 616.9,860.9 618.7,861.2 620.5,861.6 622.2,862.1 623.9,862.7 625.6,863.3 627.2,864.0 628.7,864.8 630.2,865.6 631.7,866.5 633.0,867.4 634.4,868.5 635.6,869.5 636.8,870.6 637.9,871.8 638.9,873.0 639.9,874.2 640.8,875.5 641.6,876.8 642.4,878.1 643.1,879.4 643.7,880.7 644.2,882.1 644.7,883.5 645.0,884.8 645.4,886.2 645.6,887.6 645.8,888.9 645.9,890.3 645.9,891.6" fill="none" stroke="#c0392b" stroke-width="1.4" stroke-linecap="round"/>
<rect x="0" y="0" width="1080" height="8" fill="#c0392b"/>
<rect x="0" y="1848" width="1080" height="72" fill="#0d0d0d"/>
<rect width="1080" height="18" fill="#0d0d0d"/><polygon points="0.0,0 45.0,0 22.5,18" fill="#c0392b"/><polygon points="45.0,0 90.0,0 67.5,18" fill="#c0392b"/><polygon points="90.0,0 135.0,0 112.5,18" fill="#c0392b"/><polygon points="135.0,0 180.0,0 157.5,18" fill="#c0392b"/><polygon points="180.0,0 225.0,0 202.5,18" fill="#c0392b"/><polygon points="225.0,0 270.0,0 247.5,18" fill="#c0392b"/><polygon points="270.0,0 315.0,0 292.5,18" fill="#c0392b"/><polygon points="315.0,0 360.0,0 337.5,18" fill="#c0392b"/><polygon points="360.0,0 405.0,0 382.5,18" fill="#c0392b"/><polygon points="405.0,0 450.0,0 427.5,18" fill="#c0392b"/><polygon points="450.0,0 495.0,0 472.5,18" fill="#c0392b"/><polygon points="495.0,0 540.0,0 517.5,18" fill="#c0392b"/><polygon points="540.0,0 585.0,0 562.5,18" fill="#c0392b"/><polygon points="585.0,0 630.0,0 607.5,18" fill="#c0392b"/><polygon points="630.0,0 675.0,0 652.5,18" fill="#c0392b"/><polygon points="675.0,0 720.0,0 697.5,18" fill="#c0392b"/><polygon points="720.0,0 765.0,0 742.5,18" fill="#c0392b"/><polygon points="765.0,0 810.0,0 787.5,18" fill="#c0392b"/><polygon points="810.0,0 855.0,0 832.5,18" fill="#c0392b"/><polygon points="855.0,0 900.0,0 877.5,18" fill="#c0392b"/><polygon points="900.0,0 945.0,0 922.5,18" fill="#c0392b"/><polygon points="945.0,0 990.0,0 967.5,18" fill="#c0392b"/><polygon points="990.0,0 1035.0,0 1012.5,18" fill="#c0392b"/><polygon points="1035.0,0 1080.0,0 1057.5,18" fill="#c0392b"/>
<text x="540" y="910" font-family="Georgia,serif" font-size="86" font-weight="bold"
  fill="#f4f0e8" text-anchor="middle">HE ARA HOU</text>
<text x="540" y="980" font-family="Arial,sans-serif" font-size="43"
  font-weight="bold" fill="#c0392b" text-anchor="middle">A NEW PATH</text>
<text x="540" y="1022" font-family="Arial,sans-serif" font-size="21"
  fill="#f4f0e8" text-anchor="middle" opacity="0.7">Koru — the unfurling frond, perpetual motion.</text>
<text x="540" y="1898" font-family="Arial,sans-serif" font-size="20" font-weight="bold"
  fill="#f4f0e8" text-anchor="middle">THE KIWI DIALECTIC · kiwidialectic.com · Te Pā Tūwatawata</text>
</svg>