<svg xmlns="http://www.w3.org/2000/svg" width="1200" height="630" viewBox="0 0 1200 630">
<rect width="1200" height="630" fill="#0d0d0d"/>
<polyline points="600.0,146.0 610.3,146.8 620.4,148.1 630.5,150.0 640.4,152.5 650.1,155.5 659.7,158.9 669.0,162.9 678.0,167.4 686.8,172.3 695.2,177.8 703.4,183.6 711.1,189.9 718.5,196.5 725.5,203.5 732.1,210.9 738.3,218.6 744.0,226.6 749.3,234.9 754.0,243.5 758.3,252.2 762.1,261.2 765.4,270.3 768.2,279.6 770.5,288.9 772.2,298.4 773.5,307.9 774.2,317.4 774.3,327.0 774.0,336.5 773.2,345.9 771.8,355.2 769.9,364.5 767.6,373.6 764.7,382.5 761.4,391.2 757.6,399.7 753.4,408.0 748.8,416.0 743.7,423.7 738.2,431.1 732.4,438.1 726.2,444.8 719.7,451.2 712.8,457.2 705.7,462.7 698.2,467.9 690.6,472.6 682.7,476.9 674.6,480.7 666.4,484.1 658.0,487.0 649.5,489.4 640.8,491.4 632.2,492.9 623.5,493.9 614.7,494.4 606.0,494.4 597.3,494.0 588.7,493.1 580.2,491.8 571.8,489.9 563.5,487.7 555.4,485.0 547.5,481.8 539.8,478.3 532.3,474.3 525.1,470.0 518.1,465.3 511.4,460.2 505.1,454.8 499.0,449.0 493.3,443.0 488.0,436.7 483.0,430.1 478.4,423.3 474.2,416.3 470.5,409.1 467.1,401.7 464.1,394.1 461.6,386.5 459.5,378.7 457.8,370.9 456.6,363.0 455.8,355.1 455.4,347.1 455.5,339.2 456.0,331.4 456.9,323.6 458.3,315.9 460.0,308.3 462.2,300.8 464.7,293.5 467.7,286.4 471.0,279.5 474.7,272.8 478.7,266.3 483.0,260.1 487.7,254.1 492.7,248.5 497.9,243.1 503.5,238.0 509.2,233.3 515.2,228.9 521.4,224.9 527.8,221.2 534.3,217.9 541.0,215.0 547.9,212.4 554.8,210.2 561.8,208.5 568.9,207.1 576.0,206.1 583.1,205.5 590.2,205.3 597.3,205.4 604.3,206.0 611.3,206.9 618.2,208.3 624.9,209.9 631.6,212.0 638.1,214.4 644.4,217.1 650.5,220.2 656.5,223.6 662.2,227.2 667.7,231.2 672.9,235.5 677.9,240.0 682.6,244.8 687.1,249.8 691.2,255.0 695.0,260.4 698.5,265.9 701.7,271.7 704.5,277.5 707.0,283.5 709.2,289.6 711.0,295.8 712.5,302.1 713.6,308.4 714.4,314.7 714.8,321.0 714.9,327.3 714.6,333.6 714.0,339.8 713.0,345.9 711.8,352.0 710.2,357.9 708.3,363.8 706.1,369.5 703.5,375.0 700.7,380.4 697.7,385.5 694.3,390.5 690.7,395.3 686.9,399.8 682.8,404.1 678.6,408.2 674.1,412.0 669.5,415.5 664.7,418.8 659.7,421.7 654.7,424.4 649.5,426.8 644.2,428.9 638.8,430.7 633.4,432.2 627.9,433.3 622.4,434.2 616.9,434.8 611.4,435.0 605.9,435.0 600.4,434.6 595.0,434.0 589.7,433.1 584.5,431.8 579.3,430.3 574.3,428.6 569.4,426.6 564.7,424.3 560.1,421.7 555.6,419.0 551.4,416.0 547.4,412.8 543.5,409.4 539.9,405.8 536.5,402.1 533.3,398.2 530.3,394.1 527.6,389.9 525.2,385.6 523.0,381.2 521.0,376.7 519.4,372.1 517.9,367.5 516.8,362.8 515.9,358.1 515.3,353.4 514.9,348.7 514.8,344.0 514.9,339.3 515.4,334.6 516.0,330.1 516.9,325.6 518.1,321.1 519.4,316.8 521.1,312.6 522.9,308.5 524.9,304.5 527.1,300.7 529.6,297.0 532.2,293.5 535.0,290.2 537.9,287.0 541.0,284.1 544.2,281.3 547.6,278.7 551.1,276.4 554.6,274.2 558.3,272.2 562.0,270.5 565.8,269.0 569.7,267.7 573.6,266.6 577.5,265.8 581.4,265.2 585.4,264.8 589.3,264.6 593.2,264.6 597.1,264.9 600.9,265.3 604.6,266.0 608.3,266.9 611.9,267.9 615.4,269.2 618.9,270.6 622.2,272.2 625.3,274.0 628.4,275.9 631.3,278.0 634.1,280.3 636.7,282.6 639.2,285.1 641.5,287.7 643.7,290.4 645.7,293.2 647.5,296.1 649.1,299.0 650.6,302.0 651.8,305.1 652.9,308.2 653.8,311.3 654.6,314.4 655.1,317.6 655.5,320.8 655.7,323.9 655.7,327.0 655.5,330.1 655.2,333.2 654.7,336.1 654.0,339.1 653.2,341.9 652.2,344.7 651.1,347.4 649.9,350.1 648.5,352.6 647.0,355.0 645.4,357.3 643.6,359.5 641.8,361.5 639.9,363.5 637.9,365.3 635.8,366.9 633.6,368.5 631.4,369.9 629.1,371.1 626.8,372.2 624.5,373.2 622.1,374.0 619.7,374.7 617.3,375.3 614.9,375.7 612.5,375.9 610.2,376.0 607.8,376.0 605.5,375.9 603.2,375.6 601.0,375.2 598.8,374.7 596.7,374.0 594.7,373.3 592.7,372.4 590.8,371.5 589.0,370.4 587.2,369.3 585.6,368.1 584.1,366.8 582.6,365.4 581.3,364.0 580.0,362.5" fill="none" stroke="#f4f0e8" stroke-width="2.2" stroke-linecap="round"/><polyline points="680.0,166.8 684.1,167.1 688.1,167.7 692.1,168.4 696.0,169.2 699.9,170.3 703.7,171.5 707.4,172.9 711.1,174.5 714.7,176.3 718.1,178.2 721.5,180.2 724.8,182.4 728.0,184.7 731.0,187.2 733.9,189.8 736.7,192.6 739.3,195.4 741.8,198.4 744.2,201.4 746.4,204.6 748.5,207.8 750.4,211.2 752.1,214.6 753.7,218.0 755.1,221.6 756.3,225.2 757.4,228.8 758.3,232.4 759.0,236.1 759.5,239.8 759.9,243.5 760.1,247.3 760.1,251.0 760.0,254.7 759.7,258.3 759.2,262.0 758.6,265.6 757.8,269.2 756.8,272.7 755.7,276.1 754.4,279.5 752.9,282.8 751.4,286.1 749.6,289.2 747.8,292.3 745.8,295.2 743.7,298.1 741.4,300.8 739.1,303.4 736.6,306.0 734.0,308.3 731.3,310.6 728.6,312.7 725.7,314.7 722.8,316.5 719.8,318.2 716.7,319.8 713.6,321.2 710.4,322.5 707.1,323.6 703.9,324.5 700.6,325.3 697.3,325.9 693.9,326.4 690.6,326.8 687.3,326.9 683.9,326.9 680.6,326.8 677.3,326.5 674.0,326.1 670.8,325.5 667.6,324.7 664.5,323.9 661.4,322.8 658.3,321.7 655.4,320.4 652.5,319.0 649.7,317.4 646.9,315.7 644.3,313.9 641.8,312.0 639.3,310.0 637.0,307.9 634.7,305.7 632.6,303.4 630.6,301.0 628.7,298.5 627.0,295.9 625.4,293.3 623.8,290.6 622.5,287.9 621.2,285.1 620.1,282.3 619.2,279.4 618.3,276.5 617.6,273.5 617.1,270.6 616.7,267.6 616.4,264.7 616.3,261.7 616.3,258.7 616.4,255.8 616.7,252.9 617.1,250.0 617.6,247.1 618.3,244.3 619.1,241.5 620.0,238.8 621.0,236.1 622.2,233.5 623.5,231.0 624.8,228.5 626.3,226.1 627.9,223.8 629.6,221.5 631.4,219.4 633.3,217.3 635.3,215.4 637.3,213.5 639.4,211.8 641.6,210.2 643.9,208.6 646.2,207.2 648.6,205.9 651.0,204.7 653.4,203.6 655.9,202.7 658.4,201.9 661.0,201.2 663.6,200.6 666.1,200.1 668.7,199.8 671.3,199.5 673.9,199.4 676.5,199.5 679.1,199.6 681.6,199.9 684.1,200.2 686.6,200.7 689.1,201.3 691.5,202.0 693.9,202.8 696.2,203.8 698.4,204.8 700.6,205.9 702.8,207.1 704.8,208.4 706.8,209.8 708.7,211.3 710.6,212.9 712.3,214.5 714.0,216.3 715.6,218.0 717.1,219.9 718.5,221.8 719.8,223.7 721.0,225.7 722.1,227.8 723.1,229.9 724.0,232.0 724.8,234.2 725.5,236.3 726.0,238.5 726.5,240.7 726.9,243.0 727.2,245.2 727.3,247.4 727.4,249.6 727.4,251.8 727.2,254.0 727.0,256.2 726.6,258.3 726.2,260.4 725.6,262.5 725.0,264.6 724.3,266.6 723.5,268.5 722.6,270.4 721.6,272.3 720.5,274.1 719.4,275.8 718.2,277.5 716.9,279.1 715.6,280.6 714.2,282.1 712.7,283.5 711.2,284.8 709.6,286.0 708.0,287.2 706.3,288.2 704.6,289.2 702.9,290.1 701.1,290.9 699.3,291.6 697.5,292.3 695.7,292.8 693.9,293.3 692.0,293.6 690.2,293.9 688.3,294.1 686.5,294.2 684.6,294.2 682.8,294.2 681.0,294.0 679.2,293.8 677.4,293.5 675.7,293.1 674.0,292.6 672.3,292.0 670.7,291.4 669.1,290.7 667.5,289.9 666.0,289.1 664.6,288.2 663.2,287.2 661.8,286.2 660.5,285.1 659.3,284.0 658.1,282.8 657.0,281.6 656.0,280.4 655.0,279.1 654.1,277.7 653.3,276.4 652.5,275.0 651.8,273.5 651.2,272.1 650.7,270.6 650.2,269.2 649.8,267.7 649.5,266.2 649.2,264.7 649.0,263.2 648.9,261.7 648.9,260.3 648.9,258.8 649.0,257.3 649.2,255.9 649.4,254.5 649.7,253.1 650.1,251.7 650.5,250.4 651.0,249.1 651.5,247.8 652.1,246.6 652.8,245.4 653.4,244.2 654.2,243.1 655.0,242.1 655.8,241.0 656.7,240.1 657.6,239.1 658.5,238.3 659.5,237.5 660.5,236.7 661.5,236.0 662.6,235.4 663.7,234.8 664.8,234.2 665.9,233.7 667.0,233.3 668.1,233.0 669.3,232.7 670.4,232.4 671.5,232.2 672.7,232.1 673.8,232.0 674.9,232.0 676.0,232.0 677.1,232.1 678.2,232.2 679.2,232.4 680.3,232.6 681.3,232.9 682.3,233.2 683.3,233.6 684.2,234.0 685.1,234.4 686.0,234.9 686.8,235.5 687.6,236.0 688.4,236.6 689.1,237.2 689.8,237.9 690.4,238.5 691.1,239.2 691.6,240.0 692.1,240.7 692.6,241.4 693.1,242.2 693.5,243.0 693.8,243.8 694.1,244.6 694.4,245.4 694.6,246.2 694.8,246.9 694.9,247.7 695.0,248.5 695.1,249.3 695.1,250.1" fill="none" stroke="#c0392b" stroke-width="1.4" stroke-linecap="round"/>
<rect x="0" y="0" width="1200" height="8" fill="#c0392b"/>
<rect x="0" y="558" width="1200" height="72" fill="#0d0d0d"/>
<rect width="1200" height="18" fill="#0d0d0d"/><polygon points="0.0,0 50.0,0 25.0,18" fill="#c0392b"/><polygon points="50.0,0 100.0,0 75.0,18" fill="#c0392b"/><polygon points="100.0,0 150.0,0 125.0,18" fill="#c0392b"/><polygon points="150.0,0 200.0,0 175.0,18" fill="#c0392b"/><polygon points="200.0,0 250.0,0 225.0,18" fill="#c0392b"/><polygon points="250.0,0 300.0,0 275.0,18" fill="#c0392b"/><polygon points="300.0,0 350.0,0 325.0,18" fill="#c0392b"/><polygon points="350.0,0 400.0,0 375.0,18" fill="#c0392b"/><polygon points="400.0,0 450.0,0 425.0,18" fill="#c0392b"/><polygon points="450.0,0 500.0,0 475.0,18" fill="#c0392b"/><polygon points="500.0,0 550.0,0 525.0,18" fill="#c0392b"/><polygon points="550.0,0 600.0,0 575.0,18" fill="#c0392b"/><polygon points="600.0,0 650.0,0 625.0,18" fill="#c0392b"/><polygon points="650.0,0 700.0,0 675.0,18" fill="#c0392b"/><polygon points="700.0,0 750.0,0 725.0,18" fill="#c0392b"/><polygon points="750.0,0 800.0,0 775.0,18" fill="#c0392b"/><polygon points="800.0,0 850.0,0 825.0,18" fill="#c0392b"/><polygon points="850.0,0 900.0,0 875.0,18" fill="#c0392b"/><polygon points="900.0,0 950.0,0 925.0,18" fill="#c0392b"/><polygon points="950.0,0 1000.0,0 975.0,18" fill="#c0392b"/><polygon points="1000.0,0 1050.0,0 1025.0,18" fill="#c0392b"/><polygon points="1050.0,0 1100.0,0 1075.0,18" fill="#c0392b"/><polygon points="1100.0,0 1150.0,0 1125.0,18" fill="#c0392b"/><polygon points="1150.0,0 1200.0,0 1175.0,18" fill="#c0392b"/>
<text x="600" y="265" font-family="Georgia,serif" font-size="82" font-weight="bold"
  fill="#f4f0e8" text-anchor="middle">KO WAI NĀU I HANGA?</text>
<text x="600" y="335" font-family="Arial,sans-serif" font-size="41"
  font-weight="bold" fill="#c0392b" text-anchor="middle">WHO BUILT THIS?</text>
<text x="600" y="377" font-family="Arial,sans-serif" font-size="20"
  fill="#f4f0e8" text-anchor="middle" opacity="0.7">The system was designed. It can be redesigned.</text>
<text x="600" y="608" font-family="Arial,sans-serif" font-size="20" font-weight="bold"
  fill="#f4f0e8" text-anchor="middle">THE KIWI DIALECTIC · kiwidialectic.com · Te Pā Tūwatawata</text>
</svg>