<svg xmlns="http://www.w3.org/2000/svg" width="1600" height="900" viewBox="0 0 1600 900">
<rect width="1600" height="900" fill="#0d0d0d"/>
<polyline points="1050.0,252.0 1055.0,259.0 1060.0,265.6 1065.0,271.4 1070.0,276.2 1075.0,279.6 1080.0,281.4 1085.0,281.6 1090.0,280.1 1095.0,277.0 1100.0,272.5 1105.0,266.9 1110.0,260.4 1115.0,253.4 1120.0,246.4 1125.0,239.7 1130.0,233.6 1135.0,228.7 1140.0,225.0 1145.0,222.8 1150.0,222.3 1155.0,223.5 1160.0,226.3 1165.0,230.5 1170.0,235.9 1175.0,242.3 1180.0,249.2 1185.0,256.2 1190.0,263.0 1195.0,269.2 1200.0,274.4 1205.0,278.4 1210.0,280.9 1215.0,281.7 1220.0,280.9 1225.0,278.4 1230.0,274.4 1235.0,269.2 1240.0,263.0 1245.0,256.2 1250.0,249.2 1255.0,242.3 1260.0,235.9 1265.0,230.5 1270.0,226.3 1275.0,223.5 1280.0,222.3 1285.0,222.8 1290.0,225.0 1295.0,228.7 1300.0,233.6 1305.0,239.7 1310.0,246.4 1315.0,253.4 1320.0,260.4 1325.0,266.9 1330.0,272.5 1335.0,277.0 1340.0,280.1 1345.0,281.6 1350.0,281.4 1355.0,279.6 1360.0,276.2 1365.0,271.4 1370.0,265.6 1375.0,259.0 1380.0,252.0 1385.0,245.0 1390.0,238.4 1395.0,232.6 1400.0,227.8 1405.0,224.4 1410.0,222.6 1415.0,222.4 1420.0,223.9 1425.0,227.0 1430.0,231.5 1435.0,237.2 1440.0,243.6 1445.0,250.6" fill="none" stroke="#16a085" stroke-width="1.5" opacity="0.6" stroke-linecap="round"/>
<polyline points="1050.0,318.0 1055.0,325.0 1060.0,331.6 1065.0,337.4 1070.0,342.2 1075.0,345.6 1080.0,347.4 1085.0,347.6 1090.0,346.1 1095.0,343.0 1100.0,338.5 1105.0,332.9 1110.0,326.4 1115.0,319.4 1120.0,312.4 1125.0,305.7 1130.0,299.6 1135.0,294.7 1140.0,291.0 1145.0,288.8 1150.0,288.3 1155.0,289.5 1160.0,292.3 1165.0,296.5 1170.0,301.9 1175.0,308.3 1180.0,315.2 1185.0,322.2 1190.0,329.0 1195.0,335.2 1200.0,340.4 1205.0,344.4 1210.0,346.9 1215.0,347.7 1220.0,346.9 1225.0,344.4 1230.0,340.4 1235.0,335.2 1240.0,329.0 1245.0,322.2 1250.0,315.2 1255.0,308.3 1260.0,301.9 1265.0,296.5 1270.0,292.3 1275.0,289.5 1280.0,288.3 1285.0,288.8 1290.0,291.0 1295.0,294.7 1300.0,299.6 1305.0,305.7 1310.0,312.4 1315.0,319.4 1320.0,326.4 1325.0,332.9 1330.0,338.5 1335.0,343.0 1340.0,346.1 1345.0,347.6 1350.0,347.4 1355.0,345.6 1360.0,342.2 1365.0,337.4 1370.0,331.6 1375.0,325.0 1380.0,318.0 1385.0,311.0 1390.0,304.4 1395.0,298.6 1400.0,293.8 1405.0,290.4 1410.0,288.6 1415.0,288.4 1420.0,289.9 1425.0,293.0 1430.0,297.5 1435.0,303.1 1440.0,309.6 1445.0,316.6" fill="none" stroke="#16a085" stroke-width="1.5" opacity="0.6" stroke-linecap="round"/>
<polyline points="1050.0,384.0 1055.0,391.0 1060.0,397.6 1065.0,403.4 1070.0,408.2 1075.0,411.6 1080.0,413.4 1085.0,413.6 1090.0,412.1 1095.0,409.0 1100.0,404.5 1105.0,398.9 1110.0,392.4 1115.0,385.4 1120.0,378.4 1125.0,371.7 1130.0,365.6 1135.0,360.7 1140.0,357.0 1145.0,354.8 1150.0,354.3 1155.0,355.5 1160.0,358.3 1165.0,362.5 1170.0,367.9 1175.0,374.3 1180.0,381.2 1185.0,388.2 1190.0,395.0 1195.0,401.2 1200.0,406.4 1205.0,410.4 1210.0,412.9 1215.0,413.7 1220.0,412.9 1225.0,410.4 1230.0,406.4 1235.0,401.2 1240.0,395.0 1245.0,388.2 1250.0,381.2 1255.0,374.3 1260.0,367.9 1265.0,362.5 1270.0,358.3 1275.0,355.5 1280.0,354.3 1285.0,354.8 1290.0,357.0 1295.0,360.7 1300.0,365.6 1305.0,371.7 1310.0,378.4 1315.0,385.4 1320.0,392.4 1325.0,398.9 1330.0,404.5 1335.0,409.0 1340.0,412.1 1345.0,413.6 1350.0,413.4 1355.0,411.6 1360.0,408.2 1365.0,403.4 1370.0,397.6 1375.0,391.0 1380.0,384.0 1385.0,377.0 1390.0,370.4 1395.0,364.6 1400.0,359.8 1405.0,356.4 1410.0,354.6 1415.0,354.4 1420.0,355.9 1425.0,359.0 1430.0,363.5 1435.0,369.1 1440.0,375.6 1445.0,382.6" fill="none" stroke="#16a085" stroke-width="1.5" opacity="0.6" stroke-linecap="round"/>
<polyline points="1050.0,450.0 1055.0,457.0 1060.0,463.6 1065.0,469.4 1070.0,474.2 1075.0,477.6 1080.0,479.4 1085.0,479.6 1090.0,478.1 1095.0,475.0 1100.0,470.5 1105.0,464.9 1110.0,458.4 1115.0,451.4 1120.0,444.4 1125.0,437.7 1130.0,431.6 1135.0,426.7 1140.0,423.0 1145.0,420.8 1150.0,420.3 1155.0,421.5 1160.0,424.3 1165.0,428.5 1170.0,433.9 1175.0,440.3 1180.0,447.2 1185.0,454.2 1190.0,461.0 1195.0,467.2 1200.0,472.4 1205.0,476.4 1210.0,478.9 1215.0,479.7 1220.0,478.9 1225.0,476.4 1230.0,472.4 1235.0,467.2 1240.0,461.0 1245.0,454.2 1250.0,447.2 1255.0,440.3 1260.0,433.9 1265.0,428.5 1270.0,424.3 1275.0,421.5 1280.0,420.3 1285.0,420.8 1290.0,423.0 1295.0,426.7 1300.0,431.6 1305.0,437.7 1310.0,444.4 1315.0,451.4 1320.0,458.4 1325.0,464.9 1330.0,470.5 1335.0,475.0 1340.0,478.1 1345.0,479.6 1350.0,479.4 1355.0,477.6 1360.0,474.2 1365.0,469.4 1370.0,463.6 1375.0,457.0 1380.0,450.0 1385.0,443.0 1390.0,436.4 1395.0,430.6 1400.0,425.8 1405.0,422.4 1410.0,420.6 1415.0,420.4 1420.0,421.9 1425.0,425.0 1430.0,429.5 1435.0,435.1 1440.0,441.6 1445.0,448.6" fill="none" stroke="#16a085" stroke-width="2.5" opacity="0.9" stroke-linecap="round"/>
<polyline points="1050.0,516.0 1055.0,523.0 1060.0,529.6 1065.0,535.4 1070.0,540.2 1075.0,543.6 1080.0,545.4 1085.0,545.6 1090.0,544.1 1095.0,541.0 1100.0,536.5 1105.0,530.9 1110.0,524.4 1115.0,517.4 1120.0,510.4 1125.0,503.7 1130.0,497.6 1135.0,492.7 1140.0,489.0 1145.0,486.8 1150.0,486.3 1155.0,487.5 1160.0,490.3 1165.0,494.5 1170.0,499.9 1175.0,506.3 1180.0,513.2 1185.0,520.2 1190.0,527.0 1195.0,533.2 1200.0,538.4 1205.0,542.4 1210.0,544.9 1215.0,545.7 1220.0,544.9 1225.0,542.4 1230.0,538.4 1235.0,533.2 1240.0,527.0 1245.0,520.2 1250.0,513.2 1255.0,506.3 1260.0,499.9 1265.0,494.5 1270.0,490.3 1275.0,487.5 1280.0,486.3 1285.0,486.8 1290.0,489.0 1295.0,492.7 1300.0,497.6 1305.0,503.7 1310.0,510.4 1315.0,517.4 1320.0,524.4 1325.0,530.9 1330.0,536.5 1335.0,541.0 1340.0,544.1 1345.0,545.6 1350.0,545.4 1355.0,543.6 1360.0,540.2 1365.0,535.4 1370.0,529.6 1375.0,523.0 1380.0,516.0 1385.0,509.0 1390.0,502.4 1395.0,496.6 1400.0,491.8 1405.0,488.4 1410.0,486.6 1415.0,486.4 1420.0,487.9 1425.0,491.0 1430.0,495.5 1435.0,501.1 1440.0,507.6 1445.0,514.6" fill="none" stroke="#16a085" stroke-width="1.5" opacity="0.6" stroke-linecap="round"/>
<polyline points="1050.0,582.0 1055.0,589.0 1060.0,595.6 1065.0,601.4 1070.0,606.2 1075.0,609.6 1080.0,611.4 1085.0,611.6 1090.0,610.1 1095.0,607.0 1100.0,602.5 1105.0,596.9 1110.0,590.4 1115.0,583.4 1120.0,576.4 1125.0,569.7 1130.0,563.6 1135.0,558.7 1140.0,555.0 1145.0,552.8 1150.0,552.3 1155.0,553.5 1160.0,556.3 1165.0,560.5 1170.0,565.9 1175.0,572.3 1180.0,579.2 1185.0,586.2 1190.0,593.0 1195.0,599.2 1200.0,604.4 1205.0,608.4 1210.0,610.9 1215.0,611.7 1220.0,610.9 1225.0,608.4 1230.0,604.4 1235.0,599.2 1240.0,593.0 1245.0,586.2 1250.0,579.2 1255.0,572.3 1260.0,565.9 1265.0,560.5 1270.0,556.3 1275.0,553.5 1280.0,552.3 1285.0,552.8 1290.0,555.0 1295.0,558.7 1300.0,563.6 1305.0,569.7 1310.0,576.4 1315.0,583.4 1320.0,590.4 1325.0,596.9 1330.0,602.5 1335.0,607.0 1340.0,610.1 1345.0,611.6 1350.0,611.4 1355.0,609.6 1360.0,606.2 1365.0,601.4 1370.0,595.6 1375.0,589.0 1380.0,582.0 1385.0,575.0 1390.0,568.4 1395.0,562.6 1400.0,557.8 1405.0,554.4 1410.0,552.6 1415.0,552.4 1420.0,553.9 1425.0,557.0 1430.0,561.5 1435.0,567.1 1440.0,573.6 1445.0,580.6" fill="none" stroke="#16a085" stroke-width="1.5" opacity="0.6" stroke-linecap="round"/>
<polyline points="1050.0,648.0 1055.0,655.0 1060.0,661.6 1065.0,667.4 1070.0,672.2 1075.0,675.6 1080.0,677.4 1085.0,677.6 1090.0,676.1 1095.0,673.0 1100.0,668.5 1105.0,662.9 1110.0,656.4 1115.0,649.4 1120.0,642.4 1125.0,635.7 1130.0,629.6 1135.0,624.7 1140.0,621.0 1145.0,618.8 1150.0,618.3 1155.0,619.5 1160.0,622.3 1165.0,626.5 1170.0,631.9 1175.0,638.3 1180.0,645.2 1185.0,652.2 1190.0,659.0 1195.0,665.2 1200.0,670.4 1205.0,674.4 1210.0,676.9 1215.0,677.7 1220.0,676.9 1225.0,674.4 1230.0,670.4 1235.0,665.2 1240.0,659.0 1245.0,652.2 1250.0,645.2 1255.0,638.3 1260.0,631.9 1265.0,626.5 1270.0,622.3 1275.0,619.5 1280.0,618.3 1285.0,618.8 1290.0,621.0 1295.0,624.7 1300.0,629.6 1305.0,635.7 1310.0,642.4 1315.0,649.4 1320.0,656.4 1325.0,662.9 1330.0,668.5 1335.0,673.0 1340.0,676.1 1345.0,677.6 1350.0,677.4 1355.0,675.6 1360.0,672.2 1365.0,667.4 1370.0,661.6 1375.0,655.0 1380.0,648.0 1385.0,641.0 1390.0,634.4 1395.0,628.6 1400.0,623.8 1405.0,620.4 1410.0,618.6 1415.0,618.4 1420.0,619.9 1425.0,623.0 1430.0,627.5 1435.0,633.1 1440.0,639.6 1445.0,646.6" fill="none" stroke="#16a085" stroke-width="1.5" opacity="0.6" stroke-linecap="round"/>
<rect x="0" y="0" width="1600" height="11" fill="#16a085"/>
<rect x="0" y="836" width="1600" height="64" fill="#0d0d0d"/>
<text x="608" y="162" font-family="Georgia,serif" font-size="81" font-weight="bold"
  fill="#f4f0e8" text-anchor="middle" dominant-baseline="middle">Ronin Kuin</text>
<text x="608" y="288" font-family="Arial,sans-serif" font-size="58"
  font-weight="bold" fill="#16a085" text-anchor="middle" dominant-baseline="middle">RESIST EXTRACTION</text>
<text x="608" y="450" font-family="Arial,sans-serif" font-size="34"
  fill="#f4f0e8" text-anchor="middle" dominant-baseline="middle">Land, language, data — all connected.</text>
<text x="608" y="576" font-family="Arial,sans-serif" font-size="25"
  fill="#f4f0e8" text-anchor="middle" dominant-baseline="middle" opacity="0.7">True people pattern — cultural continuity</text>
<text x="800" y="868" font-family="Arial,sans-serif" font-size="22" font-weight="bold"
  fill="#f4f0e8" text-anchor="middle" dominant-baseline="middle">TE PĀ TŪWATAWATA · te-pa.org · Shipibo</text>
</svg>