<svg xmlns="http://www.w3.org/2000/svg" width="1080" height="1920" viewBox="0 0 1080 1920">
<rect width="1080" height="1920" fill="#0d0d0d"/>
<polyline points="302.0,433.8 307.0,440.9 312.0,447.6 317.0,453.9 322.0,459.4 327.0,463.9 332.0,467.3 337.0,469.3 342.0,470.0 347.0,469.3 352.0,467.3 357.0,463.9 362.0,459.4 367.0,453.9 372.0,447.6 377.0,440.9 382.0,433.8 387.0,426.8 392.0,420.1 397.0,414.0 402.0,408.6 407.0,404.3 412.0,401.1 417.0,399.3 422.0,398.8 427.0,399.7 432.0,402.0 437.0,405.5 442.0,410.2 447.0,415.9 452.0,422.2 457.0,429.0 462.0,436.1 467.0,443.1 472.0,449.7 477.0,455.8 482.0,461.0 487.0,465.1 492.0,468.1 497.0,469.7 502.0,470.0 507.0,468.8 512.0,466.3 517.0,462.6 522.0,457.7 527.0,452.0 532.0,445.5 537.0,438.6 542.0,431.6 547.0,424.6 552.0,418.1 557.0,412.1 562.0,407.1 567.0,403.1 572.0,400.4 577.0,398.9 582.0,398.9 587.0,400.3 592.0,403.0 597.0,406.9 602.0,411.9 607.0,417.8 612.0,424.4 617.0,431.3 622.0,438.4 627.0,445.3 632.0,451.7 637.0,457.5 642.0,462.4 647.0,466.2 652.0,468.8 657.0,469.9 662.0,469.8 667.0,468.2 672.0,465.3 677.0,461.1 682.0,456.0 687.0,450.0 692.0,443.4 697.0,436.4 702.0,429.3 707.0,422.5 712.0,416.1 717.0,410.4 722.0,405.7 727.0,402.1 732.0,399.8 737.0,398.8 742.0,399.2 747.0,401.0 752.0,404.1 757.0,408.4 762.0,413.7 767.0,419.9 772.0,426.5 777.0,433.6" fill="none" stroke="#16a085" stroke-width="1.5" opacity="0.6" stroke-linecap="round"/>
<polyline points="302.0,513.0 307.0,520.1 312.0,526.8 317.0,533.1 322.0,538.6 327.0,543.1 332.0,546.5 337.0,548.5 342.0,549.2 347.0,548.5 352.0,546.5 357.0,543.1 362.0,538.6 367.0,533.1 372.0,526.8 377.0,520.1 382.0,513.0 387.0,506.0 392.0,499.3 397.0,493.2 402.0,487.8 407.0,483.5 412.0,480.3 417.0,478.5 422.0,478.0 427.0,478.9 432.0,481.2 437.0,484.7 442.0,489.4 447.0,495.1 452.0,501.4 457.0,508.2 462.0,515.3 467.0,522.3 472.0,528.9 477.0,535.0 482.0,540.2 487.0,544.3 492.0,547.3 497.0,548.9 502.0,549.2 507.0,548.0 512.0,545.5 517.0,541.8 522.0,536.9 527.0,531.2 532.0,524.7 537.0,517.8 542.0,510.8 547.0,503.8 552.0,497.3 557.0,491.3 562.0,486.3 567.0,482.3 572.0,479.6 577.0,478.1 582.0,478.1 587.0,479.5 592.0,482.2 597.0,486.1 602.0,491.1 607.0,497.0 612.0,503.6 617.0,510.5 622.0,517.6 627.0,524.5 632.0,530.9 637.0,536.7 642.0,541.6 647.0,545.4 652.0,548.0 657.0,549.1 662.0,549.0 667.0,547.4 672.0,544.5 677.0,540.3 682.0,535.2 687.0,529.2 692.0,522.6 697.0,515.6 702.0,508.5 707.0,501.7 712.0,495.3 717.0,489.6 722.0,484.9 727.0,481.3 732.0,479.0 737.0,478.0 742.0,478.4 747.0,480.2 752.0,483.3 757.0,487.6 762.0,492.9 767.0,499.1 772.0,505.7 777.0,512.8" fill="none" stroke="#16a085" stroke-width="1.5" opacity="0.6" stroke-linecap="round"/>
<polyline points="302.0,592.2 307.0,599.3 312.0,606.0 317.0,612.3 322.0,617.8 327.0,622.3 332.0,625.7 337.0,627.7 342.0,628.4 347.0,627.7 352.0,625.7 357.0,622.3 362.0,617.8 367.0,612.3 372.0,606.0 377.0,599.3 382.0,592.2 387.0,585.2 392.0,578.5 397.0,572.4 402.0,567.0 407.0,562.7 412.0,559.5 417.0,557.7 422.0,557.2 427.0,558.1 432.0,560.4 437.0,563.9 442.0,568.6 447.0,574.3 452.0,580.6 457.0,587.4 462.0,594.5 467.0,601.5 472.0,608.1 477.0,614.2 482.0,619.4 487.0,623.5 492.0,626.5 497.0,628.1 502.0,628.4 507.0,627.2 512.0,624.7 517.0,621.0 522.0,616.1 527.0,610.4 532.0,603.9 537.0,597.0 542.0,590.0 547.0,583.0 552.0,576.5 557.0,570.5 562.0,565.5 567.0,561.5 572.0,558.8 577.0,557.3 582.0,557.3 587.0,558.7 592.0,561.4 597.0,565.3 602.0,570.3 607.0,576.2 612.0,582.8 617.0,589.7 622.0,596.8 627.0,603.7 632.0,610.1 637.0,615.9 642.0,620.8 647.0,624.6 652.0,627.2 657.0,628.3 662.0,628.2 667.0,626.6 672.0,623.7 677.0,619.5 682.0,614.4 687.0,608.4 692.0,601.8 697.0,594.8 702.0,587.7 707.0,580.9 712.0,574.5 717.0,568.8 722.0,564.1 727.0,560.5 732.0,558.2 737.0,557.2 742.0,557.6 747.0,559.4 752.0,562.5 757.0,566.8 762.0,572.1 767.0,578.3 772.0,584.9 777.0,592.0" fill="none" stroke="#16a085" stroke-width="1.5" opacity="0.6" stroke-linecap="round"/>
<polyline points="302.0,671.4 307.0,678.5 312.0,685.2 317.0,691.5 322.0,697.0 327.0,701.5 332.0,704.9 337.0,706.9 342.0,707.6 347.0,706.9 352.0,704.9 357.0,701.5 362.0,697.0 367.0,691.5 372.0,685.2 377.0,678.5 382.0,671.4 387.0,664.4 392.0,657.7 397.0,651.6 402.0,646.2 407.0,641.9 412.0,638.7 417.0,636.9 422.0,636.4 427.0,637.3 432.0,639.6 437.0,643.1 442.0,647.8 447.0,653.5 452.0,659.8 457.0,666.6 462.0,673.7 467.0,680.7 472.0,687.3 477.0,693.4 482.0,698.6 487.0,702.7 492.0,705.7 497.0,707.3 502.0,707.6 507.0,706.4 512.0,703.9 517.0,700.2 522.0,695.3 527.0,689.6 532.0,683.1 537.0,676.2 542.0,669.2 547.0,662.2 552.0,655.7 557.0,649.7 562.0,644.7 567.0,640.7 572.0,638.0 577.0,636.5 582.0,636.5 587.0,637.9 592.0,640.6 597.0,644.5 602.0,649.5 607.0,655.4 612.0,662.0 617.0,668.9 622.0,676.0 627.0,682.9 632.0,689.3 637.0,695.1 642.0,700.0 647.0,703.8 652.0,706.4 657.0,707.5 662.0,707.4 667.0,705.8 672.0,702.9 677.0,698.7 682.0,693.6 687.0,687.6 692.0,681.0 697.0,674.0 702.0,666.9 707.0,660.1 712.0,653.7 717.0,648.0 722.0,643.3 727.0,639.7 732.0,637.4 737.0,636.4 742.0,636.8 747.0,638.6 752.0,641.7 757.0,646.0 762.0,651.3 767.0,657.5 772.0,664.1 777.0,671.2" fill="none" stroke="#16a085" stroke-width="2.5" opacity="0.9" stroke-linecap="round"/>
<polyline points="302.0,750.6 307.0,757.7 312.0,764.4 317.0,770.7 322.0,776.2 327.0,780.7 332.0,784.1 337.0,786.1 342.0,786.8 347.0,786.1 352.0,784.1 357.0,780.7 362.0,776.2 367.0,770.7 372.0,764.4 377.0,757.7 382.0,750.6 387.0,743.6 392.0,736.9 397.0,730.8 402.0,725.4 407.0,721.1 412.0,717.9 417.0,716.1 422.0,715.6 427.0,716.5 432.0,718.8 437.0,722.3 442.0,727.0 447.0,732.7 452.0,739.0 457.0,745.8 462.0,752.9 467.0,759.9 472.0,766.5 477.0,772.6 482.0,777.8 487.0,781.9 492.0,784.9 497.0,786.5 502.0,786.8 507.0,785.6 512.0,783.1 517.0,779.4 522.0,774.5 527.0,768.8 532.0,762.3 537.0,755.4 542.0,748.4 547.0,741.4 552.0,734.9 557.0,728.9 562.0,723.9 567.0,719.9 572.0,717.2 577.0,715.7 582.0,715.7 587.0,717.1 592.0,719.8 597.0,723.7 602.0,728.7 607.0,734.6 612.0,741.2 617.0,748.1 622.0,755.2 627.0,762.1 632.0,768.5 637.0,774.3 642.0,779.2 647.0,783.0 652.0,785.6 657.0,786.7 662.0,786.6 667.0,785.0 672.0,782.1 677.0,777.9 682.0,772.8 687.0,766.8 692.0,760.2 697.0,753.2 702.0,746.1 707.0,739.3 712.0,732.9 717.0,727.2 722.0,722.5 727.0,718.9 732.0,716.6 737.0,715.6 742.0,716.0 747.0,717.8 752.0,720.9 757.0,725.2 762.0,730.5 767.0,736.7 772.0,743.3 777.0,750.4" fill="none" stroke="#16a085" stroke-width="1.5" opacity="0.6" stroke-linecap="round"/>
<polyline points="302.0,829.8 307.0,836.9 312.0,843.6 317.0,849.9 322.0,855.4 327.0,859.9 332.0,863.3 337.0,865.3 342.0,866.0 347.0,865.3 352.0,863.3 357.0,859.9 362.0,855.4 367.0,849.9 372.0,843.6 377.0,836.9 382.0,829.8 387.0,822.8 392.0,816.1 397.0,810.0 402.0,804.6 407.0,800.3 412.0,797.1 417.0,795.3 422.0,794.8 427.0,795.7 432.0,798.0 437.0,801.5 442.0,806.2 447.0,811.9 452.0,818.2 457.0,825.0 462.0,832.1 467.0,839.1 472.0,845.7 477.0,851.8 482.0,857.0 487.0,861.1 492.0,864.1 497.0,865.7 502.0,866.0 507.0,864.8 512.0,862.3 517.0,858.6 522.0,853.7 527.0,848.0 532.0,841.5 537.0,834.6 542.0,827.6 547.0,820.6 552.0,814.1 557.0,808.1 562.0,803.1 567.0,799.1 572.0,796.4 577.0,794.9 582.0,794.9 587.0,796.3 592.0,799.0 597.0,802.9 602.0,807.9 607.0,813.8 612.0,820.4 617.0,827.3 622.0,834.4 627.0,841.3 632.0,847.7 637.0,853.5 642.0,858.4 647.0,862.2 652.0,864.8 657.0,865.9 662.0,865.8 667.0,864.2 672.0,861.3 677.0,857.1 682.0,852.0 687.0,846.0 692.0,839.4 697.0,832.4 702.0,825.3 707.0,818.5 712.0,812.1 717.0,806.4 722.0,801.7 727.0,798.1 732.0,795.8 737.0,794.8 742.0,795.2 747.0,797.0 752.0,800.1 757.0,804.4 762.0,809.7 767.0,815.9 772.0,822.5 777.0,829.6" fill="none" stroke="#16a085" stroke-width="1.5" opacity="0.6" stroke-linecap="round"/>
<polyline points="302.0,909.0 307.0,916.1 312.0,922.8 317.0,929.1 322.0,934.6 327.0,939.1 332.0,942.5 337.0,944.5 342.0,945.2 347.0,944.5 352.0,942.5 357.0,939.1 362.0,934.6 367.0,929.1 372.0,922.8 377.0,916.1 382.0,909.0 387.0,902.0 392.0,895.3 397.0,889.2 402.0,883.8 407.0,879.5 412.0,876.3 417.0,874.5 422.0,874.0 427.0,874.9 432.0,877.2 437.0,880.7 442.0,885.4 447.0,891.1 452.0,897.4 457.0,904.2 462.0,911.3 467.0,918.3 472.0,924.9 477.0,931.0 482.0,936.2 487.0,940.3 492.0,943.3 497.0,944.9 502.0,945.2 507.0,944.0 512.0,941.5 517.0,937.8 522.0,932.9 527.0,927.2 532.0,920.7 537.0,913.8 542.0,906.8 547.0,899.8 552.0,893.3 557.0,887.3 562.0,882.3 567.0,878.3 572.0,875.6 577.0,874.1 582.0,874.1 587.0,875.5 592.0,878.2 597.0,882.1 602.0,887.1 607.0,893.0 612.0,899.6 617.0,906.5 622.0,913.6 627.0,920.5 632.0,926.9 637.0,932.7 642.0,937.6 647.0,941.4 652.0,944.0 657.0,945.1 662.0,945.0 667.0,943.4 672.0,940.5 677.0,936.3 682.0,931.2 687.0,925.2 692.0,918.6 697.0,911.6 702.0,904.5 707.0,897.7 712.0,891.3 717.0,885.6 722.0,880.9 727.0,877.3 732.0,875.0 737.0,874.0 742.0,874.4 747.0,876.2 752.0,879.3 757.0,883.6 762.0,888.9 767.0,895.1 772.0,901.7 777.0,908.8" fill="none" stroke="#16a085" stroke-width="1.5" opacity="0.6" stroke-linecap="round"/>
<rect x="0" y="0" width="1080" height="24" fill="#16a085"/>
<rect x="0" y="1783" width="1080" height="137" fill="#0d0d0d"/>
<text x="540" y="1190" font-family="Georgia,serif" font-size="105" font-weight="bold"
  fill="#f4f0e8" text-anchor="middle" dominant-baseline="middle">Ronin Kuin</text>
<text x="540" y="1344" font-family="Arial,sans-serif" font-size="76"
  font-weight="bold" fill="#16a085" text-anchor="middle" dominant-baseline="middle">DATA SOVEREIGNTY</text>
<text x="540" y="1498" font-family="Arial,sans-serif" font-size="42"
  fill="#f4f0e8" text-anchor="middle" dominant-baseline="middle">Indigenous knowledge is not open source.</text>
<text x="540" y="1632" font-family="Arial,sans-serif" font-size="34"
  fill="#f4f0e8" text-anchor="middle" dominant-baseline="middle" opacity="0.7">True people pattern — cultural continuity</text>
<text x="540" y="1852" font-family="Arial,sans-serif" font-size="30" font-weight="bold"
  fill="#f4f0e8" text-anchor="middle" dominant-baseline="middle">TE PĀ TŪWATAWATA · te-pa.org · Shipibo</text>
</svg>