<svg xmlns="http://www.w3.org/2000/svg" width="1080" height="1920" viewBox="0 0 1080 1920">
<title>Unaunahi — The Kiwi Dialectic</title>

<rect width="1080" height="1920" fill="#0d0d0d"/>
<path d="M -30.0 640.0 A 34.1 43.4 0 0 1 32.0 640.0 A 34.1 43.4 0 0 1 -30.0 640.0 Z" fill="none" stroke="#f4f0e8" stroke-width="0.9" opacity="0.18"/>
<path d="M 32.0 640.0 A 34.1 43.4 0 0 1 94.0 640.0 A 34.1 43.4 0 0 1 32.0 640.0 Z" fill="none" stroke="#f4f0e8" stroke-width="0.9" opacity="0.18"/>
<path d="M 94.0 640.0 A 34.1 43.4 0 0 1 156.0 640.0 A 34.1 43.4 0 0 1 94.0 640.0 Z" fill="none" stroke="#f4f0e8" stroke-width="0.9" opacity="0.18"/>
<path d="M 156.0 640.0 A 34.1 43.4 0 0 1 218.0 640.0 A 34.1 43.4 0 0 1 156.0 640.0 Z" fill="none" stroke="#f4f0e8" stroke-width="0.9" opacity="0.18"/>
<path d="M 218.0 640.0 A 34.1 43.4 0 0 1 280.0 640.0 A 34.1 43.4 0 0 1 218.0 640.0 Z" fill="none" stroke="#f4f0e8" stroke-width="0.9" opacity="0.18"/>
<path d="M 280.0 640.0 A 34.1 43.4 0 0 1 342.0 640.0 A 34.1 43.4 0 0 1 280.0 640.0 Z" fill="none" stroke="#f4f0e8" stroke-width="0.9" opacity="0.18"/>
<path d="M 342.0 640.0 A 34.1 43.4 0 0 1 404.0 640.0 A 34.1 43.4 0 0 1 342.0 640.0 Z" fill="none" stroke="#f4f0e8" stroke-width="0.9" opacity="0.18"/>
<path d="M 404.0 640.0 A 34.1 43.4 0 0 1 466.0 640.0 A 34.1 43.4 0 0 1 404.0 640.0 Z" fill="none" stroke="#f4f0e8" stroke-width="0.9" opacity="0.18"/>
<path d="M 466.0 640.0 A 34.1 43.4 0 0 1 528.0 640.0 A 34.1 43.4 0 0 1 466.0 640.0 Z" fill="none" stroke="#f4f0e8" stroke-width="0.9" opacity="0.18"/>
<path d="M 528.0 640.0 A 34.1 43.4 0 0 1 590.0 640.0 A 34.1 43.4 0 0 1 528.0 640.0 Z" fill="none" stroke="#f4f0e8" stroke-width="0.9" opacity="0.18"/>
<path d="M 590.0 640.0 A 34.1 43.4 0 0 1 652.0 640.0 A 34.1 43.4 0 0 1 590.0 640.0 Z" fill="none" stroke="#f4f0e8" stroke-width="0.9" opacity="0.18"/>
<path d="M 652.0 640.0 A 34.1 43.4 0 0 1 714.0 640.0 A 34.1 43.4 0 0 1 652.0 640.0 Z" fill="none" stroke="#f4f0e8" stroke-width="0.9" opacity="0.18"/>
<path d="M 714.0 640.0 A 34.1 43.4 0 0 1 776.0 640.0 A 34.1 43.4 0 0 1 714.0 640.0 Z" fill="none" stroke="#f4f0e8" stroke-width="0.9" opacity="0.18"/>
<path d="M 776.0 640.0 A 34.1 43.4 0 0 1 838.0 640.0 A 34.1 43.4 0 0 1 776.0 640.0 Z" fill="none" stroke="#f4f0e8" stroke-width="0.9" opacity="0.18"/>
<path d="M 838.0 640.0 A 34.1 43.4 0 0 1 900.0 640.0 A 34.1 43.4 0 0 1 838.0 640.0 Z" fill="none" stroke="#f4f0e8" stroke-width="0.9" opacity="0.18"/>
<path d="M 900.0 640.0 A 34.1 43.4 0 0 1 962.0 640.0 A 34.1 43.4 0 0 1 900.0 640.0 Z" fill="none" stroke="#f4f0e8" stroke-width="0.9" opacity="0.18"/>
<path d="M 1.0 680.3 A 34.1 43.4 0 0 1 63.0 680.3 A 34.1 43.4 0 0 1 1.0 680.3 Z" fill="none" stroke="#f4f0e8" stroke-width="0.9" opacity="0.18"/>
<path d="M 63.0 680.3 A 34.1 43.4 0 0 1 125.0 680.3 A 34.1 43.4 0 0 1 63.0 680.3 Z" fill="none" stroke="#f4f0e8" stroke-width="0.9" opacity="0.18"/>
<path d="M 125.0 680.3 A 34.1 43.4 0 0 1 187.0 680.3 A 34.1 43.4 0 0 1 125.0 680.3 Z" fill="none" stroke="#f4f0e8" stroke-width="0.9" opacity="0.18"/>
<path d="M 187.0 680.3 A 34.1 43.4 0 0 1 249.0 680.3 A 34.1 43.4 0 0 1 187.0 680.3 Z" fill="none" stroke="#f4f0e8" stroke-width="0.9" opacity="0.18"/>
<path d="M 249.0 680.3 A 34.1 43.4 0 0 1 311.0 680.3 A 34.1 43.4 0 0 1 249.0 680.3 Z" fill="none" stroke="#f4f0e8" stroke-width="0.9" opacity="0.18"/>
<path d="M 311.0 680.3 A 34.1 43.4 0 0 1 373.0 680.3 A 34.1 43.4 0 0 1 311.0 680.3 Z" fill="none" stroke="#f4f0e8" stroke-width="0.9" opacity="0.18"/>
<path d="M 373.0 680.3 A 34.1 43.4 0 0 1 435.0 680.3 A 34.1 43.4 0 0 1 373.0 680.3 Z" fill="none" stroke="#f4f0e8" stroke-width="0.9" opacity="0.18"/>
<path d="M 435.0 680.3 A 34.1 43.4 0 0 1 497.0 680.3 A 34.1 43.4 0 0 1 435.0 680.3 Z" fill="none" stroke="#f4f0e8" stroke-width="0.9" opacity="0.18"/>
<path d="M 497.0 680.3 A 34.1 43.4 0 0 1 559.0 680.3 A 34.1 43.4 0 0 1 497.0 680.3 Z" fill="none" stroke="#f4f0e8" stroke-width="0.9" opacity="0.18"/>
<path d="M 559.0 680.3 A 34.1 43.4 0 0 1 621.0 680.3 A 34.1 43.4 0 0 1 559.0 680.3 Z" fill="none" stroke="#f4f0e8" stroke-width="0.9" opacity="0.18"/>
<path d="M 621.0 680.3 A 34.1 43.4 0 0 1 683.0 680.3 A 34.1 43.4 0 0 1 621.0 680.3 Z" fill="none" stroke="#f4f0e8" stroke-width="0.9" opacity="0.18"/>
<path d="M 683.0 680.3 A 34.1 43.4 0 0 1 745.0 680.3 A 34.1 43.4 0 0 1 683.0 680.3 Z" fill="none" stroke="#f4f0e8" stroke-width="0.9" opacity="0.18"/>
<path d="M 745.0 680.3 A 34.1 43.4 0 0 1 807.0 680.3 A 34.1 43.4 0 0 1 745.0 680.3 Z" fill="none" stroke="#f4f0e8" stroke-width="0.9" opacity="0.18"/>
<path d="M 807.0 680.3 A 34.1 43.4 0 0 1 869.0 680.3 A 34.1 43.4 0 0 1 807.0 680.3 Z" fill="none" stroke="#f4f0e8" stroke-width="0.9" opacity="0.18"/>
<path d="M 869.0 680.3 A 34.1 43.4 0 0 1 931.0 680.3 A 34.1 43.4 0 0 1 869.0 680.3 Z" fill="none" stroke="#f4f0e8" stroke-width="0.9" opacity="0.18"/>
<path d="M 931.0 680.3 A 34.1 43.4 0 0 1 993.0 680.3 A 34.1 43.4 0 0 1 931.0 680.3 Z" fill="none" stroke="#f4f0e8" stroke-width="0.9" opacity="0.18"/>
<path d="M -30.0 720.6 A 34.1 43.4 0 0 1 32.0 720.6 A 34.1 43.4 0 0 1 -30.0 720.6 Z" fill="none" stroke="#f4f0e8" stroke-width="0.9" opacity="0.18"/>
<path d="M 32.0 720.6 A 34.1 43.4 0 0 1 94.0 720.6 A 34.1 43.4 0 0 1 32.0 720.6 Z" fill="none" stroke="#f4f0e8" stroke-width="0.9" opacity="0.18"/>
<path d="M 94.0 720.6 A 34.1 43.4 0 0 1 156.0 720.6 A 34.1 43.4 0 0 1 94.0 720.6 Z" fill="none" stroke="#f4f0e8" stroke-width="0.9" opacity="0.18"/>
<path d="M 156.0 720.6 A 34.1 43.4 0 0 1 218.0 720.6 A 34.1 43.4 0 0 1 156.0 720.6 Z" fill="none" stroke="#f4f0e8" stroke-width="0.9" opacity="0.18"/>
<path d="M 218.0 720.6 A 34.1 43.4 0 0 1 280.0 720.6 A 34.1 43.4 0 0 1 218.0 720.6 Z" fill="none" stroke="#f4f0e8" stroke-width="0.9" opacity="0.18"/>
<path d="M 280.0 720.6 A 34.1 43.4 0 0 1 342.0 720.6 A 34.1 43.4 0 0 1 280.0 720.6 Z" fill="none" stroke="#f4f0e8" stroke-width="0.9" opacity="0.18"/>
<path d="M 342.0 720.6 A 34.1 43.4 0 0 1 404.0 720.6 A 34.1 43.4 0 0 1 342.0 720.6 Z" fill="none" stroke="#f4f0e8" stroke-width="0.9" opacity="0.18"/>
<path d="M 404.0 720.6 A 34.1 43.4 0 0 1 466.0 720.6 A 34.1 43.4 0 0 1 404.0 720.6 Z" fill="none" stroke="#f4f0e8" stroke-width="0.9" opacity="0.18"/>
<path d="M 466.0 720.6 A 34.1 43.4 0 0 1 528.0 720.6 A 34.1 43.4 0 0 1 466.0 720.6 Z" fill="none" stroke="#f4f0e8" stroke-width="0.9" opacity="0.18"/>
<path d="M 528.0 720.6 A 34.1 43.4 0 0 1 590.0 720.6 A 34.1 43.4 0 0 1 528.0 720.6 Z" fill="none" stroke="#f4f0e8" stroke-width="0.9" opacity="0.18"/>
<path d="M 590.0 720.6 A 34.1 43.4 0 0 1 652.0 720.6 A 34.1 43.4 0 0 1 590.0 720.6 Z" fill="none" stroke="#f4f0e8" stroke-width="0.9" opacity="0.18"/>
<path d="M 652.0 720.6 A 34.1 43.4 0 0 1 714.0 720.6 A 34.1 43.4 0 0 1 652.0 720.6 Z" fill="none" stroke="#f4f0e8" stroke-width="0.9" opacity="0.18"/>
<path d="M 714.0 720.6 A 34.1 43.4 0 0 1 776.0 720.6 A 34.1 43.4 0 0 1 714.0 720.6 Z" fill="none" stroke="#f4f0e8" stroke-width="0.9" opacity="0.18"/>
<path d="M 776.0 720.6 A 34.1 43.4 0 0 1 838.0 720.6 A 34.1 43.4 0 0 1 776.0 720.6 Z" fill="none" stroke="#f4f0e8" stroke-width="0.9" opacity="0.18"/>
<path d="M 838.0 720.6 A 34.1 43.4 0 0 1 900.0 720.6 A 34.1 43.4 0 0 1 838.0 720.6 Z" fill="none" stroke="#f4f0e8" stroke-width="0.9" opacity="0.18"/>
<path d="M 900.0 720.6 A 34.1 43.4 0 0 1 962.0 720.6 A 34.1 43.4 0 0 1 900.0 720.6 Z" fill="none" stroke="#f4f0e8" stroke-width="0.9" opacity="0.18"/>
<path d="M 1.0 760.9 A 34.1 43.4 0 0 1 63.0 760.9 A 34.1 43.4 0 0 1 1.0 760.9 Z" fill="none" stroke="#f4f0e8" stroke-width="0.9" opacity="0.18"/>
<path d="M 63.0 760.9 A 34.1 43.4 0 0 1 125.0 760.9 A 34.1 43.4 0 0 1 63.0 760.9 Z" fill="none" stroke="#f4f0e8" stroke-width="0.9" opacity="0.18"/>
<path d="M 125.0 760.9 A 34.1 43.4 0 0 1 187.0 760.9 A 34.1 43.4 0 0 1 125.0 760.9 Z" fill="none" stroke="#f4f0e8" stroke-width="0.9" opacity="0.18"/>
<path d="M 187.0 760.9 A 34.1 43.4 0 0 1 249.0 760.9 A 34.1 43.4 0 0 1 187.0 760.9 Z" fill="none" stroke="#f4f0e8" stroke-width="0.9" opacity="0.18"/>
<path d="M 249.0 760.9 A 34.1 43.4 0 0 1 311.0 760.9 A 34.1 43.4 0 0 1 249.0 760.9 Z" fill="none" stroke="#f4f0e8" stroke-width="0.9" opacity="0.18"/>
<path d="M 311.0 760.9 A 34.1 43.4 0 0 1 373.0 760.9 A 34.1 43.4 0 0 1 311.0 760.9 Z" fill="none" stroke="#f4f0e8" stroke-width="0.9" opacity="0.18"/>
<path d="M 373.0 760.9 A 34.1 43.4 0 0 1 435.0 760.9 A 34.1 43.4 0 0 1 373.0 760.9 Z" fill="none" stroke="#f4f0e8" stroke-width="0.9" opacity="0.18"/>
<path d="M 435.0 760.9 A 34.1 43.4 0 0 1 497.0 760.9 A 34.1 43.4 0 0 1 435.0 760.9 Z" fill="none" stroke="#f4f0e8" stroke-width="0.9" opacity="0.18"/>
<path d="M 497.0 760.9 A 34.1 43.4 0 0 1 559.0 760.9 A 34.1 43.4 0 0 1 497.0 760.9 Z" fill="none" stroke="#f4f0e8" stroke-width="0.9" opacity="0.18"/>
<path d="M 559.0 760.9 A 34.1 43.4 0 0 1 621.0 760.9 A 34.1 43.4 0 0 1 559.0 760.9 Z" fill="none" stroke="#f4f0e8" stroke-width="0.9" opacity="0.18"/>
<path d="M 621.0 760.9 A 34.1 43.4 0 0 1 683.0 760.9 A 34.1 43.4 0 0 1 621.0 760.9 Z" fill="none" stroke="#f4f0e8" stroke-width="0.9" opacity="0.18"/>
<path d="M 683.0 760.9 A 34.1 43.4 0 0 1 745.0 760.9 A 34.1 43.4 0 0 1 683.0 760.9 Z" fill="none" stroke="#f4f0e8" stroke-width="0.9" opacity="0.18"/>
<path d="M 745.0 760.9 A 34.1 43.4 0 0 1 807.0 760.9 A 34.1 43.4 0 0 1 745.0 760.9 Z" fill="none" stroke="#f4f0e8" stroke-width="0.9" opacity="0.18"/>
<path d="M 807.0 760.9 A 34.1 43.4 0 0 1 869.0 760.9 A 34.1 43.4 0 0 1 807.0 760.9 Z" fill="none" stroke="#f4f0e8" stroke-width="0.9" opacity="0.18"/>
<path d="M 869.0 760.9 A 34.1 43.4 0 0 1 931.0 760.9 A 34.1 43.4 0 0 1 869.0 760.9 Z" fill="none" stroke="#f4f0e8" stroke-width="0.9" opacity="0.18"/>
<path d="M 931.0 760.9 A 34.1 43.4 0 0 1 993.0 760.9 A 34.1 43.4 0 0 1 931.0 760.9 Z" fill="none" stroke="#f4f0e8" stroke-width="0.9" opacity="0.18"/>
<path d="M -30.0 801.2 A 34.1 43.4 0 0 1 32.0 801.2 A 34.1 43.4 0 0 1 -30.0 801.2 Z" fill="none" stroke="#f4f0e8" stroke-width="0.9" opacity="0.18"/>
<path d="M 32.0 801.2 A 34.1 43.4 0 0 1 94.0 801.2 A 34.1 43.4 0 0 1 32.0 801.2 Z" fill="none" stroke="#f4f0e8" stroke-width="0.9" opacity="0.18"/>
<path d="M 94.0 801.2 A 34.1 43.4 0 0 1 156.0 801.2 A 34.1 43.4 0 0 1 94.0 801.2 Z" fill="none" stroke="#f4f0e8" stroke-width="0.9" opacity="0.18"/>
<path d="M 156.0 801.2 A 34.1 43.4 0 0 1 218.0 801.2 A 34.1 43.4 0 0 1 156.0 801.2 Z" fill="none" stroke="#f4f0e8" stroke-width="0.9" opacity="0.18"/>
<path d="M 218.0 801.2 A 34.1 43.4 0 0 1 280.0 801.2 A 34.1 43.4 0 0 1 218.0 801.2 Z" fill="none" stroke="#f4f0e8" stroke-width="0.9" opacity="0.18"/>
<path d="M 280.0 801.2 A 34.1 43.4 0 0 1 342.0 801.2 A 34.1 43.4 0 0 1 280.0 801.2 Z" fill="none" stroke="#f4f0e8" stroke-width="0.9" opacity="0.18"/>
<path d="M 342.0 801.2 A 34.1 43.4 0 0 1 404.0 801.2 A 34.1 43.4 0 0 1 342.0 801.2 Z" fill="none" stroke="#f4f0e8" stroke-width="0.9" opacity="0.18"/>
<path d="M 404.0 801.2 A 34.1 43.4 0 0 1 466.0 801.2 A 34.1 43.4 0 0 1 404.0 801.2 Z" fill="none" stroke="#f4f0e8" stroke-width="0.9" opacity="0.18"/>
<path d="M 466.0 801.2 A 34.1 43.4 0 0 1 528.0 801.2 A 34.1 43.4 0 0 1 466.0 801.2 Z" fill="none" stroke="#f4f0e8" stroke-width="0.9" opacity="0.18"/>
<path d="M 528.0 801.2 A 34.1 43.4 0 0 1 590.0 801.2 A 34.1 43.4 0 0 1 528.0 801.2 Z" fill="none" stroke="#f4f0e8" stroke-width="0.9" opacity="0.18"/>
<path d="M 590.0 801.2 A 34.1 43.4 0 0 1 652.0 801.2 A 34.1 43.4 0 0 1 590.0 801.2 Z" fill="none" stroke="#f4f0e8" stroke-width="0.9" opacity="0.18"/>
<path d="M 652.0 801.2 A 34.1 43.4 0 0 1 714.0 801.2 A 34.1 43.4 0 0 1 652.0 801.2 Z" fill="none" stroke="#f4f0e8" stroke-width="0.9" opacity="0.18"/>
<path d="M 714.0 801.2 A 34.1 43.4 0 0 1 776.0 801.2 A 34.1 43.4 0 0 1 714.0 801.2 Z" fill="none" stroke="#f4f0e8" stroke-width="0.9" opacity="0.18"/>
<path d="M 776.0 801.2 A 34.1 43.4 0 0 1 838.0 801.2 A 34.1 43.4 0 0 1 776.0 801.2 Z" fill="none" stroke="#f4f0e8" stroke-width="0.9" opacity="0.18"/>
<path d="M 838.0 801.2 A 34.1 43.4 0 0 1 900.0 801.2 A 34.1 43.4 0 0 1 838.0 801.2 Z" fill="none" stroke="#f4f0e8" stroke-width="0.9" opacity="0.18"/>
<path d="M 900.0 801.2 A 34.1 43.4 0 0 1 962.0 801.2 A 34.1 43.4 0 0 1 900.0 801.2 Z" fill="none" stroke="#f4f0e8" stroke-width="0.9" opacity="0.18"/>
<path d="M 1.0 841.5 A 34.1 43.4 0 0 1 63.0 841.5 A 34.1 43.4 0 0 1 1.0 841.5 Z" fill="none" stroke="#f4f0e8" stroke-width="0.9" opacity="0.18"/>
<path d="M 63.0 841.5 A 34.1 43.4 0 0 1 125.0 841.5 A 34.1 43.4 0 0 1 63.0 841.5 Z" fill="none" stroke="#f4f0e8" stroke-width="0.9" opacity="0.18"/>
<path d="M 125.0 841.5 A 34.1 43.4 0 0 1 187.0 841.5 A 34.1 43.4 0 0 1 125.0 841.5 Z" fill="none" stroke="#f4f0e8" stroke-width="0.9" opacity="0.18"/>
<path d="M 187.0 841.5 A 34.1 43.4 0 0 1 249.0 841.5 A 34.1 43.4 0 0 1 187.0 841.5 Z" fill="none" stroke="#f4f0e8" stroke-width="0.9" opacity="0.18"/>
<path d="M 249.0 841.5 A 34.1 43.4 0 0 1 311.0 841.5 A 34.1 43.4 0 0 1 249.0 841.5 Z" fill="none" stroke="#f4f0e8" stroke-width="0.9" opacity="0.18"/>
<path d="M 311.0 841.5 A 34.1 43.4 0 0 1 373.0 841.5 A 34.1 43.4 0 0 1 311.0 841.5 Z" fill="none" stroke="#f4f0e8" stroke-width="0.9" opacity="0.18"/>
<path d="M 373.0 841.5 A 34.1 43.4 0 0 1 435.0 841.5 A 34.1 43.4 0 0 1 373.0 841.5 Z" fill="none" stroke="#f4f0e8" stroke-width="0.9" opacity="0.18"/>
<path d="M 435.0 841.5 A 34.1 43.4 0 0 1 497.0 841.5 A 34.1 43.4 0 0 1 435.0 841.5 Z" fill="none" stroke="#f4f0e8" stroke-width="0.9" opacity="0.18"/>
<path d="M 497.0 841.5 A 34.1 43.4 0 0 1 559.0 841.5 A 34.1 43.4 0 0 1 497.0 841.5 Z" fill="none" stroke="#f4f0e8" stroke-width="0.9" opacity="0.18"/>
<path d="M 559.0 841.5 A 34.1 43.4 0 0 1 621.0 841.5 A 34.1 43.4 0 0 1 559.0 841.5 Z" fill="none" stroke="#f4f0e8" stroke-width="0.9" opacity="0.18"/>
<path d="M 621.0 841.5 A 34.1 43.4 0 0 1 683.0 841.5 A 34.1 43.4 0 0 1 621.0 841.5 Z" fill="none" stroke="#f4f0e8" stroke-width="0.9" opacity="0.18"/>
<path d="M 683.0 841.5 A 34.1 43.4 0 0 1 745.0 841.5 A 34.1 43.4 0 0 1 683.0 841.5 Z" fill="none" stroke="#f4f0e8" stroke-width="0.9" opacity="0.18"/>
<path d="M 745.0 841.5 A 34.1 43.4 0 0 1 807.0 841.5 A 34.1 43.4 0 0 1 745.0 841.5 Z" fill="none" stroke="#f4f0e8" stroke-width="0.9" opacity="0.18"/>
<path d="M 807.0 841.5 A 34.1 43.4 0 0 1 869.0 841.5 A 34.1 43.4 0 0 1 807.0 841.5 Z" fill="none" stroke="#f4f0e8" stroke-width="0.9" opacity="0.18"/>
<path d="M 869.0 841.5 A 34.1 43.4 0 0 1 931.0 841.5 A 34.1 43.4 0 0 1 869.0 841.5 Z" fill="none" stroke="#f4f0e8" stroke-width="0.9" opacity="0.18"/>
<path d="M 931.0 841.5 A 34.1 43.4 0 0 1 993.0 841.5 A 34.1 43.4 0 0 1 931.0 841.5 Z" fill="none" stroke="#f4f0e8" stroke-width="0.9" opacity="0.18"/>
<path d="M -30.0 881.8 A 34.1 43.4 0 0 1 32.0 881.8 A 34.1 43.4 0 0 1 -30.0 881.8 Z" fill="none" stroke="#f4f0e8" stroke-width="0.9" opacity="0.18"/>
<path d="M 32.0 881.8 A 34.1 43.4 0 0 1 94.0 881.8 A 34.1 43.4 0 0 1 32.0 881.8 Z" fill="none" stroke="#f4f0e8" stroke-width="0.9" opacity="0.18"/>
<path d="M 94.0 881.8 A 34.1 43.4 0 0 1 156.0 881.8 A 34.1 43.4 0 0 1 94.0 881.8 Z" fill="none" stroke="#f4f0e8" stroke-width="0.9" opacity="0.18"/>
<path d="M 156.0 881.8 A 34.1 43.4 0 0 1 218.0 881.8 A 34.1 43.4 0 0 1 156.0 881.8 Z" fill="none" stroke="#f4f0e8" stroke-width="0.9" opacity="0.18"/>
<path d="M 218.0 881.8 A 34.1 43.4 0 0 1 280.0 881.8 A 34.1 43.4 0 0 1 218.0 881.8 Z" fill="none" stroke="#f4f0e8" stroke-width="0.9" opacity="0.18"/>
<path d="M 280.0 881.8 A 34.1 43.4 0 0 1 342.0 881.8 A 34.1 43.4 0 0 1 280.0 881.8 Z" fill="none" stroke="#f4f0e8" stroke-width="0.9" opacity="0.18"/>
<path d="M 342.0 881.8 A 34.1 43.4 0 0 1 404.0 881.8 A 34.1 43.4 0 0 1 342.0 881.8 Z" fill="none" stroke="#f4f0e8" stroke-width="0.9" opacity="0.18"/>
<path d="M 404.0 881.8 A 34.1 43.4 0 0 1 466.0 881.8 A 34.1 43.4 0 0 1 404.0 881.8 Z" fill="none" stroke="#f4f0e8" stroke-width="0.9" opacity="0.18"/>
<path d="M 466.0 881.8 A 34.1 43.4 0 0 1 528.0 881.8 A 34.1 43.4 0 0 1 466.0 881.8 Z" fill="none" stroke="#f4f0e8" stroke-width="0.9" opacity="0.18"/>
<path d="M 528.0 881.8 A 34.1 43.4 0 0 1 590.0 881.8 A 34.1 43.4 0 0 1 528.0 881.8 Z" fill="none" stroke="#f4f0e8" stroke-width="0.9" opacity="0.18"/>
<path d="M 590.0 881.8 A 34.1 43.4 0 0 1 652.0 881.8 A 34.1 43.4 0 0 1 590.0 881.8 Z" fill="none" stroke="#f4f0e8" stroke-width="0.9" opacity="0.18"/>
<path d="M 652.0 881.8 A 34.1 43.4 0 0 1 714.0 881.8 A 34.1 43.4 0 0 1 652.0 881.8 Z" fill="none" stroke="#f4f0e8" stroke-width="0.9" opacity="0.18"/>
<path d="M 714.0 881.8 A 34.1 43.4 0 0 1 776.0 881.8 A 34.1 43.4 0 0 1 714.0 881.8 Z" fill="none" stroke="#f4f0e8" stroke-width="0.9" opacity="0.18"/>
<path d="M 776.0 881.8 A 34.1 43.4 0 0 1 838.0 881.8 A 34.1 43.4 0 0 1 776.0 881.8 Z" fill="none" stroke="#f4f0e8" stroke-width="0.9" opacity="0.18"/>
<path d="M 838.0 881.8 A 34.1 43.4 0 0 1 900.0 881.8 A 34.1 43.4 0 0 1 838.0 881.8 Z" fill="none" stroke="#f4f0e8" stroke-width="0.9" opacity="0.18"/>
<path d="M 900.0 881.8 A 34.1 43.4 0 0 1 962.0 881.8 A 34.1 43.4 0 0 1 900.0 881.8 Z" fill="none" stroke="#f4f0e8" stroke-width="0.9" opacity="0.18"/>
<path d="M 1.0 922.1 A 34.1 43.4 0 0 1 63.0 922.1 A 34.1 43.4 0 0 1 1.0 922.1 Z" fill="none" stroke="#f4f0e8" stroke-width="0.9" opacity="0.18"/>
<path d="M 63.0 922.1 A 34.1 43.4 0 0 1 125.0 922.1 A 34.1 43.4 0 0 1 63.0 922.1 Z" fill="none" stroke="#f4f0e8" stroke-width="0.9" opacity="0.18"/>
<path d="M 125.0 922.1 A 34.1 43.4 0 0 1 187.0 922.1 A 34.1 43.4 0 0 1 125.0 922.1 Z" fill="none" stroke="#f4f0e8" stroke-width="0.9" opacity="0.18"/>
<path d="M 187.0 922.1 A 34.1 43.4 0 0 1 249.0 922.1 A 34.1 43.4 0 0 1 187.0 922.1 Z" fill="none" stroke="#f4f0e8" stroke-width="0.9" opacity="0.18"/>
<path d="M 249.0 922.1 A 34.1 43.4 0 0 1 311.0 922.1 A 34.1 43.4 0 0 1 249.0 922.1 Z" fill="none" stroke="#f4f0e8" stroke-width="0.9" opacity="0.18"/>
<path d="M 311.0 922.1 A 34.1 43.4 0 0 1 373.0 922.1 A 34.1 43.4 0 0 1 311.0 922.1 Z" fill="none" stroke="#f4f0e8" stroke-width="0.9" opacity="0.18"/>
<path d="M 373.0 922.1 A 34.1 43.4 0 0 1 435.0 922.1 A 34.1 43.4 0 0 1 373.0 922.1 Z" fill="none" stroke="#f4f0e8" stroke-width="0.9" opacity="0.18"/>
<path d="M 435.0 922.1 A 34.1 43.4 0 0 1 497.0 922.1 A 34.1 43.4 0 0 1 435.0 922.1 Z" fill="none" stroke="#f4f0e8" stroke-width="0.9" opacity="0.18"/>
<path d="M 497.0 922.1 A 34.1 43.4 0 0 1 559.0 922.1 A 34.1 43.4 0 0 1 497.0 922.1 Z" fill="none" stroke="#f4f0e8" stroke-width="0.9" opacity="0.18"/>
<path d="M 559.0 922.1 A 34.1 43.4 0 0 1 621.0 922.1 A 34.1 43.4 0 0 1 559.0 922.1 Z" fill="none" stroke="#f4f0e8" stroke-width="0.9" opacity="0.18"/>
<path d="M 621.0 922.1 A 34.1 43.4 0 0 1 683.0 922.1 A 34.1 43.4 0 0 1 621.0 922.1 Z" fill="none" stroke="#f4f0e8" stroke-width="0.9" opacity="0.18"/>
<path d="M 683.0 922.1 A 34.1 43.4 0 0 1 745.0 922.1 A 34.1 43.4 0 0 1 683.0 922.1 Z" fill="none" stroke="#f4f0e8" stroke-width="0.9" opacity="0.18"/>
<path d="M 745.0 922.1 A 34.1 43.4 0 0 1 807.0 922.1 A 34.1 43.4 0 0 1 745.0 922.1 Z" fill="none" stroke="#f4f0e8" stroke-width="0.9" opacity="0.18"/>
<path d="M 807.0 922.1 A 34.1 43.4 0 0 1 869.0 922.1 A 34.1 43.4 0 0 1 807.0 922.1 Z" fill="none" stroke="#f4f0e8" stroke-width="0.9" opacity="0.18"/>
<path d="M 869.0 922.1 A 34.1 43.4 0 0 1 931.0 922.1 A 34.1 43.4 0 0 1 869.0 922.1 Z" fill="none" stroke="#f4f0e8" stroke-width="0.9" opacity="0.18"/>
<path d="M 931.0 922.1 A 34.1 43.4 0 0 1 993.0 922.1 A 34.1 43.4 0 0 1 931.0 922.1 Z" fill="none" stroke="#f4f0e8" stroke-width="0.9" opacity="0.18"/>
<path d="M -30.0 962.4 A 34.1 43.4 0 0 1 32.0 962.4 A 34.1 43.4 0 0 1 -30.0 962.4 Z" fill="none" stroke="#f4f0e8" stroke-width="0.9" opacity="0.18"/>
<path d="M 32.0 962.4 A 34.1 43.4 0 0 1 94.0 962.4 A 34.1 43.4 0 0 1 32.0 962.4 Z" fill="none" stroke="#f4f0e8" stroke-width="0.9" opacity="0.18"/>
<path d="M 94.0 962.4 A 34.1 43.4 0 0 1 156.0 962.4 A 34.1 43.4 0 0 1 94.0 962.4 Z" fill="none" stroke="#f4f0e8" stroke-width="0.9" opacity="0.18"/>
<path d="M 156.0 962.4 A 34.1 43.4 0 0 1 218.0 962.4 A 34.1 43.4 0 0 1 156.0 962.4 Z" fill="none" stroke="#f4f0e8" stroke-width="0.9" opacity="0.18"/>
<path d="M 218.0 962.4 A 34.1 43.4 0 0 1 280.0 962.4 A 34.1 43.4 0 0 1 218.0 962.4 Z" fill="none" stroke="#f4f0e8" stroke-width="0.9" opacity="0.18"/>
<path d="M 280.0 962.4 A 34.1 43.4 0 0 1 342.0 962.4 A 34.1 43.4 0 0 1 280.0 962.4 Z" fill="none" stroke="#f4f0e8" stroke-width="0.9" opacity="0.18"/>
<path d="M 342.0 962.4 A 34.1 43.4 0 0 1 404.0 962.4 A 34.1 43.4 0 0 1 342.0 962.4 Z" fill="none" stroke="#f4f0e8" stroke-width="0.9" opacity="0.18"/>
<path d="M 404.0 962.4 A 34.1 43.4 0 0 1 466.0 962.4 A 34.1 43.4 0 0 1 404.0 962.4 Z" fill="none" stroke="#f4f0e8" stroke-width="0.9" opacity="0.18"/>
<path d="M 466.0 962.4 A 34.1 43.4 0 0 1 528.0 962.4 A 34.1 43.4 0 0 1 466.0 962.4 Z" fill="none" stroke="#f4f0e8" stroke-width="0.9" opacity="0.18"/>
<path d="M 528.0 962.4 A 34.1 43.4 0 0 1 590.0 962.4 A 34.1 43.4 0 0 1 528.0 962.4 Z" fill="none" stroke="#f4f0e8" stroke-width="0.9" opacity="0.18"/>
<path d="M 590.0 962.4 A 34.1 43.4 0 0 1 652.0 962.4 A 34.1 43.4 0 0 1 590.0 962.4 Z" fill="none" stroke="#f4f0e8" stroke-width="0.9" opacity="0.18"/>
<path d="M 652.0 962.4 A 34.1 43.4 0 0 1 714.0 962.4 A 34.1 43.4 0 0 1 652.0 962.4 Z" fill="none" stroke="#f4f0e8" stroke-width="0.9" opacity="0.18"/>
<path d="M 714.0 962.4 A 34.1 43.4 0 0 1 776.0 962.4 A 34.1 43.4 0 0 1 714.0 962.4 Z" fill="none" stroke="#f4f0e8" stroke-width="0.9" opacity="0.18"/>
<path d="M 776.0 962.4 A 34.1 43.4 0 0 1 838.0 962.4 A 34.1 43.4 0 0 1 776.0 962.4 Z" fill="none" stroke="#f4f0e8" stroke-width="0.9" opacity="0.18"/>
<path d="M 838.0 962.4 A 34.1 43.4 0 0 1 900.0 962.4 A 34.1 43.4 0 0 1 838.0 962.4 Z" fill="none" stroke="#f4f0e8" stroke-width="0.9" opacity="0.18"/>
<path d="M 900.0 962.4 A 34.1 43.4 0 0 1 962.0 962.4 A 34.1 43.4 0 0 1 900.0 962.4 Z" fill="none" stroke="#f4f0e8" stroke-width="0.9" opacity="0.18"/>
<path d="M 1.0 1002.7 A 34.1 43.4 0 0 1 63.0 1002.7 A 34.1 43.4 0 0 1 1.0 1002.7 Z" fill="none" stroke="#f4f0e8" stroke-width="0.9" opacity="0.18"/>
<path d="M 63.0 1002.7 A 34.1 43.4 0 0 1 125.0 1002.7 A 34.1 43.4 0 0 1 63.0 1002.7 Z" fill="none" stroke="#f4f0e8" stroke-width="0.9" opacity="0.18"/>
<path d="M 125.0 1002.7 A 34.1 43.4 0 0 1 187.0 1002.7 A 34.1 43.4 0 0 1 125.0 1002.7 Z" fill="none" stroke="#f4f0e8" stroke-width="0.9" opacity="0.18"/>
<path d="M 187.0 1002.7 A 34.1 43.4 0 0 1 249.0 1002.7 A 34.1 43.4 0 0 1 187.0 1002.7 Z" fill="none" stroke="#f4f0e8" stroke-width="0.9" opacity="0.18"/>
<path d="M 249.0 1002.7 A 34.1 43.4 0 0 1 311.0 1002.7 A 34.1 43.4 0 0 1 249.0 1002.7 Z" fill="none" stroke="#f4f0e8" stroke-width="0.9" opacity="0.18"/>
<path d="M 311.0 1002.7 A 34.1 43.4 0 0 1 373.0 1002.7 A 34.1 43.4 0 0 1 311.0 1002.7 Z" fill="none" stroke="#f4f0e8" stroke-width="0.9" opacity="0.18"/>
<path d="M 373.0 1002.7 A 34.1 43.4 0 0 1 435.0 1002.7 A 34.1 43.4 0 0 1 373.0 1002.7 Z" fill="none" stroke="#f4f0e8" stroke-width="0.9" opacity="0.18"/>
<path d="M 435.0 1002.7 A 34.1 43.4 0 0 1 497.0 1002.7 A 34.1 43.4 0 0 1 435.0 1002.7 Z" fill="none" stroke="#f4f0e8" stroke-width="0.9" opacity="0.18"/>
<path d="M 497.0 1002.7 A 34.1 43.4 0 0 1 559.0 1002.7 A 34.1 43.4 0 0 1 497.0 1002.7 Z" fill="none" stroke="#f4f0e8" stroke-width="0.9" opacity="0.18"/>
<path d="M 559.0 1002.7 A 34.1 43.4 0 0 1 621.0 1002.7 A 34.1 43.4 0 0 1 559.0 1002.7 Z" fill="none" stroke="#f4f0e8" stroke-width="0.9" opacity="0.18"/>
<path d="M 621.0 1002.7 A 34.1 43.4 0 0 1 683.0 1002.7 A 34.1 43.4 0 0 1 621.0 1002.7 Z" fill="none" stroke="#f4f0e8" stroke-width="0.9" opacity="0.18"/>
<path d="M 683.0 1002.7 A 34.1 43.4 0 0 1 745.0 1002.7 A 34.1 43.4 0 0 1 683.0 1002.7 Z" fill="none" stroke="#f4f0e8" stroke-width="0.9" opacity="0.18"/>
<path d="M 745.0 1002.7 A 34.1 43.4 0 0 1 807.0 1002.7 A 34.1 43.4 0 0 1 745.0 1002.7 Z" fill="none" stroke="#f4f0e8" stroke-width="0.9" opacity="0.18"/>
<path d="M 807.0 1002.7 A 34.1 43.4 0 0 1 869.0 1002.7 A 34.1 43.4 0 0 1 807.0 1002.7 Z" fill="none" stroke="#f4f0e8" stroke-width="0.9" opacity="0.18"/>
<path d="M 869.0 1002.7 A 34.1 43.4 0 0 1 931.0 1002.7 A 34.1 43.4 0 0 1 869.0 1002.7 Z" fill="none" stroke="#f4f0e8" stroke-width="0.9" opacity="0.18"/>
<path d="M 931.0 1002.7 A 34.1 43.4 0 0 1 993.0 1002.7 A 34.1 43.4 0 0 1 931.0 1002.7 Z" fill="none" stroke="#f4f0e8" stroke-width="0.9" opacity="0.18"/>
<path d="M -30.0 1043.0 A 34.1 43.4 0 0 1 32.0 1043.0 A 34.1 43.4 0 0 1 -30.0 1043.0 Z" fill="none" stroke="#f4f0e8" stroke-width="0.9" opacity="0.18"/>
<path d="M 32.0 1043.0 A 34.1 43.4 0 0 1 94.0 1043.0 A 34.1 43.4 0 0 1 32.0 1043.0 Z" fill="none" stroke="#f4f0e8" stroke-width="0.9" opacity="0.18"/>
<path d="M 94.0 1043.0 A 34.1 43.4 0 0 1 156.0 1043.0 A 34.1 43.4 0 0 1 94.0 1043.0 Z" fill="none" stroke="#f4f0e8" stroke-width="0.9" opacity="0.18"/>
<path d="M 156.0 1043.0 A 34.1 43.4 0 0 1 218.0 1043.0 A 34.1 43.4 0 0 1 156.0 1043.0 Z" fill="none" stroke="#f4f0e8" stroke-width="0.9" opacity="0.18"/>
<path d="M 218.0 1043.0 A 34.1 43.4 0 0 1 280.0 1043.0 A 34.1 43.4 0 0 1 218.0 1043.0 Z" fill="none" stroke="#f4f0e8" stroke-width="0.9" opacity="0.18"/>
<path d="M 280.0 1043.0 A 34.1 43.4 0 0 1 342.0 1043.0 A 34.1 43.4 0 0 1 280.0 1043.0 Z" fill="none" stroke="#f4f0e8" stroke-width="0.9" opacity="0.18"/>
<path d="M 342.0 1043.0 A 34.1 43.4 0 0 1 404.0 1043.0 A 34.1 43.4 0 0 1 342.0 1043.0 Z" fill="none" stroke="#f4f0e8" stroke-width="0.9" opacity="0.18"/>
<path d="M 404.0 1043.0 A 34.1 43.4 0 0 1 466.0 1043.0 A 34.1 43.4 0 0 1 404.0 1043.0 Z" fill="none" stroke="#f4f0e8" stroke-width="0.9" opacity="0.18"/>
<path d="M 466.0 1043.0 A 34.1 43.4 0 0 1 528.0 1043.0 A 34.1 43.4 0 0 1 466.0 1043.0 Z" fill="none" stroke="#f4f0e8" stroke-width="0.9" opacity="0.18"/>
<path d="M 528.0 1043.0 A 34.1 43.4 0 0 1 590.0 1043.0 A 34.1 43.4 0 0 1 528.0 1043.0 Z" fill="none" stroke="#f4f0e8" stroke-width="0.9" opacity="0.18"/>
<path d="M 590.0 1043.0 A 34.1 43.4 0 0 1 652.0 1043.0 A 34.1 43.4 0 0 1 590.0 1043.0 Z" fill="none" stroke="#f4f0e8" stroke-width="0.9" opacity="0.18"/>
<path d="M 652.0 1043.0 A 34.1 43.4 0 0 1 714.0 1043.0 A 34.1 43.4 0 0 1 652.0 1043.0 Z" fill="none" stroke="#f4f0e8" stroke-width="0.9" opacity="0.18"/>
<path d="M 714.0 1043.0 A 34.1 43.4 0 0 1 776.0 1043.0 A 34.1 43.4 0 0 1 714.0 1043.0 Z" fill="none" stroke="#f4f0e8" stroke-width="0.9" opacity="0.18"/>
<path d="M 776.0 1043.0 A 34.1 43.4 0 0 1 838.0 1043.0 A 34.1 43.4 0 0 1 776.0 1043.0 Z" fill="none" stroke="#f4f0e8" stroke-width="0.9" opacity="0.18"/>
<path d="M 838.0 1043.0 A 34.1 43.4 0 0 1 900.0 1043.0 A 34.1 43.4 0 0 1 838.0 1043.0 Z" fill="none" stroke="#f4f0e8" stroke-width="0.9" opacity="0.18"/>
<path d="M 900.0 1043.0 A 34.1 43.4 0 0 1 962.0 1043.0 A 34.1 43.4 0 0 1 900.0 1043.0 Z" fill="none" stroke="#f4f0e8" stroke-width="0.9" opacity="0.18"/>
<path d="M 1.0 1083.3 A 34.1 43.4 0 0 1 63.0 1083.3 A 34.1 43.4 0 0 1 1.0 1083.3 Z" fill="none" stroke="#f4f0e8" stroke-width="0.9" opacity="0.18"/>
<path d="M 63.0 1083.3 A 34.1 43.4 0 0 1 125.0 1083.3 A 34.1 43.4 0 0 1 63.0 1083.3 Z" fill="none" stroke="#f4f0e8" stroke-width="0.9" opacity="0.18"/>
<path d="M 125.0 1083.3 A 34.1 43.4 0 0 1 187.0 1083.3 A 34.1 43.4 0 0 1 125.0 1083.3 Z" fill="none" stroke="#f4f0e8" stroke-width="0.9" opacity="0.18"/>
<path d="M 187.0 1083.3 A 34.1 43.4 0 0 1 249.0 1083.3 A 34.1 43.4 0 0 1 187.0 1083.3 Z" fill="none" stroke="#f4f0e8" stroke-width="0.9" opacity="0.18"/>
<path d="M 249.0 1083.3 A 34.1 43.4 0 0 1 311.0 1083.3 A 34.1 43.4 0 0 1 249.0 1083.3 Z" fill="none" stroke="#f4f0e8" stroke-width="0.9" opacity="0.18"/>
<path d="M 311.0 1083.3 A 34.1 43.4 0 0 1 373.0 1083.3 A 34.1 43.4 0 0 1 311.0 1083.3 Z" fill="none" stroke="#f4f0e8" stroke-width="0.9" opacity="0.18"/>
<path d="M 373.0 1083.3 A 34.1 43.4 0 0 1 435.0 1083.3 A 34.1 43.4 0 0 1 373.0 1083.3 Z" fill="none" stroke="#f4f0e8" stroke-width="0.9" opacity="0.18"/>
<path d="M 435.0 1083.3 A 34.1 43.4 0 0 1 497.0 1083.3 A 34.1 43.4 0 0 1 435.0 1083.3 Z" fill="none" stroke="#f4f0e8" stroke-width="0.9" opacity="0.18"/>
<path d="M 497.0 1083.3 A 34.1 43.4 0 0 1 559.0 1083.3 A 34.1 43.4 0 0 1 497.0 1083.3 Z" fill="none" stroke="#f4f0e8" stroke-width="0.9" opacity="0.18"/>
<path d="M 559.0 1083.3 A 34.1 43.4 0 0 1 621.0 1083.3 A 34.1 43.4 0 0 1 559.0 1083.3 Z" fill="none" stroke="#f4f0e8" stroke-width="0.9" opacity="0.18"/>
<path d="M 621.0 1083.3 A 34.1 43.4 0 0 1 683.0 1083.3 A 34.1 43.4 0 0 1 621.0 1083.3 Z" fill="none" stroke="#f4f0e8" stroke-width="0.9" opacity="0.18"/>
<path d="M 683.0 1083.3 A 34.1 43.4 0 0 1 745.0 1083.3 A 34.1 43.4 0 0 1 683.0 1083.3 Z" fill="none" stroke="#f4f0e8" stroke-width="0.9" opacity="0.18"/>
<path d="M 745.0 1083.3 A 34.1 43.4 0 0 1 807.0 1083.3 A 34.1 43.4 0 0 1 745.0 1083.3 Z" fill="none" stroke="#f4f0e8" stroke-width="0.9" opacity="0.18"/>
<path d="M 807.0 1083.3 A 34.1 43.4 0 0 1 869.0 1083.3 A 34.1 43.4 0 0 1 807.0 1083.3 Z" fill="none" stroke="#f4f0e8" stroke-width="0.9" opacity="0.18"/>
<path d="M 869.0 1083.3 A 34.1 43.4 0 0 1 931.0 1083.3 A 34.1 43.4 0 0 1 869.0 1083.3 Z" fill="none" stroke="#f4f0e8" stroke-width="0.9" opacity="0.18"/>
<path d="M 931.0 1083.3 A 34.1 43.4 0 0 1 993.0 1083.3 A 34.1 43.4 0 0 1 931.0 1083.3 Z" fill="none" stroke="#f4f0e8" stroke-width="0.9" opacity="0.18"/>
<path d="M -30.0 1123.6 A 34.1 43.4 0 0 1 32.0 1123.6 A 34.1 43.4 0 0 1 -30.0 1123.6 Z" fill="none" stroke="#f4f0e8" stroke-width="0.9" opacity="0.18"/>
<path d="M 32.0 1123.6 A 34.1 43.4 0 0 1 94.0 1123.6 A 34.1 43.4 0 0 1 32.0 1123.6 Z" fill="none" stroke="#f4f0e8" stroke-width="0.9" opacity="0.18"/>
<path d="M 94.0 1123.6 A 34.1 43.4 0 0 1 156.0 1123.6 A 34.1 43.4 0 0 1 94.0 1123.6 Z" fill="none" stroke="#f4f0e8" stroke-width="0.9" opacity="0.18"/>
<path d="M 156.0 1123.6 A 34.1 43.4 0 0 1 218.0 1123.6 A 34.1 43.4 0 0 1 156.0 1123.6 Z" fill="none" stroke="#f4f0e8" stroke-width="0.9" opacity="0.18"/>
<path d="M 218.0 1123.6 A 34.1 43.4 0 0 1 280.0 1123.6 A 34.1 43.4 0 0 1 218.0 1123.6 Z" fill="none" stroke="#f4f0e8" stroke-width="0.9" opacity="0.18"/>
<path d="M 280.0 1123.6 A 34.1 43.4 0 0 1 342.0 1123.6 A 34.1 43.4 0 0 1 280.0 1123.6 Z" fill="none" stroke="#f4f0e8" stroke-width="0.9" opacity="0.18"/>
<path d="M 342.0 1123.6 A 34.1 43.4 0 0 1 404.0 1123.6 A 34.1 43.4 0 0 1 342.0 1123.6 Z" fill="none" stroke="#f4f0e8" stroke-width="0.9" opacity="0.18"/>
<path d="M 404.0 1123.6 A 34.1 43.4 0 0 1 466.0 1123.6 A 34.1 43.4 0 0 1 404.0 1123.6 Z" fill="none" stroke="#f4f0e8" stroke-width="0.9" opacity="0.18"/>
<path d="M 466.0 1123.6 A 34.1 43.4 0 0 1 528.0 1123.6 A 34.1 43.4 0 0 1 466.0 1123.6 Z" fill="none" stroke="#f4f0e8" stroke-width="0.9" opacity="0.18"/>
<path d="M 528.0 1123.6 A 34.1 43.4 0 0 1 590.0 1123.6 A 34.1 43.4 0 0 1 528.0 1123.6 Z" fill="none" stroke="#f4f0e8" stroke-width="0.9" opacity="0.18"/>
<path d="M 590.0 1123.6 A 34.1 43.4 0 0 1 652.0 1123.6 A 34.1 43.4 0 0 1 590.0 1123.6 Z" fill="none" stroke="#f4f0e8" stroke-width="0.9" opacity="0.18"/>
<path d="M 652.0 1123.6 A 34.1 43.4 0 0 1 714.0 1123.6 A 34.1 43.4 0 0 1 652.0 1123.6 Z" fill="none" stroke="#f4f0e8" stroke-width="0.9" opacity="0.18"/>
<path d="M 714.0 1123.6 A 34.1 43.4 0 0 1 776.0 1123.6 A 34.1 43.4 0 0 1 714.0 1123.6 Z" fill="none" stroke="#f4f0e8" stroke-width="0.9" opacity="0.18"/>
<path d="M 776.0 1123.6 A 34.1 43.4 0 0 1 838.0 1123.6 A 34.1 43.4 0 0 1 776.0 1123.6 Z" fill="none" stroke="#f4f0e8" stroke-width="0.9" opacity="0.18"/>
<path d="M 838.0 1123.6 A 34.1 43.4 0 0 1 900.0 1123.6 A 34.1 43.4 0 0 1 838.0 1123.6 Z" fill="none" stroke="#f4f0e8" stroke-width="0.9" opacity="0.18"/>
<path d="M 900.0 1123.6 A 34.1 43.4 0 0 1 962.0 1123.6 A 34.1 43.4 0 0 1 900.0 1123.6 Z" fill="none" stroke="#f4f0e8" stroke-width="0.9" opacity="0.18"/>
<path d="M 1.0 1163.9 A 34.1 43.4 0 0 1 63.0 1163.9 A 34.1 43.4 0 0 1 1.0 1163.9 Z" fill="none" stroke="#f4f0e8" stroke-width="0.9" opacity="0.18"/>
<path d="M 63.0 1163.9 A 34.1 43.4 0 0 1 125.0 1163.9 A 34.1 43.4 0 0 1 63.0 1163.9 Z" fill="none" stroke="#f4f0e8" stroke-width="0.9" opacity="0.18"/>
<path d="M 125.0 1163.9 A 34.1 43.4 0 0 1 187.0 1163.9 A 34.1 43.4 0 0 1 125.0 1163.9 Z" fill="none" stroke="#f4f0e8" stroke-width="0.9" opacity="0.18"/>
<path d="M 187.0 1163.9 A 34.1 43.4 0 0 1 249.0 1163.9 A 34.1 43.4 0 0 1 187.0 1163.9 Z" fill="none" stroke="#f4f0e8" stroke-width="0.9" opacity="0.18"/>
<path d="M 249.0 1163.9 A 34.1 43.4 0 0 1 311.0 1163.9 A 34.1 43.4 0 0 1 249.0 1163.9 Z" fill="none" stroke="#f4f0e8" stroke-width="0.9" opacity="0.18"/>
<path d="M 311.0 1163.9 A 34.1 43.4 0 0 1 373.0 1163.9 A 34.1 43.4 0 0 1 311.0 1163.9 Z" fill="none" stroke="#f4f0e8" stroke-width="0.9" opacity="0.18"/>
<path d="M 373.0 1163.9 A 34.1 43.4 0 0 1 435.0 1163.9 A 34.1 43.4 0 0 1 373.0 1163.9 Z" fill="none" stroke="#f4f0e8" stroke-width="0.9" opacity="0.18"/>
<path d="M 435.0 1163.9 A 34.1 43.4 0 0 1 497.0 1163.9 A 34.1 43.4 0 0 1 435.0 1163.9 Z" fill="none" stroke="#f4f0e8" stroke-width="0.9" opacity="0.18"/>
<path d="M 497.0 1163.9 A 34.1 43.4 0 0 1 559.0 1163.9 A 34.1 43.4 0 0 1 497.0 1163.9 Z" fill="none" stroke="#f4f0e8" stroke-width="0.9" opacity="0.18"/>
<path d="M 559.0 1163.9 A 34.1 43.4 0 0 1 621.0 1163.9 A 34.1 43.4 0 0 1 559.0 1163.9 Z" fill="none" stroke="#f4f0e8" stroke-width="0.9" opacity="0.18"/>
<path d="M 621.0 1163.9 A 34.1 43.4 0 0 1 683.0 1163.9 A 34.1 43.4 0 0 1 621.0 1163.9 Z" fill="none" stroke="#f4f0e8" stroke-width="0.9" opacity="0.18"/>
<path d="M 683.0 1163.9 A 34.1 43.4 0 0 1 745.0 1163.9 A 34.1 43.4 0 0 1 683.0 1163.9 Z" fill="none" stroke="#f4f0e8" stroke-width="0.9" opacity="0.18"/>
<path d="M 745.0 1163.9 A 34.1 43.4 0 0 1 807.0 1163.9 A 34.1 43.4 0 0 1 745.0 1163.9 Z" fill="none" stroke="#f4f0e8" stroke-width="0.9" opacity="0.18"/>
<path d="M 807.0 1163.9 A 34.1 43.4 0 0 1 869.0 1163.9 A 34.1 43.4 0 0 1 807.0 1163.9 Z" fill="none" stroke="#f4f0e8" stroke-width="0.9" opacity="0.18"/>
<path d="M 869.0 1163.9 A 34.1 43.4 0 0 1 931.0 1163.9 A 34.1 43.4 0 0 1 869.0 1163.9 Z" fill="none" stroke="#f4f0e8" stroke-width="0.9" opacity="0.18"/>
<path d="M 931.0 1163.9 A 34.1 43.4 0 0 1 993.0 1163.9 A 34.1 43.4 0 0 1 931.0 1163.9 Z" fill="none" stroke="#f4f0e8" stroke-width="0.9" opacity="0.18"/>
<path d="M -30.0 1204.2 A 34.1 43.4 0 0 1 32.0 1204.2 A 34.1 43.4 0 0 1 -30.0 1204.2 Z" fill="none" stroke="#f4f0e8" stroke-width="0.9" opacity="0.18"/>
<path d="M 32.0 1204.2 A 34.1 43.4 0 0 1 94.0 1204.2 A 34.1 43.4 0 0 1 32.0 1204.2 Z" fill="none" stroke="#f4f0e8" stroke-width="0.9" opacity="0.18"/>
<path d="M 94.0 1204.2 A 34.1 43.4 0 0 1 156.0 1204.2 A 34.1 43.4 0 0 1 94.0 1204.2 Z" fill="none" stroke="#f4f0e8" stroke-width="0.9" opacity="0.18"/>
<path d="M 156.0 1204.2 A 34.1 43.4 0 0 1 218.0 1204.2 A 34.1 43.4 0 0 1 156.0 1204.2 Z" fill="none" stroke="#f4f0e8" stroke-width="0.9" opacity="0.18"/>
<path d="M 218.0 1204.2 A 34.1 43.4 0 0 1 280.0 1204.2 A 34.1 43.4 0 0 1 218.0 1204.2 Z" fill="none" stroke="#f4f0e8" stroke-width="0.9" opacity="0.18"/>
<path d="M 280.0 1204.2 A 34.1 43.4 0 0 1 342.0 1204.2 A 34.1 43.4 0 0 1 280.0 1204.2 Z" fill="none" stroke="#f4f0e8" stroke-width="0.9" opacity="0.18"/>
<path d="M 342.0 1204.2 A 34.1 43.4 0 0 1 404.0 1204.2 A 34.1 43.4 0 0 1 342.0 1204.2 Z" fill="none" stroke="#f4f0e8" stroke-width="0.9" opacity="0.18"/>
<path d="M 404.0 1204.2 A 34.1 43.4 0 0 1 466.0 1204.2 A 34.1 43.4 0 0 1 404.0 1204.2 Z" fill="none" stroke="#f4f0e8" stroke-width="0.9" opacity="0.18"/>
<path d="M 466.0 1204.2 A 34.1 43.4 0 0 1 528.0 1204.2 A 34.1 43.4 0 0 1 466.0 1204.2 Z" fill="none" stroke="#f4f0e8" stroke-width="0.9" opacity="0.18"/>
<path d="M 528.0 1204.2 A 34.1 43.4 0 0 1 590.0 1204.2 A 34.1 43.4 0 0 1 528.0 1204.2 Z" fill="none" stroke="#f4f0e8" stroke-width="0.9" opacity="0.18"/>
<path d="M 590.0 1204.2 A 34.1 43.4 0 0 1 652.0 1204.2 A 34.1 43.4 0 0 1 590.0 1204.2 Z" fill="none" stroke="#f4f0e8" stroke-width="0.9" opacity="0.18"/>
<path d="M 652.0 1204.2 A 34.1 43.4 0 0 1 714.0 1204.2 A 34.1 43.4 0 0 1 652.0 1204.2 Z" fill="none" stroke="#f4f0e8" stroke-width="0.9" opacity="0.18"/>
<path d="M 714.0 1204.2 A 34.1 43.4 0 0 1 776.0 1204.2 A 34.1 43.4 0 0 1 714.0 1204.2 Z" fill="none" stroke="#f4f0e8" stroke-width="0.9" opacity="0.18"/>
<path d="M 776.0 1204.2 A 34.1 43.4 0 0 1 838.0 1204.2 A 34.1 43.4 0 0 1 776.0 1204.2 Z" fill="none" stroke="#f4f0e8" stroke-width="0.9" opacity="0.18"/>
<path d="M 838.0 1204.2 A 34.1 43.4 0 0 1 900.0 1204.2 A 34.1 43.4 0 0 1 838.0 1204.2 Z" fill="none" stroke="#f4f0e8" stroke-width="0.9" opacity="0.18"/>
<path d="M 900.0 1204.2 A 34.1 43.4 0 0 1 962.0 1204.2 A 34.1 43.4 0 0 1 900.0 1204.2 Z" fill="none" stroke="#f4f0e8" stroke-width="0.9" opacity="0.18"/>
<path d="M 1.0 1244.5 A 34.1 43.4 0 0 1 63.0 1244.5 A 34.1 43.4 0 0 1 1.0 1244.5 Z" fill="none" stroke="#f4f0e8" stroke-width="0.9" opacity="0.18"/>
<path d="M 63.0 1244.5 A 34.1 43.4 0 0 1 125.0 1244.5 A 34.1 43.4 0 0 1 63.0 1244.5 Z" fill="none" stroke="#f4f0e8" stroke-width="0.9" opacity="0.18"/>
<path d="M 125.0 1244.5 A 34.1 43.4 0 0 1 187.0 1244.5 A 34.1 43.4 0 0 1 125.0 1244.5 Z" fill="none" stroke="#f4f0e8" stroke-width="0.9" opacity="0.18"/>
<path d="M 187.0 1244.5 A 34.1 43.4 0 0 1 249.0 1244.5 A 34.1 43.4 0 0 1 187.0 1244.5 Z" fill="none" stroke="#f4f0e8" stroke-width="0.9" opacity="0.18"/>
<path d="M 249.0 1244.5 A 34.1 43.4 0 0 1 311.0 1244.5 A 34.1 43.4 0 0 1 249.0 1244.5 Z" fill="none" stroke="#f4f0e8" stroke-width="0.9" opacity="0.18"/>
<path d="M 311.0 1244.5 A 34.1 43.4 0 0 1 373.0 1244.5 A 34.1 43.4 0 0 1 311.0 1244.5 Z" fill="none" stroke="#f4f0e8" stroke-width="0.9" opacity="0.18"/>
<path d="M 373.0 1244.5 A 34.1 43.4 0 0 1 435.0 1244.5 A 34.1 43.4 0 0 1 373.0 1244.5 Z" fill="none" stroke="#f4f0e8" stroke-width="0.9" opacity="0.18"/>
<path d="M 435.0 1244.5 A 34.1 43.4 0 0 1 497.0 1244.5 A 34.1 43.4 0 0 1 435.0 1244.5 Z" fill="none" stroke="#f4f0e8" stroke-width="0.9" opacity="0.18"/>
<path d="M 497.0 1244.5 A 34.1 43.4 0 0 1 559.0 1244.5 A 34.1 43.4 0 0 1 497.0 1244.5 Z" fill="none" stroke="#f4f0e8" stroke-width="0.9" opacity="0.18"/>
<path d="M 559.0 1244.5 A 34.1 43.4 0 0 1 621.0 1244.5 A 34.1 43.4 0 0 1 559.0 1244.5 Z" fill="none" stroke="#f4f0e8" stroke-width="0.9" opacity="0.18"/>
<path d="M 621.0 1244.5 A 34.1 43.4 0 0 1 683.0 1244.5 A 34.1 43.4 0 0 1 621.0 1244.5 Z" fill="none" stroke="#f4f0e8" stroke-width="0.9" opacity="0.18"/>
<path d="M 683.0 1244.5 A 34.1 43.4 0 0 1 745.0 1244.5 A 34.1 43.4 0 0 1 683.0 1244.5 Z" fill="none" stroke="#f4f0e8" stroke-width="0.9" opacity="0.18"/>
<path d="M 745.0 1244.5 A 34.1 43.4 0 0 1 807.0 1244.5 A 34.1 43.4 0 0 1 745.0 1244.5 Z" fill="none" stroke="#f4f0e8" stroke-width="0.9" opacity="0.18"/>
<path d="M 807.0 1244.5 A 34.1 43.4 0 0 1 869.0 1244.5 A 34.1 43.4 0 0 1 807.0 1244.5 Z" fill="none" stroke="#f4f0e8" stroke-width="0.9" opacity="0.18"/>
<path d="M 869.0 1244.5 A 34.1 43.4 0 0 1 931.0 1244.5 A 34.1 43.4 0 0 1 869.0 1244.5 Z" fill="none" stroke="#f4f0e8" stroke-width="0.9" opacity="0.18"/>
<path d="M 931.0 1244.5 A 34.1 43.4 0 0 1 993.0 1244.5 A 34.1 43.4 0 0 1 931.0 1244.5 Z" fill="none" stroke="#f4f0e8" stroke-width="0.9" opacity="0.18"/>
<path d="M -30.0 1284.8 A 34.1 43.4 0 0 1 32.0 1284.8 A 34.1 43.4 0 0 1 -30.0 1284.8 Z" fill="none" stroke="#f4f0e8" stroke-width="0.9" opacity="0.18"/>
<path d="M 32.0 1284.8 A 34.1 43.4 0 0 1 94.0 1284.8 A 34.1 43.4 0 0 1 32.0 1284.8 Z" fill="none" stroke="#f4f0e8" stroke-width="0.9" opacity="0.18"/>
<path d="M 94.0 1284.8 A 34.1 43.4 0 0 1 156.0 1284.8 A 34.1 43.4 0 0 1 94.0 1284.8 Z" fill="none" stroke="#f4f0e8" stroke-width="0.9" opacity="0.18"/>
<path d="M 156.0 1284.8 A 34.1 43.4 0 0 1 218.0 1284.8 A 34.1 43.4 0 0 1 156.0 1284.8 Z" fill="none" stroke="#f4f0e8" stroke-width="0.9" opacity="0.18"/>
<path d="M 218.0 1284.8 A 34.1 43.4 0 0 1 280.0 1284.8 A 34.1 43.4 0 0 1 218.0 1284.8 Z" fill="none" stroke="#f4f0e8" stroke-width="0.9" opacity="0.18"/>
<path d="M 280.0 1284.8 A 34.1 43.4 0 0 1 342.0 1284.8 A 34.1 43.4 0 0 1 280.0 1284.8 Z" fill="none" stroke="#f4f0e8" stroke-width="0.9" opacity="0.18"/>
<path d="M 342.0 1284.8 A 34.1 43.4 0 0 1 404.0 1284.8 A 34.1 43.4 0 0 1 342.0 1284.8 Z" fill="none" stroke="#f4f0e8" stroke-width="0.9" opacity="0.18"/>
<path d="M 404.0 1284.8 A 34.1 43.4 0 0 1 466.0 1284.8 A 34.1 43.4 0 0 1 404.0 1284.8 Z" fill="none" stroke="#f4f0e8" stroke-width="0.9" opacity="0.18"/>
<path d="M 466.0 1284.8 A 34.1 43.4 0 0 1 528.0 1284.8 A 34.1 43.4 0 0 1 466.0 1284.8 Z" fill="none" stroke="#f4f0e8" stroke-width="0.9" opacity="0.18"/>
<path d="M 528.0 1284.8 A 34.1 43.4 0 0 1 590.0 1284.8 A 34.1 43.4 0 0 1 528.0 1284.8 Z" fill="none" stroke="#f4f0e8" stroke-width="0.9" opacity="0.18"/>
<path d="M 590.0 1284.8 A 34.1 43.4 0 0 1 652.0 1284.8 A 34.1 43.4 0 0 1 590.0 1284.8 Z" fill="none" stroke="#f4f0e8" stroke-width="0.9" opacity="0.18"/>
<path d="M 652.0 1284.8 A 34.1 43.4 0 0 1 714.0 1284.8 A 34.1 43.4 0 0 1 652.0 1284.8 Z" fill="none" stroke="#f4f0e8" stroke-width="0.9" opacity="0.18"/>
<path d="M 714.0 1284.8 A 34.1 43.4 0 0 1 776.0 1284.8 A 34.1 43.4 0 0 1 714.0 1284.8 Z" fill="none" stroke="#f4f0e8" stroke-width="0.9" opacity="0.18"/>
<path d="M 776.0 1284.8 A 34.1 43.4 0 0 1 838.0 1284.8 A 34.1 43.4 0 0 1 776.0 1284.8 Z" fill="none" stroke="#f4f0e8" stroke-width="0.9" opacity="0.18"/>
<path d="M 838.0 1284.8 A 34.1 43.4 0 0 1 900.0 1284.8 A 34.1 43.4 0 0 1 838.0 1284.8 Z" fill="none" stroke="#f4f0e8" stroke-width="0.9" opacity="0.18"/>
<path d="M 900.0 1284.8 A 34.1 43.4 0 0 1 962.0 1284.8 A 34.1 43.4 0 0 1 900.0 1284.8 Z" fill="none" stroke="#f4f0e8" stroke-width="0.9" opacity="0.18"/>
<path d="M 1.0 1325.1 A 34.1 43.4 0 0 1 63.0 1325.1 A 34.1 43.4 0 0 1 1.0 1325.1 Z" fill="none" stroke="#f4f0e8" stroke-width="0.9" opacity="0.18"/>
<path d="M 63.0 1325.1 A 34.1 43.4 0 0 1 125.0 1325.1 A 34.1 43.4 0 0 1 63.0 1325.1 Z" fill="none" stroke="#f4f0e8" stroke-width="0.9" opacity="0.18"/>
<path d="M 125.0 1325.1 A 34.1 43.4 0 0 1 187.0 1325.1 A 34.1 43.4 0 0 1 125.0 1325.1 Z" fill="none" stroke="#f4f0e8" stroke-width="0.9" opacity="0.18"/>
<path d="M 187.0 1325.1 A 34.1 43.4 0 0 1 249.0 1325.1 A 34.1 43.4 0 0 1 187.0 1325.1 Z" fill="none" stroke="#f4f0e8" stroke-width="0.9" opacity="0.18"/>
<path d="M 249.0 1325.1 A 34.1 43.4 0 0 1 311.0 1325.1 A 34.1 43.4 0 0 1 249.0 1325.1 Z" fill="none" stroke="#f4f0e8" stroke-width="0.9" opacity="0.18"/>
<path d="M 311.0 1325.1 A 34.1 43.4 0 0 1 373.0 1325.1 A 34.1 43.4 0 0 1 311.0 1325.1 Z" fill="none" stroke="#f4f0e8" stroke-width="0.9" opacity="0.18"/>
<path d="M 373.0 1325.1 A 34.1 43.4 0 0 1 435.0 1325.1 A 34.1 43.4 0 0 1 373.0 1325.1 Z" fill="none" stroke="#f4f0e8" stroke-width="0.9" opacity="0.18"/>
<path d="M 435.0 1325.1 A 34.1 43.4 0 0 1 497.0 1325.1 A 34.1 43.4 0 0 1 435.0 1325.1 Z" fill="none" stroke="#f4f0e8" stroke-width="0.9" opacity="0.18"/>
<path d="M 497.0 1325.1 A 34.1 43.4 0 0 1 559.0 1325.1 A 34.1 43.4 0 0 1 497.0 1325.1 Z" fill="none" stroke="#f4f0e8" stroke-width="0.9" opacity="0.18"/>
<path d="M 559.0 1325.1 A 34.1 43.4 0 0 1 621.0 1325.1 A 34.1 43.4 0 0 1 559.0 1325.1 Z" fill="none" stroke="#f4f0e8" stroke-width="0.9" opacity="0.18"/>
<path d="M 621.0 1325.1 A 34.1 43.4 0 0 1 683.0 1325.1 A 34.1 43.4 0 0 1 621.0 1325.1 Z" fill="none" stroke="#f4f0e8" stroke-width="0.9" opacity="0.18"/>
<path d="M 683.0 1325.1 A 34.1 43.4 0 0 1 745.0 1325.1 A 34.1 43.4 0 0 1 683.0 1325.1 Z" fill="none" stroke="#f4f0e8" stroke-width="0.9" opacity="0.18"/>
<path d="M 745.0 1325.1 A 34.1 43.4 0 0 1 807.0 1325.1 A 34.1 43.4 0 0 1 745.0 1325.1 Z" fill="none" stroke="#f4f0e8" stroke-width="0.9" opacity="0.18"/>
<path d="M 807.0 1325.1 A 34.1 43.4 0 0 1 869.0 1325.1 A 34.1 43.4 0 0 1 807.0 1325.1 Z" fill="none" stroke="#f4f0e8" stroke-width="0.9" opacity="0.18"/>
<path d="M 869.0 1325.1 A 34.1 43.4 0 0 1 931.0 1325.1 A 34.1 43.4 0 0 1 869.0 1325.1 Z" fill="none" stroke="#f4f0e8" stroke-width="0.9" opacity="0.18"/>
<path d="M 931.0 1325.1 A 34.1 43.4 0 0 1 993.0 1325.1 A 34.1 43.4 0 0 1 931.0 1325.1 Z" fill="none" stroke="#f4f0e8" stroke-width="0.9" opacity="0.18"/>
<path d="M -30.0 1365.4 A 34.1 43.4 0 0 1 32.0 1365.4 A 34.1 43.4 0 0 1 -30.0 1365.4 Z" fill="none" stroke="#f4f0e8" stroke-width="0.9" opacity="0.18"/>
<path d="M 32.0 1365.4 A 34.1 43.4 0 0 1 94.0 1365.4 A 34.1 43.4 0 0 1 32.0 1365.4 Z" fill="none" stroke="#f4f0e8" stroke-width="0.9" opacity="0.18"/>
<path d="M 94.0 1365.4 A 34.1 43.4 0 0 1 156.0 1365.4 A 34.1 43.4 0 0 1 94.0 1365.4 Z" fill="none" stroke="#f4f0e8" stroke-width="0.9" opacity="0.18"/>
<path d="M 156.0 1365.4 A 34.1 43.4 0 0 1 218.0 1365.4 A 34.1 43.4 0 0 1 156.0 1365.4 Z" fill="none" stroke="#f4f0e8" stroke-width="0.9" opacity="0.18"/>
<path d="M 218.0 1365.4 A 34.1 43.4 0 0 1 280.0 1365.4 A 34.1 43.4 0 0 1 218.0 1365.4 Z" fill="none" stroke="#f4f0e8" stroke-width="0.9" opacity="0.18"/>
<path d="M 280.0 1365.4 A 34.1 43.4 0 0 1 342.0 1365.4 A 34.1 43.4 0 0 1 280.0 1365.4 Z" fill="none" stroke="#f4f0e8" stroke-width="0.9" opacity="0.18"/>
<path d="M 342.0 1365.4 A 34.1 43.4 0 0 1 404.0 1365.4 A 34.1 43.4 0 0 1 342.0 1365.4 Z" fill="none" stroke="#f4f0e8" stroke-width="0.9" opacity="0.18"/>
<path d="M 404.0 1365.4 A 34.1 43.4 0 0 1 466.0 1365.4 A 34.1 43.4 0 0 1 404.0 1365.4 Z" fill="none" stroke="#f4f0e8" stroke-width="0.9" opacity="0.18"/>
<path d="M 466.0 1365.4 A 34.1 43.4 0 0 1 528.0 1365.4 A 34.1 43.4 0 0 1 466.0 1365.4 Z" fill="none" stroke="#f4f0e8" stroke-width="0.9" opacity="0.18"/>
<path d="M 528.0 1365.4 A 34.1 43.4 0 0 1 590.0 1365.4 A 34.1 43.4 0 0 1 528.0 1365.4 Z" fill="none" stroke="#f4f0e8" stroke-width="0.9" opacity="0.18"/>
<path d="M 590.0 1365.4 A 34.1 43.4 0 0 1 652.0 1365.4 A 34.1 43.4 0 0 1 590.0 1365.4 Z" fill="none" stroke="#f4f0e8" stroke-width="0.9" opacity="0.18"/>
<path d="M 652.0 1365.4 A 34.1 43.4 0 0 1 714.0 1365.4 A 34.1 43.4 0 0 1 652.0 1365.4 Z" fill="none" stroke="#f4f0e8" stroke-width="0.9" opacity="0.18"/>
<path d="M 714.0 1365.4 A 34.1 43.4 0 0 1 776.0 1365.4 A 34.1 43.4 0 0 1 714.0 1365.4 Z" fill="none" stroke="#f4f0e8" stroke-width="0.9" opacity="0.18"/>
<path d="M 776.0 1365.4 A 34.1 43.4 0 0 1 838.0 1365.4 A 34.1 43.4 0 0 1 776.0 1365.4 Z" fill="none" stroke="#f4f0e8" stroke-width="0.9" opacity="0.18"/>
<path d="M 838.0 1365.4 A 34.1 43.4 0 0 1 900.0 1365.4 A 34.1 43.4 0 0 1 838.0 1365.4 Z" fill="none" stroke="#f4f0e8" stroke-width="0.9" opacity="0.18"/>
<path d="M 900.0 1365.4 A 34.1 43.4 0 0 1 962.0 1365.4 A 34.1 43.4 0 0 1 900.0 1365.4 Z" fill="none" stroke="#f4f0e8" stroke-width="0.9" opacity="0.18"/>
<path d="M 1.0 1405.7 A 34.1 43.4 0 0 1 63.0 1405.7 A 34.1 43.4 0 0 1 1.0 1405.7 Z" fill="none" stroke="#f4f0e8" stroke-width="0.9" opacity="0.18"/>
<path d="M 63.0 1405.7 A 34.1 43.4 0 0 1 125.0 1405.7 A 34.1 43.4 0 0 1 63.0 1405.7 Z" fill="none" stroke="#f4f0e8" stroke-width="0.9" opacity="0.18"/>
<path d="M 125.0 1405.7 A 34.1 43.4 0 0 1 187.0 1405.7 A 34.1 43.4 0 0 1 125.0 1405.7 Z" fill="none" stroke="#f4f0e8" stroke-width="0.9" opacity="0.18"/>
<path d="M 187.0 1405.7 A 34.1 43.4 0 0 1 249.0 1405.7 A 34.1 43.4 0 0 1 187.0 1405.7 Z" fill="none" stroke="#f4f0e8" stroke-width="0.9" opacity="0.18"/>
<path d="M 249.0 1405.7 A 34.1 43.4 0 0 1 311.0 1405.7 A 34.1 43.4 0 0 1 249.0 1405.7 Z" fill="none" stroke="#f4f0e8" stroke-width="0.9" opacity="0.18"/>
<path d="M 311.0 1405.7 A 34.1 43.4 0 0 1 373.0 1405.7 A 34.1 43.4 0 0 1 311.0 1405.7 Z" fill="none" stroke="#f4f0e8" stroke-width="0.9" opacity="0.18"/>
<path d="M 373.0 1405.7 A 34.1 43.4 0 0 1 435.0 1405.7 A 34.1 43.4 0 0 1 373.0 1405.7 Z" fill="none" stroke="#f4f0e8" stroke-width="0.9" opacity="0.18"/>
<path d="M 435.0 1405.7 A 34.1 43.4 0 0 1 497.0 1405.7 A 34.1 43.4 0 0 1 435.0 1405.7 Z" fill="none" stroke="#f4f0e8" stroke-width="0.9" opacity="0.18"/>
<path d="M 497.0 1405.7 A 34.1 43.4 0 0 1 559.0 1405.7 A 34.1 43.4 0 0 1 497.0 1405.7 Z" fill="none" stroke="#f4f0e8" stroke-width="0.9" opacity="0.18"/>
<path d="M 559.0 1405.7 A 34.1 43.4 0 0 1 621.0 1405.7 A 34.1 43.4 0 0 1 559.0 1405.7 Z" fill="none" stroke="#f4f0e8" stroke-width="0.9" opacity="0.18"/>
<path d="M 621.0 1405.7 A 34.1 43.4 0 0 1 683.0 1405.7 A 34.1 43.4 0 0 1 621.0 1405.7 Z" fill="none" stroke="#f4f0e8" stroke-width="0.9" opacity="0.18"/>
<path d="M 683.0 1405.7 A 34.1 43.4 0 0 1 745.0 1405.7 A 34.1 43.4 0 0 1 683.0 1405.7 Z" fill="none" stroke="#f4f0e8" stroke-width="0.9" opacity="0.18"/>
<path d="M 745.0 1405.7 A 34.1 43.4 0 0 1 807.0 1405.7 A 34.1 43.4 0 0 1 745.0 1405.7 Z" fill="none" stroke="#f4f0e8" stroke-width="0.9" opacity="0.18"/>
<path d="M 807.0 1405.7 A 34.1 43.4 0 0 1 869.0 1405.7 A 34.1 43.4 0 0 1 807.0 1405.7 Z" fill="none" stroke="#f4f0e8" stroke-width="0.9" opacity="0.18"/>
<path d="M 869.0 1405.7 A 34.1 43.4 0 0 1 931.0 1405.7 A 34.1 43.4 0 0 1 869.0 1405.7 Z" fill="none" stroke="#f4f0e8" stroke-width="0.9" opacity="0.18"/>
<path d="M 931.0 1405.7 A 34.1 43.4 0 0 1 993.0 1405.7 A 34.1 43.4 0 0 1 931.0 1405.7 Z" fill="none" stroke="#f4f0e8" stroke-width="0.9" opacity="0.18"/>
<path d="M -30.0 1446.0 A 34.1 43.4 0 0 1 32.0 1446.0 A 34.1 43.4 0 0 1 -30.0 1446.0 Z" fill="none" stroke="#f4f0e8" stroke-width="0.9" opacity="0.18"/>
<path d="M 32.0 1446.0 A 34.1 43.4 0 0 1 94.0 1446.0 A 34.1 43.4 0 0 1 32.0 1446.0 Z" fill="none" stroke="#f4f0e8" stroke-width="0.9" opacity="0.18"/>
<path d="M 94.0 1446.0 A 34.1 43.4 0 0 1 156.0 1446.0 A 34.1 43.4 0 0 1 94.0 1446.0 Z" fill="none" stroke="#f4f0e8" stroke-width="0.9" opacity="0.18"/>
<path d="M 156.0 1446.0 A 34.1 43.4 0 0 1 218.0 1446.0 A 34.1 43.4 0 0 1 156.0 1446.0 Z" fill="none" stroke="#f4f0e8" stroke-width="0.9" opacity="0.18"/>
<path d="M 218.0 1446.0 A 34.1 43.4 0 0 1 280.0 1446.0 A 34.1 43.4 0 0 1 218.0 1446.0 Z" fill="none" stroke="#f4f0e8" stroke-width="0.9" opacity="0.18"/>
<path d="M 280.0 1446.0 A 34.1 43.4 0 0 1 342.0 1446.0 A 34.1 43.4 0 0 1 280.0 1446.0 Z" fill="none" stroke="#f4f0e8" stroke-width="0.9" opacity="0.18"/>
<path d="M 342.0 1446.0 A 34.1 43.4 0 0 1 404.0 1446.0 A 34.1 43.4 0 0 1 342.0 1446.0 Z" fill="none" stroke="#f4f0e8" stroke-width="0.9" opacity="0.18"/>
<path d="M 404.0 1446.0 A 34.1 43.4 0 0 1 466.0 1446.0 A 34.1 43.4 0 0 1 404.0 1446.0 Z" fill="none" stroke="#f4f0e8" stroke-width="0.9" opacity="0.18"/>
<path d="M 466.0 1446.0 A 34.1 43.4 0 0 1 528.0 1446.0 A 34.1 43.4 0 0 1 466.0 1446.0 Z" fill="none" stroke="#f4f0e8" stroke-width="0.9" opacity="0.18"/>
<path d="M 528.0 1446.0 A 34.1 43.4 0 0 1 590.0 1446.0 A 34.1 43.4 0 0 1 528.0 1446.0 Z" fill="none" stroke="#f4f0e8" stroke-width="0.9" opacity="0.18"/>
<path d="M 590.0 1446.0 A 34.1 43.4 0 0 1 652.0 1446.0 A 34.1 43.4 0 0 1 590.0 1446.0 Z" fill="none" stroke="#f4f0e8" stroke-width="0.9" opacity="0.18"/>
<path d="M 652.0 1446.0 A 34.1 43.4 0 0 1 714.0 1446.0 A 34.1 43.4 0 0 1 652.0 1446.0 Z" fill="none" stroke="#f4f0e8" stroke-width="0.9" opacity="0.18"/>
<path d="M 714.0 1446.0 A 34.1 43.4 0 0 1 776.0 1446.0 A 34.1 43.4 0 0 1 714.0 1446.0 Z" fill="none" stroke="#f4f0e8" stroke-width="0.9" opacity="0.18"/>
<path d="M 776.0 1446.0 A 34.1 43.4 0 0 1 838.0 1446.0 A 34.1 43.4 0 0 1 776.0 1446.0 Z" fill="none" stroke="#f4f0e8" stroke-width="0.9" opacity="0.18"/>
<path d="M 838.0 1446.0 A 34.1 43.4 0 0 1 900.0 1446.0 A 34.1 43.4 0 0 1 838.0 1446.0 Z" fill="none" stroke="#f4f0e8" stroke-width="0.9" opacity="0.18"/>
<path d="M 900.0 1446.0 A 34.1 43.4 0 0 1 962.0 1446.0 A 34.1 43.4 0 0 1 900.0 1446.0 Z" fill="none" stroke="#f4f0e8" stroke-width="0.9" opacity="0.18"/>
<path d="M 1.0 1486.3 A 34.1 43.4 0 0 1 63.0 1486.3 A 34.1 43.4 0 0 1 1.0 1486.3 Z" fill="none" stroke="#f4f0e8" stroke-width="0.9" opacity="0.18"/>
<path d="M 63.0 1486.3 A 34.1 43.4 0 0 1 125.0 1486.3 A 34.1 43.4 0 0 1 63.0 1486.3 Z" fill="none" stroke="#f4f0e8" stroke-width="0.9" opacity="0.18"/>
<path d="M 125.0 1486.3 A 34.1 43.4 0 0 1 187.0 1486.3 A 34.1 43.4 0 0 1 125.0 1486.3 Z" fill="none" stroke="#f4f0e8" stroke-width="0.9" opacity="0.18"/>
<path d="M 187.0 1486.3 A 34.1 43.4 0 0 1 249.0 1486.3 A 34.1 43.4 0 0 1 187.0 1486.3 Z" fill="none" stroke="#f4f0e8" stroke-width="0.9" opacity="0.18"/>
<path d="M 249.0 1486.3 A 34.1 43.4 0 0 1 311.0 1486.3 A 34.1 43.4 0 0 1 249.0 1486.3 Z" fill="none" stroke="#f4f0e8" stroke-width="0.9" opacity="0.18"/>
<path d="M 311.0 1486.3 A 34.1 43.4 0 0 1 373.0 1486.3 A 34.1 43.4 0 0 1 311.0 1486.3 Z" fill="none" stroke="#f4f0e8" stroke-width="0.9" opacity="0.18"/>
<path d="M 373.0 1486.3 A 34.1 43.4 0 0 1 435.0 1486.3 A 34.1 43.4 0 0 1 373.0 1486.3 Z" fill="none" stroke="#f4f0e8" stroke-width="0.9" opacity="0.18"/>
<path d="M 435.0 1486.3 A 34.1 43.4 0 0 1 497.0 1486.3 A 34.1 43.4 0 0 1 435.0 1486.3 Z" fill="none" stroke="#f4f0e8" stroke-width="0.9" opacity="0.18"/>
<path d="M 497.0 1486.3 A 34.1 43.4 0 0 1 559.0 1486.3 A 34.1 43.4 0 0 1 497.0 1486.3 Z" fill="none" stroke="#f4f0e8" stroke-width="0.9" opacity="0.18"/>
<path d="M 559.0 1486.3 A 34.1 43.4 0 0 1 621.0 1486.3 A 34.1 43.4 0 0 1 559.0 1486.3 Z" fill="none" stroke="#f4f0e8" stroke-width="0.9" opacity="0.18"/>
<path d="M 621.0 1486.3 A 34.1 43.4 0 0 1 683.0 1486.3 A 34.1 43.4 0 0 1 621.0 1486.3 Z" fill="none" stroke="#f4f0e8" stroke-width="0.9" opacity="0.18"/>
<path d="M 683.0 1486.3 A 34.1 43.4 0 0 1 745.0 1486.3 A 34.1 43.4 0 0 1 683.0 1486.3 Z" fill="none" stroke="#f4f0e8" stroke-width="0.9" opacity="0.18"/>
<path d="M 745.0 1486.3 A 34.1 43.4 0 0 1 807.0 1486.3 A 34.1 43.4 0 0 1 745.0 1486.3 Z" fill="none" stroke="#f4f0e8" stroke-width="0.9" opacity="0.18"/>
<path d="M 807.0 1486.3 A 34.1 43.4 0 0 1 869.0 1486.3 A 34.1 43.4 0 0 1 807.0 1486.3 Z" fill="none" stroke="#f4f0e8" stroke-width="0.9" opacity="0.18"/>
<path d="M 869.0 1486.3 A 34.1 43.4 0 0 1 931.0 1486.3 A 34.1 43.4 0 0 1 869.0 1486.3 Z" fill="none" stroke="#f4f0e8" stroke-width="0.9" opacity="0.18"/>
<path d="M 931.0 1486.3 A 34.1 43.4 0 0 1 993.0 1486.3 A 34.1 43.4 0 0 1 931.0 1486.3 Z" fill="none" stroke="#f4f0e8" stroke-width="0.9" opacity="0.18"/>
<path d="M -30.0 1526.6 A 34.1 43.4 0 0 1 32.0 1526.6 A 34.1 43.4 0 0 1 -30.0 1526.6 Z" fill="none" stroke="#f4f0e8" stroke-width="0.9" opacity="0.18"/>
<path d="M 32.0 1526.6 A 34.1 43.4 0 0 1 94.0 1526.6 A 34.1 43.4 0 0 1 32.0 1526.6 Z" fill="none" stroke="#f4f0e8" stroke-width="0.9" opacity="0.18"/>
<path d="M 94.0 1526.6 A 34.1 43.4 0 0 1 156.0 1526.6 A 34.1 43.4 0 0 1 94.0 1526.6 Z" fill="none" stroke="#f4f0e8" stroke-width="0.9" opacity="0.18"/>
<path d="M 156.0 1526.6 A 34.1 43.4 0 0 1 218.0 1526.6 A 34.1 43.4 0 0 1 156.0 1526.6 Z" fill="none" stroke="#f4f0e8" stroke-width="0.9" opacity="0.18"/>
<path d="M 218.0 1526.6 A 34.1 43.4 0 0 1 280.0 1526.6 A 34.1 43.4 0 0 1 218.0 1526.6 Z" fill="none" stroke="#f4f0e8" stroke-width="0.9" opacity="0.18"/>
<path d="M 280.0 1526.6 A 34.1 43.4 0 0 1 342.0 1526.6 A 34.1 43.4 0 0 1 280.0 1526.6 Z" fill="none" stroke="#f4f0e8" stroke-width="0.9" opacity="0.18"/>
<path d="M 342.0 1526.6 A 34.1 43.4 0 0 1 404.0 1526.6 A 34.1 43.4 0 0 1 342.0 1526.6 Z" fill="none" stroke="#f4f0e8" stroke-width="0.9" opacity="0.18"/>
<path d="M 404.0 1526.6 A 34.1 43.4 0 0 1 466.0 1526.6 A 34.1 43.4 0 0 1 404.0 1526.6 Z" fill="none" stroke="#f4f0e8" stroke-width="0.9" opacity="0.18"/>
<path d="M 466.0 1526.6 A 34.1 43.4 0 0 1 528.0 1526.6 A 34.1 43.4 0 0 1 466.0 1526.6 Z" fill="none" stroke="#f4f0e8" stroke-width="0.9" opacity="0.18"/>
<path d="M 528.0 1526.6 A 34.1 43.4 0 0 1 590.0 1526.6 A 34.1 43.4 0 0 1 528.0 1526.6 Z" fill="none" stroke="#f4f0e8" stroke-width="0.9" opacity="0.18"/>
<path d="M 590.0 1526.6 A 34.1 43.4 0 0 1 652.0 1526.6 A 34.1 43.4 0 0 1 590.0 1526.6 Z" fill="none" stroke="#f4f0e8" stroke-width="0.9" opacity="0.18"/>
<path d="M 652.0 1526.6 A 34.1 43.4 0 0 1 714.0 1526.6 A 34.1 43.4 0 0 1 652.0 1526.6 Z" fill="none" stroke="#f4f0e8" stroke-width="0.9" opacity="0.18"/>
<path d="M 714.0 1526.6 A 34.1 43.4 0 0 1 776.0 1526.6 A 34.1 43.4 0 0 1 714.0 1526.6 Z" fill="none" stroke="#f4f0e8" stroke-width="0.9" opacity="0.18"/>
<path d="M 776.0 1526.6 A 34.1 43.4 0 0 1 838.0 1526.6 A 34.1 43.4 0 0 1 776.0 1526.6 Z" fill="none" stroke="#f4f0e8" stroke-width="0.9" opacity="0.18"/>
<path d="M 838.0 1526.6 A 34.1 43.4 0 0 1 900.0 1526.6 A 34.1 43.4 0 0 1 838.0 1526.6 Z" fill="none" stroke="#f4f0e8" stroke-width="0.9" opacity="0.18"/>
<path d="M 900.0 1526.6 A 34.1 43.4 0 0 1 962.0 1526.6 A 34.1 43.4 0 0 1 900.0 1526.6 Z" fill="none" stroke="#f4f0e8" stroke-width="0.9" opacity="0.18"/>
<path d="M 1.0 1566.9 A 34.1 43.4 0 0 1 63.0 1566.9 A 34.1 43.4 0 0 1 1.0 1566.9 Z" fill="none" stroke="#f4f0e8" stroke-width="0.9" opacity="0.18"/>
<path d="M 63.0 1566.9 A 34.1 43.4 0 0 1 125.0 1566.9 A 34.1 43.4 0 0 1 63.0 1566.9 Z" fill="none" stroke="#f4f0e8" stroke-width="0.9" opacity="0.18"/>
<path d="M 125.0 1566.9 A 34.1 43.4 0 0 1 187.0 1566.9 A 34.1 43.4 0 0 1 125.0 1566.9 Z" fill="none" stroke="#f4f0e8" stroke-width="0.9" opacity="0.18"/>
<path d="M 187.0 1566.9 A 34.1 43.4 0 0 1 249.0 1566.9 A 34.1 43.4 0 0 1 187.0 1566.9 Z" fill="none" stroke="#f4f0e8" stroke-width="0.9" opacity="0.18"/>
<path d="M 249.0 1566.9 A 34.1 43.4 0 0 1 311.0 1566.9 A 34.1 43.4 0 0 1 249.0 1566.9 Z" fill="none" stroke="#f4f0e8" stroke-width="0.9" opacity="0.18"/>
<path d="M 311.0 1566.9 A 34.1 43.4 0 0 1 373.0 1566.9 A 34.1 43.4 0 0 1 311.0 1566.9 Z" fill="none" stroke="#f4f0e8" stroke-width="0.9" opacity="0.18"/>
<path d="M 373.0 1566.9 A 34.1 43.4 0 0 1 435.0 1566.9 A 34.1 43.4 0 0 1 373.0 1566.9 Z" fill="none" stroke="#f4f0e8" stroke-width="0.9" opacity="0.18"/>
<path d="M 435.0 1566.9 A 34.1 43.4 0 0 1 497.0 1566.9 A 34.1 43.4 0 0 1 435.0 1566.9 Z" fill="none" stroke="#f4f0e8" stroke-width="0.9" opacity="0.18"/>
<path d="M 497.0 1566.9 A 34.1 43.4 0 0 1 559.0 1566.9 A 34.1 43.4 0 0 1 497.0 1566.9 Z" fill="none" stroke="#f4f0e8" stroke-width="0.9" opacity="0.18"/>
<path d="M 559.0 1566.9 A 34.1 43.4 0 0 1 621.0 1566.9 A 34.1 43.4 0 0 1 559.0 1566.9 Z" fill="none" stroke="#f4f0e8" stroke-width="0.9" opacity="0.18"/>
<path d="M 621.0 1566.9 A 34.1 43.4 0 0 1 683.0 1566.9 A 34.1 43.4 0 0 1 621.0 1566.9 Z" fill="none" stroke="#f4f0e8" stroke-width="0.9" opacity="0.18"/>
<path d="M 683.0 1566.9 A 34.1 43.4 0 0 1 745.0 1566.9 A 34.1 43.4 0 0 1 683.0 1566.9 Z" fill="none" stroke="#f4f0e8" stroke-width="0.9" opacity="0.18"/>
<path d="M 745.0 1566.9 A 34.1 43.4 0 0 1 807.0 1566.9 A 34.1 43.4 0 0 1 745.0 1566.9 Z" fill="none" stroke="#f4f0e8" stroke-width="0.9" opacity="0.18"/>
<path d="M 807.0 1566.9 A 34.1 43.4 0 0 1 869.0 1566.9 A 34.1 43.4 0 0 1 807.0 1566.9 Z" fill="none" stroke="#f4f0e8" stroke-width="0.9" opacity="0.18"/>
<path d="M 869.0 1566.9 A 34.1 43.4 0 0 1 931.0 1566.9 A 34.1 43.4 0 0 1 869.0 1566.9 Z" fill="none" stroke="#f4f0e8" stroke-width="0.9" opacity="0.18"/>
<path d="M 931.0 1566.9 A 34.1 43.4 0 0 1 993.0 1566.9 A 34.1 43.4 0 0 1 931.0 1566.9 Z" fill="none" stroke="#f4f0e8" stroke-width="0.9" opacity="0.18"/>
<path d="M -30.0 1607.2 A 34.1 43.4 0 0 1 32.0 1607.2 A 34.1 43.4 0 0 1 -30.0 1607.2 Z" fill="none" stroke="#f4f0e8" stroke-width="0.9" opacity="0.18"/>
<path d="M 32.0 1607.2 A 34.1 43.4 0 0 1 94.0 1607.2 A 34.1 43.4 0 0 1 32.0 1607.2 Z" fill="none" stroke="#f4f0e8" stroke-width="0.9" opacity="0.18"/>
<path d="M 94.0 1607.2 A 34.1 43.4 0 0 1 156.0 1607.2 A 34.1 43.4 0 0 1 94.0 1607.2 Z" fill="none" stroke="#f4f0e8" stroke-width="0.9" opacity="0.18"/>
<path d="M 156.0 1607.2 A 34.1 43.4 0 0 1 218.0 1607.2 A 34.1 43.4 0 0 1 156.0 1607.2 Z" fill="none" stroke="#f4f0e8" stroke-width="0.9" opacity="0.18"/>
<path d="M 218.0 1607.2 A 34.1 43.4 0 0 1 280.0 1607.2 A 34.1 43.4 0 0 1 218.0 1607.2 Z" fill="none" stroke="#f4f0e8" stroke-width="0.9" opacity="0.18"/>
<path d="M 280.0 1607.2 A 34.1 43.4 0 0 1 342.0 1607.2 A 34.1 43.4 0 0 1 280.0 1607.2 Z" fill="none" stroke="#f4f0e8" stroke-width="0.9" opacity="0.18"/>
<path d="M 342.0 1607.2 A 34.1 43.4 0 0 1 404.0 1607.2 A 34.1 43.4 0 0 1 342.0 1607.2 Z" fill="none" stroke="#f4f0e8" stroke-width="0.9" opacity="0.18"/>
<path d="M 404.0 1607.2 A 34.1 43.4 0 0 1 466.0 1607.2 A 34.1 43.4 0 0 1 404.0 1607.2 Z" fill="none" stroke="#f4f0e8" stroke-width="0.9" opacity="0.18"/>
<path d="M 466.0 1607.2 A 34.1 43.4 0 0 1 528.0 1607.2 A 34.1 43.4 0 0 1 466.0 1607.2 Z" fill="none" stroke="#f4f0e8" stroke-width="0.9" opacity="0.18"/>
<path d="M 528.0 1607.2 A 34.1 43.4 0 0 1 590.0 1607.2 A 34.1 43.4 0 0 1 528.0 1607.2 Z" fill="none" stroke="#f4f0e8" stroke-width="0.9" opacity="0.18"/>
<path d="M 590.0 1607.2 A 34.1 43.4 0 0 1 652.0 1607.2 A 34.1 43.4 0 0 1 590.0 1607.2 Z" fill="none" stroke="#f4f0e8" stroke-width="0.9" opacity="0.18"/>
<path d="M 652.0 1607.2 A 34.1 43.4 0 0 1 714.0 1607.2 A 34.1 43.4 0 0 1 652.0 1607.2 Z" fill="none" stroke="#f4f0e8" stroke-width="0.9" opacity="0.18"/>
<path d="M 714.0 1607.2 A 34.1 43.4 0 0 1 776.0 1607.2 A 34.1 43.4 0 0 1 714.0 1607.2 Z" fill="none" stroke="#f4f0e8" stroke-width="0.9" opacity="0.18"/>
<path d="M 776.0 1607.2 A 34.1 43.4 0 0 1 838.0 1607.2 A 34.1 43.4 0 0 1 776.0 1607.2 Z" fill="none" stroke="#f4f0e8" stroke-width="0.9" opacity="0.18"/>
<path d="M 838.0 1607.2 A 34.1 43.4 0 0 1 900.0 1607.2 A 34.1 43.4 0 0 1 838.0 1607.2 Z" fill="none" stroke="#f4f0e8" stroke-width="0.9" opacity="0.18"/>
<path d="M 900.0 1607.2 A 34.1 43.4 0 0 1 962.0 1607.2 A 34.1 43.4 0 0 1 900.0 1607.2 Z" fill="none" stroke="#f4f0e8" stroke-width="0.9" opacity="0.18"/>
<path d="M 1.0 1647.5 A 34.1 43.4 0 0 1 63.0 1647.5 A 34.1 43.4 0 0 1 1.0 1647.5 Z" fill="none" stroke="#f4f0e8" stroke-width="0.9" opacity="0.18"/>
<path d="M 63.0 1647.5 A 34.1 43.4 0 0 1 125.0 1647.5 A 34.1 43.4 0 0 1 63.0 1647.5 Z" fill="none" stroke="#f4f0e8" stroke-width="0.9" opacity="0.18"/>
<path d="M 125.0 1647.5 A 34.1 43.4 0 0 1 187.0 1647.5 A 34.1 43.4 0 0 1 125.0 1647.5 Z" fill="none" stroke="#f4f0e8" stroke-width="0.9" opacity="0.18"/>
<path d="M 187.0 1647.5 A 34.1 43.4 0 0 1 249.0 1647.5 A 34.1 43.4 0 0 1 187.0 1647.5 Z" fill="none" stroke="#f4f0e8" stroke-width="0.9" opacity="0.18"/>
<path d="M 249.0 1647.5 A 34.1 43.4 0 0 1 311.0 1647.5 A 34.1 43.4 0 0 1 249.0 1647.5 Z" fill="none" stroke="#f4f0e8" stroke-width="0.9" opacity="0.18"/>
<path d="M 311.0 1647.5 A 34.1 43.4 0 0 1 373.0 1647.5 A 34.1 43.4 0 0 1 311.0 1647.5 Z" fill="none" stroke="#f4f0e8" stroke-width="0.9" opacity="0.18"/>
<path d="M 373.0 1647.5 A 34.1 43.4 0 0 1 435.0 1647.5 A 34.1 43.4 0 0 1 373.0 1647.5 Z" fill="none" stroke="#f4f0e8" stroke-width="0.9" opacity="0.18"/>
<path d="M 435.0 1647.5 A 34.1 43.4 0 0 1 497.0 1647.5 A 34.1 43.4 0 0 1 435.0 1647.5 Z" fill="none" stroke="#f4f0e8" stroke-width="0.9" opacity="0.18"/>
<path d="M 497.0 1647.5 A 34.1 43.4 0 0 1 559.0 1647.5 A 34.1 43.4 0 0 1 497.0 1647.5 Z" fill="none" stroke="#f4f0e8" stroke-width="0.9" opacity="0.18"/>
<path d="M 559.0 1647.5 A 34.1 43.4 0 0 1 621.0 1647.5 A 34.1 43.4 0 0 1 559.0 1647.5 Z" fill="none" stroke="#f4f0e8" stroke-width="0.9" opacity="0.18"/>
<path d="M 621.0 1647.5 A 34.1 43.4 0 0 1 683.0 1647.5 A 34.1 43.4 0 0 1 621.0 1647.5 Z" fill="none" stroke="#f4f0e8" stroke-width="0.9" opacity="0.18"/>
<path d="M 683.0 1647.5 A 34.1 43.4 0 0 1 745.0 1647.5 A 34.1 43.4 0 0 1 683.0 1647.5 Z" fill="none" stroke="#f4f0e8" stroke-width="0.9" opacity="0.18"/>
<path d="M 745.0 1647.5 A 34.1 43.4 0 0 1 807.0 1647.5 A 34.1 43.4 0 0 1 745.0 1647.5 Z" fill="none" stroke="#f4f0e8" stroke-width="0.9" opacity="0.18"/>
<path d="M 807.0 1647.5 A 34.1 43.4 0 0 1 869.0 1647.5 A 34.1 43.4 0 0 1 807.0 1647.5 Z" fill="none" stroke="#f4f0e8" stroke-width="0.9" opacity="0.18"/>
<path d="M 869.0 1647.5 A 34.1 43.4 0 0 1 931.0 1647.5 A 34.1 43.4 0 0 1 869.0 1647.5 Z" fill="none" stroke="#f4f0e8" stroke-width="0.9" opacity="0.18"/>
<path d="M 931.0 1647.5 A 34.1 43.4 0 0 1 993.0 1647.5 A 34.1 43.4 0 0 1 931.0 1647.5 Z" fill="none" stroke="#f4f0e8" stroke-width="0.9" opacity="0.18"/>
<path d="M -30.0 1687.8 A 34.1 43.4 0 0 1 32.0 1687.8 A 34.1 43.4 0 0 1 -30.0 1687.8 Z" fill="none" stroke="#f4f0e8" stroke-width="0.9" opacity="0.18"/>
<path d="M 32.0 1687.8 A 34.1 43.4 0 0 1 94.0 1687.8 A 34.1 43.4 0 0 1 32.0 1687.8 Z" fill="none" stroke="#f4f0e8" stroke-width="0.9" opacity="0.18"/>
<path d="M 94.0 1687.8 A 34.1 43.4 0 0 1 156.0 1687.8 A 34.1 43.4 0 0 1 94.0 1687.8 Z" fill="none" stroke="#f4f0e8" stroke-width="0.9" opacity="0.18"/>
<path d="M 156.0 1687.8 A 34.1 43.4 0 0 1 218.0 1687.8 A 34.1 43.4 0 0 1 156.0 1687.8 Z" fill="none" stroke="#f4f0e8" stroke-width="0.9" opacity="0.18"/>
<path d="M 218.0 1687.8 A 34.1 43.4 0 0 1 280.0 1687.8 A 34.1 43.4 0 0 1 218.0 1687.8 Z" fill="none" stroke="#f4f0e8" stroke-width="0.9" opacity="0.18"/>
<path d="M 280.0 1687.8 A 34.1 43.4 0 0 1 342.0 1687.8 A 34.1 43.4 0 0 1 280.0 1687.8 Z" fill="none" stroke="#f4f0e8" stroke-width="0.9" opacity="0.18"/>
<path d="M 342.0 1687.8 A 34.1 43.4 0 0 1 404.0 1687.8 A 34.1 43.4 0 0 1 342.0 1687.8 Z" fill="none" stroke="#f4f0e8" stroke-width="0.9" opacity="0.18"/>
<path d="M 404.0 1687.8 A 34.1 43.4 0 0 1 466.0 1687.8 A 34.1 43.4 0 0 1 404.0 1687.8 Z" fill="none" stroke="#f4f0e8" stroke-width="0.9" opacity="0.18"/>
<path d="M 466.0 1687.8 A 34.1 43.4 0 0 1 528.0 1687.8 A 34.1 43.4 0 0 1 466.0 1687.8 Z" fill="none" stroke="#f4f0e8" stroke-width="0.9" opacity="0.18"/>
<path d="M 528.0 1687.8 A 34.1 43.4 0 0 1 590.0 1687.8 A 34.1 43.4 0 0 1 528.0 1687.8 Z" fill="none" stroke="#f4f0e8" stroke-width="0.9" opacity="0.18"/>
<path d="M 590.0 1687.8 A 34.1 43.4 0 0 1 652.0 1687.8 A 34.1 43.4 0 0 1 590.0 1687.8 Z" fill="none" stroke="#f4f0e8" stroke-width="0.9" opacity="0.18"/>
<path d="M 652.0 1687.8 A 34.1 43.4 0 0 1 714.0 1687.8 A 34.1 43.4 0 0 1 652.0 1687.8 Z" fill="none" stroke="#f4f0e8" stroke-width="0.9" opacity="0.18"/>
<path d="M 714.0 1687.8 A 34.1 43.4 0 0 1 776.0 1687.8 A 34.1 43.4 0 0 1 714.0 1687.8 Z" fill="none" stroke="#f4f0e8" stroke-width="0.9" opacity="0.18"/>
<path d="M 776.0 1687.8 A 34.1 43.4 0 0 1 838.0 1687.8 A 34.1 43.4 0 0 1 776.0 1687.8 Z" fill="none" stroke="#f4f0e8" stroke-width="0.9" opacity="0.18"/>
<path d="M 838.0 1687.8 A 34.1 43.4 0 0 1 900.0 1687.8 A 34.1 43.4 0 0 1 838.0 1687.8 Z" fill="none" stroke="#f4f0e8" stroke-width="0.9" opacity="0.18"/>
<path d="M 900.0 1687.8 A 34.1 43.4 0 0 1 962.0 1687.8 A 34.1 43.4 0 0 1 900.0 1687.8 Z" fill="none" stroke="#f4f0e8" stroke-width="0.9" opacity="0.18"/>
<path d="M 1.0 1728.1 A 34.1 43.4 0 0 1 63.0 1728.1 A 34.1 43.4 0 0 1 1.0 1728.1 Z" fill="none" stroke="#f4f0e8" stroke-width="0.9" opacity="0.18"/>
<path d="M 63.0 1728.1 A 34.1 43.4 0 0 1 125.0 1728.1 A 34.1 43.4 0 0 1 63.0 1728.1 Z" fill="none" stroke="#f4f0e8" stroke-width="0.9" opacity="0.18"/>
<path d="M 125.0 1728.1 A 34.1 43.4 0 0 1 187.0 1728.1 A 34.1 43.4 0 0 1 125.0 1728.1 Z" fill="none" stroke="#f4f0e8" stroke-width="0.9" opacity="0.18"/>
<path d="M 187.0 1728.1 A 34.1 43.4 0 0 1 249.0 1728.1 A 34.1 43.4 0 0 1 187.0 1728.1 Z" fill="none" stroke="#f4f0e8" stroke-width="0.9" opacity="0.18"/>
<path d="M 249.0 1728.1 A 34.1 43.4 0 0 1 311.0 1728.1 A 34.1 43.4 0 0 1 249.0 1728.1 Z" fill="none" stroke="#f4f0e8" stroke-width="0.9" opacity="0.18"/>
<path d="M 311.0 1728.1 A 34.1 43.4 0 0 1 373.0 1728.1 A 34.1 43.4 0 0 1 311.0 1728.1 Z" fill="none" stroke="#f4f0e8" stroke-width="0.9" opacity="0.18"/>
<path d="M 373.0 1728.1 A 34.1 43.4 0 0 1 435.0 1728.1 A 34.1 43.4 0 0 1 373.0 1728.1 Z" fill="none" stroke="#f4f0e8" stroke-width="0.9" opacity="0.18"/>
<path d="M 435.0 1728.1 A 34.1 43.4 0 0 1 497.0 1728.1 A 34.1 43.4 0 0 1 435.0 1728.1 Z" fill="none" stroke="#f4f0e8" stroke-width="0.9" opacity="0.18"/>
<path d="M 497.0 1728.1 A 34.1 43.4 0 0 1 559.0 1728.1 A 34.1 43.4 0 0 1 497.0 1728.1 Z" fill="none" stroke="#f4f0e8" stroke-width="0.9" opacity="0.18"/>
<path d="M 559.0 1728.1 A 34.1 43.4 0 0 1 621.0 1728.1 A 34.1 43.4 0 0 1 559.0 1728.1 Z" fill="none" stroke="#f4f0e8" stroke-width="0.9" opacity="0.18"/>
<path d="M 621.0 1728.1 A 34.1 43.4 0 0 1 683.0 1728.1 A 34.1 43.4 0 0 1 621.0 1728.1 Z" fill="none" stroke="#f4f0e8" stroke-width="0.9" opacity="0.18"/>
<path d="M 683.0 1728.1 A 34.1 43.4 0 0 1 745.0 1728.1 A 34.1 43.4 0 0 1 683.0 1728.1 Z" fill="none" stroke="#f4f0e8" stroke-width="0.9" opacity="0.18"/>
<path d="M 745.0 1728.1 A 34.1 43.4 0 0 1 807.0 1728.1 A 34.1 43.4 0 0 1 745.0 1728.1 Z" fill="none" stroke="#f4f0e8" stroke-width="0.9" opacity="0.18"/>
<path d="M 807.0 1728.1 A 34.1 43.4 0 0 1 869.0 1728.1 A 34.1 43.4 0 0 1 807.0 1728.1 Z" fill="none" stroke="#f4f0e8" stroke-width="0.9" opacity="0.18"/>
<path d="M 869.0 1728.1 A 34.1 43.4 0 0 1 931.0 1728.1 A 34.1 43.4 0 0 1 869.0 1728.1 Z" fill="none" stroke="#f4f0e8" stroke-width="0.9" opacity="0.18"/>
<path d="M 931.0 1728.1 A 34.1 43.4 0 0 1 993.0 1728.1 A 34.1 43.4 0 0 1 931.0 1728.1 Z" fill="none" stroke="#f4f0e8" stroke-width="0.9" opacity="0.18"/>
<path d="M -30.0 1768.4 A 34.1 43.4 0 0 1 32.0 1768.4 A 34.1 43.4 0 0 1 -30.0 1768.4 Z" fill="none" stroke="#f4f0e8" stroke-width="0.9" opacity="0.18"/>
<path d="M 32.0 1768.4 A 34.1 43.4 0 0 1 94.0 1768.4 A 34.1 43.4 0 0 1 32.0 1768.4 Z" fill="none" stroke="#f4f0e8" stroke-width="0.9" opacity="0.18"/>
<path d="M 94.0 1768.4 A 34.1 43.4 0 0 1 156.0 1768.4 A 34.1 43.4 0 0 1 94.0 1768.4 Z" fill="none" stroke="#f4f0e8" stroke-width="0.9" opacity="0.18"/>
<path d="M 156.0 1768.4 A 34.1 43.4 0 0 1 218.0 1768.4 A 34.1 43.4 0 0 1 156.0 1768.4 Z" fill="none" stroke="#f4f0e8" stroke-width="0.9" opacity="0.18"/>
<path d="M 218.0 1768.4 A 34.1 43.4 0 0 1 280.0 1768.4 A 34.1 43.4 0 0 1 218.0 1768.4 Z" fill="none" stroke="#f4f0e8" stroke-width="0.9" opacity="0.18"/>
<path d="M 280.0 1768.4 A 34.1 43.4 0 0 1 342.0 1768.4 A 34.1 43.4 0 0 1 280.0 1768.4 Z" fill="none" stroke="#f4f0e8" stroke-width="0.9" opacity="0.18"/>
<path d="M 342.0 1768.4 A 34.1 43.4 0 0 1 404.0 1768.4 A 34.1 43.4 0 0 1 342.0 1768.4 Z" fill="none" stroke="#f4f0e8" stroke-width="0.9" opacity="0.18"/>
<path d="M 404.0 1768.4 A 34.1 43.4 0 0 1 466.0 1768.4 A 34.1 43.4 0 0 1 404.0 1768.4 Z" fill="none" stroke="#f4f0e8" stroke-width="0.9" opacity="0.18"/>
<path d="M 466.0 1768.4 A 34.1 43.4 0 0 1 528.0 1768.4 A 34.1 43.4 0 0 1 466.0 1768.4 Z" fill="none" stroke="#f4f0e8" stroke-width="0.9" opacity="0.18"/>
<path d="M 528.0 1768.4 A 34.1 43.4 0 0 1 590.0 1768.4 A 34.1 43.4 0 0 1 528.0 1768.4 Z" fill="none" stroke="#f4f0e8" stroke-width="0.9" opacity="0.18"/>
<path d="M 590.0 1768.4 A 34.1 43.4 0 0 1 652.0 1768.4 A 34.1 43.4 0 0 1 590.0 1768.4 Z" fill="none" stroke="#f4f0e8" stroke-width="0.9" opacity="0.18"/>
<path d="M 652.0 1768.4 A 34.1 43.4 0 0 1 714.0 1768.4 A 34.1 43.4 0 0 1 652.0 1768.4 Z" fill="none" stroke="#f4f0e8" stroke-width="0.9" opacity="0.18"/>
<path d="M 714.0 1768.4 A 34.1 43.4 0 0 1 776.0 1768.4 A 34.1 43.4 0 0 1 714.0 1768.4 Z" fill="none" stroke="#f4f0e8" stroke-width="0.9" opacity="0.18"/>
<path d="M 776.0 1768.4 A 34.1 43.4 0 0 1 838.0 1768.4 A 34.1 43.4 0 0 1 776.0 1768.4 Z" fill="none" stroke="#f4f0e8" stroke-width="0.9" opacity="0.18"/>
<path d="M 838.0 1768.4 A 34.1 43.4 0 0 1 900.0 1768.4 A 34.1 43.4 0 0 1 838.0 1768.4 Z" fill="none" stroke="#f4f0e8" stroke-width="0.9" opacity="0.18"/>
<path d="M 900.0 1768.4 A 34.1 43.4 0 0 1 962.0 1768.4 A 34.1 43.4 0 0 1 900.0 1768.4 Z" fill="none" stroke="#f4f0e8" stroke-width="0.9" opacity="0.18"/>
<path d="M 540.0 -20.0 A 44.0 56.0 0 0 1 620.0 -20.0 A 44.0 56.0 0 0 1 540.0 -20.0 Z" fill="none" stroke="#c0392b" stroke-width="1.5" opacity="0.12"/>
<path d="M 620.0 -20.0 A 44.0 56.0 0 0 1 700.0 -20.0 A 44.0 56.0 0 0 1 620.0 -20.0 Z" fill="none" stroke="#c0392b" stroke-width="1.5" opacity="0.12"/>
<path d="M 700.0 -20.0 A 44.0 56.0 0 0 1 780.0 -20.0 A 44.0 56.0 0 0 1 700.0 -20.0 Z" fill="none" stroke="#c0392b" stroke-width="1.5" opacity="0.12"/>
<path d="M 780.0 -20.0 A 44.0 56.0 0 0 1 860.0 -20.0 A 44.0 56.0 0 0 1 780.0 -20.0 Z" fill="none" stroke="#c0392b" stroke-width="1.5" opacity="0.12"/>
<path d="M 860.0 -20.0 A 44.0 56.0 0 0 1 940.0 -20.0 A 44.0 56.0 0 0 1 860.0 -20.0 Z" fill="none" stroke="#c0392b" stroke-width="1.5" opacity="0.12"/>
<path d="M 940.0 -20.0 A 44.0 56.0 0 0 1 1020.0 -20.0 A 44.0 56.0 0 0 1 940.0 -20.0 Z" fill="none" stroke="#c0392b" stroke-width="1.5" opacity="0.12"/>
<path d="M 1020.0 -20.0 A 44.0 56.0 0 0 1 1100.0 -20.0 A 44.0 56.0 0 0 1 1020.0 -20.0 Z" fill="none" stroke="#c0392b" stroke-width="1.5" opacity="0.12"/>
<path d="M 1100.0 -20.0 A 44.0 56.0 0 0 1 1180.0 -20.0 A 44.0 56.0 0 0 1 1100.0 -20.0 Z" fill="none" stroke="#c0392b" stroke-width="1.5" opacity="0.12"/>
<path d="M 580.0 32.0 A 44.0 56.0 0 0 1 660.0 32.0 A 44.0 56.0 0 0 1 580.0 32.0 Z" fill="none" stroke="#c0392b" stroke-width="1.5" opacity="0.12"/>
<path d="M 660.0 32.0 A 44.0 56.0 0 0 1 740.0 32.0 A 44.0 56.0 0 0 1 660.0 32.0 Z" fill="none" stroke="#c0392b" stroke-width="1.5" opacity="0.12"/>
<path d="M 740.0 32.0 A 44.0 56.0 0 0 1 820.0 32.0 A 44.0 56.0 0 0 1 740.0 32.0 Z" fill="none" stroke="#c0392b" stroke-width="1.5" opacity="0.12"/>
<path d="M 820.0 32.0 A 44.0 56.0 0 0 1 900.0 32.0 A 44.0 56.0 0 0 1 820.0 32.0 Z" fill="none" stroke="#c0392b" stroke-width="1.5" opacity="0.12"/>
<path d="M 900.0 32.0 A 44.0 56.0 0 0 1 980.0 32.0 A 44.0 56.0 0 0 1 900.0 32.0 Z" fill="none" stroke="#c0392b" stroke-width="1.5" opacity="0.12"/>
<path d="M 980.0 32.0 A 44.0 56.0 0 0 1 1060.0 32.0 A 44.0 56.0 0 0 1 980.0 32.0 Z" fill="none" stroke="#c0392b" stroke-width="1.5" opacity="0.12"/>
<path d="M 1060.0 32.0 A 44.0 56.0 0 0 1 1140.0 32.0 A 44.0 56.0 0 0 1 1060.0 32.0 Z" fill="none" stroke="#c0392b" stroke-width="1.5" opacity="0.12"/>
<path d="M 1140.0 32.0 A 44.0 56.0 0 0 1 1220.0 32.0 A 44.0 56.0 0 0 1 1140.0 32.0 Z" fill="none" stroke="#c0392b" stroke-width="1.5" opacity="0.12"/>
<path d="M 540.0 84.0 A 44.0 56.0 0 0 1 620.0 84.0 A 44.0 56.0 0 0 1 540.0 84.0 Z" fill="none" stroke="#c0392b" stroke-width="1.5" opacity="0.12"/>
<path d="M 620.0 84.0 A 44.0 56.0 0 0 1 700.0 84.0 A 44.0 56.0 0 0 1 620.0 84.0 Z" fill="none" stroke="#c0392b" stroke-width="1.5" opacity="0.12"/>
<path d="M 700.0 84.0 A 44.0 56.0 0 0 1 780.0 84.0 A 44.0 56.0 0 0 1 700.0 84.0 Z" fill="none" stroke="#c0392b" stroke-width="1.5" opacity="0.12"/>
<path d="M 780.0 84.0 A 44.0 56.0 0 0 1 860.0 84.0 A 44.0 56.0 0 0 1 780.0 84.0 Z" fill="none" stroke="#c0392b" stroke-width="1.5" opacity="0.12"/>
<path d="M 860.0 84.0 A 44.0 56.0 0 0 1 940.0 84.0 A 44.0 56.0 0 0 1 860.0 84.0 Z" fill="none" stroke="#c0392b" stroke-width="1.5" opacity="0.12"/>
<path d="M 940.0 84.0 A 44.0 56.0 0 0 1 1020.0 84.0 A 44.0 56.0 0 0 1 940.0 84.0 Z" fill="none" stroke="#c0392b" stroke-width="1.5" opacity="0.12"/>
<path d="M 1020.0 84.0 A 44.0 56.0 0 0 1 1100.0 84.0 A 44.0 56.0 0 0 1 1020.0 84.0 Z" fill="none" stroke="#c0392b" stroke-width="1.5" opacity="0.12"/>
<path d="M 1100.0 84.0 A 44.0 56.0 0 0 1 1180.0 84.0 A 44.0 56.0 0 0 1 1100.0 84.0 Z" fill="none" stroke="#c0392b" stroke-width="1.5" opacity="0.12"/>
<path d="M 580.0 136.0 A 44.0 56.0 0 0 1 660.0 136.0 A 44.0 56.0 0 0 1 580.0 136.0 Z" fill="none" stroke="#c0392b" stroke-width="1.5" opacity="0.12"/>
<path d="M 660.0 136.0 A 44.0 56.0 0 0 1 740.0 136.0 A 44.0 56.0 0 0 1 660.0 136.0 Z" fill="none" stroke="#c0392b" stroke-width="1.5" opacity="0.12"/>
<path d="M 740.0 136.0 A 44.0 56.0 0 0 1 820.0 136.0 A 44.0 56.0 0 0 1 740.0 136.0 Z" fill="none" stroke="#c0392b" stroke-width="1.5" opacity="0.12"/>
<path d="M 820.0 136.0 A 44.0 56.0 0 0 1 900.0 136.0 A 44.0 56.0 0 0 1 820.0 136.0 Z" fill="none" stroke="#c0392b" stroke-width="1.5" opacity="0.12"/>
<path d="M 900.0 136.0 A 44.0 56.0 0 0 1 980.0 136.0 A 44.0 56.0 0 0 1 900.0 136.0 Z" fill="none" stroke="#c0392b" stroke-width="1.5" opacity="0.12"/>
<path d="M 980.0 136.0 A 44.0 56.0 0 0 1 1060.0 136.0 A 44.0 56.0 0 0 1 980.0 136.0 Z" fill="none" stroke="#c0392b" stroke-width="1.5" opacity="0.12"/>
<path d="M 1060.0 136.0 A 44.0 56.0 0 0 1 1140.0 136.0 A 44.0 56.0 0 0 1 1060.0 136.0 Z" fill="none" stroke="#c0392b" stroke-width="1.5" opacity="0.12"/>
<path d="M 1140.0 136.0 A 44.0 56.0 0 0 1 1220.0 136.0 A 44.0 56.0 0 0 1 1140.0 136.0 Z" fill="none" stroke="#c0392b" stroke-width="1.5" opacity="0.12"/>
<path d="M 540.0 188.0 A 44.0 56.0 0 0 1 620.0 188.0 A 44.0 56.0 0 0 1 540.0 188.0 Z" fill="none" stroke="#c0392b" stroke-width="1.5" opacity="0.12"/>
<path d="M 620.0 188.0 A 44.0 56.0 0 0 1 700.0 188.0 A 44.0 56.0 0 0 1 620.0 188.0 Z" fill="none" stroke="#c0392b" stroke-width="1.5" opacity="0.12"/>
<path d="M 700.0 188.0 A 44.0 56.0 0 0 1 780.0 188.0 A 44.0 56.0 0 0 1 700.0 188.0 Z" fill="none" stroke="#c0392b" stroke-width="1.5" opacity="0.12"/>
<path d="M 780.0 188.0 A 44.0 56.0 0 0 1 860.0 188.0 A 44.0 56.0 0 0 1 780.0 188.0 Z" fill="none" stroke="#c0392b" stroke-width="1.5" opacity="0.12"/>
<path d="M 860.0 188.0 A 44.0 56.0 0 0 1 940.0 188.0 A 44.0 56.0 0 0 1 860.0 188.0 Z" fill="none" stroke="#c0392b" stroke-width="1.5" opacity="0.12"/>
<path d="M 940.0 188.0 A 44.0 56.0 0 0 1 1020.0 188.0 A 44.0 56.0 0 0 1 940.0 188.0 Z" fill="none" stroke="#c0392b" stroke-width="1.5" opacity="0.12"/>
<path d="M 1020.0 188.0 A 44.0 56.0 0 0 1 1100.0 188.0 A 44.0 56.0 0 0 1 1020.0 188.0 Z" fill="none" stroke="#c0392b" stroke-width="1.5" opacity="0.12"/>
<path d="M 1100.0 188.0 A 44.0 56.0 0 0 1 1180.0 188.0 A 44.0 56.0 0 0 1 1100.0 188.0 Z" fill="none" stroke="#c0392b" stroke-width="1.5" opacity="0.12"/>
<path d="M 580.0 240.0 A 44.0 56.0 0 0 1 660.0 240.0 A 44.0 56.0 0 0 1 580.0 240.0 Z" fill="none" stroke="#c0392b" stroke-width="1.5" opacity="0.12"/>
<path d="M 660.0 240.0 A 44.0 56.0 0 0 1 740.0 240.0 A 44.0 56.0 0 0 1 660.0 240.0 Z" fill="none" stroke="#c0392b" stroke-width="1.5" opacity="0.12"/>
<path d="M 740.0 240.0 A 44.0 56.0 0 0 1 820.0 240.0 A 44.0 56.0 0 0 1 740.0 240.0 Z" fill="none" stroke="#c0392b" stroke-width="1.5" opacity="0.12"/>
<path d="M 820.0 240.0 A 44.0 56.0 0 0 1 900.0 240.0 A 44.0 56.0 0 0 1 820.0 240.0 Z" fill="none" stroke="#c0392b" stroke-width="1.5" opacity="0.12"/>
<path d="M 900.0 240.0 A 44.0 56.0 0 0 1 980.0 240.0 A 44.0 56.0 0 0 1 900.0 240.0 Z" fill="none" stroke="#c0392b" stroke-width="1.5" opacity="0.12"/>
<path d="M 980.0 240.0 A 44.0 56.0 0 0 1 1060.0 240.0 A 44.0 56.0 0 0 1 980.0 240.0 Z" fill="none" stroke="#c0392b" stroke-width="1.5" opacity="0.12"/>
<path d="M 1060.0 240.0 A 44.0 56.0 0 0 1 1140.0 240.0 A 44.0 56.0 0 0 1 1060.0 240.0 Z" fill="none" stroke="#c0392b" stroke-width="1.5" opacity="0.12"/>
<path d="M 1140.0 240.0 A 44.0 56.0 0 0 1 1220.0 240.0 A 44.0 56.0 0 0 1 1140.0 240.0 Z" fill="none" stroke="#c0392b" stroke-width="1.5" opacity="0.12"/>
<path d="M 540.0 292.0 A 44.0 56.0 0 0 1 620.0 292.0 A 44.0 56.0 0 0 1 540.0 292.0 Z" fill="none" stroke="#c0392b" stroke-width="1.5" opacity="0.12"/>
<path d="M 620.0 292.0 A 44.0 56.0 0 0 1 700.0 292.0 A 44.0 56.0 0 0 1 620.0 292.0 Z" fill="none" stroke="#c0392b" stroke-width="1.5" opacity="0.12"/>
<path d="M 700.0 292.0 A 44.0 56.0 0 0 1 780.0 292.0 A 44.0 56.0 0 0 1 700.0 292.0 Z" fill="none" stroke="#c0392b" stroke-width="1.5" opacity="0.12"/>
<path d="M 780.0 292.0 A 44.0 56.0 0 0 1 860.0 292.0 A 44.0 56.0 0 0 1 780.0 292.0 Z" fill="none" stroke="#c0392b" stroke-width="1.5" opacity="0.12"/>
<path d="M 860.0 292.0 A 44.0 56.0 0 0 1 940.0 292.0 A 44.0 56.0 0 0 1 860.0 292.0 Z" fill="none" stroke="#c0392b" stroke-width="1.5" opacity="0.12"/>
<path d="M 940.0 292.0 A 44.0 56.0 0 0 1 1020.0 292.0 A 44.0 56.0 0 0 1 940.0 292.0 Z" fill="none" stroke="#c0392b" stroke-width="1.5" opacity="0.12"/>
<path d="M 1020.0 292.0 A 44.0 56.0 0 0 1 1100.0 292.0 A 44.0 56.0 0 0 1 1020.0 292.0 Z" fill="none" stroke="#c0392b" stroke-width="1.5" opacity="0.12"/>
<path d="M 1100.0 292.0 A 44.0 56.0 0 0 1 1180.0 292.0 A 44.0 56.0 0 0 1 1100.0 292.0 Z" fill="none" stroke="#c0392b" stroke-width="1.5" opacity="0.12"/>
<path d="M 580.0 344.0 A 44.0 56.0 0 0 1 660.0 344.0 A 44.0 56.0 0 0 1 580.0 344.0 Z" fill="none" stroke="#c0392b" stroke-width="1.5" opacity="0.12"/>
<path d="M 660.0 344.0 A 44.0 56.0 0 0 1 740.0 344.0 A 44.0 56.0 0 0 1 660.0 344.0 Z" fill="none" stroke="#c0392b" stroke-width="1.5" opacity="0.12"/>
<path d="M 740.0 344.0 A 44.0 56.0 0 0 1 820.0 344.0 A 44.0 56.0 0 0 1 740.0 344.0 Z" fill="none" stroke="#c0392b" stroke-width="1.5" opacity="0.12"/>
<path d="M 820.0 344.0 A 44.0 56.0 0 0 1 900.0 344.0 A 44.0 56.0 0 0 1 820.0 344.0 Z" fill="none" stroke="#c0392b" stroke-width="1.5" opacity="0.12"/>
<path d="M 900.0 344.0 A 44.0 56.0 0 0 1 980.0 344.0 A 44.0 56.0 0 0 1 900.0 344.0 Z" fill="none" stroke="#c0392b" stroke-width="1.5" opacity="0.12"/>
<path d="M 980.0 344.0 A 44.0 56.0 0 0 1 1060.0 344.0 A 44.0 56.0 0 0 1 980.0 344.0 Z" fill="none" stroke="#c0392b" stroke-width="1.5" opacity="0.12"/>
<path d="M 1060.0 344.0 A 44.0 56.0 0 0 1 1140.0 344.0 A 44.0 56.0 0 0 1 1060.0 344.0 Z" fill="none" stroke="#c0392b" stroke-width="1.5" opacity="0.12"/>
<path d="M 1140.0 344.0 A 44.0 56.0 0 0 1 1220.0 344.0 A 44.0 56.0 0 0 1 1140.0 344.0 Z" fill="none" stroke="#c0392b" stroke-width="1.5" opacity="0.12"/>
<path d="M 540.0 396.0 A 44.0 56.0 0 0 1 620.0 396.0 A 44.0 56.0 0 0 1 540.0 396.0 Z" fill="none" stroke="#c0392b" stroke-width="1.5" opacity="0.12"/>
<path d="M 620.0 396.0 A 44.0 56.0 0 0 1 700.0 396.0 A 44.0 56.0 0 0 1 620.0 396.0 Z" fill="none" stroke="#c0392b" stroke-width="1.5" opacity="0.12"/>
<path d="M 700.0 396.0 A 44.0 56.0 0 0 1 780.0 396.0 A 44.0 56.0 0 0 1 700.0 396.0 Z" fill="none" stroke="#c0392b" stroke-width="1.5" opacity="0.12"/>
<path d="M 780.0 396.0 A 44.0 56.0 0 0 1 860.0 396.0 A 44.0 56.0 0 0 1 780.0 396.0 Z" fill="none" stroke="#c0392b" stroke-width="1.5" opacity="0.12"/>
<path d="M 860.0 396.0 A 44.0 56.0 0 0 1 940.0 396.0 A 44.0 56.0 0 0 1 860.0 396.0 Z" fill="none" stroke="#c0392b" stroke-width="1.5" opacity="0.12"/>
<path d="M 940.0 396.0 A 44.0 56.0 0 0 1 1020.0 396.0 A 44.0 56.0 0 0 1 940.0 396.0 Z" fill="none" stroke="#c0392b" stroke-width="1.5" opacity="0.12"/>
<path d="M 1020.0 396.0 A 44.0 56.0 0 0 1 1100.0 396.0 A 44.0 56.0 0 0 1 1020.0 396.0 Z" fill="none" stroke="#c0392b" stroke-width="1.5" opacity="0.12"/>
<path d="M 1100.0 396.0 A 44.0 56.0 0 0 1 1180.0 396.0 A 44.0 56.0 0 0 1 1100.0 396.0 Z" fill="none" stroke="#c0392b" stroke-width="1.5" opacity="0.12"/>
<path d="M 580.0 448.0 A 44.0 56.0 0 0 1 660.0 448.0 A 44.0 56.0 0 0 1 580.0 448.0 Z" fill="none" stroke="#c0392b" stroke-width="1.5" opacity="0.12"/>
<path d="M 660.0 448.0 A 44.0 56.0 0 0 1 740.0 448.0 A 44.0 56.0 0 0 1 660.0 448.0 Z" fill="none" stroke="#c0392b" stroke-width="1.5" opacity="0.12"/>
<path d="M 740.0 448.0 A 44.0 56.0 0 0 1 820.0 448.0 A 44.0 56.0 0 0 1 740.0 448.0 Z" fill="none" stroke="#c0392b" stroke-width="1.5" opacity="0.12"/>
<path d="M 820.0 448.0 A 44.0 56.0 0 0 1 900.0 448.0 A 44.0 56.0 0 0 1 820.0 448.0 Z" fill="none" stroke="#c0392b" stroke-width="1.5" opacity="0.12"/>
<path d="M 900.0 448.0 A 44.0 56.0 0 0 1 980.0 448.0 A 44.0 56.0 0 0 1 900.0 448.0 Z" fill="none" stroke="#c0392b" stroke-width="1.5" opacity="0.12"/>
<path d="M 980.0 448.0 A 44.0 56.0 0 0 1 1060.0 448.0 A 44.0 56.0 0 0 1 980.0 448.0 Z" fill="none" stroke="#c0392b" stroke-width="1.5" opacity="0.12"/>
<path d="M 1060.0 448.0 A 44.0 56.0 0 0 1 1140.0 448.0 A 44.0 56.0 0 0 1 1060.0 448.0 Z" fill="none" stroke="#c0392b" stroke-width="1.5" opacity="0.12"/>
<path d="M 1140.0 448.0 A 44.0 56.0 0 0 1 1220.0 448.0 A 44.0 56.0 0 0 1 1140.0 448.0 Z" fill="none" stroke="#c0392b" stroke-width="1.5" opacity="0.12"/>
<path d="M 540.0 500.0 A 44.0 56.0 0 0 1 620.0 500.0 A 44.0 56.0 0 0 1 540.0 500.0 Z" fill="none" stroke="#c0392b" stroke-width="1.5" opacity="0.12"/>
<path d="M 620.0 500.0 A 44.0 56.0 0 0 1 700.0 500.0 A 44.0 56.0 0 0 1 620.0 500.0 Z" fill="none" stroke="#c0392b" stroke-width="1.5" opacity="0.12"/>
<path d="M 700.0 500.0 A 44.0 56.0 0 0 1 780.0 500.0 A 44.0 56.0 0 0 1 700.0 500.0 Z" fill="none" stroke="#c0392b" stroke-width="1.5" opacity="0.12"/>
<path d="M 780.0 500.0 A 44.0 56.0 0 0 1 860.0 500.0 A 44.0 56.0 0 0 1 780.0 500.0 Z" fill="none" stroke="#c0392b" stroke-width="1.5" opacity="0.12"/>
<path d="M 860.0 500.0 A 44.0 56.0 0 0 1 940.0 500.0 A 44.0 56.0 0 0 1 860.0 500.0 Z" fill="none" stroke="#c0392b" stroke-width="1.5" opacity="0.12"/>
<path d="M 940.0 500.0 A 44.0 56.0 0 0 1 1020.0 500.0 A 44.0 56.0 0 0 1 940.0 500.0 Z" fill="none" stroke="#c0392b" stroke-width="1.5" opacity="0.12"/>
<path d="M 1020.0 500.0 A 44.0 56.0 0 0 1 1100.0 500.0 A 44.0 56.0 0 0 1 1020.0 500.0 Z" fill="none" stroke="#c0392b" stroke-width="1.5" opacity="0.12"/>
<path d="M 1100.0 500.0 A 44.0 56.0 0 0 1 1180.0 500.0 A 44.0 56.0 0 0 1 1100.0 500.0 Z" fill="none" stroke="#c0392b" stroke-width="1.5" opacity="0.12"/>
<path d="M 580.0 552.0 A 44.0 56.0 0 0 1 660.0 552.0 A 44.0 56.0 0 0 1 580.0 552.0 Z" fill="none" stroke="#c0392b" stroke-width="1.5" opacity="0.12"/>
<path d="M 660.0 552.0 A 44.0 56.0 0 0 1 740.0 552.0 A 44.0 56.0 0 0 1 660.0 552.0 Z" fill="none" stroke="#c0392b" stroke-width="1.5" opacity="0.12"/>
<path d="M 740.0 552.0 A 44.0 56.0 0 0 1 820.0 552.0 A 44.0 56.0 0 0 1 740.0 552.0 Z" fill="none" stroke="#c0392b" stroke-width="1.5" opacity="0.12"/>
<path d="M 820.0 552.0 A 44.0 56.0 0 0 1 900.0 552.0 A 44.0 56.0 0 0 1 820.0 552.0 Z" fill="none" stroke="#c0392b" stroke-width="1.5" opacity="0.12"/>
<path d="M 900.0 552.0 A 44.0 56.0 0 0 1 980.0 552.0 A 44.0 56.0 0 0 1 900.0 552.0 Z" fill="none" stroke="#c0392b" stroke-width="1.5" opacity="0.12"/>
<path d="M 980.0 552.0 A 44.0 56.0 0 0 1 1060.0 552.0 A 44.0 56.0 0 0 1 980.0 552.0 Z" fill="none" stroke="#c0392b" stroke-width="1.5" opacity="0.12"/>
<path d="M 1060.0 552.0 A 44.0 56.0 0 0 1 1140.0 552.0 A 44.0 56.0 0 0 1 1060.0 552.0 Z" fill="none" stroke="#c0392b" stroke-width="1.5" opacity="0.12"/>
<path d="M 1140.0 552.0 A 44.0 56.0 0 0 1 1220.0 552.0 A 44.0 56.0 0 0 1 1140.0 552.0 Z" fill="none" stroke="#c0392b" stroke-width="1.5" opacity="0.12"/>
<path d="M 540.0 604.0 A 44.0 56.0 0 0 1 620.0 604.0 A 44.0 56.0 0 0 1 540.0 604.0 Z" fill="none" stroke="#c0392b" stroke-width="1.5" opacity="0.12"/>
<path d="M 620.0 604.0 A 44.0 56.0 0 0 1 700.0 604.0 A 44.0 56.0 0 0 1 620.0 604.0 Z" fill="none" stroke="#c0392b" stroke-width="1.5" opacity="0.12"/>
<path d="M 700.0 604.0 A 44.0 56.0 0 0 1 780.0 604.0 A 44.0 56.0 0 0 1 700.0 604.0 Z" fill="none" stroke="#c0392b" stroke-width="1.5" opacity="0.12"/>
<path d="M 780.0 604.0 A 44.0 56.0 0 0 1 860.0 604.0 A 44.0 56.0 0 0 1 780.0 604.0 Z" fill="none" stroke="#c0392b" stroke-width="1.5" opacity="0.12"/>
<path d="M 860.0 604.0 A 44.0 56.0 0 0 1 940.0 604.0 A 44.0 56.0 0 0 1 860.0 604.0 Z" fill="none" stroke="#c0392b" stroke-width="1.5" opacity="0.12"/>
<path d="M 940.0 604.0 A 44.0 56.0 0 0 1 1020.0 604.0 A 44.0 56.0 0 0 1 940.0 604.0 Z" fill="none" stroke="#c0392b" stroke-width="1.5" opacity="0.12"/>
<path d="M 1020.0 604.0 A 44.0 56.0 0 0 1 1100.0 604.0 A 44.0 56.0 0 0 1 1020.0 604.0 Z" fill="none" stroke="#c0392b" stroke-width="1.5" opacity="0.12"/>
<path d="M 1100.0 604.0 A 44.0 56.0 0 0 1 1180.0 604.0 A 44.0 56.0 0 0 1 1100.0 604.0 Z" fill="none" stroke="#c0392b" stroke-width="1.5" opacity="0.12"/>
<path d="M 580.0 656.0 A 44.0 56.0 0 0 1 660.0 656.0 A 44.0 56.0 0 0 1 580.0 656.0 Z" fill="none" stroke="#c0392b" stroke-width="1.5" opacity="0.12"/>
<path d="M 660.0 656.0 A 44.0 56.0 0 0 1 740.0 656.0 A 44.0 56.0 0 0 1 660.0 656.0 Z" fill="none" stroke="#c0392b" stroke-width="1.5" opacity="0.12"/>
<path d="M 740.0 656.0 A 44.0 56.0 0 0 1 820.0 656.0 A 44.0 56.0 0 0 1 740.0 656.0 Z" fill="none" stroke="#c0392b" stroke-width="1.5" opacity="0.12"/>
<path d="M 820.0 656.0 A 44.0 56.0 0 0 1 900.0 656.0 A 44.0 56.0 0 0 1 820.0 656.0 Z" fill="none" stroke="#c0392b" stroke-width="1.5" opacity="0.12"/>
<path d="M 900.0 656.0 A 44.0 56.0 0 0 1 980.0 656.0 A 44.0 56.0 0 0 1 900.0 656.0 Z" fill="none" stroke="#c0392b" stroke-width="1.5" opacity="0.12"/>
<path d="M 980.0 656.0 A 44.0 56.0 0 0 1 1060.0 656.0 A 44.0 56.0 0 0 1 980.0 656.0 Z" fill="none" stroke="#c0392b" stroke-width="1.5" opacity="0.12"/>
<path d="M 1060.0 656.0 A 44.0 56.0 0 0 1 1140.0 656.0 A 44.0 56.0 0 0 1 1060.0 656.0 Z" fill="none" stroke="#c0392b" stroke-width="1.5" opacity="0.12"/>
<path d="M 1140.0 656.0 A 44.0 56.0 0 0 1 1220.0 656.0 A 44.0 56.0 0 0 1 1140.0 656.0 Z" fill="none" stroke="#c0392b" stroke-width="1.5" opacity="0.12"/>
<!-- top bar -->
<rect x="0" y="0" width="1080" height="10" fill="#c0392b"/>
<!-- bottom bar -->
<rect x="0" y="1840" width="1080" height="80" fill="#c0392b"/>
<!-- te reo headline -->
<text x="540" y="900" font-family="Georgia, serif" font-size="92"
      font-weight="bold" fill="#f4f0e8" text-anchor="middle">ĀRAHINA Ō KOUTOU</text>
<!-- english line -->
<text x="540" y="980" font-family="Arial, sans-serif" font-size="46"
      font-weight="bold" fill="#c0392b" text-anchor="middle">HOLD YOUR BOUNDARIES</text>
<!-- tag line -->
<text x="540" y="1030" font-family="Arial, sans-serif" font-size="23"
      fill="#f4f0e8" text-anchor="middle" opacity="0.7">Your data. Your terms. Always.</text>
<!-- motif watermark -->
<text x="540" y="1892" font-family="Arial, sans-serif" font-size="22" font-weight="bold"
      fill="#f4f0e8" text-anchor="middle">UNAUNAHI · KOTAHITANGA · kiwidialectic.com</text>

</svg>