<svg xmlns="http://www.w3.org/2000/svg" width="1080" height="1080" viewBox="0 0 1080 1080">
<title>Unaunahi — The Kiwi Dialectic</title>

<rect width="1080" height="1080" fill="#0d0d0d"/>
<path d="M -30.0 360.0 A 34.1 43.4 0 0 1 32.0 360.0 A 34.1 43.4 0 0 1 -30.0 360.0 Z" fill="none" stroke="#f4f0e8" stroke-width="0.9" opacity="0.18"/>
<path d="M 32.0 360.0 A 34.1 43.4 0 0 1 94.0 360.0 A 34.1 43.4 0 0 1 32.0 360.0 Z" fill="none" stroke="#f4f0e8" stroke-width="0.9" opacity="0.18"/>
<path d="M 94.0 360.0 A 34.1 43.4 0 0 1 156.0 360.0 A 34.1 43.4 0 0 1 94.0 360.0 Z" fill="none" stroke="#f4f0e8" stroke-width="0.9" opacity="0.18"/>
<path d="M 156.0 360.0 A 34.1 43.4 0 0 1 218.0 360.0 A 34.1 43.4 0 0 1 156.0 360.0 Z" fill="none" stroke="#f4f0e8" stroke-width="0.9" opacity="0.18"/>
<path d="M 218.0 360.0 A 34.1 43.4 0 0 1 280.0 360.0 A 34.1 43.4 0 0 1 218.0 360.0 Z" fill="none" stroke="#f4f0e8" stroke-width="0.9" opacity="0.18"/>
<path d="M 280.0 360.0 A 34.1 43.4 0 0 1 342.0 360.0 A 34.1 43.4 0 0 1 280.0 360.0 Z" fill="none" stroke="#f4f0e8" stroke-width="0.9" opacity="0.18"/>
<path d="M 342.0 360.0 A 34.1 43.4 0 0 1 404.0 360.0 A 34.1 43.4 0 0 1 342.0 360.0 Z" fill="none" stroke="#f4f0e8" stroke-width="0.9" opacity="0.18"/>
<path d="M 404.0 360.0 A 34.1 43.4 0 0 1 466.0 360.0 A 34.1 43.4 0 0 1 404.0 360.0 Z" fill="none" stroke="#f4f0e8" stroke-width="0.9" opacity="0.18"/>
<path d="M 466.0 360.0 A 34.1 43.4 0 0 1 528.0 360.0 A 34.1 43.4 0 0 1 466.0 360.0 Z" fill="none" stroke="#f4f0e8" stroke-width="0.9" opacity="0.18"/>
<path d="M 528.0 360.0 A 34.1 43.4 0 0 1 590.0 360.0 A 34.1 43.4 0 0 1 528.0 360.0 Z" fill="none" stroke="#f4f0e8" stroke-width="0.9" opacity="0.18"/>
<path d="M 590.0 360.0 A 34.1 43.4 0 0 1 652.0 360.0 A 34.1 43.4 0 0 1 590.0 360.0 Z" fill="none" stroke="#f4f0e8" stroke-width="0.9" opacity="0.18"/>
<path d="M 652.0 360.0 A 34.1 43.4 0 0 1 714.0 360.0 A 34.1 43.4 0 0 1 652.0 360.0 Z" fill="none" stroke="#f4f0e8" stroke-width="0.9" opacity="0.18"/>
<path d="M 714.0 360.0 A 34.1 43.4 0 0 1 776.0 360.0 A 34.1 43.4 0 0 1 714.0 360.0 Z" fill="none" stroke="#f4f0e8" stroke-width="0.9" opacity="0.18"/>
<path d="M 776.0 360.0 A 34.1 43.4 0 0 1 838.0 360.0 A 34.1 43.4 0 0 1 776.0 360.0 Z" fill="none" stroke="#f4f0e8" stroke-width="0.9" opacity="0.18"/>
<path d="M 838.0 360.0 A 34.1 43.4 0 0 1 900.0 360.0 A 34.1 43.4 0 0 1 838.0 360.0 Z" fill="none" stroke="#f4f0e8" stroke-width="0.9" opacity="0.18"/>
<path d="M 900.0 360.0 A 34.1 43.4 0 0 1 962.0 360.0 A 34.1 43.4 0 0 1 900.0 360.0 Z" fill="none" stroke="#f4f0e8" stroke-width="0.9" opacity="0.18"/>
<path d="M 1.0 400.3 A 34.1 43.4 0 0 1 63.0 400.3 A 34.1 43.4 0 0 1 1.0 400.3 Z" fill="none" stroke="#f4f0e8" stroke-width="0.9" opacity="0.18"/>
<path d="M 63.0 400.3 A 34.1 43.4 0 0 1 125.0 400.3 A 34.1 43.4 0 0 1 63.0 400.3 Z" fill="none" stroke="#f4f0e8" stroke-width="0.9" opacity="0.18"/>
<path d="M 125.0 400.3 A 34.1 43.4 0 0 1 187.0 400.3 A 34.1 43.4 0 0 1 125.0 400.3 Z" fill="none" stroke="#f4f0e8" stroke-width="0.9" opacity="0.18"/>
<path d="M 187.0 400.3 A 34.1 43.4 0 0 1 249.0 400.3 A 34.1 43.4 0 0 1 187.0 400.3 Z" fill="none" stroke="#f4f0e8" stroke-width="0.9" opacity="0.18"/>
<path d="M 249.0 400.3 A 34.1 43.4 0 0 1 311.0 400.3 A 34.1 43.4 0 0 1 249.0 400.3 Z" fill="none" stroke="#f4f0e8" stroke-width="0.9" opacity="0.18"/>
<path d="M 311.0 400.3 A 34.1 43.4 0 0 1 373.0 400.3 A 34.1 43.4 0 0 1 311.0 400.3 Z" fill="none" stroke="#f4f0e8" stroke-width="0.9" opacity="0.18"/>
<path d="M 373.0 400.3 A 34.1 43.4 0 0 1 435.0 400.3 A 34.1 43.4 0 0 1 373.0 400.3 Z" fill="none" stroke="#f4f0e8" stroke-width="0.9" opacity="0.18"/>
<path d="M 435.0 400.3 A 34.1 43.4 0 0 1 497.0 400.3 A 34.1 43.4 0 0 1 435.0 400.3 Z" fill="none" stroke="#f4f0e8" stroke-width="0.9" opacity="0.18"/>
<path d="M 497.0 400.3 A 34.1 43.4 0 0 1 559.0 400.3 A 34.1 43.4 0 0 1 497.0 400.3 Z" fill="none" stroke="#f4f0e8" stroke-width="0.9" opacity="0.18"/>
<path d="M 559.0 400.3 A 34.1 43.4 0 0 1 621.0 400.3 A 34.1 43.4 0 0 1 559.0 400.3 Z" fill="none" stroke="#f4f0e8" stroke-width="0.9" opacity="0.18"/>
<path d="M 621.0 400.3 A 34.1 43.4 0 0 1 683.0 400.3 A 34.1 43.4 0 0 1 621.0 400.3 Z" fill="none" stroke="#f4f0e8" stroke-width="0.9" opacity="0.18"/>
<path d="M 683.0 400.3 A 34.1 43.4 0 0 1 745.0 400.3 A 34.1 43.4 0 0 1 683.0 400.3 Z" fill="none" stroke="#f4f0e8" stroke-width="0.9" opacity="0.18"/>
<path d="M 745.0 400.3 A 34.1 43.4 0 0 1 807.0 400.3 A 34.1 43.4 0 0 1 745.0 400.3 Z" fill="none" stroke="#f4f0e8" stroke-width="0.9" opacity="0.18"/>
<path d="M 807.0 400.3 A 34.1 43.4 0 0 1 869.0 400.3 A 34.1 43.4 0 0 1 807.0 400.3 Z" fill="none" stroke="#f4f0e8" stroke-width="0.9" opacity="0.18"/>
<path d="M 869.0 400.3 A 34.1 43.4 0 0 1 931.0 400.3 A 34.1 43.4 0 0 1 869.0 400.3 Z" fill="none" stroke="#f4f0e8" stroke-width="0.9" opacity="0.18"/>
<path d="M 931.0 400.3 A 34.1 43.4 0 0 1 993.0 400.3 A 34.1 43.4 0 0 1 931.0 400.3 Z" fill="none" stroke="#f4f0e8" stroke-width="0.9" opacity="0.18"/>
<path d="M -30.0 440.6 A 34.1 43.4 0 0 1 32.0 440.6 A 34.1 43.4 0 0 1 -30.0 440.6 Z" fill="none" stroke="#f4f0e8" stroke-width="0.9" opacity="0.18"/>
<path d="M 32.0 440.6 A 34.1 43.4 0 0 1 94.0 440.6 A 34.1 43.4 0 0 1 32.0 440.6 Z" fill="none" stroke="#f4f0e8" stroke-width="0.9" opacity="0.18"/>
<path d="M 94.0 440.6 A 34.1 43.4 0 0 1 156.0 440.6 A 34.1 43.4 0 0 1 94.0 440.6 Z" fill="none" stroke="#f4f0e8" stroke-width="0.9" opacity="0.18"/>
<path d="M 156.0 440.6 A 34.1 43.4 0 0 1 218.0 440.6 A 34.1 43.4 0 0 1 156.0 440.6 Z" fill="none" stroke="#f4f0e8" stroke-width="0.9" opacity="0.18"/>
<path d="M 218.0 440.6 A 34.1 43.4 0 0 1 280.0 440.6 A 34.1 43.4 0 0 1 218.0 440.6 Z" fill="none" stroke="#f4f0e8" stroke-width="0.9" opacity="0.18"/>
<path d="M 280.0 440.6 A 34.1 43.4 0 0 1 342.0 440.6 A 34.1 43.4 0 0 1 280.0 440.6 Z" fill="none" stroke="#f4f0e8" stroke-width="0.9" opacity="0.18"/>
<path d="M 342.0 440.6 A 34.1 43.4 0 0 1 404.0 440.6 A 34.1 43.4 0 0 1 342.0 440.6 Z" fill="none" stroke="#f4f0e8" stroke-width="0.9" opacity="0.18"/>
<path d="M 404.0 440.6 A 34.1 43.4 0 0 1 466.0 440.6 A 34.1 43.4 0 0 1 404.0 440.6 Z" fill="none" stroke="#f4f0e8" stroke-width="0.9" opacity="0.18"/>
<path d="M 466.0 440.6 A 34.1 43.4 0 0 1 528.0 440.6 A 34.1 43.4 0 0 1 466.0 440.6 Z" fill="none" stroke="#f4f0e8" stroke-width="0.9" opacity="0.18"/>
<path d="M 528.0 440.6 A 34.1 43.4 0 0 1 590.0 440.6 A 34.1 43.4 0 0 1 528.0 440.6 Z" fill="none" stroke="#f4f0e8" stroke-width="0.9" opacity="0.18"/>
<path d="M 590.0 440.6 A 34.1 43.4 0 0 1 652.0 440.6 A 34.1 43.4 0 0 1 590.0 440.6 Z" fill="none" stroke="#f4f0e8" stroke-width="0.9" opacity="0.18"/>
<path d="M 652.0 440.6 A 34.1 43.4 0 0 1 714.0 440.6 A 34.1 43.4 0 0 1 652.0 440.6 Z" fill="none" stroke="#f4f0e8" stroke-width="0.9" opacity="0.18"/>
<path d="M 714.0 440.6 A 34.1 43.4 0 0 1 776.0 440.6 A 34.1 43.4 0 0 1 714.0 440.6 Z" fill="none" stroke="#f4f0e8" stroke-width="0.9" opacity="0.18"/>
<path d="M 776.0 440.6 A 34.1 43.4 0 0 1 838.0 440.6 A 34.1 43.4 0 0 1 776.0 440.6 Z" fill="none" stroke="#f4f0e8" stroke-width="0.9" opacity="0.18"/>
<path d="M 838.0 440.6 A 34.1 43.4 0 0 1 900.0 440.6 A 34.1 43.4 0 0 1 838.0 440.6 Z" fill="none" stroke="#f4f0e8" stroke-width="0.9" opacity="0.18"/>
<path d="M 900.0 440.6 A 34.1 43.4 0 0 1 962.0 440.6 A 34.1 43.4 0 0 1 900.0 440.6 Z" fill="none" stroke="#f4f0e8" stroke-width="0.9" opacity="0.18"/>
<path d="M 1.0 480.9 A 34.1 43.4 0 0 1 63.0 480.9 A 34.1 43.4 0 0 1 1.0 480.9 Z" fill="none" stroke="#f4f0e8" stroke-width="0.9" opacity="0.18"/>
<path d="M 63.0 480.9 A 34.1 43.4 0 0 1 125.0 480.9 A 34.1 43.4 0 0 1 63.0 480.9 Z" fill="none" stroke="#f4f0e8" stroke-width="0.9" opacity="0.18"/>
<path d="M 125.0 480.9 A 34.1 43.4 0 0 1 187.0 480.9 A 34.1 43.4 0 0 1 125.0 480.9 Z" fill="none" stroke="#f4f0e8" stroke-width="0.9" opacity="0.18"/>
<path d="M 187.0 480.9 A 34.1 43.4 0 0 1 249.0 480.9 A 34.1 43.4 0 0 1 187.0 480.9 Z" fill="none" stroke="#f4f0e8" stroke-width="0.9" opacity="0.18"/>
<path d="M 249.0 480.9 A 34.1 43.4 0 0 1 311.0 480.9 A 34.1 43.4 0 0 1 249.0 480.9 Z" fill="none" stroke="#f4f0e8" stroke-width="0.9" opacity="0.18"/>
<path d="M 311.0 480.9 A 34.1 43.4 0 0 1 373.0 480.9 A 34.1 43.4 0 0 1 311.0 480.9 Z" fill="none" stroke="#f4f0e8" stroke-width="0.9" opacity="0.18"/>
<path d="M 373.0 480.9 A 34.1 43.4 0 0 1 435.0 480.9 A 34.1 43.4 0 0 1 373.0 480.9 Z" fill="none" stroke="#f4f0e8" stroke-width="0.9" opacity="0.18"/>
<path d="M 435.0 480.9 A 34.1 43.4 0 0 1 497.0 480.9 A 34.1 43.4 0 0 1 435.0 480.9 Z" fill="none" stroke="#f4f0e8" stroke-width="0.9" opacity="0.18"/>
<path d="M 497.0 480.9 A 34.1 43.4 0 0 1 559.0 480.9 A 34.1 43.4 0 0 1 497.0 480.9 Z" fill="none" stroke="#f4f0e8" stroke-width="0.9" opacity="0.18"/>
<path d="M 559.0 480.9 A 34.1 43.4 0 0 1 621.0 480.9 A 34.1 43.4 0 0 1 559.0 480.9 Z" fill="none" stroke="#f4f0e8" stroke-width="0.9" opacity="0.18"/>
<path d="M 621.0 480.9 A 34.1 43.4 0 0 1 683.0 480.9 A 34.1 43.4 0 0 1 621.0 480.9 Z" fill="none" stroke="#f4f0e8" stroke-width="0.9" opacity="0.18"/>
<path d="M 683.0 480.9 A 34.1 43.4 0 0 1 745.0 480.9 A 34.1 43.4 0 0 1 683.0 480.9 Z" fill="none" stroke="#f4f0e8" stroke-width="0.9" opacity="0.18"/>
<path d="M 745.0 480.9 A 34.1 43.4 0 0 1 807.0 480.9 A 34.1 43.4 0 0 1 745.0 480.9 Z" fill="none" stroke="#f4f0e8" stroke-width="0.9" opacity="0.18"/>
<path d="M 807.0 480.9 A 34.1 43.4 0 0 1 869.0 480.9 A 34.1 43.4 0 0 1 807.0 480.9 Z" fill="none" stroke="#f4f0e8" stroke-width="0.9" opacity="0.18"/>
<path d="M 869.0 480.9 A 34.1 43.4 0 0 1 931.0 480.9 A 34.1 43.4 0 0 1 869.0 480.9 Z" fill="none" stroke="#f4f0e8" stroke-width="0.9" opacity="0.18"/>
<path d="M 931.0 480.9 A 34.1 43.4 0 0 1 993.0 480.9 A 34.1 43.4 0 0 1 931.0 480.9 Z" fill="none" stroke="#f4f0e8" stroke-width="0.9" opacity="0.18"/>
<path d="M -30.0 521.2 A 34.1 43.4 0 0 1 32.0 521.2 A 34.1 43.4 0 0 1 -30.0 521.2 Z" fill="none" stroke="#f4f0e8" stroke-width="0.9" opacity="0.18"/>
<path d="M 32.0 521.2 A 34.1 43.4 0 0 1 94.0 521.2 A 34.1 43.4 0 0 1 32.0 521.2 Z" fill="none" stroke="#f4f0e8" stroke-width="0.9" opacity="0.18"/>
<path d="M 94.0 521.2 A 34.1 43.4 0 0 1 156.0 521.2 A 34.1 43.4 0 0 1 94.0 521.2 Z" fill="none" stroke="#f4f0e8" stroke-width="0.9" opacity="0.18"/>
<path d="M 156.0 521.2 A 34.1 43.4 0 0 1 218.0 521.2 A 34.1 43.4 0 0 1 156.0 521.2 Z" fill="none" stroke="#f4f0e8" stroke-width="0.9" opacity="0.18"/>
<path d="M 218.0 521.2 A 34.1 43.4 0 0 1 280.0 521.2 A 34.1 43.4 0 0 1 218.0 521.2 Z" fill="none" stroke="#f4f0e8" stroke-width="0.9" opacity="0.18"/>
<path d="M 280.0 521.2 A 34.1 43.4 0 0 1 342.0 521.2 A 34.1 43.4 0 0 1 280.0 521.2 Z" fill="none" stroke="#f4f0e8" stroke-width="0.9" opacity="0.18"/>
<path d="M 342.0 521.2 A 34.1 43.4 0 0 1 404.0 521.2 A 34.1 43.4 0 0 1 342.0 521.2 Z" fill="none" stroke="#f4f0e8" stroke-width="0.9" opacity="0.18"/>
<path d="M 404.0 521.2 A 34.1 43.4 0 0 1 466.0 521.2 A 34.1 43.4 0 0 1 404.0 521.2 Z" fill="none" stroke="#f4f0e8" stroke-width="0.9" opacity="0.18"/>
<path d="M 466.0 521.2 A 34.1 43.4 0 0 1 528.0 521.2 A 34.1 43.4 0 0 1 466.0 521.2 Z" fill="none" stroke="#f4f0e8" stroke-width="0.9" opacity="0.18"/>
<path d="M 528.0 521.2 A 34.1 43.4 0 0 1 590.0 521.2 A 34.1 43.4 0 0 1 528.0 521.2 Z" fill="none" stroke="#f4f0e8" stroke-width="0.9" opacity="0.18"/>
<path d="M 590.0 521.2 A 34.1 43.4 0 0 1 652.0 521.2 A 34.1 43.4 0 0 1 590.0 521.2 Z" fill="none" stroke="#f4f0e8" stroke-width="0.9" opacity="0.18"/>
<path d="M 652.0 521.2 A 34.1 43.4 0 0 1 714.0 521.2 A 34.1 43.4 0 0 1 652.0 521.2 Z" fill="none" stroke="#f4f0e8" stroke-width="0.9" opacity="0.18"/>
<path d="M 714.0 521.2 A 34.1 43.4 0 0 1 776.0 521.2 A 34.1 43.4 0 0 1 714.0 521.2 Z" fill="none" stroke="#f4f0e8" stroke-width="0.9" opacity="0.18"/>
<path d="M 776.0 521.2 A 34.1 43.4 0 0 1 838.0 521.2 A 34.1 43.4 0 0 1 776.0 521.2 Z" fill="none" stroke="#f4f0e8" stroke-width="0.9" opacity="0.18"/>
<path d="M 838.0 521.2 A 34.1 43.4 0 0 1 900.0 521.2 A 34.1 43.4 0 0 1 838.0 521.2 Z" fill="none" stroke="#f4f0e8" stroke-width="0.9" opacity="0.18"/>
<path d="M 900.0 521.2 A 34.1 43.4 0 0 1 962.0 521.2 A 34.1 43.4 0 0 1 900.0 521.2 Z" fill="none" stroke="#f4f0e8" stroke-width="0.9" opacity="0.18"/>
<path d="M 1.0 561.5 A 34.1 43.4 0 0 1 63.0 561.5 A 34.1 43.4 0 0 1 1.0 561.5 Z" fill="none" stroke="#f4f0e8" stroke-width="0.9" opacity="0.18"/>
<path d="M 63.0 561.5 A 34.1 43.4 0 0 1 125.0 561.5 A 34.1 43.4 0 0 1 63.0 561.5 Z" fill="none" stroke="#f4f0e8" stroke-width="0.9" opacity="0.18"/>
<path d="M 125.0 561.5 A 34.1 43.4 0 0 1 187.0 561.5 A 34.1 43.4 0 0 1 125.0 561.5 Z" fill="none" stroke="#f4f0e8" stroke-width="0.9" opacity="0.18"/>
<path d="M 187.0 561.5 A 34.1 43.4 0 0 1 249.0 561.5 A 34.1 43.4 0 0 1 187.0 561.5 Z" fill="none" stroke="#f4f0e8" stroke-width="0.9" opacity="0.18"/>
<path d="M 249.0 561.5 A 34.1 43.4 0 0 1 311.0 561.5 A 34.1 43.4 0 0 1 249.0 561.5 Z" fill="none" stroke="#f4f0e8" stroke-width="0.9" opacity="0.18"/>
<path d="M 311.0 561.5 A 34.1 43.4 0 0 1 373.0 561.5 A 34.1 43.4 0 0 1 311.0 561.5 Z" fill="none" stroke="#f4f0e8" stroke-width="0.9" opacity="0.18"/>
<path d="M 373.0 561.5 A 34.1 43.4 0 0 1 435.0 561.5 A 34.1 43.4 0 0 1 373.0 561.5 Z" fill="none" stroke="#f4f0e8" stroke-width="0.9" opacity="0.18"/>
<path d="M 435.0 561.5 A 34.1 43.4 0 0 1 497.0 561.5 A 34.1 43.4 0 0 1 435.0 561.5 Z" fill="none" stroke="#f4f0e8" stroke-width="0.9" opacity="0.18"/>
<path d="M 497.0 561.5 A 34.1 43.4 0 0 1 559.0 561.5 A 34.1 43.4 0 0 1 497.0 561.5 Z" fill="none" stroke="#f4f0e8" stroke-width="0.9" opacity="0.18"/>
<path d="M 559.0 561.5 A 34.1 43.4 0 0 1 621.0 561.5 A 34.1 43.4 0 0 1 559.0 561.5 Z" fill="none" stroke="#f4f0e8" stroke-width="0.9" opacity="0.18"/>
<path d="M 621.0 561.5 A 34.1 43.4 0 0 1 683.0 561.5 A 34.1 43.4 0 0 1 621.0 561.5 Z" fill="none" stroke="#f4f0e8" stroke-width="0.9" opacity="0.18"/>
<path d="M 683.0 561.5 A 34.1 43.4 0 0 1 745.0 561.5 A 34.1 43.4 0 0 1 683.0 561.5 Z" fill="none" stroke="#f4f0e8" stroke-width="0.9" opacity="0.18"/>
<path d="M 745.0 561.5 A 34.1 43.4 0 0 1 807.0 561.5 A 34.1 43.4 0 0 1 745.0 561.5 Z" fill="none" stroke="#f4f0e8" stroke-width="0.9" opacity="0.18"/>
<path d="M 807.0 561.5 A 34.1 43.4 0 0 1 869.0 561.5 A 34.1 43.4 0 0 1 807.0 561.5 Z" fill="none" stroke="#f4f0e8" stroke-width="0.9" opacity="0.18"/>
<path d="M 869.0 561.5 A 34.1 43.4 0 0 1 931.0 561.5 A 34.1 43.4 0 0 1 869.0 561.5 Z" fill="none" stroke="#f4f0e8" stroke-width="0.9" opacity="0.18"/>
<path d="M 931.0 561.5 A 34.1 43.4 0 0 1 993.0 561.5 A 34.1 43.4 0 0 1 931.0 561.5 Z" fill="none" stroke="#f4f0e8" stroke-width="0.9" opacity="0.18"/>
<path d="M -30.0 601.8 A 34.1 43.4 0 0 1 32.0 601.8 A 34.1 43.4 0 0 1 -30.0 601.8 Z" fill="none" stroke="#f4f0e8" stroke-width="0.9" opacity="0.18"/>
<path d="M 32.0 601.8 A 34.1 43.4 0 0 1 94.0 601.8 A 34.1 43.4 0 0 1 32.0 601.8 Z" fill="none" stroke="#f4f0e8" stroke-width="0.9" opacity="0.18"/>
<path d="M 94.0 601.8 A 34.1 43.4 0 0 1 156.0 601.8 A 34.1 43.4 0 0 1 94.0 601.8 Z" fill="none" stroke="#f4f0e8" stroke-width="0.9" opacity="0.18"/>
<path d="M 156.0 601.8 A 34.1 43.4 0 0 1 218.0 601.8 A 34.1 43.4 0 0 1 156.0 601.8 Z" fill="none" stroke="#f4f0e8" stroke-width="0.9" opacity="0.18"/>
<path d="M 218.0 601.8 A 34.1 43.4 0 0 1 280.0 601.8 A 34.1 43.4 0 0 1 218.0 601.8 Z" fill="none" stroke="#f4f0e8" stroke-width="0.9" opacity="0.18"/>
<path d="M 280.0 601.8 A 34.1 43.4 0 0 1 342.0 601.8 A 34.1 43.4 0 0 1 280.0 601.8 Z" fill="none" stroke="#f4f0e8" stroke-width="0.9" opacity="0.18"/>
<path d="M 342.0 601.8 A 34.1 43.4 0 0 1 404.0 601.8 A 34.1 43.4 0 0 1 342.0 601.8 Z" fill="none" stroke="#f4f0e8" stroke-width="0.9" opacity="0.18"/>
<path d="M 404.0 601.8 A 34.1 43.4 0 0 1 466.0 601.8 A 34.1 43.4 0 0 1 404.0 601.8 Z" fill="none" stroke="#f4f0e8" stroke-width="0.9" opacity="0.18"/>
<path d="M 466.0 601.8 A 34.1 43.4 0 0 1 528.0 601.8 A 34.1 43.4 0 0 1 466.0 601.8 Z" fill="none" stroke="#f4f0e8" stroke-width="0.9" opacity="0.18"/>
<path d="M 528.0 601.8 A 34.1 43.4 0 0 1 590.0 601.8 A 34.1 43.4 0 0 1 528.0 601.8 Z" fill="none" stroke="#f4f0e8" stroke-width="0.9" opacity="0.18"/>
<path d="M 590.0 601.8 A 34.1 43.4 0 0 1 652.0 601.8 A 34.1 43.4 0 0 1 590.0 601.8 Z" fill="none" stroke="#f4f0e8" stroke-width="0.9" opacity="0.18"/>
<path d="M 652.0 601.8 A 34.1 43.4 0 0 1 714.0 601.8 A 34.1 43.4 0 0 1 652.0 601.8 Z" fill="none" stroke="#f4f0e8" stroke-width="0.9" opacity="0.18"/>
<path d="M 714.0 601.8 A 34.1 43.4 0 0 1 776.0 601.8 A 34.1 43.4 0 0 1 714.0 601.8 Z" fill="none" stroke="#f4f0e8" stroke-width="0.9" opacity="0.18"/>
<path d="M 776.0 601.8 A 34.1 43.4 0 0 1 838.0 601.8 A 34.1 43.4 0 0 1 776.0 601.8 Z" fill="none" stroke="#f4f0e8" stroke-width="0.9" opacity="0.18"/>
<path d="M 838.0 601.8 A 34.1 43.4 0 0 1 900.0 601.8 A 34.1 43.4 0 0 1 838.0 601.8 Z" fill="none" stroke="#f4f0e8" stroke-width="0.9" opacity="0.18"/>
<path d="M 900.0 601.8 A 34.1 43.4 0 0 1 962.0 601.8 A 34.1 43.4 0 0 1 900.0 601.8 Z" fill="none" stroke="#f4f0e8" stroke-width="0.9" opacity="0.18"/>
<path d="M 1.0 642.1 A 34.1 43.4 0 0 1 63.0 642.1 A 34.1 43.4 0 0 1 1.0 642.1 Z" fill="none" stroke="#f4f0e8" stroke-width="0.9" opacity="0.18"/>
<path d="M 63.0 642.1 A 34.1 43.4 0 0 1 125.0 642.1 A 34.1 43.4 0 0 1 63.0 642.1 Z" fill="none" stroke="#f4f0e8" stroke-width="0.9" opacity="0.18"/>
<path d="M 125.0 642.1 A 34.1 43.4 0 0 1 187.0 642.1 A 34.1 43.4 0 0 1 125.0 642.1 Z" fill="none" stroke="#f4f0e8" stroke-width="0.9" opacity="0.18"/>
<path d="M 187.0 642.1 A 34.1 43.4 0 0 1 249.0 642.1 A 34.1 43.4 0 0 1 187.0 642.1 Z" fill="none" stroke="#f4f0e8" stroke-width="0.9" opacity="0.18"/>
<path d="M 249.0 642.1 A 34.1 43.4 0 0 1 311.0 642.1 A 34.1 43.4 0 0 1 249.0 642.1 Z" fill="none" stroke="#f4f0e8" stroke-width="0.9" opacity="0.18"/>
<path d="M 311.0 642.1 A 34.1 43.4 0 0 1 373.0 642.1 A 34.1 43.4 0 0 1 311.0 642.1 Z" fill="none" stroke="#f4f0e8" stroke-width="0.9" opacity="0.18"/>
<path d="M 373.0 642.1 A 34.1 43.4 0 0 1 435.0 642.1 A 34.1 43.4 0 0 1 373.0 642.1 Z" fill="none" stroke="#f4f0e8" stroke-width="0.9" opacity="0.18"/>
<path d="M 435.0 642.1 A 34.1 43.4 0 0 1 497.0 642.1 A 34.1 43.4 0 0 1 435.0 642.1 Z" fill="none" stroke="#f4f0e8" stroke-width="0.9" opacity="0.18"/>
<path d="M 497.0 642.1 A 34.1 43.4 0 0 1 559.0 642.1 A 34.1 43.4 0 0 1 497.0 642.1 Z" fill="none" stroke="#f4f0e8" stroke-width="0.9" opacity="0.18"/>
<path d="M 559.0 642.1 A 34.1 43.4 0 0 1 621.0 642.1 A 34.1 43.4 0 0 1 559.0 642.1 Z" fill="none" stroke="#f4f0e8" stroke-width="0.9" opacity="0.18"/>
<path d="M 621.0 642.1 A 34.1 43.4 0 0 1 683.0 642.1 A 34.1 43.4 0 0 1 621.0 642.1 Z" fill="none" stroke="#f4f0e8" stroke-width="0.9" opacity="0.18"/>
<path d="M 683.0 642.1 A 34.1 43.4 0 0 1 745.0 642.1 A 34.1 43.4 0 0 1 683.0 642.1 Z" fill="none" stroke="#f4f0e8" stroke-width="0.9" opacity="0.18"/>
<path d="M 745.0 642.1 A 34.1 43.4 0 0 1 807.0 642.1 A 34.1 43.4 0 0 1 745.0 642.1 Z" fill="none" stroke="#f4f0e8" stroke-width="0.9" opacity="0.18"/>
<path d="M 807.0 642.1 A 34.1 43.4 0 0 1 869.0 642.1 A 34.1 43.4 0 0 1 807.0 642.1 Z" fill="none" stroke="#f4f0e8" stroke-width="0.9" opacity="0.18"/>
<path d="M 869.0 642.1 A 34.1 43.4 0 0 1 931.0 642.1 A 34.1 43.4 0 0 1 869.0 642.1 Z" fill="none" stroke="#f4f0e8" stroke-width="0.9" opacity="0.18"/>
<path d="M 931.0 642.1 A 34.1 43.4 0 0 1 993.0 642.1 A 34.1 43.4 0 0 1 931.0 642.1 Z" fill="none" stroke="#f4f0e8" stroke-width="0.9" opacity="0.18"/>
<path d="M -30.0 682.4 A 34.1 43.4 0 0 1 32.0 682.4 A 34.1 43.4 0 0 1 -30.0 682.4 Z" fill="none" stroke="#f4f0e8" stroke-width="0.9" opacity="0.18"/>
<path d="M 32.0 682.4 A 34.1 43.4 0 0 1 94.0 682.4 A 34.1 43.4 0 0 1 32.0 682.4 Z" fill="none" stroke="#f4f0e8" stroke-width="0.9" opacity="0.18"/>
<path d="M 94.0 682.4 A 34.1 43.4 0 0 1 156.0 682.4 A 34.1 43.4 0 0 1 94.0 682.4 Z" fill="none" stroke="#f4f0e8" stroke-width="0.9" opacity="0.18"/>
<path d="M 156.0 682.4 A 34.1 43.4 0 0 1 218.0 682.4 A 34.1 43.4 0 0 1 156.0 682.4 Z" fill="none" stroke="#f4f0e8" stroke-width="0.9" opacity="0.18"/>
<path d="M 218.0 682.4 A 34.1 43.4 0 0 1 280.0 682.4 A 34.1 43.4 0 0 1 218.0 682.4 Z" fill="none" stroke="#f4f0e8" stroke-width="0.9" opacity="0.18"/>
<path d="M 280.0 682.4 A 34.1 43.4 0 0 1 342.0 682.4 A 34.1 43.4 0 0 1 280.0 682.4 Z" fill="none" stroke="#f4f0e8" stroke-width="0.9" opacity="0.18"/>
<path d="M 342.0 682.4 A 34.1 43.4 0 0 1 404.0 682.4 A 34.1 43.4 0 0 1 342.0 682.4 Z" fill="none" stroke="#f4f0e8" stroke-width="0.9" opacity="0.18"/>
<path d="M 404.0 682.4 A 34.1 43.4 0 0 1 466.0 682.4 A 34.1 43.4 0 0 1 404.0 682.4 Z" fill="none" stroke="#f4f0e8" stroke-width="0.9" opacity="0.18"/>
<path d="M 466.0 682.4 A 34.1 43.4 0 0 1 528.0 682.4 A 34.1 43.4 0 0 1 466.0 682.4 Z" fill="none" stroke="#f4f0e8" stroke-width="0.9" opacity="0.18"/>
<path d="M 528.0 682.4 A 34.1 43.4 0 0 1 590.0 682.4 A 34.1 43.4 0 0 1 528.0 682.4 Z" fill="none" stroke="#f4f0e8" stroke-width="0.9" opacity="0.18"/>
<path d="M 590.0 682.4 A 34.1 43.4 0 0 1 652.0 682.4 A 34.1 43.4 0 0 1 590.0 682.4 Z" fill="none" stroke="#f4f0e8" stroke-width="0.9" opacity="0.18"/>
<path d="M 652.0 682.4 A 34.1 43.4 0 0 1 714.0 682.4 A 34.1 43.4 0 0 1 652.0 682.4 Z" fill="none" stroke="#f4f0e8" stroke-width="0.9" opacity="0.18"/>
<path d="M 714.0 682.4 A 34.1 43.4 0 0 1 776.0 682.4 A 34.1 43.4 0 0 1 714.0 682.4 Z" fill="none" stroke="#f4f0e8" stroke-width="0.9" opacity="0.18"/>
<path d="M 776.0 682.4 A 34.1 43.4 0 0 1 838.0 682.4 A 34.1 43.4 0 0 1 776.0 682.4 Z" fill="none" stroke="#f4f0e8" stroke-width="0.9" opacity="0.18"/>
<path d="M 838.0 682.4 A 34.1 43.4 0 0 1 900.0 682.4 A 34.1 43.4 0 0 1 838.0 682.4 Z" fill="none" stroke="#f4f0e8" stroke-width="0.9" opacity="0.18"/>
<path d="M 900.0 682.4 A 34.1 43.4 0 0 1 962.0 682.4 A 34.1 43.4 0 0 1 900.0 682.4 Z" fill="none" stroke="#f4f0e8" stroke-width="0.9" opacity="0.18"/>
<path d="M 1.0 722.7 A 34.1 43.4 0 0 1 63.0 722.7 A 34.1 43.4 0 0 1 1.0 722.7 Z" fill="none" stroke="#f4f0e8" stroke-width="0.9" opacity="0.18"/>
<path d="M 63.0 722.7 A 34.1 43.4 0 0 1 125.0 722.7 A 34.1 43.4 0 0 1 63.0 722.7 Z" fill="none" stroke="#f4f0e8" stroke-width="0.9" opacity="0.18"/>
<path d="M 125.0 722.7 A 34.1 43.4 0 0 1 187.0 722.7 A 34.1 43.4 0 0 1 125.0 722.7 Z" fill="none" stroke="#f4f0e8" stroke-width="0.9" opacity="0.18"/>
<path d="M 187.0 722.7 A 34.1 43.4 0 0 1 249.0 722.7 A 34.1 43.4 0 0 1 187.0 722.7 Z" fill="none" stroke="#f4f0e8" stroke-width="0.9" opacity="0.18"/>
<path d="M 249.0 722.7 A 34.1 43.4 0 0 1 311.0 722.7 A 34.1 43.4 0 0 1 249.0 722.7 Z" fill="none" stroke="#f4f0e8" stroke-width="0.9" opacity="0.18"/>
<path d="M 311.0 722.7 A 34.1 43.4 0 0 1 373.0 722.7 A 34.1 43.4 0 0 1 311.0 722.7 Z" fill="none" stroke="#f4f0e8" stroke-width="0.9" opacity="0.18"/>
<path d="M 373.0 722.7 A 34.1 43.4 0 0 1 435.0 722.7 A 34.1 43.4 0 0 1 373.0 722.7 Z" fill="none" stroke="#f4f0e8" stroke-width="0.9" opacity="0.18"/>
<path d="M 435.0 722.7 A 34.1 43.4 0 0 1 497.0 722.7 A 34.1 43.4 0 0 1 435.0 722.7 Z" fill="none" stroke="#f4f0e8" stroke-width="0.9" opacity="0.18"/>
<path d="M 497.0 722.7 A 34.1 43.4 0 0 1 559.0 722.7 A 34.1 43.4 0 0 1 497.0 722.7 Z" fill="none" stroke="#f4f0e8" stroke-width="0.9" opacity="0.18"/>
<path d="M 559.0 722.7 A 34.1 43.4 0 0 1 621.0 722.7 A 34.1 43.4 0 0 1 559.0 722.7 Z" fill="none" stroke="#f4f0e8" stroke-width="0.9" opacity="0.18"/>
<path d="M 621.0 722.7 A 34.1 43.4 0 0 1 683.0 722.7 A 34.1 43.4 0 0 1 621.0 722.7 Z" fill="none" stroke="#f4f0e8" stroke-width="0.9" opacity="0.18"/>
<path d="M 683.0 722.7 A 34.1 43.4 0 0 1 745.0 722.7 A 34.1 43.4 0 0 1 683.0 722.7 Z" fill="none" stroke="#f4f0e8" stroke-width="0.9" opacity="0.18"/>
<path d="M 745.0 722.7 A 34.1 43.4 0 0 1 807.0 722.7 A 34.1 43.4 0 0 1 745.0 722.7 Z" fill="none" stroke="#f4f0e8" stroke-width="0.9" opacity="0.18"/>
<path d="M 807.0 722.7 A 34.1 43.4 0 0 1 869.0 722.7 A 34.1 43.4 0 0 1 807.0 722.7 Z" fill="none" stroke="#f4f0e8" stroke-width="0.9" opacity="0.18"/>
<path d="M 869.0 722.7 A 34.1 43.4 0 0 1 931.0 722.7 A 34.1 43.4 0 0 1 869.0 722.7 Z" fill="none" stroke="#f4f0e8" stroke-width="0.9" opacity="0.18"/>
<path d="M 931.0 722.7 A 34.1 43.4 0 0 1 993.0 722.7 A 34.1 43.4 0 0 1 931.0 722.7 Z" fill="none" stroke="#f4f0e8" stroke-width="0.9" opacity="0.18"/>
<path d="M -30.0 763.0 A 34.1 43.4 0 0 1 32.0 763.0 A 34.1 43.4 0 0 1 -30.0 763.0 Z" fill="none" stroke="#f4f0e8" stroke-width="0.9" opacity="0.18"/>
<path d="M 32.0 763.0 A 34.1 43.4 0 0 1 94.0 763.0 A 34.1 43.4 0 0 1 32.0 763.0 Z" fill="none" stroke="#f4f0e8" stroke-width="0.9" opacity="0.18"/>
<path d="M 94.0 763.0 A 34.1 43.4 0 0 1 156.0 763.0 A 34.1 43.4 0 0 1 94.0 763.0 Z" fill="none" stroke="#f4f0e8" stroke-width="0.9" opacity="0.18"/>
<path d="M 156.0 763.0 A 34.1 43.4 0 0 1 218.0 763.0 A 34.1 43.4 0 0 1 156.0 763.0 Z" fill="none" stroke="#f4f0e8" stroke-width="0.9" opacity="0.18"/>
<path d="M 218.0 763.0 A 34.1 43.4 0 0 1 280.0 763.0 A 34.1 43.4 0 0 1 218.0 763.0 Z" fill="none" stroke="#f4f0e8" stroke-width="0.9" opacity="0.18"/>
<path d="M 280.0 763.0 A 34.1 43.4 0 0 1 342.0 763.0 A 34.1 43.4 0 0 1 280.0 763.0 Z" fill="none" stroke="#f4f0e8" stroke-width="0.9" opacity="0.18"/>
<path d="M 342.0 763.0 A 34.1 43.4 0 0 1 404.0 763.0 A 34.1 43.4 0 0 1 342.0 763.0 Z" fill="none" stroke="#f4f0e8" stroke-width="0.9" opacity="0.18"/>
<path d="M 404.0 763.0 A 34.1 43.4 0 0 1 466.0 763.0 A 34.1 43.4 0 0 1 404.0 763.0 Z" fill="none" stroke="#f4f0e8" stroke-width="0.9" opacity="0.18"/>
<path d="M 466.0 763.0 A 34.1 43.4 0 0 1 528.0 763.0 A 34.1 43.4 0 0 1 466.0 763.0 Z" fill="none" stroke="#f4f0e8" stroke-width="0.9" opacity="0.18"/>
<path d="M 528.0 763.0 A 34.1 43.4 0 0 1 590.0 763.0 A 34.1 43.4 0 0 1 528.0 763.0 Z" fill="none" stroke="#f4f0e8" stroke-width="0.9" opacity="0.18"/>
<path d="M 590.0 763.0 A 34.1 43.4 0 0 1 652.0 763.0 A 34.1 43.4 0 0 1 590.0 763.0 Z" fill="none" stroke="#f4f0e8" stroke-width="0.9" opacity="0.18"/>
<path d="M 652.0 763.0 A 34.1 43.4 0 0 1 714.0 763.0 A 34.1 43.4 0 0 1 652.0 763.0 Z" fill="none" stroke="#f4f0e8" stroke-width="0.9" opacity="0.18"/>
<path d="M 714.0 763.0 A 34.1 43.4 0 0 1 776.0 763.0 A 34.1 43.4 0 0 1 714.0 763.0 Z" fill="none" stroke="#f4f0e8" stroke-width="0.9" opacity="0.18"/>
<path d="M 776.0 763.0 A 34.1 43.4 0 0 1 838.0 763.0 A 34.1 43.4 0 0 1 776.0 763.0 Z" fill="none" stroke="#f4f0e8" stroke-width="0.9" opacity="0.18"/>
<path d="M 838.0 763.0 A 34.1 43.4 0 0 1 900.0 763.0 A 34.1 43.4 0 0 1 838.0 763.0 Z" fill="none" stroke="#f4f0e8" stroke-width="0.9" opacity="0.18"/>
<path d="M 900.0 763.0 A 34.1 43.4 0 0 1 962.0 763.0 A 34.1 43.4 0 0 1 900.0 763.0 Z" fill="none" stroke="#f4f0e8" stroke-width="0.9" opacity="0.18"/>
<path d="M 1.0 803.3 A 34.1 43.4 0 0 1 63.0 803.3 A 34.1 43.4 0 0 1 1.0 803.3 Z" fill="none" stroke="#f4f0e8" stroke-width="0.9" opacity="0.18"/>
<path d="M 63.0 803.3 A 34.1 43.4 0 0 1 125.0 803.3 A 34.1 43.4 0 0 1 63.0 803.3 Z" fill="none" stroke="#f4f0e8" stroke-width="0.9" opacity="0.18"/>
<path d="M 125.0 803.3 A 34.1 43.4 0 0 1 187.0 803.3 A 34.1 43.4 0 0 1 125.0 803.3 Z" fill="none" stroke="#f4f0e8" stroke-width="0.9" opacity="0.18"/>
<path d="M 187.0 803.3 A 34.1 43.4 0 0 1 249.0 803.3 A 34.1 43.4 0 0 1 187.0 803.3 Z" fill="none" stroke="#f4f0e8" stroke-width="0.9" opacity="0.18"/>
<path d="M 249.0 803.3 A 34.1 43.4 0 0 1 311.0 803.3 A 34.1 43.4 0 0 1 249.0 803.3 Z" fill="none" stroke="#f4f0e8" stroke-width="0.9" opacity="0.18"/>
<path d="M 311.0 803.3 A 34.1 43.4 0 0 1 373.0 803.3 A 34.1 43.4 0 0 1 311.0 803.3 Z" fill="none" stroke="#f4f0e8" stroke-width="0.9" opacity="0.18"/>
<path d="M 373.0 803.3 A 34.1 43.4 0 0 1 435.0 803.3 A 34.1 43.4 0 0 1 373.0 803.3 Z" fill="none" stroke="#f4f0e8" stroke-width="0.9" opacity="0.18"/>
<path d="M 435.0 803.3 A 34.1 43.4 0 0 1 497.0 803.3 A 34.1 43.4 0 0 1 435.0 803.3 Z" fill="none" stroke="#f4f0e8" stroke-width="0.9" opacity="0.18"/>
<path d="M 497.0 803.3 A 34.1 43.4 0 0 1 559.0 803.3 A 34.1 43.4 0 0 1 497.0 803.3 Z" fill="none" stroke="#f4f0e8" stroke-width="0.9" opacity="0.18"/>
<path d="M 559.0 803.3 A 34.1 43.4 0 0 1 621.0 803.3 A 34.1 43.4 0 0 1 559.0 803.3 Z" fill="none" stroke="#f4f0e8" stroke-width="0.9" opacity="0.18"/>
<path d="M 621.0 803.3 A 34.1 43.4 0 0 1 683.0 803.3 A 34.1 43.4 0 0 1 621.0 803.3 Z" fill="none" stroke="#f4f0e8" stroke-width="0.9" opacity="0.18"/>
<path d="M 683.0 803.3 A 34.1 43.4 0 0 1 745.0 803.3 A 34.1 43.4 0 0 1 683.0 803.3 Z" fill="none" stroke="#f4f0e8" stroke-width="0.9" opacity="0.18"/>
<path d="M 745.0 803.3 A 34.1 43.4 0 0 1 807.0 803.3 A 34.1 43.4 0 0 1 745.0 803.3 Z" fill="none" stroke="#f4f0e8" stroke-width="0.9" opacity="0.18"/>
<path d="M 807.0 803.3 A 34.1 43.4 0 0 1 869.0 803.3 A 34.1 43.4 0 0 1 807.0 803.3 Z" fill="none" stroke="#f4f0e8" stroke-width="0.9" opacity="0.18"/>
<path d="M 869.0 803.3 A 34.1 43.4 0 0 1 931.0 803.3 A 34.1 43.4 0 0 1 869.0 803.3 Z" fill="none" stroke="#f4f0e8" stroke-width="0.9" opacity="0.18"/>
<path d="M 931.0 803.3 A 34.1 43.4 0 0 1 993.0 803.3 A 34.1 43.4 0 0 1 931.0 803.3 Z" fill="none" stroke="#f4f0e8" stroke-width="0.9" opacity="0.18"/>
<path d="M -30.0 843.6 A 34.1 43.4 0 0 1 32.0 843.6 A 34.1 43.4 0 0 1 -30.0 843.6 Z" fill="none" stroke="#f4f0e8" stroke-width="0.9" opacity="0.18"/>
<path d="M 32.0 843.6 A 34.1 43.4 0 0 1 94.0 843.6 A 34.1 43.4 0 0 1 32.0 843.6 Z" fill="none" stroke="#f4f0e8" stroke-width="0.9" opacity="0.18"/>
<path d="M 94.0 843.6 A 34.1 43.4 0 0 1 156.0 843.6 A 34.1 43.4 0 0 1 94.0 843.6 Z" fill="none" stroke="#f4f0e8" stroke-width="0.9" opacity="0.18"/>
<path d="M 156.0 843.6 A 34.1 43.4 0 0 1 218.0 843.6 A 34.1 43.4 0 0 1 156.0 843.6 Z" fill="none" stroke="#f4f0e8" stroke-width="0.9" opacity="0.18"/>
<path d="M 218.0 843.6 A 34.1 43.4 0 0 1 280.0 843.6 A 34.1 43.4 0 0 1 218.0 843.6 Z" fill="none" stroke="#f4f0e8" stroke-width="0.9" opacity="0.18"/>
<path d="M 280.0 843.6 A 34.1 43.4 0 0 1 342.0 843.6 A 34.1 43.4 0 0 1 280.0 843.6 Z" fill="none" stroke="#f4f0e8" stroke-width="0.9" opacity="0.18"/>
<path d="M 342.0 843.6 A 34.1 43.4 0 0 1 404.0 843.6 A 34.1 43.4 0 0 1 342.0 843.6 Z" fill="none" stroke="#f4f0e8" stroke-width="0.9" opacity="0.18"/>
<path d="M 404.0 843.6 A 34.1 43.4 0 0 1 466.0 843.6 A 34.1 43.4 0 0 1 404.0 843.6 Z" fill="none" stroke="#f4f0e8" stroke-width="0.9" opacity="0.18"/>
<path d="M 466.0 843.6 A 34.1 43.4 0 0 1 528.0 843.6 A 34.1 43.4 0 0 1 466.0 843.6 Z" fill="none" stroke="#f4f0e8" stroke-width="0.9" opacity="0.18"/>
<path d="M 528.0 843.6 A 34.1 43.4 0 0 1 590.0 843.6 A 34.1 43.4 0 0 1 528.0 843.6 Z" fill="none" stroke="#f4f0e8" stroke-width="0.9" opacity="0.18"/>
<path d="M 590.0 843.6 A 34.1 43.4 0 0 1 652.0 843.6 A 34.1 43.4 0 0 1 590.0 843.6 Z" fill="none" stroke="#f4f0e8" stroke-width="0.9" opacity="0.18"/>
<path d="M 652.0 843.6 A 34.1 43.4 0 0 1 714.0 843.6 A 34.1 43.4 0 0 1 652.0 843.6 Z" fill="none" stroke="#f4f0e8" stroke-width="0.9" opacity="0.18"/>
<path d="M 714.0 843.6 A 34.1 43.4 0 0 1 776.0 843.6 A 34.1 43.4 0 0 1 714.0 843.6 Z" fill="none" stroke="#f4f0e8" stroke-width="0.9" opacity="0.18"/>
<path d="M 776.0 843.6 A 34.1 43.4 0 0 1 838.0 843.6 A 34.1 43.4 0 0 1 776.0 843.6 Z" fill="none" stroke="#f4f0e8" stroke-width="0.9" opacity="0.18"/>
<path d="M 838.0 843.6 A 34.1 43.4 0 0 1 900.0 843.6 A 34.1 43.4 0 0 1 838.0 843.6 Z" fill="none" stroke="#f4f0e8" stroke-width="0.9" opacity="0.18"/>
<path d="M 900.0 843.6 A 34.1 43.4 0 0 1 962.0 843.6 A 34.1 43.4 0 0 1 900.0 843.6 Z" fill="none" stroke="#f4f0e8" stroke-width="0.9" opacity="0.18"/>
<path d="M 1.0 883.9 A 34.1 43.4 0 0 1 63.0 883.9 A 34.1 43.4 0 0 1 1.0 883.9 Z" fill="none" stroke="#f4f0e8" stroke-width="0.9" opacity="0.18"/>
<path d="M 63.0 883.9 A 34.1 43.4 0 0 1 125.0 883.9 A 34.1 43.4 0 0 1 63.0 883.9 Z" fill="none" stroke="#f4f0e8" stroke-width="0.9" opacity="0.18"/>
<path d="M 125.0 883.9 A 34.1 43.4 0 0 1 187.0 883.9 A 34.1 43.4 0 0 1 125.0 883.9 Z" fill="none" stroke="#f4f0e8" stroke-width="0.9" opacity="0.18"/>
<path d="M 187.0 883.9 A 34.1 43.4 0 0 1 249.0 883.9 A 34.1 43.4 0 0 1 187.0 883.9 Z" fill="none" stroke="#f4f0e8" stroke-width="0.9" opacity="0.18"/>
<path d="M 249.0 883.9 A 34.1 43.4 0 0 1 311.0 883.9 A 34.1 43.4 0 0 1 249.0 883.9 Z" fill="none" stroke="#f4f0e8" stroke-width="0.9" opacity="0.18"/>
<path d="M 311.0 883.9 A 34.1 43.4 0 0 1 373.0 883.9 A 34.1 43.4 0 0 1 311.0 883.9 Z" fill="none" stroke="#f4f0e8" stroke-width="0.9" opacity="0.18"/>
<path d="M 373.0 883.9 A 34.1 43.4 0 0 1 435.0 883.9 A 34.1 43.4 0 0 1 373.0 883.9 Z" fill="none" stroke="#f4f0e8" stroke-width="0.9" opacity="0.18"/>
<path d="M 435.0 883.9 A 34.1 43.4 0 0 1 497.0 883.9 A 34.1 43.4 0 0 1 435.0 883.9 Z" fill="none" stroke="#f4f0e8" stroke-width="0.9" opacity="0.18"/>
<path d="M 497.0 883.9 A 34.1 43.4 0 0 1 559.0 883.9 A 34.1 43.4 0 0 1 497.0 883.9 Z" fill="none" stroke="#f4f0e8" stroke-width="0.9" opacity="0.18"/>
<path d="M 559.0 883.9 A 34.1 43.4 0 0 1 621.0 883.9 A 34.1 43.4 0 0 1 559.0 883.9 Z" fill="none" stroke="#f4f0e8" stroke-width="0.9" opacity="0.18"/>
<path d="M 621.0 883.9 A 34.1 43.4 0 0 1 683.0 883.9 A 34.1 43.4 0 0 1 621.0 883.9 Z" fill="none" stroke="#f4f0e8" stroke-width="0.9" opacity="0.18"/>
<path d="M 683.0 883.9 A 34.1 43.4 0 0 1 745.0 883.9 A 34.1 43.4 0 0 1 683.0 883.9 Z" fill="none" stroke="#f4f0e8" stroke-width="0.9" opacity="0.18"/>
<path d="M 745.0 883.9 A 34.1 43.4 0 0 1 807.0 883.9 A 34.1 43.4 0 0 1 745.0 883.9 Z" fill="none" stroke="#f4f0e8" stroke-width="0.9" opacity="0.18"/>
<path d="M 807.0 883.9 A 34.1 43.4 0 0 1 869.0 883.9 A 34.1 43.4 0 0 1 807.0 883.9 Z" fill="none" stroke="#f4f0e8" stroke-width="0.9" opacity="0.18"/>
<path d="M 869.0 883.9 A 34.1 43.4 0 0 1 931.0 883.9 A 34.1 43.4 0 0 1 869.0 883.9 Z" fill="none" stroke="#f4f0e8" stroke-width="0.9" opacity="0.18"/>
<path d="M 931.0 883.9 A 34.1 43.4 0 0 1 993.0 883.9 A 34.1 43.4 0 0 1 931.0 883.9 Z" fill="none" stroke="#f4f0e8" stroke-width="0.9" opacity="0.18"/>
<path d="M -30.0 924.2 A 34.1 43.4 0 0 1 32.0 924.2 A 34.1 43.4 0 0 1 -30.0 924.2 Z" fill="none" stroke="#f4f0e8" stroke-width="0.9" opacity="0.18"/>
<path d="M 32.0 924.2 A 34.1 43.4 0 0 1 94.0 924.2 A 34.1 43.4 0 0 1 32.0 924.2 Z" fill="none" stroke="#f4f0e8" stroke-width="0.9" opacity="0.18"/>
<path d="M 94.0 924.2 A 34.1 43.4 0 0 1 156.0 924.2 A 34.1 43.4 0 0 1 94.0 924.2 Z" fill="none" stroke="#f4f0e8" stroke-width="0.9" opacity="0.18"/>
<path d="M 156.0 924.2 A 34.1 43.4 0 0 1 218.0 924.2 A 34.1 43.4 0 0 1 156.0 924.2 Z" fill="none" stroke="#f4f0e8" stroke-width="0.9" opacity="0.18"/>
<path d="M 218.0 924.2 A 34.1 43.4 0 0 1 280.0 924.2 A 34.1 43.4 0 0 1 218.0 924.2 Z" fill="none" stroke="#f4f0e8" stroke-width="0.9" opacity="0.18"/>
<path d="M 280.0 924.2 A 34.1 43.4 0 0 1 342.0 924.2 A 34.1 43.4 0 0 1 280.0 924.2 Z" fill="none" stroke="#f4f0e8" stroke-width="0.9" opacity="0.18"/>
<path d="M 342.0 924.2 A 34.1 43.4 0 0 1 404.0 924.2 A 34.1 43.4 0 0 1 342.0 924.2 Z" fill="none" stroke="#f4f0e8" stroke-width="0.9" opacity="0.18"/>
<path d="M 404.0 924.2 A 34.1 43.4 0 0 1 466.0 924.2 A 34.1 43.4 0 0 1 404.0 924.2 Z" fill="none" stroke="#f4f0e8" stroke-width="0.9" opacity="0.18"/>
<path d="M 466.0 924.2 A 34.1 43.4 0 0 1 528.0 924.2 A 34.1 43.4 0 0 1 466.0 924.2 Z" fill="none" stroke="#f4f0e8" stroke-width="0.9" opacity="0.18"/>
<path d="M 528.0 924.2 A 34.1 43.4 0 0 1 590.0 924.2 A 34.1 43.4 0 0 1 528.0 924.2 Z" fill="none" stroke="#f4f0e8" stroke-width="0.9" opacity="0.18"/>
<path d="M 590.0 924.2 A 34.1 43.4 0 0 1 652.0 924.2 A 34.1 43.4 0 0 1 590.0 924.2 Z" fill="none" stroke="#f4f0e8" stroke-width="0.9" opacity="0.18"/>
<path d="M 652.0 924.2 A 34.1 43.4 0 0 1 714.0 924.2 A 34.1 43.4 0 0 1 652.0 924.2 Z" fill="none" stroke="#f4f0e8" stroke-width="0.9" opacity="0.18"/>
<path d="M 714.0 924.2 A 34.1 43.4 0 0 1 776.0 924.2 A 34.1 43.4 0 0 1 714.0 924.2 Z" fill="none" stroke="#f4f0e8" stroke-width="0.9" opacity="0.18"/>
<path d="M 776.0 924.2 A 34.1 43.4 0 0 1 838.0 924.2 A 34.1 43.4 0 0 1 776.0 924.2 Z" fill="none" stroke="#f4f0e8" stroke-width="0.9" opacity="0.18"/>
<path d="M 838.0 924.2 A 34.1 43.4 0 0 1 900.0 924.2 A 34.1 43.4 0 0 1 838.0 924.2 Z" fill="none" stroke="#f4f0e8" stroke-width="0.9" opacity="0.18"/>
<path d="M 900.0 924.2 A 34.1 43.4 0 0 1 962.0 924.2 A 34.1 43.4 0 0 1 900.0 924.2 Z" fill="none" stroke="#f4f0e8" stroke-width="0.9" opacity="0.18"/>
<path d="M 1.0 964.5 A 34.1 43.4 0 0 1 63.0 964.5 A 34.1 43.4 0 0 1 1.0 964.5 Z" fill="none" stroke="#f4f0e8" stroke-width="0.9" opacity="0.18"/>
<path d="M 63.0 964.5 A 34.1 43.4 0 0 1 125.0 964.5 A 34.1 43.4 0 0 1 63.0 964.5 Z" fill="none" stroke="#f4f0e8" stroke-width="0.9" opacity="0.18"/>
<path d="M 125.0 964.5 A 34.1 43.4 0 0 1 187.0 964.5 A 34.1 43.4 0 0 1 125.0 964.5 Z" fill="none" stroke="#f4f0e8" stroke-width="0.9" opacity="0.18"/>
<path d="M 187.0 964.5 A 34.1 43.4 0 0 1 249.0 964.5 A 34.1 43.4 0 0 1 187.0 964.5 Z" fill="none" stroke="#f4f0e8" stroke-width="0.9" opacity="0.18"/>
<path d="M 249.0 964.5 A 34.1 43.4 0 0 1 311.0 964.5 A 34.1 43.4 0 0 1 249.0 964.5 Z" fill="none" stroke="#f4f0e8" stroke-width="0.9" opacity="0.18"/>
<path d="M 311.0 964.5 A 34.1 43.4 0 0 1 373.0 964.5 A 34.1 43.4 0 0 1 311.0 964.5 Z" fill="none" stroke="#f4f0e8" stroke-width="0.9" opacity="0.18"/>
<path d="M 373.0 964.5 A 34.1 43.4 0 0 1 435.0 964.5 A 34.1 43.4 0 0 1 373.0 964.5 Z" fill="none" stroke="#f4f0e8" stroke-width="0.9" opacity="0.18"/>
<path d="M 435.0 964.5 A 34.1 43.4 0 0 1 497.0 964.5 A 34.1 43.4 0 0 1 435.0 964.5 Z" fill="none" stroke="#f4f0e8" stroke-width="0.9" opacity="0.18"/>
<path d="M 497.0 964.5 A 34.1 43.4 0 0 1 559.0 964.5 A 34.1 43.4 0 0 1 497.0 964.5 Z" fill="none" stroke="#f4f0e8" stroke-width="0.9" opacity="0.18"/>
<path d="M 559.0 964.5 A 34.1 43.4 0 0 1 621.0 964.5 A 34.1 43.4 0 0 1 559.0 964.5 Z" fill="none" stroke="#f4f0e8" stroke-width="0.9" opacity="0.18"/>
<path d="M 621.0 964.5 A 34.1 43.4 0 0 1 683.0 964.5 A 34.1 43.4 0 0 1 621.0 964.5 Z" fill="none" stroke="#f4f0e8" stroke-width="0.9" opacity="0.18"/>
<path d="M 683.0 964.5 A 34.1 43.4 0 0 1 745.0 964.5 A 34.1 43.4 0 0 1 683.0 964.5 Z" fill="none" stroke="#f4f0e8" stroke-width="0.9" opacity="0.18"/>
<path d="M 745.0 964.5 A 34.1 43.4 0 0 1 807.0 964.5 A 34.1 43.4 0 0 1 745.0 964.5 Z" fill="none" stroke="#f4f0e8" stroke-width="0.9" opacity="0.18"/>
<path d="M 807.0 964.5 A 34.1 43.4 0 0 1 869.0 964.5 A 34.1 43.4 0 0 1 807.0 964.5 Z" fill="none" stroke="#f4f0e8" stroke-width="0.9" opacity="0.18"/>
<path d="M 869.0 964.5 A 34.1 43.4 0 0 1 931.0 964.5 A 34.1 43.4 0 0 1 869.0 964.5 Z" fill="none" stroke="#f4f0e8" stroke-width="0.9" opacity="0.18"/>
<path d="M 931.0 964.5 A 34.1 43.4 0 0 1 993.0 964.5 A 34.1 43.4 0 0 1 931.0 964.5 Z" fill="none" stroke="#f4f0e8" stroke-width="0.9" opacity="0.18"/>
<path d="M 540.0 -20.0 A 44.0 56.0 0 0 1 620.0 -20.0 A 44.0 56.0 0 0 1 540.0 -20.0 Z" fill="none" stroke="#c0392b" stroke-width="1.5" opacity="0.12"/>
<path d="M 620.0 -20.0 A 44.0 56.0 0 0 1 700.0 -20.0 A 44.0 56.0 0 0 1 620.0 -20.0 Z" fill="none" stroke="#c0392b" stroke-width="1.5" opacity="0.12"/>
<path d="M 700.0 -20.0 A 44.0 56.0 0 0 1 780.0 -20.0 A 44.0 56.0 0 0 1 700.0 -20.0 Z" fill="none" stroke="#c0392b" stroke-width="1.5" opacity="0.12"/>
<path d="M 780.0 -20.0 A 44.0 56.0 0 0 1 860.0 -20.0 A 44.0 56.0 0 0 1 780.0 -20.0 Z" fill="none" stroke="#c0392b" stroke-width="1.5" opacity="0.12"/>
<path d="M 860.0 -20.0 A 44.0 56.0 0 0 1 940.0 -20.0 A 44.0 56.0 0 0 1 860.0 -20.0 Z" fill="none" stroke="#c0392b" stroke-width="1.5" opacity="0.12"/>
<path d="M 940.0 -20.0 A 44.0 56.0 0 0 1 1020.0 -20.0 A 44.0 56.0 0 0 1 940.0 -20.0 Z" fill="none" stroke="#c0392b" stroke-width="1.5" opacity="0.12"/>
<path d="M 1020.0 -20.0 A 44.0 56.0 0 0 1 1100.0 -20.0 A 44.0 56.0 0 0 1 1020.0 -20.0 Z" fill="none" stroke="#c0392b" stroke-width="1.5" opacity="0.12"/>
<path d="M 1100.0 -20.0 A 44.0 56.0 0 0 1 1180.0 -20.0 A 44.0 56.0 0 0 1 1100.0 -20.0 Z" fill="none" stroke="#c0392b" stroke-width="1.5" opacity="0.12"/>
<path d="M 580.0 32.0 A 44.0 56.0 0 0 1 660.0 32.0 A 44.0 56.0 0 0 1 580.0 32.0 Z" fill="none" stroke="#c0392b" stroke-width="1.5" opacity="0.12"/>
<path d="M 660.0 32.0 A 44.0 56.0 0 0 1 740.0 32.0 A 44.0 56.0 0 0 1 660.0 32.0 Z" fill="none" stroke="#c0392b" stroke-width="1.5" opacity="0.12"/>
<path d="M 740.0 32.0 A 44.0 56.0 0 0 1 820.0 32.0 A 44.0 56.0 0 0 1 740.0 32.0 Z" fill="none" stroke="#c0392b" stroke-width="1.5" opacity="0.12"/>
<path d="M 820.0 32.0 A 44.0 56.0 0 0 1 900.0 32.0 A 44.0 56.0 0 0 1 820.0 32.0 Z" fill="none" stroke="#c0392b" stroke-width="1.5" opacity="0.12"/>
<path d="M 900.0 32.0 A 44.0 56.0 0 0 1 980.0 32.0 A 44.0 56.0 0 0 1 900.0 32.0 Z" fill="none" stroke="#c0392b" stroke-width="1.5" opacity="0.12"/>
<path d="M 980.0 32.0 A 44.0 56.0 0 0 1 1060.0 32.0 A 44.0 56.0 0 0 1 980.0 32.0 Z" fill="none" stroke="#c0392b" stroke-width="1.5" opacity="0.12"/>
<path d="M 1060.0 32.0 A 44.0 56.0 0 0 1 1140.0 32.0 A 44.0 56.0 0 0 1 1060.0 32.0 Z" fill="none" stroke="#c0392b" stroke-width="1.5" opacity="0.12"/>
<path d="M 1140.0 32.0 A 44.0 56.0 0 0 1 1220.0 32.0 A 44.0 56.0 0 0 1 1140.0 32.0 Z" fill="none" stroke="#c0392b" stroke-width="1.5" opacity="0.12"/>
<path d="M 540.0 84.0 A 44.0 56.0 0 0 1 620.0 84.0 A 44.0 56.0 0 0 1 540.0 84.0 Z" fill="none" stroke="#c0392b" stroke-width="1.5" opacity="0.12"/>
<path d="M 620.0 84.0 A 44.0 56.0 0 0 1 700.0 84.0 A 44.0 56.0 0 0 1 620.0 84.0 Z" fill="none" stroke="#c0392b" stroke-width="1.5" opacity="0.12"/>
<path d="M 700.0 84.0 A 44.0 56.0 0 0 1 780.0 84.0 A 44.0 56.0 0 0 1 700.0 84.0 Z" fill="none" stroke="#c0392b" stroke-width="1.5" opacity="0.12"/>
<path d="M 780.0 84.0 A 44.0 56.0 0 0 1 860.0 84.0 A 44.0 56.0 0 0 1 780.0 84.0 Z" fill="none" stroke="#c0392b" stroke-width="1.5" opacity="0.12"/>
<path d="M 860.0 84.0 A 44.0 56.0 0 0 1 940.0 84.0 A 44.0 56.0 0 0 1 860.0 84.0 Z" fill="none" stroke="#c0392b" stroke-width="1.5" opacity="0.12"/>
<path d="M 940.0 84.0 A 44.0 56.0 0 0 1 1020.0 84.0 A 44.0 56.0 0 0 1 940.0 84.0 Z" fill="none" stroke="#c0392b" stroke-width="1.5" opacity="0.12"/>
<path d="M 1020.0 84.0 A 44.0 56.0 0 0 1 1100.0 84.0 A 44.0 56.0 0 0 1 1020.0 84.0 Z" fill="none" stroke="#c0392b" stroke-width="1.5" opacity="0.12"/>
<path d="M 1100.0 84.0 A 44.0 56.0 0 0 1 1180.0 84.0 A 44.0 56.0 0 0 1 1100.0 84.0 Z" fill="none" stroke="#c0392b" stroke-width="1.5" opacity="0.12"/>
<path d="M 580.0 136.0 A 44.0 56.0 0 0 1 660.0 136.0 A 44.0 56.0 0 0 1 580.0 136.0 Z" fill="none" stroke="#c0392b" stroke-width="1.5" opacity="0.12"/>
<path d="M 660.0 136.0 A 44.0 56.0 0 0 1 740.0 136.0 A 44.0 56.0 0 0 1 660.0 136.0 Z" fill="none" stroke="#c0392b" stroke-width="1.5" opacity="0.12"/>
<path d="M 740.0 136.0 A 44.0 56.0 0 0 1 820.0 136.0 A 44.0 56.0 0 0 1 740.0 136.0 Z" fill="none" stroke="#c0392b" stroke-width="1.5" opacity="0.12"/>
<path d="M 820.0 136.0 A 44.0 56.0 0 0 1 900.0 136.0 A 44.0 56.0 0 0 1 820.0 136.0 Z" fill="none" stroke="#c0392b" stroke-width="1.5" opacity="0.12"/>
<path d="M 900.0 136.0 A 44.0 56.0 0 0 1 980.0 136.0 A 44.0 56.0 0 0 1 900.0 136.0 Z" fill="none" stroke="#c0392b" stroke-width="1.5" opacity="0.12"/>
<path d="M 980.0 136.0 A 44.0 56.0 0 0 1 1060.0 136.0 A 44.0 56.0 0 0 1 980.0 136.0 Z" fill="none" stroke="#c0392b" stroke-width="1.5" opacity="0.12"/>
<path d="M 1060.0 136.0 A 44.0 56.0 0 0 1 1140.0 136.0 A 44.0 56.0 0 0 1 1060.0 136.0 Z" fill="none" stroke="#c0392b" stroke-width="1.5" opacity="0.12"/>
<path d="M 1140.0 136.0 A 44.0 56.0 0 0 1 1220.0 136.0 A 44.0 56.0 0 0 1 1140.0 136.0 Z" fill="none" stroke="#c0392b" stroke-width="1.5" opacity="0.12"/>
<path d="M 540.0 188.0 A 44.0 56.0 0 0 1 620.0 188.0 A 44.0 56.0 0 0 1 540.0 188.0 Z" fill="none" stroke="#c0392b" stroke-width="1.5" opacity="0.12"/>
<path d="M 620.0 188.0 A 44.0 56.0 0 0 1 700.0 188.0 A 44.0 56.0 0 0 1 620.0 188.0 Z" fill="none" stroke="#c0392b" stroke-width="1.5" opacity="0.12"/>
<path d="M 700.0 188.0 A 44.0 56.0 0 0 1 780.0 188.0 A 44.0 56.0 0 0 1 700.0 188.0 Z" fill="none" stroke="#c0392b" stroke-width="1.5" opacity="0.12"/>
<path d="M 780.0 188.0 A 44.0 56.0 0 0 1 860.0 188.0 A 44.0 56.0 0 0 1 780.0 188.0 Z" fill="none" stroke="#c0392b" stroke-width="1.5" opacity="0.12"/>
<path d="M 860.0 188.0 A 44.0 56.0 0 0 1 940.0 188.0 A 44.0 56.0 0 0 1 860.0 188.0 Z" fill="none" stroke="#c0392b" stroke-width="1.5" opacity="0.12"/>
<path d="M 940.0 188.0 A 44.0 56.0 0 0 1 1020.0 188.0 A 44.0 56.0 0 0 1 940.0 188.0 Z" fill="none" stroke="#c0392b" stroke-width="1.5" opacity="0.12"/>
<path d="M 1020.0 188.0 A 44.0 56.0 0 0 1 1100.0 188.0 A 44.0 56.0 0 0 1 1020.0 188.0 Z" fill="none" stroke="#c0392b" stroke-width="1.5" opacity="0.12"/>
<path d="M 1100.0 188.0 A 44.0 56.0 0 0 1 1180.0 188.0 A 44.0 56.0 0 0 1 1100.0 188.0 Z" fill="none" stroke="#c0392b" stroke-width="1.5" opacity="0.12"/>
<path d="M 580.0 240.0 A 44.0 56.0 0 0 1 660.0 240.0 A 44.0 56.0 0 0 1 580.0 240.0 Z" fill="none" stroke="#c0392b" stroke-width="1.5" opacity="0.12"/>
<path d="M 660.0 240.0 A 44.0 56.0 0 0 1 740.0 240.0 A 44.0 56.0 0 0 1 660.0 240.0 Z" fill="none" stroke="#c0392b" stroke-width="1.5" opacity="0.12"/>
<path d="M 740.0 240.0 A 44.0 56.0 0 0 1 820.0 240.0 A 44.0 56.0 0 0 1 740.0 240.0 Z" fill="none" stroke="#c0392b" stroke-width="1.5" opacity="0.12"/>
<path d="M 820.0 240.0 A 44.0 56.0 0 0 1 900.0 240.0 A 44.0 56.0 0 0 1 820.0 240.0 Z" fill="none" stroke="#c0392b" stroke-width="1.5" opacity="0.12"/>
<path d="M 900.0 240.0 A 44.0 56.0 0 0 1 980.0 240.0 A 44.0 56.0 0 0 1 900.0 240.0 Z" fill="none" stroke="#c0392b" stroke-width="1.5" opacity="0.12"/>
<path d="M 980.0 240.0 A 44.0 56.0 0 0 1 1060.0 240.0 A 44.0 56.0 0 0 1 980.0 240.0 Z" fill="none" stroke="#c0392b" stroke-width="1.5" opacity="0.12"/>
<path d="M 1060.0 240.0 A 44.0 56.0 0 0 1 1140.0 240.0 A 44.0 56.0 0 0 1 1060.0 240.0 Z" fill="none" stroke="#c0392b" stroke-width="1.5" opacity="0.12"/>
<path d="M 1140.0 240.0 A 44.0 56.0 0 0 1 1220.0 240.0 A 44.0 56.0 0 0 1 1140.0 240.0 Z" fill="none" stroke="#c0392b" stroke-width="1.5" opacity="0.12"/>
<path d="M 540.0 292.0 A 44.0 56.0 0 0 1 620.0 292.0 A 44.0 56.0 0 0 1 540.0 292.0 Z" fill="none" stroke="#c0392b" stroke-width="1.5" opacity="0.12"/>
<path d="M 620.0 292.0 A 44.0 56.0 0 0 1 700.0 292.0 A 44.0 56.0 0 0 1 620.0 292.0 Z" fill="none" stroke="#c0392b" stroke-width="1.5" opacity="0.12"/>
<path d="M 700.0 292.0 A 44.0 56.0 0 0 1 780.0 292.0 A 44.0 56.0 0 0 1 700.0 292.0 Z" fill="none" stroke="#c0392b" stroke-width="1.5" opacity="0.12"/>
<path d="M 780.0 292.0 A 44.0 56.0 0 0 1 860.0 292.0 A 44.0 56.0 0 0 1 780.0 292.0 Z" fill="none" stroke="#c0392b" stroke-width="1.5" opacity="0.12"/>
<path d="M 860.0 292.0 A 44.0 56.0 0 0 1 940.0 292.0 A 44.0 56.0 0 0 1 860.0 292.0 Z" fill="none" stroke="#c0392b" stroke-width="1.5" opacity="0.12"/>
<path d="M 940.0 292.0 A 44.0 56.0 0 0 1 1020.0 292.0 A 44.0 56.0 0 0 1 940.0 292.0 Z" fill="none" stroke="#c0392b" stroke-width="1.5" opacity="0.12"/>
<path d="M 1020.0 292.0 A 44.0 56.0 0 0 1 1100.0 292.0 A 44.0 56.0 0 0 1 1020.0 292.0 Z" fill="none" stroke="#c0392b" stroke-width="1.5" opacity="0.12"/>
<path d="M 1100.0 292.0 A 44.0 56.0 0 0 1 1180.0 292.0 A 44.0 56.0 0 0 1 1100.0 292.0 Z" fill="none" stroke="#c0392b" stroke-width="1.5" opacity="0.12"/>
<path d="M 580.0 344.0 A 44.0 56.0 0 0 1 660.0 344.0 A 44.0 56.0 0 0 1 580.0 344.0 Z" fill="none" stroke="#c0392b" stroke-width="1.5" opacity="0.12"/>
<path d="M 660.0 344.0 A 44.0 56.0 0 0 1 740.0 344.0 A 44.0 56.0 0 0 1 660.0 344.0 Z" fill="none" stroke="#c0392b" stroke-width="1.5" opacity="0.12"/>
<path d="M 740.0 344.0 A 44.0 56.0 0 0 1 820.0 344.0 A 44.0 56.0 0 0 1 740.0 344.0 Z" fill="none" stroke="#c0392b" stroke-width="1.5" opacity="0.12"/>
<path d="M 820.0 344.0 A 44.0 56.0 0 0 1 900.0 344.0 A 44.0 56.0 0 0 1 820.0 344.0 Z" fill="none" stroke="#c0392b" stroke-width="1.5" opacity="0.12"/>
<path d="M 900.0 344.0 A 44.0 56.0 0 0 1 980.0 344.0 A 44.0 56.0 0 0 1 900.0 344.0 Z" fill="none" stroke="#c0392b" stroke-width="1.5" opacity="0.12"/>
<path d="M 980.0 344.0 A 44.0 56.0 0 0 1 1060.0 344.0 A 44.0 56.0 0 0 1 980.0 344.0 Z" fill="none" stroke="#c0392b" stroke-width="1.5" opacity="0.12"/>
<path d="M 1060.0 344.0 A 44.0 56.0 0 0 1 1140.0 344.0 A 44.0 56.0 0 0 1 1060.0 344.0 Z" fill="none" stroke="#c0392b" stroke-width="1.5" opacity="0.12"/>
<path d="M 1140.0 344.0 A 44.0 56.0 0 0 1 1220.0 344.0 A 44.0 56.0 0 0 1 1140.0 344.0 Z" fill="none" stroke="#c0392b" stroke-width="1.5" opacity="0.12"/>
<!-- top bar -->
<rect x="0" y="0" width="1080" height="10" fill="#c0392b"/>
<!-- bottom bar -->
<rect x="0" y="1000" width="1080" height="80" fill="#c0392b"/>
<!-- te reo headline -->
<text x="540" y="480" font-family="Georgia, serif" font-size="88"
      font-weight="bold" fill="#f4f0e8" text-anchor="middle">AI — KĀORE E TIKA</text>
<!-- english line -->
<text x="540" y="560" font-family="Arial, sans-serif" font-size="44"
      font-weight="bold" fill="#c0392b" text-anchor="middle">AI MUST NOT STEAL</text>
<!-- tag line -->
<text x="540" y="610" font-family="Arial, sans-serif" font-size="22"
      fill="#f4f0e8" text-anchor="middle" opacity="0.7">Māori data must stay under Māori control.</text>
<!-- motif watermark -->
<text x="540" y="1052" font-family="Arial, sans-serif" font-size="22" font-weight="bold"
      fill="#f4f0e8" text-anchor="middle">UNAUNAHI · KOTAHITANGA · kiwidialectic.com</text>

</svg>