<svg xmlns="http://www.w3.org/2000/svg" width="1080" height="1080" viewBox="0 0 1080 1080">
<title>Unaunahi — The Kiwi Dialectic</title>

<rect width="1080" height="1080" fill="#0d0d0d"/>
<path d="M -40.0 -40.0 A 31.9 40.6 0 0 1 18.0 -40.0 A 31.9 40.6 0 0 1 -40.0 -40.0 Z" fill="#1a1a1a" stroke="#f4f0e8" stroke-width="0.7" opacity="0.28"/>
<path d="M 18.0 -40.0 A 31.9 40.6 0 0 1 76.0 -40.0 A 31.9 40.6 0 0 1 18.0 -40.0 Z" fill="#1a1a1a" stroke="#f4f0e8" stroke-width="0.7" opacity="0.28"/>
<path d="M 76.0 -40.0 A 31.9 40.6 0 0 1 134.0 -40.0 A 31.9 40.6 0 0 1 76.0 -40.0 Z" fill="#1a1a1a" stroke="#f4f0e8" stroke-width="0.7" opacity="0.28"/>
<path d="M 134.0 -40.0 A 31.9 40.6 0 0 1 192.0 -40.0 A 31.9 40.6 0 0 1 134.0 -40.0 Z" fill="#1a1a1a" stroke="#f4f0e8" stroke-width="0.7" opacity="0.28"/>
<path d="M 192.0 -40.0 A 31.9 40.6 0 0 1 250.0 -40.0 A 31.9 40.6 0 0 1 192.0 -40.0 Z" fill="#1a1a1a" stroke="#f4f0e8" stroke-width="0.7" opacity="0.28"/>
<path d="M 250.0 -40.0 A 31.9 40.6 0 0 1 308.0 -40.0 A 31.9 40.6 0 0 1 250.0 -40.0 Z" fill="#1a1a1a" stroke="#f4f0e8" stroke-width="0.7" opacity="0.28"/>
<path d="M 308.0 -40.0 A 31.9 40.6 0 0 1 366.0 -40.0 A 31.9 40.6 0 0 1 308.0 -40.0 Z" fill="#1a1a1a" stroke="#f4f0e8" stroke-width="0.7" opacity="0.28"/>
<path d="M 366.0 -40.0 A 31.9 40.6 0 0 1 424.0 -40.0 A 31.9 40.6 0 0 1 366.0 -40.0 Z" fill="#1a1a1a" stroke="#f4f0e8" stroke-width="0.7" opacity="0.28"/>
<path d="M 424.0 -40.0 A 31.9 40.6 0 0 1 482.0 -40.0 A 31.9 40.6 0 0 1 424.0 -40.0 Z" fill="#1a1a1a" stroke="#f4f0e8" stroke-width="0.7" opacity="0.28"/>
<path d="M 482.0 -40.0 A 31.9 40.6 0 0 1 540.0 -40.0 A 31.9 40.6 0 0 1 482.0 -40.0 Z" fill="#1a1a1a" stroke="#f4f0e8" stroke-width="0.7" opacity="0.28"/>
<path d="M 540.0 -40.0 A 31.9 40.6 0 0 1 598.0 -40.0 A 31.9 40.6 0 0 1 540.0 -40.0 Z" fill="#1a1a1a" stroke="#f4f0e8" stroke-width="0.7" opacity="0.28"/>
<path d="M 598.0 -40.0 A 31.9 40.6 0 0 1 656.0 -40.0 A 31.9 40.6 0 0 1 598.0 -40.0 Z" fill="#1a1a1a" stroke="#f4f0e8" stroke-width="0.7" opacity="0.28"/>
<path d="M 656.0 -40.0 A 31.9 40.6 0 0 1 714.0 -40.0 A 31.9 40.6 0 0 1 656.0 -40.0 Z" fill="#1a1a1a" stroke="#f4f0e8" stroke-width="0.7" opacity="0.28"/>
<path d="M 714.0 -40.0 A 31.9 40.6 0 0 1 772.0 -40.0 A 31.9 40.6 0 0 1 714.0 -40.0 Z" fill="#1a1a1a" stroke="#f4f0e8" stroke-width="0.7" opacity="0.28"/>
<path d="M 772.0 -40.0 A 31.9 40.6 0 0 1 830.0 -40.0 A 31.9 40.6 0 0 1 772.0 -40.0 Z" fill="#1a1a1a" stroke="#f4f0e8" stroke-width="0.7" opacity="0.28"/>
<path d="M 830.0 -40.0 A 31.9 40.6 0 0 1 888.0 -40.0 A 31.9 40.6 0 0 1 830.0 -40.0 Z" fill="#1a1a1a" stroke="#f4f0e8" stroke-width="0.7" opacity="0.28"/>
<path d="M 888.0 -40.0 A 31.9 40.6 0 0 1 946.0 -40.0 A 31.9 40.6 0 0 1 888.0 -40.0 Z" fill="#1a1a1a" stroke="#f4f0e8" stroke-width="0.7" opacity="0.28"/>
<path d="M 946.0 -40.0 A 31.9 40.6 0 0 1 1004.0 -40.0 A 31.9 40.6 0 0 1 946.0 -40.0 Z" fill="#1a1a1a" stroke="#f4f0e8" stroke-width="0.7" opacity="0.28"/>
<path d="M 1004.0 -40.0 A 31.9 40.6 0 0 1 1062.0 -40.0 A 31.9 40.6 0 0 1 1004.0 -40.0 Z" fill="#1a1a1a" stroke="#f4f0e8" stroke-width="0.7" opacity="0.28"/>
<path d="M 1062.0 -40.0 A 31.9 40.6 0 0 1 1120.0 -40.0 A 31.9 40.6 0 0 1 1062.0 -40.0 Z" fill="#1a1a1a" stroke="#f4f0e8" stroke-width="0.7" opacity="0.28"/>
<path d="M 1120.0 -40.0 A 31.9 40.6 0 0 1 1178.0 -40.0 A 31.9 40.6 0 0 1 1120.0 -40.0 Z" fill="#1a1a1a" stroke="#f4f0e8" stroke-width="0.7" opacity="0.28"/>
<path d="M 1178.0 -40.0 A 31.9 40.6 0 0 1 1236.0 -40.0 A 31.9 40.6 0 0 1 1178.0 -40.0 Z" fill="#1a1a1a" stroke="#f4f0e8" stroke-width="0.7" opacity="0.28"/>
<path d="M -11.0 -2.3 A 31.9 40.6 0 0 1 47.0 -2.3 A 31.9 40.6 0 0 1 -11.0 -2.3 Z" fill="#1a1a1a" stroke="#f4f0e8" stroke-width="0.7" opacity="0.28"/>
<path d="M 47.0 -2.3 A 31.9 40.6 0 0 1 105.0 -2.3 A 31.9 40.6 0 0 1 47.0 -2.3 Z" fill="#1a1a1a" stroke="#f4f0e8" stroke-width="0.7" opacity="0.28"/>
<path d="M 105.0 -2.3 A 31.9 40.6 0 0 1 163.0 -2.3 A 31.9 40.6 0 0 1 105.0 -2.3 Z" fill="#1a1a1a" stroke="#f4f0e8" stroke-width="0.7" opacity="0.28"/>
<path d="M 163.0 -2.3 A 31.9 40.6 0 0 1 221.0 -2.3 A 31.9 40.6 0 0 1 163.0 -2.3 Z" fill="#1a1a1a" stroke="#f4f0e8" stroke-width="0.7" opacity="0.28"/>
<path d="M 221.0 -2.3 A 31.9 40.6 0 0 1 279.0 -2.3 A 31.9 40.6 0 0 1 221.0 -2.3 Z" fill="#1a1a1a" stroke="#f4f0e8" stroke-width="0.7" opacity="0.28"/>
<path d="M 279.0 -2.3 A 31.9 40.6 0 0 1 337.0 -2.3 A 31.9 40.6 0 0 1 279.0 -2.3 Z" fill="#1a1a1a" stroke="#f4f0e8" stroke-width="0.7" opacity="0.28"/>
<path d="M 337.0 -2.3 A 31.9 40.6 0 0 1 395.0 -2.3 A 31.9 40.6 0 0 1 337.0 -2.3 Z" fill="#1a1a1a" stroke="#f4f0e8" stroke-width="0.7" opacity="0.28"/>
<path d="M 395.0 -2.3 A 31.9 40.6 0 0 1 453.0 -2.3 A 31.9 40.6 0 0 1 395.0 -2.3 Z" fill="#1a1a1a" stroke="#f4f0e8" stroke-width="0.7" opacity="0.28"/>
<path d="M 453.0 -2.3 A 31.9 40.6 0 0 1 511.0 -2.3 A 31.9 40.6 0 0 1 453.0 -2.3 Z" fill="#1a1a1a" stroke="#f4f0e8" stroke-width="0.7" opacity="0.28"/>
<path d="M 511.0 -2.3 A 31.9 40.6 0 0 1 569.0 -2.3 A 31.9 40.6 0 0 1 511.0 -2.3 Z" fill="#1a1a1a" stroke="#f4f0e8" stroke-width="0.7" opacity="0.28"/>
<path d="M 569.0 -2.3 A 31.9 40.6 0 0 1 627.0 -2.3 A 31.9 40.6 0 0 1 569.0 -2.3 Z" fill="#1a1a1a" stroke="#f4f0e8" stroke-width="0.7" opacity="0.28"/>
<path d="M 627.0 -2.3 A 31.9 40.6 0 0 1 685.0 -2.3 A 31.9 40.6 0 0 1 627.0 -2.3 Z" fill="#1a1a1a" stroke="#f4f0e8" stroke-width="0.7" opacity="0.28"/>
<path d="M 685.0 -2.3 A 31.9 40.6 0 0 1 743.0 -2.3 A 31.9 40.6 0 0 1 685.0 -2.3 Z" fill="#1a1a1a" stroke="#f4f0e8" stroke-width="0.7" opacity="0.28"/>
<path d="M 743.0 -2.3 A 31.9 40.6 0 0 1 801.0 -2.3 A 31.9 40.6 0 0 1 743.0 -2.3 Z" fill="#1a1a1a" stroke="#f4f0e8" stroke-width="0.7" opacity="0.28"/>
<path d="M 801.0 -2.3 A 31.9 40.6 0 0 1 859.0 -2.3 A 31.9 40.6 0 0 1 801.0 -2.3 Z" fill="#1a1a1a" stroke="#f4f0e8" stroke-width="0.7" opacity="0.28"/>
<path d="M 859.0 -2.3 A 31.9 40.6 0 0 1 917.0 -2.3 A 31.9 40.6 0 0 1 859.0 -2.3 Z" fill="#1a1a1a" stroke="#f4f0e8" stroke-width="0.7" opacity="0.28"/>
<path d="M 917.0 -2.3 A 31.9 40.6 0 0 1 975.0 -2.3 A 31.9 40.6 0 0 1 917.0 -2.3 Z" fill="#1a1a1a" stroke="#f4f0e8" stroke-width="0.7" opacity="0.28"/>
<path d="M 975.0 -2.3 A 31.9 40.6 0 0 1 1033.0 -2.3 A 31.9 40.6 0 0 1 975.0 -2.3 Z" fill="#1a1a1a" stroke="#f4f0e8" stroke-width="0.7" opacity="0.28"/>
<path d="M 1033.0 -2.3 A 31.9 40.6 0 0 1 1091.0 -2.3 A 31.9 40.6 0 0 1 1033.0 -2.3 Z" fill="#1a1a1a" stroke="#f4f0e8" stroke-width="0.7" opacity="0.28"/>
<path d="M 1091.0 -2.3 A 31.9 40.6 0 0 1 1149.0 -2.3 A 31.9 40.6 0 0 1 1091.0 -2.3 Z" fill="#1a1a1a" stroke="#f4f0e8" stroke-width="0.7" opacity="0.28"/>
<path d="M 1149.0 -2.3 A 31.9 40.6 0 0 1 1207.0 -2.3 A 31.9 40.6 0 0 1 1149.0 -2.3 Z" fill="#1a1a1a" stroke="#f4f0e8" stroke-width="0.7" opacity="0.28"/>
<path d="M 1207.0 -2.3 A 31.9 40.6 0 0 1 1265.0 -2.3 A 31.9 40.6 0 0 1 1207.0 -2.3 Z" fill="#1a1a1a" stroke="#f4f0e8" stroke-width="0.7" opacity="0.28"/>
<path d="M -40.0 35.4 A 31.9 40.6 0 0 1 18.0 35.4 A 31.9 40.6 0 0 1 -40.0 35.4 Z" fill="#1a1a1a" stroke="#f4f0e8" stroke-width="0.7" opacity="0.28"/>
<path d="M 18.0 35.4 A 31.9 40.6 0 0 1 76.0 35.4 A 31.9 40.6 0 0 1 18.0 35.4 Z" fill="#1a1a1a" stroke="#f4f0e8" stroke-width="0.7" opacity="0.28"/>
<path d="M 76.0 35.4 A 31.9 40.6 0 0 1 134.0 35.4 A 31.9 40.6 0 0 1 76.0 35.4 Z" fill="#1a1a1a" stroke="#f4f0e8" stroke-width="0.7" opacity="0.28"/>
<path d="M 134.0 35.4 A 31.9 40.6 0 0 1 192.0 35.4 A 31.9 40.6 0 0 1 134.0 35.4 Z" fill="#1a1a1a" stroke="#f4f0e8" stroke-width="0.7" opacity="0.28"/>
<path d="M 192.0 35.4 A 31.9 40.6 0 0 1 250.0 35.4 A 31.9 40.6 0 0 1 192.0 35.4 Z" fill="#1a1a1a" stroke="#f4f0e8" stroke-width="0.7" opacity="0.28"/>
<path d="M 250.0 35.4 A 31.9 40.6 0 0 1 308.0 35.4 A 31.9 40.6 0 0 1 250.0 35.4 Z" fill="#1a1a1a" stroke="#f4f0e8" stroke-width="0.7" opacity="0.28"/>
<path d="M 308.0 35.4 A 31.9 40.6 0 0 1 366.0 35.4 A 31.9 40.6 0 0 1 308.0 35.4 Z" fill="#1a1a1a" stroke="#f4f0e8" stroke-width="0.7" opacity="0.28"/>
<path d="M 366.0 35.4 A 31.9 40.6 0 0 1 424.0 35.4 A 31.9 40.6 0 0 1 366.0 35.4 Z" fill="#1a1a1a" stroke="#f4f0e8" stroke-width="0.7" opacity="0.28"/>
<path d="M 424.0 35.4 A 31.9 40.6 0 0 1 482.0 35.4 A 31.9 40.6 0 0 1 424.0 35.4 Z" fill="#1a1a1a" stroke="#f4f0e8" stroke-width="0.7" opacity="0.28"/>
<path d="M 482.0 35.4 A 31.9 40.6 0 0 1 540.0 35.4 A 31.9 40.6 0 0 1 482.0 35.4 Z" fill="#1a1a1a" stroke="#f4f0e8" stroke-width="0.7" opacity="0.28"/>
<path d="M 540.0 35.4 A 31.9 40.6 0 0 1 598.0 35.4 A 31.9 40.6 0 0 1 540.0 35.4 Z" fill="#1a1a1a" stroke="#f4f0e8" stroke-width="0.7" opacity="0.28"/>
<path d="M 598.0 35.4 A 31.9 40.6 0 0 1 656.0 35.4 A 31.9 40.6 0 0 1 598.0 35.4 Z" fill="#1a1a1a" stroke="#f4f0e8" stroke-width="0.7" opacity="0.28"/>
<path d="M 656.0 35.4 A 31.9 40.6 0 0 1 714.0 35.4 A 31.9 40.6 0 0 1 656.0 35.4 Z" fill="#1a1a1a" stroke="#f4f0e8" stroke-width="0.7" opacity="0.28"/>
<path d="M 714.0 35.4 A 31.9 40.6 0 0 1 772.0 35.4 A 31.9 40.6 0 0 1 714.0 35.4 Z" fill="#1a1a1a" stroke="#f4f0e8" stroke-width="0.7" opacity="0.28"/>
<path d="M 772.0 35.4 A 31.9 40.6 0 0 1 830.0 35.4 A 31.9 40.6 0 0 1 772.0 35.4 Z" fill="#1a1a1a" stroke="#f4f0e8" stroke-width="0.7" opacity="0.28"/>
<path d="M 830.0 35.4 A 31.9 40.6 0 0 1 888.0 35.4 A 31.9 40.6 0 0 1 830.0 35.4 Z" fill="#1a1a1a" stroke="#f4f0e8" stroke-width="0.7" opacity="0.28"/>
<path d="M 888.0 35.4 A 31.9 40.6 0 0 1 946.0 35.4 A 31.9 40.6 0 0 1 888.0 35.4 Z" fill="#1a1a1a" stroke="#f4f0e8" stroke-width="0.7" opacity="0.28"/>
<path d="M 946.0 35.4 A 31.9 40.6 0 0 1 1004.0 35.4 A 31.9 40.6 0 0 1 946.0 35.4 Z" fill="#1a1a1a" stroke="#f4f0e8" stroke-width="0.7" opacity="0.28"/>
<path d="M 1004.0 35.4 A 31.9 40.6 0 0 1 1062.0 35.4 A 31.9 40.6 0 0 1 1004.0 35.4 Z" fill="#1a1a1a" stroke="#f4f0e8" stroke-width="0.7" opacity="0.28"/>
<path d="M 1062.0 35.4 A 31.9 40.6 0 0 1 1120.0 35.4 A 31.9 40.6 0 0 1 1062.0 35.4 Z" fill="#1a1a1a" stroke="#f4f0e8" stroke-width="0.7" opacity="0.28"/>
<path d="M 1120.0 35.4 A 31.9 40.6 0 0 1 1178.0 35.4 A 31.9 40.6 0 0 1 1120.0 35.4 Z" fill="#1a1a1a" stroke="#f4f0e8" stroke-width="0.7" opacity="0.28"/>
<path d="M 1178.0 35.4 A 31.9 40.6 0 0 1 1236.0 35.4 A 31.9 40.6 0 0 1 1178.0 35.4 Z" fill="#1a1a1a" stroke="#f4f0e8" stroke-width="0.7" opacity="0.28"/>
<path d="M -11.0 73.1 A 31.9 40.6 0 0 1 47.0 73.1 A 31.9 40.6 0 0 1 -11.0 73.1 Z" fill="#1a1a1a" stroke="#f4f0e8" stroke-width="0.7" opacity="0.28"/>
<path d="M 47.0 73.1 A 31.9 40.6 0 0 1 105.0 73.1 A 31.9 40.6 0 0 1 47.0 73.1 Z" fill="#1a1a1a" stroke="#f4f0e8" stroke-width="0.7" opacity="0.28"/>
<path d="M 105.0 73.1 A 31.9 40.6 0 0 1 163.0 73.1 A 31.9 40.6 0 0 1 105.0 73.1 Z" fill="#1a1a1a" stroke="#f4f0e8" stroke-width="0.7" opacity="0.28"/>
<path d="M 163.0 73.1 A 31.9 40.6 0 0 1 221.0 73.1 A 31.9 40.6 0 0 1 163.0 73.1 Z" fill="#1a1a1a" stroke="#f4f0e8" stroke-width="0.7" opacity="0.28"/>
<path d="M 221.0 73.1 A 31.9 40.6 0 0 1 279.0 73.1 A 31.9 40.6 0 0 1 221.0 73.1 Z" fill="#1a1a1a" stroke="#f4f0e8" stroke-width="0.7" opacity="0.28"/>
<path d="M 279.0 73.1 A 31.9 40.6 0 0 1 337.0 73.1 A 31.9 40.6 0 0 1 279.0 73.1 Z" fill="#1a1a1a" stroke="#f4f0e8" stroke-width="0.7" opacity="0.28"/>
<path d="M 337.0 73.1 A 31.9 40.6 0 0 1 395.0 73.1 A 31.9 40.6 0 0 1 337.0 73.1 Z" fill="#1a1a1a" stroke="#f4f0e8" stroke-width="0.7" opacity="0.28"/>
<path d="M 395.0 73.1 A 31.9 40.6 0 0 1 453.0 73.1 A 31.9 40.6 0 0 1 395.0 73.1 Z" fill="#1a1a1a" stroke="#f4f0e8" stroke-width="0.7" opacity="0.28"/>
<path d="M 453.0 73.1 A 31.9 40.6 0 0 1 511.0 73.1 A 31.9 40.6 0 0 1 453.0 73.1 Z" fill="#1a1a1a" stroke="#f4f0e8" stroke-width="0.7" opacity="0.28"/>
<path d="M 511.0 73.1 A 31.9 40.6 0 0 1 569.0 73.1 A 31.9 40.6 0 0 1 511.0 73.1 Z" fill="#1a1a1a" stroke="#f4f0e8" stroke-width="0.7" opacity="0.28"/>
<path d="M 569.0 73.1 A 31.9 40.6 0 0 1 627.0 73.1 A 31.9 40.6 0 0 1 569.0 73.1 Z" fill="#1a1a1a" stroke="#f4f0e8" stroke-width="0.7" opacity="0.28"/>
<path d="M 627.0 73.1 A 31.9 40.6 0 0 1 685.0 73.1 A 31.9 40.6 0 0 1 627.0 73.1 Z" fill="#1a1a1a" stroke="#f4f0e8" stroke-width="0.7" opacity="0.28"/>
<path d="M 685.0 73.1 A 31.9 40.6 0 0 1 743.0 73.1 A 31.9 40.6 0 0 1 685.0 73.1 Z" fill="#1a1a1a" stroke="#f4f0e8" stroke-width="0.7" opacity="0.28"/>
<path d="M 743.0 73.1 A 31.9 40.6 0 0 1 801.0 73.1 A 31.9 40.6 0 0 1 743.0 73.1 Z" fill="#1a1a1a" stroke="#f4f0e8" stroke-width="0.7" opacity="0.28"/>
<path d="M 801.0 73.1 A 31.9 40.6 0 0 1 859.0 73.1 A 31.9 40.6 0 0 1 801.0 73.1 Z" fill="#1a1a1a" stroke="#f4f0e8" stroke-width="0.7" opacity="0.28"/>
<path d="M 859.0 73.1 A 31.9 40.6 0 0 1 917.0 73.1 A 31.9 40.6 0 0 1 859.0 73.1 Z" fill="#1a1a1a" stroke="#f4f0e8" stroke-width="0.7" opacity="0.28"/>
<path d="M 917.0 73.1 A 31.9 40.6 0 0 1 975.0 73.1 A 31.9 40.6 0 0 1 917.0 73.1 Z" fill="#1a1a1a" stroke="#f4f0e8" stroke-width="0.7" opacity="0.28"/>
<path d="M 975.0 73.1 A 31.9 40.6 0 0 1 1033.0 73.1 A 31.9 40.6 0 0 1 975.0 73.1 Z" fill="#1a1a1a" stroke="#f4f0e8" stroke-width="0.7" opacity="0.28"/>
<path d="M 1033.0 73.1 A 31.9 40.6 0 0 1 1091.0 73.1 A 31.9 40.6 0 0 1 1033.0 73.1 Z" fill="#1a1a1a" stroke="#f4f0e8" stroke-width="0.7" opacity="0.28"/>
<path d="M 1091.0 73.1 A 31.9 40.6 0 0 1 1149.0 73.1 A 31.9 40.6 0 0 1 1091.0 73.1 Z" fill="#1a1a1a" stroke="#f4f0e8" stroke-width="0.7" opacity="0.28"/>
<path d="M 1149.0 73.1 A 31.9 40.6 0 0 1 1207.0 73.1 A 31.9 40.6 0 0 1 1149.0 73.1 Z" fill="#1a1a1a" stroke="#f4f0e8" stroke-width="0.7" opacity="0.28"/>
<path d="M 1207.0 73.1 A 31.9 40.6 0 0 1 1265.0 73.1 A 31.9 40.6 0 0 1 1207.0 73.1 Z" fill="#1a1a1a" stroke="#f4f0e8" stroke-width="0.7" opacity="0.28"/>
<path d="M -40.0 110.8 A 31.9 40.6 0 0 1 18.0 110.8 A 31.9 40.6 0 0 1 -40.0 110.8 Z" fill="#1a1a1a" stroke="#f4f0e8" stroke-width="0.7" opacity="0.28"/>
<path d="M 18.0 110.8 A 31.9 40.6 0 0 1 76.0 110.8 A 31.9 40.6 0 0 1 18.0 110.8 Z" fill="#1a1a1a" stroke="#f4f0e8" stroke-width="0.7" opacity="0.28"/>
<path d="M 76.0 110.8 A 31.9 40.6 0 0 1 134.0 110.8 A 31.9 40.6 0 0 1 76.0 110.8 Z" fill="#1a1a1a" stroke="#f4f0e8" stroke-width="0.7" opacity="0.28"/>
<path d="M 134.0 110.8 A 31.9 40.6 0 0 1 192.0 110.8 A 31.9 40.6 0 0 1 134.0 110.8 Z" fill="#1a1a1a" stroke="#f4f0e8" stroke-width="0.7" opacity="0.28"/>
<path d="M 192.0 110.8 A 31.9 40.6 0 0 1 250.0 110.8 A 31.9 40.6 0 0 1 192.0 110.8 Z" fill="#1a1a1a" stroke="#f4f0e8" stroke-width="0.7" opacity="0.28"/>
<path d="M 250.0 110.8 A 31.9 40.6 0 0 1 308.0 110.8 A 31.9 40.6 0 0 1 250.0 110.8 Z" fill="#1a1a1a" stroke="#f4f0e8" stroke-width="0.7" opacity="0.28"/>
<path d="M 308.0 110.8 A 31.9 40.6 0 0 1 366.0 110.8 A 31.9 40.6 0 0 1 308.0 110.8 Z" fill="#1a1a1a" stroke="#f4f0e8" stroke-width="0.7" opacity="0.28"/>
<path d="M 366.0 110.8 A 31.9 40.6 0 0 1 424.0 110.8 A 31.9 40.6 0 0 1 366.0 110.8 Z" fill="#1a1a1a" stroke="#f4f0e8" stroke-width="0.7" opacity="0.28"/>
<path d="M 424.0 110.8 A 31.9 40.6 0 0 1 482.0 110.8 A 31.9 40.6 0 0 1 424.0 110.8 Z" fill="#1a1a1a" stroke="#f4f0e8" stroke-width="0.7" opacity="0.28"/>
<path d="M 482.0 110.8 A 31.9 40.6 0 0 1 540.0 110.8 A 31.9 40.6 0 0 1 482.0 110.8 Z" fill="#1a1a1a" stroke="#f4f0e8" stroke-width="0.7" opacity="0.28"/>
<path d="M 540.0 110.8 A 31.9 40.6 0 0 1 598.0 110.8 A 31.9 40.6 0 0 1 540.0 110.8 Z" fill="#1a1a1a" stroke="#f4f0e8" stroke-width="0.7" opacity="0.28"/>
<path d="M 598.0 110.8 A 31.9 40.6 0 0 1 656.0 110.8 A 31.9 40.6 0 0 1 598.0 110.8 Z" fill="#1a1a1a" stroke="#f4f0e8" stroke-width="0.7" opacity="0.28"/>
<path d="M 656.0 110.8 A 31.9 40.6 0 0 1 714.0 110.8 A 31.9 40.6 0 0 1 656.0 110.8 Z" fill="#1a1a1a" stroke="#f4f0e8" stroke-width="0.7" opacity="0.28"/>
<path d="M 714.0 110.8 A 31.9 40.6 0 0 1 772.0 110.8 A 31.9 40.6 0 0 1 714.0 110.8 Z" fill="#1a1a1a" stroke="#f4f0e8" stroke-width="0.7" opacity="0.28"/>
<path d="M 772.0 110.8 A 31.9 40.6 0 0 1 830.0 110.8 A 31.9 40.6 0 0 1 772.0 110.8 Z" fill="#1a1a1a" stroke="#f4f0e8" stroke-width="0.7" opacity="0.28"/>
<path d="M 830.0 110.8 A 31.9 40.6 0 0 1 888.0 110.8 A 31.9 40.6 0 0 1 830.0 110.8 Z" fill="#1a1a1a" stroke="#f4f0e8" stroke-width="0.7" opacity="0.28"/>
<path d="M 888.0 110.8 A 31.9 40.6 0 0 1 946.0 110.8 A 31.9 40.6 0 0 1 888.0 110.8 Z" fill="#1a1a1a" stroke="#f4f0e8" stroke-width="0.7" opacity="0.28"/>
<path d="M 946.0 110.8 A 31.9 40.6 0 0 1 1004.0 110.8 A 31.9 40.6 0 0 1 946.0 110.8 Z" fill="#1a1a1a" stroke="#f4f0e8" stroke-width="0.7" opacity="0.28"/>
<path d="M 1004.0 110.8 A 31.9 40.6 0 0 1 1062.0 110.8 A 31.9 40.6 0 0 1 1004.0 110.8 Z" fill="#1a1a1a" stroke="#f4f0e8" stroke-width="0.7" opacity="0.28"/>
<path d="M 1062.0 110.8 A 31.9 40.6 0 0 1 1120.0 110.8 A 31.9 40.6 0 0 1 1062.0 110.8 Z" fill="#1a1a1a" stroke="#f4f0e8" stroke-width="0.7" opacity="0.28"/>
<path d="M 1120.0 110.8 A 31.9 40.6 0 0 1 1178.0 110.8 A 31.9 40.6 0 0 1 1120.0 110.8 Z" fill="#1a1a1a" stroke="#f4f0e8" stroke-width="0.7" opacity="0.28"/>
<path d="M 1178.0 110.8 A 31.9 40.6 0 0 1 1236.0 110.8 A 31.9 40.6 0 0 1 1178.0 110.8 Z" fill="#1a1a1a" stroke="#f4f0e8" stroke-width="0.7" opacity="0.28"/>
<path d="M -11.0 148.5 A 31.9 40.6 0 0 1 47.0 148.5 A 31.9 40.6 0 0 1 -11.0 148.5 Z" fill="#1a1a1a" stroke="#f4f0e8" stroke-width="0.7" opacity="0.28"/>
<path d="M 47.0 148.5 A 31.9 40.6 0 0 1 105.0 148.5 A 31.9 40.6 0 0 1 47.0 148.5 Z" fill="#1a1a1a" stroke="#f4f0e8" stroke-width="0.7" opacity="0.28"/>
<path d="M 105.0 148.5 A 31.9 40.6 0 0 1 163.0 148.5 A 31.9 40.6 0 0 1 105.0 148.5 Z" fill="#1a1a1a" stroke="#f4f0e8" stroke-width="0.7" opacity="0.28"/>
<path d="M 163.0 148.5 A 31.9 40.6 0 0 1 221.0 148.5 A 31.9 40.6 0 0 1 163.0 148.5 Z" fill="#1a1a1a" stroke="#f4f0e8" stroke-width="0.7" opacity="0.28"/>
<path d="M 221.0 148.5 A 31.9 40.6 0 0 1 279.0 148.5 A 31.9 40.6 0 0 1 221.0 148.5 Z" fill="#1a1a1a" stroke="#f4f0e8" stroke-width="0.7" opacity="0.28"/>
<path d="M 279.0 148.5 A 31.9 40.6 0 0 1 337.0 148.5 A 31.9 40.6 0 0 1 279.0 148.5 Z" fill="#1a1a1a" stroke="#f4f0e8" stroke-width="0.7" opacity="0.28"/>
<path d="M 337.0 148.5 A 31.9 40.6 0 0 1 395.0 148.5 A 31.9 40.6 0 0 1 337.0 148.5 Z" fill="#1a1a1a" stroke="#f4f0e8" stroke-width="0.7" opacity="0.28"/>
<path d="M 395.0 148.5 A 31.9 40.6 0 0 1 453.0 148.5 A 31.9 40.6 0 0 1 395.0 148.5 Z" fill="#1a1a1a" stroke="#f4f0e8" stroke-width="0.7" opacity="0.28"/>
<path d="M 453.0 148.5 A 31.9 40.6 0 0 1 511.0 148.5 A 31.9 40.6 0 0 1 453.0 148.5 Z" fill="#1a1a1a" stroke="#f4f0e8" stroke-width="0.7" opacity="0.28"/>
<path d="M 511.0 148.5 A 31.9 40.6 0 0 1 569.0 148.5 A 31.9 40.6 0 0 1 511.0 148.5 Z" fill="#1a1a1a" stroke="#f4f0e8" stroke-width="0.7" opacity="0.28"/>
<path d="M 569.0 148.5 A 31.9 40.6 0 0 1 627.0 148.5 A 31.9 40.6 0 0 1 569.0 148.5 Z" fill="#1a1a1a" stroke="#f4f0e8" stroke-width="0.7" opacity="0.28"/>
<path d="M 627.0 148.5 A 31.9 40.6 0 0 1 685.0 148.5 A 31.9 40.6 0 0 1 627.0 148.5 Z" fill="#1a1a1a" stroke="#f4f0e8" stroke-width="0.7" opacity="0.28"/>
<path d="M 685.0 148.5 A 31.9 40.6 0 0 1 743.0 148.5 A 31.9 40.6 0 0 1 685.0 148.5 Z" fill="#1a1a1a" stroke="#f4f0e8" stroke-width="0.7" opacity="0.28"/>
<path d="M 743.0 148.5 A 31.9 40.6 0 0 1 801.0 148.5 A 31.9 40.6 0 0 1 743.0 148.5 Z" fill="#1a1a1a" stroke="#f4f0e8" stroke-width="0.7" opacity="0.28"/>
<path d="M 801.0 148.5 A 31.9 40.6 0 0 1 859.0 148.5 A 31.9 40.6 0 0 1 801.0 148.5 Z" fill="#1a1a1a" stroke="#f4f0e8" stroke-width="0.7" opacity="0.28"/>
<path d="M 859.0 148.5 A 31.9 40.6 0 0 1 917.0 148.5 A 31.9 40.6 0 0 1 859.0 148.5 Z" fill="#1a1a1a" stroke="#f4f0e8" stroke-width="0.7" opacity="0.28"/>
<path d="M 917.0 148.5 A 31.9 40.6 0 0 1 975.0 148.5 A 31.9 40.6 0 0 1 917.0 148.5 Z" fill="#1a1a1a" stroke="#f4f0e8" stroke-width="0.7" opacity="0.28"/>
<path d="M 975.0 148.5 A 31.9 40.6 0 0 1 1033.0 148.5 A 31.9 40.6 0 0 1 975.0 148.5 Z" fill="#1a1a1a" stroke="#f4f0e8" stroke-width="0.7" opacity="0.28"/>
<path d="M 1033.0 148.5 A 31.9 40.6 0 0 1 1091.0 148.5 A 31.9 40.6 0 0 1 1033.0 148.5 Z" fill="#1a1a1a" stroke="#f4f0e8" stroke-width="0.7" opacity="0.28"/>
<path d="M 1091.0 148.5 A 31.9 40.6 0 0 1 1149.0 148.5 A 31.9 40.6 0 0 1 1091.0 148.5 Z" fill="#1a1a1a" stroke="#f4f0e8" stroke-width="0.7" opacity="0.28"/>
<path d="M 1149.0 148.5 A 31.9 40.6 0 0 1 1207.0 148.5 A 31.9 40.6 0 0 1 1149.0 148.5 Z" fill="#1a1a1a" stroke="#f4f0e8" stroke-width="0.7" opacity="0.28"/>
<path d="M 1207.0 148.5 A 31.9 40.6 0 0 1 1265.0 148.5 A 31.9 40.6 0 0 1 1207.0 148.5 Z" fill="#1a1a1a" stroke="#f4f0e8" stroke-width="0.7" opacity="0.28"/>
<path d="M -40.0 186.2 A 31.9 40.6 0 0 1 18.0 186.2 A 31.9 40.6 0 0 1 -40.0 186.2 Z" fill="#1a1a1a" stroke="#f4f0e8" stroke-width="0.7" opacity="0.28"/>
<path d="M 18.0 186.2 A 31.9 40.6 0 0 1 76.0 186.2 A 31.9 40.6 0 0 1 18.0 186.2 Z" fill="#1a1a1a" stroke="#f4f0e8" stroke-width="0.7" opacity="0.28"/>
<path d="M 76.0 186.2 A 31.9 40.6 0 0 1 134.0 186.2 A 31.9 40.6 0 0 1 76.0 186.2 Z" fill="#1a1a1a" stroke="#f4f0e8" stroke-width="0.7" opacity="0.28"/>
<path d="M 134.0 186.2 A 31.9 40.6 0 0 1 192.0 186.2 A 31.9 40.6 0 0 1 134.0 186.2 Z" fill="#1a1a1a" stroke="#f4f0e8" stroke-width="0.7" opacity="0.28"/>
<path d="M 192.0 186.2 A 31.9 40.6 0 0 1 250.0 186.2 A 31.9 40.6 0 0 1 192.0 186.2 Z" fill="#1a1a1a" stroke="#f4f0e8" stroke-width="0.7" opacity="0.28"/>
<path d="M 250.0 186.2 A 31.9 40.6 0 0 1 308.0 186.2 A 31.9 40.6 0 0 1 250.0 186.2 Z" fill="#1a1a1a" stroke="#f4f0e8" stroke-width="0.7" opacity="0.28"/>
<path d="M 308.0 186.2 A 31.9 40.6 0 0 1 366.0 186.2 A 31.9 40.6 0 0 1 308.0 186.2 Z" fill="#1a1a1a" stroke="#f4f0e8" stroke-width="0.7" opacity="0.28"/>
<path d="M 366.0 186.2 A 31.9 40.6 0 0 1 424.0 186.2 A 31.9 40.6 0 0 1 366.0 186.2 Z" fill="#1a1a1a" stroke="#f4f0e8" stroke-width="0.7" opacity="0.28"/>
<path d="M 424.0 186.2 A 31.9 40.6 0 0 1 482.0 186.2 A 31.9 40.6 0 0 1 424.0 186.2 Z" fill="#1a1a1a" stroke="#f4f0e8" stroke-width="0.7" opacity="0.28"/>
<path d="M 482.0 186.2 A 31.9 40.6 0 0 1 540.0 186.2 A 31.9 40.6 0 0 1 482.0 186.2 Z" fill="#1a1a1a" stroke="#f4f0e8" stroke-width="0.7" opacity="0.28"/>
<path d="M 540.0 186.2 A 31.9 40.6 0 0 1 598.0 186.2 A 31.9 40.6 0 0 1 540.0 186.2 Z" fill="#1a1a1a" stroke="#f4f0e8" stroke-width="0.7" opacity="0.28"/>
<path d="M 598.0 186.2 A 31.9 40.6 0 0 1 656.0 186.2 A 31.9 40.6 0 0 1 598.0 186.2 Z" fill="#1a1a1a" stroke="#f4f0e8" stroke-width="0.7" opacity="0.28"/>
<path d="M 656.0 186.2 A 31.9 40.6 0 0 1 714.0 186.2 A 31.9 40.6 0 0 1 656.0 186.2 Z" fill="#1a1a1a" stroke="#f4f0e8" stroke-width="0.7" opacity="0.28"/>
<path d="M 714.0 186.2 A 31.9 40.6 0 0 1 772.0 186.2 A 31.9 40.6 0 0 1 714.0 186.2 Z" fill="#1a1a1a" stroke="#f4f0e8" stroke-width="0.7" opacity="0.28"/>
<path d="M 772.0 186.2 A 31.9 40.6 0 0 1 830.0 186.2 A 31.9 40.6 0 0 1 772.0 186.2 Z" fill="#1a1a1a" stroke="#f4f0e8" stroke-width="0.7" opacity="0.28"/>
<path d="M 830.0 186.2 A 31.9 40.6 0 0 1 888.0 186.2 A 31.9 40.6 0 0 1 830.0 186.2 Z" fill="#1a1a1a" stroke="#f4f0e8" stroke-width="0.7" opacity="0.28"/>
<path d="M 888.0 186.2 A 31.9 40.6 0 0 1 946.0 186.2 A 31.9 40.6 0 0 1 888.0 186.2 Z" fill="#1a1a1a" stroke="#f4f0e8" stroke-width="0.7" opacity="0.28"/>
<path d="M 946.0 186.2 A 31.9 40.6 0 0 1 1004.0 186.2 A 31.9 40.6 0 0 1 946.0 186.2 Z" fill="#1a1a1a" stroke="#f4f0e8" stroke-width="0.7" opacity="0.28"/>
<path d="M 1004.0 186.2 A 31.9 40.6 0 0 1 1062.0 186.2 A 31.9 40.6 0 0 1 1004.0 186.2 Z" fill="#1a1a1a" stroke="#f4f0e8" stroke-width="0.7" opacity="0.28"/>
<path d="M 1062.0 186.2 A 31.9 40.6 0 0 1 1120.0 186.2 A 31.9 40.6 0 0 1 1062.0 186.2 Z" fill="#1a1a1a" stroke="#f4f0e8" stroke-width="0.7" opacity="0.28"/>
<path d="M 1120.0 186.2 A 31.9 40.6 0 0 1 1178.0 186.2 A 31.9 40.6 0 0 1 1120.0 186.2 Z" fill="#1a1a1a" stroke="#f4f0e8" stroke-width="0.7" opacity="0.28"/>
<path d="M 1178.0 186.2 A 31.9 40.6 0 0 1 1236.0 186.2 A 31.9 40.6 0 0 1 1178.0 186.2 Z" fill="#1a1a1a" stroke="#f4f0e8" stroke-width="0.7" opacity="0.28"/>
<path d="M -11.0 223.9 A 31.9 40.6 0 0 1 47.0 223.9 A 31.9 40.6 0 0 1 -11.0 223.9 Z" fill="#1a1a1a" stroke="#f4f0e8" stroke-width="0.7" opacity="0.28"/>
<path d="M 47.0 223.9 A 31.9 40.6 0 0 1 105.0 223.9 A 31.9 40.6 0 0 1 47.0 223.9 Z" fill="#1a1a1a" stroke="#f4f0e8" stroke-width="0.7" opacity="0.28"/>
<path d="M 105.0 223.9 A 31.9 40.6 0 0 1 163.0 223.9 A 31.9 40.6 0 0 1 105.0 223.9 Z" fill="#1a1a1a" stroke="#f4f0e8" stroke-width="0.7" opacity="0.28"/>
<path d="M 163.0 223.9 A 31.9 40.6 0 0 1 221.0 223.9 A 31.9 40.6 0 0 1 163.0 223.9 Z" fill="#1a1a1a" stroke="#f4f0e8" stroke-width="0.7" opacity="0.28"/>
<path d="M 221.0 223.9 A 31.9 40.6 0 0 1 279.0 223.9 A 31.9 40.6 0 0 1 221.0 223.9 Z" fill="#1a1a1a" stroke="#f4f0e8" stroke-width="0.7" opacity="0.28"/>
<path d="M 279.0 223.9 A 31.9 40.6 0 0 1 337.0 223.9 A 31.9 40.6 0 0 1 279.0 223.9 Z" fill="#1a1a1a" stroke="#f4f0e8" stroke-width="0.7" opacity="0.28"/>
<path d="M 337.0 223.9 A 31.9 40.6 0 0 1 395.0 223.9 A 31.9 40.6 0 0 1 337.0 223.9 Z" fill="#1a1a1a" stroke="#f4f0e8" stroke-width="0.7" opacity="0.28"/>
<path d="M 395.0 223.9 A 31.9 40.6 0 0 1 453.0 223.9 A 31.9 40.6 0 0 1 395.0 223.9 Z" fill="#1a1a1a" stroke="#f4f0e8" stroke-width="0.7" opacity="0.28"/>
<path d="M 453.0 223.9 A 31.9 40.6 0 0 1 511.0 223.9 A 31.9 40.6 0 0 1 453.0 223.9 Z" fill="#1a1a1a" stroke="#f4f0e8" stroke-width="0.7" opacity="0.28"/>
<path d="M 511.0 223.9 A 31.9 40.6 0 0 1 569.0 223.9 A 31.9 40.6 0 0 1 511.0 223.9 Z" fill="#1a1a1a" stroke="#f4f0e8" stroke-width="0.7" opacity="0.28"/>
<path d="M 569.0 223.9 A 31.9 40.6 0 0 1 627.0 223.9 A 31.9 40.6 0 0 1 569.0 223.9 Z" fill="#1a1a1a" stroke="#f4f0e8" stroke-width="0.7" opacity="0.28"/>
<path d="M 627.0 223.9 A 31.9 40.6 0 0 1 685.0 223.9 A 31.9 40.6 0 0 1 627.0 223.9 Z" fill="#1a1a1a" stroke="#f4f0e8" stroke-width="0.7" opacity="0.28"/>
<path d="M 685.0 223.9 A 31.9 40.6 0 0 1 743.0 223.9 A 31.9 40.6 0 0 1 685.0 223.9 Z" fill="#1a1a1a" stroke="#f4f0e8" stroke-width="0.7" opacity="0.28"/>
<path d="M 743.0 223.9 A 31.9 40.6 0 0 1 801.0 223.9 A 31.9 40.6 0 0 1 743.0 223.9 Z" fill="#1a1a1a" stroke="#f4f0e8" stroke-width="0.7" opacity="0.28"/>
<path d="M 801.0 223.9 A 31.9 40.6 0 0 1 859.0 223.9 A 31.9 40.6 0 0 1 801.0 223.9 Z" fill="#1a1a1a" stroke="#f4f0e8" stroke-width="0.7" opacity="0.28"/>
<path d="M 859.0 223.9 A 31.9 40.6 0 0 1 917.0 223.9 A 31.9 40.6 0 0 1 859.0 223.9 Z" fill="#1a1a1a" stroke="#f4f0e8" stroke-width="0.7" opacity="0.28"/>
<path d="M 917.0 223.9 A 31.9 40.6 0 0 1 975.0 223.9 A 31.9 40.6 0 0 1 917.0 223.9 Z" fill="#1a1a1a" stroke="#f4f0e8" stroke-width="0.7" opacity="0.28"/>
<path d="M 975.0 223.9 A 31.9 40.6 0 0 1 1033.0 223.9 A 31.9 40.6 0 0 1 975.0 223.9 Z" fill="#1a1a1a" stroke="#f4f0e8" stroke-width="0.7" opacity="0.28"/>
<path d="M 1033.0 223.9 A 31.9 40.6 0 0 1 1091.0 223.9 A 31.9 40.6 0 0 1 1033.0 223.9 Z" fill="#1a1a1a" stroke="#f4f0e8" stroke-width="0.7" opacity="0.28"/>
<path d="M 1091.0 223.9 A 31.9 40.6 0 0 1 1149.0 223.9 A 31.9 40.6 0 0 1 1091.0 223.9 Z" fill="#1a1a1a" stroke="#f4f0e8" stroke-width="0.7" opacity="0.28"/>
<path d="M 1149.0 223.9 A 31.9 40.6 0 0 1 1207.0 223.9 A 31.9 40.6 0 0 1 1149.0 223.9 Z" fill="#1a1a1a" stroke="#f4f0e8" stroke-width="0.7" opacity="0.28"/>
<path d="M 1207.0 223.9 A 31.9 40.6 0 0 1 1265.0 223.9 A 31.9 40.6 0 0 1 1207.0 223.9 Z" fill="#1a1a1a" stroke="#f4f0e8" stroke-width="0.7" opacity="0.28"/>
<path d="M -40.0 261.6 A 31.9 40.6 0 0 1 18.0 261.6 A 31.9 40.6 0 0 1 -40.0 261.6 Z" fill="#1a1a1a" stroke="#f4f0e8" stroke-width="0.7" opacity="0.28"/>
<path d="M 18.0 261.6 A 31.9 40.6 0 0 1 76.0 261.6 A 31.9 40.6 0 0 1 18.0 261.6 Z" fill="#1a1a1a" stroke="#f4f0e8" stroke-width="0.7" opacity="0.28"/>
<path d="M 76.0 261.6 A 31.9 40.6 0 0 1 134.0 261.6 A 31.9 40.6 0 0 1 76.0 261.6 Z" fill="#1a1a1a" stroke="#f4f0e8" stroke-width="0.7" opacity="0.28"/>
<path d="M 134.0 261.6 A 31.9 40.6 0 0 1 192.0 261.6 A 31.9 40.6 0 0 1 134.0 261.6 Z" fill="#1a1a1a" stroke="#f4f0e8" stroke-width="0.7" opacity="0.28"/>
<path d="M 192.0 261.6 A 31.9 40.6 0 0 1 250.0 261.6 A 31.9 40.6 0 0 1 192.0 261.6 Z" fill="#1a1a1a" stroke="#f4f0e8" stroke-width="0.7" opacity="0.28"/>
<path d="M 250.0 261.6 A 31.9 40.6 0 0 1 308.0 261.6 A 31.9 40.6 0 0 1 250.0 261.6 Z" fill="#1a1a1a" stroke="#f4f0e8" stroke-width="0.7" opacity="0.28"/>
<path d="M 308.0 261.6 A 31.9 40.6 0 0 1 366.0 261.6 A 31.9 40.6 0 0 1 308.0 261.6 Z" fill="#1a1a1a" stroke="#f4f0e8" stroke-width="0.7" opacity="0.28"/>
<path d="M 366.0 261.6 A 31.9 40.6 0 0 1 424.0 261.6 A 31.9 40.6 0 0 1 366.0 261.6 Z" fill="#1a1a1a" stroke="#f4f0e8" stroke-width="0.7" opacity="0.28"/>
<path d="M 424.0 261.6 A 31.9 40.6 0 0 1 482.0 261.6 A 31.9 40.6 0 0 1 424.0 261.6 Z" fill="#1a1a1a" stroke="#f4f0e8" stroke-width="0.7" opacity="0.28"/>
<path d="M 482.0 261.6 A 31.9 40.6 0 0 1 540.0 261.6 A 31.9 40.6 0 0 1 482.0 261.6 Z" fill="#1a1a1a" stroke="#f4f0e8" stroke-width="0.7" opacity="0.28"/>
<path d="M 540.0 261.6 A 31.9 40.6 0 0 1 598.0 261.6 A 31.9 40.6 0 0 1 540.0 261.6 Z" fill="#1a1a1a" stroke="#f4f0e8" stroke-width="0.7" opacity="0.28"/>
<path d="M 598.0 261.6 A 31.9 40.6 0 0 1 656.0 261.6 A 31.9 40.6 0 0 1 598.0 261.6 Z" fill="#1a1a1a" stroke="#f4f0e8" stroke-width="0.7" opacity="0.28"/>
<path d="M 656.0 261.6 A 31.9 40.6 0 0 1 714.0 261.6 A 31.9 40.6 0 0 1 656.0 261.6 Z" fill="#1a1a1a" stroke="#f4f0e8" stroke-width="0.7" opacity="0.28"/>
<path d="M 714.0 261.6 A 31.9 40.6 0 0 1 772.0 261.6 A 31.9 40.6 0 0 1 714.0 261.6 Z" fill="#1a1a1a" stroke="#f4f0e8" stroke-width="0.7" opacity="0.28"/>
<path d="M 772.0 261.6 A 31.9 40.6 0 0 1 830.0 261.6 A 31.9 40.6 0 0 1 772.0 261.6 Z" fill="#1a1a1a" stroke="#f4f0e8" stroke-width="0.7" opacity="0.28"/>
<path d="M 830.0 261.6 A 31.9 40.6 0 0 1 888.0 261.6 A 31.9 40.6 0 0 1 830.0 261.6 Z" fill="#1a1a1a" stroke="#f4f0e8" stroke-width="0.7" opacity="0.28"/>
<path d="M 888.0 261.6 A 31.9 40.6 0 0 1 946.0 261.6 A 31.9 40.6 0 0 1 888.0 261.6 Z" fill="#1a1a1a" stroke="#f4f0e8" stroke-width="0.7" opacity="0.28"/>
<path d="M 946.0 261.6 A 31.9 40.6 0 0 1 1004.0 261.6 A 31.9 40.6 0 0 1 946.0 261.6 Z" fill="#1a1a1a" stroke="#f4f0e8" stroke-width="0.7" opacity="0.28"/>
<path d="M 1004.0 261.6 A 31.9 40.6 0 0 1 1062.0 261.6 A 31.9 40.6 0 0 1 1004.0 261.6 Z" fill="#1a1a1a" stroke="#f4f0e8" stroke-width="0.7" opacity="0.28"/>
<path d="M 1062.0 261.6 A 31.9 40.6 0 0 1 1120.0 261.6 A 31.9 40.6 0 0 1 1062.0 261.6 Z" fill="#1a1a1a" stroke="#f4f0e8" stroke-width="0.7" opacity="0.28"/>
<path d="M 1120.0 261.6 A 31.9 40.6 0 0 1 1178.0 261.6 A 31.9 40.6 0 0 1 1120.0 261.6 Z" fill="#1a1a1a" stroke="#f4f0e8" stroke-width="0.7" opacity="0.28"/>
<path d="M 1178.0 261.6 A 31.9 40.6 0 0 1 1236.0 261.6 A 31.9 40.6 0 0 1 1178.0 261.6 Z" fill="#1a1a1a" stroke="#f4f0e8" stroke-width="0.7" opacity="0.28"/>
<path d="M -11.0 299.3 A 31.9 40.6 0 0 1 47.0 299.3 A 31.9 40.6 0 0 1 -11.0 299.3 Z" fill="#1a1a1a" stroke="#f4f0e8" stroke-width="0.7" opacity="0.28"/>
<path d="M 47.0 299.3 A 31.9 40.6 0 0 1 105.0 299.3 A 31.9 40.6 0 0 1 47.0 299.3 Z" fill="#1a1a1a" stroke="#f4f0e8" stroke-width="0.7" opacity="0.28"/>
<path d="M 105.0 299.3 A 31.9 40.6 0 0 1 163.0 299.3 A 31.9 40.6 0 0 1 105.0 299.3 Z" fill="#1a1a1a" stroke="#f4f0e8" stroke-width="0.7" opacity="0.28"/>
<path d="M 163.0 299.3 A 31.9 40.6 0 0 1 221.0 299.3 A 31.9 40.6 0 0 1 163.0 299.3 Z" fill="#1a1a1a" stroke="#f4f0e8" stroke-width="0.7" opacity="0.28"/>
<path d="M 221.0 299.3 A 31.9 40.6 0 0 1 279.0 299.3 A 31.9 40.6 0 0 1 221.0 299.3 Z" fill="#1a1a1a" stroke="#f4f0e8" stroke-width="0.7" opacity="0.28"/>
<path d="M 279.0 299.3 A 31.9 40.6 0 0 1 337.0 299.3 A 31.9 40.6 0 0 1 279.0 299.3 Z" fill="#1a1a1a" stroke="#f4f0e8" stroke-width="0.7" opacity="0.28"/>
<path d="M 337.0 299.3 A 31.9 40.6 0 0 1 395.0 299.3 A 31.9 40.6 0 0 1 337.0 299.3 Z" fill="#1a1a1a" stroke="#f4f0e8" stroke-width="0.7" opacity="0.28"/>
<path d="M 395.0 299.3 A 31.9 40.6 0 0 1 453.0 299.3 A 31.9 40.6 0 0 1 395.0 299.3 Z" fill="#1a1a1a" stroke="#f4f0e8" stroke-width="0.7" opacity="0.28"/>
<path d="M 453.0 299.3 A 31.9 40.6 0 0 1 511.0 299.3 A 31.9 40.6 0 0 1 453.0 299.3 Z" fill="#1a1a1a" stroke="#f4f0e8" stroke-width="0.7" opacity="0.28"/>
<path d="M 511.0 299.3 A 31.9 40.6 0 0 1 569.0 299.3 A 31.9 40.6 0 0 1 511.0 299.3 Z" fill="#1a1a1a" stroke="#f4f0e8" stroke-width="0.7" opacity="0.28"/>
<path d="M 569.0 299.3 A 31.9 40.6 0 0 1 627.0 299.3 A 31.9 40.6 0 0 1 569.0 299.3 Z" fill="#1a1a1a" stroke="#f4f0e8" stroke-width="0.7" opacity="0.28"/>
<path d="M 627.0 299.3 A 31.9 40.6 0 0 1 685.0 299.3 A 31.9 40.6 0 0 1 627.0 299.3 Z" fill="#1a1a1a" stroke="#f4f0e8" stroke-width="0.7" opacity="0.28"/>
<path d="M 685.0 299.3 A 31.9 40.6 0 0 1 743.0 299.3 A 31.9 40.6 0 0 1 685.0 299.3 Z" fill="#1a1a1a" stroke="#f4f0e8" stroke-width="0.7" opacity="0.28"/>
<path d="M 743.0 299.3 A 31.9 40.6 0 0 1 801.0 299.3 A 31.9 40.6 0 0 1 743.0 299.3 Z" fill="#1a1a1a" stroke="#f4f0e8" stroke-width="0.7" opacity="0.28"/>
<path d="M 801.0 299.3 A 31.9 40.6 0 0 1 859.0 299.3 A 31.9 40.6 0 0 1 801.0 299.3 Z" fill="#1a1a1a" stroke="#f4f0e8" stroke-width="0.7" opacity="0.28"/>
<path d="M 859.0 299.3 A 31.9 40.6 0 0 1 917.0 299.3 A 31.9 40.6 0 0 1 859.0 299.3 Z" fill="#1a1a1a" stroke="#f4f0e8" stroke-width="0.7" opacity="0.28"/>
<path d="M 917.0 299.3 A 31.9 40.6 0 0 1 975.0 299.3 A 31.9 40.6 0 0 1 917.0 299.3 Z" fill="#1a1a1a" stroke="#f4f0e8" stroke-width="0.7" opacity="0.28"/>
<path d="M 975.0 299.3 A 31.9 40.6 0 0 1 1033.0 299.3 A 31.9 40.6 0 0 1 975.0 299.3 Z" fill="#1a1a1a" stroke="#f4f0e8" stroke-width="0.7" opacity="0.28"/>
<path d="M 1033.0 299.3 A 31.9 40.6 0 0 1 1091.0 299.3 A 31.9 40.6 0 0 1 1033.0 299.3 Z" fill="#1a1a1a" stroke="#f4f0e8" stroke-width="0.7" opacity="0.28"/>
<path d="M 1091.0 299.3 A 31.9 40.6 0 0 1 1149.0 299.3 A 31.9 40.6 0 0 1 1091.0 299.3 Z" fill="#1a1a1a" stroke="#f4f0e8" stroke-width="0.7" opacity="0.28"/>
<path d="M 1149.0 299.3 A 31.9 40.6 0 0 1 1207.0 299.3 A 31.9 40.6 0 0 1 1149.0 299.3 Z" fill="#1a1a1a" stroke="#f4f0e8" stroke-width="0.7" opacity="0.28"/>
<path d="M 1207.0 299.3 A 31.9 40.6 0 0 1 1265.0 299.3 A 31.9 40.6 0 0 1 1207.0 299.3 Z" fill="#1a1a1a" stroke="#f4f0e8" stroke-width="0.7" opacity="0.28"/>
<path d="M -40.0 337.0 A 31.9 40.6 0 0 1 18.0 337.0 A 31.9 40.6 0 0 1 -40.0 337.0 Z" fill="#1a1a1a" stroke="#f4f0e8" stroke-width="0.7" opacity="0.28"/>
<path d="M 18.0 337.0 A 31.9 40.6 0 0 1 76.0 337.0 A 31.9 40.6 0 0 1 18.0 337.0 Z" fill="#1a1a1a" stroke="#f4f0e8" stroke-width="0.7" opacity="0.28"/>
<path d="M 76.0 337.0 A 31.9 40.6 0 0 1 134.0 337.0 A 31.9 40.6 0 0 1 76.0 337.0 Z" fill="#1a1a1a" stroke="#f4f0e8" stroke-width="0.7" opacity="0.28"/>
<path d="M 134.0 337.0 A 31.9 40.6 0 0 1 192.0 337.0 A 31.9 40.6 0 0 1 134.0 337.0 Z" fill="#1a1a1a" stroke="#f4f0e8" stroke-width="0.7" opacity="0.28"/>
<path d="M 192.0 337.0 A 31.9 40.6 0 0 1 250.0 337.0 A 31.9 40.6 0 0 1 192.0 337.0 Z" fill="#1a1a1a" stroke="#f4f0e8" stroke-width="0.7" opacity="0.28"/>
<path d="M 250.0 337.0 A 31.9 40.6 0 0 1 308.0 337.0 A 31.9 40.6 0 0 1 250.0 337.0 Z" fill="#1a1a1a" stroke="#f4f0e8" stroke-width="0.7" opacity="0.28"/>
<path d="M 308.0 337.0 A 31.9 40.6 0 0 1 366.0 337.0 A 31.9 40.6 0 0 1 308.0 337.0 Z" fill="#1a1a1a" stroke="#f4f0e8" stroke-width="0.7" opacity="0.28"/>
<path d="M 366.0 337.0 A 31.9 40.6 0 0 1 424.0 337.0 A 31.9 40.6 0 0 1 366.0 337.0 Z" fill="#1a1a1a" stroke="#f4f0e8" stroke-width="0.7" opacity="0.28"/>
<path d="M 424.0 337.0 A 31.9 40.6 0 0 1 482.0 337.0 A 31.9 40.6 0 0 1 424.0 337.0 Z" fill="#1a1a1a" stroke="#f4f0e8" stroke-width="0.7" opacity="0.28"/>
<path d="M 482.0 337.0 A 31.9 40.6 0 0 1 540.0 337.0 A 31.9 40.6 0 0 1 482.0 337.0 Z" fill="#1a1a1a" stroke="#f4f0e8" stroke-width="0.7" opacity="0.28"/>
<path d="M 540.0 337.0 A 31.9 40.6 0 0 1 598.0 337.0 A 31.9 40.6 0 0 1 540.0 337.0 Z" fill="#1a1a1a" stroke="#f4f0e8" stroke-width="0.7" opacity="0.28"/>
<path d="M 598.0 337.0 A 31.9 40.6 0 0 1 656.0 337.0 A 31.9 40.6 0 0 1 598.0 337.0 Z" fill="#1a1a1a" stroke="#f4f0e8" stroke-width="0.7" opacity="0.28"/>
<path d="M 656.0 337.0 A 31.9 40.6 0 0 1 714.0 337.0 A 31.9 40.6 0 0 1 656.0 337.0 Z" fill="#1a1a1a" stroke="#f4f0e8" stroke-width="0.7" opacity="0.28"/>
<path d="M 714.0 337.0 A 31.9 40.6 0 0 1 772.0 337.0 A 31.9 40.6 0 0 1 714.0 337.0 Z" fill="#1a1a1a" stroke="#f4f0e8" stroke-width="0.7" opacity="0.28"/>
<path d="M 772.0 337.0 A 31.9 40.6 0 0 1 830.0 337.0 A 31.9 40.6 0 0 1 772.0 337.0 Z" fill="#1a1a1a" stroke="#f4f0e8" stroke-width="0.7" opacity="0.28"/>
<path d="M 830.0 337.0 A 31.9 40.6 0 0 1 888.0 337.0 A 31.9 40.6 0 0 1 830.0 337.0 Z" fill="#1a1a1a" stroke="#f4f0e8" stroke-width="0.7" opacity="0.28"/>
<path d="M 888.0 337.0 A 31.9 40.6 0 0 1 946.0 337.0 A 31.9 40.6 0 0 1 888.0 337.0 Z" fill="#1a1a1a" stroke="#f4f0e8" stroke-width="0.7" opacity="0.28"/>
<path d="M 946.0 337.0 A 31.9 40.6 0 0 1 1004.0 337.0 A 31.9 40.6 0 0 1 946.0 337.0 Z" fill="#1a1a1a" stroke="#f4f0e8" stroke-width="0.7" opacity="0.28"/>
<path d="M 1004.0 337.0 A 31.9 40.6 0 0 1 1062.0 337.0 A 31.9 40.6 0 0 1 1004.0 337.0 Z" fill="#1a1a1a" stroke="#f4f0e8" stroke-width="0.7" opacity="0.28"/>
<path d="M 1062.0 337.0 A 31.9 40.6 0 0 1 1120.0 337.0 A 31.9 40.6 0 0 1 1062.0 337.0 Z" fill="#1a1a1a" stroke="#f4f0e8" stroke-width="0.7" opacity="0.28"/>
<path d="M 1120.0 337.0 A 31.9 40.6 0 0 1 1178.0 337.0 A 31.9 40.6 0 0 1 1120.0 337.0 Z" fill="#1a1a1a" stroke="#f4f0e8" stroke-width="0.7" opacity="0.28"/>
<path d="M 1178.0 337.0 A 31.9 40.6 0 0 1 1236.0 337.0 A 31.9 40.6 0 0 1 1178.0 337.0 Z" fill="#1a1a1a" stroke="#f4f0e8" stroke-width="0.7" opacity="0.28"/>
<path d="M -11.0 374.7 A 31.9 40.6 0 0 1 47.0 374.7 A 31.9 40.6 0 0 1 -11.0 374.7 Z" fill="#1a1a1a" stroke="#f4f0e8" stroke-width="0.7" opacity="0.28"/>
<path d="M 47.0 374.7 A 31.9 40.6 0 0 1 105.0 374.7 A 31.9 40.6 0 0 1 47.0 374.7 Z" fill="#1a1a1a" stroke="#f4f0e8" stroke-width="0.7" opacity="0.28"/>
<path d="M 105.0 374.7 A 31.9 40.6 0 0 1 163.0 374.7 A 31.9 40.6 0 0 1 105.0 374.7 Z" fill="#1a1a1a" stroke="#f4f0e8" stroke-width="0.7" opacity="0.28"/>
<path d="M 163.0 374.7 A 31.9 40.6 0 0 1 221.0 374.7 A 31.9 40.6 0 0 1 163.0 374.7 Z" fill="#1a1a1a" stroke="#f4f0e8" stroke-width="0.7" opacity="0.28"/>
<path d="M 221.0 374.7 A 31.9 40.6 0 0 1 279.0 374.7 A 31.9 40.6 0 0 1 221.0 374.7 Z" fill="#1a1a1a" stroke="#f4f0e8" stroke-width="0.7" opacity="0.28"/>
<path d="M 279.0 374.7 A 31.9 40.6 0 0 1 337.0 374.7 A 31.9 40.6 0 0 1 279.0 374.7 Z" fill="#1a1a1a" stroke="#f4f0e8" stroke-width="0.7" opacity="0.28"/>
<path d="M 337.0 374.7 A 31.9 40.6 0 0 1 395.0 374.7 A 31.9 40.6 0 0 1 337.0 374.7 Z" fill="#1a1a1a" stroke="#f4f0e8" stroke-width="0.7" opacity="0.28"/>
<path d="M 395.0 374.7 A 31.9 40.6 0 0 1 453.0 374.7 A 31.9 40.6 0 0 1 395.0 374.7 Z" fill="#1a1a1a" stroke="#f4f0e8" stroke-width="0.7" opacity="0.28"/>
<path d="M 453.0 374.7 A 31.9 40.6 0 0 1 511.0 374.7 A 31.9 40.6 0 0 1 453.0 374.7 Z" fill="#1a1a1a" stroke="#f4f0e8" stroke-width="0.7" opacity="0.28"/>
<path d="M 511.0 374.7 A 31.9 40.6 0 0 1 569.0 374.7 A 31.9 40.6 0 0 1 511.0 374.7 Z" fill="#1a1a1a" stroke="#f4f0e8" stroke-width="0.7" opacity="0.28"/>
<path d="M 569.0 374.7 A 31.9 40.6 0 0 1 627.0 374.7 A 31.9 40.6 0 0 1 569.0 374.7 Z" fill="#1a1a1a" stroke="#f4f0e8" stroke-width="0.7" opacity="0.28"/>
<path d="M 627.0 374.7 A 31.9 40.6 0 0 1 685.0 374.7 A 31.9 40.6 0 0 1 627.0 374.7 Z" fill="#1a1a1a" stroke="#f4f0e8" stroke-width="0.7" opacity="0.28"/>
<path d="M 685.0 374.7 A 31.9 40.6 0 0 1 743.0 374.7 A 31.9 40.6 0 0 1 685.0 374.7 Z" fill="#1a1a1a" stroke="#f4f0e8" stroke-width="0.7" opacity="0.28"/>
<path d="M 743.0 374.7 A 31.9 40.6 0 0 1 801.0 374.7 A 31.9 40.6 0 0 1 743.0 374.7 Z" fill="#1a1a1a" stroke="#f4f0e8" stroke-width="0.7" opacity="0.28"/>
<path d="M 801.0 374.7 A 31.9 40.6 0 0 1 859.0 374.7 A 31.9 40.6 0 0 1 801.0 374.7 Z" fill="#1a1a1a" stroke="#f4f0e8" stroke-width="0.7" opacity="0.28"/>
<path d="M 859.0 374.7 A 31.9 40.6 0 0 1 917.0 374.7 A 31.9 40.6 0 0 1 859.0 374.7 Z" fill="#1a1a1a" stroke="#f4f0e8" stroke-width="0.7" opacity="0.28"/>
<path d="M 917.0 374.7 A 31.9 40.6 0 0 1 975.0 374.7 A 31.9 40.6 0 0 1 917.0 374.7 Z" fill="#1a1a1a" stroke="#f4f0e8" stroke-width="0.7" opacity="0.28"/>
<path d="M 975.0 374.7 A 31.9 40.6 0 0 1 1033.0 374.7 A 31.9 40.6 0 0 1 975.0 374.7 Z" fill="#1a1a1a" stroke="#f4f0e8" stroke-width="0.7" opacity="0.28"/>
<path d="M 1033.0 374.7 A 31.9 40.6 0 0 1 1091.0 374.7 A 31.9 40.6 0 0 1 1033.0 374.7 Z" fill="#1a1a1a" stroke="#f4f0e8" stroke-width="0.7" opacity="0.28"/>
<path d="M 1091.0 374.7 A 31.9 40.6 0 0 1 1149.0 374.7 A 31.9 40.6 0 0 1 1091.0 374.7 Z" fill="#1a1a1a" stroke="#f4f0e8" stroke-width="0.7" opacity="0.28"/>
<path d="M 1149.0 374.7 A 31.9 40.6 0 0 1 1207.0 374.7 A 31.9 40.6 0 0 1 1149.0 374.7 Z" fill="#1a1a1a" stroke="#f4f0e8" stroke-width="0.7" opacity="0.28"/>
<path d="M 1207.0 374.7 A 31.9 40.6 0 0 1 1265.0 374.7 A 31.9 40.6 0 0 1 1207.0 374.7 Z" fill="#1a1a1a" stroke="#f4f0e8" stroke-width="0.7" opacity="0.28"/>
<path d="M -40.0 412.4 A 31.9 40.6 0 0 1 18.0 412.4 A 31.9 40.6 0 0 1 -40.0 412.4 Z" fill="#1a1a1a" stroke="#f4f0e8" stroke-width="0.7" opacity="0.28"/>
<path d="M 18.0 412.4 A 31.9 40.6 0 0 1 76.0 412.4 A 31.9 40.6 0 0 1 18.0 412.4 Z" fill="#1a1a1a" stroke="#f4f0e8" stroke-width="0.7" opacity="0.28"/>
<path d="M 76.0 412.4 A 31.9 40.6 0 0 1 134.0 412.4 A 31.9 40.6 0 0 1 76.0 412.4 Z" fill="#1a1a1a" stroke="#f4f0e8" stroke-width="0.7" opacity="0.28"/>
<path d="M 134.0 412.4 A 31.9 40.6 0 0 1 192.0 412.4 A 31.9 40.6 0 0 1 134.0 412.4 Z" fill="#1a1a1a" stroke="#f4f0e8" stroke-width="0.7" opacity="0.28"/>
<path d="M 192.0 412.4 A 31.9 40.6 0 0 1 250.0 412.4 A 31.9 40.6 0 0 1 192.0 412.4 Z" fill="#1a1a1a" stroke="#f4f0e8" stroke-width="0.7" opacity="0.28"/>
<path d="M 250.0 412.4 A 31.9 40.6 0 0 1 308.0 412.4 A 31.9 40.6 0 0 1 250.0 412.4 Z" fill="#1a1a1a" stroke="#f4f0e8" stroke-width="0.7" opacity="0.28"/>
<path d="M 308.0 412.4 A 31.9 40.6 0 0 1 366.0 412.4 A 31.9 40.6 0 0 1 308.0 412.4 Z" fill="#1a1a1a" stroke="#f4f0e8" stroke-width="0.7" opacity="0.28"/>
<path d="M 366.0 412.4 A 31.9 40.6 0 0 1 424.0 412.4 A 31.9 40.6 0 0 1 366.0 412.4 Z" fill="#1a1a1a" stroke="#f4f0e8" stroke-width="0.7" opacity="0.28"/>
<path d="M 424.0 412.4 A 31.9 40.6 0 0 1 482.0 412.4 A 31.9 40.6 0 0 1 424.0 412.4 Z" fill="#1a1a1a" stroke="#f4f0e8" stroke-width="0.7" opacity="0.28"/>
<path d="M 482.0 412.4 A 31.9 40.6 0 0 1 540.0 412.4 A 31.9 40.6 0 0 1 482.0 412.4 Z" fill="#1a1a1a" stroke="#f4f0e8" stroke-width="0.7" opacity="0.28"/>
<path d="M 540.0 412.4 A 31.9 40.6 0 0 1 598.0 412.4 A 31.9 40.6 0 0 1 540.0 412.4 Z" fill="#1a1a1a" stroke="#f4f0e8" stroke-width="0.7" opacity="0.28"/>
<path d="M 598.0 412.4 A 31.9 40.6 0 0 1 656.0 412.4 A 31.9 40.6 0 0 1 598.0 412.4 Z" fill="#1a1a1a" stroke="#f4f0e8" stroke-width="0.7" opacity="0.28"/>
<path d="M 656.0 412.4 A 31.9 40.6 0 0 1 714.0 412.4 A 31.9 40.6 0 0 1 656.0 412.4 Z" fill="#1a1a1a" stroke="#f4f0e8" stroke-width="0.7" opacity="0.28"/>
<path d="M 714.0 412.4 A 31.9 40.6 0 0 1 772.0 412.4 A 31.9 40.6 0 0 1 714.0 412.4 Z" fill="#1a1a1a" stroke="#f4f0e8" stroke-width="0.7" opacity="0.28"/>
<path d="M 772.0 412.4 A 31.9 40.6 0 0 1 830.0 412.4 A 31.9 40.6 0 0 1 772.0 412.4 Z" fill="#1a1a1a" stroke="#f4f0e8" stroke-width="0.7" opacity="0.28"/>
<path d="M 830.0 412.4 A 31.9 40.6 0 0 1 888.0 412.4 A 31.9 40.6 0 0 1 830.0 412.4 Z" fill="#1a1a1a" stroke="#f4f0e8" stroke-width="0.7" opacity="0.28"/>
<path d="M 888.0 412.4 A 31.9 40.6 0 0 1 946.0 412.4 A 31.9 40.6 0 0 1 888.0 412.4 Z" fill="#1a1a1a" stroke="#f4f0e8" stroke-width="0.7" opacity="0.28"/>
<path d="M 946.0 412.4 A 31.9 40.6 0 0 1 1004.0 412.4 A 31.9 40.6 0 0 1 946.0 412.4 Z" fill="#1a1a1a" stroke="#f4f0e8" stroke-width="0.7" opacity="0.28"/>
<path d="M 1004.0 412.4 A 31.9 40.6 0 0 1 1062.0 412.4 A 31.9 40.6 0 0 1 1004.0 412.4 Z" fill="#1a1a1a" stroke="#f4f0e8" stroke-width="0.7" opacity="0.28"/>
<path d="M 1062.0 412.4 A 31.9 40.6 0 0 1 1120.0 412.4 A 31.9 40.6 0 0 1 1062.0 412.4 Z" fill="#1a1a1a" stroke="#f4f0e8" stroke-width="0.7" opacity="0.28"/>
<path d="M 1120.0 412.4 A 31.9 40.6 0 0 1 1178.0 412.4 A 31.9 40.6 0 0 1 1120.0 412.4 Z" fill="#1a1a1a" stroke="#f4f0e8" stroke-width="0.7" opacity="0.28"/>
<path d="M 1178.0 412.4 A 31.9 40.6 0 0 1 1236.0 412.4 A 31.9 40.6 0 0 1 1178.0 412.4 Z" fill="#1a1a1a" stroke="#f4f0e8" stroke-width="0.7" opacity="0.28"/>
<path d="M -11.0 450.1 A 31.9 40.6 0 0 1 47.0 450.1 A 31.9 40.6 0 0 1 -11.0 450.1 Z" fill="#1a1a1a" stroke="#f4f0e8" stroke-width="0.7" opacity="0.28"/>
<path d="M 47.0 450.1 A 31.9 40.6 0 0 1 105.0 450.1 A 31.9 40.6 0 0 1 47.0 450.1 Z" fill="#1a1a1a" stroke="#f4f0e8" stroke-width="0.7" opacity="0.28"/>
<path d="M 105.0 450.1 A 31.9 40.6 0 0 1 163.0 450.1 A 31.9 40.6 0 0 1 105.0 450.1 Z" fill="#1a1a1a" stroke="#f4f0e8" stroke-width="0.7" opacity="0.28"/>
<path d="M 163.0 450.1 A 31.9 40.6 0 0 1 221.0 450.1 A 31.9 40.6 0 0 1 163.0 450.1 Z" fill="#1a1a1a" stroke="#f4f0e8" stroke-width="0.7" opacity="0.28"/>
<path d="M 221.0 450.1 A 31.9 40.6 0 0 1 279.0 450.1 A 31.9 40.6 0 0 1 221.0 450.1 Z" fill="#1a1a1a" stroke="#f4f0e8" stroke-width="0.7" opacity="0.28"/>
<path d="M 279.0 450.1 A 31.9 40.6 0 0 1 337.0 450.1 A 31.9 40.6 0 0 1 279.0 450.1 Z" fill="#1a1a1a" stroke="#f4f0e8" stroke-width="0.7" opacity="0.28"/>
<path d="M 337.0 450.1 A 31.9 40.6 0 0 1 395.0 450.1 A 31.9 40.6 0 0 1 337.0 450.1 Z" fill="#1a1a1a" stroke="#f4f0e8" stroke-width="0.7" opacity="0.28"/>
<path d="M 395.0 450.1 A 31.9 40.6 0 0 1 453.0 450.1 A 31.9 40.6 0 0 1 395.0 450.1 Z" fill="#1a1a1a" stroke="#f4f0e8" stroke-width="0.7" opacity="0.28"/>
<path d="M 453.0 450.1 A 31.9 40.6 0 0 1 511.0 450.1 A 31.9 40.6 0 0 1 453.0 450.1 Z" fill="#1a1a1a" stroke="#f4f0e8" stroke-width="0.7" opacity="0.28"/>
<path d="M 511.0 450.1 A 31.9 40.6 0 0 1 569.0 450.1 A 31.9 40.6 0 0 1 511.0 450.1 Z" fill="#1a1a1a" stroke="#f4f0e8" stroke-width="0.7" opacity="0.28"/>
<path d="M 569.0 450.1 A 31.9 40.6 0 0 1 627.0 450.1 A 31.9 40.6 0 0 1 569.0 450.1 Z" fill="#1a1a1a" stroke="#f4f0e8" stroke-width="0.7" opacity="0.28"/>
<path d="M 627.0 450.1 A 31.9 40.6 0 0 1 685.0 450.1 A 31.9 40.6 0 0 1 627.0 450.1 Z" fill="#1a1a1a" stroke="#f4f0e8" stroke-width="0.7" opacity="0.28"/>
<path d="M 685.0 450.1 A 31.9 40.6 0 0 1 743.0 450.1 A 31.9 40.6 0 0 1 685.0 450.1 Z" fill="#1a1a1a" stroke="#f4f0e8" stroke-width="0.7" opacity="0.28"/>
<path d="M 743.0 450.1 A 31.9 40.6 0 0 1 801.0 450.1 A 31.9 40.6 0 0 1 743.0 450.1 Z" fill="#1a1a1a" stroke="#f4f0e8" stroke-width="0.7" opacity="0.28"/>
<path d="M 801.0 450.1 A 31.9 40.6 0 0 1 859.0 450.1 A 31.9 40.6 0 0 1 801.0 450.1 Z" fill="#1a1a1a" stroke="#f4f0e8" stroke-width="0.7" opacity="0.28"/>
<path d="M 859.0 450.1 A 31.9 40.6 0 0 1 917.0 450.1 A 31.9 40.6 0 0 1 859.0 450.1 Z" fill="#1a1a1a" stroke="#f4f0e8" stroke-width="0.7" opacity="0.28"/>
<path d="M 917.0 450.1 A 31.9 40.6 0 0 1 975.0 450.1 A 31.9 40.6 0 0 1 917.0 450.1 Z" fill="#1a1a1a" stroke="#f4f0e8" stroke-width="0.7" opacity="0.28"/>
<path d="M 975.0 450.1 A 31.9 40.6 0 0 1 1033.0 450.1 A 31.9 40.6 0 0 1 975.0 450.1 Z" fill="#1a1a1a" stroke="#f4f0e8" stroke-width="0.7" opacity="0.28"/>
<path d="M 1033.0 450.1 A 31.9 40.6 0 0 1 1091.0 450.1 A 31.9 40.6 0 0 1 1033.0 450.1 Z" fill="#1a1a1a" stroke="#f4f0e8" stroke-width="0.7" opacity="0.28"/>
<path d="M 1091.0 450.1 A 31.9 40.6 0 0 1 1149.0 450.1 A 31.9 40.6 0 0 1 1091.0 450.1 Z" fill="#1a1a1a" stroke="#f4f0e8" stroke-width="0.7" opacity="0.28"/>
<path d="M 1149.0 450.1 A 31.9 40.6 0 0 1 1207.0 450.1 A 31.9 40.6 0 0 1 1149.0 450.1 Z" fill="#1a1a1a" stroke="#f4f0e8" stroke-width="0.7" opacity="0.28"/>
<path d="M 1207.0 450.1 A 31.9 40.6 0 0 1 1265.0 450.1 A 31.9 40.6 0 0 1 1207.0 450.1 Z" fill="#1a1a1a" stroke="#f4f0e8" stroke-width="0.7" opacity="0.28"/>
<path d="M -40.0 487.8 A 31.9 40.6 0 0 1 18.0 487.8 A 31.9 40.6 0 0 1 -40.0 487.8 Z" fill="#1a1a1a" stroke="#f4f0e8" stroke-width="0.7" opacity="0.28"/>
<path d="M 18.0 487.8 A 31.9 40.6 0 0 1 76.0 487.8 A 31.9 40.6 0 0 1 18.0 487.8 Z" fill="#1a1a1a" stroke="#f4f0e8" stroke-width="0.7" opacity="0.28"/>
<path d="M 76.0 487.8 A 31.9 40.6 0 0 1 134.0 487.8 A 31.9 40.6 0 0 1 76.0 487.8 Z" fill="#1a1a1a" stroke="#f4f0e8" stroke-width="0.7" opacity="0.28"/>
<path d="M 134.0 487.8 A 31.9 40.6 0 0 1 192.0 487.8 A 31.9 40.6 0 0 1 134.0 487.8 Z" fill="#1a1a1a" stroke="#f4f0e8" stroke-width="0.7" opacity="0.28"/>
<path d="M 192.0 487.8 A 31.9 40.6 0 0 1 250.0 487.8 A 31.9 40.6 0 0 1 192.0 487.8 Z" fill="#1a1a1a" stroke="#f4f0e8" stroke-width="0.7" opacity="0.28"/>
<path d="M 250.0 487.8 A 31.9 40.6 0 0 1 308.0 487.8 A 31.9 40.6 0 0 1 250.0 487.8 Z" fill="#1a1a1a" stroke="#f4f0e8" stroke-width="0.7" opacity="0.28"/>
<path d="M 308.0 487.8 A 31.9 40.6 0 0 1 366.0 487.8 A 31.9 40.6 0 0 1 308.0 487.8 Z" fill="#1a1a1a" stroke="#f4f0e8" stroke-width="0.7" opacity="0.28"/>
<path d="M 366.0 487.8 A 31.9 40.6 0 0 1 424.0 487.8 A 31.9 40.6 0 0 1 366.0 487.8 Z" fill="#1a1a1a" stroke="#f4f0e8" stroke-width="0.7" opacity="0.28"/>
<path d="M 424.0 487.8 A 31.9 40.6 0 0 1 482.0 487.8 A 31.9 40.6 0 0 1 424.0 487.8 Z" fill="#1a1a1a" stroke="#f4f0e8" stroke-width="0.7" opacity="0.28"/>
<path d="M 482.0 487.8 A 31.9 40.6 0 0 1 540.0 487.8 A 31.9 40.6 0 0 1 482.0 487.8 Z" fill="#1a1a1a" stroke="#f4f0e8" stroke-width="0.7" opacity="0.28"/>
<path d="M 540.0 487.8 A 31.9 40.6 0 0 1 598.0 487.8 A 31.9 40.6 0 0 1 540.0 487.8 Z" fill="#1a1a1a" stroke="#f4f0e8" stroke-width="0.7" opacity="0.28"/>
<path d="M 598.0 487.8 A 31.9 40.6 0 0 1 656.0 487.8 A 31.9 40.6 0 0 1 598.0 487.8 Z" fill="#1a1a1a" stroke="#f4f0e8" stroke-width="0.7" opacity="0.28"/>
<path d="M 656.0 487.8 A 31.9 40.6 0 0 1 714.0 487.8 A 31.9 40.6 0 0 1 656.0 487.8 Z" fill="#1a1a1a" stroke="#f4f0e8" stroke-width="0.7" opacity="0.28"/>
<path d="M 714.0 487.8 A 31.9 40.6 0 0 1 772.0 487.8 A 31.9 40.6 0 0 1 714.0 487.8 Z" fill="#1a1a1a" stroke="#f4f0e8" stroke-width="0.7" opacity="0.28"/>
<path d="M 772.0 487.8 A 31.9 40.6 0 0 1 830.0 487.8 A 31.9 40.6 0 0 1 772.0 487.8 Z" fill="#1a1a1a" stroke="#f4f0e8" stroke-width="0.7" opacity="0.28"/>
<path d="M 830.0 487.8 A 31.9 40.6 0 0 1 888.0 487.8 A 31.9 40.6 0 0 1 830.0 487.8 Z" fill="#1a1a1a" stroke="#f4f0e8" stroke-width="0.7" opacity="0.28"/>
<path d="M 888.0 487.8 A 31.9 40.6 0 0 1 946.0 487.8 A 31.9 40.6 0 0 1 888.0 487.8 Z" fill="#1a1a1a" stroke="#f4f0e8" stroke-width="0.7" opacity="0.28"/>
<path d="M 946.0 487.8 A 31.9 40.6 0 0 1 1004.0 487.8 A 31.9 40.6 0 0 1 946.0 487.8 Z" fill="#1a1a1a" stroke="#f4f0e8" stroke-width="0.7" opacity="0.28"/>
<path d="M 1004.0 487.8 A 31.9 40.6 0 0 1 1062.0 487.8 A 31.9 40.6 0 0 1 1004.0 487.8 Z" fill="#1a1a1a" stroke="#f4f0e8" stroke-width="0.7" opacity="0.28"/>
<path d="M 1062.0 487.8 A 31.9 40.6 0 0 1 1120.0 487.8 A 31.9 40.6 0 0 1 1062.0 487.8 Z" fill="#1a1a1a" stroke="#f4f0e8" stroke-width="0.7" opacity="0.28"/>
<path d="M 1120.0 487.8 A 31.9 40.6 0 0 1 1178.0 487.8 A 31.9 40.6 0 0 1 1120.0 487.8 Z" fill="#1a1a1a" stroke="#f4f0e8" stroke-width="0.7" opacity="0.28"/>
<path d="M 1178.0 487.8 A 31.9 40.6 0 0 1 1236.0 487.8 A 31.9 40.6 0 0 1 1178.0 487.8 Z" fill="#1a1a1a" stroke="#f4f0e8" stroke-width="0.7" opacity="0.28"/>
<path d="M -11.0 525.5 A 31.9 40.6 0 0 1 47.0 525.5 A 31.9 40.6 0 0 1 -11.0 525.5 Z" fill="#1a1a1a" stroke="#f4f0e8" stroke-width="0.7" opacity="0.28"/>
<path d="M 47.0 525.5 A 31.9 40.6 0 0 1 105.0 525.5 A 31.9 40.6 0 0 1 47.0 525.5 Z" fill="#1a1a1a" stroke="#f4f0e8" stroke-width="0.7" opacity="0.28"/>
<path d="M 105.0 525.5 A 31.9 40.6 0 0 1 163.0 525.5 A 31.9 40.6 0 0 1 105.0 525.5 Z" fill="#1a1a1a" stroke="#f4f0e8" stroke-width="0.7" opacity="0.28"/>
<path d="M 163.0 525.5 A 31.9 40.6 0 0 1 221.0 525.5 A 31.9 40.6 0 0 1 163.0 525.5 Z" fill="#1a1a1a" stroke="#f4f0e8" stroke-width="0.7" opacity="0.28"/>
<path d="M 221.0 525.5 A 31.9 40.6 0 0 1 279.0 525.5 A 31.9 40.6 0 0 1 221.0 525.5 Z" fill="#1a1a1a" stroke="#f4f0e8" stroke-width="0.7" opacity="0.28"/>
<path d="M 279.0 525.5 A 31.9 40.6 0 0 1 337.0 525.5 A 31.9 40.6 0 0 1 279.0 525.5 Z" fill="#1a1a1a" stroke="#f4f0e8" stroke-width="0.7" opacity="0.28"/>
<path d="M 337.0 525.5 A 31.9 40.6 0 0 1 395.0 525.5 A 31.9 40.6 0 0 1 337.0 525.5 Z" fill="#1a1a1a" stroke="#f4f0e8" stroke-width="0.7" opacity="0.28"/>
<path d="M 395.0 525.5 A 31.9 40.6 0 0 1 453.0 525.5 A 31.9 40.6 0 0 1 395.0 525.5 Z" fill="#1a1a1a" stroke="#f4f0e8" stroke-width="0.7" opacity="0.28"/>
<path d="M 453.0 525.5 A 31.9 40.6 0 0 1 511.0 525.5 A 31.9 40.6 0 0 1 453.0 525.5 Z" fill="#1a1a1a" stroke="#f4f0e8" stroke-width="0.7" opacity="0.28"/>
<path d="M 511.0 525.5 A 31.9 40.6 0 0 1 569.0 525.5 A 31.9 40.6 0 0 1 511.0 525.5 Z" fill="#1a1a1a" stroke="#f4f0e8" stroke-width="0.7" opacity="0.28"/>
<path d="M 569.0 525.5 A 31.9 40.6 0 0 1 627.0 525.5 A 31.9 40.6 0 0 1 569.0 525.5 Z" fill="#1a1a1a" stroke="#f4f0e8" stroke-width="0.7" opacity="0.28"/>
<path d="M 627.0 525.5 A 31.9 40.6 0 0 1 685.0 525.5 A 31.9 40.6 0 0 1 627.0 525.5 Z" fill="#1a1a1a" stroke="#f4f0e8" stroke-width="0.7" opacity="0.28"/>
<path d="M 685.0 525.5 A 31.9 40.6 0 0 1 743.0 525.5 A 31.9 40.6 0 0 1 685.0 525.5 Z" fill="#1a1a1a" stroke="#f4f0e8" stroke-width="0.7" opacity="0.28"/>
<path d="M 743.0 525.5 A 31.9 40.6 0 0 1 801.0 525.5 A 31.9 40.6 0 0 1 743.0 525.5 Z" fill="#1a1a1a" stroke="#f4f0e8" stroke-width="0.7" opacity="0.28"/>
<path d="M 801.0 525.5 A 31.9 40.6 0 0 1 859.0 525.5 A 31.9 40.6 0 0 1 801.0 525.5 Z" fill="#1a1a1a" stroke="#f4f0e8" stroke-width="0.7" opacity="0.28"/>
<path d="M 859.0 525.5 A 31.9 40.6 0 0 1 917.0 525.5 A 31.9 40.6 0 0 1 859.0 525.5 Z" fill="#1a1a1a" stroke="#f4f0e8" stroke-width="0.7" opacity="0.28"/>
<path d="M 917.0 525.5 A 31.9 40.6 0 0 1 975.0 525.5 A 31.9 40.6 0 0 1 917.0 525.5 Z" fill="#1a1a1a" stroke="#f4f0e8" stroke-width="0.7" opacity="0.28"/>
<path d="M 975.0 525.5 A 31.9 40.6 0 0 1 1033.0 525.5 A 31.9 40.6 0 0 1 975.0 525.5 Z" fill="#1a1a1a" stroke="#f4f0e8" stroke-width="0.7" opacity="0.28"/>
<path d="M 1033.0 525.5 A 31.9 40.6 0 0 1 1091.0 525.5 A 31.9 40.6 0 0 1 1033.0 525.5 Z" fill="#1a1a1a" stroke="#f4f0e8" stroke-width="0.7" opacity="0.28"/>
<path d="M 1091.0 525.5 A 31.9 40.6 0 0 1 1149.0 525.5 A 31.9 40.6 0 0 1 1091.0 525.5 Z" fill="#1a1a1a" stroke="#f4f0e8" stroke-width="0.7" opacity="0.28"/>
<path d="M 1149.0 525.5 A 31.9 40.6 0 0 1 1207.0 525.5 A 31.9 40.6 0 0 1 1149.0 525.5 Z" fill="#1a1a1a" stroke="#f4f0e8" stroke-width="0.7" opacity="0.28"/>
<path d="M 1207.0 525.5 A 31.9 40.6 0 0 1 1265.0 525.5 A 31.9 40.6 0 0 1 1207.0 525.5 Z" fill="#1a1a1a" stroke="#f4f0e8" stroke-width="0.7" opacity="0.28"/>
<path d="M -40.0 563.2 A 31.9 40.6 0 0 1 18.0 563.2 A 31.9 40.6 0 0 1 -40.0 563.2 Z" fill="#1a1a1a" stroke="#f4f0e8" stroke-width="0.7" opacity="0.28"/>
<path d="M 18.0 563.2 A 31.9 40.6 0 0 1 76.0 563.2 A 31.9 40.6 0 0 1 18.0 563.2 Z" fill="#1a1a1a" stroke="#f4f0e8" stroke-width="0.7" opacity="0.28"/>
<path d="M 76.0 563.2 A 31.9 40.6 0 0 1 134.0 563.2 A 31.9 40.6 0 0 1 76.0 563.2 Z" fill="#1a1a1a" stroke="#f4f0e8" stroke-width="0.7" opacity="0.28"/>
<path d="M 134.0 563.2 A 31.9 40.6 0 0 1 192.0 563.2 A 31.9 40.6 0 0 1 134.0 563.2 Z" fill="#1a1a1a" stroke="#f4f0e8" stroke-width="0.7" opacity="0.28"/>
<path d="M 192.0 563.2 A 31.9 40.6 0 0 1 250.0 563.2 A 31.9 40.6 0 0 1 192.0 563.2 Z" fill="#1a1a1a" stroke="#f4f0e8" stroke-width="0.7" opacity="0.28"/>
<path d="M 250.0 563.2 A 31.9 40.6 0 0 1 308.0 563.2 A 31.9 40.6 0 0 1 250.0 563.2 Z" fill="#1a1a1a" stroke="#f4f0e8" stroke-width="0.7" opacity="0.28"/>
<path d="M 308.0 563.2 A 31.9 40.6 0 0 1 366.0 563.2 A 31.9 40.6 0 0 1 308.0 563.2 Z" fill="#1a1a1a" stroke="#f4f0e8" stroke-width="0.7" opacity="0.28"/>
<path d="M 366.0 563.2 A 31.9 40.6 0 0 1 424.0 563.2 A 31.9 40.6 0 0 1 366.0 563.2 Z" fill="#1a1a1a" stroke="#f4f0e8" stroke-width="0.7" opacity="0.28"/>
<path d="M 424.0 563.2 A 31.9 40.6 0 0 1 482.0 563.2 A 31.9 40.6 0 0 1 424.0 563.2 Z" fill="#1a1a1a" stroke="#f4f0e8" stroke-width="0.7" opacity="0.28"/>
<path d="M 482.0 563.2 A 31.9 40.6 0 0 1 540.0 563.2 A 31.9 40.6 0 0 1 482.0 563.2 Z" fill="#1a1a1a" stroke="#f4f0e8" stroke-width="0.7" opacity="0.28"/>
<path d="M 540.0 563.2 A 31.9 40.6 0 0 1 598.0 563.2 A 31.9 40.6 0 0 1 540.0 563.2 Z" fill="#1a1a1a" stroke="#f4f0e8" stroke-width="0.7" opacity="0.28"/>
<path d="M 598.0 563.2 A 31.9 40.6 0 0 1 656.0 563.2 A 31.9 40.6 0 0 1 598.0 563.2 Z" fill="#1a1a1a" stroke="#f4f0e8" stroke-width="0.7" opacity="0.28"/>
<path d="M 656.0 563.2 A 31.9 40.6 0 0 1 714.0 563.2 A 31.9 40.6 0 0 1 656.0 563.2 Z" fill="#1a1a1a" stroke="#f4f0e8" stroke-width="0.7" opacity="0.28"/>
<path d="M 714.0 563.2 A 31.9 40.6 0 0 1 772.0 563.2 A 31.9 40.6 0 0 1 714.0 563.2 Z" fill="#1a1a1a" stroke="#f4f0e8" stroke-width="0.7" opacity="0.28"/>
<path d="M 772.0 563.2 A 31.9 40.6 0 0 1 830.0 563.2 A 31.9 40.6 0 0 1 772.0 563.2 Z" fill="#1a1a1a" stroke="#f4f0e8" stroke-width="0.7" opacity="0.28"/>
<path d="M 830.0 563.2 A 31.9 40.6 0 0 1 888.0 563.2 A 31.9 40.6 0 0 1 830.0 563.2 Z" fill="#1a1a1a" stroke="#f4f0e8" stroke-width="0.7" opacity="0.28"/>
<path d="M 888.0 563.2 A 31.9 40.6 0 0 1 946.0 563.2 A 31.9 40.6 0 0 1 888.0 563.2 Z" fill="#1a1a1a" stroke="#f4f0e8" stroke-width="0.7" opacity="0.28"/>
<path d="M 946.0 563.2 A 31.9 40.6 0 0 1 1004.0 563.2 A 31.9 40.6 0 0 1 946.0 563.2 Z" fill="#1a1a1a" stroke="#f4f0e8" stroke-width="0.7" opacity="0.28"/>
<path d="M 1004.0 563.2 A 31.9 40.6 0 0 1 1062.0 563.2 A 31.9 40.6 0 0 1 1004.0 563.2 Z" fill="#1a1a1a" stroke="#f4f0e8" stroke-width="0.7" opacity="0.28"/>
<path d="M 1062.0 563.2 A 31.9 40.6 0 0 1 1120.0 563.2 A 31.9 40.6 0 0 1 1062.0 563.2 Z" fill="#1a1a1a" stroke="#f4f0e8" stroke-width="0.7" opacity="0.28"/>
<path d="M 1120.0 563.2 A 31.9 40.6 0 0 1 1178.0 563.2 A 31.9 40.6 0 0 1 1120.0 563.2 Z" fill="#1a1a1a" stroke="#f4f0e8" stroke-width="0.7" opacity="0.28"/>
<path d="M 1178.0 563.2 A 31.9 40.6 0 0 1 1236.0 563.2 A 31.9 40.6 0 0 1 1178.0 563.2 Z" fill="#1a1a1a" stroke="#f4f0e8" stroke-width="0.7" opacity="0.28"/>
<path d="M -11.0 600.9 A 31.9 40.6 0 0 1 47.0 600.9 A 31.9 40.6 0 0 1 -11.0 600.9 Z" fill="#1a1a1a" stroke="#f4f0e8" stroke-width="0.7" opacity="0.28"/>
<path d="M 47.0 600.9 A 31.9 40.6 0 0 1 105.0 600.9 A 31.9 40.6 0 0 1 47.0 600.9 Z" fill="#1a1a1a" stroke="#f4f0e8" stroke-width="0.7" opacity="0.28"/>
<path d="M 105.0 600.9 A 31.9 40.6 0 0 1 163.0 600.9 A 31.9 40.6 0 0 1 105.0 600.9 Z" fill="#1a1a1a" stroke="#f4f0e8" stroke-width="0.7" opacity="0.28"/>
<path d="M 163.0 600.9 A 31.9 40.6 0 0 1 221.0 600.9 A 31.9 40.6 0 0 1 163.0 600.9 Z" fill="#1a1a1a" stroke="#f4f0e8" stroke-width="0.7" opacity="0.28"/>
<path d="M 221.0 600.9 A 31.9 40.6 0 0 1 279.0 600.9 A 31.9 40.6 0 0 1 221.0 600.9 Z" fill="#1a1a1a" stroke="#f4f0e8" stroke-width="0.7" opacity="0.28"/>
<path d="M 279.0 600.9 A 31.9 40.6 0 0 1 337.0 600.9 A 31.9 40.6 0 0 1 279.0 600.9 Z" fill="#1a1a1a" stroke="#f4f0e8" stroke-width="0.7" opacity="0.28"/>
<path d="M 337.0 600.9 A 31.9 40.6 0 0 1 395.0 600.9 A 31.9 40.6 0 0 1 337.0 600.9 Z" fill="#1a1a1a" stroke="#f4f0e8" stroke-width="0.7" opacity="0.28"/>
<path d="M 395.0 600.9 A 31.9 40.6 0 0 1 453.0 600.9 A 31.9 40.6 0 0 1 395.0 600.9 Z" fill="#1a1a1a" stroke="#f4f0e8" stroke-width="0.7" opacity="0.28"/>
<path d="M 453.0 600.9 A 31.9 40.6 0 0 1 511.0 600.9 A 31.9 40.6 0 0 1 453.0 600.9 Z" fill="#1a1a1a" stroke="#f4f0e8" stroke-width="0.7" opacity="0.28"/>
<path d="M 511.0 600.9 A 31.9 40.6 0 0 1 569.0 600.9 A 31.9 40.6 0 0 1 511.0 600.9 Z" fill="#1a1a1a" stroke="#f4f0e8" stroke-width="0.7" opacity="0.28"/>
<path d="M 569.0 600.9 A 31.9 40.6 0 0 1 627.0 600.9 A 31.9 40.6 0 0 1 569.0 600.9 Z" fill="#1a1a1a" stroke="#f4f0e8" stroke-width="0.7" opacity="0.28"/>
<path d="M 627.0 600.9 A 31.9 40.6 0 0 1 685.0 600.9 A 31.9 40.6 0 0 1 627.0 600.9 Z" fill="#1a1a1a" stroke="#f4f0e8" stroke-width="0.7" opacity="0.28"/>
<path d="M 685.0 600.9 A 31.9 40.6 0 0 1 743.0 600.9 A 31.9 40.6 0 0 1 685.0 600.9 Z" fill="#1a1a1a" stroke="#f4f0e8" stroke-width="0.7" opacity="0.28"/>
<path d="M 743.0 600.9 A 31.9 40.6 0 0 1 801.0 600.9 A 31.9 40.6 0 0 1 743.0 600.9 Z" fill="#1a1a1a" stroke="#f4f0e8" stroke-width="0.7" opacity="0.28"/>
<path d="M 801.0 600.9 A 31.9 40.6 0 0 1 859.0 600.9 A 31.9 40.6 0 0 1 801.0 600.9 Z" fill="#1a1a1a" stroke="#f4f0e8" stroke-width="0.7" opacity="0.28"/>
<path d="M 859.0 600.9 A 31.9 40.6 0 0 1 917.0 600.9 A 31.9 40.6 0 0 1 859.0 600.9 Z" fill="#1a1a1a" stroke="#f4f0e8" stroke-width="0.7" opacity="0.28"/>
<path d="M 917.0 600.9 A 31.9 40.6 0 0 1 975.0 600.9 A 31.9 40.6 0 0 1 917.0 600.9 Z" fill="#1a1a1a" stroke="#f4f0e8" stroke-width="0.7" opacity="0.28"/>
<path d="M 975.0 600.9 A 31.9 40.6 0 0 1 1033.0 600.9 A 31.9 40.6 0 0 1 975.0 600.9 Z" fill="#1a1a1a" stroke="#f4f0e8" stroke-width="0.7" opacity="0.28"/>
<path d="M 1033.0 600.9 A 31.9 40.6 0 0 1 1091.0 600.9 A 31.9 40.6 0 0 1 1033.0 600.9 Z" fill="#1a1a1a" stroke="#f4f0e8" stroke-width="0.7" opacity="0.28"/>
<path d="M 1091.0 600.9 A 31.9 40.6 0 0 1 1149.0 600.9 A 31.9 40.6 0 0 1 1091.0 600.9 Z" fill="#1a1a1a" stroke="#f4f0e8" stroke-width="0.7" opacity="0.28"/>
<path d="M 1149.0 600.9 A 31.9 40.6 0 0 1 1207.0 600.9 A 31.9 40.6 0 0 1 1149.0 600.9 Z" fill="#1a1a1a" stroke="#f4f0e8" stroke-width="0.7" opacity="0.28"/>
<path d="M 1207.0 600.9 A 31.9 40.6 0 0 1 1265.0 600.9 A 31.9 40.6 0 0 1 1207.0 600.9 Z" fill="#1a1a1a" stroke="#f4f0e8" stroke-width="0.7" opacity="0.28"/>
<path d="M -40.0 638.6 A 31.9 40.6 0 0 1 18.0 638.6 A 31.9 40.6 0 0 1 -40.0 638.6 Z" fill="#1a1a1a" stroke="#f4f0e8" stroke-width="0.7" opacity="0.28"/>
<path d="M 18.0 638.6 A 31.9 40.6 0 0 1 76.0 638.6 A 31.9 40.6 0 0 1 18.0 638.6 Z" fill="#1a1a1a" stroke="#f4f0e8" stroke-width="0.7" opacity="0.28"/>
<path d="M 76.0 638.6 A 31.9 40.6 0 0 1 134.0 638.6 A 31.9 40.6 0 0 1 76.0 638.6 Z" fill="#1a1a1a" stroke="#f4f0e8" stroke-width="0.7" opacity="0.28"/>
<path d="M 134.0 638.6 A 31.9 40.6 0 0 1 192.0 638.6 A 31.9 40.6 0 0 1 134.0 638.6 Z" fill="#1a1a1a" stroke="#f4f0e8" stroke-width="0.7" opacity="0.28"/>
<path d="M 192.0 638.6 A 31.9 40.6 0 0 1 250.0 638.6 A 31.9 40.6 0 0 1 192.0 638.6 Z" fill="#1a1a1a" stroke="#f4f0e8" stroke-width="0.7" opacity="0.28"/>
<path d="M 250.0 638.6 A 31.9 40.6 0 0 1 308.0 638.6 A 31.9 40.6 0 0 1 250.0 638.6 Z" fill="#1a1a1a" stroke="#f4f0e8" stroke-width="0.7" opacity="0.28"/>
<path d="M 308.0 638.6 A 31.9 40.6 0 0 1 366.0 638.6 A 31.9 40.6 0 0 1 308.0 638.6 Z" fill="#1a1a1a" stroke="#f4f0e8" stroke-width="0.7" opacity="0.28"/>
<path d="M 366.0 638.6 A 31.9 40.6 0 0 1 424.0 638.6 A 31.9 40.6 0 0 1 366.0 638.6 Z" fill="#1a1a1a" stroke="#f4f0e8" stroke-width="0.7" opacity="0.28"/>
<path d="M 424.0 638.6 A 31.9 40.6 0 0 1 482.0 638.6 A 31.9 40.6 0 0 1 424.0 638.6 Z" fill="#1a1a1a" stroke="#f4f0e8" stroke-width="0.7" opacity="0.28"/>
<path d="M 482.0 638.6 A 31.9 40.6 0 0 1 540.0 638.6 A 31.9 40.6 0 0 1 482.0 638.6 Z" fill="#1a1a1a" stroke="#f4f0e8" stroke-width="0.7" opacity="0.28"/>
<path d="M 540.0 638.6 A 31.9 40.6 0 0 1 598.0 638.6 A 31.9 40.6 0 0 1 540.0 638.6 Z" fill="#1a1a1a" stroke="#f4f0e8" stroke-width="0.7" opacity="0.28"/>
<path d="M 598.0 638.6 A 31.9 40.6 0 0 1 656.0 638.6 A 31.9 40.6 0 0 1 598.0 638.6 Z" fill="#1a1a1a" stroke="#f4f0e8" stroke-width="0.7" opacity="0.28"/>
<path d="M 656.0 638.6 A 31.9 40.6 0 0 1 714.0 638.6 A 31.9 40.6 0 0 1 656.0 638.6 Z" fill="#1a1a1a" stroke="#f4f0e8" stroke-width="0.7" opacity="0.28"/>
<path d="M 714.0 638.6 A 31.9 40.6 0 0 1 772.0 638.6 A 31.9 40.6 0 0 1 714.0 638.6 Z" fill="#1a1a1a" stroke="#f4f0e8" stroke-width="0.7" opacity="0.28"/>
<path d="M 772.0 638.6 A 31.9 40.6 0 0 1 830.0 638.6 A 31.9 40.6 0 0 1 772.0 638.6 Z" fill="#1a1a1a" stroke="#f4f0e8" stroke-width="0.7" opacity="0.28"/>
<path d="M 830.0 638.6 A 31.9 40.6 0 0 1 888.0 638.6 A 31.9 40.6 0 0 1 830.0 638.6 Z" fill="#1a1a1a" stroke="#f4f0e8" stroke-width="0.7" opacity="0.28"/>
<path d="M 888.0 638.6 A 31.9 40.6 0 0 1 946.0 638.6 A 31.9 40.6 0 0 1 888.0 638.6 Z" fill="#1a1a1a" stroke="#f4f0e8" stroke-width="0.7" opacity="0.28"/>
<path d="M 946.0 638.6 A 31.9 40.6 0 0 1 1004.0 638.6 A 31.9 40.6 0 0 1 946.0 638.6 Z" fill="#1a1a1a" stroke="#f4f0e8" stroke-width="0.7" opacity="0.28"/>
<path d="M 1004.0 638.6 A 31.9 40.6 0 0 1 1062.0 638.6 A 31.9 40.6 0 0 1 1004.0 638.6 Z" fill="#1a1a1a" stroke="#f4f0e8" stroke-width="0.7" opacity="0.28"/>
<path d="M 1062.0 638.6 A 31.9 40.6 0 0 1 1120.0 638.6 A 31.9 40.6 0 0 1 1062.0 638.6 Z" fill="#1a1a1a" stroke="#f4f0e8" stroke-width="0.7" opacity="0.28"/>
<path d="M 1120.0 638.6 A 31.9 40.6 0 0 1 1178.0 638.6 A 31.9 40.6 0 0 1 1120.0 638.6 Z" fill="#1a1a1a" stroke="#f4f0e8" stroke-width="0.7" opacity="0.28"/>
<path d="M 1178.0 638.6 A 31.9 40.6 0 0 1 1236.0 638.6 A 31.9 40.6 0 0 1 1178.0 638.6 Z" fill="#1a1a1a" stroke="#f4f0e8" stroke-width="0.7" opacity="0.28"/>
<path d="M -11.0 676.3 A 31.9 40.6 0 0 1 47.0 676.3 A 31.9 40.6 0 0 1 -11.0 676.3 Z" fill="#1a1a1a" stroke="#f4f0e8" stroke-width="0.7" opacity="0.28"/>
<path d="M 47.0 676.3 A 31.9 40.6 0 0 1 105.0 676.3 A 31.9 40.6 0 0 1 47.0 676.3 Z" fill="#1a1a1a" stroke="#f4f0e8" stroke-width="0.7" opacity="0.28"/>
<path d="M 105.0 676.3 A 31.9 40.6 0 0 1 163.0 676.3 A 31.9 40.6 0 0 1 105.0 676.3 Z" fill="#1a1a1a" stroke="#f4f0e8" stroke-width="0.7" opacity="0.28"/>
<path d="M 163.0 676.3 A 31.9 40.6 0 0 1 221.0 676.3 A 31.9 40.6 0 0 1 163.0 676.3 Z" fill="#1a1a1a" stroke="#f4f0e8" stroke-width="0.7" opacity="0.28"/>
<path d="M 221.0 676.3 A 31.9 40.6 0 0 1 279.0 676.3 A 31.9 40.6 0 0 1 221.0 676.3 Z" fill="#1a1a1a" stroke="#f4f0e8" stroke-width="0.7" opacity="0.28"/>
<path d="M 279.0 676.3 A 31.9 40.6 0 0 1 337.0 676.3 A 31.9 40.6 0 0 1 279.0 676.3 Z" fill="#1a1a1a" stroke="#f4f0e8" stroke-width="0.7" opacity="0.28"/>
<path d="M 337.0 676.3 A 31.9 40.6 0 0 1 395.0 676.3 A 31.9 40.6 0 0 1 337.0 676.3 Z" fill="#1a1a1a" stroke="#f4f0e8" stroke-width="0.7" opacity="0.28"/>
<path d="M 395.0 676.3 A 31.9 40.6 0 0 1 453.0 676.3 A 31.9 40.6 0 0 1 395.0 676.3 Z" fill="#1a1a1a" stroke="#f4f0e8" stroke-width="0.7" opacity="0.28"/>
<path d="M 453.0 676.3 A 31.9 40.6 0 0 1 511.0 676.3 A 31.9 40.6 0 0 1 453.0 676.3 Z" fill="#1a1a1a" stroke="#f4f0e8" stroke-width="0.7" opacity="0.28"/>
<path d="M 511.0 676.3 A 31.9 40.6 0 0 1 569.0 676.3 A 31.9 40.6 0 0 1 511.0 676.3 Z" fill="#1a1a1a" stroke="#f4f0e8" stroke-width="0.7" opacity="0.28"/>
<path d="M 569.0 676.3 A 31.9 40.6 0 0 1 627.0 676.3 A 31.9 40.6 0 0 1 569.0 676.3 Z" fill="#1a1a1a" stroke="#f4f0e8" stroke-width="0.7" opacity="0.28"/>
<path d="M 627.0 676.3 A 31.9 40.6 0 0 1 685.0 676.3 A 31.9 40.6 0 0 1 627.0 676.3 Z" fill="#1a1a1a" stroke="#f4f0e8" stroke-width="0.7" opacity="0.28"/>
<path d="M 685.0 676.3 A 31.9 40.6 0 0 1 743.0 676.3 A 31.9 40.6 0 0 1 685.0 676.3 Z" fill="#1a1a1a" stroke="#f4f0e8" stroke-width="0.7" opacity="0.28"/>
<path d="M 743.0 676.3 A 31.9 40.6 0 0 1 801.0 676.3 A 31.9 40.6 0 0 1 743.0 676.3 Z" fill="#1a1a1a" stroke="#f4f0e8" stroke-width="0.7" opacity="0.28"/>
<path d="M 801.0 676.3 A 31.9 40.6 0 0 1 859.0 676.3 A 31.9 40.6 0 0 1 801.0 676.3 Z" fill="#1a1a1a" stroke="#f4f0e8" stroke-width="0.7" opacity="0.28"/>
<path d="M 859.0 676.3 A 31.9 40.6 0 0 1 917.0 676.3 A 31.9 40.6 0 0 1 859.0 676.3 Z" fill="#1a1a1a" stroke="#f4f0e8" stroke-width="0.7" opacity="0.28"/>
<path d="M 917.0 676.3 A 31.9 40.6 0 0 1 975.0 676.3 A 31.9 40.6 0 0 1 917.0 676.3 Z" fill="#1a1a1a" stroke="#f4f0e8" stroke-width="0.7" opacity="0.28"/>
<path d="M 975.0 676.3 A 31.9 40.6 0 0 1 1033.0 676.3 A 31.9 40.6 0 0 1 975.0 676.3 Z" fill="#1a1a1a" stroke="#f4f0e8" stroke-width="0.7" opacity="0.28"/>
<path d="M 1033.0 676.3 A 31.9 40.6 0 0 1 1091.0 676.3 A 31.9 40.6 0 0 1 1033.0 676.3 Z" fill="#1a1a1a" stroke="#f4f0e8" stroke-width="0.7" opacity="0.28"/>
<path d="M 1091.0 676.3 A 31.9 40.6 0 0 1 1149.0 676.3 A 31.9 40.6 0 0 1 1091.0 676.3 Z" fill="#1a1a1a" stroke="#f4f0e8" stroke-width="0.7" opacity="0.28"/>
<path d="M 1149.0 676.3 A 31.9 40.6 0 0 1 1207.0 676.3 A 31.9 40.6 0 0 1 1149.0 676.3 Z" fill="#1a1a1a" stroke="#f4f0e8" stroke-width="0.7" opacity="0.28"/>
<path d="M 1207.0 676.3 A 31.9 40.6 0 0 1 1265.0 676.3 A 31.9 40.6 0 0 1 1207.0 676.3 Z" fill="#1a1a1a" stroke="#f4f0e8" stroke-width="0.7" opacity="0.28"/>
<!-- big centred unaunahi name -->
<text x="540" y="360" font-family="Georgia, serif" font-size="120" font-weight="bold"
      fill="#f4f0e8" text-anchor="middle">UNAUNAHI</text>
<text x="540" y="460" font-family="Arial, sans-serif" font-size="34"
      fill="#c0392b" text-anchor="middle" letter-spacing="8">FISH SCALE · COLLECTIVE ARMOUR</text>
<!-- divider -->
<line x1="160" y1="510" x2="920" y2="510" stroke="#c0392b" stroke-width="3"/>
<!-- bilingual subtitle -->
<text x="540" y="590" font-family="Arial, sans-serif" font-size="30"
      fill="#f4f0e8" text-anchor="middle" opacity="0.75">Ko tātou he kahu — We are the armour</text>
<text x="540" y="640" font-family="Arial, sans-serif" font-size="28"
      fill="#f4f0e8" text-anchor="middle" opacity="0.6">Ko ia he tohu o te kotahitanga</text>
<text x="540" y="700" font-family="Arial, sans-serif" font-size="26"
      fill="#f4f0e8" text-anchor="middle" opacity="0.5">It is a symbol of collective strength</text>
<!-- concentric scale rings -->
<circle cx="540" cy="840" r="130" fill="none" stroke="#c0392b" stroke-width="2" opacity="0.4"/>
<circle cx="540" cy="840" r="90"  fill="none" stroke="#f4f0e8" stroke-width="1.5" opacity="0.3"/>
<circle cx="540" cy="840" r="50"  fill="none" stroke="#c0392b" stroke-width="1" opacity="0.4"/>
<!-- footer -->
<rect x="0" y="1000" width="1080" height="80" fill="#c0392b"/>
<text x="540" y="1052" font-family="Arial, sans-serif" font-size="26" font-weight="bold"
      fill="#f4f0e8" text-anchor="middle">THE KIWI DIALECTIC · kiwidialectic.com</text>

</svg>